<?xml version="1.0" encoding="UTF-8"?>
<svg width="168px" height="105px" viewBox="0 0 168 105" version="1.1" xmlns="http://www.w3.org/2000/svg" xmlns:xlink="http://www.w3.org/1999/xlink">
    <!-- Generator: sketchtool 61 (101010) - https://sketch.com -->
    <title>CB1CE2F1-6239-446A-AC9F-B75CF17E059F</title>
    <desc>Created with sketchtool.</desc>
    <defs>
        <polygon id="path-1" points="2.19830957e-05 0.806086957 30.7830649 0.806086957 30.7830649 31.3477365 2.19830957e-05 31.3477365"></polygon>
    </defs>
    <g id="Page-1" stroke="none" stroke-width="1" fill="none" fill-rule="evenodd">
        <g id="Contacts" transform="translate(-914.000000, -127.000000)">
            <g id="Group-4" transform="translate(110.000000, 100.000000)">
                <g id="Group-11" transform="translate(805.000000, 28.000000)">
                    <line x1="121.32219" y1="23.7350513" x2="132.627368" y2="23.7350513" id="Stroke-215-Copy-4" stroke="#576C7D" stroke-width="0.9" stroke-linecap="round"></line>
                    <g id="Group-2" transform="translate(0.000000, 56.426087)">
                        <g id="Group-9">
                            <g id="Group-34">
                                <path d="M64.9882076,33.5043731 L64.9882076,45.162476 C64.9882076,45.9164334 64.371771,46.532919 63.6183734,46.532919 L1.56292884,46.532919 C0.80953129,46.532919 0.193094668,45.9164334 0.193094668,45.162476 L0.193094668,1.52069451 C0.193094668,0.766737106 0.80953129,0.150251493 1.56292884,0.150251493 L63.6183734,0.150251493 C64.371771,0.150251493 64.9882076,0.766737106 64.9882076,1.52069451 L64.9882076,16.1797774" id="Fill-32" fill="#FFFFFF"></path>
                                <path d="M64.9882076,33.5043731 L64.9882076,45.162476 C64.9882076,45.9164334 64.371771,46.532919 63.6183734,46.532919 L1.56292884,46.532919 C0.80953129,46.532919 0.193094668,45.9164334 0.193094668,45.162476 L0.193094668,1.52069451 C0.193094668,0.766737106 0.80953129,0.150251493 1.56292884,0.150251493 L63.6183734,0.150251493 C64.371771,0.150251493 64.9882076,0.766737106 64.9882076,1.52069451 L64.9882076,16.1797774" id="Stroke-33" stroke="#374550" stroke-width="0.5" stroke-linecap="round" stroke-linejoin="round"></path>
                            </g>
                            <path d="M64.9882076,5.60547418 L0.193094668,5.60547418 L0.193094668,1.33057395 C0.193094668,0.678764159 0.721147637,0.150251493 1.37289274,0.150251493 L63.8084095,0.150251493 C64.4599297,0.150251493 64.9882076,0.678764159 64.9882076,1.33057395 L64.9882076,5.60547418 Z" id="Fill-35" fill="#374550"></path>
                            <path d="M4.0836621,2.87784034 C4.0836621,3.51817539 3.56460493,4.03701328 2.92477925,4.03701328 C2.28472867,4.03701328 1.76589639,3.51817539 1.76589639,2.87784034 C1.76589639,2.23750528 2.28472867,1.71866739 2.92477925,1.71866739 C3.56460493,1.71866739 4.0836621,2.23750528 4.0836621,2.87784034" id="Fill-36" fill="#FFFFFF"></path>
                            <path d="M7.90095882,2.87784034 C7.90095882,3.51817539 7.38190164,4.03701328 6.74207596,4.03701328 C6.10202538,4.03701328 5.5831931,3.51817539 5.5831931,2.87784034 C5.5831931,2.23750528 6.10202538,1.71866739 6.74207596,1.71866739 C7.38190164,1.71866739 7.90095882,2.23750528 7.90095882,2.87784034" id="Fill-37" fill="#FFFFFF"></path>
                            <path d="M11.7180081,2.87784034 C11.7180081,3.51817539 11.1991759,4.03701328 10.5593502,4.03701328 C9.91929961,4.03701328 9.40046733,3.51817539 9.40046733,2.87784034 C9.40046733,2.23750528 9.91929961,1.71866739 10.5593502,1.71866739 C11.1991759,1.71866739 11.7180081,2.23750528 11.7180081,2.87784034" id="Fill-38" fill="#FFFFFF"></path>
                        </g>
                        <g id="Group-12" transform="translate(17.151351, 10.747826)">
                            <g id="Group-5">
                                <path d="M15.3459459,30.4521739 L15.3459459,30.4521739 C6.87498378,30.4521739 0,23.630887 0,15.226087 C0,6.82128696 6.87498378,0 15.3459459,0 L26.8554054,0 C28.9731459,0 30.6918919,1.70532174 30.6918919,3.80652174 L30.6918919,15.226087 C30.6918919,23.630887 23.8169081,30.4521739 15.3459459,30.4521739" id="Fill-1" fill="#25C16F"></path>
                                <path d="M15.3459459,6.76044351 C11.4173838,6.76044351 8.28681081,9.86656525 8.28681081,13.7644435 L8.28681081,18.4236261 C8.28681081,19.7026174 9.33033514,20.7684435 10.6500865,20.7684435 L12.6143676,20.7684435 L12.6143676,15.3175044 L9.88278919,15.3175044 L9.88278919,13.7644435 C9.88278919,10.7496783 12.3381405,8.31350438 15.3766378,8.31350438 C18.4151351,8.31350438 20.8704865,10.7496783 20.8704865,13.7644435 L20.8704865,15.3175044 L18.1389081,15.3175044 L18.1389081,20.7684435 L19.9804216,20.7684435 L19.9804216,20.8899477 C19.9804216,22.0474348 19.028973,22.9914522 17.8626811,22.9914522 L15.7449405,22.9914522 C15.5607892,22.9914522 15.4073297,23.1437131 15.4073297,23.3261216 C15.4073297,23.5091392 15.5607892,23.6614 15.7449405,23.6614 L17.8012973,23.6614 C19.3665838,23.6614 20.6249514,22.4125564 20.6249514,20.8598 L20.6249514,20.7075392 C21.6377838,20.4331651 22.3743892,19.5195999 22.3743892,18.4537738 L22.3743892,13.7644435 C22.4050811,9.86656525 19.2438162,6.76044351 15.3459459,6.76044351" id="Fill-3" fill="#FFFFFF"></path>
                            </g>
                        </g>
                    </g>
                    <g id="Group-13" transform="translate(135.405405, 8.060870)">
                        <g id="Group-8">
                            <g id="Group-3" transform="translate(0.000000, 0.089565)">
                                <mask id="mask-2" fill="white">
                                    <use xlink:href="#path-1"></use>
                                </mask>
                                <g id="Clip-2"></g>
                                <path d="M15.3468486,0.805997391 L26.9014432,0.805997391 C29.0679297,0.805997391 30.7830649,2.50773652 30.7830649,4.65730174 L30.7830649,16.1216496 C30.7830649,24.54078 23.9225243,31.3477365 15.4371189,31.3477365 L15.3468486,31.3477365 C6.86144324,31.3477365 0.000902702703,24.54078 0.000902702703,16.1216496 C-0.0893675676,7.70251913 6.77117297,0.895562609 15.2565784,0.805997391 L15.3468486,0.805997391 Z" id="Fill-1" fill="#FFA800" mask="url(#mask-2)"></path>
                            </g>
                            <path d="M15.5275697,8.50860609 C17.2219427,8.50860609 18.5967589,9.8717887 18.5967589,11.5538235 C18.5967589,13.2358583 17.2219427,14.5990409 15.5275697,14.5990409 C13.8322941,14.5990409 12.4583805,13.2358583 12.4583805,11.5538235 C12.4583805,9.8717887 13.8322941,8.50860609 15.5275697,8.50860609" id="Fill-4" fill="#FFFFFF"></path>
                            <polygon id="Fill-6" fill="#FFFFFF" points="8.75729946 15.5841687 14.0832454 20.8685165 14.0832454 23.8241687 16.7010832 23.8241687 16.7010832 20.8685165 22.0270292 15.5841687"></polygon>
                        </g>
                    </g>
                    <path d="M30.6918919,53.5714643 L30.6918919,27.778473 C30.6918919,25.2052643 32.7942865,23.1192904 35.3877514,23.1192904 L57.2087838,23.1192904" id="Stroke-307-Copy" stroke="#576C7D" stroke-width="0.9" stroke-linecap="round"></path>
                    <g id="Group-10" transform="translate(58.675676, 0.000000)">
                        <g id="Group-14">
                            <ellipse id="Oval" fill="#FFFFFF" cx="14.4432432" cy="14.3304348" rx="14.4432432" ry="14.3304348"></ellipse>
                            <g id="Group-8-Copy-3" transform="translate(0.687773, 0.000000)">
                                <g id="Group-7">
                                    <g id="Group-6">
                                        <path d="M27.9386873,14.1048964 C27.8294173,21.7860094 21.4882317,27.9246997 13.7735338,27.8164903 C6.05883594,27.7082809 -0.106695166,21.3941159 0.00139990041,13.7130028 C0.110669913,6.0318898 6.45244297,-0.106800524 14.1671409,0.00140888193 C21.8812513,0.109618287 28.0473699,6.42378333 27.9386873,14.1048964 Z" id="Stroke-271" stroke="#009775" stroke-width="0.56953125"></path>
                                        <g id="Group-5" transform="translate(3.241603, 4.384650)">
                                            <path d="M0.179830458,18.8143986 C0.0499988838,18.6845473 -0.0116858008,18.5073178 0.00182608247,18.3242392 C0.044124152,17.7744185 0.414819733,16.6285686 2.59669515,15.7330626 C4.75800901,14.8469154 6.697258,13.9566736 7.59961682,13.5349494 C7.90216551,13.3928149 8.25876173,13.5150623 8.4150296,13.8092749 L10.1087148,17.4410165 C10.3307797,17.8604011 10.9235401,17.8890619 11.1843782,17.4924891 L13.3204307,13.8408603 C13.49961,13.5688745 13.8585562,13.4799673 14.1446556,13.6367248 L19.9394911,16.8192511 C19.9394911,16.8192511 21.0321912,17.1988614 21.1667226,18.6073384 C21.1855217,18.8091343 21.1144375,19.0080057 20.9628694,19.1431212 C19.9788518,20.0210797 15.7654941,23.5054225 10.9552637,23.4375723 C5.5951583,23.3621182 2.27652226,20.9165856 0.179830458,18.8143986" id="Fill-273" fill="#1AB394"></path>
                                            <path d="M0.179830458,18.8143986 C0.0499988838,18.6845473 -0.0116858008,18.5073178 0.00182608247,18.3242392 C0.044124152,17.7744185 0.414819733,16.6285686 2.59669515,15.7330626 C4.75800901,14.8469154 6.697258,13.9566736 7.59961682,13.5349494 C7.90216551,13.3928149 8.25876173,13.5150623 8.4150296,13.8092749 L10.1087148,17.4410165 C10.3307797,17.8604011 10.9235401,17.8890619 11.1843782,17.4924891 L13.3204307,13.8408603 C13.49961,13.5688745 13.8585562,13.4799673 14.1446556,13.6367248 L19.9394911,16.8192511 C19.9394911,16.8192511 21.0321912,17.1988614 21.1667226,18.6073384 C21.1855217,18.8091343 21.1144375,19.0080057 20.9628694,19.1431212 C19.9788518,20.0210797 15.7654941,23.5054225 10.9552637,23.4375723 C5.5951583,23.3621182 2.27652226,20.9165856 0.179830458,18.8143986 Z" id="Stroke-275" stroke="#018667" stroke-width="0.56953125" stroke-linecap="round" stroke-linejoin="round"></path>
                                            <path d="M6.85945935,13.6855652 L7.22310525,17.905732 L10.6093007,17.9531102 L8.13545111,13.2819734 C8.13545111,13.2819734 7.29418951,12.8479659 6.85945935,13.6855652" id="Fill-277" fill="#B2E4D9"></path>
                                            <path d="M6.85945935,13.6855652 L7.22310525,17.905732 L10.6093007,17.9531102 L8.13545111,13.2819734 C8.13545111,13.2819734 7.29418951,12.8479659 6.85945935,13.6855652 Z" id="Stroke-279" stroke="#018667" stroke-width="0.50625"></path>
                                            <path d="M14.4782816,13.7923708 L13.9959661,18.0002544 L10.6091832,17.9528762 L13.2146268,13.3530991 C13.2146268,13.3530991 14.0670504,12.9436581 14.4782816,13.7923708" id="Fill-281" fill="#B2E4D9"></path>
                                            <path d="M14.4782816,13.7923708 L13.9959661,18.0002544 L10.6091832,17.9528762 L13.2146268,13.3530991 C13.2146268,13.3530991 14.0670504,12.9436581 14.4782816,13.7923708 Z" id="Stroke-283" stroke="#018667" stroke-width="0.50625"></path>
                                            <path d="M15.3767044,3.50949423 L15.3379311,6.24806957 C14.3233649,6.23344667 13.5161768,5.40637587 13.5296887,4.39681136 L6.19567339,4.29386619 C4.84507253,4.27514889 3.76647176,3.1731677 3.78585838,1.82552192 L3.81111972,1.33226763e-14 L4.11719326,0.00409440994 L12.0621806,0.115228394 C13.917421,0.141549601 15.4031407,1.66291535 15.3767044,3.50949423" id="Fill-285" fill="#656D78"></path>
                                            <path d="M12.0624156,0.115403869 L10.8398839,0.0984413132 C12.6951243,0.12476252 14.1802565,1.64554335 14.1544077,3.49212224 L14.1220966,5.76451975 C14.442857,6.05814744 14.8670126,6.24122605 15.3375787,6.24766012 L15.3769394,3.50966971 C15.4033756,1.66309083 13.9170685,0.141725075 12.0624156,0.115403869" id="Fill-287" fill="#434A54"></path>
                                            <path d="M10.6591184,12.8778551 C7.96320397,12.8404205 5.8001277,10.6247598 5.83890093,7.94116657 C5.84125082,7.77271084 5.97930702,7.63876515 6.1484993,7.64107462 C6.3171041,7.64344447 6.45222293,7.78148458 6.44987304,7.94935539 C6.41638707,10.2983769 8.30863821,12.2362026 10.6679305,12.2689579 C13.0272228,12.3022981 14.9735215,10.4182846 15.00642,8.06926311 C15.0087699,7.9013923 15.1474136,7.7674466 15.3166059,7.76978626 C15.4857981,7.77212593 15.619742,7.91016603 15.6174226,8.07803684 C15.5797938,10.762215 13.3556204,12.9152897 10.6591184,12.8778551" id="Fill-289" fill="#374550"></path>
                                            <path d="M6.14003968,8.24938871 C5.9708474,8.24701899 5.83631604,8.10897888 5.83866594,7.94110807 L5.89036358,4.28889441 C5.89271347,4.1210236 6.03076967,3.98707791 6.20054942,3.98938738 C6.36915422,3.99175723 6.50368558,4.12979734 6.50133569,4.29766815 L6.44963805,7.94929689 C6.44728816,8.1171677 6.30864449,8.25169831 6.14003968,8.24938871" id="Fill-293" fill="#374550"></path>
                                            <path d="M15.3078525,8.37795318 C15.1386602,8.37558346 15.0041289,8.23754335 15.0064788,8.06967255 L15.0711008,3.50499038 C15.0734507,3.33711957 15.2120944,3.20258896 15.3806992,3.20489856 C15.5498915,3.20726829 15.6850103,3.34530839 15.6826604,3.51434903 L15.6174509,8.07786137 C15.615101,8.24573217 15.4770448,8.38026279 15.3078525,8.37795318" id="Fill-295" fill="#374550"></path>
                                        </g>
                                    </g>
                                    <path d="M18.6137254,8.19862311 C18.4451206,8.19625339 18.3100018,8.05821328 18.3123517,7.88975756 C18.3364381,6.21221932 16.9852498,4.82772384 15.2997892,4.80432721 C15.1305969,4.80198755 14.9960655,4.66394744 14.9983851,4.49607664 C15.0013528,4.32820583 15.139409,4.1930903 15.3086013,4.19540003 C17.3300965,4.22409083 18.95211,5.88525144 18.9239113,7.8985313 C18.9215614,8.0664021 18.7829177,8.20093272 18.6137254,8.19862311" id="Fill-291" fill="#374550"></path>
                                    <path d="M18.5752459,10.9369929 C17.3955998,10.9206153 16.4497679,9.95140995 16.4662172,8.77748413 C16.4685671,8.6090284 16.6066233,8.47449779 16.7758156,8.47683745 C16.9455953,8.47917712 17.0795392,8.61721722 17.0771893,8.78567295 C17.0654398,9.62444207 17.741034,10.3163973 18.584058,10.3280957 C18.7532503,10.3310202 18.8871942,10.4690603 18.8848443,10.6369312 C18.8824944,10.804802 18.7444382,10.9393326 18.5752459,10.9369929" id="Fill-297" fill="#374550"></path>
                                    <path d="M9.43328193,8.98293658 C7.91642616,8.96126464 6.70035666,7.71539419 6.72150569,6.20572675 C6.72385558,6.03785594 6.86249926,5.90332533 7.03110406,5.90563493 C7.20029634,5.90800466 7.33541517,6.04604476 7.33306528,6.21450049 C7.31602856,7.38842631 8.26244786,8.35763163 9.44209402,8.37400927 C9.61069883,8.37634894 9.74523019,8.51438904 9.7428803,8.68225985 C9.7405304,8.85071557 9.60188673,8.98524618 9.43328193,8.98293658" id="Fill-301" fill="#374550"></path>
                                    <path d="M15.2999654,4.80450269 L7.04831703,4.68868938 C6.87971222,4.68634972 6.74459339,4.54830961 6.74691309,4.37985389 C6.74929317,4.21198308 6.88852432,4.07803738 7.05712912,4.08037705 L15.3087775,4.19560544 C15.4773823,4.19853002 15.6119137,4.33657012 15.6095941,4.50444093 C15.6072139,4.67231174 15.4685702,4.80684235 15.2999654,4.80450269" id="Fill-303" fill="#374550"></path>
                                    <path d="M7.0225857,6.5141528 C6.8539809,6.51181314 6.71886206,6.37377303 6.72121196,6.20590223 L6.74706078,4.38038031 C6.74941067,4.21192459 6.88805434,4.07797889 7.05724662,4.08031855 C7.2264389,4.08265822 7.36097026,4.22069832 7.35862036,4.38856913 L7.33277154,6.21409105 C7.33042165,6.38196185 7.19177798,6.51649247 7.0225857,6.5141528" id="Fill-305" fill="#374550"></path>
                                </g>
                                <path d="M16.7675322,9.08567621 L9.43351691,8.98273105 C9.26432464,8.98039138 9.12979328,8.84235128 9.13211285,8.67389555 C9.13449306,8.50602475 9.27254926,8.37149413 9.44174154,8.3738338 L16.7763443,8.47677896 C16.9455366,8.47911862 17.0794804,8.61715873 17.077161,8.78561445 C17.0747807,8.95348526 16.9367245,9.08801587 16.7675322,9.08567621" id="Fill-299" fill="#374550"></path>
                            </g>
                        </g>
                        <g id="Group-14-Copy" transform="translate(32.497297, 0.000000)">
                            <ellipse id="Oval" fill="#FFFFFF" cx="14.4432432" cy="14.3304348" rx="14.4432432" ry="14.3304348"></ellipse>
                            <g id="Group-8-Copy-3" transform="translate(0.687773, 0.000000)">
                                <g id="Group-7">
                                    <g id="Group-6">
                                        <path d="M27.9386873,14.1048964 C27.8294173,21.7860094 21.4882317,27.9246997 13.7735338,27.8164903 C6.05883594,27.7082809 -0.106695166,21.3941159 0.00139990041,13.7130028 C0.110669913,6.0318898 6.45244297,-0.106800524 14.1671409,0.00140888193 C21.8812513,0.109618287 28.0473699,6.42378333 27.9386873,14.1048964 Z" id="Stroke-271" stroke="#009775" stroke-width="0.56953125"></path>
                                        <g id="Group-5" transform="translate(3.241603, 4.384650)">
                                            <path d="M0.179830458,18.8143986 C0.0499988838,18.6845473 -0.0116858008,18.5073178 0.00182608247,18.3242392 C0.044124152,17.7744185 0.414819733,16.6285686 2.59669515,15.7330626 C4.75800901,14.8469154 6.697258,13.9566736 7.59961682,13.5349494 C7.90216551,13.3928149 8.25876173,13.5150623 8.4150296,13.8092749 L10.1087148,17.4410165 C10.3307797,17.8604011 10.9235401,17.8890619 11.1843782,17.4924891 L13.3204307,13.8408603 C13.49961,13.5688745 13.8585562,13.4799673 14.1446556,13.6367248 L19.9394911,16.8192511 C19.9394911,16.8192511 21.0321912,17.1988614 21.1667226,18.6073384 C21.1855217,18.8091343 21.1144375,19.0080057 20.9628694,19.1431212 C19.9788518,20.0210797 15.7654941,23.5054225 10.9552637,23.4375723 C5.5951583,23.3621182 2.27652226,20.9165856 0.179830458,18.8143986" id="Fill-273" fill="#1AB394"></path>
                                            <path d="M0.179830458,18.8143986 C0.0499988838,18.6845473 -0.0116858008,18.5073178 0.00182608247,18.3242392 C0.044124152,17.7744185 0.414819733,16.6285686 2.59669515,15.7330626 C4.75800901,14.8469154 6.697258,13.9566736 7.59961682,13.5349494 C7.90216551,13.3928149 8.25876173,13.5150623 8.4150296,13.8092749 L10.1087148,17.4410165 C10.3307797,17.8604011 10.9235401,17.8890619 11.1843782,17.4924891 L13.3204307,13.8408603 C13.49961,13.5688745 13.8585562,13.4799673 14.1446556,13.6367248 L19.9394911,16.8192511 C19.9394911,16.8192511 21.0321912,17.1988614 21.1667226,18.6073384 C21.1855217,18.8091343 21.1144375,19.0080057 20.9628694,19.1431212 C19.9788518,20.0210797 15.7654941,23.5054225 10.9552637,23.4375723 C5.5951583,23.3621182 2.27652226,20.9165856 0.179830458,18.8143986 Z" id="Stroke-275" stroke="#018667" stroke-width="0.56953125" stroke-linecap="round" stroke-linejoin="round"></path>
                                            <path d="M6.85945935,13.6855652 L7.22310525,17.905732 L10.6093007,17.9531102 L8.13545111,13.2819734 C8.13545111,13.2819734 7.29418951,12.8479659 6.85945935,13.6855652" id="Fill-277" fill="#B2E4D9"></path>
                                            <path d="M6.85945935,13.6855652 L7.22310525,17.905732 L10.6093007,17.9531102 L8.13545111,13.2819734 C8.13545111,13.2819734 7.29418951,12.8479659 6.85945935,13.6855652 Z" id="Stroke-279" stroke="#018667" stroke-width="0.50625"></path>
                                            <path d="M14.4782816,13.7923708 L13.9959661,18.0002544 L10.6091832,17.9528762 L13.2146268,13.3530991 C13.2146268,13.3530991 14.0670504,12.9436581 14.4782816,13.7923708" id="Fill-281" fill="#B2E4D9"></path>
                                            <path d="M14.4782816,13.7923708 L13.9959661,18.0002544 L10.6091832,17.9528762 L13.2146268,13.3530991 C13.2146268,13.3530991 14.0670504,12.9436581 14.4782816,13.7923708 Z" id="Stroke-283" stroke="#018667" stroke-width="0.50625"></path>
                                            <path d="M15.3767044,3.50949423 L15.3379311,6.24806957 C14.3233649,6.23344667 13.5161768,5.40637587 13.5296887,4.39681136 L6.19567339,4.29386619 C4.84507253,4.27514889 3.76647176,3.1731677 3.78585838,1.82552192 L3.81111972,1.33226763e-14 L4.11719326,0.00409440994 L12.0621806,0.115228394 C13.917421,0.141549601 15.4031407,1.66291535 15.3767044,3.50949423" id="Fill-285" fill="#656D78"></path>
                                            <path d="M12.0624156,0.115403869 L10.8398839,0.0984413132 C12.6951243,0.12476252 14.1802565,1.64554335 14.1544077,3.49212224 L14.1220966,5.76451975 C14.442857,6.05814744 14.8670126,6.24122605 15.3375787,6.24766012 L15.3769394,3.50966971 C15.4033756,1.66309083 13.9170685,0.141725075 12.0624156,0.115403869" id="Fill-287" fill="#434A54"></path>
                                            <path d="M10.6591184,12.8778551 C7.96320397,12.8404205 5.8001277,10.6247598 5.83890093,7.94116657 C5.84125082,7.77271084 5.97930702,7.63876515 6.1484993,7.64107462 C6.3171041,7.64344447 6.45222293,7.78148458 6.44987304,7.94935539 C6.41638707,10.2983769 8.30863821,12.2362026 10.6679305,12.2689579 C13.0272228,12.3022981 14.9735215,10.4182846 15.00642,8.06926311 C15.0087699,7.9013923 15.1474136,7.7674466 15.3166059,7.76978626 C15.4857981,7.77212593 15.619742,7.91016603 15.6174226,8.07803684 C15.5797938,10.762215 13.3556204,12.9152897 10.6591184,12.8778551" id="Fill-289" fill="#374550"></path>
                                            <path d="M6.14003968,8.24938871 C5.9708474,8.24701899 5.83631604,8.10897888 5.83866594,7.94110807 L5.89036358,4.28889441 C5.89271347,4.1210236 6.03076967,3.98707791 6.20054942,3.98938738 C6.36915422,3.99175723 6.50368558,4.12979734 6.50133569,4.29766815 L6.44963805,7.94929689 C6.44728816,8.1171677 6.30864449,8.25169831 6.14003968,8.24938871" id="Fill-293" fill="#374550"></path>
                                            <path d="M15.3078525,8.37795318 C15.1386602,8.37558346 15.0041289,8.23754335 15.0064788,8.06967255 L15.0711008,3.50499038 C15.0734507,3.33711957 15.2120944,3.20258896 15.3806992,3.20489856 C15.5498915,3.20726829 15.6850103,3.34530839 15.6826604,3.51434903 L15.6174509,8.07786137 C15.615101,8.24573217 15.4770448,8.38026279 15.3078525,8.37795318" id="Fill-295" fill="#374550"></path>
                                        </g>
                                    </g>
                                    <path d="M18.6137254,8.19862311 C18.4451206,8.19625339 18.3100018,8.05821328 18.3123517,7.88975756 C18.3364381,6.21221932 16.9852498,4.82772384 15.2997892,4.80432721 C15.1305969,4.80198755 14.9960655,4.66394744 14.9983851,4.49607664 C15.0013528,4.32820583 15.139409,4.1930903 15.3086013,4.19540003 C17.3300965,4.22409083 18.95211,5.88525144 18.9239113,7.8985313 C18.9215614,8.0664021 18.7829177,8.20093272 18.6137254,8.19862311" id="Fill-291" fill="#374550"></path>
                                    <path d="M18.5752459,10.9369929 C17.3955998,10.9206153 16.4497679,9.95140995 16.4662172,8.77748413 C16.4685671,8.6090284 16.6066233,8.47449779 16.7758156,8.47683745 C16.9455953,8.47917712 17.0795392,8.61721722 17.0771893,8.78567295 C17.0654398,9.62444207 17.741034,10.3163973 18.584058,10.3280957 C18.7532503,10.3310202 18.8871942,10.4690603 18.8848443,10.6369312 C18.8824944,10.804802 18.7444382,10.9393326 18.5752459,10.9369929" id="Fill-297" fill="#374550"></path>
                                    <path d="M9.43328193,8.98293658 C7.91642616,8.96126464 6.70035666,7.71539419 6.72150569,6.20572675 C6.72385558,6.03785594 6.86249926,5.90332533 7.03110406,5.90563493 C7.20029634,5.90800466 7.33541517,6.04604476 7.33306528,6.21450049 C7.31602856,7.38842631 8.26244786,8.35763163 9.44209402,8.37400927 C9.61069883,8.37634894 9.74523019,8.51438904 9.7428803,8.68225985 C9.7405304,8.85071557 9.60188673,8.98524618 9.43328193,8.98293658" id="Fill-301" fill="#374550"></path>
                                    <path d="M15.2999654,4.80450269 L7.04831703,4.68868938 C6.87971222,4.68634972 6.74459339,4.54830961 6.74691309,4.37985389 C6.74929317,4.21198308 6.88852432,4.07803738 7.05712912,4.08037705 L15.3087775,4.19560544 C15.4773823,4.19853002 15.6119137,4.33657012 15.6095941,4.50444093 C15.6072139,4.67231174 15.4685702,4.80684235 15.2999654,4.80450269" id="Fill-303" fill="#374550"></path>
                                    <path d="M7.0225857,6.5141528 C6.8539809,6.51181314 6.71886206,6.37377303 6.72121196,6.20590223 L6.74706078,4.38038031 C6.74941067,4.21192459 6.88805434,4.07797889 7.05724662,4.08031855 C7.2264389,4.08265822 7.36097026,4.22069832 7.35862036,4.38856913 L7.33277154,6.21409105 C7.33042165,6.38196185 7.19177798,6.51649247 7.0225857,6.5141528" id="Fill-305" fill="#374550"></path>
                                </g>
                                <path d="M16.7675322,9.08567621 L9.43351691,8.98273105 C9.26432464,8.98039138 9.12979328,8.84235128 9.13211285,8.67389555 C9.13449306,8.50602475 9.27254926,8.37149413 9.44174154,8.3738338 L16.7763443,8.47677896 C16.9455366,8.47911862 17.0794804,8.61715873 17.077161,8.78561445 C17.0747807,8.95348526 16.9367245,9.08801587 16.7675322,9.08567621" id="Fill-299" fill="#374550"></path>
                            </g>
                        </g>
                        <g id="Group-14" transform="translate(11.735135, 12.539130)">
                            <ellipse id="Oval" fill="#FFFFFF" cx="18.9567568" cy="18.8086957" rx="18.9567568" ry="18.8086957"></ellipse>
                            <g id="Group-8-Copy-3" transform="translate(0.902703, 0.000000)">
                                <g id="Group-7">
                                    <g id="Group-6">
                                        <path d="M36.6695271,18.5126765 C36.5261102,28.5941374 28.2033041,36.6511684 18.0777632,36.5091436 C7.95222217,36.3671187 -0.140037405,28.0797771 0.00183736928,17.9983162 C0.145254261,7.91685537 8.4688314,-0.140175687 18.5943724,0.00184915754 C28.7191423,0.143874002 36.812173,8.43121562 36.6695271,18.5126765 Z" id="Stroke-271" stroke="#2C5CC5" stroke-width="0.759375"></path>
                                        <g id="Group-5" transform="translate(4.254604, 5.754853)">
                                            <path d="M0.236027476,24.6938981 C0.065623535,24.5234683 -0.0153376136,24.2908547 0.00239673324,24.050564 C0.0579129495,23.3289242 0.5444509,21.8249963 3.40816239,20.6496447 C6.24488682,19.4865764 8.79015113,18.3181342 9.97449707,17.7646211 C10.3715922,17.5780696 10.8396248,17.7385193 11.0447264,18.1246733 L13.2676882,22.8913342 C13.5591483,23.4417764 14.3371464,23.4793938 14.6794964,22.9588919 L17.4830653,18.1661292 C17.7182382,17.8091478 18.189355,17.6924571 18.5648605,17.8982012 L26.1705821,22.0752671 C26.1705821,22.0752671 27.604751,22.5735056 27.7813234,24.4221317 C27.8059973,24.6869888 27.7126992,24.9480075 27.5137661,25.1253466 C26.222243,26.2776671 20.692211,30.8508671 14.3787836,30.7618137 C7.34364527,30.6627801 2.98793547,27.4530186 0.236027476,24.6938981" id="Fill-273" fill="#459FFC"></path>
                                            <path d="M0.236027476,24.6938981 C0.065623535,24.5234683 -0.0153376136,24.2908547 0.00239673324,24.050564 C0.0579129495,23.3289242 0.5444509,21.8249963 3.40816239,20.6496447 C6.24488682,19.4865764 8.79015113,18.3181342 9.97449707,17.7646211 C10.3715922,17.5780696 10.8396248,17.7385193 11.0447264,18.1246733 L13.2676882,22.8913342 C13.5591483,23.4417764 14.3371464,23.4793938 14.6794964,22.9588919 L17.4830653,18.1661292 C17.7182382,17.8091478 18.189355,17.6924571 18.5648605,17.8982012 L26.1705821,22.0752671 C26.1705821,22.0752671 27.604751,22.5735056 27.7813234,24.4221317 C27.8059973,24.6869888 27.7126992,24.9480075 27.5137661,25.1253466 C26.222243,26.2776671 20.692211,30.8508671 14.3787836,30.7618137 C7.34364527,30.6627801 2.98793547,27.4530186 0.236027476,24.6938981 Z" id="Stroke-275" stroke="#2C5CC5" stroke-width="0.759375" stroke-linecap="round" stroke-linejoin="round"></path>
                                            <path d="M9.00304039,17.9623043 L9.48032564,23.5012733 L13.9247072,23.5634571 L10.6777796,17.4325901 C10.6777796,17.4325901 9.57362373,16.8629553 9.00304039,17.9623043" id="Fill-277" fill="#BBDCFE"></path>
                                            <path d="M9.00304039,17.9623043 L9.48032564,23.5012733 L13.9247072,23.5634571 L10.6777796,17.4325901 C10.6777796,17.4325901 9.57362373,16.8629553 9.00304039,17.9623043 Z" id="Stroke-279" stroke="#2C5CC5" stroke-width="0.675"></path>
                                            <path d="M19.0027446,18.1024867 L18.3697056,23.6253339 L13.924553,23.5631501 L17.3441977,17.5259426 C17.3441977,17.5259426 18.4630036,16.9885513 19.0027446,18.1024867" id="Fill-281" fill="#BBDCFE"></path>
                                            <path d="M19.0027446,18.1024867 L18.3697056,23.6253339 L13.924553,23.5631501 L17.3441977,17.5259426 C17.3441977,17.5259426 18.4630036,16.9885513 19.0027446,18.1024867 Z" id="Stroke-283" stroke="#2C5CC5" stroke-width="0.675"></path>
                                            <path d="M20.1819245,4.60621118 L20.1310346,8.2005913 C18.7994165,8.18139876 17.739982,7.09586832 17.7577164,5.77081491 L8.13182133,5.63569938 C6.3591577,5.61113292 4.94349419,4.16478261 4.96893912,2.39599752 L5.00209464,1.33226763e-14 L5.40381615,0.00537391304 L15.8316121,0.151237267 C18.266615,0.185783851 20.2166221,2.1825764 20.1819245,4.60621118" id="Fill-285" fill="#656D78"></path>
                                            <path d="M15.8319205,0.151467578 L14.2273477,0.129204224 C16.6623506,0.163750807 18.6115866,2.15977565 18.57766,4.58341043 L18.5352518,7.56593217 C18.9562498,7.95131851 19.5129541,8.19160919 20.130572,8.20005391 L20.1822329,4.60644149 C20.2169305,2.18280671 18.2661524,0.186014161 15.8319205,0.151467578" id="Fill-287" fill="#434A54"></path>
                                            <path d="M13.9900929,16.9021848 C10.4517052,16.8530519 7.6126676,13.9449973 7.66355747,10.4227811 C7.6666417,10.201683 7.84784046,10.0258793 8.06990533,10.0289104 C8.29119913,10.0320209 8.4685426,10.2131985 8.46545837,10.4335289 C8.42150803,13.5166196 10.9050876,16.0600159 14.0016588,16.1030072 C17.09823,16.1467662 19.652747,13.6739985 19.6959263,10.5909078 C19.6990105,10.3705774 19.8809803,10.1947737 20.1030452,10.1978445 C20.3251101,10.2009153 20.5009114,10.3820929 20.4978671,10.6024234 C20.4484794,14.1254072 17.5292517,16.9513178 13.9900929,16.9021848" id="Fill-289" fill="#374550"></path>
                                            <path d="M8.05880208,10.8273227 C7.83673722,10.8242124 7.66016481,10.6430348 7.66324904,10.4227043 L7.73110219,5.62917391 C7.73418643,5.40884348 7.91538519,5.23303975 8.13822111,5.23607094 C8.35951492,5.23918137 8.53608733,5.42035901 8.5330031,5.64068944 L8.46514994,10.4334522 C8.46206571,10.6537826 8.28009589,10.830354 8.05880208,10.8273227" id="Fill-293" fill="#374550"></path>
                                            <path d="M20.0915564,10.9960636 C19.8694916,10.9929533 19.6929191,10.8117757 19.6960034,10.5914452 L19.7808198,4.60029988 C19.7839041,4.37996944 19.9658739,4.20339801 20.1871677,4.20642937 C20.4092325,4.20953963 20.586576,4.39071727 20.5834918,4.61258311 L20.4979043,10.602193 C20.49482,10.8225235 20.3136213,10.9990949 20.0915564,10.9960636" id="Fill-295" fill="#374550"></path>
                                        </g>
                                    </g>
                                    <path d="M24.4305146,10.7606928 C24.2092208,10.7575826 24.0318773,10.5764049 24.0349616,10.3553068 C24.066575,8.15353785 22.2931403,6.33638754 20.0809733,6.30567947 C19.8589084,6.30260866 19.682336,6.12143102 19.6853805,5.90110059 C19.6892755,5.68077015 19.8704743,5.50343102 20.0925392,5.50646254 C22.7457517,5.54411922 24.8746444,7.72439251 24.8376335,10.3668223 C24.8345493,10.5871528 24.6525795,10.7637242 24.4305146,10.7606928" id="Fill-291" fill="#374550"></path>
                                    <path d="M24.3800103,14.3548032 C22.8317247,14.3333075 21.5903204,13.0612256 21.6119101,11.5204479 C21.6149943,11.2993498 21.7961931,11.1227784 22.0182579,11.1258492 C22.2410938,11.12892 22.4168952,11.3100976 22.413811,11.5311957 C22.3983898,12.6320802 23.2851071,13.5402715 24.3915762,13.5556256 C24.613641,13.5594641 24.7894424,13.7406417 24.7863581,13.9609721 C24.7832739,14.1813026 24.6020752,14.357874 24.3800103,14.3548032" id="Fill-297" fill="#374550"></path>
                                    <path d="M12.3811825,11.7901043 C10.3903093,11.7616598 8.79421811,10.1264549 8.82197622,8.14501636 C8.82506045,7.92468593 9.00703027,7.7481145 9.22832408,7.75114585 C9.45038895,7.75425611 9.62773241,7.93543375 9.62464818,8.15653189 C9.60228748,9.69730953 10.8444628,10.9693915 12.3927484,10.9908872 C12.6140422,10.993958 12.7906146,11.1751356 12.7875304,11.3954661 C12.7844462,11.6165642 12.6024763,11.7931356 12.3811825,11.7901043" id="Fill-301" fill="#374550"></path>
                                    <path d="M20.0812046,6.30590978 L9.2509161,6.15390481 C9.02962229,6.150834 8.85227882,5.96965636 8.85532343,5.74855823 C8.85844729,5.52822779 9.04118817,5.35242406 9.26248198,5.35549487 L20.0927705,5.50673214 C20.3140643,5.51057065 20.4906367,5.69174829 20.4875923,5.91207872 C20.4844682,6.13240916 20.3024984,6.30898059 20.0812046,6.30590978" id="Fill-303" fill="#374550"></path>
                                    <path d="M9.21714373,8.54982556 C8.99584993,8.54675475 8.81850646,8.36557711 8.82159069,8.14524667 L8.85551727,5.74924916 C8.8586015,5.52815102 9.04057132,5.35234729 9.26263619,5.3554181 C9.48470105,5.35848891 9.66127346,5.53966655 9.65818923,5.75999698 L9.62426265,8.1559945 C9.62117842,8.37632493 9.4392086,8.55289636 9.21714373,8.54982556" id="Fill-305" fill="#374550"></path>
                                </g>
                                <path d="M22.007386,11.92495 L12.381491,11.7898345 C12.1594261,11.7867637 11.9828537,11.6055861 11.9858981,11.3844879 C11.9890221,11.1641575 12.1702209,10.9875861 12.3922858,10.9906569 L22.0189519,11.1257724 C22.2410167,11.1288432 22.4168181,11.3100208 22.4137738,11.531119 C22.4106496,11.7514494 22.2294509,11.9280208 22.007386,11.92495" id="Fill-299" fill="#374550"></path>
                            </g>
                        </g>
                    </g>
                </g>
            </g>
        </g>
    </g>
</svg>