<svg width="168" height="105" viewBox="0 0 168 105" fill="none" xmlns="http://www.w3.org/2000/svg">
<path d="M122.322 24.7351H133.627" stroke="#576C7D" stroke-width="0.9" stroke-linecap="round"/>
<path fill-rule="evenodd" clip-rule="evenodd" d="M65.9882 90.9305V102.589C65.9882 103.343 65.3718 103.959 64.6184 103.959H2.56295C1.80955 103.959 1.19312 103.343 1.19312 102.589V58.9468C1.19312 58.1928 1.80955 57.5763 2.56295 57.5763H64.6184C65.3718 57.5763 65.9882 58.1928 65.9882 58.9468V73.6059" fill="white"/>
<path d="M65.9882 90.9305V102.589C65.9882 103.343 65.3718 103.959 64.6184 103.959H2.56295C1.80955 103.959 1.19312 103.343 1.19312 102.589V58.9468C1.19312 58.1928 1.80955 57.5763 2.56295 57.5763H64.6184C65.3718 57.5763 65.9882 58.1928 65.9882 58.9468V73.6059" stroke="#374550" stroke-width="0.5" stroke-linecap="round" stroke-linejoin="round"/>
<path fill-rule="evenodd" clip-rule="evenodd" d="M65.9882 63.0316H1.19312V58.7567C1.19312 58.1049 1.72117 57.5763 2.37291 57.5763H64.8084C65.4599 57.5763 65.9882 58.1049 65.9882 58.7567V63.0316Z" fill="#374550"/>
<path fill-rule="evenodd" clip-rule="evenodd" d="M5.08368 60.3039C5.08368 60.9443 4.56462 61.4631 3.9248 61.4631C3.28475 61.4631 2.76591 60.9443 2.76591 60.3039C2.76591 59.6636 3.28475 59.1448 3.9248 59.1448C4.56462 59.1448 5.08368 59.6636 5.08368 60.3039Z" fill="white"/>
<path fill-rule="evenodd" clip-rule="evenodd" d="M8.90099 60.3039C8.90099 60.9443 8.38193 61.4631 7.7421 61.4631C7.10205 61.4631 6.58322 60.9443 6.58322 60.3039C6.58322 59.6636 7.10205 59.1448 7.7421 59.1448C8.38193 59.1448 8.90099 59.6636 8.90099 60.3039Z" fill="white"/>
<path fill-rule="evenodd" clip-rule="evenodd" d="M12.718 60.3039C12.718 60.9443 12.1992 61.4631 11.5594 61.4631C10.9193 61.4631 10.4005 60.9443 10.4005 60.3039C10.4005 59.6636 10.9193 59.1448 11.5594 59.1448C12.1992 59.1448 12.718 59.6636 12.718 60.3039Z" fill="white"/>
<path fill-rule="evenodd" clip-rule="evenodd" d="M33.4973 98.6261C25.0264 98.6261 18.1514 91.8048 18.1514 83.4C18.1514 74.9952 25.0264 68.1739 33.4973 68.1739H45.0068C47.1245 68.1739 48.8433 69.8792 48.8433 71.9804V83.4C48.8433 91.8048 41.9683 98.6261 33.4973 98.6261Z" fill="#25C16F"/>
<path fill-rule="evenodd" clip-rule="evenodd" d="M33.4973 74.9344C29.5687 74.9344 26.4382 78.0405 26.4382 81.9384V86.5975C26.4382 87.8765 27.4817 88.9424 28.8014 88.9424H30.7657V83.4914H28.0342V81.9384C28.0342 78.9236 30.4895 76.4874 33.528 76.4874C36.5665 76.4874 39.0218 78.9236 39.0218 81.9384V83.4914H36.2903V88.9424H38.1318V89.0639C38.1318 90.2213 37.1803 91.1654 36.014 91.1654H33.8963C33.7121 91.1654 33.5587 91.3176 33.5587 91.5C33.5587 91.6831 33.7121 91.8353 33.8963 91.8353H35.9527C37.5179 91.8353 38.7763 90.5865 38.7763 89.0337V88.8815C39.7891 88.6071 40.5258 87.6935 40.5258 86.6277V81.9384C40.5564 78.0405 37.3952 74.9344 33.4973 74.9344Z" fill="white"/>
<mask id="mask0" mask-type="alpha" maskUnits="userSpaceOnUse" x="137" y="10" width="31" height="31">
<path d="M137 10H167.783V40.5416H137V10Z" fill="white"/>
</mask>
<g mask="url(#mask0)">
<path fill-rule="evenodd" clip-rule="evenodd" d="M152.347 9.99991H163.901C166.068 9.99991 167.783 11.7017 167.783 13.8512V25.3156C167.783 33.7347 160.923 40.5417 152.437 40.5417H152.347C143.861 40.5417 137.001 33.7347 137.001 25.3156C136.911 16.8964 143.771 10.0895 152.257 9.99991H152.347Z" fill="#FFA800"/>
</g>
<path d="M31.6919 54.5715V28.7785C31.6919 26.2053 33.7943 24.1193 36.3878 24.1193H58.2088" stroke="#576C7D" stroke-width="0.9" stroke-linecap="round"/>
<path d="M74.1189 29.6609C82.0957 29.6609 88.5622 23.2449 88.5622 15.3304C88.5622 7.41595 82.0957 1 74.1189 1C66.1421 1 59.6757 7.41595 59.6757 15.3304C59.6757 23.2449 66.1421 29.6609 74.1189 29.6609Z" fill="white"/>
<path fill-rule="evenodd" clip-rule="evenodd" d="M88.3022 15.1049C88.1929 22.786 81.8517 28.9247 74.137 28.8165C66.4223 28.7083 60.2568 22.3941 60.3649 14.713C60.4741 7.03189 66.8159 0.893199 74.5306 1.00141C82.2447 1.10962 88.4108 7.42378 88.3022 15.1049Z" stroke="#009775" stroke-width="0.569531"/>
<path fill-rule="evenodd" clip-rule="evenodd" d="M63.7849 24.199C63.6551 24.0692 63.5934 23.892 63.6069 23.7089C63.6492 23.1591 64.0199 22.0132 66.2018 21.1177C68.3631 20.2316 70.3023 19.3413 71.2047 18.9196C71.5072 18.7775 71.8638 18.8997 72.0201 19.1939L73.7138 22.8257C73.9359 23.2451 74.5286 23.2737 74.7895 22.8771L76.9255 19.2255C77.1047 18.9535 77.4636 18.8646 77.7497 19.0214L83.5446 22.2039C83.5446 22.2039 84.6373 22.5835 84.7718 23.992C84.7906 24.1938 84.7195 24.3927 84.5679 24.5278C83.5839 25.4057 79.3706 28.8901 74.5603 28.8222C69.2002 28.7468 65.8816 26.3012 63.7849 24.199Z" fill="#1AB394"/>
<path fill-rule="evenodd" clip-rule="evenodd" d="M63.7849 24.199C63.6551 24.0692 63.5934 23.892 63.6069 23.7089C63.6492 23.1591 64.0199 22.0132 66.2018 21.1177C68.3631 20.2316 70.3023 19.3413 71.2047 18.9196C71.5072 18.7775 71.8638 18.8997 72.0201 19.1939L73.7138 22.8257C73.9359 23.2451 74.5286 23.2737 74.7895 22.8771L76.9255 19.2255C77.1047 18.9535 77.4636 18.8646 77.7497 19.0214L83.5446 22.2039C83.5446 22.2039 84.6373 22.5835 84.7718 23.992C84.7906 24.1938 84.7195 24.3927 84.5679 24.5278C83.5839 25.4057 79.3706 28.8901 74.5603 28.8222C69.2002 28.7468 65.8816 26.3012 63.7849 24.199Z" stroke="#018667" stroke-width="0.569531" stroke-linecap="round" stroke-linejoin="round"/>
<path fill-rule="evenodd" clip-rule="evenodd" d="M70.4645 19.0702L70.8282 23.2904L74.2144 23.3378L71.7405 18.6666C71.7405 18.6666 70.8993 18.2326 70.4645 19.0702Z" fill="#B2E4D9"/>
<path fill-rule="evenodd" clip-rule="evenodd" d="M70.4645 19.0702L70.8282 23.2904L74.2144 23.3378L71.7405 18.6666C71.7405 18.6666 70.8993 18.2326 70.4645 19.0702Z" stroke="#018667" stroke-width="0.50625"/>
<path fill-rule="evenodd" clip-rule="evenodd" d="M78.0833 19.177L77.601 23.3849L74.2142 23.3375L76.8197 18.7377C76.8197 18.7377 77.6721 18.3283 78.0833 19.177Z" fill="#B2E4D9"/>
<path fill-rule="evenodd" clip-rule="evenodd" d="M78.0833 19.177L77.601 23.3849L74.2142 23.3375L76.8197 18.7377C76.8197 18.7377 77.6721 18.3283 78.0833 19.177Z" stroke="#018667" stroke-width="0.50625"/>
<path fill-rule="evenodd" clip-rule="evenodd" d="M78.9818 8.89415L78.943 11.6327C77.9284 11.6181 77.1212 10.791 77.1348 9.78146L69.8007 9.67852C68.4501 9.6598 67.3715 8.55782 67.3909 7.21017L67.4162 5.38465L67.7223 5.38875L75.6673 5.49988C77.5225 5.5262 79.0082 7.04757 78.9818 8.89415Z" fill="#656D78"/>
<path fill-rule="evenodd" clip-rule="evenodd" d="M75.6675 5.50006L74.445 5.48309C76.3002 5.50941 77.7853 7.0302 77.7595 8.87677L77.7272 11.1492C78.0479 11.4428 78.4721 11.6259 78.9427 11.6323L78.982 8.89432C79.0085 7.04774 77.5221 5.52638 75.6675 5.50006Z" fill="#434A54"/>
<path fill-rule="evenodd" clip-rule="evenodd" d="M74.2642 18.2625C71.5683 18.2251 69.4052 16.0094 69.444 13.3258C69.4463 13.1574 69.5844 13.0234 69.7536 13.0257C69.9222 13.0281 70.0573 13.1661 70.055 13.334C70.0215 15.683 71.9137 17.6209 74.273 17.6536C76.6323 17.6869 78.5786 15.8029 78.6115 13.4539C78.6138 13.286 78.7525 13.1521 78.9217 13.1544C79.0909 13.1568 79.2248 13.2948 79.2225 13.4627C79.1849 16.1469 76.9607 18.2999 74.2642 18.2625Z" fill="#374550"/>
<path fill-rule="evenodd" clip-rule="evenodd" d="M69.7451 13.634C69.5759 13.6317 69.4414 13.4936 69.4437 13.3258L69.4954 9.67354C69.4978 9.50567 69.6358 9.37173 69.8056 9.37404C69.9742 9.37641 70.1088 9.51445 70.1064 9.68232L70.0547 13.3339C70.0524 13.5018 69.9137 13.6363 69.7451 13.634Z" fill="#374550"/>
<path fill-rule="evenodd" clip-rule="evenodd" d="M78.9129 13.7626C78.7437 13.7602 78.6092 13.6222 78.6116 13.4543L78.6762 8.88964C78.6785 8.72177 78.8172 8.58724 78.9858 8.58955C79.155 8.59192 79.2901 8.72996 79.2877 8.899L79.2225 13.4625C79.2202 13.6304 79.0821 13.7649 78.9129 13.7626Z" fill="#374550"/>
<path fill-rule="evenodd" clip-rule="evenodd" d="M78.9772 9.19862C78.8086 9.19625 78.6735 9.05821 78.6758 8.88976C78.6999 7.21222 77.3487 5.82772 75.6632 5.80433C75.4941 5.80199 75.3595 5.66395 75.3618 5.49608C75.3648 5.32821 75.5029 5.19309 75.6721 5.1954C77.6936 5.22409 79.3156 6.88525 79.2874 8.89853C79.285 9.0664 79.1464 9.20093 78.9772 9.19862Z" fill="#374550"/>
<path fill-rule="evenodd" clip-rule="evenodd" d="M78.9387 11.937C77.7591 11.9206 76.8132 10.9514 76.8297 9.77748C76.832 9.60903 76.9701 9.4745 77.1393 9.47684C77.3091 9.47918 77.443 9.61722 77.4407 9.78567C77.4289 10.6244 78.1045 11.3164 78.9475 11.3281C79.1167 11.331 79.2507 11.4691 79.2483 11.6369C79.246 11.8048 79.1079 11.9393 78.9387 11.937Z" fill="#374550"/>
<path fill-rule="evenodd" clip-rule="evenodd" d="M69.7967 9.98294C68.2799 9.96126 67.0638 8.71539 67.085 7.20573C67.0873 7.03786 67.226 6.90333 67.3946 6.90563C67.5638 6.908 67.6989 7.04604 67.6965 7.2145C67.6795 8.38843 68.6259 9.35763 69.8056 9.37401C69.9742 9.37635 70.1087 9.51439 70.1063 9.68226C70.104 9.85072 69.9654 9.98525 69.7967 9.98294Z" fill="#374550"/>
<path fill-rule="evenodd" clip-rule="evenodd" d="M75.6634 5.8045L67.4118 5.68869C67.2432 5.68635 67.1081 5.54831 67.1104 5.37985C67.1128 5.21198 67.252 5.07804 67.4206 5.08038L75.6722 5.19561C75.8409 5.19853 75.9754 5.33657 75.9731 5.50444C75.9707 5.67231 75.832 5.80684 75.6634 5.8045Z" fill="#374550"/>
<path fill-rule="evenodd" clip-rule="evenodd" d="M67.386 7.51415C67.2174 7.51181 67.0823 7.37377 67.0847 7.2059L67.1105 5.38038C67.1129 5.21192 67.2515 5.07798 67.4207 5.08032C67.5899 5.08266 67.7244 5.2207 67.7221 5.38857L67.6962 7.21409C67.6939 7.38196 67.5552 7.51649 67.386 7.51415Z" fill="#374550"/>
<path fill-rule="evenodd" clip-rule="evenodd" d="M77.131 10.0857L69.797 9.98273C69.6278 9.98039 69.4933 9.84235 69.4956 9.67389C69.498 9.50602 69.636 9.37149 69.8052 9.37383L77.1398 9.47678C77.309 9.47912 77.4429 9.61716 77.4406 9.78561C77.4382 9.95348 77.3002 10.088 77.131 10.0857Z" fill="#374550"/>
<path d="M106.616 29.6609C114.593 29.6609 121.059 23.2449 121.059 15.3304C121.059 7.41595 114.593 1 106.616 1C98.6394 1 92.173 7.41595 92.173 15.3304C92.173 23.2449 98.6394 29.6609 106.616 29.6609Z" fill="white"/>
<path fill-rule="evenodd" clip-rule="evenodd" d="M120.799 15.1049C120.69 22.786 114.349 28.9247 106.634 28.8165C98.9196 28.7083 92.7541 22.3941 92.8622 14.713C92.9714 7.03189 99.3132 0.893199 107.028 1.00141C114.742 1.10962 120.908 7.42378 120.799 15.1049Z" stroke="#009775" stroke-width="0.569531"/>
<path fill-rule="evenodd" clip-rule="evenodd" d="M96.2822 24.199C96.1524 24.0692 96.0907 23.892 96.1042 23.7089C96.1465 23.1591 96.5172 22.0132 98.6991 21.1177C100.86 20.2316 102.8 19.3413 103.702 18.9196C104.005 18.7775 104.361 18.8997 104.517 19.1939L106.211 22.8257C106.433 23.2451 107.026 23.2737 107.287 22.8771L109.423 19.2255C109.602 18.9535 109.961 18.8646 110.247 19.0214L116.042 22.2039C116.042 22.2039 117.135 22.5835 117.269 23.992C117.288 24.1938 117.217 24.3927 117.065 24.5278C116.081 25.4057 111.868 28.8901 107.058 28.8222C101.698 28.7468 98.3789 26.3012 96.2822 24.199Z" fill="#1AB394"/>
<path fill-rule="evenodd" clip-rule="evenodd" d="M96.2822 24.199C96.1524 24.0692 96.0907 23.892 96.1042 23.7089C96.1465 23.1591 96.5172 22.0132 98.6991 21.1177C100.86 20.2316 102.8 19.3413 103.702 18.9196C104.005 18.7775 104.361 18.8997 104.517 19.1939L106.211 22.8257C106.433 23.2451 107.026 23.2737 107.287 22.8771L109.423 19.2255C109.602 18.9535 109.961 18.8646 110.247 19.0214L116.042 22.2039C116.042 22.2039 117.135 22.5835 117.269 23.992C117.288 24.1938 117.217 24.3927 117.065 24.5278C116.081 25.4057 111.868 28.8901 107.058 28.8222C101.698 28.7468 98.3789 26.3012 96.2822 24.199Z" stroke="#018667" stroke-width="0.569531" stroke-linecap="round" stroke-linejoin="round"/>
<path fill-rule="evenodd" clip-rule="evenodd" d="M102.962 19.0702L103.325 23.2904L106.712 23.3378L104.238 18.6666C104.238 18.6666 103.397 18.2326 102.962 19.0702Z" fill="#B2E4D9"/>
<path fill-rule="evenodd" clip-rule="evenodd" d="M102.962 19.0702L103.325 23.2904L106.712 23.3378L104.238 18.6666C104.238 18.6666 103.397 18.2326 102.962 19.0702Z" stroke="#018667" stroke-width="0.50625"/>
<path fill-rule="evenodd" clip-rule="evenodd" d="M110.581 19.177L110.098 23.3849L106.712 23.3375L109.317 18.7377C109.317 18.7377 110.169 18.3283 110.581 19.177Z" fill="#B2E4D9"/>
<path fill-rule="evenodd" clip-rule="evenodd" d="M110.581 19.177L110.098 23.3849L106.712 23.3375L109.317 18.7377C109.317 18.7377 110.169 18.3283 110.581 19.177Z" stroke="#018667" stroke-width="0.50625"/>
<path fill-rule="evenodd" clip-rule="evenodd" d="M111.479 8.89415L111.44 11.6327C110.426 11.6181 109.619 10.791 109.632 9.78146L102.298 9.67852C100.947 9.6598 99.8688 8.55782 99.8882 7.21017L99.9135 5.38465L100.22 5.38875L108.165 5.49988C110.02 5.5262 111.506 7.04757 111.479 8.89415Z" fill="#656D78"/>
<path fill-rule="evenodd" clip-rule="evenodd" d="M108.165 5.50006L106.942 5.48309C108.797 5.50941 110.283 7.0302 110.257 8.87677L110.224 11.1492C110.545 11.4428 110.969 11.6259 111.44 11.6323L111.479 8.89432C111.506 7.04774 110.019 5.52638 108.165 5.50006Z" fill="#434A54"/>
<path fill-rule="evenodd" clip-rule="evenodd" d="M106.761 18.2625C104.066 18.2251 101.902 16.0094 101.941 13.3258C101.944 13.1574 102.082 13.0234 102.251 13.0257C102.419 13.0281 102.555 13.1661 102.552 13.334C102.519 15.683 104.411 17.6209 106.77 17.6536C109.13 17.6869 111.076 15.8029 111.109 13.4539C111.111 13.286 111.25 13.1521 111.419 13.1544C111.588 13.1568 111.722 13.2948 111.72 13.4627C111.682 16.1469 109.458 18.2999 106.761 18.2625Z" fill="#374550"/>
<path fill-rule="evenodd" clip-rule="evenodd" d="M102.242 13.634C102.073 13.6317 101.939 13.4936 101.941 13.3258L101.993 9.67354C101.995 9.50567 102.133 9.37173 102.303 9.37404C102.472 9.37641 102.606 9.51445 102.604 9.68232L102.552 13.3339C102.55 13.5018 102.411 13.6363 102.242 13.634Z" fill="#374550"/>
<path fill-rule="evenodd" clip-rule="evenodd" d="M111.41 13.7626C111.241 13.7602 111.106 13.6222 111.109 13.4543L111.173 8.88964C111.176 8.72177 111.314 8.58724 111.483 8.58955C111.652 8.59192 111.787 8.72996 111.785 8.899L111.72 13.4625C111.717 13.6304 111.579 13.7649 111.41 13.7626Z" fill="#374550"/>
<path fill-rule="evenodd" clip-rule="evenodd" d="M111.474 9.19862C111.306 9.19625 111.171 9.05821 111.173 8.88976C111.197 7.21222 109.846 5.82772 108.161 5.80433C107.991 5.80199 107.857 5.66395 107.859 5.49608C107.862 5.32821 108 5.19309 108.169 5.1954C110.191 5.22409 111.813 6.88525 111.785 8.89853C111.782 9.0664 111.644 9.20093 111.474 9.19862Z" fill="#374550"/>
<path fill-rule="evenodd" clip-rule="evenodd" d="M111.436 11.937C110.256 11.9206 109.311 10.9514 109.327 9.77748C109.329 9.60903 109.467 9.4745 109.637 9.47684C109.806 9.47918 109.94 9.61722 109.938 9.78567C109.926 10.6244 110.602 11.3164 111.445 11.3281C111.614 11.331 111.748 11.4691 111.746 11.6369C111.743 11.8048 111.605 11.9393 111.436 11.937Z" fill="#374550"/>
<path fill-rule="evenodd" clip-rule="evenodd" d="M102.294 9.98294C100.777 9.96126 99.5611 8.71539 99.5823 7.20573C99.5846 7.03786 99.7233 6.90333 99.8919 6.90563C100.061 6.908 100.196 7.04604 100.194 7.2145C100.177 8.38843 101.123 9.35763 102.303 9.37401C102.471 9.37635 102.606 9.51439 102.604 9.68226C102.601 9.85072 102.463 9.98525 102.294 9.98294Z" fill="#374550"/>
<path fill-rule="evenodd" clip-rule="evenodd" d="M108.161 5.8045L99.9091 5.68869C99.7405 5.68635 99.6054 5.54831 99.6077 5.37985C99.6101 5.21198 99.7493 5.07804 99.9179 5.08038L108.17 5.19561C108.338 5.19853 108.473 5.33657 108.47 5.50444C108.468 5.67231 108.329 5.80684 108.161 5.8045Z" fill="#374550"/>
<path fill-rule="evenodd" clip-rule="evenodd" d="M99.8834 7.51415C99.7147 7.51181 99.5796 7.37377 99.582 7.2059L99.6078 5.38038C99.6102 5.21192 99.7488 5.07798 99.918 5.08032C100.087 5.08266 100.222 5.2207 100.219 5.38857L100.194 7.21409C100.191 7.38196 100.053 7.51649 99.8834 7.51415Z" fill="#374550"/>
<path fill-rule="evenodd" clip-rule="evenodd" d="M109.628 10.0857L102.294 9.98273C102.125 9.98039 101.991 9.84235 101.993 9.67389C101.995 9.50602 102.133 9.37149 102.303 9.37383L109.637 9.47678C109.806 9.47912 109.94 9.61716 109.938 9.78561C109.936 9.95348 109.797 10.088 109.628 10.0857Z" fill="#374550"/>
<path d="M90.3676 51.1565C100.837 51.1565 109.324 42.7356 109.324 32.3478C109.324 21.9601 100.837 13.5391 90.3676 13.5391C79.8981 13.5391 71.4108 21.9601 71.4108 32.3478C71.4108 42.7356 79.8981 51.1565 90.3676 51.1565Z" fill="white"/>
<path fill-rule="evenodd" clip-rule="evenodd" d="M108.983 32.0518C108.84 42.1333 100.517 50.1903 90.3913 50.0483C80.2658 49.9063 72.1735 41.6189 72.3154 31.5374C72.4588 21.456 80.7824 13.399 90.9079 13.541C101.033 13.683 109.126 21.9703 108.983 32.0518Z" stroke="#2C5CC5" stroke-width="0.759375"/>
<path fill-rule="evenodd" clip-rule="evenodd" d="M76.8042 43.9879C76.6338 43.8175 76.5528 43.5848 76.5705 43.3445C76.6261 42.6229 77.1126 41.119 79.9763 39.9436C82.813 38.7806 85.3583 37.6121 86.5426 37.0586C86.9397 36.8721 87.4078 37.0325 87.6129 37.4187L89.8358 42.1853C90.1273 42.7358 90.9053 42.7734 91.2476 42.2529L94.0512 37.4601C94.2864 37.1031 94.7575 36.9864 95.133 37.1922L102.739 41.3693C102.739 41.3693 104.173 41.8675 104.349 43.7161C104.374 43.981 104.281 44.242 104.082 44.4193C102.79 45.5717 97.2604 50.1449 90.9469 50.0558C83.9118 49.9568 79.5561 46.747 76.8042 43.9879Z" fill="#459FFC"/>
<path fill-rule="evenodd" clip-rule="evenodd" d="M76.8042 43.9879C76.6338 43.8175 76.5528 43.5848 76.5705 43.3445C76.6261 42.6229 77.1126 41.119 79.9763 39.9436C82.813 38.7806 85.3583 37.6121 86.5426 37.0586C86.9397 36.8721 87.4078 37.0325 87.6129 37.4187L89.8358 42.1853C90.1273 42.7358 90.9053 42.7734 91.2476 42.2529L94.0512 37.4601C94.2864 37.1031 94.7575 36.9864 95.133 37.1922L102.739 41.3693C102.739 41.3693 104.173 41.8675 104.349 43.7161C104.374 43.981 104.281 44.242 104.082 44.4193C102.79 45.5717 97.2604 50.1449 90.9469 50.0558C83.9118 49.9568 79.5561 46.747 76.8042 43.9879Z" stroke="#2C5CC5" stroke-width="0.759375" stroke-linecap="round" stroke-linejoin="round"/>
<path fill-rule="evenodd" clip-rule="evenodd" d="M85.5712 37.2563L86.0485 42.7953L90.4928 42.8574L87.2459 36.7266C87.2459 36.7266 86.1418 36.1569 85.5712 37.2563Z" fill="#BBDCFE"/>
<path fill-rule="evenodd" clip-rule="evenodd" d="M85.5712 37.2563L86.0485 42.7953L90.4928 42.8574L87.2459 36.7266C87.2459 36.7266 86.1418 36.1569 85.5712 37.2563Z" stroke="#2C5CC5" stroke-width="0.675"/>
<path fill-rule="evenodd" clip-rule="evenodd" d="M95.5709 37.3965L94.9379 42.9193L90.4927 42.8571L93.9123 36.8199C93.9123 36.8199 95.0311 36.2825 95.5709 37.3965Z" fill="#BBDCFE"/>
<path fill-rule="evenodd" clip-rule="evenodd" d="M95.5709 37.3965L94.9379 42.9193L90.4927 42.8571L93.9123 36.8199C93.9123 36.8199 95.0311 36.2825 95.5709 37.3965Z" stroke="#2C5CC5" stroke-width="0.675"/>
<path fill-rule="evenodd" clip-rule="evenodd" d="M96.7501 23.9002L96.6992 27.4946C95.3676 27.4754 94.3081 26.3899 94.3259 25.0648L84.7 24.9297C82.9273 24.9051 81.5116 23.4588 81.5371 21.69L81.5702 19.294L81.972 19.2994L92.3998 19.4452C94.8348 19.4798 96.7848 21.4766 96.7501 23.9002Z" fill="#656D78"/>
<path fill-rule="evenodd" clip-rule="evenodd" d="M92.4001 19.4455L90.7955 19.4232C93.2305 19.4577 95.1797 21.4538 95.1458 23.8774L95.1034 26.8599C95.5244 27.2453 96.0811 27.4856 96.6987 27.494L96.7504 23.9004C96.7851 21.4768 94.8343 19.48 92.4001 19.4455Z" fill="#434A54"/>
<path fill-rule="evenodd" clip-rule="evenodd" d="M90.5582 36.1962C87.0199 36.147 84.1808 33.239 84.2317 29.7168C84.2348 29.4957 84.416 29.3199 84.6381 29.3229C84.8593 29.326 85.0367 29.5072 85.0336 29.7275C84.9897 32.8106 87.4732 35.354 90.5698 35.397C93.6664 35.4408 96.2209 32.968 96.2641 29.8849C96.2672 29.6646 96.4491 29.4888 96.6712 29.4918C96.8933 29.4949 97.0691 29.6761 97.066 29.8964C97.0166 33.4194 94.0974 36.2453 90.5582 36.1962Z" fill="#374550"/>
<path fill-rule="evenodd" clip-rule="evenodd" d="M84.6269 30.1213C84.4049 30.1182 84.2283 29.937 84.2314 29.7167L84.2992 24.9232C84.3023 24.7028 84.4835 24.527 84.7064 24.5301C84.9277 24.5332 85.1042 24.7143 85.1011 24.9347L85.0333 29.7274C85.0302 29.9478 84.8482 30.1243 84.6269 30.1213Z" fill="#374550"/>
<path fill-rule="evenodd" clip-rule="evenodd" d="M96.6597 30.29C96.4376 30.2869 96.2611 30.1058 96.2641 29.8854L96.349 23.8943C96.352 23.674 96.534 23.4974 96.7553 23.5004C96.9774 23.5035 97.1547 23.6847 97.1516 23.9066L97.066 29.8962C97.063 30.1165 96.8818 30.2931 96.6597 30.29Z" fill="#374550"/>
<path fill-rule="evenodd" clip-rule="evenodd" d="M96.7441 24.2998C96.5228 24.2967 96.3454 24.1155 96.3485 23.8944C96.3801 21.6927 94.6067 19.8755 92.3945 19.8448C92.1724 19.8417 91.9959 19.6606 91.9989 19.4402C92.0028 19.2199 92.184 19.0426 92.4061 19.0456C95.0593 19.0833 97.1882 21.2635 97.1512 23.906C97.1481 24.1263 96.9661 24.3029 96.7441 24.2998Z" fill="#374550"/>
<path fill-rule="evenodd" clip-rule="evenodd" d="M96.6935 27.8939C95.1453 27.8724 93.9039 26.6004 93.9254 25.0596C93.9285 24.8385 94.1097 24.6619 94.3318 24.665C94.5546 24.6681 94.7304 24.8492 94.7273 25.0703C94.7119 26.1712 95.5986 27.0794 96.7051 27.0948C96.9272 27.0986 97.103 27.2798 97.0999 27.5001C97.0968 27.7204 96.9156 27.897 96.6935 27.8939Z" fill="#374550"/>
<path fill-rule="evenodd" clip-rule="evenodd" d="M84.6947 25.3292C82.7039 25.3008 81.1078 23.6656 81.1355 21.6841C81.1386 21.4638 81.3206 21.2872 81.5419 21.2903C81.7639 21.2934 81.9413 21.4746 81.9382 21.6957C81.9158 23.2364 83.158 24.5085 84.7063 24.53C84.9276 24.5331 85.1042 24.7143 85.1011 24.9346C85.098 25.1557 84.916 25.3323 84.6947 25.3292Z" fill="#374550"/>
<path fill-rule="evenodd" clip-rule="evenodd" d="M92.3947 19.845L81.5645 19.693C81.3432 19.69 81.1658 19.5088 81.1689 19.2877C81.172 19.0674 81.3547 18.8916 81.576 18.8946L92.4063 19.0459C92.6276 19.0497 92.8042 19.2309 92.8011 19.4512C92.798 19.6715 92.616 19.8481 92.3947 19.845Z" fill="#374550"/>
<path fill-rule="evenodd" clip-rule="evenodd" d="M81.5307 22.089C81.3094 22.0859 81.132 21.9047 81.1351 21.6844L81.1691 19.2884C81.1721 19.0673 81.3541 18.8915 81.5762 18.8945C81.7982 18.8976 81.9748 19.0788 81.9717 19.2991L81.9378 21.6951C81.9347 21.9155 81.7527 22.092 81.5307 22.089Z" fill="#374550"/>
<path fill-rule="evenodd" clip-rule="evenodd" d="M94.3209 25.4641L84.695 25.329C84.473 25.3259 84.2964 25.1447 84.2994 24.9236C84.3026 24.7033 84.4838 24.5267 84.7058 24.5298L94.3325 24.6649C94.5545 24.668 94.7304 24.8492 94.7273 25.0702C94.7242 25.2906 94.543 25.4672 94.3209 25.4641Z" fill="#374550"/>
<path d="M152.899 31.7681C153.832 31.7681 154.588 31.012 154.588 30.0793C154.588 29.1466 153.832 28.3905 152.899 28.3905C151.967 28.3905 151.211 29.1466 151.211 30.0793C151.211 31.012 151.967 31.7681 152.899 31.7681Z" fill="white"/>
<path d="M152.917 18.0017C151.485 17.9821 150.083 18.4134 148.91 19.2345C147.738 20.0556 146.853 21.2248 146.381 22.5766C145.909 23.9284 145.875 25.3944 146.282 26.7669C146.69 28.1394 147.519 29.349 148.652 30.2243C148.652 30.1731 148.652 30.1305 148.652 30.0793C148.655 29.4634 148.792 28.8556 149.052 28.2975C149.313 27.7395 149.691 27.2445 150.162 26.8467C149.735 26.275 149.505 25.581 149.505 24.8678C149.496 24.3256 149.616 23.789 149.856 23.3026C150.096 22.8162 150.448 22.394 150.884 22.071C151.32 21.748 151.826 21.5335 152.361 21.4453C152.896 21.3571 153.445 21.3977 153.961 21.5639C154.477 21.73 154.947 22.0168 155.33 22.4005C155.713 22.7842 155.999 23.2538 156.165 23.7702C156.331 24.2867 156.371 24.8352 156.282 25.3702C156.193 25.9052 155.978 26.4114 155.654 26.8467C156.133 27.2475 156.518 27.7486 156.782 28.3146C157.046 28.8805 157.182 29.4975 157.181 30.1219C157.181 30.1731 157.181 30.2158 157.181 30.2669C158.332 29.397 159.178 28.1845 159.596 26.8039C160.015 25.4232 159.986 23.9453 159.512 22.5826C159.038 21.2198 158.144 20.0423 156.959 19.2193C155.774 18.3962 154.359 17.9699 152.917 18.0017V18.0017Z" fill="white"/>
</svg>
