<?xml version="1.0" encoding="UTF-8"?>
<svg width="14px" height="12px" viewBox="0 0 14 12" version="1.1" xmlns="http://www.w3.org/2000/svg" xmlns:xlink="http://www.w3.org/1999/xlink">
    <!-- Generator: Sketch 53.2 (72643) - https://sketchapp.com -->
    <title>Group</title>
    <desc>Created with Sketch.</desc>
    <g id="Page-1" stroke="none" stroke-width="1" fill="none" fill-rule="evenodd">
        <g id="Group">
            <path d="M7.20427738,0.647410585 C7.18045282,0.613391293 7.14973818,0.584060429 7.11378601,0.56123429 C6.96048799,0.463904932 6.75462141,0.507322739 6.6699882,0.634923414 L0.558983666,10.9203218 C0.526303547,10.9699726 0.509090909,11.0272631 0.509090909,11.0855668 C0.509090909,11.2551746 0.652908045,11.3964236 0.834855772,11.3964236 C5.28904609,11.3964236 5.28904609,11.3964236 8.12353084,11.3964236 C10.0323766,11.3964236 10.0323766,11.3964236 13.0319914,11.3964236 C13.09629,11.3964236 13.1590088,11.378247 13.2123538,11.3443781 C13.3601684,11.2505302 13.4013209,11.0623112 13.2954268,10.9004447 L7.20427738,0.647410585 Z" id="Rectangle" stroke="#C82124" stroke-width="1.01818182"></path>
            <path d="M7.39177454,6.73432233 L7.39177454,9.3130908 C7.39177454,9.49176429 7.34780035,9.62685685 7.25985065,9.71837254 C7.17190095,9.80988822 7.06027416,9.85564538 6.92496693,9.85564538 C6.7896597,9.85564538 6.67972422,9.80879877 6.5951572,9.71510414 C6.51059018,9.6214095 6.46830731,9.4874064 6.46830731,9.3130908 L6.46830731,6.76046954 C6.46830731,6.583975 6.51059018,6.45106135 6.5951572,6.36172461 C6.67972422,6.27238787 6.7896597,6.22772016 6.92496693,6.22772016 C7.06027416,6.22772016 7.17190095,6.27238787 7.25985065,6.36172461 C7.34780035,6.45106135 7.39177454,6.57525935 7.39177454,6.73432233 Z M6.93849758,5.83289731 C6.80093523,5.83289731 6.68085186,5.78986379 6.57824388,5.70379547 C6.4756359,5.61772714 6.42433268,5.49734224 6.42433268,5.34263715 C6.42433268,5.20536361 6.47394458,5.08988126 6.57316989,4.99618663 C6.67239519,4.902492 6.79416987,4.85564538 6.93849758,4.85564538 C7.08057017,4.85564538 7.20008977,4.902492 7.29705995,4.99618663 C7.39403013,5.08988126 7.44251449,5.20536361 7.44251449,5.34263715 C7.44251449,5.49516329 7.39177504,5.61500347 7.29029462,5.70216127 C7.1888142,5.78931907 7.07154969,5.83289731 6.93849758,5.83289731 Z" id="info" fill="#C82124" fill-rule="nonzero"></path>
        </g>
    </g>
</svg>