<svg width="232" height="44" viewBox="0 0 232 44" fill="none" xmlns="http://www.w3.org/2000/svg">
<path fill-rule="evenodd" clip-rule="evenodd" d="M60.5625 31.7278V42.4198C60.5625 43.1113 59.9975 43.6767 59.307 43.6767H2.43247C1.74197 43.6767 1.177 43.1113 1.177 42.4198V2.39468C1.177 1.7032 1.74197 1.1378 2.43247 1.1378H59.307C59.9975 1.1378 60.5625 1.7032 60.5625 2.39468V15.8389" fill="white"/>
<path d="M60.5625 31.7278V42.4198C60.5625 43.1113 59.9975 43.6767 59.307 43.6767H2.43247C1.74197 43.6767 1.177 43.1113 1.177 42.4198V2.39468C1.177 1.7032 1.74197 1.1378 2.43247 1.1378H59.307C59.9975 1.1378 60.5625 1.7032 60.5625 2.39468V15.8389" stroke="#374550" stroke-width="0.55" stroke-linecap="round" stroke-linejoin="round"/>
<path fill-rule="evenodd" clip-rule="evenodd" d="M60.5625 6.14094H1.177V2.22031C1.177 1.62252 1.66097 1.1378 2.2583 1.1378H59.4812C60.0783 1.1378 60.5625 1.62252 60.5625 2.22031V6.14094Z" fill="#374550"/>
<path fill-rule="evenodd" clip-rule="evenodd" d="M4.74276 3.63935C4.74276 4.22662 4.26704 4.70246 3.68063 4.70246C3.09402 4.70246 2.6185 4.22662 2.6185 3.63935C2.6185 3.05208 3.09402 2.57624 3.68063 2.57624C4.26704 2.57624 4.74276 3.05208 4.74276 3.63935Z" fill="white"/>
<path fill-rule="evenodd" clip-rule="evenodd" d="M8.24136 3.63935C8.24136 4.22662 7.76563 4.70246 7.17923 4.70246C6.59261 4.70246 6.1171 4.22662 6.1171 3.63935C6.1171 3.05208 6.59261 2.57624 7.17923 2.57624C7.76563 2.57624 8.24136 3.05208 8.24136 3.63935Z" fill="white"/>
<path fill-rule="evenodd" clip-rule="evenodd" d="M11.7397 3.63935C11.7397 4.22662 11.2642 4.70246 10.6778 4.70246C10.0912 4.70246 9.61566 4.22662 9.61566 3.63935C9.61566 3.05208 10.0912 2.57624 10.6778 2.57624C11.2642 2.57624 11.7397 3.05208 11.7397 3.63935Z" fill="white"/>
<path fill-rule="evenodd" clip-rule="evenodd" d="M30.7842 38.7857C23.0205 38.7857 16.7195 32.5297 16.7195 24.8214C16.7195 17.1131 23.0205 10.8571 30.7842 10.8571H41.3328C43.2737 10.8571 44.8489 12.4211 44.8489 14.3482V24.8214C44.8489 32.5297 38.5479 38.7857 30.7842 38.7857Z" fill="#25C16F"/>
<path fill-rule="evenodd" clip-rule="evenodd" d="M30.7842 17.0573C27.1836 17.0573 24.3144 19.9061 24.3144 23.4809V27.754C24.3144 28.927 25.2708 29.9045 26.4804 29.9045H28.2807V24.9053H25.7772V23.4809C25.7772 20.716 28.0275 18.4817 30.8123 18.4817C33.5972 18.4817 35.8475 20.716 35.8475 23.4809V24.9053H33.344V29.9045H35.0318V30.0159C35.0318 31.0775 34.1597 31.9433 33.0908 31.9433H31.1499C30.9811 31.9433 30.8405 32.0829 30.8405 32.2502C30.8405 32.4181 30.9811 32.5577 31.1499 32.5577H33.0346C34.4692 32.5577 35.6225 31.4123 35.6225 29.9883V29.8486C36.5508 29.597 37.2259 28.7591 37.2259 27.7816V23.4809C37.254 19.9061 34.3567 17.0573 30.7842 17.0573Z" fill="white"/>
<path fill-rule="evenodd" clip-rule="evenodd" d="M230.994 31.7278V42.4198C230.994 43.1113 230.429 43.6767 229.739 43.6767H172.864C172.174 43.6767 171.609 43.1113 171.609 42.4198V2.39468C171.609 1.7032 172.174 1.1378 172.864 1.1378H229.739C230.429 1.1378 230.994 1.7032 230.994 2.39468V15.8389" fill="white"/>
<path d="M171.609 31.7278V42.4198C171.609 43.1113 172.174 43.6767 172.864 43.6767H229.739C230.429 43.6767 230.994 43.1113 230.994 42.4198V2.39468C230.994 1.7032 230.429 1.1378 229.739 1.1378H172.864C172.174 1.1378 171.609 1.7032 171.609 2.39468V15.8389" stroke="#374550" stroke-width="0.55" stroke-linecap="round" stroke-linejoin="round"/>
<path fill-rule="evenodd" clip-rule="evenodd" d="M230.994 6.14094H171.609V2.22031C171.609 1.62252 172.093 1.1378 172.69 1.1378H229.913C230.51 1.1378 230.994 1.62252 230.994 2.22031V6.14094Z" fill="#374550"/>
<path fill-rule="evenodd" clip-rule="evenodd" d="M175.174 3.63935C175.174 4.22662 174.699 4.70246 174.112 4.70246C173.526 4.70246 173.05 4.22662 173.05 3.63935C173.05 3.05208 173.526 2.57624 174.112 2.57624C174.699 2.57624 175.174 3.05208 175.174 3.63935Z" fill="white"/>
<path fill-rule="evenodd" clip-rule="evenodd" d="M178.673 3.63935C178.673 4.22662 178.197 4.70246 177.611 4.70246C177.024 4.70246 176.549 4.22662 176.549 3.63935C176.549 3.05208 177.024 2.57624 177.611 2.57624C178.197 2.57624 178.673 3.05208 178.673 3.63935Z" fill="white"/>
<path fill-rule="evenodd" clip-rule="evenodd" d="M182.171 3.63935C182.171 4.22662 181.696 4.70246 181.109 4.70246C180.523 4.70246 180.047 4.22662 180.047 3.63935C180.047 3.05208 180.523 2.57624 181.109 2.57624C181.696 2.57624 182.171 3.05208 182.171 3.63935Z" fill="white"/>
<mask id="mask0" mask-type="alpha" maskUnits="userSpaceOnUse" x="187" y="10" width="29" height="29">
<path d="M187.151 10.9566H215.261V38.7677H187.151V10.9566Z" fill="white"/>
</mask>
<g mask="url(#mask0)">
<path fill-rule="evenodd" clip-rule="evenodd" d="M201.165 10.9565H211.716C213.695 10.9565 215.261 12.5061 215.261 14.4635V24.9029C215.261 32.5693 208.996 38.7677 201.248 38.7677H201.165C193.417 38.7677 187.152 32.5693 187.152 24.9029C187.069 17.2365 193.334 11.0381 201.083 10.9565H201.165Z" fill="#FFA800"/>
</g>
<path fill-rule="evenodd" clip-rule="evenodd" d="M201.33 17.8889C202.877 17.8889 204.133 19.1302 204.133 20.6619C204.133 22.1936 202.877 23.4349 201.33 23.4349C199.782 23.4349 198.528 22.1936 198.528 20.6619C198.528 19.1302 199.782 17.8889 201.33 17.8889Z" fill="white"/>
<path d="M64.8722 22.2034H84.8714" stroke="#576C7D" stroke-width="0.825" stroke-linecap="round"/>
<path d="M147.439 22.2034H167.438" stroke="#576C7D" stroke-width="0.825" stroke-linecap="round"/>
<path d="M101.108 27.2857C108.419 27.2857 114.345 21.4015 114.345 14.1429C114.345 6.88426 108.419 1 101.108 1C93.7971 1 87.8705 6.88426 87.8705 14.1429C87.8705 21.4015 93.7971 27.2857 101.108 27.2857Z" fill="white"/>
<path fill-rule="evenodd" clip-rule="evenodd" d="M114.107 13.936C114.007 20.9806 108.195 26.6106 101.125 26.5113C94.0539 26.4121 88.4031 20.6212 88.5022 13.5766C88.6023 6.53202 94.4146 0.90205 101.485 1.00129C108.555 1.10053 114.207 6.89144 114.107 13.936Z" stroke="#009775" stroke-width="0.55"/>
<path fill-rule="evenodd" clip-rule="evenodd" d="M91.6367 22.2765C91.5177 22.1574 91.4612 21.9949 91.4735 21.827C91.5123 21.3227 91.8521 20.2718 93.8518 19.4505C95.8326 18.6378 97.61 17.8214 98.437 17.4346C98.7143 17.3042 99.0411 17.4163 99.1843 17.6862L100.737 21.017C100.94 21.4016 101.483 21.4279 101.722 21.0642L103.68 17.7151C103.844 17.4657 104.173 17.3842 104.436 17.5279L109.747 20.4467C109.747 20.4467 110.748 20.7949 110.871 22.0866C110.889 22.2717 110.824 22.4541 110.685 22.578C109.783 23.3832 105.921 26.5788 101.512 26.5166C96.5999 26.4474 93.5583 24.2045 91.6367 22.2765Z" fill="#1AB394"/>
<path fill-rule="evenodd" clip-rule="evenodd" d="M91.6367 22.2765C91.5177 22.1574 91.4612 21.9949 91.4735 21.827C91.5123 21.3227 91.8521 20.2718 93.8518 19.4505C95.8326 18.6378 97.61 17.8214 98.437 17.4346C98.7143 17.3042 99.0411 17.4163 99.1843 17.6862L100.737 21.017C100.94 21.4016 101.483 21.4279 101.722 21.0642L103.68 17.7151C103.844 17.4657 104.173 17.3842 104.436 17.5279L109.747 20.4467C109.747 20.4467 110.748 20.7949 110.871 22.0866C110.889 22.2717 110.824 22.4541 110.685 22.578C109.783 23.3832 105.921 26.5788 101.512 26.5166C96.5999 26.4474 93.5583 24.2045 91.6367 22.2765Z" stroke="#018667" stroke-width="0.55" stroke-linecap="round" stroke-linejoin="round"/>
<path fill-rule="evenodd" clip-rule="evenodd" d="M97.7586 17.5727L98.0919 21.4432L101.195 21.4866L98.9281 17.2026C98.9281 17.2026 98.1571 16.8045 97.7586 17.5727Z" fill="#B2E4D9"/>
<path fill-rule="evenodd" clip-rule="evenodd" d="M97.7586 17.5727L98.0919 21.4432L101.195 21.4866L98.9281 17.2026C98.9281 17.2026 98.1571 16.8045 97.7586 17.5727Z" stroke="#018667" stroke-width="0.55"/>
<path fill-rule="evenodd" clip-rule="evenodd" d="M104.741 17.6707L104.299 21.5298L101.195 21.4864L103.583 17.2678C103.583 17.2678 104.364 16.8923 104.741 17.6707Z" fill="#B2E4D9"/>
<path fill-rule="evenodd" clip-rule="evenodd" d="M104.741 17.6707L104.299 21.5298L101.195 21.4864L103.583 17.2678C103.583 17.2678 104.364 16.8923 104.741 17.6707Z" stroke="#018667" stroke-width="0.55"/>
<path fill-rule="evenodd" clip-rule="evenodd" d="M105.565 8.23994L105.529 10.7516C104.599 10.7382 103.86 9.97963 103.872 9.05373L97.1503 8.95932C95.9124 8.94215 94.9239 7.93149 94.9416 6.69553L94.9648 5.02129L95.2453 5.02504L102.527 5.12697C104.227 5.15111 105.589 6.54639 105.565 8.23994Z" fill="#656D78"/>
<path fill-rule="evenodd" clip-rule="evenodd" d="M102.527 5.12713L101.407 5.11157C103.107 5.13571 104.468 6.53046 104.445 8.22402L104.415 10.3081C104.709 10.5774 105.098 10.7453 105.529 10.7512L105.565 8.24011C105.589 6.54656 104.227 5.15127 102.527 5.12713Z" fill="#434A54"/>
<path fill-rule="evenodd" clip-rule="evenodd" d="M101.241 16.8319C98.7702 16.7976 96.7877 14.7656 96.8233 12.3044C96.8254 12.1499 96.952 12.027 97.107 12.0291C97.2616 12.0313 97.3854 12.1579 97.3832 12.3119C97.3526 14.4662 99.0868 16.2435 101.249 16.2735C103.411 16.3041 105.195 14.5762 105.225 12.4218C105.228 12.2679 105.355 12.145 105.51 12.1472C105.665 12.1493 105.788 12.2759 105.785 12.4299C105.751 14.8916 103.712 16.8663 101.241 16.8319Z" fill="#374550"/>
<path fill-rule="evenodd" clip-rule="evenodd" d="M97.0993 12.587C96.9442 12.5849 96.8209 12.4583 96.8231 12.3043L96.8705 8.95475C96.8726 8.80079 96.9991 8.67795 97.1547 8.68007C97.3093 8.68224 97.4326 8.80884 97.4304 8.9628L97.383 12.3118C97.3809 12.4658 97.2538 12.5892 97.0993 12.587Z" fill="#374550"/>
<path fill-rule="evenodd" clip-rule="evenodd" d="M105.502 12.7049C105.347 12.7028 105.223 12.5762 105.225 12.4222L105.285 8.23581C105.287 8.08185 105.414 7.95847 105.568 7.96059C105.724 7.96276 105.847 8.08936 105.845 8.2444L105.785 12.4297C105.783 12.5837 105.657 12.7071 105.502 12.7049Z" fill="#374550"/>
<path fill-rule="evenodd" clip-rule="evenodd" d="M105.561 8.51919C105.406 8.51702 105.282 8.39042 105.284 8.23592C105.306 6.6974 104.068 5.42764 102.523 5.40619C102.368 5.40404 102.245 5.27744 102.247 5.12348C102.25 4.96952 102.376 4.8456 102.531 4.84772C104.384 4.87403 105.871 6.39753 105.845 8.24397C105.843 8.39793 105.716 8.52131 105.561 8.51919Z" fill="#374550"/>
<path fill-rule="evenodd" clip-rule="evenodd" d="M105.525 11.0306C104.444 11.0156 103.577 10.1267 103.592 9.05008C103.595 8.89559 103.721 8.7722 103.876 8.77435C104.032 8.7765 104.155 8.9031 104.152 9.05759C104.142 9.82685 104.761 10.4615 105.533 10.4722C105.688 10.4749 105.811 10.6015 105.809 10.7554C105.807 10.9094 105.68 11.0328 105.525 11.0306Z" fill="#374550"/>
<path fill-rule="evenodd" clip-rule="evenodd" d="M97.1466 9.23851C95.7564 9.21863 94.6419 8.07601 94.6612 6.69145C94.6634 6.53749 94.7905 6.41411 94.945 6.41623C95.1001 6.4184 95.2239 6.545 95.2217 6.6995C95.2061 7.77614 96.0735 8.66502 97.1547 8.68004C97.3092 8.68219 97.4325 8.80879 97.4304 8.96275C97.4282 9.11724 97.3011 9.24063 97.1466 9.23851Z" fill="#374550"/>
<path fill-rule="evenodd" clip-rule="evenodd" d="M102.524 5.40635L94.9608 5.30013C94.8062 5.29799 94.6824 5.17138 94.6845 5.01689C94.6867 4.86293 94.8143 4.74008 94.9689 4.74223L102.532 4.84791C102.686 4.85059 102.809 4.97719 102.807 5.13115C102.805 5.28511 102.678 5.40849 102.524 5.40635Z" fill="#374550"/>
<path fill-rule="evenodd" clip-rule="evenodd" d="M94.9372 6.97432C94.7827 6.97217 94.6588 6.84557 94.661 6.69161L94.6847 5.01737C94.6868 4.86288 94.8139 4.74003 94.969 4.74218C95.124 4.74432 95.2473 4.87092 95.2452 5.02488L95.2215 6.69912C95.2193 6.85308 95.0923 6.97646 94.9372 6.97432Z" fill="#374550"/>
<path fill-rule="evenodd" clip-rule="evenodd" d="M103.869 9.33273L97.1468 9.23832C96.9918 9.23617 96.8685 9.10957 96.8706 8.95508C96.8728 8.80112 96.9993 8.67774 97.1544 8.67988L103.877 8.7743C104.032 8.77644 104.154 8.90304 104.152 9.05754C104.15 9.2115 104.024 9.33488 103.869 9.33273Z" fill="#374550"/>
<path d="M130.892 27.2857C138.203 27.2857 144.13 21.4015 144.13 14.1429C144.13 6.88426 138.203 1 130.892 1C123.581 1 117.655 6.88426 117.655 14.1429C117.655 21.4015 123.581 27.2857 130.892 27.2857Z" fill="white"/>
<path fill-rule="evenodd" clip-rule="evenodd" d="M143.891 13.936C143.791 20.9806 137.979 26.6106 130.909 26.5113C123.838 26.4121 118.187 20.6212 118.286 13.5766C118.387 6.53202 124.199 0.90205 131.269 1.00129C138.34 1.10053 143.991 6.89144 143.891 13.936Z" stroke="#009775" stroke-width="0.55"/>
<path fill-rule="evenodd" clip-rule="evenodd" d="M121.421 22.2765C121.302 22.1574 121.245 21.9949 121.258 21.827C121.296 21.3227 121.636 20.2718 123.636 19.4505C125.617 18.6378 127.394 17.8214 128.221 17.4346C128.498 17.3042 128.825 17.4163 128.969 17.6862L130.521 21.017C130.724 21.4016 131.268 21.4279 131.507 21.0642L133.464 17.7151C133.629 17.4657 133.958 17.3842 134.22 17.5279L139.531 20.4467C139.531 20.4467 140.532 20.7949 140.656 22.0866C140.673 22.2717 140.608 22.4541 140.469 22.578C139.567 23.3832 135.705 26.5788 131.297 26.5166C126.384 26.4474 123.343 24.2045 121.421 22.2765Z" fill="#1AB394"/>
<path fill-rule="evenodd" clip-rule="evenodd" d="M121.421 22.2765C121.302 22.1574 121.245 21.9949 121.258 21.827C121.296 21.3227 121.636 20.2718 123.636 19.4505C125.617 18.6378 127.394 17.8214 128.221 17.4346C128.498 17.3042 128.825 17.4163 128.969 17.6862L130.521 21.017C130.724 21.4016 131.268 21.4279 131.507 21.0642L133.464 17.7151C133.629 17.4657 133.958 17.3842 134.22 17.5279L139.531 20.4467C139.531 20.4467 140.532 20.7949 140.656 22.0866C140.673 22.2717 140.608 22.4541 140.469 22.578C139.567 23.3832 135.705 26.5788 131.297 26.5166C126.384 26.4474 123.343 24.2045 121.421 22.2765Z" stroke="#018667" stroke-width="0.55" stroke-linecap="round" stroke-linejoin="round"/>
<path fill-rule="evenodd" clip-rule="evenodd" d="M127.543 17.5727L127.876 21.4432L130.98 21.4866L128.712 17.2026C128.712 17.2026 127.941 16.8045 127.543 17.5727Z" fill="#B2E4D9"/>
<path fill-rule="evenodd" clip-rule="evenodd" d="M127.543 17.5727L127.876 21.4432L130.98 21.4866L128.712 17.2026C128.712 17.2026 127.941 16.8045 127.543 17.5727Z" stroke="#018667" stroke-width="0.55"/>
<path fill-rule="evenodd" clip-rule="evenodd" d="M134.526 17.6707L134.084 21.5298L130.979 21.4864L133.367 17.2678C133.367 17.2678 134.149 16.8923 134.526 17.6707Z" fill="#B2E4D9"/>
<path fill-rule="evenodd" clip-rule="evenodd" d="M134.526 17.6707L134.084 21.5298L130.979 21.4864L133.367 17.2678C133.367 17.2678 134.149 16.8923 134.526 17.6707Z" stroke="#018667" stroke-width="0.55"/>
<path fill-rule="evenodd" clip-rule="evenodd" d="M135.349 8.23994L135.313 10.7516C134.384 10.7382 133.644 9.97963 133.656 9.05373L126.934 8.95932C125.697 8.94215 124.708 7.93149 124.726 6.69553L124.749 5.02129L125.029 5.02504L132.311 5.12697C134.012 5.15111 135.373 6.54639 135.349 8.23994Z" fill="#656D78"/>
<path fill-rule="evenodd" clip-rule="evenodd" d="M132.311 5.12713L131.191 5.11157C132.891 5.13571 134.252 6.53046 134.229 8.22402L134.199 10.3081C134.493 10.5774 134.882 10.7453 135.313 10.7512L135.349 8.24011C135.373 6.54656 134.011 5.15127 132.311 5.12713Z" fill="#434A54"/>
<path fill-rule="evenodd" clip-rule="evenodd" d="M131.025 16.8319C128.554 16.7976 126.572 14.7656 126.607 12.3044C126.61 12.1499 126.736 12.027 126.891 12.0291C127.046 12.0313 127.17 12.1579 127.167 12.3119C127.137 14.4662 128.871 16.2435 131.033 16.2735C133.196 16.3041 134.979 14.5762 135.01 12.4218C135.012 12.2679 135.139 12.145 135.294 12.1472C135.449 12.1493 135.572 12.2759 135.57 12.4299C135.535 14.8916 133.497 16.8663 131.025 16.8319Z" fill="#374550"/>
<path fill-rule="evenodd" clip-rule="evenodd" d="M126.883 12.587C126.728 12.5849 126.605 12.4583 126.607 12.3043L126.655 8.95475C126.657 8.80079 126.783 8.67795 126.939 8.68007C127.093 8.68224 127.217 8.80884 127.215 8.9628L127.167 12.3118C127.165 12.4658 127.038 12.5892 126.883 12.587Z" fill="#374550"/>
<path fill-rule="evenodd" clip-rule="evenodd" d="M135.286 12.7049C135.131 12.7028 135.008 12.5762 135.01 12.4222L135.069 8.23581C135.071 8.08185 135.198 7.95847 135.353 7.96059C135.508 7.96276 135.632 8.08936 135.629 8.2444L135.57 12.4297C135.567 12.5837 135.441 12.7071 135.286 12.7049Z" fill="#374550"/>
<path fill-rule="evenodd" clip-rule="evenodd" d="M135.345 8.51919C135.19 8.51702 135.066 8.39042 135.069 8.23592C135.091 6.6974 133.852 5.42764 132.308 5.40619C132.152 5.40404 132.029 5.27744 132.031 5.12348C132.034 4.96952 132.161 4.8456 132.316 4.84772C134.168 4.87403 135.655 6.39753 135.629 8.24397C135.627 8.39793 135.5 8.52131 135.345 8.51919Z" fill="#374550"/>
<path fill-rule="evenodd" clip-rule="evenodd" d="M135.31 11.0306C134.228 11.0156 133.361 10.1267 133.377 9.05008C133.379 8.89559 133.505 8.7722 133.66 8.77435C133.816 8.7765 133.939 8.9031 133.937 9.05759C133.926 9.82685 134.545 10.4615 135.318 10.4722C135.473 10.4749 135.595 10.6015 135.593 10.7554C135.591 10.9094 135.465 11.0328 135.31 11.0306Z" fill="#374550"/>
<path fill-rule="evenodd" clip-rule="evenodd" d="M126.931 9.23851C125.541 9.21863 124.426 8.07601 124.445 6.69145C124.448 6.53749 124.575 6.41411 124.729 6.41623C124.884 6.4184 125.008 6.545 125.006 6.6995C124.99 7.77614 125.858 8.66502 126.939 8.68004C127.093 8.68219 127.217 8.80879 127.215 8.96275C127.212 9.11724 127.085 9.24063 126.931 9.23851Z" fill="#374550"/>
<path fill-rule="evenodd" clip-rule="evenodd" d="M132.308 5.40635L124.745 5.30013C124.59 5.29799 124.467 5.17138 124.469 5.01689C124.471 4.86293 124.599 4.74008 124.753 4.74223L132.316 4.84791C132.47 4.85059 132.594 4.97719 132.591 5.13115C132.589 5.28511 132.462 5.40849 132.308 5.40635Z" fill="#374550"/>
<path fill-rule="evenodd" clip-rule="evenodd" d="M124.721 6.97432C124.567 6.97217 124.443 6.84557 124.445 6.69161L124.469 5.01737C124.471 4.86288 124.598 4.74003 124.753 4.74218C124.908 4.74432 125.032 4.87092 125.029 5.02488L125.006 6.69912C125.004 6.85308 124.876 6.97646 124.721 6.97432Z" fill="#374550"/>
<path fill-rule="evenodd" clip-rule="evenodd" d="M133.653 9.33273L126.931 9.23832C126.776 9.23617 126.653 9.10957 126.655 8.95508C126.657 8.80112 126.783 8.67774 126.939 8.67988L133.661 8.7743C133.816 8.77644 133.939 8.90304 133.937 9.05754C133.934 9.2115 133.808 9.33488 133.653 9.33273Z" fill="#374550"/>
<path d="M116 44C125.595 44 133.374 36.2769 133.374 26.75C133.374 17.2231 125.595 9.5 116 9.5C106.405 9.5 98.6259 17.2231 98.6259 26.75C98.6259 36.2769 106.405 44 116 44Z" fill="white"/>
<path fill-rule="evenodd" clip-rule="evenodd" d="M133.061 26.4785C132.93 35.7245 125.302 43.1138 116.022 42.9836C106.742 42.8533 99.3249 35.2528 99.455 26.0068C99.5864 16.7608 107.215 9.37144 116.495 9.5017C125.775 9.63195 133.192 17.2325 133.061 26.4785Z" stroke="#2C5CC5" stroke-width="0.696094"/>
<path fill-rule="evenodd" clip-rule="evenodd" d="M103.569 37.4254C103.413 37.2691 103.339 37.0558 103.355 36.8354C103.406 36.1736 103.852 34.7943 106.476 33.7163C109.076 32.6497 111.409 31.578 112.494 31.0704C112.858 30.8993 113.287 31.0465 113.475 31.4006L115.513 35.7723C115.78 36.2771 116.493 36.3116 116.807 35.8342L119.376 31.4386C119.592 31.1112 120.023 31.0042 120.368 31.1929L127.338 35.0238C127.338 35.0238 128.653 35.4808 128.815 37.1762C128.837 37.4191 128.752 37.6585 128.569 37.8211C127.386 38.878 122.317 43.0722 116.531 42.9905C110.083 42.8997 106.091 39.9559 103.569 37.4254Z" fill="#459FFC"/>
<path fill-rule="evenodd" clip-rule="evenodd" d="M103.569 37.4254C103.413 37.2691 103.339 37.0558 103.355 36.8354C103.406 36.1736 103.852 34.7943 106.476 33.7163C109.076 32.6497 111.409 31.578 112.494 31.0704C112.858 30.8993 113.287 31.0465 113.475 31.4006L115.513 35.7723C115.78 36.2771 116.493 36.3116 116.807 35.8342L119.376 31.4386C119.592 31.1112 120.023 31.0042 120.368 31.1929L127.338 35.0238C127.338 35.0238 128.653 35.4808 128.815 37.1762C128.837 37.4191 128.752 37.6585 128.569 37.8211C127.386 38.878 122.317 43.0722 116.531 42.9905C110.083 42.8997 106.091 39.9559 103.569 37.4254Z" stroke="#2C5CC5" stroke-width="0.696094" stroke-linecap="round" stroke-linejoin="round"/>
<path fill-rule="evenodd" clip-rule="evenodd" d="M111.604 31.2517L112.042 36.3316L116.115 36.3887L113.139 30.7659C113.139 30.7659 112.127 30.2434 111.604 31.2517Z" fill="#BBDCFE"/>
<path fill-rule="evenodd" clip-rule="evenodd" d="M111.604 31.2517L112.042 36.3316L116.115 36.3887L113.139 30.7659C113.139 30.7659 112.127 30.2434 111.604 31.2517Z" stroke="#2C5CC5" stroke-width="0.61875"/>
<path fill-rule="evenodd" clip-rule="evenodd" d="M120.769 31.3803L120.189 36.4454L116.115 36.3884L119.249 30.8515C119.249 30.8515 120.274 30.3586 120.769 31.3803Z" fill="#BBDCFE"/>
<path fill-rule="evenodd" clip-rule="evenodd" d="M120.769 31.3803L120.189 36.4454L116.115 36.3884L119.249 30.8515C119.249 30.8515 120.274 30.3586 120.769 31.3803Z" stroke="#2C5CC5" stroke-width="0.61875"/>
<path fill-rule="evenodd" clip-rule="evenodd" d="M121.85 19.0024L121.803 22.2989C120.583 22.2813 119.612 21.2858 119.628 20.0705L110.806 19.9466C109.181 19.9241 107.883 18.5976 107.907 16.9754L107.937 14.7779L108.305 14.7829L117.863 14.9167C120.094 14.9483 121.881 16.7797 121.85 19.0024Z" fill="#656D78"/>
<path fill-rule="evenodd" clip-rule="evenodd" d="M117.863 14.9169L116.392 14.8964C118.624 14.9281 120.41 16.7587 120.379 18.9815L120.34 21.7169C120.726 22.0703 121.237 22.2907 121.803 22.2985L121.85 19.0027C121.882 16.7799 120.094 14.9485 117.863 14.9169Z" fill="#434A54"/>
<path fill-rule="evenodd" clip-rule="evenodd" d="M116.175 30.2794C112.932 30.2344 110.33 27.5673 110.376 24.337C110.379 24.1342 110.545 23.973 110.749 23.9758C110.952 23.9786 111.114 24.1448 111.111 24.3468C111.071 27.1744 113.347 29.5071 116.185 29.5465C119.023 29.5866 121.365 27.3188 121.404 24.4912C121.407 24.2891 121.574 24.1279 121.777 24.1307C121.981 24.1335 122.142 24.2997 122.139 24.5017C122.094 27.7328 119.418 30.3245 116.175 30.2794Z" fill="#374550"/>
<path fill-rule="evenodd" clip-rule="evenodd" d="M110.739 24.708C110.535 24.7051 110.373 24.539 110.376 24.3369L110.438 19.9406C110.441 19.7386 110.607 19.5773 110.811 19.5801C111.014 19.583 111.176 19.7491 111.173 19.9512L111.111 24.3468C111.108 24.5488 110.941 24.7108 110.739 24.708Z" fill="#374550"/>
<path fill-rule="evenodd" clip-rule="evenodd" d="M121.767 24.8628C121.563 24.8599 121.401 24.6937 121.404 24.4917L121.482 18.997C121.485 18.7949 121.652 18.633 121.854 18.6358C122.058 18.6386 122.221 18.8048 122.218 19.0083L122.139 24.5015C122.136 24.7036 121.97 24.8655 121.767 24.8628Z" fill="#374550"/>
<path fill-rule="evenodd" clip-rule="evenodd" d="M121.844 19.3689C121.641 19.3661 121.479 19.1999 121.482 18.9972C121.511 16.9778 119.885 15.3113 117.858 15.2831C117.654 15.2803 117.492 15.1141 117.495 14.9121C117.499 14.71 117.665 14.5474 117.868 14.5501C120.3 14.5847 122.251 16.5843 122.217 19.0077C122.214 19.2098 122.048 19.3717 121.844 19.3689Z" fill="#374550"/>
<path fill-rule="evenodd" clip-rule="evenodd" d="M121.798 22.6652C120.379 22.6455 119.241 21.4788 119.261 20.0657C119.264 19.863 119.43 19.701 119.633 19.7038C119.838 19.7067 119.999 19.8728 119.996 20.0756C119.982 21.0852 120.794 21.9182 121.808 21.9323C122.012 21.9358 122.173 22.1019 122.17 22.304C122.167 22.5061 122.001 22.668 121.798 22.6652Z" fill="#374550"/>
<path fill-rule="evenodd" clip-rule="evenodd" d="M110.801 20.313C108.976 20.287 107.513 18.7873 107.539 16.97C107.542 16.768 107.708 16.606 107.911 16.6088C108.115 16.6117 108.277 16.7778 108.274 16.9806C108.254 18.3937 109.392 19.5603 110.811 19.5801C111.014 19.5829 111.176 19.749 111.173 19.9511C111.17 20.1539 111.004 20.3158 110.801 20.313Z" fill="#374550"/>
<path fill-rule="evenodd" clip-rule="evenodd" d="M117.858 15.2833L107.932 15.1439C107.729 15.1411 107.567 14.9749 107.569 14.7722C107.572 14.5701 107.74 14.4089 107.942 14.4117L117.869 14.5504C118.071 14.5539 118.233 14.7201 118.23 14.9221C118.228 15.1242 118.061 15.2861 117.858 15.2833Z" fill="#374550"/>
<path fill-rule="evenodd" clip-rule="evenodd" d="M107.901 17.3413C107.698 17.3385 107.536 17.1723 107.538 16.9702L107.569 14.7728C107.572 14.57 107.739 14.4088 107.943 14.4116C108.146 14.4144 108.308 14.5806 108.305 14.7827L108.274 16.9801C108.271 17.1822 108.104 17.3441 107.901 17.3413Z" fill="#374550"/>
<path fill-rule="evenodd" clip-rule="evenodd" d="M119.623 20.4367L110.801 20.3128C110.598 20.31 110.436 20.1438 110.438 19.941C110.441 19.739 110.607 19.577 110.811 19.5798L119.634 19.7038C119.837 19.7066 119.999 19.8727 119.996 20.0755C119.993 20.2776 119.827 20.4395 119.623 20.4367Z" fill="#374550"/>
<path d="M201 39C197.287 39 193.726 37.525 191.101 34.8995C188.475 32.274 187 28.713 187 25V25C187 21.287 188.475 17.726 191.101 15.1005C193.726 12.475 197.287 11 201 11L211.5 11C212.428 11 213.318 11.3687 213.975 12.0251C214.631 12.6815 215 13.5717 215 14.5V25C215 28.713 213.525 32.274 210.899 34.8995C208.274 37.525 204.713 39 201 39Z" fill="#FFA800"/>
<path d="M200.984 31.5306C201.884 31.5306 202.614 30.8005 202.614 29.9C202.614 28.9994 201.884 28.2694 200.984 28.2694C200.083 28.2694 199.353 28.9994 199.353 29.9C199.353 30.8005 200.083 31.5306 200.984 31.5306Z" fill="white"/>
<path d="M201 18.2388C199.618 18.22 198.265 18.6364 197.132 19.4292C196 20.2219 195.145 21.3508 194.69 22.656C194.234 23.9612 194.201 25.3766 194.595 26.7018C194.988 28.027 195.788 29.1948 196.882 30.04C196.882 29.9906 196.882 29.9494 196.882 29.9C196.886 29.3054 197.017 28.7184 197.269 28.1797C197.521 27.6409 197.886 27.163 198.34 26.7788C197.928 26.2269 197.706 25.5568 197.706 24.8682C197.697 24.3447 197.814 23.8266 198.045 23.357C198.277 22.8873 198.617 22.4797 199.038 22.1678C199.458 21.8559 199.947 21.6489 200.464 21.5637C200.981 21.4786 201.51 21.5178 202.009 21.6782C202.507 21.8386 202.96 22.1155 203.33 22.486C203.7 22.8565 203.977 23.3098 204.136 23.8085C204.296 24.3071 204.335 24.8367 204.249 25.3533C204.164 25.8698 203.956 26.3585 203.644 26.7788C204.106 27.1659 204.477 27.6497 204.732 28.1961C204.987 28.7426 205.118 29.3383 205.118 29.9412C205.118 29.9906 205.118 30.0318 205.118 30.0812C206.229 29.2412 207.045 28.0706 207.45 26.7375C207.854 25.4044 207.825 23.9775 207.368 22.6618C206.91 21.346 206.047 20.2091 204.903 19.4144C203.759 18.6198 202.393 18.2082 201 18.2388V18.2388Z" fill="white"/>
</svg>
