<?xml version="1.0" encoding="UTF-8"?>
<svg width="232px" height="44px" viewBox="0 0 232 44" version="1.1" xmlns="http://www.w3.org/2000/svg" xmlns:xlink="http://www.w3.org/1999/xlink">
    <!-- Generator: sketchtool 61 (101010) - https://sketch.com -->
    <title>01C6A392-2F7E-4272-929D-59CA27A9CD10</title>
    <desc>Created with sketchtool.</desc>
    <defs>
        <polygon id="path-1" points="2.00739762e-05 0.0179029304 28.109713 0.0179029304 28.109713 27.8290291 2.00739762e-05 27.8290291"></polygon>
    </defs>
    <g id="Page-1" stroke="none" stroke-width="1" fill="none" fill-rule="evenodd">
        <g id="Plans-and-Billing---Freshsales" transform="translate(-638.000000, -103.000000)">
            <g id="Group-11" transform="translate(639.000000, 104.000000)">
                <g id="Group-2">
                    <g id="Group-9">
                        <g id="Group-34">
                            <path d="M59.5624915,30.7278317 L59.5624915,41.4198159 C59.5624915,42.1112921 58.9975198,42.6766889 58.3070217,42.6766889 L1.4324435,42.6766889 C0.741945383,42.6766889 0.176973638,42.1112921 0.176973638,41.4198159 L0.176973638,1.39467302 C0.176973638,0.703196825 0.741945383,0.1378 1.4324435,0.1378 L58.3070217,0.1378 C58.9975198,0.1378 59.5624915,0.703196825 59.5624915,1.39467302 L59.5624915,14.8389429" id="Fill-32" fill="#FFFFFF"></path>
                            <path d="M59.5624915,30.7278317 L59.5624915,41.4198159 C59.5624915,42.1112921 58.9975198,42.6766889 58.3070217,42.6766889 L1.4324435,42.6766889 C0.741945383,42.6766889 0.176973638,42.1112921 0.176973638,41.4198159 L0.176973638,1.39467302 C0.176973638,0.703196825 0.741945383,0.1378 1.4324435,0.1378 L58.3070217,0.1378 C58.9975198,0.1378 59.5624915,0.703196825 59.5624915,1.39467302 L59.5624915,14.8389429" id="Stroke-33" stroke="#374550" stroke-width="0.55" stroke-linecap="round" stroke-linejoin="round"></path>
                        </g>
                        <path d="M59.5624915,5.14094286 L0.176973638,5.14094286 L0.176973638,1.22030794 C0.176973638,0.622514286 0.660940679,0.1378 1.25827308,0.1378 L58.4811921,0.1378 C59.0783184,0.1378 59.5624915,0.622514286 59.5624915,1.22030794 L59.5624915,5.14094286 Z" id="Fill-35" fill="#374550"></path>
                        <path d="M3.74272654,2.63935079 C3.74272654,3.22662063 3.26700426,3.7024619 2.68059615,3.7024619 C2.09398193,3.7024619 1.61846576,3.22662063 1.61846576,2.63935079 C1.61846576,2.05208095 2.09398193,1.57623968 2.68059615,1.57623968 C3.26700426,1.57623968 3.74272654,2.05208095 3.74272654,2.63935079" id="Fill-36" fill="#FFFFFF"></path>
                        <path d="M7.24132593,2.63935079 C7.24132593,3.22662063 6.76560364,3.7024619 6.17919554,3.7024619 C5.59258131,3.7024619 5.11706515,3.22662063 5.11706515,2.63935079 C5.11706515,2.05208095 5.59258131,1.57623968 6.17919554,1.57623968 C6.76560364,1.57623968 7.24132593,2.05208095 7.24132593,2.63935079" id="Fill-37" fill="#FFFFFF"></path>
                        <path d="M10.7396986,2.63935079 C10.7396986,3.22662063 10.2641824,3.7024619 9.67777431,3.7024619 C9.09116009,3.7024619 8.61564392,3.22662063 8.61564392,2.63935079 C8.61564392,2.05208095 9.09116009,1.57623968 9.67777431,1.57623968 C10.2641824,1.57623968 10.7396986,2.05208095 10.7396986,2.63935079" id="Fill-38" fill="#FFFFFF"></path>
                    </g>
                    <g id="Group-12" transform="translate(15.719424, 9.857143)">
                        <g id="Group-5">
                            <path d="M14.0647482,27.9285714 L14.0647482,27.9285714 C6.30100719,27.9285714 0,21.6725714 0,13.9642857 C0,6.256 6.30100719,0 14.0647482,0 L24.6133094,0 C26.5542446,0 28.1294964,1.564 28.1294964,3.49107143 L28.1294964,13.9642857 C28.1294964,21.6725714 21.8284892,27.9285714 14.0647482,27.9285714" id="Fill-1" fill="#25C16F"></path>
                            <path d="M14.0647482,6.20019871 C10.4641727,6.20019871 7.59496403,9.048913 7.59496403,12.6237701 L7.59496403,16.8968416 C7.59496403,18.0698416 8.55136691,19.0473416 9.76093525,19.0473416 L11.561223,19.0473416 L11.561223,14.0481273 L9.05769784,14.0481273 L9.05769784,12.6237701 C9.05769784,9.85884157 11.3080576,7.62455586 14.0928777,7.62455586 C16.8776978,7.62455586 19.1280576,9.85884157 19.1280576,12.6237701 L19.1280576,14.0481273 L16.6245324,14.0481273 L16.6245324,19.0473416 L18.3123022,19.0473416 L18.3123022,19.1587766 C18.3123022,20.2203416 17.4402878,21.0861273 16.3713669,21.0861273 L14.4304317,21.0861273 C14.2616547,21.0861273 14.1210072,21.2257701 14.1210072,21.3930623 C14.1210072,21.560913 14.2616547,21.7005559 14.4304317,21.7005559 L16.3151079,21.7005559 C17.7497122,21.7005559 18.9030216,20.5552051 18.9030216,19.1311273 L18.9030216,18.9914844 C19.831295,18.739848 20.5064029,17.9019909 20.5064029,16.9244909 L20.5064029,12.6237701 C20.5345324,9.048913 17.6371942,6.20019871 14.0647482,6.20019871" id="Fill-3" fill="#FFFFFF"></path>
                        </g>
                    </g>
                </g>
                <g id="Group-2" transform="translate(170.431655, 0.000000)">
                    <g id="Group-9">
                        <g id="Group-34">
                            <path d="M59.5624915,30.7278317 L59.5624915,41.4198159 C59.5624915,42.1112921 58.9975198,42.6766889 58.3070217,42.6766889 L1.4324435,42.6766889 C0.741945383,42.6766889 0.176973638,42.1112921 0.176973638,41.4198159 L0.176973638,1.39467302 C0.176973638,0.703196825 0.741945383,0.1378 1.4324435,0.1378 L58.3070217,0.1378 C58.9975198,0.1378 59.5624915,0.703196825 59.5624915,1.39467302 L59.5624915,14.8389429" id="Fill-32" fill="#FFFFFF"></path>
                            <path d="M59.5624915,30.7278317 L59.5624915,41.4198159 C59.5624915,42.1112921 58.9975198,42.6766889 58.3070217,42.6766889 L1.4324435,42.6766889 C0.741945383,42.6766889 0.176973638,42.1112921 0.176973638,41.4198159 L0.176973638,1.39467302 C0.176973638,0.703196825 0.741945383,0.1378 1.4324435,0.1378 L58.3070217,0.1378 C58.9975198,0.1378 59.5624915,0.703196825 59.5624915,1.39467302 L59.5624915,14.8389429" id="Stroke-33" stroke="#374550" stroke-width="0.55" stroke-linecap="round" stroke-linejoin="round" transform="translate(29.869733, 21.407244) scale(-1, 1) translate(-29.869733, -21.407244) "></path>
                        </g>
                        <path d="M59.5624915,5.14094286 L0.176973638,5.14094286 L0.176973638,1.22030794 C0.176973638,0.622514286 0.660940679,0.1378 1.25827308,0.1378 L58.4811921,0.1378 C59.0783184,0.1378 59.5624915,0.622514286 59.5624915,1.22030794 L59.5624915,5.14094286 Z" id="Fill-35" fill="#374550"></path>
                        <path d="M3.74272654,2.63935079 C3.74272654,3.22662063 3.26700426,3.7024619 2.68059615,3.7024619 C2.09398193,3.7024619 1.61846576,3.22662063 1.61846576,2.63935079 C1.61846576,2.05208095 2.09398193,1.57623968 2.68059615,1.57623968 C3.26700426,1.57623968 3.74272654,2.05208095 3.74272654,2.63935079" id="Fill-36" fill="#FFFFFF"></path>
                        <path d="M7.24132593,2.63935079 C7.24132593,3.22662063 6.76560364,3.7024619 6.17919554,3.7024619 C5.59258131,3.7024619 5.11706515,3.22662063 5.11706515,2.63935079 C5.11706515,2.05208095 5.59258131,1.57623968 6.17919554,1.57623968 C6.76560364,1.57623968 7.24132593,2.05208095 7.24132593,2.63935079" id="Fill-37" fill="#FFFFFF"></path>
                        <path d="M10.7396986,2.63935079 C10.7396986,3.22662063 10.2641824,3.7024619 9.67777431,3.7024619 C9.09116009,3.7024619 8.61564392,3.22662063 8.61564392,2.63935079 C8.61564392,2.05208095 9.09116009,1.57623968 9.67777431,1.57623968 C10.2641824,1.57623968 10.7396986,2.05208095 10.7396986,2.63935079" id="Fill-38" fill="#FFFFFF"></path>
                    </g>
                    <g id="Group-13" transform="translate(15.719424, 9.857143)">
                        <g id="Group-8">
                            <g id="Group-3" transform="translate(0.000000, 0.081558)">
                                <mask id="mask-2" fill="white">
                                    <use xlink:href="#path-1"></use>
                                </mask>
                                <g id="Clip-2"></g>
                                <path d="M14.0140533,0.0178213726 L24.5651904,0.0178213726 C26.5435286,0.0178213726 28.109713,1.56741946 28.109713,3.52480652 L28.109713,13.9642042 C28.109713,21.6306368 21.8449754,27.8290291 14.096484,27.8290291 L14.0140533,27.8290291 C6.26556197,27.8290291 0.000824307587,21.6306368 0.000824307587,13.9642042 C-0.0816064511,6.29777152 6.18313121,0.0993791667 13.9316225,0.0178213726 L14.0140533,0.0178213726 Z" id="Fill-1" fill="#FFA800" mask="url(#mask-2)"></path>
                            </g>
                            <path d="M14.1790797,7.03179166 C15.726305,7.03179166 16.9817255,8.27310129 16.9817255,9.80475666 C16.9817255,11.336412 15.726305,12.5777217 14.1790797,12.5777217 C12.63103,12.5777217 11.3764339,11.336412 11.3764339,9.80475666 C11.3764339,8.27310129 12.63103,7.03179166 14.1790797,7.03179166" id="Fill-4" fill="#FFFFFF"></path>
                            <polygon id="Fill-6" fill="#FFFFFF" points="7.99677276 13.4747758 12.8601875 18.2866857 12.8601875 20.9780929 15.2506795 20.9780929 15.2506795 18.2866857 20.1140943 13.4747758"></polygon>
                        </g>
                    </g>
                </g>
                <path d="M63.8721583,21.2033714 L83.8714029,21.2033714" id="Stroke-307-Copy" stroke="#576C7D" stroke-width="0.825" stroke-linecap="round"></path>
                <path d="M146.438849,21.2033714 L166.438094,21.2033714" id="Stroke-307-Copy-2" stroke="#576C7D" stroke-width="0.825" stroke-linecap="round"></path>
                <g id="Group-10" transform="translate(86.870504, 0.000000)">
                    <g id="Group-14">
                        <ellipse id="Oval" fill="#FFFFFF" cx="13.2374101" cy="13.1428571" rx="13.2374101" ry="13.1428571"></ellipse>
                        <g id="Group-8-Copy-3" transform="translate(0.630353, 0.000000)">
                            <g id="Group-7">
                                <g id="Group-6">
                                    <path d="M25.6061506,12.9360093 C25.5060032,19.9805808 19.6942287,25.6105516 12.6236132,25.5113096 C5.55299765,25.4120676 -0.097787432,19.6211638 0.00128302594,12.5765924 C0.101430337,5.53202099 5.91374334,-0.097949856 12.9843589,0.00129212646 C20.0544359,0.100534109 25.7057594,5.8914379 25.6061506,12.9360093 Z" id="Stroke-271" stroke="#009775" stroke-width="0.55"></path>
                                    <g id="Group-5" transform="translate(2.970969, 4.021290)">
                                        <path d="M0.164816827,17.2552303 C0.045824592,17.1361399 -0.0107101802,16.9735977 0.00167362704,16.805691 C0.040440328,16.3014344 0.380187387,15.2505423 2.37990304,14.4292478 C4.36077378,13.6165364 6.13811933,12.80007 6.96514228,12.4132945 C7.24243188,12.2829388 7.5692567,12.3950554 7.71247813,12.6648863 L9.26476144,15.9956618 C9.46828662,16.3802915 10.0115589,16.4065773 10.2506202,16.0428688 L12.2083386,12.6938542 C12.3725586,12.4444082 12.7015372,12.3628688 12.9637508,12.5066356 L18.2747888,15.4254227 C18.2747888,15.4254227 19.276262,15.7735743 19.3995616,17.0653294 C19.4167912,17.2504023 19.3516417,17.432793 19.2127276,17.5567114 C18.3108634,18.3619125 14.4492693,21.5575044 10.0406339,21.495277 C5.1280314,21.4260758 2.08646065,19.183207 0.164816827,17.2552303" id="Fill-273" fill="#1AB394"></path>
                                        <path d="M0.164816827,17.2552303 C0.045824592,17.1361399 -0.0107101802,16.9735977 0.00167362704,16.805691 C0.040440328,16.3014344 0.380187387,15.2505423 2.37990304,14.4292478 C4.36077378,13.6165364 6.13811933,12.80007 6.96514228,12.4132945 C7.24243188,12.2829388 7.5692567,12.3950554 7.71247813,12.6648863 L9.26476144,15.9956618 C9.46828662,16.3802915 10.0115589,16.4065773 10.2506202,16.0428688 L12.2083386,12.6938542 C12.3725586,12.4444082 12.7015372,12.3628688 12.9637508,12.5066356 L18.2747888,15.4254227 C18.2747888,15.4254227 19.276262,15.7735743 19.3995616,17.0653294 C19.4167912,17.2504023 19.3516417,17.432793 19.2127276,17.5567114 C18.3108634,18.3619125 14.4492693,21.5575044 10.0406339,21.495277 C5.1280314,21.4260758 2.08646065,19.183207 0.164816827,17.2552303 Z" id="Stroke-275" stroke="#018667" stroke-width="0.55" stroke-linecap="round" stroke-linejoin="round"></path>
                                        <path d="M6.28677886,12.5514286 L6.6200648,16.4218659 L9.72355458,16.4653178 L7.456241,12.1812828 C7.456241,12.1812828 6.68521439,11.783242 6.28677886,12.5514286" id="Fill-277" fill="#B2E4D9"></path>
                                        <path d="M6.28677886,12.5514286 L6.6200648,16.4218659 L9.72355458,16.4653178 L7.456241,12.1812828 C7.456241,12.1812828 6.68521439,11.783242 6.28677886,12.5514286 Z" id="Stroke-279" stroke="#018667" stroke-width="0.55"></path>
                                        <path d="M13.2695232,12.6493831 L12.8274751,16.5085551 L9.72344689,16.4651032 L12.111368,12.2465143 C12.111368,12.2465143 12.8926247,11.8710041 13.2695232,12.6493831" id="Fill-281" fill="#B2E4D9"></path>
                                        <path d="M13.2695232,12.6493831 L12.8274751,16.5085551 L9.72344689,16.4651032 L12.111368,12.2465143 C12.111368,12.2465143 12.8926247,11.8710041 13.2695232,12.6493831 Z" id="Stroke-283" stroke="#018667" stroke-width="0.55"></path>
                                        <path d="M14.0929387,3.21865889 L14.0574025,5.73028571 C13.1275401,5.71687464 12.3877423,4.95834402 12.4001261,4.03244315 L5.67841087,3.93802915 C4.44056857,3.92086297 3.45201769,2.91020408 3.46978577,1.67423907 L3.4929381,1.33226763e-14 L3.77345826,0.00375510204 L11.0551369,0.1056793 C12.7554875,0.129819242 14.1171679,1.52510787 14.0929387,3.21865889" id="Fill-285" fill="#656D78"></path>
                                        <path d="M11.0553523,0.105840233 L9.93488694,0.0902833819 C11.6352375,0.114423324 12.9963795,1.50917551 12.9726887,3.20272653 L12.9430752,5.28680816 C13.2370561,5.55610262 13.6257999,5.72400933 14.0570795,5.7299102 L14.093154,3.21881983 C14.1173832,1.5252688 12.7551644,0.129980175 11.0553523,0.105840233" id="Fill-287" fill="#434A54"></path>
                                        <path d="M9.76921314,11.8106542 C7.29837438,11.7763219 5.31588837,9.74427522 5.35142451,7.28307405 C5.35357822,7.12857843 5.48010842,7.00573294 5.63517523,7.00785103 C5.7897036,7.01002449 5.91354168,7.13662507 5.91138797,7.29058426 C5.88069766,9.44493994 7.6149691,11.2221761 9.77728953,11.2522169 C11.93961,11.2827942 13.7234166,9.55491079 13.7535685,7.4005551 C13.7557222,7.24659592 13.8827908,7.12375044 14.0378577,7.12589621 C14.1929245,7.12804198 14.3156857,7.25464257 14.3135599,7.40860175 C14.2790727,9.87033936 12.2405903,11.8449866 9.76921314,11.8106542" id="Fill-289" fill="#374550"></path>
                                        <path d="M5.62742189,7.56575352 C5.47235508,7.56358017 5.34905544,7.43697959 5.35120914,7.28302041 L5.39859066,3.93346939 C5.40074437,3.7795102 5.52727457,3.65666472 5.6828798,3.65878281 C5.83740818,3.66095627 5.96070783,3.78755685 5.95855412,3.94151603 L5.9111726,7.29053061 C5.90901889,7.4444898 5.78195026,7.56787172 5.62742189,7.56575352" id="Fill-293" fill="#374550"></path>
                                        <path d="M14.0298351,7.68366372 C13.8747683,7.68149038 13.7514686,7.5548898 13.7536224,7.40093061 L13.8128493,3.21452828 C13.815003,3.0605691 13.9420716,2.93718717 14.0966,2.93930538 C14.2516668,2.94147872 14.3755048,3.0680793 14.3733511,3.22311137 L14.3135858,7.40844082 C14.3114321,7.5624 14.1849019,7.68578192 14.0298351,7.68366372" id="Fill-295" fill="#374550"></path>
                                    </g>
                                </g>
                                <path d="M17.0597083,7.51919491 C16.9051799,7.51702157 16.7813418,7.39042099 16.7834955,7.23592536 C16.805571,5.69740641 15.5671903,4.42764548 14.022445,4.40618775 C13.8673781,4.40404198 13.7440785,4.2774414 13.7462044,4.12348221 C13.7489243,3.96952303 13.8754545,3.84560466 14.0305213,3.84772298 C15.8832466,3.87403615 17.3698419,5.39753469 17.3439974,7.24397201 C17.3418437,7.39793119 17.2147751,7.52131312 17.0597083,7.51919491" id="Fill-291" fill="#374550"></path>
                                <path d="M17.0244414,10.0306332 C15.9432811,10.0156128 15.0764146,9.12672653 15.0914906,8.05008513 C15.0936443,7.8955895 15.2201745,7.77220758 15.3752413,7.77435335 C15.5308465,7.77649912 15.6536077,7.90309971 15.651454,8.05759533 C15.6406855,8.82685481 16.2598759,9.46146705 17.0325178,9.47219592 C17.1875846,9.47487813 17.3103458,9.60147872 17.3081921,9.7554379 C17.3060384,9.90939708 17.1795082,10.032779 17.0244414,10.0306332" id="Fill-297" fill="#374550"></path>
                                <path d="M8.64571891,8.23851153 C7.25550194,8.21863557 6.14095928,7.07601166 6.16034264,5.69145189 C6.16249634,5.53749271 6.28956497,5.41411079 6.44409335,5.41622899 C6.59916015,5.41840233 6.72299823,5.54500291 6.72084452,5.69949854 C6.70523015,6.77613994 7.57263509,7.66502624 8.6537953,7.68004665 C8.80832368,7.68219242 8.93162333,7.808793 8.92946962,7.96275218 C8.92731591,8.11724781 8.80024728,8.24062974 8.64571891,8.23851153" id="Fill-301" fill="#374550"></path>
                                <path d="M14.0226065,4.40634869 L6.45986924,4.30013294 C6.30534087,4.29798717 6.18150279,4.17138659 6.18362883,4.01689096 C6.1858102,3.86293178 6.31341726,3.7400863 6.46794564,3.74223207 L14.0306829,3.84791137 C14.1852113,3.85059358 14.3085109,3.97719417 14.306385,4.13115335 C14.3042035,4.28511253 14.1771349,4.40849446 14.0226065,4.40634869" id="Fill-303" fill="#374550"></path>
                                <path d="M6.43628617,5.97431837 C6.28175779,5.97217259 6.15791972,5.84557201 6.16007342,5.69161283 L6.18376418,4.01737376 C6.18591789,3.86287813 6.31298652,3.74003265 6.46805332,3.74217842 C6.62312013,3.7443242 6.74641977,3.87092478 6.74426607,4.02488396 L6.72057531,5.69912303 C6.7184216,5.85308221 6.59135297,5.97646414 6.43628617,5.97431837" id="Fill-305" fill="#374550"></path>
                            </g>
                            <path d="M15.3676495,8.33273702 L8.64593428,8.23832303 C8.49086747,8.23617726 8.36756783,8.10957667 8.36969374,7.95508105 C8.37187524,7.80112186 8.49840544,7.67773994 8.65347225,7.67988571 L15.3757259,7.77429971 C15.5307927,7.77644548 15.6535539,7.90304606 15.6514281,8.05754169 C15.6492465,8.21150087 15.5227163,8.3348828 15.3676495,8.33273702" id="Fill-299" fill="#374550"></path>
                        </g>
                    </g>
                    <g id="Group-14-Copy" transform="translate(29.784173, 0.000000)">
                        <ellipse id="Oval" fill="#FFFFFF" cx="13.2374101" cy="13.1428571" rx="13.2374101" ry="13.1428571"></ellipse>
                        <g id="Group-8-Copy-3" transform="translate(0.630353, 0.000000)">
                            <g id="Group-7">
                                <g id="Group-6">
                                    <path d="M25.6061506,12.9360093 C25.5060032,19.9805808 19.6942287,25.6105516 12.6236132,25.5113096 C5.55299765,25.4120676 -0.097787432,19.6211638 0.00128302594,12.5765924 C0.101430337,5.53202099 5.91374334,-0.097949856 12.9843589,0.00129212646 C20.0544359,0.100534109 25.7057594,5.8914379 25.6061506,12.9360093 Z" id="Stroke-271" stroke="#009775" stroke-width="0.55"></path>
                                    <g id="Group-5" transform="translate(2.970969, 4.021290)">
                                        <path d="M0.164816827,17.2552303 C0.045824592,17.1361399 -0.0107101802,16.9735977 0.00167362704,16.805691 C0.040440328,16.3014344 0.380187387,15.2505423 2.37990304,14.4292478 C4.36077378,13.6165364 6.13811933,12.80007 6.96514228,12.4132945 C7.24243188,12.2829388 7.5692567,12.3950554 7.71247813,12.6648863 L9.26476144,15.9956618 C9.46828662,16.3802915 10.0115589,16.4065773 10.2506202,16.0428688 L12.2083386,12.6938542 C12.3725586,12.4444082 12.7015372,12.3628688 12.9637508,12.5066356 L18.2747888,15.4254227 C18.2747888,15.4254227 19.276262,15.7735743 19.3995616,17.0653294 C19.4167912,17.2504023 19.3516417,17.432793 19.2127276,17.5567114 C18.3108634,18.3619125 14.4492693,21.5575044 10.0406339,21.495277 C5.1280314,21.4260758 2.08646065,19.183207 0.164816827,17.2552303" id="Fill-273" fill="#1AB394"></path>
                                        <path d="M0.164816827,17.2552303 C0.045824592,17.1361399 -0.0107101802,16.9735977 0.00167362704,16.805691 C0.040440328,16.3014344 0.380187387,15.2505423 2.37990304,14.4292478 C4.36077378,13.6165364 6.13811933,12.80007 6.96514228,12.4132945 C7.24243188,12.2829388 7.5692567,12.3950554 7.71247813,12.6648863 L9.26476144,15.9956618 C9.46828662,16.3802915 10.0115589,16.4065773 10.2506202,16.0428688 L12.2083386,12.6938542 C12.3725586,12.4444082 12.7015372,12.3628688 12.9637508,12.5066356 L18.2747888,15.4254227 C18.2747888,15.4254227 19.276262,15.7735743 19.3995616,17.0653294 C19.4167912,17.2504023 19.3516417,17.432793 19.2127276,17.5567114 C18.3108634,18.3619125 14.4492693,21.5575044 10.0406339,21.495277 C5.1280314,21.4260758 2.08646065,19.183207 0.164816827,17.2552303 Z" id="Stroke-275" stroke="#018667" stroke-width="0.55" stroke-linecap="round" stroke-linejoin="round"></path>
                                        <path d="M6.28677886,12.5514286 L6.6200648,16.4218659 L9.72355458,16.4653178 L7.456241,12.1812828 C7.456241,12.1812828 6.68521439,11.783242 6.28677886,12.5514286" id="Fill-277" fill="#B2E4D9"></path>
                                        <path d="M6.28677886,12.5514286 L6.6200648,16.4218659 L9.72355458,16.4653178 L7.456241,12.1812828 C7.456241,12.1812828 6.68521439,11.783242 6.28677886,12.5514286 Z" id="Stroke-279" stroke="#018667" stroke-width="0.55"></path>
                                        <path d="M13.2695232,12.6493831 L12.8274751,16.5085551 L9.72344689,16.4651032 L12.111368,12.2465143 C12.111368,12.2465143 12.8926247,11.8710041 13.2695232,12.6493831" id="Fill-281" fill="#B2E4D9"></path>
                                        <path d="M13.2695232,12.6493831 L12.8274751,16.5085551 L9.72344689,16.4651032 L12.111368,12.2465143 C12.111368,12.2465143 12.8926247,11.8710041 13.2695232,12.6493831 Z" id="Stroke-283" stroke="#018667" stroke-width="0.55"></path>
                                        <path d="M14.0929387,3.21865889 L14.0574025,5.73028571 C13.1275401,5.71687464 12.3877423,4.95834402 12.4001261,4.03244315 L5.67841087,3.93802915 C4.44056857,3.92086297 3.45201769,2.91020408 3.46978577,1.67423907 L3.4929381,1.33226763e-14 L3.77345826,0.00375510204 L11.0551369,0.1056793 C12.7554875,0.129819242 14.1171679,1.52510787 14.0929387,3.21865889" id="Fill-285" fill="#656D78"></path>
                                        <path d="M11.0553523,0.105840233 L9.93488694,0.0902833819 C11.6352375,0.114423324 12.9963795,1.50917551 12.9726887,3.20272653 L12.9430752,5.28680816 C13.2370561,5.55610262 13.6257999,5.72400933 14.0570795,5.7299102 L14.093154,3.21881983 C14.1173832,1.5252688 12.7551644,0.129980175 11.0553523,0.105840233" id="Fill-287" fill="#434A54"></path>
                                        <path d="M9.76921314,11.8106542 C7.29837438,11.7763219 5.31588837,9.74427522 5.35142451,7.28307405 C5.35357822,7.12857843 5.48010842,7.00573294 5.63517523,7.00785103 C5.7897036,7.01002449 5.91354168,7.13662507 5.91138797,7.29058426 C5.88069766,9.44493994 7.6149691,11.2221761 9.77728953,11.2522169 C11.93961,11.2827942 13.7234166,9.55491079 13.7535685,7.4005551 C13.7557222,7.24659592 13.8827908,7.12375044 14.0378577,7.12589621 C14.1929245,7.12804198 14.3156857,7.25464257 14.3135599,7.40860175 C14.2790727,9.87033936 12.2405903,11.8449866 9.76921314,11.8106542" id="Fill-289" fill="#374550"></path>
                                        <path d="M5.62742189,7.56575352 C5.47235508,7.56358017 5.34905544,7.43697959 5.35120914,7.28302041 L5.39859066,3.93346939 C5.40074437,3.7795102 5.52727457,3.65666472 5.6828798,3.65878281 C5.83740818,3.66095627 5.96070783,3.78755685 5.95855412,3.94151603 L5.9111726,7.29053061 C5.90901889,7.4444898 5.78195026,7.56787172 5.62742189,7.56575352" id="Fill-293" fill="#374550"></path>
                                        <path d="M14.0298351,7.68366372 C13.8747683,7.68149038 13.7514686,7.5548898 13.7536224,7.40093061 L13.8128493,3.21452828 C13.815003,3.0605691 13.9420716,2.93718717 14.0966,2.93930538 C14.2516668,2.94147872 14.3755048,3.0680793 14.3733511,3.22311137 L14.3135858,7.40844082 C14.3114321,7.5624 14.1849019,7.68578192 14.0298351,7.68366372" id="Fill-295" fill="#374550"></path>
                                    </g>
                                </g>
                                <path d="M17.0597083,7.51919491 C16.9051799,7.51702157 16.7813418,7.39042099 16.7834955,7.23592536 C16.805571,5.69740641 15.5671903,4.42764548 14.022445,4.40618775 C13.8673781,4.40404198 13.7440785,4.2774414 13.7462044,4.12348221 C13.7489243,3.96952303 13.8754545,3.84560466 14.0305213,3.84772298 C15.8832466,3.87403615 17.3698419,5.39753469 17.3439974,7.24397201 C17.3418437,7.39793119 17.2147751,7.52131312 17.0597083,7.51919491" id="Fill-291" fill="#374550"></path>
                                <path d="M17.0244414,10.0306332 C15.9432811,10.0156128 15.0764146,9.12672653 15.0914906,8.05008513 C15.0936443,7.8955895 15.2201745,7.77220758 15.3752413,7.77435335 C15.5308465,7.77649912 15.6536077,7.90309971 15.651454,8.05759533 C15.6406855,8.82685481 16.2598759,9.46146705 17.0325178,9.47219592 C17.1875846,9.47487813 17.3103458,9.60147872 17.3081921,9.7554379 C17.3060384,9.90939708 17.1795082,10.032779 17.0244414,10.0306332" id="Fill-297" fill="#374550"></path>
                                <path d="M8.64571891,8.23851153 C7.25550194,8.21863557 6.14095928,7.07601166 6.16034264,5.69145189 C6.16249634,5.53749271 6.28956497,5.41411079 6.44409335,5.41622899 C6.59916015,5.41840233 6.72299823,5.54500291 6.72084452,5.69949854 C6.70523015,6.77613994 7.57263509,7.66502624 8.6537953,7.68004665 C8.80832368,7.68219242 8.93162333,7.808793 8.92946962,7.96275218 C8.92731591,8.11724781 8.80024728,8.24062974 8.64571891,8.23851153" id="Fill-301" fill="#374550"></path>
                                <path d="M14.0226065,4.40634869 L6.45986924,4.30013294 C6.30534087,4.29798717 6.18150279,4.17138659 6.18362883,4.01689096 C6.1858102,3.86293178 6.31341726,3.7400863 6.46794564,3.74223207 L14.0306829,3.84791137 C14.1852113,3.85059358 14.3085109,3.97719417 14.306385,4.13115335 C14.3042035,4.28511253 14.1771349,4.40849446 14.0226065,4.40634869" id="Fill-303" fill="#374550"></path>
                                <path d="M6.43628617,5.97431837 C6.28175779,5.97217259 6.15791972,5.84557201 6.16007342,5.69161283 L6.18376418,4.01737376 C6.18591789,3.86287813 6.31298652,3.74003265 6.46805332,3.74217842 C6.62312013,3.7443242 6.74641977,3.87092478 6.74426607,4.02488396 L6.72057531,5.69912303 C6.7184216,5.85308221 6.59135297,5.97646414 6.43628617,5.97431837" id="Fill-305" fill="#374550"></path>
                            </g>
                            <path d="M15.3676495,8.33273702 L8.64593428,8.23832303 C8.49086747,8.23617726 8.36756783,8.10957667 8.36969374,7.95508105 C8.37187524,7.80112186 8.49840544,7.67773994 8.65347225,7.67988571 L15.3757259,7.77429971 C15.5307927,7.77644548 15.6535539,7.90304606 15.6514281,8.05754169 C15.6492465,8.21150087 15.5227163,8.3348828 15.3676495,8.33273702" id="Fill-299" fill="#374550"></path>
                        </g>
                    </g>
                    <g id="Group-14" transform="translate(10.755396, 8.500000)">
                        <ellipse id="Oval" fill="#FFFFFF" cx="17.3741007" cy="17.25" rx="17.3741007" ry="17.25"></ellipse>
                        <g id="Group-8-Copy-3" transform="translate(0.827338, 0.000000)">
                            <g id="Group-7">
                                <g id="Group-6">
                                    <path d="M33.6080726,16.9785122 C33.4766293,26.2245122 25.8486751,33.613849 16.5684923,33.4835939 C7.28830942,33.3533388 -0.128346004,25.7527775 0.00168397155,16.5067775 C0.133127317,7.26077755 7.76178814,-0.128559186 17.041971,0.00169591598 C26.3214472,0.131951018 33.7388093,7.73251224 33.6080726,16.9785122 Z" id="Stroke-271" stroke="#2C5CC5" stroke-width="0.69609375"></path>
                                    <g id="Group-5" transform="translate(3.899397, 5.277943)">
                                        <path d="M0.216322085,22.6474898 C0.060144777,22.4911837 -0.0140571115,22.2778469 0.00219663549,22.0574694 C0.0530779305,21.3956327 0.498995946,20.0163367 3.12362274,18.9383878 C5.72351558,17.8717041 8.05628162,16.8000918 9.14174924,16.292449 C9.50569184,16.1213571 9.93464942,16.2685102 10.1226275,16.6226633 L12.1599994,20.9943061 C12.4271262,21.4991327 13.140171,21.5336327 13.453939,21.0562653 L16.0234444,16.6606837 C16.2389832,16.3332857 16.6707675,16.2262653 17.014923,16.4149592 L23.9856604,20.2458673 C23.9856604,20.2458673 25.3000938,20.7028163 25.4619246,22.3982449 C25.4845385,22.6411531 25.3990297,22.8805408 25.216705,23.0431837 C24.0330082,24.1000102 18.9646659,28.2942245 13.178332,28.212551 C6.73054121,28.1217245 2.73847961,25.1779592 0.216322085,22.6474898" id="Fill-273" fill="#459FFC"></path>
                                        <path d="M0.216322085,22.6474898 C0.060144777,22.4911837 -0.0140571115,22.2778469 0.00219663549,22.0574694 C0.0530779305,21.3956327 0.498995946,20.0163367 3.12362274,18.9383878 C5.72351558,17.8717041 8.05628162,16.8000918 9.14174924,16.292449 C9.50569184,16.1213571 9.93464942,16.2685102 10.1226275,16.6226633 L12.1599994,20.9943061 C12.4271262,21.4991327 13.140171,21.5336327 13.453939,21.0562653 L16.0234444,16.6606837 C16.2389832,16.3332857 16.6707675,16.2262653 17.014923,16.4149592 L23.9856604,20.2458673 C23.9856604,20.2458673 25.3000938,20.7028163 25.4619246,22.3982449 C25.4845385,22.6411531 25.3990297,22.8805408 25.216705,23.0431837 C24.0330082,24.1000102 18.9646659,28.2942245 13.178332,28.212551 C6.73054121,28.1217245 2.73847961,25.1779592 0.216322085,22.6474898 Z" id="Stroke-275" stroke="#2C5CC5" stroke-width="0.69609375" stroke-linecap="round" stroke-linejoin="round"></path>
                                        <path d="M8.25139725,16.47375 L8.68883505,21.553699 L12.7621654,21.6107296 L9.78631631,15.9879337 C9.78631631,15.9879337 8.77434389,15.4655051 8.25139725,16.47375" id="Fill-277" fill="#BBDCFE"></path>
                                        <path d="M8.25139725,16.47375 L8.68883505,21.553699 L12.7621654,21.6107296 L9.78631631,15.9879337 C9.78631631,15.9879337 8.77434389,15.4655051 8.25139725,16.47375 Z" id="Stroke-279" stroke="#2C5CC5" stroke-width="0.61875"></path>
                                        <path d="M17.4162492,16.6023153 L16.8360611,21.6674786 L12.762024,21.610448 L15.8961705,16.07355 C15.8961705,16.07355 16.9215699,15.5806929 17.4162492,16.6023153" id="Fill-281" fill="#BBDCFE"></path>
                                        <path d="M17.4162492,16.6023153 L16.8360611,21.6674786 L12.762024,21.610448 L15.8961705,16.07355 C15.8961705,16.07355 16.9215699,15.5806929 17.4162492,16.6023153 Z" id="Stroke-283" stroke="#2C5CC5" stroke-width="0.61875"></path>
                                        <path d="M18.496982,4.2244898 L18.4503408,7.521 C17.2298964,7.50339796 16.2589117,6.50782653 16.2751655,5.29258163 L7.45291426,5.16866327 C5.82824625,5.14613265 4.53077322,3.81964286 4.55409382,2.19743878 L4.58448126,1.33226763e-14 L4.95266396,0.00492857143 L14.5098672,0.138704082 C16.7415773,0.170387755 18.5287828,2.00170408 18.496982,4.2244898" id="Fill-285" fill="#656D78"></path>
                                        <path d="M14.5101499,0.138915306 L13.0395391,0.118496939 C15.2712492,0.150180612 17.057748,1.98079286 17.0266539,4.20357857 L16.9877863,6.93893571 C17.3736361,7.29238469 17.8838624,7.51276224 18.4499168,7.52050714 L18.4972647,4.22470102 C18.5290655,2.00191531 16.7411533,0.17059898 14.5101499,0.138915306" id="Fill-287" fill="#434A54"></path>
                                        <path d="M12.8220922,15.5014837 C9.57911637,15.4564224 6.97710349,12.7893612 7.02374467,9.55903469 C7.02657141,9.35625918 7.1926423,9.19502449 7.39616748,9.19780448 C7.59898598,9.20065714 7.76152345,9.36682041 7.75869671,9.56889184 C7.71841569,12.3964837 9.99464695,14.7291061 12.8326925,14.7685347 C15.6707381,14.8086673 18.0119843,12.5408204 18.0515587,9.71322857 C18.0543854,9.51115714 18.221163,9.34992245 18.4246882,9.35273878 C18.6282133,9.3555551 18.7893374,9.52171837 18.7865473,9.7237898 C18.7412829,12.9548204 16.0657748,15.5465449 12.8220922,15.5014837" id="Fill-289" fill="#374550"></path>
                                        <path d="M7.38599122,9.93005149 C7.18246604,9.92719898 7.02063526,9.76103571 7.023462,9.55896429 L7.08565025,5.16267857 C7.08847699,4.96060714 7.25454788,4.79937245 7.45877974,4.80215244 C7.66159824,4.8050051 7.82342902,4.97116837 7.82060229,5.1732398 L7.75841404,9.56882143 C7.7555873,9.77089286 7.58880972,9.93283163 7.38599122,9.93005149" id="Fill-293" fill="#374550"></path>
                                        <path d="M18.4141586,10.0848086 C18.2106334,10.0819561 18.0488026,9.91579286 18.0516293,9.71372143 L18.1293647,4.21906837 C18.1321914,4.01699694 18.298969,3.85505816 18.5017875,3.8578383 C18.7053126,3.86069082 18.8678501,4.02685408 18.8650234,4.23033367 L18.7865814,9.72357857 C18.7837546,9.92565 18.6176837,10.0875888 18.4141586,10.0848086" id="Fill-295" fill="#374550"></path>
                                    </g>
                                </g>
                                <path d="M22.3908671,9.86894333 C22.1880486,9.86609081 22.0255112,9.69992755 22.0283379,9.49715204 C22.057312,7.47784592 20.4319373,5.81128469 18.404459,5.78312143 C18.2009338,5.7803051 18.039103,5.61414183 18.0418933,5.41207041 C18.0454632,5.20999898 18.2115341,5.04735612 18.4150593,5.05013642 C20.8467612,5.08467245 22.7979175,7.08426428 22.7639966,9.50771326 C22.7611699,9.70978469 22.5943923,9.87172347 22.3908671,9.86894333" id="Fill-291" fill="#374550"></path>
                                <path d="M22.3445793,13.1652061 C20.9255565,13.1454918 19.7877942,11.9788286 19.8075814,10.5657367 C19.8104081,10.3629612 19.976479,10.2010224 20.1800042,10.2038388 C20.3842361,10.2066551 20.5453602,10.3728184 20.5425334,10.5755939 C20.5283997,11.5852469 21.3410871,12.4181755 22.3551796,12.4322571 C22.5587047,12.4357775 22.7198288,12.6019408 22.7170021,12.8040122 C22.7141754,13.0060837 22.5481045,13.1680224 22.3445793,13.1652061" id="Fill-297" fill="#374550"></path>
                                <path d="M11.3475061,10.8130464 C9.52284629,10.7869592 8.06000906,9.2872653 8.08544971,7.47003061 C8.08827645,7.26795918 8.25505403,7.10602041 8.45787252,7.10880055 C8.6613977,7.11165306 8.82393517,7.27781632 8.82110843,7.48059183 C8.80061458,8.89368367 9.93908355,10.0603469 11.3581063,10.0800612 C11.5609248,10.0828775 11.7227556,10.2490408 11.7199289,10.4511122 C11.7171021,10.6538878 11.5503246,10.8158265 11.3475061,10.8130464" id="Fill-301" fill="#374550"></path>
                                <path d="M18.404671,5.78333265 L8.47857838,5.64392449 C8.27575989,5.64110816 8.11322242,5.4749449 8.11601284,5.27216939 C8.11887589,5.07009796 8.28636016,4.90886326 8.48917865,4.91167959 L18.4152713,5.05038367 C18.6180898,5.05390408 18.7799206,5.22006734 18.7771303,5.42213877 C18.7742671,5.6242102 18.6074895,5.78614898 18.404671,5.78333265" id="Fill-303" fill="#374550"></path>
                                <path d="M8.44762559,7.84129285 C8.2448071,7.83847653 8.08226963,7.67231326 8.08509637,7.47024183 L8.11619049,5.27280306 C8.11901723,5.07002755 8.28579481,4.90879285 8.48931999,4.91160918 C8.69284517,4.91442551 8.85467595,5.08058877 8.85184921,5.2826602 L8.82075509,7.48009898 C8.81792835,7.68217041 8.65115077,7.84410918 8.44762559,7.84129285" id="Fill-305" fill="#374550"></path>
                            </g>
                            <path d="M20.1700399,10.9367173 L11.3477887,10.812799 C11.1442636,10.8099827 10.9824328,10.6438194 10.985223,10.4410439 C10.9880862,10.2389724 11.1541571,10.0770337 11.3576823,10.07985 L20.1806402,10.2037684 C20.3841654,10.2065847 20.5452895,10.372748 20.5424994,10.5755235 C20.539636,10.7775949 20.3735651,10.9395337 20.1700399,10.9367173" id="Fill-299" fill="#374550"></path>
                        </g>
                    </g>
                </g>
            </g>
        </g>
    </g>
</svg>