<?xml version="1.0" encoding="UTF-8"?>
<svg width="39px" height="40px" viewBox="0 0 39 40" version="1.1" xmlns="http://www.w3.org/2000/svg" xmlns:xlink="http://www.w3.org/1999/xlink">
    <!-- Generator: Sketch 53.2 (72643) - https://sketchapp.com -->
    <title>Shape</title>
    <desc>Created with Sketch.</desc>
    <g id="Page-2" stroke="none" stroke-width="1" fill="none" fill-rule="evenodd">
        <g id="Artboard-Copy-11" transform="translate(-792.000000, -348.000000)" fill="#FFFFFF" fill-rule="nonzero" stroke="#12344D">
            <path d="M823.255118,378.617929 C824.154171,377.706515 825.592656,377.706515 826.446756,378.617929 L828.37972,380.577468 C828.964105,381.169888 829.998016,380.759751 829.998016,379.893908 C830.042968,377.934368 829.323726,375.974828 827.885241,374.516566 C826.356851,372.967162 824.289029,372.238031 822.26616,372.374743 C821.052438,372.465884 819.883669,372.055748 819.074522,371.189905 L813.45544,365.493568 L813.45544,365.493568 L808.645507,360.663074 C807.746454,359.75166 807.34188,358.47568 807.476738,357.199701 C807.701501,355.057878 807.027211,352.824914 805.408916,351.184369 C803.79062,349.498253 801.587941,348.814693 799.475166,349.042546 C798.666018,349.133688 798.35135,350.136243 798.935734,350.683091 L801.093461,352.870485 C801.992514,353.781899 801.947562,355.19459 801.093461,356.106004 L799.744882,357.473125 C798.845829,358.384539 797.407344,358.384539 796.553244,357.473125 L794.62028,355.513585 C794.035895,354.921166 793.001984,355.331302 793.001984,356.197146 C792.957032,358.156686 793.676274,360.116226 795.114759,361.574488 C796.643149,363.123892 798.710971,363.853023 800.73384,363.716311 C801.947562,363.625169 803.116331,364.035305 803.925478,364.901149 L809.499607,370.551915 L809.499607,370.551915 L814.264588,375.382409 C815.163641,376.293823 815.568215,377.569802 815.433357,378.845782 C815.208594,380.987605 815.882883,383.220569 817.501179,384.861114 C819.119474,386.501659 821.322154,387.18522 823.434929,386.957366 C824.244076,386.866225 824.558745,385.863669 823.97436,385.316821 L821.816633,383.129428 C820.91758,382.218014 820.962533,380.805322 821.816633,379.893908 L823.255118,378.617929 Z" id="Shape"></path>
        </g>
    </g>
</svg>