<svg xmlns="http://www.w3.org/2000/svg" width="16" height="20" fill-rule="evenodd"><path d="M11.907 7.356c-.267-.242-.628-.368-1.016-.355-.38.013-.742.157-1.018.408-.197.18-.408.467-.573.773-.165-.306-.375-.594-.573-.773C8.45 7.158 8.09 7.014 7.71 7c-.388-.013-.75.113-1.016.355a1.16 1.16 0 0 0-.392.92c.014.344.174.67.45.922.268.243.758.508 1.22.66.288.095.545.142.766.142.227 0 .415-.05.562-.15.147.1.335.15.562.15.22 0 .478-.047.766-.142.462-.152.953-.418 1.22-.66.277-.25.436-.578.45-.922a1.16 1.16 0 0 0-.392-.92zM8.99 9.28c-.008.054-.024.092-.047.112-.073.066-.342.075-.758-.062-.38-.125-.788-.343-.994-.53-.165-.15-.26-.343-.27-.545-.008-.194.067-.373.21-.503.137-.124.322-.19.525-.19l.03.001c.223.007.437.094.602.244.207.187.447.557.585.9.07.172.104.316.115.428a1.14 1.14 0 0 0 0 .146h0zm2.42-.48c-.207.187-.615.405-.994.53-.416.137-.685.128-.758.062-.023-.02-.04-.06-.047-.112a1.15 1.15 0 0 0 0-.146c.01-.112.046-.256.115-.428.138-.343.378-.713.585-.9.165-.15.38-.236.602-.244l.03-.001c.203 0 .388.067.525.19.144.13.22.31.21.503-.008.202-.104.395-.27.545h0z" fill="#131735" fill-rule="nonzero"/><path d="M14.58 13.054v5.526a.85.85 0 0 1-.85.85H4.803a.85.85 0 0 1-.85-.85v-5.526" fill="#018667"/><path fill="#b2e4d9" d="M8.204 19.43h2.125v-6.376H8.204z"/><path d="M15.43 12.63c0 .234-.19.425-.425.425H3.528c-.235 0-.425-.19-.425-.425v-2.55c0-.235.2-.425.425-.425h11.477c.234 0 .425.2.425.425v2.55z" fill="#009875"/><path fill="#b2e4d9" d="M8.204 13.062h2.125V9.654H8.204z"/><path d="M1.5 6.48a1.02 1.02 0 1 0 0 2.04 1.02 1.02 0 1 0 0-2.04zM1.5 9C.673 9 0 8.327 0 7.5A1.5 1.5 0 0 1 1.5 6 1.5 1.5 0 0 1 3 7.5C3 8.327 2.327 9 1.5 9h0z" fill="#231f20"/><path d="M9 3a1 1 0 1 0 0 2 1 1 0 1 0 0-2" fill="#f96b20"/><path d="M6.628 1.804a1.81 1.81 0 0 1-1.814 1.804A1.81 1.81 0 0 1 3 1.804 1.81 1.81 0 0 1 4.814 0a1.81 1.81 0 0 1 1.814 1.804" fill="#20a8f9"/><path d="M15 5a1 1 0 1 1-2 0 1 1 0 1 1 2 0" fill="#231f20"/></svg>