<?xml version="1.0" encoding="UTF-8"?>
<svg width="14px" height="14px" viewBox="0 0 14 14" version="1.1" xmlns="http://www.w3.org/2000/svg" xmlns:xlink="http://www.w3.org/1999/xlink">
    <!-- Generator: Sketch 55.2 (78181) - https://sketchapp.com -->
    <title>Slice 1</title>
    <desc>Created with Sketch.</desc>
    <g id="Page-1" stroke="none" stroke-width="1" fill="none" fill-rule="evenodd">
        <g id="info" fill="#415D71" fill-rule="nonzero">
            <path d="M7,0 C3.13400675,0 0,3.13400675 0,7 C0,10.8659932 3.13400675,14 7,14 C10.8659932,14 14,10.8659932 14,7 C14,5.14348457 13.2625021,3.36300718 11.9497475,2.05025253 C10.6369928,0.737497883 8.85651543,0 7,0 Z M7,12.775 C3.81055557,12.775 1.225,10.1894444 1.225,7 C1.225,3.81055557 3.81055557,1.225 7,1.225 C10.1894444,1.225 12.775,3.81055557 12.775,7 C12.7701815,10.1874464 10.1874464,12.7701815 7,12.775 Z M7,5.25 C7.48324916,5.25 7.875,4.85824916 7.875,4.375 C7.875,3.89175084 7.48324916,3.5 7,3.5 C6.51675084,3.5 6.125,3.89175084 6.125,4.375 C6.125,4.85824916 6.51675084,5.25 7,5.25 Z M8.47875,9.9575 C8.47875,10.2957744 8.20452441,10.57 7.86625,10.57 L6.125,10.57 C5.78672559,10.57 5.5125,10.2957744 5.5125,9.9575 C5.5125,9.61922559 5.78672559,9.345 6.125,9.345 L6.3875,9.345 L6.3875,7.2975 L6.125,7.2975 C5.78672559,7.2975 5.5125,7.02327441 5.5125,6.685 C5.5125,6.34672559 5.78672559,6.0725 6.125,6.0725 L7,6.0725 C7.33827441,6.0725 7.6125,6.34672559 7.6125,6.685 L7.6125,9.35375 L7.875,9.35375 C8.2098524,9.35853409 8.47878417,9.63136342 8.47875,9.96625 L8.47875,9.9575 Z" id="Shape"></path>
        </g>
    </g>
</svg>