<?xml version="1.0" encoding="UTF-8"?>
<svg width="148px" height="103px" viewBox="0 0 148 103" version="1.1" xmlns="http://www.w3.org/2000/svg" xmlns:xlink="http://www.w3.org/1999/xlink">
    <title>C6E9EAAD-FCA7-44E6-88D9-F9B8F3F0F8B7</title>
    <g id="Nudges" stroke="none" stroke-width="1" fill="none" fill-rule="evenodd">
        <g id="Nudge-II" transform="translate(-772.000000, -208.000000)">
            <g id="Group" transform="translate(256.000000, 196.000000)">
                <g id="convo-copy" transform="translate(516.000000, 13.000000)">
                    <path d="M100.811405,21.9173554 C100.112212,22.8602257 99.7101157,23.9902044 99.6565289,25.1628099 C99.8419835,26.0563636 100.499504,26.0563636 101.207603,25.5252893 C101.64595,25.1880992 101.629091,22.0100826 105.489917,19.9700826 C103.884694,20.5033589 102.320954,21.1542126 100.811405,21.9173554 L100.811405,21.9173554 Z" id="Path" fill="#374550" fill-rule="nonzero"></path>
                    <path d="M123.07438,61.9923967 C121.135537,76.5 111.272727,78.4557025 108.912397,79.8044628 C103.626942,82.8476033 97.2287603,81.3892562 91.698843,83.572562 C82.4261157,87.2226446 77.3682645,96.8831405 68.0196694,100.668099 C65.1473219,101.938233 61.9516224,102.285784 58.8733884,101.66281 C52.3656198,100.111736 50.2413223,93.8484298 48.0580165,88.3016529 C46.5153719,84.3565289 43.9442975,77.6801653 38.7852893,77.6464463 C33.626281,77.6127273 31.4008264,76.7107438 26.6127273,77.7897521 C22.6338843,78.6833058 14.9880992,77.5031405 14.4233058,72.217686 C14.1029752,69.191405 14.9965289,69.0565289 16.6150413,66.8226446 C18.1408264,64.7236364 19.4980165,63.6193388 18.9922314,61.0735537 C18.1071074,56.6226446 13.2178512,55.1727273 9.34016529,54.6163636 C4.6953719,53.9504132 1.58479339,52.2644628 0.539504132,46.8272727 C-1.93041322,33.9971901 14.6509091,29.2259504 24.446281,30.701157 C36.8717355,32.5978512 52.1295868,49.1370248 64.7236364,49.7355372 C85.1320661,50.6880992 99.9684298,29.8497521 120.36,27.8181818 C127.946777,27.0679339 140.110909,28.2818182 141.046612,38.1446281 C141.510248,43.0844628 136.831736,47.5859504 133.333388,50.4183471 C132.574711,51.0252893 131.807603,51.5985124 131.057355,52.1042975 C127.955207,54.2454545 124.676033,57.4319008 123.40314,61.3180165" id="Path" fill="#EBEFF3" fill-rule="nonzero" opacity="0.68"></path>
                    <path d="M106.130579,11.6330579 C106.130579,11.6330579 106.779669,12.138843 106.863967,12.5940496 L105.371901,12.5519008 C105.564088,12.2001791 105.821579,11.8883293 106.130579,11.6330579 L106.130579,11.6330579 Z" id="Path" fill="#374550" fill-rule="nonzero"></path>
                    <path d="M72.352562,51.4214876 C72.352562,51.4214876 72.9173554,51.7586777 72.7656198,53.6300826 C72.0465097,53.5393317 71.3497042,53.3194382 70.7087603,52.9809917 L72.352562,51.4214876 Z" id="Path" fill="#424242" fill-rule="nonzero"></path>
                    <path d="M100.111736,5.00727273 C100.111736,5.00727273 99.0158678,7.20743802 86.1014876,5.00727273 C73.1871074,2.80710744 35.8433058,-4.33289256 28.7033058,5.28545455 C21.5633058,14.9038017 41.887438,19.5654545 48.757686,11.8775207 C55.6279339,4.18958678 36.1130579,4.18115702 36.1130579,13.7995041 C36.1130579,23.4178512 67.6993388,18.7393388 76.4831405,21.7571901 C85.2669421,24.7750413 91.5892562,33.2975207 94.0591736,40.1593388 C96.5290909,47.021157 104.225455,51.6996694 115.209421,53.6469421 C126.193388,55.5942149 138.281653,59.6826446 136.629421,67.1345455 C134.97719,74.5864463 118.505455,75.3704132 107.521488,64.1166942 C98.8219835,55.1980165 85.8233058,48.5975207 79.7791736,46.4142149" id="Path" stroke="#131735" stroke-width="0.5" stroke-linecap="round" stroke-linejoin="round"></path>
                    <path d="M41.8621488,90.4849587 C41.8621488,90.4849587 65.0018182,104.38562 68.4664463,100.659669 C71.9310744,96.933719 49.9884298,81.2712397 49.9884298,81.2712397 L41.8621488,90.4849587 Z" id="Path" fill="#374550" fill-rule="nonzero"></path>
                    <g id="ddhSH9" transform="translate(15.173554, 39.619835)" fill="#9ACBFA" fill-rule="nonzero">
                        <path d="M0.623801653,32.3533884 C0.623801653,32.3533884 3.37190083,29.2512397 13.6561983,12.3242975 C23.9404959,-4.60264463 36.9307438,0.691239669 40.7241322,5.1 C43.1603306,7.94082645 47.3161983,16.5307438 45.3352066,24.6654545 C43.3542149,32.8001653 36.7621488,40.6819835 33.4661157,44.8968595 C30.1700826,49.1117355 27.9699174,51.9357025 27.9699174,51.9357025 C27.9699174,51.9357025 7.66264463,39.8221488 0.623801653,32.3533884 Z" id="Path"></path>
                    </g>
                    <path d="M55.4256198,45.6892562 C55.4256198,45.6892562 63.6361983,51.4214876 65.9543802,59.5983471 C68.272562,67.7752066 73.1196694,75.1849587 79.8634711,72.8667769 C86.6072727,70.548595 92.2889256,64.6561983 93.7641322,61.5371901 C93.7641322,61.5371901 99.0327273,63.4338843 99.6649587,67.2272727 C99.6649587,67.2272727 89.9707438,87.6609917 71.0038017,86.6157025 C52.0368595,85.5704132 48.6733884,71.0206612 48.6733884,71.0206612" id="Path" stroke="#424242" stroke-width="0.590082645" stroke-linecap="round" stroke-linejoin="round"></path>
                    <path d="M49.3983471,30.3471074 C48.5456615,34.4060723 51.1405843,38.388977 55.1980165,39.2489256 C57.8924375,39.7271914 60.6282934,38.660175 62.287438,36.4839669 C63.0678047,35.4828341 63.5968014,34.3092132 63.8300826,33.0614876 C64.2606037,30.8351932 63.7039349,28.5316298 62.3042975,26.7476033 C61.239051,25.4026781 59.7246563,24.4868584 58.038843,24.1680992 C56.0736413,23.8415868 54.059225,24.309171 52.4387939,25.4679769 C50.8183628,26.6267827 49.7246714,28.3818745 49.3983471,30.3471074 Z" id="Path" stroke="#273139" stroke-width="0.5" fill="#FFFFFF" fill-rule="nonzero" stroke-linecap="round" stroke-linejoin="round"></path>
                    <path d="M64.0661157,28.4672727 C64.0661157,28.4672727 63.273719,23.1228099 58.8480992,21.5801653 C51.9441322,19.1692562 46.9621488,24.6064463 40.1509091,31.6958678 C40.1509091,31.6958678 41.8368595,37.5966942 49.7861157,39.1983471 C49.9547107,38.8442975 53.6300826,33.862314 53.6300826,33.862314 C52.8815245,33.668895 52.2321698,33.2029229 51.8092562,32.5557025 C51.4585126,31.7034615 51.7047029,30.7221196 52.4161983,30.1363636 C53.5542149,29.2933884 54.6079339,30.3723967 55.113719,30.8107438 C55.4761983,31.1310744 56.1590083,31.3586777 56.7996694,29.9087603 C57.4403306,28.458843 58.0809917,27.742314 59.126281,28.1722314 C60.1715702,28.6021488 62.6752066,29.5041322 64.0661157,28.4672727 Z" id="Path" fill="#374550" fill-rule="nonzero"></path>
                    <path d="M62.8353719,27.438843 C62.8353719,27.438843 60.7026446,27.9530579 57.7775207,26.3092562" id="Path" stroke="#FFFFFF" stroke-width="0.5" stroke-linecap="round" stroke-linejoin="round"></path>
                    <ellipse id="Oval" fill="#92A2B1" fill-rule="nonzero" transform="translate(53.880177, 31.991712) rotate(-21.970000) translate(-53.880177, -31.991712) " cx="53.8801771" cy="31.9917121" rx="3.11900826" ry="3.05157025"></ellipse>
                    <circle id="Oval" fill="#374550" fill-rule="nonzero" cx="52.3150413" cy="20.4421488" r="5.18429752"></circle>
                    <path d="M61.0819835,50.148595 L65.1872727,46.4310744 C65.1872727,46.4310744 67.2441322,52.3319008 72.5042975,53.6132231 L66.4938843,61.3433058" id="Path" stroke="#424242" stroke-width="0.590082645" stroke-linecap="round" stroke-linejoin="round"></path>
                    <path d="M15.6371901,71.9395041 C15.6371901,71.9395041 4.86396694,62.5740496 6.91239669,60.011405 C8.96082645,57.4487603 21.4368595,64.0071074 21.4368595,64.0071074 C21.4368595,64.0071074 17.8204959,70.1439669 15.6371901,71.9395041 Z" id="Path" fill="#374550" fill-rule="nonzero"></path>
                    <path d="M13.057686,69.4021488 C23.1838723,78.5452063 34.388409,86.4178229 46.4226446,92.8452893" id="Path" stroke="#374550" stroke-width="0.590082645" stroke-linecap="round" stroke-linejoin="round"></path>
                    <ellipse id="Oval" fill="#374550" fill-rule="nonzero" transform="translate(53.895812, 31.993834) rotate(-21.970000) translate(-53.895812, -31.993834) " cx="53.8958123" cy="31.9938344" rx="1.60165289" ry="1.54264463"></ellipse>
                    <path d="M54.7933884,34.2247934 C54.7933884,34.2247934 56.5467769,40.1256198 59.9355372,40.7072727" id="Path" stroke="#424242" stroke-width="0.590082645" stroke-linecap="round" stroke-linejoin="round"></path>
                    <ellipse id="Oval" fill="#424242" fill-rule="nonzero" cx="60.7447934" cy="40.665124" rx="1" ry="1"></ellipse>
                    <ellipse id="Oval" fill="#374550" fill-rule="nonzero" cx="124.246116" cy="44.5596694" rx="20.6866116" ry="4.39190083"></ellipse>
                    <circle id="Oval" stroke="#131735" stroke-width="0.5" fill="#FFFFFF" fill-rule="nonzero" stroke-linecap="round" stroke-linejoin="round" cx="117.055537" cy="8.9692562" r="5.47090909"></circle>
                    <path d="M112.815372,1.72809917 C112.815372,1.72809917 113.877521,4.56049587 119.946942,3.15272727" id="Path" stroke="#374550" stroke-width="4.50991736" stroke-linecap="round" stroke-linejoin="round"></path>
                    <path d="M120.966942,4.53520661 C120.966942,4.53520661 119.845785,5.60578512 120.966942,8.29487603 C121.3473,8.98861613 121.991748,9.49931052 122.75405,9.71107438 C122.75405,9.71107438 125.603306,5.72380165 120.966942,4.53520661 Z" id="Path" fill="#374550" fill-rule="nonzero"></path>
                    <path d="M121.135537,5.14214876 C121.575844,4.34105329 122.440448,3.86765794 123.352562,3.92826446" id="Path" stroke="#374550" stroke-width="0.5" stroke-linecap="round" stroke-linejoin="round"></path>
                    <path d="M120.907934,5.15057851 C121.645002,4.60546515 122.631036,4.53644272 123.43686,4.97355372" id="Path" stroke="#374550" stroke-width="0.5" stroke-linecap="round" stroke-linejoin="round"></path>
                    <path d="M112.655207,48.1338843 C109.512917,41.7001603 108.145166,34.544201 108.693223,27.405124 C109.089421,22.473719 111.087273,18.5876033 112.469752,18.191405 C113.852231,17.7952066 117.232562,20.0965289 122.492727,15.3168595 C124.802479,13.2178512 127.061653,15.7720661 128.638017,18.5370248 C130.21438,21.3019835 131.25124,36.652562 134.538843,43.5902479 L136.561983,47.737686 C136.561983,47.737686 132.186942,49.5163636 112.655207,48.1338843 Z" id="Path" fill="#4BC1A7" fill-rule="nonzero"></path>
                    <path d="M106.594215,12.8216529 C104.944413,16.0051136 102.996878,19.025204 100.777686,21.8414876 C100.777686,21.8414876 107.470909,19.0006612 112.86595,18.6803306" id="Path" stroke="#131735" stroke-width="0.5" stroke-linecap="round" stroke-linejoin="round"></path>
                    <path d="M133.95719,36.3490909 C133.95719,36.3490909 128.562149,39.5186777 127.609587,40.9433058 C126.657025,42.3679339 131.57157,39.4006612 131.57157,39.4006612 C131.57157,39.4006612 128.123802,41.9295868 127.929917,42.5702479 C127.736033,43.2109091 128.16595,43.2024793 128.772893,42.9664463 C129.379835,42.7304132 132.144793,40.9854545 132.144793,40.9854545 C132.144793,40.9854545 129.312397,43.1434711 129.489421,43.9190083 C129.615868,44.4922314 133.569421,41.5839669 133.569421,41.5839669 C133.569421,41.5839669 131.23438,43.6408264 131.23438,43.961157 C131.23438,44.2814876 131.58843,44.3573554 132.220661,44.0033058 C134.134012,42.7447361 135.943738,41.3352922 137.632562,39.7884298" id="Path" stroke="#131735" stroke-width="0.547933884" fill="#FFFFFF" fill-rule="nonzero" stroke-linecap="round" stroke-linejoin="round"></path>
                    <path d="M108.533058,30.5747107 C106.100877,30.7941618 103.651578,30.7347678 101.232893,30.397686 C96.2424793,29.8581818 91.2604959,27.371405 92.1540496,22.7350413 C93.0476033,18.0986777 100.64281,10.3517355 100.64281,10.3517355 C100.64281,10.3517355 103.618512,12.8806612 106.459339,12.8806612" id="Path" stroke="#131735" stroke-width="0.5" stroke-linecap="round" stroke-linejoin="round"></path>
                    <path d="M104.03157,8.61520661 L99.9515702,7.91553719 C99.9515702,7.91553719 98.2656198,5.38661157 100.861983,2.52049587 L110.429752,4.16429752 C110.429752,4.16429752 111.070413,7.53619835 109.232727,9.5677686 L106.703802,9.1631405" id="Path" fill="#92A2B1" fill-rule="nonzero"></path>
                    <path d="M105.860826,12.1809917 C105.860826,12.1809917 108.996694,8.04198347 109.14843,6.85338843 C109.267005,5.7094469 108.924121,4.56548925 108.195868,3.6753719 C107.563636,2.88297521 106.139008,1.45834711 105.978843,2.48677686 C105.818678,3.51520661 107.251736,5.18429752 107.251736,5.18429752 C106.67936,5.41384049 106.182862,5.79935679 105.818678,6.29702479" id="Path" stroke="#131735" stroke-width="0.5" fill="#FCFCFC" fill-rule="nonzero" stroke-linecap="round" stroke-linejoin="round"></path>
                    <path d="M101.300331,2.52892562 C101.81203,4.43426089 101.301821,6.46871902 99.9515702,7.90710744" id="Path" stroke="#131735" stroke-width="0.5" stroke-linecap="round" stroke-linejoin="round"></path>
                    <path d="M94.4132231,61.6552066 C95.2559257,61.005452 95.7731277,60.0203052 95.8294215,58.957686 C95.8294215,57.2717355 95.0538843,54.978843 95.1887603,53.6975207 C95.3236364,52.4161983 96.3436364,52.8039669 96.8747107,54.0852893 C97.4057851,55.3666116 97.5238017,57.0357025 98.0295868,56.7828099 C98.6185286,56.2940663 99.137589,55.7267872 99.5722314,55.0968595" id="Path" stroke="#424242" stroke-width="0.590082645" stroke-linecap="round" stroke-linejoin="round"></path>
                    <path d="M98.1054545,54.7933884 C98.1054545,54.7933884 99.5553719,52.6522314 100.920992,53.3434711 C102.286612,54.0347107 101.527934,54.7933884 102.606942,55.7375207 C103.68595,56.6816529 104.663802,57.3644628 104.663802,58.6457851 C104.663802,59.9271074 102.699669,64.5466116 99.791405,66.4264463" id="Path" stroke="#424242" stroke-width="0.590082645" stroke-linecap="round" stroke-linejoin="round"></path>
                    <path d="M64.4791736,44.3489256 L77.2502479,48.5638017 C77.2502479,48.5638017 80.4029752,47.5353719 80.2680992,43.2783471 L69.5538843,35.2869421" id="Path" fill="#92A2B1" fill-rule="nonzero"></path>
                    <path d="M65.4654545,46.4816529 C66.3302269,44.772732 67.6672876,43.3478993 69.3178512,42.3763636 C72.0069421,40.833719 72.3947107,40.4628099 73.338843,40.968595 C74.2829752,41.4743802 71.7961983,43.657686 71.7961983,43.657686 C71.7961983,43.657686 72.0069421,46.8947107 71.366281,48.3109091" id="Path" stroke="#424242" stroke-width="0.590082645" fill="#FFFFFF" fill-rule="nonzero" stroke-linecap="round" stroke-linejoin="round"></path>
                    <ellipse id="Oval" stroke="#131735" stroke-width="0.5" fill="#AFBFC9" fill-rule="nonzero" stroke-linecap="round" stroke-linejoin="round" transform="translate(66.793940, 39.710722) rotate(-60.000000) translate(-66.793940, -39.710722) " cx="66.7939404" cy="39.7107216" rx="5.13371901" ry="1.39933884"></ellipse>
                    <path d="M124.869917,15.502314 C124.869917,15.502314 142.985455,17.1882645 147.057025,24.7244628 C149.94,30.0773554 138.399669,39.5439669 138.399669,39.5439669 C138.399669,39.5439669 135.870744,40.0919008 134.184793,35.8938843 L139.841157,27.4641322 C139.841157,27.4641322 132.25438,26.3935537 128.595868,26.9414876" id="Path" stroke="#131735" stroke-width="0.5" stroke-linecap="round" stroke-linejoin="round"></path>
                    <path d="M78.472562,40.9938843 C78.472562,40.9938843 78.8434711,43.1013223 79.0204959,43.927438 C79.1975207,44.7535537 79.661157,45.3857851 80.1247934,44.8378512 C80.5884298,44.2899174 80.4872727,41.5418182 80.4872727,41.0866116 C80.5226165,40.6709585 80.3660427,40.2619471 80.0621754,39.9761477 C79.7583082,39.6903482 79.340478,39.5591093 78.9277686,39.6198347" id="Path" stroke="#424242" stroke-width="0.590082645" fill="#FFFFFF" fill-rule="nonzero" stroke-linecap="round" stroke-linejoin="round"></path>
                    <path d="M74.527438,38.6504132 C74.527438,38.6504132 75.8087603,37.2763636 76.9046281,37.807438 C78.0004959,38.3385124 77.3598347,39.8221488 76.8119008,41.1034711 C76.2639669,42.3847934 75.8087603,43.3036364 75.1259504,43.5733884 C74.4431405,43.8431405 74.0216529,43.3879339 74.392562,41.8368595 C74.5693243,40.9704517 74.9444215,40.1567794 75.4884298,39.4596694" id="Path" stroke="#131735" stroke-width="0.547933884" fill="#FFFFFF" fill-rule="nonzero" stroke-linecap="round" stroke-linejoin="round"></path>
                    <path d="M77.1912397,40.3532231 C77.1912397,40.3532231 77.5621488,42.4606612 77.7391736,43.2783471 C77.9161983,44.0960331 78.3798347,44.745124 78.8434711,44.1971901 C79.3071074,43.6492562 79.2396694,40.901157 79.2396694,40.4628099 C79.2750132,40.0471569 79.1184394,39.6381455 78.8145721,39.352346 C78.5107049,39.0665466 78.0928747,38.9353077 77.6801653,38.9960331" id="Path" stroke="#424242" stroke-width="0.590082645" fill="#FFFFFF" fill-rule="nonzero" stroke-linecap="round" stroke-linejoin="round"></path>
                    <path d="M70.8942149,52.7365289 C70.8942149,52.7365289 74.0975207,49.6259504 75.648595,48.1591736" id="Path" stroke="#424242" stroke-width="0.590082645" fill="#FFFFFF" fill-rule="nonzero" stroke-linecap="round" stroke-linejoin="round"></path>
                    <path d="M48.5553719,71.1386777 C48.3468968,74.8368317 49.1021104,78.5257598 50.7471074,81.8444628 C50.7471074,81.8444628 52.0284298,80.1585124 53.04,78.641157 C50.91719,76.5736172 49.3712833,73.9874198 48.5553719,71.1386777 L48.5553719,71.1386777 Z" id="Path" fill="#374550" fill-rule="nonzero"></path>
                    <path d="M92.4912397,64.2684298 C94.7149547,65.194186 96.5353494,66.883058 97.6249587,69.0312397" id="Path" stroke="#424242" stroke-width="0.590082645" stroke-linecap="round" stroke-linejoin="round"></path>
                    <path d="M103.921983,2.68909091 C103.921983,2.68909091 104.208595,4.32446281 104.351901,4.96512397 C104.495207,5.60578512 104.849256,6.1031405 105.194876,5.68165289 C105.540496,5.26016529 105.481488,3.15272727 105.481488,2.76495868 C105.508122,2.44195287 105.385823,2.12446166 105.149379,1.90279492 C104.912934,1.68112819 104.588221,1.5795456 104.267603,1.62694215" id="Path" stroke="#424242" stroke-width="0.5" fill="#FFFFFF" fill-rule="nonzero" stroke-linecap="round" stroke-linejoin="round"></path>
                    <path d="M102.059008,2.45305785 C102.059008,2.45305785 102.556364,1.22231405 103.424628,1.31504132 C104.292893,1.4077686 104.225455,2.52892562 104.191736,3.51520661 C104.266032,4.22880765 104.099889,4.9467827 103.719669,5.55520661 C103.36562,5.90082645 102.952562,5.7153719 102.800826,4.59421488 C102.700422,3.97730836 102.743693,3.34555474 102.927273,2.74809917" id="Path" stroke="#131735" stroke-width="0.5" fill="#FFFFFF" fill-rule="nonzero" stroke-linecap="round" stroke-linejoin="round"></path>
                    <path d="M101.738678,8.33702479 C101.682476,9.16244777 101.431122,9.9627368 101.005289,10.6720661" id="Path" stroke="#131735" stroke-width="0.5" fill="#FCFCFC" fill-rule="nonzero" stroke-linecap="round" stroke-linejoin="round"></path>
                    <path d="M128.334545,27.1016529 C129.086643,27.6869767 129.565171,28.5556414 129.658017,29.5041322 C129.658017,30.8781818 131.343967,32.1595041 131.343967,32.1595041 L130.500992,27.1016529 L128.334545,27.1016529 Z" id="Path" fill="#374550" fill-rule="nonzero"></path>
                    <path d="M105.995702,6.46561983 C105.020967,7.04810269 104.222657,7.8842888 103.68595,8.88495868 L106.889256,9.43289256 L105.995702,6.46561983 Z" id="Path" fill="#FFFFFF" fill-rule="nonzero"></path>
                </g>
            </g>
        </g>
    </g>
</svg>