<?xml version="1.0" encoding="UTF-8"?>
<svg width="51px" height="46px" viewBox="0 0 51 46" version="1.1" xmlns="http://www.w3.org/2000/svg" xmlns:xlink="http://www.w3.org/1999/xlink">
    <!-- Generator: Sketch 52.2 (67145) - http://www.bohemiancoding.com/sketch -->
    <title>Slice 1</title>
    <desc>Created with Sketch.</desc>
    <g id="Page-1" stroke="none" stroke-width="1" fill="none" fill-rule="evenodd">
        <g id="Group-14">
            <path d="M25.0363369,44.6280992 C24.3567147,44.6260103 23.6783481,44.5807527 23.0057398,44.4853374 C21.7597693,44.3085858 20.5396637,43.9663554 19.3890857,43.4703176 C18.0099109,42.8757284 16.7334448,42.0615506 15.6225738,41.0711421 C14.4736019,40.046764 13.5037018,38.8356182 12.7668049,37.5015759 C12.136383,36.3602908 11.6777923,35.1310223 11.4100358,33.8627136 C11.1029159,32.4079463 11.0460022,30.9037507 11.239172,29.4307871 C11.4196913,28.0542856 11.8214771,26.7066397 12.4271412,25.4493281 C13.124142,24.0024142 14.0886324,22.6792235 15.2604224,21.5569058 C16.4930459,20.3763304 17.9521873,19.4211281 19.5441787,18.7573039 C20.4090279,18.3966853 21.3118261,18.1221141 22.2341949,17.9391625 C23.09693,17.7680565 23.9763037,17.6771919 24.8568069,17.6663888 C25.7412119,17.6555318 26.6266129,17.7250598 27.4973483,17.8758179 C28.4268718,18.0367499 29.3391261,18.2901823 30.2153843,18.6311359 C31.8254369,19.2575897 33.3095493,20.179412 34.5721956,21.3324135 C35.7702677,22.4264562 36.7664388,23.7257219 37.4990092,25.1545708 C38.1342175,26.3935476 38.5693979,27.7270794 38.7849853,29.0947299 C39.0121077,30.5355359 38.9981432,32.0125421 38.7430362,33.448964 C38.5156912,34.7290069 38.0953469,35.9756484 37.4990092,37.1388112 C36.8036218,38.4951589 35.8707082,39.7350614 34.7527511,40.7931214 C33.6338297,41.8520964 32.3314597,42.7270466 30.9143323,43.368373 C29.7494746,43.8955421 28.5092123,44.2638017 27.239632,44.4597625 C26.5994479,44.558575 25.9534036,44.6116936 25.3054473,44.6256217 C25.2157371,44.6269993 25.1260583,44.6278233 25.0363369,44.6280992 Z" id="dashboard" stroke="#183247" stroke-width="1.125"></path>
            <path d="M0.794805195,7.43801653 L10.3324675,7.43801653 C10.7714263,7.43801653 11.1272727,7.79024006 11.1272727,8.22472982 L11.1272727,16.878576 C11.1272727,17.3130657 10.7714263,17.6652893 10.3324675,17.6652893 C10.1604954,17.6652893 9.99316215,17.6100794 9.85558442,17.5079466 L7.94805195,16.0918627 L0.794805195,16.0918627 C0.355846407,16.0918627 0,15.7396391 0,15.3051494 L0,8.22472982 C0,7.79024006 0.355846407,7.43801653 0.794805195,7.43801653 Z M0.953766234,15.1478067 L8.26597403,15.1478067 L10.1735065,16.5638907 L10.1735065,8.38207247 L0.953766234,8.38207247 L0.953766234,15.1478067 Z M2.85644358,10.191513 L8.27082915,10.191513 C8.53152301,10.191513 8.74285714,10.4028472 8.74285714,10.663541 C8.74285714,10.9242349 8.53152301,11.135569 8.27082915,11.135569 L2.85644358,11.135569 C2.59574971,11.135569 2.38441558,10.9242349 2.38441558,10.663541 C2.38441558,10.4028472 2.59574971,10.191513 2.85644358,10.191513 Z M2.85644358,12.5516529 L8.27082915,12.5516529 C8.53152301,12.5516529 8.74285714,12.762987 8.74285714,13.0236809 C8.74285714,13.2843747 8.53152301,13.4957089 8.27082915,13.4957089 L2.85644358,13.4957089 C2.59574971,13.4957089 2.38441558,13.2843747 2.38441558,13.0236809 C2.38441558,12.762987 2.59574971,12.5516529 2.85644358,12.5516529 Z" id="comment" fill="#183247" fill-rule="nonzero"></path>
            <path d="M39.7490909,11.1570248 L50.1963636,11.1570248 C50.6401997,11.1570248 51,11.5354468 51,12.0022539 L51,19.6093163 C51,20.0761235 50.6401997,20.4545455 50.1963636,20.4545455 L39.7490909,20.4545455 C39.3052548,20.4545455 38.9454545,20.0761235 38.9454545,19.6093163 L38.9454545,12.0022539 C38.9454545,11.5354468 39.3052548,11.1570248 39.7490909,11.1570248 Z M39.9098182,12.1712998 L39.9098182,19.4402705 L50.0356364,19.4402705 L50.0356364,12.1712998 L39.9098182,12.1712998 Z M41.62383,13.6933629 L44.9727273,16.0415109 L48.3216246,13.6933629 C48.5432009,13.5380001 48.8425728,13.6009733 48.9902904,13.8340176 C49.138008,14.0670618 49.0781336,14.3819279 48.8565573,14.5372907 L45.2401936,17.0729782 C45.078229,17.186543 44.8672255,17.186543 44.7052609,17.0729782 L41.0888973,14.5372907 C40.8673209,14.3819279 40.8074465,14.0670618 40.9551641,13.8340176 C41.1028817,13.6009733 41.4022536,13.5380001 41.62383,13.6933629 Z" id="email" fill="#183247" fill-rule="nonzero"></path>
            <path d="M25.425332,30.250749 C23.4842683,30.250749 21.9107252,28.6821904 21.9107252,26.7472753 C21.9107252,24.8123602 23.4842683,23.2438017 25.425332,23.2438017 C27.3663957,23.2438017 28.9399387,24.8123602 28.9399387,26.7472753 C28.9399387,28.6821904 27.3663957,30.250749 25.425332,30.250749 Z M25.425332,29.0321494 C26.6912431,29.0321494 27.7174668,28.0091764 27.7174668,26.7472753 C27.7174668,25.4853742 26.6912431,24.4624012 25.425332,24.4624012 C24.1594209,24.4624012 23.1331971,25.4853742 23.1331971,26.7472753 C23.1331971,28.0091764 24.1594209,29.0321494 25.425332,29.0321494 Z M20.6917263,35.656471 C20.6917263,35.9899734 20.418844,36.2603306 20.0822268,36.2603306 C19.7456095,36.2603306 19.4727273,35.9899734 19.4727273,35.656471 C19.4727273,33.2478422 21.4435433,31.2952628 23.874668,31.2952628 L27.125332,31.2952628 C29.5564567,31.2952628 31.5272727,33.2478422 31.5272727,35.656471 C31.5272727,35.9899734 31.2543905,36.2603306 30.9177732,36.2603306 C30.581156,36.2603306 30.3082737,35.9899734 30.3082737,35.656471 C30.3082737,33.9148471 28.8832222,32.502982 27.125332,32.502982 L23.874668,32.502982 C22.1167778,32.502982 20.6917263,33.9148471 20.6917263,35.656471 Z" id="Combined-Shape" fill="#183247" fill-rule="nonzero"></path>
            <path d="M15.0374018,1.31242629 L14.2843331,2.32832827 C13.9838551,2.73367812 13.8971654,3.42770995 14.0858936,3.88498419 C14.0858936,3.88498419 14.7245958,5.88736297 16.9436232,8.11167531 C19.1626507,10.3359877 21.1602719,10.976211 21.1602719,10.976211 C21.6168137,11.1749588 22.3117423,11.0763327 22.7132292,10.7772988 L23.7267175,10.0224366 C24.1311042,9.72124293 24.1325912,9.23741661 23.7365158,8.93695611 L22.2787078,7.83107142 C22.0931996,7.69034595 21.7739219,7.68970776 21.5845395,7.84402757 L20.5758543,8.66596265 C20.3893242,8.81795821 20.0654115,8.84419571 19.8587461,8.71937439 C19.8587461,8.71937439 18.8162337,8.14115842 17.8652219,7.18788171 C16.9142102,6.23460499 16.347951,5.2065429 16.347951,5.2065429 C16.2128574,4.98636676 16.2366997,4.66062714 16.3906528,4.47079362 L17.210635,3.45970615 C17.3622695,3.27273177 17.3703751,2.95834269 17.2235604,2.76388454 L16.1203033,1.30260458 C15.8196983,0.904449011 15.3357251,0.909983199 15.0374018,1.31242629 Z M17.528785,5.19772683 C17.7856247,5.57568607 18.0816199,5.95393726 18.4092315,6.30356682 C18.4641326,6.36215764 18.5195459,6.41951056 18.5754408,6.47553861 C18.6416505,6.54190596 18.7098197,6.60766175 18.7797968,6.67274933 C19.1249353,6.99377189 19.4984765,7.2851082 19.871802,7.53889503 C19.9747085,7.60885088 20.0659272,7.66827176 20.1458449,7.71843328 L20.9509931,7.0623519 C21.4982335,6.61642871 22.3291952,6.60632876 22.8847992,7.02780672 L24.3426072,8.13369141 C25.2750196,8.84101404 25.2657437,10.1308851 24.325738,10.8310164 L23.3122498,11.5858785 C22.6364524,12.0892232 21.5919541,12.2362516 20.8106026,11.9212593 C20.495958,11.8156347 20.006757,11.6029026 19.3916059,11.2559662 C18.3432655,10.6647173 17.2711664,9.8642521 16.2334043,8.82401841 C15.1956342,7.78377671 14.3970566,6.70910513 13.807197,5.65824048 C13.4445586,5.01218182 13.2288834,4.50469743 13.157682,4.27014057 C12.8329597,3.48336293 12.9682788,2.41521234 13.4780939,1.72746344 L14.2311626,0.711561455 C14.9276427,-0.228001652 16.2151161,-0.240619321 16.9212387,0.694650265 L18.0244959,2.15593023 C18.4507591,2.72052202 18.4335255,3.54832778 17.9900281,4.0951868 L17.3356981,4.90201516 C17.3866545,4.98381365 17.4512653,5.08365069 17.528785,5.19772683 Z" id="freshphone" fill="#183247" fill-rule="nonzero"></path>
        </g>
    </g>
</svg>