<svg xmlns="http://www.w3.org/2000/svg" width="194" height="161" viewBox="0 0 194 161">
  <g fill="none" fill-rule="evenodd">
    <path fill="#FAC386" fill-rule="nonzero" d="M182.89,0.86 C182.89,0.86 175.69,0.2 167.29,19.1 C158.89,38 170.29,54.94 160.09,71.88 C149.89,88.82 109.09,86.21 109.69,103.15 C110.29,120.09 109.69,126.61 104.29,139.64 C98.89,152.67 107.89,160.49 107.89,160.49 L193.09,160.49 L193.09,0.86 L182.89,0.86 Z"/>
    <path fill="#374550" fill-rule="nonzero" d="M117.94,134.21 C117.94,134.21 82.29,155.62 76.94,149.89 C71.59,144.16 105.42,120 105.42,120 L117.94,134.21 Z"/>
    <path fill="#5CA6F4" fill-rule="nonzero" d="M82.1,98 L91.19,118.94 L97.48,131.94 L103.3,142.51 C110.41,138.82 118.87,134.03 118.87,134.03 C118.87,134.03 133.25,125.56 140.16,120.49 C146.48,115.85 143.97,118.23 151.31,112.03 C151.53,111.83 156.24,108.03 156.24,108.03 L156.1,107.74 L155,105.67 C155,105.67 148.29,93.77 146.45,90.38 C144.61,86.99 139.14,74.38 139.14,74.38 C139.14,74.38 133.09,59.67 125.14,56.5 C120.291681,54.5764647 115.143879,53.5171208 109.93,53.37 C109.93,53.37 102.09,66.18 90.93,61.28 C90.93,61.28 82.03,62.36 77.14,72.54 C73.5,80.11 82.06,97.64 82.06,97.64"/>
    <path fill="#CD865F" fill-rule="nonzero" d="M8,94.68 L8.32,94.61 L8,94.68 Z"/>
    <path stroke="#424242" stroke-linecap="round" stroke-linejoin="round" stroke-width=".62" d="M84.2 102.88C84.2 102.88 90.33 119.41 103.07 142.41M86.59 109.21L78.78 117.43C78.78 117.43 72.78 114.25 65.78 106.43 58.58 98.31 57.52 93.35 57.52 93.35 57.52 93.35 68 75.88 77 68.7 86 61.52 89.87 61.17 89.87 61.17"/>
    <path stroke="#424242" stroke-linecap="round" stroke-linejoin="round" stroke-width=".62" d="M57.57 93.34C57.57 93.34 51.72 102.34 48.96 104.2 46.2 106.06 37.1 99 29.48 94.34 21.35 89.43 12.81 87.34 9.48 87.51 6.42330906 87.9061906 3.42933821 88.6891258.57 89.84.57 89.84-.14 92.68 8.4 91M73.44 113.77C70.1847054 117.537039 66.2581314 120.666769 61.86 123 55.23 126.26 48.86 123.93 44.54 120.78 40.22 117.63 16.87 99.86 15.68 99.78 14.49 99.7 7.33 100.45 6.87 100.91 6.41 101.37 1.48 104.68.87 104.08-.04 103.16 4.76 99.43 4.76 99.43"/>
    <path stroke="#424242" stroke-linecap="round" stroke-linejoin="round" stroke-width=".62" d="M3,91.6 C3,91.6 1.24,94.06 2.8,94.9 C4.36,95.74 11.25,93.9 10.98,92.9 C10.71,91.9 5.29,92.49 5.29,92.49 L6.29,91.4"/>
    <path stroke="#424242" stroke-linecap="round" stroke-linejoin="round" stroke-width=".62" d="M2.78,94.9 C2.57473395,95.2439626 2.53675591,95.662524 2.67676072,96.0378147 C2.81676554,96.4131053 3.11960584,96.704522 3.5,96.83 C4.96,97.48 11.76,96.89 12.04,96.06 C12.32,95.23 7.09,94.84 7.09,94.84"/>
    <path stroke="#424242" stroke-linecap="round" stroke-linejoin="round" stroke-width=".62" d="M3.5,96.83 C3.5,96.83 3.21,99.03 4.77,99.41 C6.33,99.79 10.55,99.54 11.01,98.62 C11.47,97.7 6.5,97.11 6.5,97.11"/>
    <path fill="#424242" fill-rule="nonzero" stroke="#424242" stroke-linecap="round" stroke-linejoin="round" stroke-width=".62" d="M58 95.25C56.7084482 96.9437611 55.7513883 98.8680623 55.18 100.92 54.64 103.64 58.56 109.45 55.25 111.63 52.25 113.63 49.96 111.26 47.95 107.75 45.94 104.24 43.58 103.12 43.58 103.12 43.58 103.12 46.37 104.96 48.35 104.68 50.33 104.4 53.98 98.68 53.98 98.68L57.41 94.02 58 95.25zM84.2 102.88C84.2 102.88 83.49 101.15 81.94 97.54 80.04 93.1 74.07 95.13 76.08 100.62 78.09 106.11 79.3 108.2 79.33 111.33 79.33 117.17 75.71 115.44 75.71 115.44L78.78 117.44C78.78 117.44 85.78 109.44 85.98 109.37 86.18 109.3 84.2 102.88 84.2 102.88zM69.65 110.41C71.5082089 112.444075 71.4820362 115.567352 69.59 117.57L73.44 113.77 69.65 110.41z"/>
    <rect width="21.39" height="18.46" x="111.555" y="100.12" fill="#FDFEFF" fill-rule="nonzero" stroke="#424242" stroke-linecap="round" stroke-linejoin="round" stroke-width=".67" rx="2.16" transform="rotate(13.72 122.25 109.35)"/>
    <path stroke="#424242" stroke-linecap="round" stroke-linejoin="round" stroke-width=".88" d="M137.57,93.41 L147.41,94.83 C147.41,94.83 153.34,89.35 155.5,77.53 C157.66,65.71 154.13,61.34 154.13,61.34 C147.471824,59.1798505 140.629974,57.6334048 133.69,56.72 C127.27,55.83 124.69,55.06 121.06,54.55"/>
    <path stroke="#424242" stroke-linecap="round" stroke-linejoin="round" stroke-width=".88" d="M154.13,61.34 C154.13,61.34 173.67,66.77 179.26,70.96 C186.06,76.05 187.68,85.39 180.5,94.49 C175.06,101.38 142.57,114.38 142.57,114.38 L136.75,116.52 C136.75,116.52 133.27,121.16 132.22,120.52 C131.17,119.88 136.81,113.43 136.81,113.43 C136.81,113.43 131.1,117.68 130.17,118.3 C129.24,118.92 128.05,119.37 127.89,118.22 L134.37,111.02"/>
    <path stroke="#424242" stroke-linecap="round" stroke-linejoin="round" stroke-width=".88" d="M127.89,118.26 C127.89,118.26 126.71,119.5 125.96,118.94 C125.21,118.38 132.28,108.45 132.28,108.45"/>
    <path stroke="#424242" stroke-linecap="round" stroke-linejoin="round" stroke-width=".88" d="M131.45,109.49 C131.45,109.49 124.45,113.36 123.85,112.21 C123.48,111.51 130.46,106.51 132.57,105.89 C134.68,105.27 137,105.74 139.26,105.48 C141.52,105.22 147.77,101.77 155.34,95.83 C161.96,90.63 163.65,88.48 162.5,87 C161.59,85.81 153.64,84.93 153.64,84.93"/>
    <path fill="#424242" fill-rule="nonzero" stroke="#424242" stroke-linecap="round" stroke-linejoin="round" stroke-width=".66" d="M161.31,86.36 C161.31,86.36 169,88 170.66,90.14 C171.83,91.68 169.66,93.14 167.12,93.08 C164.58,93.02 160.12,91.87 156.03,95.33 C156.03,95.33 161.03,91.33 161.66,90.57 C162.439465,89.8763247 162.922739,88.9097768 163.01,87.87 C163.11,86.53 161.31,86.36 161.31,86.36 Z"/>
    <path stroke="#374550" stroke-linecap="round" stroke-linejoin="round" stroke-width=".91" d="M156,107.87 C156,107.87 141.26,121.76 110.95,137.87"/>
    <path stroke="#424242" stroke-linecap="round" stroke-linejoin="round" stroke-width=".97" d="M102.22,49.4 C102.22,49.4 105.94,49.34 106.45,46.47 C106.96,43.6 106.34,41.24 103.86,40.92 C101.38,40.6 100.53,43.42 100.53,43.42"/>
    <path fill="#131735" fill-rule="nonzero" d="M100.72,43.09 C100.586916,43.4749769 100.248551,43.7523283 99.8449425,43.8072698 C99.4413336,43.8622113 99.0411457,43.6853958 98.81,43.35 L98.81,43.35 C97.81,41.88 99.55,35.91 97.4,33.48 C95.25,31.05 89.73,32.48 86.24,31.28 C82.75,30.08 80.15,26.43 81.84,22.28 C83.53,18.13 89.34,17.88 93.09,22.62 C93.09,22.62 99.38,18.33 106.64,24.08 C111.2,27.69 110.64,35.72 104.96,40.98 C104.96,40.98 103.21,40.32 102.34,40.98 C101.608473,41.5130608 101.046038,42.2456159 100.72,43.09 L100.72,43.09 Z"/>
    <path stroke="#424242" stroke-linecap="round" stroke-linejoin="round" stroke-width=".97" d="M85.25,30 C85.25,30 80.14,38.5 80.81,46.69 C81.48,54.88 88,57.63 93.52,55"/>
    <circle cx="81.443" cy="38.94" r="4.99" stroke="#424242" stroke-linecap="round" stroke-linejoin="round" stroke-width=".97" transform="rotate(-13.28 81.443 38.94)"/>
    <circle cx="91.43" cy="41.37" r="4.99" stroke="#424242" stroke-linecap="round" stroke-linejoin="round" stroke-width=".97"/>
    <path fill="#424242" fill-rule="nonzero" d="M94.93 35C94.9416496 35.4766599 94.6151526 35.8952458 94.15 36 93.3941042 36.0772993 92.6385189 35.8506236 92.05 35.37 91.56 35.07 91.11 34.66 91.32 34.03 91.4403505 33.5879711 91.8646801 33.2994269 92.32 33.35 93 33.36 94.78 34.16 94.93 35zM85 32C85.31 32.13 85.66 32.35 85.68 32.69 85.6865907 32.8988525 85.5891981 33.0973835 85.42 33.22 85.2491363 33.341508 85.0551224 33.4266018 84.85 33.47 84.409502 33.5749826 83.950498 33.5749826 83.51 33.47 83.195973 33.3830434 82.8985861 33.2444882 82.63 33.06 82.1 32.71 81.45 31.85 82.34 31.51 83.2564125 31.3770646 84.1911093 31.5492456 85 32z"/>
    <line x1="95.74" x2="101.46" y1="38.83" y2="41.37" stroke="#424242" stroke-linecap="round" stroke-linejoin="round" stroke-width=".73"/>
    <path stroke="#273139" stroke-linecap="round" stroke-linejoin="round" stroke-width=".82" d="M88.83,16.89 C91.56,18 92.59,20.75 93.11,23.65"/>
    <path fill="#FFCF00" fill-rule="nonzero" d="M111,111.11 C111,111.11 113.79,113.3 115.84,110.81 C117.89,108.32 117.3,106.27 119.36,105.98 C121.42,105.69 123.02,107.98 126.24,105.69 C127.785244,104.68215 129.167796,103.444597 130.34,102.02 L116.19,98.36 C115.617673,98.1548736 114.983114,98.2212185 114.465593,98.5402915 C113.948072,98.8593644 113.603787,99.3965177 113.53,100 C112.87,102.17 111,111.11 111,111.11 Z"/>
    <g transform="translate(18.96 33.53)">
      <rect width="43.95" height="26.75" fill="#FFF" fill-rule="nonzero" stroke="#647A8E" stroke-linecap="round" stroke-linejoin="bevel" stroke-width=".9" rx="4.63"/>
      <path fill="#647A8E" fill-rule="nonzero" d="M11.24,41.77 C11.1436791,41.9575292 11.0070856,42.1214414 10.84,42.25 C10.6212392,42.4233978 10.3576286,42.5309232 10.08,42.56 C9.79129288,42.5953829 9.49861741,42.5431195 9.24,42.41 L7.98,41.78 C7.51427394,41.5324283 7.07529028,41.2375386 6.67,40.9 C6.2820136,40.5720528 5.92699407,40.2069856 5.61,39.81 C5.09912806,39.1570579 4.70035883,38.423728 4.43,37.64 C4.14483874,36.821026 3.97651692,35.9659512 3.93,35.1 C3.88215118,34.1761284 3.94256188,33.2498311 4.11,32.34 C4.2877996,31.3574685 4.56592203,30.3957681 4.94,29.47 C5.13,28.91 5.36,28.3 5.64,27.63 C5.92,26.96 6.17,26.39 6.52,25.63 C6.87,24.87 7.28,24.04 7.76,23.16 C8.24,22.28 8.66,21.53 9.05,20.92 C9.44,20.31 9.77,19.82 10.05,19.44 C10.3194574,19.058022 10.6134078,18.6939243 10.93,18.35 C11.3372553,17.7635876 11.7921269,17.2117214 12.29,16.7 C12.76328,16.1977906 13.2748153,15.7330624 13.82,15.31 C14.5068076,14.7722799 15.2514033,14.3127772 16.04,13.94 C16.7738245,13.5854105 17.5501867,13.3266231 18.35,13.17 C19.1285245,13.0267405 19.9243532,13.0031354 20.71,13.1 C21.517563,13.2087381 22.2995742,13.4592525 23.02,13.84 L24.25,14.48 C24.4338281,14.5732659 24.5944272,14.706529 24.72,14.87 C24.8984671,15.0848714 25.0035818,15.3511619 25.02,15.63 C25.0483252,15.9142762 24.9890039,16.200414 24.85,16.45 L22.02,21.76 C21.9233706,21.9415957 21.7906565,22.1015332 21.63,22.23 C21.4043619,22.4080658 21.1349219,22.5220597 20.85,22.56 C20.5603068,22.5916957 20.2677566,22.5359718 20.01,22.4 L17.57,21.15 C17.2650198,20.9828628 16.915027,20.9163642 16.57,20.96 C16.2383835,21.0039045 15.9243604,21.135035 15.66,21.34 C15.4666663,21.4952948 15.3038991,21.6851899 15.18,21.9 L10.36,30.9 C10.1920763,31.2050195 10.1189588,31.5531979 10.15,31.9 C10.1878305,32.2223688 10.3161049,32.5274539 10.52,32.78 C10.6684722,32.9681678 10.8561579,33.1217288 11.07,33.23 L13.48,34.47 C13.6619148,34.5661529 13.8219426,34.698942 13.95,34.86 C14.1230822,35.0771636 14.2244195,35.3427371 14.24,35.62 C14.2629172,35.9172044 14.1930367,36.2141965 14.04,36.47 L11.24,41.77 Z"/>
      <line x1="7.92" x2="33.41" y1="4.88" y2="4.88" stroke="#424242" stroke-linecap="round" stroke-linejoin="round" stroke-width=".95"/>
      <line x1="7.77" x2="26.96" y1="9.43" y2="9.43" stroke="#424242" stroke-linecap="round" stroke-linejoin="round" stroke-width=".99"/>
    </g>
    <path stroke="#374550" stroke-linecap="round" stroke-linejoin="round" stroke-width=".84" d="M110.38 148.17C110.38 148.17 121.38 144.22 137.19 132.79M31.86 118C31.86 118 44.35 132.1 55.86 129.72"/>
    <path fill="#F2797B" fill-rule="nonzero" d="M128.89,39.63 C126.57925,37.0577588 125.848563,33.4331364 126.982261,30.1665295 C128.115958,26.8999226 130.934987,24.5072527 134.342418,23.9195447 C137.74985,23.3318367 141.207522,24.641912 143.37,27.34 L128.89,39.63 Z"/>
    <line x1="23.79" x2="26.04" y1="131.39" y2="137.28" stroke="#F2797B" stroke-width="1.89"/>
    <line x1="28.12" x2="30.36" y1="142.75" y2="148.64" stroke="#F2797B" stroke-width="1.89"/>
    <line x1="35.5" x2="29.61" y1="136.47" y2="138.72" stroke="#F2797B" stroke-width="1.89"/>
    <line x1="24.14" x2="18.25" y1="140.8" y2="143.04" stroke="#F2797B" stroke-width="1.89"/>
    <circle cx="15.76" cy="17.47" r="4.56" fill="#F8AB59" fill-rule="nonzero"/>
  </g>
</svg>
