<svg width="42" height="39" viewBox="0 0 42 39" fill="none" xmlns="http://www.w3.org/2000/svg">
<path d="M33.9619 19.8282C33.9082 19.7187 33.8803 19.5983 33.8803 19.4763C33.8803 19.3543 33.9082 19.2339 33.9619 19.1243L34.9777 17.0368C35.2426 16.4815 35.284 15.8456 35.0935 15.2607C34.903 14.6757 34.495 14.1862 33.9539 13.8934L31.9143 12.8056C31.8045 12.7505 31.7108 12.6678 31.6424 12.5657C31.5702 12.4687 31.521 12.3565 31.4984 12.2377L31.0985 9.9502C30.9869 9.34571 30.6476 8.80709 30.1505 8.44544C29.6534 8.0838 29.0365 7.92672 28.427 8.0066L26.1315 8.33453C26.0127 8.35866 25.8903 8.35866 25.7716 8.33453C25.6541 8.29553 25.5474 8.22982 25.4596 8.14257L23.796 6.54289C23.3501 6.11982 22.7589 5.88397 22.1443 5.88397C21.5297 5.88397 20.9385 6.11982 20.4926 6.54289L18.829 8.14257C18.7412 8.22982 18.6345 8.29553 18.517 8.33453C18.3983 8.35888 18.2758 8.35888 18.1571 8.33453L15.8616 8.0066C15.2521 7.92672 14.6352 8.0838 14.1381 8.44544C13.641 8.80709 13.3017 9.34571 13.1901 9.9502L12.7902 12.2377C12.7736 12.3569 12.7268 12.4698 12.6542 12.5657C12.5828 12.6681 12.4864 12.7507 12.3743 12.8056L10.3347 13.8934C9.7936 14.1862 9.38565 14.6757 9.19511 15.2607C9.00458 15.8456 9.04603 16.4815 9.3109 17.0368L10.3267 19.1243C10.3848 19.2326 10.4152 19.3535 10.4152 19.4763C10.4152 19.5991 10.3848 19.72 10.3267 19.8282L9.3109 21.9158C9.04603 22.4711 9.00458 23.1069 9.19511 23.6919C9.38565 24.2769 9.7936 24.7663 10.3347 25.0591L12.3743 26.1469C12.4864 26.2019 12.5828 26.2844 12.6542 26.3869C12.7268 26.4828 12.7736 26.5957 12.7902 26.7148L13.1901 29.0023C13.3017 29.6068 13.641 30.1455 14.1381 30.5071C14.6352 30.8688 15.2521 31.0258 15.8616 30.946L18.1571 30.618C18.2755 30.5907 18.3986 30.5907 18.517 30.618C18.6345 30.657 18.7412 30.7227 18.829 30.81L20.4926 32.4097C20.9385 32.8327 21.5297 33.0686 22.1443 33.0686C22.7589 33.0686 23.3501 32.8327 23.796 32.4097L25.4596 30.81C25.5469 30.7236 25.6529 30.6584 25.7694 30.6196C25.8859 30.5808 26.0098 30.5693 26.1315 30.586L28.427 30.914C29.0365 30.9938 29.6534 30.8368 30.1505 30.4751C30.6476 30.1135 30.9869 29.5749 31.0985 28.9704L31.4984 26.6828C31.5228 26.5621 31.5718 26.4478 31.6424 26.3469C31.7144 26.25 31.8073 26.1707 31.9143 26.1149L33.9539 25.0272C34.497 24.7343 34.9064 24.2434 35.0971 23.6566C35.2877 23.0697 35.245 22.4319 34.9777 21.8758L33.9619 19.8282Z" fill="#FDDBB5" stroke="#131735" stroke-linecap="round" stroke-linejoin="round"/>
<path d="M25.963 13.3095L17.5327 25.947" stroke="#131735" stroke-linecap="round" stroke-linejoin="round"/>
<path d="M19.4763 17.6446C20.6071 17.6446 21.5239 16.7279 21.5239 15.5971C21.5239 14.4662 20.6071 13.5495 19.4763 13.5495C18.3454 13.5495 17.4287 14.4662 17.4287 15.5971C17.4287 16.7279 18.3454 17.6446 19.4763 17.6446Z" stroke="#131735" stroke-linecap="round" stroke-linejoin="round"/>
<path d="M24.0354 25.9469C25.1662 25.9469 26.083 25.0302 26.083 23.8994C26.083 22.7685 25.1662 21.8518 24.0354 21.8518C22.9045 21.8518 21.9878 22.7685 21.9878 23.8994C21.9878 25.0302 22.9045 25.9469 24.0354 25.9469Z" stroke="#131735" stroke-linecap="round" stroke-linejoin="round"/>
<path d="M6.19109 6.75084C7.34403 6.75084 8.27867 5.8162 8.27867 4.66326C8.27867 3.51032 7.34403 2.57568 6.19109 2.57568C5.03816 2.57568 4.10352 3.51032 4.10352 4.66326C4.10352 5.8162 5.03816 6.75084 6.19109 6.75084Z" fill="#009874" stroke="#131735" stroke-width="0.75" stroke-linecap="round" stroke-linejoin="round"/>
<path d="M37.7446 36.1529C39.5425 36.1529 40.9999 34.6954 40.9999 32.8976C40.9999 31.0997 39.5425 29.6422 37.7446 29.6422C35.9467 29.6422 34.4893 31.0997 34.4893 32.8976C34.4893 34.6954 35.9467 36.1529 37.7446 36.1529Z" fill="#E8677D" stroke="#131735" stroke-width="0.75" stroke-linecap="round" stroke-linejoin="round"/>
<path d="M35.0333 11.134L35.9451 11.19L36.6409 11.7659C36.7007 11.8224 36.7753 11.8607 36.8561 11.8763C36.9368 11.8919 37.0204 11.8841 37.0969 11.8538V11.8538C37.1701 11.819 37.2313 11.7631 37.2726 11.6933C37.3139 11.6234 37.3335 11.5429 37.3288 11.4619L37.3768 10.5501L37.9527 9.85424C38.0115 9.79592 38.0519 9.72167 38.0689 9.64065C38.086 9.55964 38.0789 9.47539 38.0487 9.39833C38.0124 9.32444 37.9551 9.26296 37.8839 9.22167C37.8127 9.18038 37.7309 9.16114 37.6487 9.16638L36.7849 9.11839L36.0891 8.5425C36.0307 8.48373 35.9565 8.44333 35.8755 8.42627C35.7945 8.40921 35.7102 8.41625 35.6332 8.44653V8.44653C35.5584 8.48242 35.4959 8.53944 35.4532 8.61052C35.4106 8.6816 35.3897 8.76362 35.3932 8.84644L35.3452 9.75026L34.7773 10.4461C34.7197 10.5052 34.6795 10.579 34.6611 10.6594C34.6428 10.7399 34.647 10.8238 34.6733 10.902C34.7096 10.9759 34.7669 11.0374 34.8381 11.0787C34.9093 11.12 34.9911 11.1392 35.0733 11.134H35.0333Z" stroke="#131735" stroke-width="0.75" stroke-linecap="round" stroke-linejoin="round"/>
<path d="M8.66259 36.6248C8.91439 36.8754 9.25517 37.016 9.6104 37.016C9.96563 37.016 10.3064 36.8754 10.5582 36.6248C10.8561 36.3251 11.0234 35.9197 11.0234 35.497C11.0234 35.0744 10.8561 34.669 10.5582 34.3693C10.3804 34.1893 10.1687 34.0465 9.93527 33.949C9.70186 33.8515 9.45143 33.8013 9.19848 33.8013C8.94553 33.8013 8.6951 33.8515 8.46169 33.949C8.22829 34.0465 8.01655 34.1893 7.83876 34.3693C7.40357 34.8056 7.15918 35.3967 7.15918 36.0129C7.15918 36.6292 7.40357 37.2203 7.83876 37.6566C8.37159 38.1822 9.08992 38.4769 9.83835 38.4769C10.5868 38.4769 11.3051 38.1822 11.8379 37.6566C12.3048 37.1863 12.628 36.5927 12.7696 35.9453C12.9113 35.298 12.8655 34.6237 12.6378 34.0013" stroke="#131735" stroke-width="0.75" stroke-linecap="round" stroke-linejoin="round"/>
<path d="M1.03223 24.7232L1.89605 23.8514" stroke="#131735" stroke-width="0.96" stroke-linecap="round" stroke-linejoin="round"/>
<path d="M3.70361 22.0518L4.60743 21.1479" stroke="#131735" stroke-width="0.96" stroke-linecap="round" stroke-linejoin="round"/>
<path d="M1 21.1479L1.95181 22.0998" stroke="#131735" stroke-width="0.96" stroke-linecap="round" stroke-linejoin="round"/>
<path d="M3.65576 23.8034L4.57557 24.7232" stroke="#131735" stroke-width="0.96" stroke-linecap="round" stroke-linejoin="round"/>
<path d="M14.7091 3.78344C15.4777 3.78344 16.1008 3.16034 16.1008 2.39172C16.1008 1.62309 15.4777 1 14.7091 1C13.9405 1 13.3174 1.62309 13.3174 2.39172C13.3174 3.16034 13.9405 3.78344 14.7091 3.78344Z" stroke="#131735" stroke-width="0.75" stroke-linecap="round" stroke-linejoin="round"/>
</svg>
