<?xml version="1.0" encoding="UTF-8"?>
<svg width="14px" height="14px" viewBox="0 0 14 14" version="1.1" xmlns="http://www.w3.org/2000/svg" xmlns:xlink="http://www.w3.org/1999/xlink">
    <!-- Generator: Sketch 55.2 (78181) - https://sketchapp.com -->
    <title>success</title>
    <desc>Created with Sketch.</desc>
    <g id="Page-1" stroke="none" stroke-width="1" fill="none" fill-rule="evenodd">
        <path d="M2.04518455,11.9548154 C-0.681728183,9.22790272 -0.681728183,4.77209728 2.04518455,2.04518455 C4.77209728,-0.681728183 9.22790272,-0.681728183 11.9548154,2.04518455 C14.6817282,4.77209728 14.6817282,9.22790272 11.9548154,11.9548154 C9.22790272,14.6817282 4.77209728,14.6817282 2.04518455,11.9548154 Z M2.81736358,11.1826364 C5.11781361,13.4830864 8.88218639,13.4830864 11.1826364,11.1826364 C13.4830864,8.88218639 13.4830864,5.11781361 11.1826364,2.81736358 C8.88218639,0.516913551 5.11781361,0.516913551 2.81736358,2.81736358 C0.516913551,5.11781361 0.516913551,8.88218639 2.81736358,11.1826364 Z M4.18435704,6.92849572 L5.9208581,8.66499679 L10.0013067,4.56501808 C10.2223858,4.34288084 10.5816836,4.34202305 10.8038208,4.56310214 C11.0259581,4.78418123 11.0268159,5.14347906 10.8057368,5.3656163 L6.32403227,9.86877146 C6.10257987,10.0912838 5.742542,10.0917136 5.520559,9.86973058 L3.38184059,7.73101217 C3.16023179,7.50940337 3.16023179,7.15010452 3.38184059,6.92849572 C3.60344939,6.70688693 3.96274824,6.70688693 4.18435704,6.92849572 Z" id="success" fill="#007958"></path>
    </g>
</svg>