<svg id="Layer_2" data-name="Layer 2" xmlns="http://www.w3.org/2000/svg" viewBox="0 0 16 16"><title>multilingual</title><path d="M15.93,15l-4.3-8.59A.7.7,0,0,0,11,6a.68.68,0,0,0-.62.39L9,9.15A9.16,9.16,0,0,1,6.46,7.82,10.42,10.42,0,0,0,9.31,2.73h.74a.7.7,0,0,0,0-1.4h-4V.7A.71.71,0,0,0,4.67.7v.63H.7a.7.7,0,0,0,0,1.4H7.86A9.07,9.07,0,0,1,5.37,6.9a9.63,9.63,0,0,1-2.08-3A.7.7,0,0,0,2,4.5,11,11,0,0,0,4.3,7.82,9.2,9.2,0,0,1,1.49,9.25a.7.7,0,0,0,.2,1.37l.2,0a10.68,10.68,0,0,0,3.5-1.81,10.91,10.91,0,0,0,3,1.63L6.07,15a.7.7,0,0,0,.32.94A.68.68,0,0,0,6.7,16a.7.7,0,0,0,.63-.39l1.56-3.12h4.23l1.55,3.12A.7.7,0,0,0,15.93,15ZM9.59,11.09,11,8.27l1.42,2.82Z"/></svg>