<svg id="Layer_2" data-name="Layer 2" xmlns="http://www.w3.org/2000/svg" viewBox="0 0 16 16"><title>hidden</title><path d="M.08,8.32a.66.66,0,0,1,0-.64A8.89,8.89,0,0,1,8,2.85a9,9,0,0,1,1.94.24L8.72,4.3c-.24,0-.48,0-.72,0A7.51,7.51,0,0,0,1.5,8,7.48,7.48,0,0,0,3.11,9.92l-1,1A8.81,8.81,0,0,1,.08,8.32Zm15.84-.64a.66.66,0,0,1,0,.64A8.89,8.89,0,0,1,8,13.15a8.69,8.69,0,0,1-3.44-.72L1.2,15.79A.7.7,0,0,1,.7,16a.67.67,0,0,1-.49-.21.69.69,0,0,1,0-1l3-3h0l1-1h0L5.6,9.41h0L6.65,8.36h0L8.36,6.65h0L9.41,5.6h0l.95-.95h0l1.09-1.1h0L14.8.21a.69.69,0,0,1,1,0,.69.69,0,0,1,0,1l-3,3A8.9,8.9,0,0,1,15.92,7.68Zm-6.58,0L7.65,9.34A1.35,1.35,0,0,0,8,9.4,1.4,1.4,0,0,0,9.4,8,1.35,1.35,0,0,0,9.34,7.65ZM14.5,8a7.43,7.43,0,0,0-2.78-2.73L10.41,6.58A2.75,2.75,0,0,1,10.8,8,2.81,2.81,0,0,1,8,10.8a2.75,2.75,0,0,1-1.42-.39l-.94.94a7.45,7.45,0,0,0,2.36.4A7.51,7.51,0,0,0,14.5,8ZM7.81,5.22A2.79,2.79,0,0,0,5.22,7.81Z"/></svg>