<svg id="Layer_2" data-name="Layer 2" xmlns="http://www.w3.org/2000/svg" viewBox="0 0 16 16"><title>open-new-tab</title><path d="M15.5,8.55V13A2.54,2.54,0,0,1,13,15.5H3A2.54,2.54,0,0,1,.5,13V3A2.54,2.54,0,0,1,3,.5H7.45a.7.7,0,1,1,0,1.4H3A1.14,1.14,0,0,0,1.9,3V13A1.14,1.14,0,0,0,3,14.1H13A1.14,1.14,0,0,0,14.1,13V8.55a.7.7,0,0,1,1.4,0ZM15.45.93a.71.71,0,0,0-.38-.38A.86.86,0,0,0,14.8.5H11.12a.7.7,0,0,0,0,1.4h2L4.38,10.63a.71.71,0,0,0,0,1,.71.71,0,0,0,1,0L14.1,2.89v2a.7.7,0,1,0,1.4,0V1.2A.86.86,0,0,0,15.45.93Z"/></svg>