<svg xmlns="http://www.w3.org/2000/svg" xmlns:xlink="http://www.w3.org/1999/xlink" height="46" width="46" xmlns:v="https://vecta.io/nano"><defs><filter id="A" height="200%" width="200%" x="-50%" y="-50%"><feOffset dy="1" in="SourceAlpha"/><feGaussianBlur stdDeviation=".5"/><feColorMatrix result="C" values="0 0 0 0 0 0 0 0 0 0 0 0 0 0 0 0 0 0 0.168 0"/><feOffset in="SourceAlpha"/><feGaussianBlur stdDeviation=".5"/><feColorMatrix result="F" values="0 0 0 0 0 0 0 0 0 0 0 0 0 0 0 0 0 0 0.084 0"/><feMerge><feMergeNode in="C"/><feMergeNode in="F"/><feMergeNode in="SourceGraphic"/></feMerge></filter><rect id="B" height="40" rx="2" width="40"/></defs><g fill="none" fill-rule="evenodd" transform="translate(-1 -1)"><g filter="url(#A)" transform="translate(4 4)"><use fill="#fff" xlink:href="#B"/><use xlink:href="#B"/><use xlink:href="#B"/><use xlink:href="#B"/></g><path d="M32.64 24.205a10.34 10.34 0 0 0-.164-1.841H24v3.48h4.844a4.14 4.14 0 0 1-1.796 2.716v2.258h2.91c1.702-1.567 2.684-3.874 2.684-6.615z" fill="#4285f4"/><path d="M24 33c2.43 0 4.467-.806 5.956-2.18l-2.91-2.258c-.806.54-1.837.86-3.048.86-2.344 0-4.328-1.583-5.036-3.7h-3.007v2.332C17.438 30.983 20.482 33 24 33z" fill="#34a853"/><path d="M18.964 25.7a5.41 5.41 0 0 1-.282-1.71 5.41 5.41 0 0 1 .282-1.71v-2.332h-3.007c-.6 1.215-.957 2.6-.957 4.042s.348 2.827.957 4.042z" fill="#fbbc05"/><path d="M24 18.58c1.32 0 2.508.454 3.44 1.346l2.58-2.58C28.463 15.892 26.426 15 24 15c-3.518 0-6.562 2.017-8.043 4.958l3.007 2.332c.708-2.127 2.692-3.7 5.036-3.7z" fill="#ea4335"/></g></svg>