<?xml version="1.0" encoding="UTF-8"?>
<svg width="1295px" height="273px" viewBox="0 0 1295 273" version="1.1" xmlns="http://www.w3.org/2000/svg" xmlns:xlink="http://www.w3.org/1999/xlink">
    <!-- Generator: Sketch 53 (72520) - https://sketchapp.com -->
    <title>Group 3</title>
    <desc>Created with Sketch.</desc>
    <defs>
        <linearGradient x1="50.0175487%" y1="100%" x2="50.0175487%" y2="0.0625978091%" id="linearGradient-1">
            <stop stop-color="#808080" stop-opacity="0.25" offset="0%"></stop>
            <stop stop-color="#808080" stop-opacity="0.12" offset="54%"></stop>
            <stop stop-color="#808080" stop-opacity="0.1" offset="100%"></stop>
        </linearGradient>
        <linearGradient x1="50.00553%" y1="99.999296%" x2="50.00553%" y2="-0.00533520373%" id="linearGradient-2">
            <stop stop-color="#808080" stop-opacity="0.25" offset="0%"></stop>
            <stop stop-color="#808080" stop-opacity="0.12" offset="54%"></stop>
            <stop stop-color="#808080" stop-opacity="0.1" offset="100%"></stop>
        </linearGradient>
    </defs>
    <g id="Page-1" stroke="none" stroke-width="1" fill="none" fill-rule="evenodd">
        <g id="Unsubscribed" transform="translate(-49.000000, -675.000000)">
            <g id="Group-3" transform="translate(49.000000, 615.000000)">
                <g id="Group-2" transform="translate(902.000000, 0.000000)">
                    <g id="Group-6-Copy" transform="translate(118.000000, 299.000000) scale(-1, 1) translate(-118.000000, -299.000000) translate(98.000000, 288.000000)">
                        <path d="M5.32873563,5.50488889 C5.32873563,5.50488889 14.5563218,5.20177778 17.337931,3.09466667 C20.1195402,0.987555556 31.5402299,-1.52533333 32.2298851,1.85288889 C32.9195402,5.23111111 46.1011494,18.656 35.6781609,18.744 C25.2551724,18.832 11.4666667,17.0182222 8.68965517,15.2191111 C5.91264368,13.42 5.32873563,5.50488889 5.32873563,5.50488889 Z" id="Path" fill="#5F5D7E"></path>
                        <path d="M35.8666667,17.5657778 C25.4436782,17.6586667 11.6505747,15.84 8.87356322,14.0408889 C6.75862069,12.672 5.91724138,7.75866667 5.65517241,5.49022222 L5.34712644,5.49022222 C5.34712644,5.49022222 5.93103448,13.4053333 8.70804598,15.2044444 C11.4850575,17.0035556 25.2597701,18.8173333 35.6965517,18.7293333 C38.708046,18.7293333 39.7471264,17.5657778 39.6873563,15.8791111 C39.2505747,16.9106667 38.1057471,17.5266667 35.8666667,17.5657778 Z" id="Path" fill="#000000" opacity="0.2"></path>
                        <ellipse id="Oval" fill="#12344D" opacity="0.1" cx="16.1931034" cy="19.0177778" rx="16.183908" ry="2.90888889"></ellipse>
                    </g>
                    <ellipse id="Oval" fill="#12344D" opacity="0.1" cx="344" cy="308" rx="46" ry="8"></ellipse>
                    <ellipse id="Oval" fill="#12344D" opacity="0.1" cx="204.5" cy="300" rx="68.5" ry="5"></ellipse>
                    <path d="M115,85 L112,85" id="Path" fill="#12344D"></path>
                    <g id="Group" opacity="0.1" transform="translate(145.000000, 61.000000)" fill="#000000">
                        <path d="M64.6424765,205.765032 C66.1231034,208.298588 68.4442947,209.932013 71.0585266,209.932013 C75.5235423,209.932013 79.1557053,205.171412 79.1557053,199.293409 C79.1557053,193.415406 75.5119749,188.693604 71.0585266,188.693604 C68.957116,188.693604 67.0407837,189.748929 65.6025705,191.483231 C65.0571761,192.146715 64.5948717,192.875123 64.2260502,193.652078 L64.1489342,194.113782 C64.1489342,194.113782 62.4253918,195.595893 60.07721,194.234058 L60.07721,159.773052 L26.6397179,159.773052 C26.0904501,159.049065 25.938421,158.09623 26.2348589,157.235617 C26.4846112,156.447912 27.0238871,155.785916 27.7424765,155.384919 C30.2603135,153.895049 31.8874608,151.559367 31.8874608,148.928815 C31.8874608,144.435925 27.1525392,140.781088 21.3148589,140.781088 C15.4771787,140.781088 10.7422571,144.424286 10.7422571,148.928815 C10.7422571,151.043344 11.7948903,152.975519 13.5184326,154.422711 C14.1771716,154.969381 14.8996787,155.433213 15.6699687,155.803945 L15.7162382,155.881542 C16.7542713,156.892244 17.0154836,158.466154 16.3601567,159.761412 L1.28012539,159.761412 L1.28012539,223.577516 C1.28012539,231.934409 8.0126961,238.70901 16.3177429,238.70901 L60.0887774,238.70901 L60.0887774,204.845503 C60.8161738,204.150683 61.8697141,203.925764 62.8148276,204.263523 C63.5922336,204.510834 64.2461495,205.04806 64.6424765,205.765032 Z" id="Path"></path>
                        <path d="M8.36708464,158.430617 L13.6032602,158.430617 C11.0237288,156.436465 9.50050756,153.358124 9.47369906,150.085016 C9.47369906,144.036299 14.7175862,139.136023 21.1837618,139.136023 C27.6499373,139.136023 32.8976803,144.036299 32.8976803,150.085016 C32.8708718,153.358124 31.3476505,156.436465 28.7681191,158.430617 L60.154326,158.430617 L60.154326,124.431315 C60.8855197,123.743793 61.9347379,123.519797 62.8803762,123.849334 C63.6652023,124.098721 64.3249418,124.641751 64.7234483,125.366364 C66.2002194,127.899919 68.5214107,129.533344 71.1394984,129.533344 C75.6045141,129.533344 79.2366771,124.772744 79.2366771,118.89862 C79.2366771,113.024497 75.6199373,108.260016 71.1394984,108.260016 C69.034232,108.260016 67.1178997,109.319221 65.6796865,111.049643 C65.1359627,111.714351 64.6737934,112.442546 64.3031661,113.21849 L64.229906,113.265049 C63.1653402,114.383329 61.4729815,114.610493 60.154326,113.81211 L60.154326,79.3588636 L27.9622571,79.3588636 C27.4129892,78.6348769 27.2609601,77.6820414 27.5573981,76.8214286 C27.8053931,76.0327642 28.3451465,75.3701819 29.0650157,74.9707305 C31.5828527,73.4847403 33.2061442,71.1451786 33.2061442,68.5146266 C33.2061442,64.021737 28.4750784,60.3668994 22.6373981,60.3668994 C16.7997179,60.3668994 12.0647962,64.0100974 12.0647962,68.5146266 C12.0647962,70.6330357 13.1174295,72.5613312 14.837116,74.0085227 C15.4977002,74.5556409 16.2213771,75.0206954 16.9925078,75.3936364 L17.0387774,75.4673539 C18.0768105,76.4780558 18.3380228,78.0519656 17.6826959,79.347224 L8.36708464,79.347224 L8.36708464,77.6012825 L15.2458307,77.6012825 C12.6715342,75.6100677 11.1501624,72.5383139 11.1201254,69.2712013 C11.1201254,63.2224838 16.3640125,58.3183279 22.8340439,58.3183279 C29.3040752,58.3183279 34.5441066,63.2224838 34.5441066,69.2712013 C34.5130029,72.5457559 32.9838514,75.6231511 30.3991223,77.6129221 L60.1273354,77.6129221 L60.1273354,43.198474 C60.8567993,42.5046185 61.9108196,42.279915 62.8572414,42.6164935 C63.6404395,42.8671006 64.2985602,43.4099342 64.6964577,44.1335227 C66.1732288,46.6670779 68.4982759,48.3005032 71.1125078,48.3005032 C75.5775235,48.3005032 79.2096865,43.5399026 79.2096865,37.6618994 C79.2096865,31.7838961 75.5929467,27.0271753 71.1125078,27.0271753 C69.0072414,27.0271753 67.0909091,28.0825 65.6526959,29.8168019 C65.1073015,30.4802866 64.6449971,31.2086941 64.2761755,31.9856494 L64.2029154,32.4473539 C64.2029154,32.4473539 62.479373,33.9294643 60.1273354,32.5676299 L60.1273354,0.469464286 L16.3755799,0.469464286 C8.07053309,0.469464286 1.33796238,7.24406469 1.33796238,15.6009578 L1.33796238,31.9817695 L1.11047022,31.9817695 C0.622814904,31.9817695 0.227492163,32.3795601 0.227492163,32.8702597 L0.227492163,40.63 C0.229604027,41.1198167 0.623692351,41.5163652 1.11047022,41.5184903 L1.33796238,41.5184903 L1.33796238,49.4411851 L1.04106583,49.4411851 C0.552782857,49.4411804 0.156354944,49.8383488 0.154231975,50.3296753 L0.154231975,65.1468994 C0.156354944,65.6382259 0.552782857,66.0353943 1.04106583,66.0353896 L1.33796238,66.0353896 L1.33796238,71.8551948 L1.09504702,71.8551948 C0.607391707,71.8551948 0.212068966,72.2529854 0.212068966,72.7436851 L0.212068966,77.5159253 L0.0192789969,77.5159253 L0.0192789969,87.5725487 C0.0182482355,87.8085074 0.110944977,88.0351015 0.276759451,88.2019511 C0.442573926,88.3688007 0.667762239,88.4620762 0.902257053,88.461039 L1.16445141,88.461039 L1.16445141,158.430617 L8.36708464,158.430617 Z" id="Path"></path>
                        <path d="M122.780219,55.4200649 C122.780224,54.9287337 122.38552,54.529831 121.897241,54.5276948 L121.365141,54.5276948 L121.365141,53.5538474 L121.075956,53.5538474 L121.075956,14.8521429 C121.076979,10.9930566 119.553927,7.29173283 116.84207,4.56294666 C114.130214,1.83416048 110.451853,0.301600369 106.616708,0.30262987 L63.2389655,0.302629352 L63.2389655,29.7896429 C65.2473465,27.1075804 68.3844063,25.5220844 71.7217241,25.5023864 C77.779185,25.5023864 82.6914734,30.7828896 82.6914734,37.2933117 C82.6914734,43.8037338 77.779185,49.084237 71.7217241,49.084237 C68.3841207,49.0657363 65.2465625,47.4799884 63.2389655,44.7969805 L63.2389655,77.5159253 L98.3267398,77.5159253 C95.750733,75.5162483 94.2309453,72.436239 94.2048903,69.1625649 C94.2048903,63.1060877 99.43721,58.1980519 105.895674,58.1980519 C108.766216,58.1819698 111.549351,59.191088 113.749937,61.0458766 C116.19681,63.013131 117.621502,65.9935567 117.621502,69.1451055 C117.621502,72.2966544 116.19681,75.2770801 113.749937,77.2443344 L113.749937,77.5042857 L121.365141,77.5042857 L121.365141,77.4771266 L122.780219,77.4771266 L122.780219,55.4200649 Z" id="Path"></path>
                        <path d="M111.13185,156.688555 L111.13185,152.808685 L111.13185,152.808685 C111.290795,152.57545 111.436271,152.333204 111.567555,152.083149 C112.083963,151.137786 112.357024,150.077404 112.36185,148.998653 C112.360652,148.279529 112.238095,147.565833 111.999404,146.888003 C111.788949,146.284227 111.497033,145.712417 111.13185,145.18862 L111.13185,145.18862 C109.354326,142.616266 105.841693,140.862565 101.793103,140.862565 C95.9515674,140.862565 91.2205016,144.505763 91.2205016,149.010292 C91.2205016,151.128701 92.2731348,153.056997 93.9928213,154.504188 C94.6534056,155.051306 95.3770824,155.516361 96.1482132,155.889302 L96.1944828,155.963019 C97.2313514,156.974337 97.4924282,158.54743 96.8384013,159.84289 L62.8225392,159.84289 L62.8225392,191.657825 C64.8027058,188.99186 67.9090459,187.412483 71.2166144,187.389968 C77.2278056,187.389968 82.0976803,192.666591 82.0976803,199.173133 C82.0976803,205.679675 77.2278056,210.960179 71.2166144,210.960179 C67.9090459,210.937663 64.8027058,209.358286 62.8225392,206.692321 L62.8225392,232.373182 L101.854796,232.373182 C106.96935,232.373198 111.119095,228.20796 111.13185,223.061494 L111.13185,159.854529 L111.13185,159.854529 L111.13185,223.018815 C111.13185,228.174375 106.978371,232.353782 101.854796,232.353782 L62.8225392,232.353782 L62.8225392,238.561575 L103.308433,238.561575 C111.613479,238.561575 118.34605,231.786974 118.34605,223.430081 L118.34605,159.854529 L118.34605,159.854529 L118.34605,158.186185 L111.13185,158.186185 L111.13185,156.688555 Z" id="Path"></path>
                    </g>
                    <path d="M162.544912,291.767756 C157.404666,291.767756 153.237674,287.584958 153.237674,282.425215 L153.237674,219 L146,219 L146,282.85623 C146,291.219903 152.754477,298 161.086546,298 L205,298 L205,291.787171 L162.544912,291.767756 Z" id="Path" fill="#3A3768"></path>
                    <path d="M207.565604,263.689613 C208.353884,263.938894 209.016012,264.484083 209.414038,265.211593 C210.902085,267.753417 213.234909,269.392173 215.862242,269.392173 C220.349634,269.392173 224,264.616036 224,258.718849 C224,252.821663 220.353509,248.068881 215.877743,248.068881 C213.765801,248.068881 211.839865,249.12765 210.394444,250.867612 C209.846316,251.533262 209.381695,252.264046 209.011025,253.043537 L208.933523,253.506748 C208.933523,253.506748 207.201343,254.993696 204.841393,253.627417 L204.841393,219.053945 L171.236328,219.053945 C170.684307,218.327596 170.531516,217.371651 170.82944,216.508229 C171.080444,215.717954 171.622422,215.053797 172.344613,214.651491 C174.875068,213.156759 176.51037,210.813455 176.51037,208.174318 C176.51037,203.666765 171.751719,200 165.884783,200 C160.017847,200 155.259197,203.655088 155.259197,208.174318 C155.259197,210.295748 156.317105,212.234229 158.049285,213.686143 C158.711325,214.234598 159.437453,214.699943 160.211604,215.071885 L160.258105,215.149736 C161.30134,216.163736 161.563862,217.742782 160.905251,219.042268 L153,219.042268 L153,282.634567 C153,287.806953 157.174293,292 162.323545,292 L204.853018,292 L204.853018,264.273493 C205.57854,263.586876 206.623699,263.361907 207.565604,263.689613 Z" id="Path" fill="#12344D"></path>
                    <rect id="Rectangle" fill="#3A3768" x="145" y="137" width="1" height="2"></rect>
                    <rect id="Rectangle" fill="#3A3768" x="147" y="137" width="6" height="2"></rect>
                    <rect id="Rectangle" fill="#3A3768" x="146" y="137" width="1" height="2"></rect>
                    <g id="Group"></g>
                    <path d="M145.773335,147.999865 L146,147.999865 L146,139 L145,139 L145.000008,147.118355 C144.99908,147.354484 145.080583,147.581084 145.226106,147.746965 C145.371628,147.912845 145.568893,148.00401 145.773335,147.999865 L145.773335,147.999865 Z" id="Path" fill="#3A3768"></path>
                    <path d="M153,139 L146.927846,139 L146.927846,147.175221 C146.927848,147.411322 146.837069,147.637698 146.675585,147.804283 C146.514101,147.970868 146.295218,148.063936 146.067344,148.062905 L146,148.062905 L146,218 L153,218 L153,139 Z" id="Path" fill="#3A3768"></path>
                    <path d="M146,148 L146.072581,147.999992 C146.318176,148.001015 146.55408,147.908593 146.728122,147.743165 C146.902164,147.577736 147.000002,147.352932 147,147.11847 L147,139 L146,139 L146,148 Z" id="Path" fill="#3A3768"></path>
                    <path d="M154.108651,209.644313 C154.108651,203.599525 159.362187,198.702433 165.840261,198.702433 C172.318335,198.702433 177.575734,203.599525 177.575734,209.644313 C177.553623,212.920755 176.027111,216.003802 173.438575,218 L204.882535,218 L204.882535,184.022789 C205.615075,183.335715 206.666223,183.111864 207.613602,183.441187 C208.399872,183.690411 209.060825,184.233089 209.460065,184.95723 C210.939554,187.489139 213.265016,189.121503 215.887922,189.121503 C220.361153,189.121503 224,184.363996 224,178.493689 C224,172.623383 220.376605,167.861998 215.887922,167.861998 C213.778781,167.861998 211.858923,168.920514 210.418063,170.649812 C209.873339,171.314088 209.410319,172.04181 209.03901,172.81725 L208.965615,172.863778 C207.89909,173.981332 206.203617,174.208349 204.882535,173.410485 L204.882535,138.979624 L172.63123,138.979624 C172.080951,138.256108 171.928642,137.303891 172.225626,136.443838 C172.474077,135.655686 173.014824,134.993534 173.736017,134.594342 C176.258487,133.109318 177.884766,130.771276 177.884766,128.142433 C177.884766,123.652463 173.144995,120 167.296572,120 C161.44815,120 156.704516,123.640831 156.704516,128.142433 C156.704516,130.259466 157.759086,132.186508 159.481937,133.63276 C160.143737,134.179522 160.868745,134.644275 161.641295,135.016973 L161.68765,135.090643 C162.727593,136.100688 162.989286,137.673575 162.332753,138.967992 L153,138.967992 L153,218 L158.245811,218 C155.657274,216.003802 154.130762,212.920755 154.108651,209.644313 L154.108651,209.644313 Z" id="Path" fill="#12344D"></path>
                    <path d="M147,132.767432 C147.000002,132.563317 146.902164,132.36761 146.728122,132.223593 C146.55408,132.079576 146.318176,131.999116 146.072581,132.000007 L146,132 L146,137 L147,137 L147,132.767432 Z" id="Path" fill="#3A3768"></path>
                    <path d="M145.96875,91 L145.795139,91 C145.584255,91 145.382008,91.0981559 145.232891,91.2728745 C145.083773,91.4475931 145,91.6845623 145,91.9316517 L145,100.068348 C145.001902,100.581959 145.356786,100.997772 145.795139,101 L146,101 L146,91.0040683 L145.96875,91 Z" id="Path" fill="#3A3768"></path>
                    <path d="M145.749186,109 C145.336691,108.999996 145.001793,109.382942 145,109.856675 L145,124.143325 C145.001793,124.617058 145.336691,125.000004 145.749186,125 L146,125 L146,109 L145.749186,109 Z" id="Path" fill="#3A3768"></path>
                    <path d="M145.98,132 L145.763333,132 C145.341756,132 145,132.343588 145,132.767426 L145,137 L146,137 L145.98,132 Z" id="Path" fill="#3A3768"></path>
                    <path d="M146.007735,75.099482 L146.007735,91.4498315 C146.482621,91.4665262 146.858896,91.8569957 146.858604,92.3327969 L146.858604,100.078107 C146.856899,100.553099 146.481742,100.942407 146.007735,100.961072 L146.007735,108.869034 L146.143101,108.869034 C146.377997,108.869034 146.603272,108.962468 146.769369,109.128783 C146.935465,109.295097 147.028777,109.520668 147.028777,109.755872 L147.028777,124.545541 C147.028777,125.035329 146.632246,125.432379 146.143101,125.432379 L146,125.432379 L146,131.241362 L146.069617,131.241362 C146.559392,131.241357 146.957031,131.637787 146.959161,132.1282 L146.959161,137 L153.23625,137 L153.23625,75.5409646 C153.23625,70.3965038 157.400066,66.2254948 162.537791,66.2233566 L175.149984,66.2233566 L175.149984,67.8421264 C175.149984,72.0791057 178.580237,75.5138561 182.811668,75.5138561 L205,75.5138561 L205,70.4484233 L194.78571,70.4484233 C193.963823,70.4442354 193.297395,69.7803828 193.288954,68.9574511 L193.288954,68.6321481 C193.29108,67.8053124 193.959957,67.1355589 194.78571,67.1334306 L204.980662,67.1334306 L204.980662,60 L161.083579,60 C152.757679,60.004275 146.009869,66.7626656 146.007735,75.099482 L146.007735,75.099482 Z" id="Path" fill="#3A3768"></path>
                    <path d="M147,100.075356 L147,91.9287169 C147.000344,91.4282617 146.558119,91.0175597 146,91 L146,101 C146.555338,100.980442 146.995575,100.57338 147,100.075356 Z" id="Path" fill="#3A3768"></path>
                    <path d="M147,124.143294 L147,109.856673 C147,109.62947 146.909298,109.411571 146.747848,109.250914 C146.586397,109.090256 146.367423,109 146.139098,109 L146,109 L146,125 L146.131579,124.999967 C146.361204,125.001963 146.582115,124.912588 146.745195,124.751714 C146.908275,124.59084 147.000009,124.3718 147,124.143294 L147,124.143294 Z" id="Path" fill="#3A3768"></path>
                    <path d="M155.572948,128.648887 C155.572948,122.593358 160.842827,117.683681 167.344927,117.683681 C173.847028,117.683681 179.113032,122.593358 179.113032,128.648887 C179.081774,131.927128 177.545043,135.007989 174.947503,137 L204.823066,137 L204.823066,102.546802 C205.556145,101.852166 206.61539,101.627209 207.566503,101.964167 C208.353583,102.215056 209.014966,102.758501 209.414835,103.482904 C210.898926,106.019312 213.235497,107.654576 215.862687,107.654576 C220.349834,107.654576 224,102.888615 224,97.0039937 C224,91.119372 220.365334,86.3572953 215.862687,86.3572953 C213.746986,86.3572953 211.821155,87.4138082 210.375813,89.1500629 C209.827715,89.8142947 209.36312,90.5435223 208.99247,91.3213524 L208.918847,91.7835768 C208.918847,91.7835768 207.186762,93.267356 204.823066,91.9039882 L204.823066,75.3182887 L182.604327,75.3182887 C178.372447,75.3075818 174.947489,71.8656916 174.947503,67.6236118 L174.947503,66 L162.319168,66 C159.845201,66.0010288 157.473083,66.9876932 155.725179,68.7427196 C153.977274,70.497746 152.996922,72.8772107 153.000007,75.3571311 L153,137 L159.719103,137 C157.128849,135.004029 155.59957,131.923783 155.572948,128.648887 Z" id="Path" fill="#12344D"></path>
                    <path d="M194.536222,66 C193.688695,66.0025502 193.002182,66.8050759 193,67.7958237 L193,68.199536 C193.002169,69.1910437 193.688054,69.9949055 194.536222,70 L205,70 L205,66.0139211 L194.536222,66 Z" id="Path" fill="#E6E8EC"></path>
                    <path d="M263,113.928907 L263,137 L266,137 L266,113 L264.377778,113 C263.617778,113 263,113.41587 263,113.928907 Z" id="Path" fill="#3A3768"></path>
                    <rect id="Rectangle" fill="#3A3768" x="209" y="60" width="3" height="7"></rect>
                    <rect id="Rectangle" fill="#3A3768" x="209" y="70" width="3" height="5"></rect>
                    <rect id="Rectangle" fill="#E6E8EC" x="209" y="66" width="3" height="4"></rect>
                    <path d="M266.901679,114 L266,114 L266,137 L268,137 L268,114.894034 C268.000006,114.401787 267.50904,114.00214 266.901679,114 L266.901679,114 Z" id="Path" fill="#3A3768"></path>
                    <path d="M210.387719,66.9655246 C211.221904,67.151272 211.954263,68.6527294 211.954263,68.6527294 L211.954263,68.9777872 C211.954263,68.9777872 211.217987,70.4753749 210.387719,70.4482867 L210.387719,70.4482867 L210.387719,75.478943 L228.08574,75.478943 C232.371167,75.4768066 235.844045,72.0435387 235.844045,67.809127 L235.844045,66.1915775 L249.159661,66.1915775 C254.353894,66.2022478 258.558931,70.365882 258.55892,75.4982917 L258.55892,120.584581 C261.044222,122.546697 262.491291,125.519338 262.491291,128.662655 C262.491291,131.805971 261.044222,134.778612 258.55892,136.740728 L258.55892,137 L264.041821,137 L264.041821,114.288522 C264.041802,114.258076 264.054304,114.228929 264.076458,114.207768 C264.098612,114.186608 264.128517,114.175249 264.159311,114.176299 L265.999999,114.176299 L265.999999,74.5115091 C266.001039,70.6625031 264.454066,66.9708474 261.699617,64.249189 C258.945169,61.5275307 255.209036,59.9989737 251.313658,60.0000005 L210,60 L210,66.9655246 L210.387719,66.9655246 Z M216.317085,66.930697 C217.370439,66.930697 218.224351,67.7744438 218.224351,68.8152583 C218.224351,69.8560727 217.370439,70.6998195 216.317085,70.6998195 C215.263731,70.6998195 214.409819,69.8560727 214.409819,68.8152583 C214.409819,67.7744438 215.263731,66.930697 216.317085,66.930697 Z" id="Shape" fill="#3A3768" fill-rule="nonzero"></path>
                    <path d="M217.393743,84.9876503 C223.387638,84.9876503 228.248378,90.2680328 228.248378,96.778306 C228.248378,103.288579 223.387638,108.568962 217.393743,108.568962 C214.091163,108.550461 210.98653,106.96475 209,104.281803 L209,137 L243.719573,137 C241.170598,135.000369 239.666758,131.92043 239.640977,128.646831 C239.640977,122.590492 244.81839,117.682568 251.209081,117.682568 C254.056527,117.662967 256.818029,118.673735 259,120.534208 L259,75.3308743 C259.000011,70.185141 254.903441,66.010698 249.84319,66 L236.871042,66 L236.871042,67.6217486 C236.871042,71.8671528 233.487744,75.3093334 229.312858,75.3114754 L209.019077,75.3114754 L209.019077,89.2786885 C211.00153,86.600623 214.097504,85.0142978 217.393743,84.9876503 Z" id="Path" fill="#12344D"></path>
                    <path d="M211.4,69.9999986 C212.253334,70.0011845 212.957334,69.2580732 213,68.3111103 L213,67.9377771 C212.904785,66.9729114 212.25698,66.188347 211.4,66 L211,66 L211,70 L211.4,69.9999986 Z" id="Path" fill="#E6E8EC"></path>
                    <ellipse id="Oval" fill="#E6E8EC" transform="translate(217.224620, 68.357298) rotate(-9.220000) translate(-217.224620, -68.357298) " cx="217.22462" cy="68.3572976" rx="1.88630775" ry="1.88572507"></ellipse>
                    <path d="M256,216 L256,211.951417 C257.333333,209.580629 257.333333,206.370788 256,204 L256,216 Z" id="Path" fill="#3A3768"></path>
                    <rect id="Rectangle" fill="#3A3768" x="256" y="217" width="7" height="2"></rect>
                    <path d="M253.451146,214.636564 C252.821535,215.03434 252.349203,215.692261 252.131144,216.47522 C251.870377,217.331372 252.003538,218.279816 252.485621,219 L256,219 L256,217.342511 L254.649614,217.342511 C255.139102,216.895336 255.591171,216.397236 256,215.854626 L256,212 C255.327981,213.079592 254.458238,213.979265 253.451146,214.636564 Z" id="Path" fill="#12344D"></path>
                    <path d="M254,217 L256,217 L256,215 C255.394501,215.729372 254.72496,216.398912 254,217 L254,217 Z" id="Path" fill="#12344D"></path>
                    <path d="M257,207.501783 C256.992435,206.245081 256.643118,205.021847 256,204 L256,211 C256.641764,209.978722 256.990973,208.757114 257,207.501783 Z" id="Path" fill="#3A3768"></path>
                    <path d="M264,219 L264,282.008132 C264,290.287912 257.209652,297 248.833333,297 L208,297 L208,290.84949 L247.367222,290.84949 C252.534767,290.84949 256.723889,286.708648 256.723889,281.60066 L256.723889,219 L264,219 Z" id="Path" fill="#3A3768"></path>
                    <path d="M252.518078,216.351141 C252.770691,215.567451 253.31787,214.908916 254.04725,214.510769 C255.213528,213.853971 256.221061,212.954804 257,211.875604 L257,204.301916 C255.197063,201.743916 251.634209,200 247.527736,200 C241.602682,200 236.803975,203.622869 236.803975,208.102264 C236.803975,210.208853 237.871658,212.126389 239.615931,213.565505 C240.28596,214.10957 241.019983,214.57203 241.802139,214.94289 L241.84907,215.016196 C242.900763,216.02187 243.165573,217.586186 242.502195,218.874417 L208,218.874417 L208,250.511829 C210.008478,247.860741 213.15923,246.290176 216.514087,246.267786 C222.611222,246.267786 227.550722,251.514967 227.550722,257.985203 C227.550722,264.45544 222.611222,269.706478 216.514087,269.706478 C213.15923,269.684089 210.008478,268.113524 208,265.462435 L208,291 L247.59031,291 C252.777988,291.000016 256.987063,286.85802 257,281.74027 L257,218.878275 L252.940458,218.878275 C252.377981,218.159509 252.219283,217.210004 252.518078,216.351141 L252.518078,216.351141 Z" id="Path" fill="#12344D"></path>
                    <path d="M326,121 C327.763652,119.978717 329.069007,118.25759 329.514661,116.052269 C329.56864,115.784732 329.608764,115.512877 329.634767,115.238498 C329.713516,114.984561 329.781052,114.725097 329.837049,114.461346 C330.282703,112.247887 329.7928,109.957121 328.629675,108 L326.319227,119.392801 L326.319227,119.392801 L326,121 Z" id="Path" fill="url(#linearGradient-1)"></path>
                    <path d="M390.905366,115.285933 C390.461587,112.696135 382.239998,107.086843 382.239998,107.086843 C382.239998,107.086843 378.608017,105.15127 376.684975,102.913747 C375.454851,101.489165 375.069464,101.504649 374.95268,101.698207 C374.87299,101.64766 374.782152,101.617106 374.68797,101.60917 C374.610114,101.554974 374.53615,101.504649 374.46608,101.446582 L374.46608,101.446582 C374.489321,101.222344 374.365353,101.008557 374.158549,100.916235 C374.065122,100.862039 373.971695,100.792358 373.878268,100.726549 C373.25542,99.6852102 373.03353,98.2103032 372.959567,96.9250823 C372.86614,95.3030717 371.013168,95.7095422 370.378642,95.8914861 C369.942649,95.0785452 369.518334,94.2346352 369.117376,93.3907251 C369.294693,93.1167477 369.442154,92.8247639 369.557262,92.519717 C370.701744,90.0460541 370.452605,87.2085033 370.950883,84.591608 C371.309021,82.6986171 372.056438,80.7204609 371.908512,78.877795 C371.908512,78.8352123 371.908512,78.7887586 371.908512,78.7423048 C371.908512,78.7423048 371.908512,78.7616605 371.908512,78.7694028 C371.86803,78.307776 371.761865,77.8541996 371.593195,77.4222437 C371.262307,76.5938182 370.686173,75.8737849 370.425356,75.0182614 C370.008826,73.7678809 370.273537,72.3897526 369.927078,71.1238875 C369.494977,69.5212326 368.132498,68.2824656 366.59095,67.5740457 C365.049402,66.8656258 363.332678,66.6217435 361.643203,66.4127016 C357.419517,65.8862256 352.931121,65.5726627 349.077251,67.3379057 C348.723897,67.5461123 348.320125,67.6545244 347.909412,67.6514686 C347.529089,67.5470693 347.168702,67.3809581 346.842785,67.1598329 C345.807301,66.6488415 344.507106,66.9740179 343.58062,67.6553398 C342.654134,68.3366616 342.023501,69.319933 341.412332,70.2722351 C340.801162,71.2245373 340.131601,72.2078087 339.173973,72.8310633 C338.048954,73.5781947 336.561905,73.8298193 335.670454,74.8363175 C335.273324,75.3134825 335.022049,75.8938448 334.946394,76.508653 C334.946394,76.508653 334.946394,76.4892973 334.946394,76.481555 C334.942531,76.5550566 334.942531,76.6287087 334.946394,76.7022103 C334.946394,76.7602775 334.946394,76.8222159 334.946394,76.8802831 C334.946394,76.9383503 334.946394,76.9770618 334.946394,77.0235155 C334.946394,77.1899749 334.946394,77.352563 334.946394,77.5151512 C335.070965,78.460839 335.323696,79.3854053 335.697704,80.2636656 C335.877459,80.9190343 336.229495,81.5149692 336.717617,81.9901972 C338.072311,83.0857318 340.221135,82.0521355 341.856111,82.6637767 C342.000144,82.7141017 342.136392,82.7799111 342.27264,82.8418495 C342.27264,82.9037879 342.229819,82.9657262 342.210355,83.0315357 C341.860314,84.2144181 341.683323,85.441249 341.684827,86.674285 C341.684827,93.9442991 347.7537,99.8361849 355.23955,99.8361849 C355.519832,99.8361849 355.79622,99.8361849 356.072609,99.8052157 C356.111537,99.9484482 356.154358,100.095552 356.189393,100.234913 C356.605932,101.841309 356.737664,103.507621 356.578673,105.159012 L356.496924,104.438979 C356.315119,104.35237 356.126299,104.281147 355.932468,104.226066 C355.390526,104.046705 354.821855,103.960308 354.25078,103.97057 C352.409486,103.947343 349.637814,104.682861 346.679287,108.252059 C346.679287,108.252059 342.903273,110.338607 341.793826,110.841856 C341.70286,110.896563 341.630873,110.977604 341.587508,111.074125 L341.587508,111.074125 C341.587508,111.074125 336.538548,118.657702 336.016913,121.541706 C335.495279,124.425711 334.849074,127.735541 334.849074,127.735541 C334.849074,127.735541 333.587807,131.475069 332.774213,133.13192 C331.960618,134.788771 331.217093,136.368199 331.147023,137.088233 C331.076953,137.808266 331.442876,139.387694 329.885757,140.394192 C328.328637,141.40069 327.939357,144.13372 327.939357,144.13372 C327.939357,144.13372 327.160798,144.861496 326.059136,145.782829 L326.020208,145.782829 L330.088182,130.271143 L330.816135,130.453087 C331.171851,130.540866 331.546324,130.413708 331.773764,130.12791 C331.848981,130.03309 331.903354,129.92363 331.933368,129.806605 L332.754749,126.663234 L333.085637,125.412853 L333.151814,125.157358 L333.630628,123.334047 L332.011224,122.946933 L330.115432,122.478524 L324.758941,121.135236 L325.226077,119.354508 L325.226077,119.354508 L325.615357,117.844761 L325.615357,117.844761 L328.063927,108.499812 L328.063927,108.499812 L328.453207,106.993936 C326.896088,104.988682 324.416375,103.358929 321.368314,102.604055 C315.490189,101.152375 309.798918,103.513775 308.654436,107.876557 C308.586641,108.131005 308.535923,108.389651 308.502617,108.650787 C308.404032,108.890087 308.32209,109.135838 308.25737,109.386305 C308.059057,110.143909 308.006229,110.931915 308.101659,111.708993 C308.11723,111.83545 308.136694,111.964488 308.16005,112.096107 C308.393398,113.301415 308.90365,114.436804 309.650992,115.41368 C310.176808,116.111661 310.787423,116.742284 311.468929,117.291187 L311.496178,117.376352 C311.785119,117.845964 311.959744,118.376206 312.006135,118.924811 C312.006135,119.002234 312.006135,119.083528 312.006135,119.164822 C311.875454,119.398349 311.718756,119.616506 311.538999,119.815175 L275.624044,110.938635 L275.234764,112.444511 L275.234764,112.444511 L267.14553,143.35562 L267.14553,143.35562 C268.200039,142.549514 269.384784,141.92771 270.649048,141.516825 C271.145594,141.353346 271.652854,141.224003 272.16724,141.12971 L272.350201,141.098741 C273.798105,140.864908 275.278656,140.925486 276.702349,141.276814 C281.241352,142.399446 284.378947,146.243495 284.962867,150.764995 C285.038489,151.335996 285.07102,151.911825 285.060187,152.487655 C285.049043,153.222248 284.970866,153.954318 284.826619,154.674854 C282.88022,160.551255 276.900882,164.101096 271.092827,162.664901 C267.79349,161.8372 265.072144,159.52475 263.735439,156.412999 L263.346159,157.922746 L263.346159,157.922746 L255,189.646796 L286.808053,197.512966 L286.808053,197.512966 L287.150619,195.991606 L287.201226,195.991606 C285.295418,193.644436 284.495739,190.596048 285.005688,187.622186 C285.005688,187.571861 285.03683,187.525407 285.056294,187.475082 C285.095222,187.362819 285.138043,187.254427 285.180863,187.146035 C285.398711,186.616388 285.659072,186.105036 285.959423,185.616932 C286.115135,185.365307 286.278633,185.121425 286.453808,184.885285 C286.562807,184.738181 286.675698,184.594949 286.792482,184.455587 C287.352609,183.781128 287.991651,183.175531 288.69606,182.651633 L288.921842,182.489045 C289.178767,182.307101 289.443477,182.132899 289.700402,181.970311 C289.860007,181.877404 290.023504,181.784496 290.187002,181.699331 C292.070956,180.709658 294.176149,180.210258 296.30648,180.247651 C297.330134,180.261217 298.348874,180.391098 299.342863,180.634765 C302.411816,181.367907 305.091883,183.220671 306.85207,185.825974 C307.084895,186.175246 307.29803,186.537111 307.490489,186.909895 C308.063698,188.015861 308.436611,189.213554 308.592151,190.448123 C308.713859,191.433651 308.68762,192.431693 308.514295,193.409551 C307.757566,195.574505 306.311633,197.435066 304.395715,198.709151 L304.006435,200.164702 L304.049256,200.164702 L303.990864,200.207285 L303.601584,201.658965 L310.865545,203.455177 L321.15421,164.337236 C323.929775,164.015931 325.350647,162.788778 325.350647,162.610705 C325.350647,162.432632 328.686775,160.593837 330.535854,160.090588 C331.454554,159.842835 332.517288,159.664762 333.362025,159.486689 C332.365469,164.406917 331.415626,169.164557 331.501268,169.443279 C331.528517,169.551671 331.707586,169.381341 331.980082,169.009711 C331.953274,169.152629 331.941532,169.297938 331.945047,169.443279 C331.945047,169.516831 332.050152,169.462635 332.1864,169.31166 L332.166936,169.404568 C332.166936,169.404568 326.390024,180.518631 325.938459,181.792238 C325.486895,183.065846 326.047458,186.325352 327.826466,187.405402 C328.171322,187.622245 328.478884,187.892806 328.737381,188.206729 L328.52717,188.620942 C327.865394,189.956487 327.277582,191.443008 327.382687,192.368212 C327.521763,193.539191 327.246483,194.721785 326.604128,195.712883 C326.604128,195.712883 321.601882,211.085208 321.714773,215.509929 C321.827665,219.93465 319.935765,229.643487 319.935765,229.643487 C319.935765,229.643487 317.880367,235.89926 319.102706,237.679988 C320.325044,239.460715 321.714773,247.230107 321.714773,247.230107 C321.714773,247.230107 322.660723,249.010835 322.602331,250.520582 C322.543939,252.03033 323.493782,254.778844 323.493782,254.778844 L326.608021,265.943232 C326.608021,265.943232 326.27324,268.912402 327.441079,271.014435 C328.608919,273.116468 328.496028,272.469986 327.939357,276.139833 C327.382687,279.809681 328.608919,283.204677 330.605924,284.269242 C331.384484,284.687326 331.423412,285.326065 331.182058,285.94932 L331.182058,285.94932 C330.672102,285.751891 330.247787,286.800972 329.994755,287.648753 L329.73783,287.892636 L329.909113,287.935218 C329.800115,288.322333 329.73783,288.647509 329.73783,288.647509 C329.73783,288.647509 324.517588,292.963838 324.182807,294.527782 C323.848027,296.091725 320.181011,296.900795 320.181011,296.900795 C320.181011,296.900795 314.625988,298.410542 313.173974,299.165416 C312.328735,299.547686 311.74671,300.342418 311.640212,301.259706 C311.575039,301.970643 311.643686,302.687431 311.842637,303.373353 C312.395415,305.583778 320.173225,305.800562 323.910311,305.208276 C327.647398,304.615991 335.351245,302.455891 335.351245,302.455891 C335.351245,302.455891 343.463836,301.681661 345.8618,300.729359 C348.259763,299.777057 346.360078,297.276296 346.360078,297.276296 C346.360078,297.276296 346.360078,297.195002 346.360078,297.044027 C346.41847,296.14205 346.58586,292.870931 346.009726,292.011536 C345.577626,291.345699 345.589304,289.688848 345.651589,288.635896 C347.274886,285.732536 343.790831,277.022455 343.790831,277.022455 C343.790831,277.022455 344.4565,268.505931 344.012721,267.259422 C343.568942,266.012913 341.677042,255.444681 341.677042,255.444681 C341.677042,255.444681 340.509202,250.644459 340.956874,249.835389 C341.404546,249.02632 340.676593,246.703631 340.676593,246.703631 C340.676593,246.703631 338.773015,244.121576 338.944298,243.308636 C339.115581,242.495695 338.387628,241.044015 338.387628,241.044015 C338.387628,241.044015 344.055542,232.628141 343.553371,231.064198 C343.0512,229.500254 343.779153,226.964653 343.779153,226.964653 C343.779153,226.964653 344.491535,225.77234 345.336272,224.343886 C346.387328,222.594128 347.671951,220.499837 348.092373,219.845614 C348.637365,219.013317 349.949238,215.471217 350.681084,213.431123 C350.992508,212.563986 351.202719,211.967829 351.202719,211.967829 C351.202719,211.967829 352.090277,227.839532 352.868836,229.446058 C353.647396,231.052584 354.815235,243.850596 354.815235,243.850596 C355.247127,244.986518 355.436699,246.199357 355.371906,247.412051 C355.262907,249.405692 357.150914,258.092546 357.150914,258.092546 C357.150914,258.092546 357.983973,264.239927 357.427303,265.858067 C356.870633,267.476206 357.318305,279.407081 357.318305,279.407081 C357.318305,279.407081 354.262458,281.72977 353.483898,283.506626 C352.705339,285.283483 353.592897,290.141772 353.592897,290.141772 L353.951034,290.308231 C353.664615,290.983017 353.451887,291.686436 353.316508,292.406393 C353.20751,293.432247 351.537499,298.073752 351.70489,298.720234 C351.87228,299.366715 350.984722,301.364227 350.871831,302.38621 C350.75894,303.408193 349.373104,304.921811 349.260213,305.463772 C349.084553,305.948801 348.88048,306.423183 348.649043,306.884483 C348.346833,307.593169 348.105906,308.326178 347.928876,309.075552 C347.372205,311.344044 353.982177,311.719546 353.982177,311.719546 C363.760885,313.500273 365.539894,306.218646 365.539894,306.218646 C365.539894,306.218646 366.762233,299.746088 367.206012,299.250581 C367.315789,299.064607 367.342596,298.841529 367.279975,298.635069 L367.279975,298.635069 C367.026116,297.533909 366.546371,296.496729 365.870782,295.588476 C365.559358,295.228459 365.539894,294.303255 365.5905,293.47483 C365.873464,293.447395 366.153499,293.395585 366.427452,293.319984 C370.370856,292.189609 368.763131,285.658984 368.763131,285.658984 C368.763131,285.658984 371.429698,281.346526 371.429698,279.674191 C371.429698,278.001855 372.375647,272.876456 372.375647,272.876456 C375.766275,266.833596 374.431045,252.161949 374.987715,250.973507 C375.544385,249.785065 373.819876,245.364215 372.430147,243.366703 C371.040418,241.369191 371.597088,235.976683 372.430147,234.41274 C373.263205,232.848796 371.597088,227.444675 371.597088,227.444675 C371.597088,227.444675 373.208706,216.992578 373.154207,215.358954 C373.099708,213.72533 374.543936,208.940592 374.543936,208.940592 C374.543936,208.940592 375.988164,206.459187 375.653383,205.704313 C375.318603,204.94944 376.762831,202.994511 376.377444,202.142858 C375.992057,201.291206 376.708332,198.635599 377.432392,197.071656 C377.802208,196.270328 378.261558,194.063774 378.600232,192.101103 C378.63916,191.884319 378.678088,191.667534 378.713123,191.454621 C380.332527,192.472733 381.827361,193.231478 382.356782,193.026307 C383.349445,192.639192 381.768969,187.606701 380.686771,184.471072 C380.873626,184.331711 380.951482,184.22719 380.873626,184.180736 C380.207957,183.747168 380.947589,181.803852 380.947589,181.803852 C384.875422,179.50439 383.540192,177.777859 382.282819,176.771361 C381.025445,175.764862 381.83904,172.900214 381.465331,171.73887 C381.091622,170.577525 381.913003,165.339864 382.578671,161.526784 C382.716709,160.698275 382.710125,159.852307 382.559207,159.026023 C383.271589,157.945973 384.007328,156.815598 384.653533,155.770388 C386.872428,152.174093 391.613856,135.05588 391.613856,135.05588 L391.582713,134.966844 C392.045956,134.057125 392.392415,133.317735 392.579269,132.8261 C394.015712,129.109799 391.349145,117.883472 390.905366,115.285933 Z M356.384033,105.429992 L356.485246,105.383539 C356.485246,105.410637 356.485246,105.437735 356.485246,105.464833 L356.384033,105.429992 Z M334.82961,289.057851 C334.587658,289.059529 334.347905,289.012109 334.125014,288.91849 L334.82961,289.057851 Z" id="Shape" fill="url(#linearGradient-2)" fill-rule="nonzero"></path>
                    <path d="M294.360121,165.597491 C297.551508,166.862181 304.969642,167 308.265728,167 C309.266187,167 309.886627,167 309.886627,167 L312,162.500621 L309.886627,158.751138 C309.886627,158.751138 307.947753,158.191756 305.372928,157.705336 C301.572734,156.991921 296.372673,156.432539 293.894791,158.037723 C289.737845,160.72519 290.203175,163.947718 294.360121,165.597491 Z" id="Path" fill="#FEC2BE"></path>
                    <path d="M308.617096,167 C309.523419,167 310.08548,167 310.08548,167 L312,162.643262 L310.088993,159.012647 C310.088993,159.012647 308.332553,158.470999 306,158 C307.893443,159.554296 312.446136,162.937636 308.617096,167 Z" id="Path" fill="#000000" opacity="0.1"></path>
                    <path d="M342.614896,113.088327 L341.701032,112 C341.701032,112 336.983209,119.673098 336.4882,122.570084 C335.99319,125.467069 335.34587,128.794688 335.34587,128.794688 C335.34587,128.794688 334.150231,132.56077 333.373447,134.224579 C332.596662,135.888389 331.896033,137.481731 331.827493,138.205977 C331.758954,138.930224 332.109268,140.523566 330.628047,141.537511 C329.146826,142.551456 328.800319,145.303593 328.800319,145.303593 C328.800319,145.303593 323.4466,150.659102 320.628852,150.784377 C317.811105,150.909652 309.715794,152.377719 309.997569,153.826212 C310.279343,155.274705 306.62008,156.139886 305.138859,156.503966 C303.657638,156.868047 314.658275,161.201781 308.238381,166.784351 C308.238381,166.784351 312.320306,167.653447 312.742968,168.663477 C313.16563,169.673508 317.460791,168.087995 317.460791,168.087995 C317.460791,168.087995 318.378462,165.840874 321.546524,165.696024 C324.714586,165.551175 326.332887,164.102682 326.332887,163.887366 C326.332887,163.672049 329.500948,161.859475 331.282983,161.35446 C333.065018,160.849445 335.364908,160.630214 335.437256,160.121284 C335.509604,159.612354 346,113.068753 346,113.068753 L342.614896,113.088327 Z" id="Path" fill="#4C4981"></path>
                    <path d="M342.614896,113.088327 L341.701032,112 C341.701032,112 336.983209,119.673098 336.4882,122.570084 C335.99319,125.467069 335.34587,128.794688 335.34587,128.794688 C335.34587,128.794688 334.150231,132.56077 333.373447,134.224579 C332.596662,135.888389 331.896033,137.481731 331.827493,138.205977 C331.758954,138.930224 332.109268,140.523566 330.628047,141.537511 C329.146826,142.551456 328.800319,145.303593 328.800319,145.303593 C328.800319,145.303593 323.4466,150.659102 320.628852,150.784377 C317.811105,150.909652 309.715794,152.377719 309.997569,153.826212 C310.279343,155.274705 306.62008,156.139886 305.138859,156.503966 C303.657638,156.868047 314.658275,161.201781 308.238381,166.784351 C308.238381,166.784351 312.320306,167.653447 312.742968,168.663477 C313.16563,169.673508 317.460791,168.087995 317.460791,168.087995 C317.460791,168.087995 318.378462,165.840874 321.546524,165.696024 C324.714586,165.551175 326.332887,164.102682 326.332887,163.887366 C326.332887,163.672049 329.500948,161.859475 331.282983,161.35446 C333.065018,160.849445 335.364908,160.630214 335.437256,160.121284 C335.509604,159.612354 346,113.068753 346,113.068753 L342.614896,113.088327 Z" id="Path" fill="#000000" opacity="0.05"></path>
                    <path d="M353.945352,312.717302 C363.519663,314.512423 365.26116,307.171239 365.26116,307.171239 C365.26116,307.171239 366.457459,300.649225 366.892833,300.15929 C367.002327,299.972052 367.029307,299.747853 366.967356,299.540012 L366.967356,299.540012 C366.716043,298.434223 366.246684,297.389582 365.58671,296.467141 C364.990522,295.761634 365.476886,292.825945 365.476886,292.825945 L354.380726,290 C354.380726,290 353.400153,292.226264 353.294251,293.261007 C353.18835,294.295749 351.552754,298.967769 351.725335,299.622322 C351.897916,300.276875 351.019323,302.283648 350.909499,303.31839 C350.799675,304.353133 349.442562,305.873891 349.340582,306.414779 C349.169791,306.904654 348.969385,307.383713 348.740472,307.849309 C348.446033,308.564658 348.209927,309.302616 348.03446,310.055975 C347.473572,312.337112 353.945352,312.717302 353.945352,312.717302 Z" id="Path" fill="#CA8496"></path>
                    <path d="M353.957231,312.70596 C363.52283,314.573101 365.262742,306.93739 365.262742,306.93739 C365.262742,306.93739 366.457952,300.153714 366.89293,299.644123 C367.002325,299.449373 367.029281,299.216179 366.967386,299 L364.663178,305.86521 C364.663178,305.86521 362.762598,309.990859 355.697144,309.371196 C351.676535,309.016521 349.697581,308.241943 348.737494,307.638587 C348.443324,308.382636 348.207433,309.150201 348.032125,309.933785 C347.491341,312.310517 353.957231,312.70596 353.957231,312.70596 Z" id="Path" fill="#000000" opacity="0.1"></path>
                    <path d="M362,302.999837 C362,302.999837 359.193252,303.057564 359,301 L362,302.999837 Z" id="Path" fill="#000000" opacity="0.1"></path>
                    <polygon id="Path" fill="#12344D" points="288.256757 197 290 197.402439 289.617117 199 288 198.630081"></polygon>
                    <polygon id="Path" fill="#000000" opacity="0.1" points="288.256757 197 290 197.402439 289.617117 199 288 198.630081"></polygon>
                    <polygon id="Rectangle" fill="#3A3768" transform="translate(333.149826, 126.985132) rotate(-75.720000) translate(-333.149826, -126.985132) " points="332.212698 126.17748 334.086828 126.177626 334.086954 127.792783 332.212824 127.792637"></polygon>
                    <polygon id="Rectangle" fill="#3A3768" transform="translate(327.935669, 125.656374) rotate(-75.720000) translate(-327.935669, -125.656374) " points="326.998396 122.97793 328.872526 122.978076 328.872943 128.334818 326.998813 128.334673"></polygon>
                    <polygon id="Rectangle" fill="#3A3768" transform="translate(331.446234, 126.554592) rotate(-75.720000) translate(-331.446234, -126.554592) " points="330.509095 125.607503 332.383225 125.607649 332.383373 127.501682 330.509243 127.501536"></polygon>
                    <path d="M326.17754,123.971842 C326.047891,124.028919 325.922294,124.089802 325.796696,124.139269 L326.112715,124.215373 L325.626532,126 L323.223976,125.425419 C322.853869,124.603445 322.946654,123.662011 323.47112,122.917808 C323.928683,122.224551 324.654973,121.725234 325.496883,121.525114 C326.011402,121.386203 326.513897,121.210657 327,121 L326.17754,123.971842 Z" id="Path" fill="#12344D"></path>
                    <path d="M331,132.749423 L331.820242,132.966777 C332.087696,133.036798 332.371467,132.995163 332.608758,132.851087 C332.846048,132.707011 333.017292,132.472374 333.084592,132.1991 L334,128.462456 L332.187311,128 L331,132.749423 Z" id="Path" fill="#3A3768"></path>
                    <path d="M330.817363,116.229391 C330.33004,118.358423 328.913978,120.01828 327,121 L329.507241,110 C330.778518,111.88853 331.311748,114.100358 330.817363,116.229391 Z" id="Path" fill="#3A3768"></path>
                    <path d="M330.046033,131.482845 C329.583489,131.36229 329.304195,130.885017 329.421411,130.415457 L330.201242,127.309279 L325.128558,126 L309.656875,187.639774 C311.984825,192.235731 310.570692,197.870767 306.359631,200.778636 L306,202.21462 L312.863265,204 L331,131.743933 L330.046033,131.482845 Z" id="Path" fill="#3A3768"></path>
                    <path d="M329.030867,130.514335 C328.895469,131.045597 329.218086,131.585584 329.752379,131.721981 L330.854326,132 L332,127.52563 L329.931664,127 L329.030867,130.514335 Z" id="Path" fill="#3A3768"></path>
                    <path d="M322.847237,122.65819 C323.289159,121.950626 323.985788,121.44013 324.793083,121.23226 C325.285683,121.088954 325.766981,120.909245 326.233008,120.694614 L329,109.824818 C327.268091,107.622213 324.841048,106.072905 322.1156,105.430148 C316.40649,103.97305 310.872506,106.337912 309.763374,110.709207 C309.237996,112.770182 309.790616,114.909078 311.117683,116.747982 C311.625977,117.445274 312.218074,118.07728 312.880618,118.629742 L312.90786,118.715454 C313.67777,119.962326 313.541847,121.566726 312.573175,122.665982 L277.680278,113.77145 L269.807389,144.736732 C272.395648,142.638232 275.813733,141.868855 279.050153,142.656277 C284.930498,144.156231 288.39021,150.506685 286.779051,156.837659 C285.167891,163.168634 279.112421,167.09189 273.232076,165.611416 C270.001792,164.759253 267.356244,162.442386 266.083041,159.350569 L258,191.126216 L288.907805,199 C286.876418,196.418413 286.147058,193.04356 286.930827,189.852229 C288.429127,183.969293 294.768691,180.501867 301.09658,182.114805 C304.514164,182.952503 307.402298,185.230039 309.01617,188.360067 L324.921508,125.813937 L322.637086,125.225644 C322.27353,124.388547 322.352409,123.424871 322.847237,122.65819 Z" id="Path" fill="#12344D"></path>
                    <path d="M326.116201,124.123907 L326.182048,123.876093 C326.061974,123.934174 325.9419,123.996128 325.817952,124.050337 L326.116201,124.123907 Z" id="Path" fill="#12344D"></path>
                    <g id="Group" opacity="0.1" transform="translate(258.000000, 105.000000)" fill="#000000">
                        <path d="M74.0826396,20.9767442 L72.257868,20.5077519 L67.0921827,19.1860465 L67.0921827,19.1860465 L67.1577665,18.9379845 L67.1577665,18.9379845 L67.9293401,15.9108527 C67.466472,16.1254287 66.987996,16.3042413 66.4980711,16.4457364 C65.6964032,16.6495794 65.0048298,17.1581863 64.5691371,17.8643411 C64.4558038,18.0594159 64.3602543,18.2643843 64.2836548,18.4767442 C64.3588598,18.2644555 64.4531227,18.0594771 64.5652792,17.8643411 C65.0033596,17.1604116 65.693935,16.6525386 66.4942132,16.4457364 C66.9825328,16.303167 67.459647,16.1243813 67.9216244,15.9108527 L70.6645685,5.09689922 C68.947711,2.90560939 66.5417613,1.36426129 63.84,0.724806202 C58.1805076,-0.724806202 52.6946193,1.62790698 51.5951269,5.97674419 C51.0743147,8.02713178 51.622132,10.1550388 52.937665,11.9844961 C53.4415415,12.6782059 54.0284929,13.3069645 54.6852792,13.8565891 L54.7122843,13.9418605 C55.4755031,15.182327 55.340761,16.7784845 54.3805076,17.872093 L19.7908629,9.02325581 L11.9863959,39.8294574 C14.5540049,37.7393116 17.9458359,36.9737516 21.1565482,37.7596899 C26.9857868,39.251938 30.4154315,45.5697674 28.8182741,51.8682171 C27.2211168,58.1666667 21.2182741,62.0697674 15.3890355,60.5968992 C12.1868249,59.749115 9.5642698,57.4441503 8.30213198,54.3682171 L0.289340102,85.9806202 L30.9285279,93.8139535 C28.9147949,91.2456286 28.1917743,87.8881139 28.968731,84.7131783 C30.4540102,78.8604651 36.7384772,75.4108527 43.0113706,77.0155039 C46.3992529,77.8488986 49.2622861,80.1147343 50.862132,83.2286822 C53.234533,87.8682605 51.7933987,93.5567798 47.5019289,96.4922481 L47.1354315,97.9418605 L54.1297462,99.744186 L72.6127919,26.8023256 L73.311066,26.9844961 C73.5387503,27.0431821 73.7803257,27.008287 73.9823318,26.887533 C74.1843379,26.7667791 74.330118,26.5701233 74.3874112,26.3410853 L75.1667005,23.1937984 L75.6257868,21.375969 L74.0826396,20.9767442 Z M66.968731,19.0387597 C66.9108629,19.0658915 66.8529949,19.0968992 66.7951269,19.120155 L66.7951269,19.120155 L66.968731,19.0387597 Z M64.3453807,20.4302326 L64.3453807,20.4302326 L66.6330964,21.0155039 L66.6330964,21.0155039 L64.3453807,20.4302326 Z" id="Shape" fill-rule="nonzero"></path>
                        <path d="M72.0804061,11.2209302 C72.608934,9.12790698 72.0263959,6.95736434 70.6491371,5.09689922 L67.9100508,15.9108527 C70.0125888,14.9457364 71.5595939,13.3100775 72.0804061,11.2209302 Z" id="Path"></path>
                    </g>
                    <polygon id="Rectangle" fill="#3A3768" transform="translate(333.530039, 125.487885) rotate(-75.720000) translate(-333.530039, -125.487885) " points="332.592911 124.680233 334.467042 124.680379 334.467167 126.295536 332.593037 126.29539"></polygon>
                    <polygon id="Rectangle" fill="#3A3768" transform="translate(328.315882, 124.159127) rotate(-75.720000) translate(-328.315882, -124.159127) " points="327.378609 121.480683 329.252739 121.480829 329.253156 126.837572 327.379026 126.837426"></polygon>
                    <polygon id="Rectangle" fill="#3A3768" transform="translate(331.827403, 125.049721) rotate(-75.720000) translate(-331.827403, -125.049721) " points="330.890264 124.102632 332.764394 124.102778 332.764541 125.99681 330.890411 125.996665"></polygon>
                    <path d="M326.184966,121.960426 L325.803805,122.131659 L326.116033,122.203957 L325.6335,124 L323.228946,123.425419 C322.852836,122.604738 322.944375,121.661253 323.47224,120.917808 C323.93176,120.225922 324.657994,119.727057 325.499688,119.525114 C326.013319,119.386203 326.514884,119.210654 327,119 L326.184966,121.960426 Z" id="Path" fill="#12344D"></path>
                    <path d="M331,130.75079 L331.814925,130.963374 C332.081057,131.037576 332.364927,130.998051 332.602494,130.853716 C332.840061,130.709381 333.011312,130.472395 333.077612,130.196223 L334,126.462139 L332.208955,126 L331,130.75079 Z" id="Path" fill="#3A3768"></path>
                    <path d="M330.819202,115.233333 C330.335177,117.358423 328.918434,119.01828 327,120 L329.511982,109 C330.776806,110.88853 331.310293,113.100358 330.819202,115.233333 Z" id="Path" fill="#3A3768"></path>
                    <path d="M330.042247,129.476784 C329.819249,129.418906 329.628094,129.273427 329.510923,129.07242 C329.393753,128.871412 329.360187,128.63138 329.417626,128.405239 L330.174743,125.301984 L325.124773,124 L309.656875,185.650303 C311.989746,190.245845 310.57458,195.88502 306.359631,198.789207 L306,200.225614 L312.86705,202 L331,129.722586 L330.042247,129.476784 Z" id="Path" fill="#3A3768"></path>
                    <path d="M330.031627,129.509991 C329.965393,129.765772 330.004098,130.037265 330.139211,130.264618 C330.274324,130.491971 330.494749,130.656517 330.751894,130.721981 L331.847573,131 L333,126.521286 L330.930869,126 L330.031627,129.509991 Z" id="Path" fill="#3A3768"></path>
                    <path d="M323.850792,120.659877 C324.291841,119.95135 324.988883,119.440488 325.796744,119.233688 C326.289728,119.091435 326.771132,118.911664 327.236748,118.695944 L330,107.824169 C328.269197,105.621668 325.843418,104.072094 323.119114,103.428699 C317.405799,101.975232 311.875404,104.336628 310.76232,108.712615 C310.240805,110.770069 310.789563,112.909354 312.120594,114.748593 C312.628849,115.44723 313.220968,116.080649 313.883627,116.634593 L313.91087,116.716424 C314.678225,117.964143 314.542435,119.567166 313.576166,120.667671 L278.677465,111.775416 L270.792468,142.74244 C273.385653,140.637701 276.813121,139.869176 280.055199,140.665502 C285.931974,142.161832 289.395768,148.513443 287.78452,154.849466 C286.173272,161.18549 280.113578,165.101667 274.217344,163.605337 C270.991349,162.747335 268.350998,160.4295 267.079592,157.339453 L259,189.120886 L289.905608,197 C287.875468,194.417281 287.147518,191.041877 287.932412,187.850564 C289.426903,181.96266 295.770707,178.498499 302.098942,180.11173 C305.523463,180.949674 308.415224,183.236351 310.022858,186.377613 L325.925177,123.827889 L323.617278,123.239488 C323.256386,122.395094 323.344152,121.425547 323.850792,120.659877 L323.850792,120.659877 Z" id="Path" fill="#12344D"></path>
                    <path d="M326.118137,122.125843 L326.180111,121.874157 C326.060037,121.932238 325.939963,121.994192 325.819889,122.048401 L326.118137,122.125843 Z" id="Path" fill="#12344D"></path>
                    <path d="M320.378126,238.479764 C321.530257,240.248932 322.882089,247.983716 322.882089,247.983716 C322.882089,247.983716 323.788432,249.752884 323.734666,251.258805 C323.6809,252.764727 324.587242,255.517195 324.587242,255.517195 L327.57126,266.631592 C327.57126,266.631592 327.248663,269.585366 328.37007,271.664235 C329.491477,273.743103 329.380104,273.112087 328.850124,276.762689 C328.320144,280.41329 329.487636,283.796775 331.404013,284.892342 C333.320389,285.98791 330.551436,288.488746 330.551436,288.488746 C330.551436,288.488746 342.802421,291.818032 345.36015,289.777877 C347.91788,287.737721 344.02752,277.641466 344.02752,277.641466 C344.02752,277.641466 344.668872,269.159527 344.242584,267.924594 C343.816296,266.689661 342.003611,256.167567 342.003611,256.167567 C342.003611,256.167567 340.886045,251.386557 341.312333,250.581334 C341.738621,249.776111 341.047343,247.484323 341.047343,247.484323 C341.047343,247.484323 339.234658,244.906062 339.395956,244.100839 C339.557254,243.295616 338.862136,241.847764 338.862136,241.847764 C338.862136,241.847764 344.284829,233.447122 343.804775,231.871518 C343.32472,230.295913 344.015998,227.791206 344.015998,227.791206 L345.529129,225.181974 C346.539164,223.439906 347.760422,221.353295 348.171348,220.702923 C348.693647,219.874472 349.95331,216.351622 350.656109,214.319209 L351.155365,212.863614 C351.155365,212.863614 352.007942,228.650626 352.752986,230.261072 C353.49803,231.871518 354.615597,244.584747 354.615597,244.584747 C355.029799,245.716824 355.211416,246.921954 355.149417,248.126953 C355.041885,250.112911 356.85457,258.757442 356.85457,258.757442 C356.85457,258.757442 357.65338,264.87791 357.11956,266.499969 C356.585739,268.122029 357.012028,279.979709 357.012028,279.979709 C357.012028,279.979709 354.081776,282.302467 353.336732,284.06002 C352.591688,285.817574 353.444264,290.641168 353.444264,290.641168 C353.444264,290.641168 361.966188,294.938271 365.733653,293.811733 C369.501119,292.685196 367.968786,286.185344 367.968786,286.185344 C367.968786,286.185344 370.526515,281.892113 370.526515,280.22747 C370.526515,278.562826 371.4559,273.479857 371.4559,273.479857 C374.704908,267.467785 373.426043,252.865379 373.959863,251.684644 C374.493684,250.503909 372.838457,246.098411 371.509666,244.112453 C370.180876,242.126495 370.710856,236.757052 371.509666,235.208547 C372.308477,233.660041 370.687813,228.275114 370.687813,228.275114 C370.687813,228.275114 372.223987,217.857544 372.177902,216.247098 C372.131817,214.636653 373.510533,209.859514 373.510533,209.859514 C373.510533,209.859514 374.893089,207.389647 374.574333,206.634751 C374.255577,205.879855 375.638133,203.951965 375.265611,203.092545 C374.893089,202.233124 375.588207,199.608408 376.279486,198.059902 C376.632805,197.262422 377.074455,195.063545 377.431616,193.116299 C377.758053,191.261964 378,189.632162 378,189.632162 L369.209246,182.489681 L347.265006,176.682786 L339.011913,174 L330.966203,186.775169 C330.39746,187.706805 329.875776,188.666811 329.403147,189.651518 C328.769475,190.979362 328.204931,192.458184 328.304782,193.379545 C328.43884,194.5424 328.17607,195.716609 327.559738,196.708832 C327.559738,196.708832 322.763036,212.008065 322.870568,216.413563 C322.9781,220.81906 321.165415,230.477863 321.165415,230.477863 C321.165415,230.477863 319.195273,236.702854 320.378126,238.479764 Z" id="Path" fill="#CEDDF9"></path>
                    <path d="M352.777254,114 C353.125131,113.858798 376.974476,104.084497 373.689409,102.142972 C371.740507,100.989825 369.340946,96.102674 367.696436,92.278459 C366.550023,89.607392 365.771253,87.4540648 365.771253,87.4540648 C365.771253,87.4540648 346.630109,84.0809111 353.480915,95.7222136 C354.560784,97.5079727 355.37435,99.4394664 355.896288,101.456575 C357.849144,109.387408 352.93538,113.854876 352.777254,114 Z" id="Path" fill="#FEC2BE"></path>
                    <path d="M354.415208,96.4467442 C355.447165,98.1761045 356.224633,100.046597 356.723414,102 C361.453189,101.669053 365.611471,98.731087 367.524003,94.3690213 C367.705489,93.9590291 367.864395,93.5393047 368,93.111752 C366.904452,90.525044 366.160235,88.4397243 366.160235,88.4397243 C366.160235,88.4397243 347.868366,85.1731032 354.415208,96.4467442 Z" id="Path" fill="#000000" opacity="0.1"></path>
                    <path d="M343.000001,89.0055215 C343.002457,95.8309057 348.283665,101.491902 355.092759,101.967907 C361.901854,102.443913 367.919407,97.5727839 368.871578,90.8141351 C369.82375,84.0554864 365.386196,77.7115637 358.710594,76.2880029 C352.034993,74.8644421 345.3953,78.8461606 343.507217,85.4052277 C343.170354,86.5756489 342.999613,87.7875924 343.000001,89.0055215 L343.000001,89.0055215 Z" id="Path" fill="#FEC2BE"></path>
                    <path d="M330,189.234585 C331.370792,190.52821 331.897424,192.990917 331.897424,192.990917 C331.897424,192.990917 338.344792,197.558777 337.914968,194.662183 C337.485143,191.76559 341.24514,180.062707 341.24514,180.062707 L340.815315,196 C340.815315,196 361.435277,194.995633 362.941599,193.436856 C364.447922,191.878079 373.253517,188.889083 373.253517,188.889083 C373.253517,188.889083 375.964122,191.134847 378.426901,192.838253 C378.756046,190.913886 379,189.222533 379,189.222533 L370.136321,181.810306 L348.010036,175.784105 L339.688478,173 L331.576023,186.257642 C331.002791,187.221845 330.476782,188.21542 330,189.234585 L330,189.234585 Z" id="Path" fill="#000000" opacity="0.1"></path>
                    <path d="M328.98275,188.140638 C330.701436,189.211085 331.344008,192.105542 331.344008,192.105542 C331.344008,192.105542 337.78521,196.499399 337.355539,193.713145 C336.925867,190.926891 340.684525,179.669808 340.684525,179.669808 L340.254854,195 C340.254854,195 360.871346,194.041621 362.369391,192.534494 C363.867435,191.027366 372.677637,188.140638 372.677637,188.140638 C372.677637,188.140638 380.303339,194.250301 381.696868,193.713145 C383.090398,193.175989 379.227225,182.780674 379.227225,182.780674 L375.259537,121.896587 C375.259537,121.896587 376.33178,103.780142 374.72148,103.134782 C374.473023,103.034446 374.243837,102.891935 374.04407,102.713559 C372.983439,101.762909 372.666024,99.8306946 372.573122,98.2076342 C372.468607,96.2754195 369.890578,97.2415268 369.890578,97.2415268 L371.392493,99.1737416 L358.088159,107.250399 L357.972031,107.319959 C357.454017,107.047527 356.920171,106.806215 356.373343,106.597311 C355.212069,106.145172 353.628865,105.720085 352.603072,106.141308 C352.029628,106.432343 351.543512,106.869647 351.194059,107.408841 C350.435183,108.547307 349.826313,109.778592 349.382471,111.07232 L344.563182,119.214673 C344.563182,119.214673 342.093538,130.035076 342.093538,130.471756 C342.093538,130.908437 341.342581,140.762732 340.483238,141.833179 C339.623895,142.903626 338.764552,148.26359 339.085838,149.871192 C339.407124,151.478795 338.54778,157.484118 338.54778,157.484118 C335.005893,160.378576 333.182692,170.236736 333.182692,170.236736 C333.182692,170.236736 327.585349,181.289004 327.144065,182.564266 C326.702781,183.839528 327.264064,187.085648 328.98275,188.140638 Z" id="Path" fill="#FFFFFF"></path>
                    <path d="M358,107.329529 C359.308103,109.275558 363.088792,112 363.088792,112 L374,102.756359 C372.936439,101.798912 372.618147,99.8528825 372.524988,98.2143255 C372.420184,96.2682957 369.835032,97.2452027 369.835032,97.2452027 L370.149442,97.6344086 C370.452692,98.0267677 370.574787,98.5301261 370.48512,99.0183051 C370.395454,99.5064841 370.102526,99.9332019 369.679767,100.191492 L358,107.329529 Z" id="Path" fill="#000000" opacity="0.1"></path>
                    <path d="M358,107.328922 C359.308103,109.275204 363.088792,112 363.088792,112 L374,102.755158 C372.936439,101.797587 372.618147,99.851304 372.524988,98.2164266 C372.420184,96.270144 369.835032,97.2432853 369.835032,97.2432853 L370.149442,97.6325418 C370.452558,98.0243082 370.574596,98.5271557 370.484904,99.0147924 C370.395211,99.5024292 370.102312,99.9285251 369.679767,100.186065 L358,107.328922 Z" id="Path" fill="#FFFFFF"></path>
                    <path d="M353,108.821833 C354.322886,110.670385 356.199708,112.770238 356.112245,111.718182 C356.024781,110.666126 357.23105,108.344788 358,107.30551 C356.798958,106.860637 355.50459,106.90266 354.326531,107.424771 C353.785858,107.744188 353.327923,108.226471 353,108.821833 Z" id="Path" fill="#000000" opacity="0.1"></path>
                    <path d="M353,108.663672 C354.357517,110.607061 356.279731,112.805101 356.189978,111.706081 C356.100224,110.607061 357.21092,108.815569 358,107.725484 C356.878085,107.20278 355.352281,106.711348 354.357517,107.20278 C353.804112,107.536511 353.335433,108.04088 353,108.663672 Z" id="Path" fill="#FFFFFF"></path>
                    <circle id="Oval" fill="#FF718D" cx="356" cy="116" r="1"></circle>
                    <circle id="Oval" fill="#FF718D" cx="350" cy="140" r="1"></circle>
                    <circle id="Oval" fill="#FF718D" cx="343" cy="163" r="1"></circle>
                    <circle id="Oval" fill="#FF718D" cx="342" cy="189" r="1"></circle>
                    <circle id="Oval" fill="#FF718D" cx="353" cy="128" r="1"></circle>
                    <circle id="Oval" fill="#FF718D" cx="346" cy="151" r="1"></circle>
                    <circle id="Oval" fill="#FF718D" cx="341" cy="175" r="1"></circle>
                    <circle id="Oval" fill="#FF718D" cx="343" cy="192" r="1"></circle>
                    <path d="M373.341025,103.37451 C373.341025,103.37451 373.196481,102.076259 375.071646,104.314086 C376.946812,106.551912 380.490093,108.493441 380.490093,108.493441 C380.490093,108.493441 388.510332,114.119197 388.943964,116.711801 C389.377596,119.304405 391.975482,130.555917 390.604267,134.302522 C389.233052,138.049127 378.747752,156.006321 378.747752,156.006321 C378.747752,156.006321 381.482368,159.253899 380.845593,163.074579 C380.208818,166.895258 379.400153,172.158439 379.75956,173.312441 C380.118967,174.466442 379.325928,177.347546 380.540879,178.357297 C381.75583,179.367048 383.068446,181.086354 379.239983,183.402154 C379.239983,183.402154 378.517263,185.35148 379.165757,185.78423 C379.814252,186.216981 369.559441,190.684837 365.492676,188.306659 C361.425911,185.928481 354.163551,166.895258 354.007287,162.641828 C353.851024,158.388398 356.245766,144.318161 357.546662,141.012103 C358.847558,137.706046 362.750246,124.789809 364.410549,121.908705 C366.070852,119.027601 373.341025,103.37451 373.341025,103.37451 Z" id="Path" fill="#000000" opacity="0.1"></path>
                    <path d="M374.333388,103.37451 C374.333388,103.37451 374.188813,102.076259 376.068282,104.314086 C377.947751,106.551912 381.487873,108.493441 381.487873,108.493441 C381.487873,108.493441 389.509806,114.119197 389.94353,116.711801 C390.377253,119.304405 392.975688,130.555917 391.604183,134.302522 C390.232679,138.049127 379.752979,156.006321 379.752979,156.006321 C379.752979,156.006321 382.488173,159.253899 381.851263,163.074579 C381.214354,166.895258 380.405518,172.158439 380.765001,173.312441 C381.124483,174.466442 380.331277,177.347546 381.546485,178.357297 C382.761692,179.367048 384.074585,181.086354 380.245314,183.402154 C380.245314,183.402154 379.522441,185.35148 380.171073,185.78423 C380.819704,186.216981 370.562727,190.684837 366.495103,188.306659 C362.427479,185.928481 355.163586,166.895258 355.007289,162.641828 C354.850992,158.388398 357.24624,144.318161 358.547411,141.012103 C359.848582,137.706046 363.752095,124.789809 365.412748,121.908705 C367.073401,119.027601 374.333388,103.37451 374.333388,103.37451 Z" id="Path" fill="#4C4981"></path>
                    <path d="M378,115 C378,115 371.790658,122.215606 372.005447,127 C372.005447,127 371.935152,119.250513 378,115 Z" id="Path" fill="#000000" opacity="0.1"></path>
                    <path d="M369,127 C369,127.210663 364.900109,142.508656 365.114083,144.423778 C365.328057,146.3389 363.91048,152 363.91048,152 L362,151.505899 C362,151.505899 363.482533,143.642408 363.765284,140.739084 C364.048035,137.835759 369,127 369,127 Z" id="Path" fill="#000000" opacity="0.1"></path>
                    <path d="M367,171 C367.132433,171.213102 376.06989,182.17431 373.553658,182.964725 C371.037426,183.755141 367,171 367,171 Z" id="Path" fill="#000000" opacity="0.1"></path>
                    <path d="M375,168 C375.196792,168.145165 378.578042,175.980146 378.968049,173.885063 C379.358055,171.789981 376.0591,179.617115 375.52955,173.814443 L375,168 Z" id="Path" fill="#000000" opacity="0.1"></path>
                    <path d="M355.853906,105.467249 C355.853906,105.467249 351.991782,103.0404 347.140714,109.24835 C347.140714,109.24835 343.608237,111.316381 342.570596,111.817955 C341.532954,112.31953 340.352965,125.588107 340.352965,125.588107 C340.352965,125.588107 338.067906,131.294483 338.689742,134.577867 C339.311577,137.861252 336.891662,149.131247 336.891662,149.131247 C336.891662,149.131247 332.86846,169.387144 333.003316,169.965884 C333.138172,170.544624 337.0902,163.615178 337.022772,160.189038 C336.955344,156.762897 340.345473,146.063925 340.832453,145.419595 C341.319432,144.775264 344.642133,126.444642 344.642133,126.444642 C344.642133,126.444642 347.342998,118.666378 349.073649,116.096772 C350.8043,113.527167 352.954503,108.677327 353.853543,107.820792 C354.500726,107.243941 355.223246,106.763409 356,106.393233 L355.853906,105.467249 Z" id="Path" fill="#000000" opacity="0.1"></path>
                    <path d="M356.884872,105.467255 C356.884872,105.467255 352.448626,103.040375 347.482793,109.248405 C347.482793,109.248405 343.860114,111.316463 342.797103,111.818044 C341.734092,112.319625 340.525253,125.588374 340.525253,125.588374 C340.525253,125.588374 338.184327,131.294824 338.821366,134.578251 C339.458405,137.861678 336.979326,149.131819 336.979326,149.131819 C336.979326,149.131819 332.861599,169.395696 333.00359,169.966726 C333.14558,170.537757 337.190393,163.615938 337.121317,160.189753 C337.05224,156.763568 340.525253,146.064458 341.024139,145.420119 C341.523025,144.77578 344.938475,126.44492 344.938475,126.44492 C344.938475,126.44492 347.705372,118.666555 349.478336,116.096916 C351.2513,113.527278 353.454073,108.677374 354.375093,107.820828 C355.296113,106.964282 357,106.393251 357,106.393251 L356.884872,105.467255 Z" id="Path" fill="#4C4981"></path>
                    <path d="M342.488672,204.437131 C343.807385,207.123081 344.900952,220.698642 345.632677,225 C346.69006,223.273318 347.968568,221.205136 348.398758,220.560508 C348.945542,219.739374 350.264255,216.247639 351,214.233176 C350.159722,212.283943 347.839913,206.697166 347.839913,204.640496 C347.839913,202.138725 343.602341,199 343.602341,199 C343.602341,199 340.928731,201.244687 342.488672,204.437131 Z" id="Path" fill="#000000" opacity="0.1"></path>
                    <path d="M371,247.440076 C371,247.440076 361.23983,242.954948 358.356962,246.146289 C355.474093,249.33763 371,247.440076 371,247.440076 Z" id="Path" fill="#000000" opacity="0.1"></path>
                    <path d="M365,249 C365,249 374.604006,254.077117 371.313205,254.926354 C368.022403,255.77559 365,249 365,249 Z" id="Path" fill="#000000" opacity="0.1"></path>
                    <path d="M336,244 C336,244 340.253314,244.209824 338.631083,244.842336 C337.008851,245.474847 336,244 336,244 Z" id="Path" fill="#000000" opacity="0.1"></path>
                    <path d="M331,245 C331.054984,245.264296 343.037639,249.03722 340.696878,250.74557 C338.356117,252.453919 331,245 331,245 Z" id="Path" fill="#000000" opacity="0.1"></path>
                    <path d="M369,277.424617 C367.164277,277.085116 356.913149,271.366942 360.922015,275.484609 C364.930881,279.602276 369,277.424617 369,277.424617 Z" id="Path" fill="#000000" opacity="0.1"></path>
                    <path d="M364,282 C364,282 363.135401,285.399704 359.840579,284.960905 C356.545757,284.522106 364,282 364,282 Z" id="Path" fill="#000000" opacity="0.1"></path>
                    <path d="M367,288.347738 C366.391559,288.183989 359.165829,284.86109 359.002782,286.410712 C358.839736,287.960333 365.894467,290.676163 366.447234,289.845439 C366.764144,289.40623 366.955307,288.888283 367,288.347738 L367,288.347738 Z" id="Path" fill="#000000" opacity="0.1"></path>
                    <path d="M344,284 C343.101545,283.957764 334.691685,281.948547 333,283.746585 L344,284 Z" id="Path" fill="#000000" opacity="0.1"></path>
                    <path d="M337,285.998815 C337,285.998815 335.636731,284.412623 334.277238,285.238039 C332.917746,286.063456 337,285.998815 337,285.998815 Z" id="Path" fill="#000000" opacity="0.1"></path>
                    <path d="M355,299 C354.797954,299.992688 354.014165,300.776478 353,301 L355,299 Z" id="Path" fill="#000000" opacity="0.1"></path>
                    <path d="M313.230915,303.834868 C313.764939,306.096918 321.225904,306.31557 324.795027,305.711296 C328.364149,305.107023 335.771328,302.896654 335.771328,302.896654 C335.771328,302.896654 343.55117,302.12541 345.840941,301.135514 C348.130712,300.145619 346.321178,297.605285 346.321178,297.605285 C346.321178,297.605285 346.321178,297.517824 346.321178,297.366756 C346.374965,296.444444 346.536324,293.101062 345.986933,292.198627 C345.349178,291.149099 345.721842,287.730183 345.721842,287.730183 C345.721842,287.730183 334.691755,289.936577 334.476608,288.891024 C334.261462,287.845472 332.55566,286.354666 331.760387,286.024701 C330.965114,285.694735 330.373462,288.779711 330.373462,288.779711 C330.373462,288.779711 325.378995,293.192498 325.04475,294.790642 C324.710505,296.388787 321.202853,297.215687 321.202853,297.215687 C321.202853,297.215687 315.874141,298.758175 314.487216,299.529419 C313.668561,299.927745 313.111587,300.740959 313.019611,301.672205 C312.961406,302.4004 313.033031,303.133464 313.230915,303.834868 Z" id="Path" fill="#CA8496"></path>
                    <path d="M313.218908,303.993679 C313.753122,306.089809 321.21674,306.292423 324.787131,305.732472 C328.357523,305.172522 335.767335,303.124283 335.767335,303.124283 C335.767335,303.124283 343.549944,302.409609 345.840529,301.492322 C348.131114,300.575035 346.320937,298.221033 346.320937,298.221033 C346.320937,298.221033 346.320937,298.139988 346.320937,298 L335.175473,300.368737 C335.175473,300.368737 329.683449,302.615907 326.166863,302.615907 C323.092252,302.615907 316.212811,303.820537 313.022902,301.99333 C312.960163,302.665992 313.026596,303.343979 313.218908,303.993679 Z" id="Path" fill="#000000" opacity="0.1"></path>
                    <path d="M328,296 C328,296 328.600865,299.75 331,301 L328,296 Z" id="Path" fill="#000000" opacity="0.1"></path>
                    <path d="M343,85.2725256 C343.206859,85.378244 343.423174,85.4656847 343.646309,85.5337818 C344.664735,85.7988244 345.659659,85.1324316 346.564492,84.6023464 C347.469324,84.0722612 348.718855,83.6784836 349.502259,84.3675944 C350.524603,85.2649529 349.784285,87.1808323 350.837965,88.0479003 C351.503859,88.5969171 352.561455,88.407601 353.301772,88.8581734 C354.04209,89.3087458 354.26536,90.2969761 354.453377,91.1488988 C354.641395,92.0008215 355.017429,92.9739065 355.879174,93.2238038 C356.740919,93.4737011 357.543909,92.9246843 358.393903,92.9549749 C358.570169,92.9549749 358.785606,92.9814791 358.895282,92.8603168 C358.972964,92.7493989 359.002502,92.6134383 358.97754,92.4816845 C358.871362,91.4640825 358.965731,90.4362476 359.255649,89.4526261 C359.604264,88.4833274 360.430756,87.6086868 361.46485,87.4534476 C362.988572,87.2262682 364.269439,88.5174043 365.166437,89.7252414 C366.109393,91.0042747 366.967632,92.3397314 367.736005,93.7235984 C367.784691,93.8131889 367.827853,93.9054839 367.865267,94 C369.870921,89.6206224 369.18242,84.525608 366.080326,80.7911589 C362.978232,77.0567098 357.980491,75.3063551 353.123668,76.2533588 C348.266844,77.2003625 344.361866,80.6866064 343,85.2914572 L343,85.2725256 Z" id="Path" fill="#000000" opacity="0.1"></path>
                    <path d="M365.082813,88.692241 C364.192435,87.4219445 362.921022,86.0806375 361.404657,86.3252288 C360.366531,86.4869746 359.565579,87.3982743 359.215649,88.4042545 C358.927396,89.4290234 358.835013,90.500281 358.943481,91.5602708 C358.965085,91.698013 358.934526,91.8389483 358.857942,91.9547729 C358.737411,92.0849586 358.535229,92.0652335 358.360263,92.0573434 C357.516543,92.0257833 356.67671,92.5820311 355.864094,92.3374399 C355.051478,92.0928486 354.63545,91.0631983 354.44882,90.1755687 C354.262191,89.2879391 354.060009,88.2740689 353.305715,87.7888313 C352.55142,87.3035938 351.52107,87.5166249 350.860091,86.940652 C349.814188,86.0411873 350.55293,84.041062 349.534244,83.1060921 C348.756621,82.3920434 347.516312,82.8023256 346.618158,83.3546284 C345.720003,83.9069313 344.732422,84.5973098 343.717624,84.3211584 C343.37547,84.2264779 343.068309,84.0292269 342.733932,83.8990412 C341.135916,83.279673 339.063551,84.3290485 337.749369,83.2165527 C337.272533,82.7324491 336.929308,82.1298154 336.754012,81.4689087 C336.393322,80.5751748 336.148907,79.6375773 336.026934,78.6797793 C335.910784,77.7116057 336.173201,76.7358019 336.7579,75.9616602 C337.613285,74.9398999 339.059663,74.6834736 340.152224,73.9299747 C341.081483,73.2829913 341.707469,72.3006813 342.321791,71.3341513 C342.936113,70.3676213 343.530995,69.3616411 344.429149,68.6791525 C345.327304,67.996664 346.587053,67.6573923 347.590186,68.1741899 C347.906641,68.3981205 348.257416,68.5674102 348.628313,68.6752075 C349.03268,68.6804604 349.430281,68.5696905 349.775307,68.3556609 C353.515673,66.5685666 357.870361,66.8841683 361.972322,67.416746 C363.613106,67.6297771 365.277219,67.8783134 366.774143,68.6002521 C368.271067,69.3221909 369.593026,70.5727623 370.012942,72.1981107 C370.34732,73.4841874 370.090705,74.8846696 370.495069,76.1431311 C370.767237,77.0031456 371.327125,77.7211393 371.661503,78.5850988 C372.536329,80.8929357 371.490426,83.4256388 371.047181,85.8557714 C370.565055,88.5107701 370.806118,91.3787999 369.694117,93.8957229 C369.476383,94.3888505 369.231431,95.2528099 368.683207,94.9293183 C368.294396,94.688672 367.882256,93.2881898 367.648969,92.8502925 C366.881963,91.4101026 366.024823,90.0212419 365.082813,88.692241 Z" id="Path" fill="#9A5E7F"></path>
                    <path d="M389.050665,131.516043 L391,137.096507 C391,137.096507 386.383974,154.339515 384.220212,157.964465 C382.05645,161.589416 378.886831,166.225434 378.886831,166.225434 C378.886831,166.225434 373.55345,168.909856 367.350665,167.675414 C361.14788,166.440971 343.046354,163.184394 343.046354,163.184394 C343.046354,163.184394 341.529771,163.47439 340.738341,162.314406 C339.946911,161.154422 335.826016,160.566592 335.826016,160.566592 C335.826016,160.566592 331.069638,153.610606 336.909846,150.710646 C336.909846,150.710646 337.6311,152.305624 340.730543,151.220098 C343.829986,150.134572 344.765667,152.086167 344.765667,152.086167 C344.765667,152.086167 349.833939,153.101154 352.625387,152.740618 C355.416835,152.380082 362.430543,152.231165 363.151797,151.651173 C363.53237,151.316057 364.109872,151.349178 364.450054,151.725632 C364.450054,151.725632 366.177165,151.0751 366.754169,150.42065 C367.331172,149.766199 368.126501,151.14564 368.126501,151.14564 C368.126501,151.14564 369.136256,150.565648 368.847755,149.840658 C368.559253,149.115668 369.783436,146.364624 369.783436,146.364624 C369.783436,146.364624 370.360439,144.550189 370.001761,143.100209 C369.643083,141.650229 371.802947,136.438138 371.802947,136.438138 C371.831144,135.55877 371.733992,134.679872 371.514445,133.828174 C371.151869,132.52711 374.243514,129.909308 374.243514,129.909308 C374.243514,129.909308 377.268883,115.123429 383.686094,119.978904 C390.103306,124.834378 389.050665,131.516043 389.050665,131.516043 Z" id="Path" fill="#000000" opacity="0.1"></path>
                    <path d="M389.049998,131.516043 L391,137.096507 C391,137.096507 386.382395,154.339515 384.217893,157.964465 C382.05339,161.589416 378.886587,166.225434 378.886587,166.225434 C378.886587,166.225434 373.551381,168.909856 367.346475,167.675414 C361.141568,166.440971 343.041648,163.184394 343.041648,163.184394 C343.041648,163.184394 341.528447,163.47439 340.736746,162.314406 C339.945045,161.154422 335.826641,160.566592 335.826641,160.566592 C335.826641,160.566592 331.068636,153.610606 336.910842,150.710646 C336.910842,150.710646 337.632343,152.305624 340.732846,151.220098 C343.833349,150.134572 344.76935,152.086167 344.76935,152.086167 C344.76935,152.086167 349.839356,153.101154 352.631759,152.740618 C355.424162,152.380082 362.440269,152.231165 363.16177,151.651173 C363.542473,151.316057 364.120173,151.349178 364.460471,151.725632 C364.460471,151.725632 366.188173,151.0751 366.765374,150.42065 C367.342575,149.766199 368.138175,151.14564 368.138175,151.14564 C368.138175,151.14564 369.148277,150.565648 368.859676,149.840658 C368.571076,149.115668 369.795677,146.364624 369.795677,146.364624 C369.795677,146.364624 370.372878,144.550189 370.010177,143.100209 C369.647477,141.650229 371.815879,136.438138 371.815879,136.438138 C371.844087,135.55877 371.746901,134.679872 371.527279,133.828174 C371.164579,132.52711 374.257282,129.909308 374.257282,129.909308 C374.257282,129.909308 377.283685,115.123429 383.703092,119.978904 C390.122499,124.834378 389.049998,131.516043 389.049998,131.516043 Z" id="Path" fill="#4C4981"></path>
                    <path d="M342.835628,154 C342.903381,154.516555 344.435365,156.570855 343.87828,156.940391 C343.321195,157.309926 342.417814,157.08741 343.253441,158.263567 C344.089069,159.439723 344.006259,161.199984 343.460466,160.981441 C342.914673,160.762899 342,158.116547 342,157.08741 C342,156.058274 342.835628,154 342.835628,154 Z" id="Path" fill="#000000" opacity="0.1"></path>
                    <path d="M364,153 C364,153 364.351057,157.543952 367.229087,158.842224 C370.107118,160.140496 364,153 364,153 Z" id="Path" fill="#000000" opacity="0.1"></path>
                    <path d="M370,151 C370.24936,151.083439 375.866771,154.008195 373.355031,155.712106 C370.843292,157.416018 370,151 370,151 Z" id="Path" fill="#000000" opacity="0.1"></path>
                    <path d="M371,147 C371,147 377.831334,148.489688 375.524062,149.75391 C373.216791,151.018131 371,147 371,147 Z" id="Path" fill="#000000" opacity="0.1"></path>
                    <g id="Group" opacity="0.1" transform="translate(336.000000, 78.000000)" fill="#000000">
                        <path d="M23.163871,9.41422222 C23.5122581,8.45088889 24.3251613,7.57822222 25.3432258,7.42333333 C26.8529032,7.19666667 28.1187097,8.48488889 29.0051613,9.69 C29.9370293,10.9661468 30.7851773,12.2985895 31.5445161,13.6793333 C31.7767742,14.0986667 32.1716129,15.436 32.5741935,15.6664444 C33.12,15.98 33.3483871,15.1526667 33.5806452,14.6804444 C34.6877419,12.2777778 34.4477419,9.52377778 34.9277419,6.98133333 C35.2103226,5.49666667 35.7329032,3.95911111 35.8490323,2.48577778 C36.0154839,4.31422222 35.28,6.23711111 34.9277419,8.09577778 C34.4477419,10.6382222 34.6877419,13.3846667 33.5806452,15.7986667 C33.363871,16.2708889 33.12,17.0982222 32.5741935,16.7846667 C32.1870968,16.5542222 31.7767742,15.2168889 31.5445161,14.7975556 C30.7851773,13.4168117 29.9370293,12.084369 29.0051613,10.8082222 C28.1187097,9.59555556 26.8529032,8.30733333 25.3432258,8.54155556 C24.3096774,8.69644444 23.5122581,9.56911111 23.163871,10.5324444 C22.9911806,11.0400616 22.8946962,11.5694027 22.8774194,12.104 C22.8007502,11.1978249 22.8978943,10.2856426 23.163871,9.41422222 Z" id="Path"></path>
                        <path d="M0.785806452,2.77288889 C0.959367952,3.40726667 1.30116756,3.98580404 1.77677419,4.45022222 C3.08516129,5.51555556 5.1483871,4.51066667 6.73935484,5.10377778 C7.07225806,5.22466667 7.37806452,5.41733333 7.71870968,5.508 C8.72903226,5.76866667 9.71612903,5.10755556 10.6064516,4.57866667 C11.4967742,4.04977778 12.7393548,3.66066667 13.5096774,4.34444444 C14.523871,5.23977778 13.7883871,7.15133333 14.8296774,8.01644444 C15.4877419,8.56422222 16.5329032,8.39422222 17.2645161,8.82866667 C17.996129,9.26311111 18.2167742,10.2604444 18.4025806,11.0953333 C18.5883871,11.9302222 18.956129,12.9162222 19.8116129,13.1655556 C20.6670968,13.4148889 21.4567742,12.8708889 22.2967742,12.9011111 C22.4709677,12.9011111 22.683871,12.9275556 22.7922581,12.8028889 C22.8176214,12.7710995 22.8372565,12.7353297 22.8503226,12.6971111 C22.8503226,12.9804444 22.8503226,13.26 22.8774194,13.5395556 C22.8985406,13.671447 22.8681478,13.8062705 22.7922581,13.9173333 C22.6722581,14.0382222 22.4709677,14.0193333 22.2967742,14.0117778 C21.4567742,13.9853333 20.6206452,14.5142222 19.8116129,14.28 C19.0025806,14.0457778 18.5883871,13.0635556 18.4025806,12.2097778 C18.2167742,11.356 18.0154839,10.3888889 17.2645161,9.94311111 C16.5135484,9.49733333 15.4877419,9.67866667 14.8296774,9.13088889 C13.7883871,8.26577778 14.523871,6.35044444 13.5096774,5.45888889 C12.7354839,4.77133333 11.5006452,5.16422222 10.6064516,5.69311111 C9.71225806,6.222 8.72903226,6.88311111 7.71870968,6.62244444 C7.37806452,6.53177778 7.07225806,6.33911111 6.73935484,6.21822222 C5.1483871,5.62511111 3.08516129,6.63 1.77677419,5.56466667 C1.30189428,5.09970514 0.960213874,4.52136953 0.785806452,3.88733333 C0.427155923,3.03264995 0.183828314,2.13610651 0.0619354839,1.22022222 C0.0348258315,0.908028452 0.0426136227,0.593882417 0.0851612903,0.283333333 C0.219943742,1.13669608 0.455042901,1.97205818 0.785806452,2.77288889 L0.785806452,2.77288889 Z" id="Path"></path>
                    </g>
                    <path d="M90.6905933,297.02217 C90.6905933,297.02217 74.2186982,295.994684 76.1588599,307.929632 C76.1588599,307.929632 75.7692692,310.041014 77.623721,311 C77.623721,311 77.6509924,310.113542 79.3145447,310.411714 C79.9051576,310.513928 80.505232,310.545027 81.102766,310.504389 C81.9101522,310.446657 82.6773862,310.118501 83.2883699,309.569579 L83.2883699,309.569579 C83.2883699,309.569579 87.9206034,307.591166 89.7205125,299.762131 C89.7205125,299.762131 91.0529127,298.057714 90.99837,297.618514 L88.2205883,298.82732 C88.2205883,298.82732 89.1711896,300.902438 88.4231754,302.627002 C88.4231754,302.627002 88.3335696,298.903878 87.7998303,299.000583 C87.6907449,299.000583 86.3544488,299.717808 86.3544488,299.717808 C86.3544488,299.717808 87.9907297,303.344227 86.7440395,305.959278 C86.7440395,305.959278 87.2115483,301.506841 85.8323972,299.979716 L83.8844437,301.160317 C83.8844437,301.160317 85.7934381,304.891499 84.499997,307.937691 C84.499997,307.937691 84.8311491,303.267669 83.4714775,301.45043 L81.6988398,302.880851 C81.6988398,302.880851 83.494853,306.555622 82.4001031,309.082027 C82.4001031,309.082027 82.2559545,303.646428 81.3170409,303.235434 C81.3170409,303.235434 79.7586781,304.649737 79.5288196,305.250111 C79.5288196,305.250111 80.7560303,307.921573 79.9924325,309.331847 C79.9924325,309.331847 79.5249237,305.705428 79.1431248,305.705428 C79.1431248,305.705428 77.5847619,308.102894 77.4367175,309.734783 C77.4367175,309.734783 77.5029479,307.288965 78.7691177,305.459638 C77.8778268,305.634527 77.0556561,306.075803 76.4043021,306.728884 C76.4043021,306.728884 76.6419524,305.032526 79.1509166,304.88344 C79.1509166,304.88344 80.4287741,303.062172 80.767718,302.953379 C80.767718,302.953379 78.2743375,302.735794 76.7627255,303.428843 C76.7627255,303.428843 78.0951258,301.817101 81.2274351,302.558503 L82.9766973,301.079729 C82.9766973,301.079729 79.6924477,300.616354 78.3016088,301.128082 C78.3016088,301.128082 79.9028266,299.713778 83.4481021,300.745293 L85.3532006,299.564692 C85.3532006,299.564692 82.5559394,298.940142 80.8884911,299.161757 C80.8884911,299.161757 82.6455452,298.182624 85.9142113,299.246373 L87.2738828,298.613765 C87.2738828,298.613765 85.2246357,298.210829 84.624666,298.130242 C84.0246963,298.049655 83.9896332,297.89251 83.9896332,297.89251 C85.2888906,297.668476 86.6227766,297.821918 87.8426853,298.335739 C87.8426853,298.335739 90.7373442,297.20752 90.6905933,297.02217 Z" id="Path" fill="#12344D"></path>
                    <ellipse id="Oval" fill="#12344D" opacity="0.1" cx="79.5" cy="311" rx="11.5" ry="2"></ellipse>
                    <path d="M120.818692,267.01112 C120.818692,267.01112 112.040839,266.496602 113.086523,272.467163 C112.978225,273.088087 113.293044,273.706302 113.867104,274 C113.867104,274 113.867104,273.556942 114.76919,273.70701 C115.084322,273.756649 115.404154,273.772227 115.722824,273.75346 C116.152253,273.722158 116.560036,273.55811 116.886332,273.285391 L116.886332,273.285391 C116.886332,273.285391 119.345898,272.309949 120.317942,268.379597 C120.317942,268.379597 121.028565,267.525639 120.999109,267.307683 L119.526315,267.918674 C119.526315,267.918674 120.030747,268.958431 119.633092,269.819535 C119.633092,269.819535 119.585227,267.957978 119.301714,268.000854 C119.242802,268.000854 118.532179,268.358159 118.532179,268.358159 C118.532179,268.358159 119.401127,270.144682 118.745734,271.477429 C118.745734,271.477429 118.992427,269.251421 118.259712,268.486789 L117.210346,269.094207 C117.210346,269.094207 118.226574,270.959337 117.538043,272.481455 C117.538043,272.481455 117.714778,270.144682 116.989427,269.237129 L116.046839,269.951738 C116.046839,269.951738 117.000473,271.791857 116.415037,273.053143 C116.415037,273.053143 116.337716,270.334054 115.836966,270.13039 C115.479339,270.424671 115.159196,270.759333 114.883332,271.12727 C114.883332,271.12727 115.538725,272.46359 115.133707,273.16748 C115.133707,273.16748 114.883332,271.355945 114.680823,271.348799 C114.680823,271.348799 113.856058,272.54577 113.771372,273.371144 C113.80955,272.608799 114.053325,271.869543 114.478313,271.227316 C114.003987,271.316594 113.566552,271.537529 113.219074,271.863318 C113.219074,271.863318 113.347944,271.012933 114.691868,270.941472 C114.691868,270.941472 115.369354,270.030345 115.553453,269.976749 C115.553453,269.976749 114.224256,269.865985 113.417902,270.21257 C113.417902,270.21257 114.128525,269.412208 115.796464,269.776659 L116.728006,269.037038 C116.728006,269.037038 114.979063,268.80479 114.238984,269.062049 C114.238984,269.062049 115.093205,268.34744 116.982063,268.869105 L117.994609,268.283125 C117.214254,268.11533 116.414516,268.048054 115.616047,268.083034 C115.616047,268.083034 116.554953,267.589954 118.29285,268.122338 L119.029247,267.80791 C119.029247,267.80791 117.924651,267.5971 117.619047,267.564943 C117.313442,267.532785 117.280304,267.447032 117.280304,267.447032 C117.97309,267.335206 118.684258,267.411887 119.334852,267.668561 C119.334852,267.668561 120.859194,267.10402 120.818692,267.01112 Z" id="Path" fill="#12344D"></path>
                    <ellipse id="Oval" fill="#12344D" opacity="0.1" cx="115.5" cy="275" rx="6.5" ry="1"></ellipse>
                    <path d="M67.7777915,273.014338 C67.7777915,273.014338 56.7999623,272.352117 58.1082999,280.028559 C57.9720446,280.827287 58.3660979,281.622847 59.084785,282 C59.084785,282 59.084785,281.429119 60.2100316,281.619413 C60.6042932,281.685891 61.0051111,281.705056 61.4039372,281.676501 C61.942538,281.640711 62.4544593,281.429447 62.8610362,281.075173 L62.8610362,281.075173 C62.8610362,281.075173 65.9468818,279.804012 67.1484163,274.772651 C67.1484163,274.772651 68.033356,273.67656 67.9990264,273.394925 L66.1185296,274.186547 C66.1185296,274.186547 66.7479048,275.518602 66.2520334,276.62611 C66.2520334,276.62611 66.1910031,274.236023 65.8362644,274.293111 C65.7637909,274.293111 64.8750368,274.753621 64.8750368,274.753621 C64.8750368,274.753621 65.9621394,277.075203 65.1420445,278.76501 C65.1420445,278.76501 65.4510105,275.902995 64.5317412,274.92108 L63.2310325,275.682254 C63.2310325,275.682254 64.5012261,278.079953 63.6391728,280.036171 C63.6391728,280.036171 63.8604077,277.033338 62.9563961,275.849712 L61.7739336,276.770733 C61.7739336,276.770733 62.9678392,279.134179 62.2392898,280.759286 C62.2392898,280.759286 62.1439299,277.26169 61.5183691,276.999085 C61.5183691,276.999085 60.484668,277.908689 60.3244634,278.281664 C60.3244634,278.281664 61.1445584,279.998112 60.6372438,280.903909 C60.6372438,280.903909 60.3244634,278.574716 60.0688989,278.563298 C60.0688989,278.563298 59.0390123,280.108482 58.9245804,281.166514 C58.9756403,280.188917 59.2820265,279.241636 59.8133345,278.418675 C59.2182747,278.52973 58.6690971,278.81297 58.2341749,279.233132 C58.2341749,279.233132 58.3943795,278.140847 60.0688989,278.0457 C60.0688989,278.0457 60.9195091,276.877298 61.1445584,276.804986 C61.1445584,276.804986 59.4852965,276.664169 58.4744818,277.109456 C58.4744818,277.109456 59.3632359,276.08187 61.44971,276.549993 L62.6169149,275.598525 C62.6169149,275.598525 60.4274521,275.301667 59.5005541,275.632778 C59.5005541,275.632778 60.5685847,274.719369 62.9335097,275.385396 L64.2037033,274.624222 C64.2037033,274.624222 62.338464,274.220799 61.2284751,274.365423 C61.2284751,274.365423 62.3994944,273.733648 64.577514,274.418705 L65.48534,274.011477 C65.48534,274.011477 64.1197866,273.745066 63.7192751,273.703201 C63.3187636,273.661336 63.2958772,273.550966 63.2958772,273.550966 C64.161166,273.404613 65.0502207,273.502151 65.8629651,273.832601 C65.8629651,273.832601 67.812121,273.139932 67.7777915,273.014338 Z" id="Path" fill="#12344D"></path>
                    <ellipse id="Oval" fill="#12344D" opacity="0.1" cx="59" cy="282.5" rx="8" ry="1.5"></ellipse>
                    <ellipse id="Oval" fill="#12344D" opacity="0.1" cx="286.5" cy="331" rx="11.5" ry="2"></ellipse>
                    <path d="M280,321.713241 C280,321.713241 286.450876,321.499481 288.39332,320.023333 C290.335763,318.547185 298.313385,316.79678 298.797106,319.152164 C299.280827,321.507548 308.490426,330.933117 301.208154,330.997648 C293.925882,331.062179 284.289247,329.787691 282.346804,328.525302 C280.404361,327.262913 280,321.713241 280,321.713241 Z" id="Path" fill="#A8A8A8"></path>
                    <path d="M301.341752,330.204506 C294.059026,330.267046 284.42179,329.031875 282.483005,327.812339 C281.005296,326.878143 280.415724,323.540055 280.215421,322 L280,322 C280,322 280.408165,327.378466 282.34695,328.60191 C284.285735,329.825355 293.92675,331.056617 301.209477,330.997986 C303.310772,330.997986 304.036399,330.216232 303.998606,329.043601 C303.711379,329.758906 302.906386,330.192779 301.341752,330.204506 Z" id="Path" fill="#000000" opacity="0.2"></path>
                </g>
                <g id="undraw_product_teardown_elol" transform="translate(0.000000, 147.000000)">
                    <g id="Group-6" transform="translate(0.000000, 141.000000)">
                        <path d="M5.32873563,5.50488889 C5.32873563,5.50488889 14.5563218,5.20177778 17.337931,3.09466667 C20.1195402,0.987555556 31.5402299,-1.52533333 32.2298851,1.85288889 C32.9195402,5.23111111 46.1011494,18.656 35.6781609,18.744 C25.2551724,18.832 11.4666667,17.0182222 8.68965517,15.2191111 C5.91264368,13.42 5.32873563,5.50488889 5.32873563,5.50488889 Z" id="Path" fill="#5F5D7E"></path>
                        <path d="M35.8666667,17.5657778 C25.4436782,17.6586667 11.6505747,15.84 8.87356322,14.0408889 C6.75862069,12.672 5.91724138,7.75866667 5.65517241,5.49022222 L5.34712644,5.49022222 C5.34712644,5.49022222 5.93103448,13.4053333 8.70804598,15.2044444 C11.4850575,17.0035556 25.2597701,18.8173333 35.6965517,18.7293333 C38.708046,18.7293333 39.7471264,17.5657778 39.6873563,15.8791111 C39.2505747,16.9106667 38.1057471,17.5266667 35.8666667,17.5657778 Z" id="Path" fill="#000000" opacity="0.2"></path>
                        <ellipse id="Oval" fill="#12344D" opacity="0.1" cx="16.1931034" cy="19.0177778" rx="16.183908" ry="2.90888889"></ellipse>
                    </g>
                    <g id="Group-5" transform="translate(54.000000, 142.000000)" fill="#12344D">
                        <ellipse id="Oval" cx="17.5545455" cy="14.605" rx="17.4272727" ry="3.24"></ellipse>
                        <path d="M23.526707,7.43654289 C24.2602065,6.87273112 24.7956771,6.11438933 25.0632392,5.26048204 C25.2605534,4.39715355 24.8701231,3.36431307 23.9885063,3.04499979 C23.0061333,2.6941494 21.9523912,3.33277596 21.1547379,3.98322893 C20.3570846,4.6336819 19.4418824,5.36691979 18.3965367,5.22894492 C19.4878573,4.29922808 19.9801994,2.90031241 19.6937729,1.54304475 C19.6491045,1.2669395 19.5241727,1.00776048 19.3327298,0.794038298 C18.786967,0.246080946 17.7961977,0.47866716 17.1412823,0.912302474 C15.0421946,2.28810906 14.4796391,4.94116876 14.4670446,7.33404727 C14.2571359,6.47071878 14.4334592,5.57191103 14.429261,4.68887185 C14.4250629,3.80583266 14.164776,2.82424 13.3713209,2.34724115 C12.8762853,2.09852521 12.3203954,1.97618435 11.7592215,1.99244862 C10.8230284,1.96091151 9.78188094,2.04763857 9.13956012,2.69020726 C8.34610498,3.47863511 8.55181557,4.83078886 9.2445145,5.70988591 C9.93721343,6.58898295 10.9867573,7.1369403 11.9523376,7.74402974 C12.7275786,8.17890623 13.3889601,8.77166118 13.8876964,9.478571 C13.9470571,9.57726184 13.994913,9.68167491 14.0304344,9.79 L19.9078799,9.79 C21.2222715,9.16330705 22.439719,8.3715559 23.526707,7.43654289 Z" id="Path"></path>
                    </g>
                    <path d="M1229,3.71200284 C1229,3.71200284 1220.32862,-2.05907795 1216.13482,0.790443219 C1211.94103,3.63996439 1205.09852,7.67411795 1211.83461,10.5956776 C1218.57069,13.5172372 1227.90425,12.9569381 1227.90425,12.9569381 L1229,3.71200284 Z" id="Path" fill="#FEC2BE"></path>
                </g>
            </g>
        </g>
    </g>
</svg>