<?xml version="1.0" encoding="UTF-8"?>
<svg width="1303px" height="248px" viewBox="0 0 1303 248" version="1.1" xmlns="http://www.w3.org/2000/svg" xmlns:xlink="http://www.w3.org/1999/xlink">
    <!-- Generator: Sketch 53 (72520) - https://sketchapp.com -->
    <title>undraw_envelope_n8lc</title>
    <desc>Created with Sketch.</desc>
    <defs>
        <linearGradient x1="50.0138009%" y1="99.9956479%" x2="50.0138009%" y2="-0.000296357378%" id="linearGradient-1">
            <stop stop-color="#808080" stop-opacity="0.25" offset="0%"></stop>
            <stop stop-color="#808080" stop-opacity="0.12" offset="54%"></stop>
            <stop stop-color="#808080" stop-opacity="0.1" offset="100%"></stop>
        </linearGradient>
    </defs>
    <g id="Page-1" stroke="none" stroke-width="1" fill="none" fill-rule="evenodd">
        <g id="Unsubscribe-Confirm" transform="translate(-39.000000, -682.000000)">
            <g id="undraw_envelope_n8lc" transform="translate(39.000000, 682.000000)">
                <ellipse id="Oval" fill="#12344D" opacity="0.1" cx="1089" cy="237" rx="111" ry="11"></ellipse>
                <path d="M987,236 C987,236 982.092326,207.891234 963.876867,193.961838 C956.233831,188.116261 950.641366,180.167045 948.198942,171.114091 C947.049508,166.824597 946.313101,162.432795 946,158" id="Path" stroke="#535461" stroke-width="2"></path>
                <g id="Group-2" transform="translate(931.000000, 129.000000)">
                    <path d="M3.64888647,19.8027277 C5.19070441,22.8438866 15.4939027,29 15.4939027,29 C15.4939027,29 16.7890298,17.4995257 15.2356482,14.4544828 C13.6822667,11.40944 9.83928547,10.1393775 6.63230417,11.6152911 C3.42532287,13.0912047 2.09550491,16.7576849 3.64888647,19.8027277 Z" id="Path" fill="#12344D"></path>
                    <path d="M3.04429548,40.5192715 C6.0399868,42.1405284 18,41.9967362 18,41.9967362 C18,41.9967362 12.6039636,32.4417456 9.61964833,30.8204888 C6.63533305,29.1992319 2.73335031,30.0547954 0.920767458,32.7329248 C-0.891815392,35.4110542 0.0523961759,38.8980146 3.04429548,40.5192715 Z" id="Path" fill="#12344D"></path>
                    <path d="M18.2565243,68.9996883 C21.7540359,69.0491291 32,63.1999036 32,63.1999036 C32,63.1999036 21.9512925,57.0540333 18.4499875,57.0007894 C14.9486825,56.9475454 12.0694945,59.5945292 12.0012134,62.907062 C11.9329322,66.2195948 14.7552193,68.9388381 18.2565243,68.9996883 Z" id="Path" fill="#12344D"></path>
                    <path d="M34.2322851,87.9378533 C37.7129171,88.5523539 49,84.4073375 49,84.4073375 C49,84.4073375 40.0794396,76.7050878 36.6026493,76.1020375 C33.125859,75.4989872 29.7643214,77.6287471 29.1112226,80.9111726 C28.4581239,84.1935982 30.7478112,87.3271695 34.2322851,87.9378533 Z" id="Path" fill="#12344D"></path>
                    <path d="M30.6375338,37.9831177 C29.5020347,41.0730712 20.5442087,48 20.5442087,48 C20.5442087,48 18.1722772,37.0134986 19.3077763,33.9235451 C20.4432754,30.8335916 23.9002393,29.2376815 27.0255653,30.3582141 C30.1508913,31.4787467 31.7730328,34.896937 30.6375338,37.9831177 Z" id="Path" fill="#12344D"></path>
                    <path d="M49.6635947,59.483966 C47.4848894,62.0746783 36,66 36,66 C36,66 37.1671636,54.9156392 39.3303067,52.3286653 C41.5965549,49.7255421 45.5660519,49.2369513 48.4419635,51.2071448 C49.8029307,52.1083494 50.7092865,53.5157194 50.9413764,55.08818 C51.1734664,56.6606407 50.7101076,58.2546734 49.6635947,59.483966 L49.6635947,59.483966 Z" id="Path" fill="#12344D"></path>
                    <path d="M64.2723856,84.5578665 C62.63888,87.4188529 52.2539067,93 52.2539067,93 C52.2539067,93 51.3417389,81.9970613 52.9752444,79.1360749 C54.60875,76.2750885 58.4597011,75.1707181 61.5816813,76.6679182 C64.7036616,78.1651184 65.9020745,81.6968801 64.2723856,84.5578665 Z" id="Path" fill="#12344D"></path>
                    <path d="M3.64888647,19.8027277 C5.19070441,22.8438866 15.4939027,29 15.4939027,29 C15.4939027,29 16.7890298,17.4995257 15.2356482,14.4544828 C13.6822667,11.40944 9.83928547,10.1393775 6.63230417,11.6152911 C3.42532287,13.0912047 2.09550491,16.7576849 3.64888647,19.8027277 Z" id="Path" fill="#000000" opacity="0.25"></path>
                    <path d="M3.04429548,40.5192715 C6.0399868,42.1405284 18,41.9967362 18,41.9967362 C18,41.9967362 12.6039636,32.4417456 9.61964833,30.8204888 C6.63533305,29.1992319 2.73335031,30.0547954 0.920767458,32.7329248 C-0.891815392,35.4110542 0.0523961759,38.8980146 3.04429548,40.5192715 Z" id="Path" fill="#000000" opacity="0.25"></path>
                    <path d="M18.2565243,68.9996883 C21.7540359,69.0491291 32,63.1999036 32,63.1999036 C32,63.1999036 21.9512925,57.0540333 18.4499875,57.0007894 C14.9486825,56.9475454 12.0694945,59.5945292 12.0012134,62.907062 C11.9329322,66.2195948 14.7552193,68.9388381 18.2565243,68.9996883 Z" id="Path" fill="#000000" opacity="0.25"></path>
                    <path d="M34.2322851,87.9378533 C37.7129171,88.5523539 49,84.4073375 49,84.4073375 C49,84.4073375 40.0794396,76.7050878 36.6026493,76.1020375 C33.125859,75.4989872 29.7643214,77.6287471 29.1112226,80.9111726 C28.4581239,84.1935982 30.7478112,87.3271695 34.2322851,87.9378533 Z" id="Path" fill="#000000" opacity="0.25"></path>
                    <path d="M30.6375338,37.9831177 C29.5020347,41.0730712 20.5442087,48 20.5442087,48 C20.5442087,48 18.1722772,37.0134986 19.3077763,33.9235451 C20.4432754,30.8335916 23.9002393,29.2376815 27.0255653,30.3582141 C30.1508913,31.4787467 31.7730328,34.896937 30.6375338,37.9831177 Z" id="Path" fill="#000000" opacity="0.25"></path>
                    <path d="M49.6635947,59.483966 C47.4848894,62.0746783 36,66 36,66 C36,66 37.1671636,54.9156392 39.3303067,52.3286653 C41.5965549,49.7255421 45.5660519,49.2369513 48.4419635,51.2071448 C49.8029307,52.1083494 50.7092865,53.5157194 50.9413764,55.08818 C51.1734664,56.6606407 50.7101076,58.2546734 49.6635947,59.483966 L49.6635947,59.483966 Z" id="Path" fill="#000000" opacity="0.25"></path>
                    <path d="M64.2723856,84.5578665 C62.63888,87.4188529 52.2539067,93 52.2539067,93 C52.2539067,93 51.3417389,81.9970613 52.9752444,79.1360749 C54.60875,76.2750885 58.4597011,75.1707181 61.5816813,76.6679182 C64.7036616,78.1651184 65.9020745,81.6968801 64.2723856,84.5578665 Z" id="Path" fill="#000000" opacity="0.25"></path>
                    <path d="M55.4920261,106 C55.4920261,106 62.9202593,78.4560134 52.2087242,58.7115503 C47.7145862,50.428395 45.97994,41.0167652 47.5893273,31.8124062 C48.3619528,27.4360902 49.5504636,23.1453964 51.1383299,19" id="Path" stroke="#535461" stroke-width="2"></path>
                    <path d="M45.0039019,6.2351532 C45.1188525,9.55913306 51.4447258,19 51.4447258,19 C51.4447258,19 57.1132256,9.14650108 56.998275,5.81870055 C56.8833245,2.49090002 54.1065499,-0.110973869 50.7945367,0.00364612657 C47.4825235,0.118266122 44.8853592,2.90735267 45.0039019,6.2351532 Z" id="Path" fill="#12344D"></path>
                    <path d="M34.1231409,26.0936004 C36.1065078,28.7109939 47,33 47,33 C47,33 46.3989797,22.0978596 44.4156129,19.4768003 C42.3349176,16.8435136 38.526867,16.2188137 35.6782809,18.0434657 C34.3290044,18.8704458 33.3942449,20.2090813 33.0990658,21.7370671 C32.8038866,23.2650529 33.1750321,24.8439483 34.1231409,26.0936004 Z" id="Path" fill="#12344D"></path>
                    <path d="M36.7333329,56.3927045 C39.957493,57.7744092 52,56.3662061 52,56.3662061 C52,56.3662061 45.3477653,46.9327594 42.1236052,45.5510547 C38.8994452,44.16935 35.0827784,45.4753448 33.5938167,48.4696692 C32.104855,51.4639936 33.5130203,55.0109998 36.7333329,56.3927045 Z" id="Path" fill="#12344D"></path>
                    <path d="M43.8136543,80.6819012 C46.7678489,82.5141265 59,83 59,83 C59,83 54.1164563,72.8708356 51.1661438,71.0423193 C48.2168343,69.2067496 44.2851572,69.8535736 42.1482806,72.5259025 C41.1697534,73.7979882 40.7930418,75.4032645 41.1094299,76.9527433 C41.4258181,78.5022221 42.4064333,79.8545022 43.8136543,80.6819012 L43.8136543,80.6819012 Z" id="Path" fill="#12344D"></path>
                    <path d="M61.2140487,32.6088295 C58.7554024,35.1037853 47,38 47,38 C47,38 49.493221,26.4191142 51.9480256,23.9241584 C54.4671682,21.4274002 58.4185333,21.3513109 61.0258086,23.7493526 C62.2474241,24.8622684 62.9628284,26.4531742 62.9985924,28.1364009 C63.0343565,29.8196276 62.387215,31.4414955 61.2140487,32.6088295 Z" id="Path" fill="#12344D"></path>
                    <path d="M68.7609023,60.9502481 C65.7438306,62.5006826 54,61.8753283 54,61.8753283 C54,61.8753283 59.7544397,52.2544943 62.7715114,50.7151609 C65.7885832,49.1758274 69.5776374,50.2008163 71.2297546,53.0278613 C72.8818718,55.8549064 71.7928916,59.3998137 68.7609023,60.9502481 Z" id="Path" fill="#12344D"></path>
                    <path d="M72.6109141,88.6700637 C69.872078,90.7256736 58,92 58,92 C58,92 62.0002917,81.3540647 64.7391279,79.2984548 C67.5002983,77.24702 71.3732388,77.6683104 73.6299278,80.2655776 C74.6700659,81.4905883 75.1515621,83.0950449 74.9580397,84.691153 C74.7645174,86.2872611 73.913586,87.729783 72.6109141,88.6700637 Z" id="Path" fill="#12344D"></path>
                </g>
                <path d="M1301.68141,74.7069056 C1301.91169,74.0795927 1300.18461,70.6025964 1300.18461,70.4304679 C1300.18461,70.2583393 1298.39997,68.3190245 1298.39997,67.2365273 C1298.39997,66.1540301 1296.03579,63.8169071 1296.03579,63.8169071 C1296.03579,63.8169071 1292.86949,62.5049052 1292.52407,59.6552218 C1292.17866,56.8055383 1288.72834,56.744337 1288.72067,56.744337 L1288.72067,56.744337 C1288.72067,56.744337 1288.72067,56.4842317 1288.7437,56.0902486 C1288.7437,55.2028304 1288.71683,53.6192479 1288.31768,52.7547802 C1287.90691,51.9679448 1287.20269,51.3732192 1286.35649,51.0985212 C1286.35649,51.0985212 1286.01108,48.8761506 1285.32025,48.1914615 C1284.53551,47.374525 1284.22935,46.2118115 1284.51044,45.1160984 C1284.85586,44.0336012 1284.04989,41.2910199 1282.37655,40.9085121 C1280.7032,40.5260042 1278.80726,39.883391 1278.80726,39.883391 C1278.80726,39.883391 1278.6192,39.9178167 1278.3467,39.9560675 L1278.11643,39.883391 C1277.71549,39.9570459 1277.31051,40.0068599 1276.90364,40.0325691 C1276.5506,40.0450489 1276.20476,39.9310599 1275.9288,39.7112625 C1275.34927,39.0839496 1270.68233,37.8867001 1269.81879,37.8867001 C1268.95525,37.8867001 1266.47594,36.7391765 1266.47594,36.7391765 L1264.0043,34.8572379 C1263.30963,34.3293771 1262.02392,32.179683 1261.83586,31.8775018 L1261.81284,31.8354259 L1261.81284,31.8354259 L1261.81284,31.8354259 C1261.60052,31.3496991 1261.42601,30.8484091 1261.29088,30.3359951 L1261.29088,30.3359951 C1262.13341,29.4581045 1262.85372,28.471324 1263.43245,27.4021599 C1263.49386,27.2912327 1263.54759,27.1764803 1263.60132,27.065553 C1263.73151,27.0633293 1263.86073,27.0427239 1263.98511,27.0043518 C1264.03501,27.0043518 1264.0849,26.966101 1264.13479,26.9469756 C1264.71912,26.6403201 1265.1589,26.1168204 1265.3591,25.4896207 L1265.3591,25.4896207 C1265.40131,25.3672182 1265.43969,25.2409906 1265.4704,25.1071128 C1265.4704,25.065037 1265.4704,25.019136 1265.49726,24.9770602 C1265.52413,24.9349843 1265.53564,24.8049316 1265.55099,24.7169548 C1265.56635,24.628978 1265.57018,24.6175028 1265.57786,24.5716018 C1265.58554,24.5257009 1265.60473,24.3994733 1265.61624,24.3114965 C1265.62775,24.2235197 1265.61624,24.2158695 1265.61624,24.1699686 C1265.61624,24.0590413 1265.64311,23.9519391 1265.65846,23.8448369 L1265.65846,23.8448369 C1265.69734,23.4403281 1265.75755,23.0381386 1265.83884,22.6399372 C1265.83884,22.6399372 1265.83884,22.6399372 1265.83884,22.6399372 L1265.83884,22.6399372 C1266.18426,21.1099058 1267.11688,19.7864287 1267.78084,18.3558493 L1267.78084,18.3558493 C1267.87679,18.1531201 1267.96506,17.9427408 1268.04566,17.7323615 C1268.12626,17.5219822 1268.20685,17.2733521 1268.2721,17.0400223 L1268.32967,16.8258179 C1268.37188,16.6575145 1268.41026,16.4853859 1268.4448,16.3132574 C1268.4448,16.2367558 1268.47551,16.1602542 1268.48702,16.0837527 C1268.5254,15.8465978 1268.55994,15.6094429 1268.57913,15.368463 C1268.70309,14.0023653 1268.50734,12.6262327 1268.00728,11.3483055 C1267.57359,10.2772835 1266.93265,9.31336375 1266.49513,8.24234178 C1265.83116,6.6205085 1265.65846,4.79977114 1264.84865,3.23913911 C1263.49386,0.645735898 1260.30069,-0.65096571 1257.67553,0.324429305 C1256.42052,0.787263802 1255.33438,1.68998233 1254.06403,2.09544065 C1252.35998,2.63477671 1250.54079,2.22931839 1248.77917,1.98451337 C1247.01756,1.73970835 1245.06788,1.72058295 1243.65168,2.8681065 C1242.02055,4.18775858 1241.57151,6.67023452 1240.04017,8.11993927 C1239.39924,8.72812675 1238.59711,9.11828475 1237.91779,9.68057129 C1237.44098,10.0615665 1237.07413,10.5618189 1236.85468,11.130276 C1236.85468,11.1723519 1236.82781,11.2106027 1236.8163,11.2526785 C1236.80479,11.2947544 1236.78943,11.3483055 1236.77792,11.3980315 C1236.76641,11.4477576 1236.75489,11.5127839 1236.74722,11.5701601 C1236.73954,11.6275362 1236.74722,11.6504867 1236.74722,11.6887375 C1236.73953,11.7905956 1236.73953,11.8928857 1236.74722,11.9947438 L1236.74722,11.9947438 C1236.75825,12.091255 1236.77491,12.1870442 1236.79711,12.2816247 C1236.79711,12.3084002 1236.79711,12.3351758 1236.79711,12.3619513 C1236.79711,12.3887269 1236.84317,12.5187795 1236.87003,12.5991062 C1236.86838,12.6143623 1236.86838,12.629751 1236.87003,12.6450071 C1236.90074,12.7329839 1236.93528,12.8171357 1236.96982,12.9051125 L1237.02739,13.0351651 L1237.07344,13.1422673 C1237.29837,13.5630833 1237.47723,14.0067953 1237.60692,14.4657445 C1237.67852,14.7561311 1237.66114,15.0612429 1237.55702,15.3416875 C1237.40072,15.6590932 1237.18288,15.9425016 1236.91609,16.1755546 C1235.76997,17.3639329 1234.88505,18.7774103 1234.3178,20.3257647 C1234.25255,20.5017183 1234.18731,20.6776719 1234.12974,20.8612757 L1234.12974,20.8612757 L1234.21034,20.8804011 C1234.37474,20.9304915 1234.54285,20.9675822 1234.71311,20.9913284 C1234.80906,20.9913284 1234.905,21.0142789 1235.00479,21.021929 C1235.3986,21.0426388 1235.79344,21.0117749 1236.1792,20.9301271 C1236.27515,20.9110017 1236.37494,20.8880513 1236.47089,20.8612757 C1236.86605,20.7524819 1237.25122,20.6104438 1237.62227,20.436692 C1237.62227,20.5514444 1237.62227,20.6700218 1237.62227,20.7847741 C1237.62227,20.8995265 1237.62227,20.9148268 1237.62227,20.9798531 C1237.6305,26.1237984 1240.55682,30.8207269 1245.17918,33.109177 C1245.17918,33.2315795 1245.21372,33.3578071 1245.22908,33.4916849 C1245.24443,33.6255626 1245.25594,33.6982391 1245.26746,33.8015162 L1245.11394,33.6523382 C1245.11394,33.6523382 1244.07385,33.1397777 1243.09518,34.620083 C1242.1165,36.1003884 1240.27429,36.7889025 1240.27429,36.7889025 C1240.27429,36.7889025 1229.78902,38.4413364 1229.38604,39.8107145 L1224.48882,40.0937704 C1224.48882,40.0937704 1222.75791,40.3232751 1222.56985,43.9188488 C1222.38179,47.5144226 1221.47603,47.8548546 1221.47603,47.8548546 C1221.47603,47.8548546 1219.46111,51.3892271 1219.63382,53.2099645 C1219.80653,55.0307019 1218.09864,55.9487207 1218.09864,55.9487207 L1217.86837,59.1962123 C1217.86837,59.1962123 1215.94939,58.9131565 1215.44662,61.1355271 C1214.94385,63.3578977 1214.00739,64.3868438 1214.00739,64.3868438 C1214.00739,64.3868438 1210.83725,67.0108477 1210.66454,69.2332183 L1208.70719,70.4304679 C1208.70719,70.4304679 1204.15539,69.4053468 1203.11914,67.5807844 L1202.80059,67.2824283 C1202.79023,67.2679893 1202.78124,67.2526231 1202.77373,67.2365273 C1202.7729,67.2441554 1202.7729,67.2518497 1202.77373,67.2594778 C1202.09057,66.6168646 1200.64751,65.2780871 1200.85476,65.5840934 C1200.98925,65.8707739 1201.02174,66.1945656 1200.94687,66.5021122 L1200.60913,66.1196044 L1199.70337,65.1174338 C1199.70337,65.1174338 1192.34603,58.2322926 1188.02451,57.7044317 L1188.02451,57.7044317 C1187.96694,57.5935044 1187.6906,56.5110072 1186.95372,57.1880461 C1185.71638,58.3154057 1185.00809,59.906854 1185.00007,61.5776748 C1184.99205,63.2484955 1185.68504,64.8466231 1186.9115,65.9857266 L1193.80061,72.4003833 L1193.97716,72.5304359 L1195.45861,74.4429752 C1195.20914,75.0396874 1194.99805,75.6172743 1194.82534,76.1451351 C1194.82534,76.1451351 1194.82534,76.1795608 1194.80615,76.1948611 C1194.77161,76.3096135 1194.73323,76.4167157 1194.69869,76.5238179 L1194.66415,76.6385702 C1194.63345,76.7456724 1194.59891,76.8527746 1194.5682,76.9522267 C1194.5375,77.0516787 1194.53366,77.0784543 1194.51447,77.1396555 C1194.49528,77.2008568 1194.51447,77.212332 1194.48377,77.2467577 C1194.32257,77.8205195 1194.21511,78.2604035 1194.16138,78.5052085 L1193.77759,78.3866311 L1194.16138,78.5472844 C1194.16138,78.5664098 1194.16138,78.5893603 1194.16138,78.6084857 L1194.13835,78.7270631 L1194.49144,78.8800662 C1196.5102,79.7560092 1206.58481,84.1586746 1207.10293,84.8280633 C1207.67862,85.5663034 1211.47819,87.7351229 1214.93618,85.9105605 C1218.39416,84.0859981 1219.15792,81.2898657 1219.15792,81.2898657 C1219.15792,81.2898657 1222.49693,76.6729959 1222.61207,75.9883069 C1222.7272,75.3036178 1225.32166,74.5041764 1225.32166,74.5041764 C1225.32166,74.5041764 1225.55193,82.1543334 1224.22784,84.9389906 C1222.90375,87.7236477 1220.42444,100.109252 1220.42444,100.109252 C1220.58605,100.077012 1220.75131,100.066718 1220.91569,100.078651 C1220.82358,100.526185 1220.76985,100.793941 1220.76985,100.793941 C1220.97162,100.757513 1221.17832,100.757513 1221.38009,100.793941 C1221.19586,102.20157 1220.13659,108.734804 1220.13659,108.734804 C1220.13659,108.734804 1219.79118,111.69924 1219.21548,112.724361 C1218.63979,113.749482 1218.58222,119.112242 1218.58222,119.112242 L1217.66112,122.987046 C1217.76617,123.215885 1217.88274,123.439298 1218.01037,123.656435 L1218.01037,123.656435 C1218.01037,123.656435 1219.00056,125.84438 1220.66239,127.07223 C1220.58637,127.681582 1220.43023,128.278316 1220.198,128.847067 C1219.83745,129.711844 1219.67993,130.647291 1219.73745,131.581998 C1219.73745,131.581998 1218.75877,135.973188 1218.87391,137.227814 C1218.98905,138.482439 1218.24065,141.561627 1218.24065,141.561627 L1217.16986,151.45328 C1217.16986,151.45328 1216.47903,160.063532 1216.82444,162.40448 C1217.16986,164.745428 1216.59033,167.931719 1216.59033,167.931719 C1216.59033,167.931719 1217.28116,174.717408 1217.10845,175.459473 C1216.93575,176.201538 1216.07221,179.391654 1216.59033,181.162665 C1217.10845,182.933676 1216.82444,187.776226 1216.82444,187.776226 C1216.82444,187.776226 1217.16986,194.160282 1217.56901,196.214349 C1217.96815,198.268416 1217.45387,200.89242 1217.45387,200.89242 C1217.45387,200.89242 1217.07007,205.279785 1216.87818,205.279785 C1216.68628,205.279785 1215.20867,208.301597 1218.25984,211.269858 C1221.311,214.238119 1219.41122,213.775284 1219.41122,213.775284 C1219.41122,213.775284 1216.99331,212.578035 1217.27732,215.02991 C1217.55365,217.363208 1217.93361,216.75502 1217.96815,216.689994 L1217.39246,218.564283 L1217.77626,218.621659 L1217.44235,219.004167 C1217.09693,219.439391 1216.71146,219.841497 1216.29097,220.205241 C1215.5963,220.717802 1215.52338,221.857675 1215.52338,221.857675 C1215.52338,221.857675 1211.26326,226.47837 1207.28715,228.815493 C1205.19547,230.047168 1203.39164,231.087589 1202.60486,231.948232 C1201.89484,232.713248 1202.00998,233.348211 1203.48375,233.833996 C1206.59632,234.859117 1212.06539,235.364027 1215.98393,234.063501 C1218.3197,233.285497 1220.42018,231.931539 1222.09011,230.127495 C1222.09011,230.127495 1224.56942,228.872869 1226.99116,229.328053 C1229.4129,229.783238 1234.24872,226.650498 1234.24872,226.650498 L1234.16044,225.839582 L1233.9033,223.510109 C1233.57439,223.11327 1233.42814,222.596849 1233.50032,222.08718 C1233.52895,221.397651 1233.46048,220.707525 1233.2969,220.036938 C1233.25853,219.811258 1233.21247,219.585578 1233.17025,219.375199 L1233.61162,219.294872 C1233.61162,219.294872 1233.03976,216.383988 1234.07601,215.814051 C1235.11225,215.244114 1234.82057,207.781386 1234.82057,207.781386 C1234.82057,207.781386 1233.50032,206.071576 1232.80565,205.78852 C1232.11098,205.505465 1232.74808,201.963442 1232.86705,201.508258 C1232.98603,201.053073 1233.9033,192.213317 1233.9033,192.213317 C1233.9033,192.213317 1233.55788,189.421009 1234.01844,188.22376 C1234.47899,187.02651 1233.46577,182.436416 1233.46577,182.436416 C1233.46577,182.436416 1233.12036,181.866479 1233.75746,181.18179 C1234.39456,180.497101 1234.14125,174.396101 1234.14125,174.396101 C1234.14125,174.396101 1234.08752,171.316913 1234.08752,170.517472 C1234.08752,169.71803 1234.77835,166.810971 1235.41161,165.843226 C1236.04487,164.875481 1235.64189,161.849844 1235.64189,161.849844 L1235.64189,161.849844 L1235.67643,161.624164 C1235.67643,161.536187 1235.70713,161.429085 1235.73016,161.299032 L1235.78006,160.996851 C1236.06096,159.317042 1236.44159,157.655315 1236.91992,156.020424 C1237.68751,153.625925 1238.53186,149.406863 1238.53186,149.406863 L1243.90498,135.483578 L1243.96639,135.319099 C1243.96639,135.319099 1246.44187,139.882418 1246.44187,144.11678 C1246.44187,144.11678 1247.07513,149.192659 1246.90242,150.562037 C1246.72971,151.931415 1247.41287,158.338422 1247.41287,158.338422 C1247.41287,158.338422 1248.16127,167.575986 1248.16127,167.977619 C1248.16127,168.379253 1249.08237,175.505374 1249.6619,176.587871 C1250.24143,177.670368 1249.08237,180.979061 1248.73696,181.319493 C1248.39154,181.659925 1248.8521,190.044497 1248.8521,190.044497 C1248.8521,190.044497 1247.98856,196.658058 1247.81585,198.027436 C1247.64314,199.396814 1246.95231,204.644822 1247.528,206.695064 C1248.1037,208.745306 1247.87342,209.032187 1247.87342,209.032187 C1247.87342,209.032187 1249.94975,211.14363 1248.73696,211.327234 C1247.84501,211.520997 1247.08038,212.089011 1246.63922,212.885551 C1246.19807,213.682091 1246.12334,214.629638 1246.43419,215.485094 C1247.15164,217.575601 1247.9989,219.619591 1248.97107,221.60522 C1248.97107,221.60522 1249.328,221.524893 1249.92288,221.406316 L1249.92288,222.083355 L1249.99197,225.480024 C1249.99197,225.480024 1250.37576,228.731341 1250.16467,229.473406 C1249.9958,230.016568 1249.78088,232.57172 1249.65423,233.906672 C1249.61201,234.392457 1249.58898,234.717589 1249.58898,234.717589 C1249.58898,234.717589 1249.58898,237.739401 1255.983,236.829032 C1262.37701,235.918664 1263.5284,233.409412 1263.5284,233.409412 C1263.5284,233.409412 1263.5284,233.290835 1263.57445,233.095756 C1263.6704,232.518169 1263.87765,231.294144 1264.04652,230.61328 C1264.2768,229.699086 1262.20431,225.594777 1262.20431,225.594777 C1262.20431,225.594777 1261.85889,222.802469 1261.27936,222.175157 C1261.04189,221.813395 1260.88486,221.405169 1260.81881,220.977907 C1260.76508,220.748402 1260.71902,220.507422 1260.68064,220.274093 C1260.82387,220.292316 1260.96606,220.31785 1261.10665,220.350594 C1261.10665,220.350594 1260.76124,218.353903 1262.08917,217.72659 C1263.4171,217.099277 1263.06784,215.791101 1262.89514,215.217339 C1262.72243,214.643577 1263.41326,211.453462 1263.41326,211.453462 C1263.22451,210.808211 1263.4007,210.111679 1263.87381,209.632724 C1264.68362,208.829458 1265.31304,203.244843 1265.31304,203.244843 L1265.42818,181.690526 C1265.42818,181.690526 1265.835,177.865447 1265.37445,176.335416 C1264.9139,174.805385 1264.4495,171.833299 1265.08277,171.033857 C1265.71603,170.234416 1265.14033,166.53174 1265.14033,166.53174 C1265.14033,166.53174 1265.14033,158.717104 1266.00771,156.781615 C1266.87509,154.846125 1266.5834,142.582923 1266.5834,142.582923 L1266.80984,134.550259 C1266.80984,134.550259 1268.69427,132.775422 1268.24907,123.522557 C1270.25631,123.39633 1272.5207,123.323653 1272.8546,123.599059 C1273.48786,124.115444 1277.57911,126.735623 1279.99702,125.083189 C1280.51514,124.853685 1282.87548,122.860819 1282.87548,122.860819 L1281.86226,105.762718 C1282.49552,106.715162 1282.87932,107.350125 1282.87932,107.350125 C1282.87932,104.955626 1289.67632,97.1983671 1289.67632,97.1983671 C1289.67632,97.1983671 1296.01276,89.0471249 1297.39442,88.0755549 C1298.77608,87.103985 1301.48567,81.9745547 1301.48567,81.9745547 C1301.88595,80.9961353 1302.34873,80.0442898 1302.87117,79.1248713 C1303.52746,78.0729747 1301.45113,75.3342185 1301.68141,74.7069056 Z M1286.81321,80.6893284 C1285.08613,80.8614569 1281.44009,84.7974627 1281.39787,85.6619304 C1281.371,86.1132897 1280.98721,86.7176521 1280.63028,87.1919618 C1280.60341,86.8477047 1280.57271,86.4957975 1280.54585,86.1400652 C1280.13902,81.1024368 1279.69766,74.9631859 1279.89723,74.3664736 C1280.24649,73.3413526 1280.12751,68.7244828 1280.12751,68.7244828 L1280.12751,68.7244828 L1280.18892,68.636506 C1281.3403,72.2129544 1284.95948,76.432016 1284.95948,76.432016 C1284.95948,76.432016 1285.59274,78.2565784 1286.34114,78.3139546 C1287.08954,78.3713308 1286.81321,80.6893284 1286.81321,80.6893284 Z" id="Shape" fill="url(#linearGradient-1)" fill-rule="nonzero"></path>
                <path d="M1195,78.6756212 C1195,78.6756212 1197.13018,68.0555058 1203.98804,68 L1209,77.7986291 L1205.65869,79.9892591 C1205.65869,79.9892591 1198.39972,80.207582 1195,78.6756212 Z" id="Path" fill="#65617D"></path>
                <path d="M1209,77.7963366 L1205.65869,79.9889382 C1205.65869,79.9889382 1200.54937,80.1444944 1196.89652,79.2889353 C1196.24516,79.1420544 1195.61008,78.9361752 1195,78.674118 C1195,78.674118 1195,78.6148585 1195.03894,78.5037469 C1195.03894,78.5037469 1195.03894,78.4778209 1195.03894,78.463006 C1195.35344,77.1289947 1195.78729,75.8229988 1196.33574,74.5592863 C1196.54993,74.0815065 1196.78748,73.5889119 1197.04451,73.0963173 C1198.04924,71.2444578 1199.45897,69.4592653 1201.39054,68.566669 C1202.10464,68.2333341 1202.88217,68.0405916 1203.6765,68 L1203.879,68 L1203.98025,68 L1204.08929,68.2185194 L1205.78331,71.5296442 L1209,77.7963366 Z" id="Path" fill="#000000" opacity="0.1"></path>
                <path d="M1265.10335,124.121444 C1265.10335,124.121444 1272.12282,123.429019 1272.7375,123.949316 C1273.35218,124.469612 1277.34,127.129773 1279.70006,125.451524 C1282.06012,123.773275 1280.48548,117.928745 1280.48548,117.697937 C1280.48548,117.467129 1280.26161,109.189334 1280.26161,109.189334 L1276.04993,103.344804 L1270.77584,93.1031844 L1260,92 L1260.28078,108.266102 L1260.22386,116.598665 L1265.10335,124.121444 Z" id="Path" fill="#65617D"></path>
                <path d="M1265.10335,124.121444 C1265.10335,124.121444 1272.12282,123.429019 1272.7375,123.949316 C1273.35218,124.469612 1277.34,127.129773 1279.70006,125.451524 C1282.06012,123.773275 1280.48548,117.928745 1280.48548,117.697937 C1280.48548,117.467129 1280.26161,109.189334 1280.26161,109.189334 L1276.04993,103.344804 L1270.77584,93.1031844 L1260,92 L1260.28078,108.266102 L1260.22386,116.598665 L1265.10335,124.121444 Z" id="Path" fill="#000000" opacity="0.1"></path>
                <path d="M1202,67.1572544 C1202,67.1572544 1201.43833,73.8917996 1197.17265,74 C1197.17265,74 1195.96202,73.2836384 1194.33393,72.0897024 C1190.58438,69.3324565 1184.63749,64.0306345 1186.28076,59.0981865 C1188.63751,52.035309 1200.09107,65.0678664 1200.09107,65.0678664 L1200.96774,66.0379394 L1202,67.1572544 Z" id="Path" fill="#FBBEBE"></path>
                <path d="M1202,67.1246485 C1202,67.1246485 1201.44019,73.891284 1197.18865,74 C1197.18865,74 1195.98203,73.2802249 1194.35934,72.0805998 L1194,71.6194939 C1194.72175,71.9924559 1195.51692,72.2048313 1196.33002,72.2417994 C1197.63933,72.2934977 1198.84425,71.5366757 1199.35603,70.3411434 C1199.80331,69.4711759 1200.19617,68.5747627 1200.53239,67.6569822 C1200.7394,67.1222372 1200.88654,66.5665798 1200.97116,66 L1202,67.1246485 Z" id="Path" fill="#000000" opacity="0.1"></path>
                <path d="M1200.88816,80 L1199.92019,78.7754558 L1196.66047,74.6435584 L1195,72.5362907 C1195.72926,72.9119391 1196.53402,73.1248547 1197.35679,73.1598315 C1198.43954,73.1861254 1199.65237,72.7842045 1200.41756,71.2591587 C1200.86917,70.3858018 1201.26652,69.4864087 1201.60744,68.5659128 C1202.14307,67.0634046 1202.13542,66.3121506 1201.94412,66.0379428 C1201.75282,65.7637351 1203.14547,67.0446233 1203.81502,67.6681642 L1203.83797,67.6907018 L1204.1517,67.9799346 L1204.26648,68.2053108 L1205.90782,71.4244346 C1205.90782,71.4244346 1205.90782,71.4695099 1205.90782,71.5596603 C1206.06851,72.5926347 1206.62327,79.0797137 1200.88816,80 Z" id="Path" fill="#E7EFFD"></path>
                <path d="M1234,225.926224 C1234,225.926224 1229.32074,229.008934 1226.983,228.577203 C1224.64525,228.145472 1222.24728,229.364923 1222.24728,229.364923 C1220.63524,231.135642 1218.60303,232.466016 1216.3408,233.231565 C1212.57631,234.519183 1207.26839,234.01171 1204.26057,233.004338 C1202.83759,232.527162 1202.72089,231.913649 1203.40603,231.15244 C1204.15892,230.304127 1205.91317,229.285393 1207.92341,228.073517 C1211.76695,225.778527 1215.8853,221.256715 1215.8853,221.256715 C1215.8853,221.256715 1215.94176,220.120581 1216.61184,219.63583 C1217.02428,219.278462 1217.4024,218.88286 1217.74119,218.454251 C1218.33974,217.742274 1218.90065,217 1218.90065,217 L1232.66361,217.401434 C1232.66361,217.401434 1232.89701,218.397445 1233.08147,219.416178 C1233.23852,220.076755 1233.30314,220.756156 1233.27345,221.434709 C1233.20209,221.932813 1233.3383,222.438459 1233.6499,222.832153 L1233.89836,225.104421 L1234,225.926224 Z" id="Path" fill="#65617D"></path>
                <path d="M1263.98283,229.737847 C1263.81713,230.40653 1263.60624,231.604115 1263.52715,232.167018 L1263.47819,232.476803 C1263.47819,232.476803 1262.34842,234.936198 1256.18363,235.831553 C1250.01883,236.726909 1250,233.76128 1250,233.76128 C1250,233.76128 1250.0226,233.443939 1250.06025,232.964149 C1250.16947,231.657005 1250.39165,229.152277 1250.55735,228.619597 C1250.77578,227.894245 1250.38789,224.705722 1250.38789,224.705722 L1250.32387,221.377417 L1250.27491,219.06536 L1260.52949,218 C1260.59265,218.769271 1260.70333,219.533869 1260.86089,220.28939 C1260.92364,220.708977 1261.07655,221.109869 1261.30903,221.464308 C1261.86638,222.080101 1262.19779,224.819058 1262.19779,224.819058 C1262.19779,224.819058 1264.20502,228.842491 1263.98283,229.737847 Z" id="Path" fill="#65617D"></path>
                <path d="M1233.56588,217.402494 C1233.56588,217.402494 1233.80836,218.292038 1234,219.201877 C1232.45515,219.448785 1225.70472,220.460092 1224.01907,219.753192 C1222.10658,218.951587 1218,218.501741 1218,218.501741 L1218.06649,218.298803 C1218.68834,217.662931 1219.27108,217 1219.27108,217 L1233.56588,217.402494 Z" id="Path" fill="#000000" opacity="0.1"></path>
                <path d="M1261,220.033557 C1258.30181,219.64094 1252.39708,220.590604 1250.05084,221 L1250,218.946309 L1260.64806,218 C1260.71623,218.683448 1260.83377,219.362606 1261,220.033557 L1261,220.033557 Z" id="Path" fill="#000000" opacity="0.1"></path>
                <path d="M1266.50115,134.375871 L1266.27575,142.37454 C1266.27575,142.37454 1266.55846,154.571936 1265.71033,156.500665 C1264.86219,158.429395 1264.86219,166.201832 1264.86219,166.201832 C1264.86219,166.201832 1265.42762,169.886741 1264.80489,170.680473 C1264.18216,171.474205 1264.63679,174.422899 1265.0876,175.95668 C1265.53841,177.490461 1265.14491,181.290404 1265.14491,181.290404 L1265.03029,202.732666 C1265.03029,202.732666 1264.41139,208.288788 1263.61674,209.086354 C1263.15266,209.56569 1262.98056,210.258103 1263.16593,210.900051 C1263.16593,210.900051 1262.48971,214.074978 1262.65781,214.646311 C1262.82591,215.217645 1263.16593,216.517524 1261.86699,217.138706 C1260.56804,217.759887 1260.90424,219.749968 1260.90424,219.749968 C1257.79824,219.009919 1248.98071,221 1248.98071,221 C1248.02795,219.028704 1247.19734,217.000255 1246.49362,214.926226 C1246.18635,214.076924 1246.25845,213.135937 1246.69148,212.343772 C1247.12452,211.551607 1247.87653,210.98503 1248.75531,210.788852 C1249.93964,210.616301 1247.90717,208.518855 1247.90717,208.518855 C1247.90717,208.518855 1248.13258,208.235106 1247.56716,206.195177 C1247.00174,204.155248 1247.67795,198.909716 1247.84987,197.567657 C1248.02179,196.225599 1248.8661,189.626505 1248.8661,189.626505 C1248.8661,189.626505 1248.41529,181.290404 1248.75531,180.949138 C1249.09533,180.607872 1250.22235,177.317911 1249.66075,176.24043 C1249.09915,175.162948 1248.18607,168.073045 1248.18607,167.674262 C1248.18607,167.275479 1247.45637,158.088129 1247.45637,158.088129 C1247.45637,158.088129 1246.77633,151.676924 1246.94825,150.315693 C1247.12017,148.954462 1246.49362,143.908322 1246.49362,143.908322 C1246.49362,139.690423 1244.06383,135.169603 1244.06383,135.169603 L1244.00271,135.334485 L1238.76491,149.184529 C1238.76491,149.184529 1237.91678,153.379421 1237.18326,155.760616 C1236.71939,157.379919 1236.35073,159.025178 1236.07916,160.687888 L1236.02949,160.99081 C1236.02949,161.117347 1235.99129,161.224712 1235.97983,161.30907 L1235.94544,161.539137 L1235.94544,161.539137 C1235.94544,161.539137 1236.32748,164.545348 1235.71622,165.51163 C1235.10495,166.477912 1234.41728,169.36909 1234.41728,170.162822 C1234.41728,170.956553 1234.47458,174.020281 1234.47458,174.020281 C1234.47458,174.020281 1234.69999,180.090221 1234.09254,180.772753 C1233.48509,181.455286 1233.80601,182.01895 1233.80601,182.01895 C1233.80601,182.01895 1234.82224,186.620294 1234.37143,187.80514 C1233.92062,188.989986 1234.26064,191.773799 1234.26064,191.773799 C1234.26064,191.773799 1233.3552,200.570034 1233.24441,201.0225 C1233.13361,201.474965 1232.50707,204.994993 1233.1871,205.278743 C1233.86714,205.562492 1235.16226,207.261155 1235.16226,207.261155 C1235.16226,207.261155 1235.44879,214.696159 1234.42874,215.259824 C1233.40868,215.823488 1233.97411,218.710832 1233.97411,218.710832 C1233.97411,218.710832 1225.78313,220.298295 1223.91876,219.38953 C1222.0544,218.480764 1218.03914,217.970782 1218.03914,217.970782 L1218.60074,216.107238 C1218.56636,216.172424 1218.19196,216.778267 1217.92453,214.454589 C1217.64564,212.015877 1220.01812,213.204557 1220.01812,213.204557 C1220.01812,213.204557 1221.88248,213.660857 1218.87199,210.712163 C1215.8615,207.763468 1217.34382,204.753422 1217.51574,204.753422 C1217.68766,204.753422 1218.08498,200.389815 1218.08498,200.389815 C1218.08498,200.389815 1218.5931,197.778552 1218.19578,195.734789 C1217.79845,193.691025 1217.46226,187.337337 1217.46226,187.337337 C1217.46226,187.337337 1217.74497,182.517429 1217.23685,180.76125 C1216.72874,179.00507 1217.57305,175.822474 1217.74497,175.086259 C1217.91689,174.350044 1217.21775,167.616745 1217.21775,167.616745 C1217.21775,167.616745 1217.78317,164.441818 1217.44315,162.118139 C1217.10314,159.794461 1217.78317,151.224458 1217.78317,151.224458 L1218.7994,141.354576 C1218.7994,141.354576 1219.53292,138.287014 1219.42213,137.040816 C1219.31134,135.794619 1220.27408,131.427177 1220.27408,131.427177 C1220.2164,130.497104 1220.37057,129.566063 1220.72489,128.704715 C1221.29032,127.55438 1221.51572,123.827291 1221.51572,123.827291 L1226.94454,111.346147 L1229.61883,100.341266 L1265.50402,100 C1265.50402,100 1265.63774,100.954779 1265.8555,102.684117 C1266.07327,104.413455 1266.3789,106.982539 1266.71892,110.153632 C1267.03219,113.033306 1267.37603,116.419128 1267.70841,120.188395 C1268.79341,132.220909 1266.50115,134.375871 1266.50115,134.375871 Z" id="Path" fill="#3F3D56"></path>
                <g id="Group-6-Copy" transform="translate(920.000000, 232.000000) scale(-1, 1) translate(-920.000000, -232.000000) translate(900.000000, 221.000000)">
                    <path d="M5.32873563,5.50488889 C5.32873563,5.50488889 14.5563218,5.20177778 17.337931,3.09466667 C20.1195402,0.987555556 31.5402299,-1.52533333 32.2298851,1.85288889 C32.9195402,5.23111111 46.1011494,18.656 35.6781609,18.744 C25.2551724,18.832 11.4666667,17.0182222 8.68965517,15.2191111 C5.91264368,13.42 5.32873563,5.50488889 5.32873563,5.50488889 Z" id="Path" fill="#5F5D7E"></path>
                    <path d="M35.8666667,17.5657778 C25.4436782,17.6586667 11.6505747,15.84 8.87356322,14.0408889 C6.75862069,12.672 5.91724138,7.75866667 5.65517241,5.49022222 L5.34712644,5.49022222 C5.34712644,5.49022222 5.93103448,13.4053333 8.70804598,15.2044444 C11.4850575,17.0035556 25.2597701,18.8173333 35.6965517,18.7293333 C38.708046,18.7293333 39.7471264,17.5657778 39.6873563,15.8791111 C39.2505747,16.9106667 38.1057471,17.5266667 35.8666667,17.5657778 Z" id="Path" fill="#000000" opacity="0.2"></path>
                    <ellipse id="Oval" fill="#12344D" opacity="0.1" cx="16.1931034" cy="19.0177778" rx="16.183908" ry="2.90888889"></ellipse>
                </g>
                <path d="M1263,35.151604 L1254.678,44 C1254.678,44 1244,39.7423244 1245.1248,38.2890378 C1245.558,37.7251323 1245.5048,35.9463701 1245.2388,33.985947 C1244.8588,30.8825746 1244,27.3136963 1244,27.3136963 C1244,27.3136963 1262.6618,24.2860159 1261.1,27.4234497 C1260.5262,28.5588298 1260.625,29.9061476 1260.9822,31.143712 C1261.4343,32.5789412 1262.11563,33.9322479 1263,35.151604 L1263,35.151604 Z" id="Path" fill="#FBBEBE"></path>
                <path d="M1260.90684,27.3692781 C1260.33915,28.4593791 1260.06846,28.5756565 1260.42186,29.7638666 C1258.00821,32.2601979 1254.93663,34.9999851 1251.11689,34.9999851 C1249.07271,35.0030018 1247.05582,34.5464553 1245.22562,33.6664282 C1244.84967,30.6868188 1244,27.260268 1244,27.260268 C1244,27.260268 1262.46331,24.3533319 1260.90684,27.3692781 Z" id="Path" fill="#000000" opacity="0.1"></path>
                <path d="M1265,21.6607095 C1264.87585,29.0638766 1258.86821,35 1251.5,35 C1244.13179,35 1238.12415,29.0638766 1238,21.6607095 C1238,21.5952199 1238,21.5297303 1238,21.468093 C1238.05293,13.9768739 1244.13914,7.94715964 1251.59392,8.00034921 C1259.04871,8.05353878 1265.0491,14.1694904 1264.99617,21.6607095 L1265,21.6607095 Z" id="Path" fill="#FBBEBE"></path>
                <path d="M1266,109.804821 C1264.21171,109.804821 1258.25204,109.864146 1251.59009,109.958366 L1251.50951,109.958366 L1249.3106,109.993263 L1249.24153,109.993263 C1241.3439,110.108421 1233.55756,108.705581 1230.43766,108.970795 C1223.79874,109.536118 1232.8246,103.387351 1232.8246,103.387351 C1237.77417,104.481174 1242.86565,104.950861 1247.95596,104.783212 L1249.87472,104.692481 C1255.90731,104.381902 1261.97444,103.865434 1265.14423,103 C1265.3553,104.598261 1265.65846,106.918879 1266,109.804821 Z" id="Path" fill="#000000" opacity="0.1"></path>
                <path d="M1266,109.804724 C1264.21171,109.804724 1258.25204,109.864078 1251.59009,109.958345 L1251.50951,109.958345 L1249.3106,109.993259 L1249.24153,109.993259 C1241.3439,110.108475 1233.55756,108.704935 1230.43766,108.970281 C1223.79874,109.539378 1232.8246,103.384053 1232.8246,103.384053 C1237.77417,104.478422 1242.86565,104.948343 1247.95596,104.78061 L1249.87472,104.689834 C1255.90731,104.3791 1261.97444,103.862374 1265.14423,103 C1265.3553,104.599058 1265.65846,106.91036 1266,109.804724 Z" id="Path" fill="#5F5D7E"></path>
                <path d="M1247.3865,40.0339096 L1237.00739,44.9007646 L1229,107 C1229,107 1233.7358,104.851396 1236.44688,106.20861 C1239.15795,107.565824 1247.5047,106.323305 1247.5047,106.323305 C1247.5047,106.323305 1253.60557,105.983045 1254.50164,106.663564 C1255.39771,107.344082 1266.00178,103.819149 1266.00178,103.819149 C1266.00178,103.819149 1267.9083,99.5219415 1266.45172,98.8490691 C1264.99514,98.1761968 1266.91691,91.5048205 1266.91691,91.5048205 L1266.00178,46.709109 L1264.1944,40.9399934 L1259.34421,38 L1254.38725,41.9569481 L1252.01935,42.2972074 L1247.3865,40.0339096 Z" id="Path" fill="#000000" opacity="0.1"></path>
                <path d="M1247.38281,39.0376198 L1237.00579,43.9003823 L1229,106 C1229,106 1233.73485,103.851515 1236.44538,105.208654 C1239.15591,106.565793 1247.50099,105.319519 1247.50099,105.319519 C1247.50099,105.319519 1253.60064,104.983102 1254.49652,105.65976 C1255.39241,106.336418 1266.00198,102.830794 1266.00198,102.830794 C1266.00198,102.830794 1267.90812,98.5338246 1266.45183,97.8609895 C1264.99554,97.1881545 1266.9093,90.4980331 1266.9093,90.4980331 L1265.99436,45.7086265 L1264.18734,39.9436534 L1259.33812,37 L1254.38215,40.9605518 L1252.01473,41.3007923 L1247.38281,39.0376198 Z" id="Path" fill="#E7EFFD"></path>
                <path d="M1247.07256,41.9222011 C1247.07256,41.9222011 1250.06212,45.459203 1250.00873,46.1916509 C1249.95535,46.9240987 1249.83714,48.6622391 1249.83714,48.6622391 L1247.57972,53.2163188 C1247.57972,53.2163188 1246.34043,58.886148 1246.34043,60.0664137 C1246.34043,61.2466793 1244.36518,71.4516129 1244.36518,71.4516129 L1241.98956,87.1745731 L1239,107.781784 L1242.05057,113 L1245.65786,109.963947 L1250.45488,73.2428843 L1251.46919,66.0018975 C1251.46919,66.0018975 1252.5407,52.9772296 1252.5407,51.629981 C1252.5407,50.2827324 1251.92296,46.7457306 1251.92296,46.7457306 C1251.92296,46.7457306 1252.6551,43.3757116 1255.70185,42.5711575 C1258.7486,41.7666034 1255.47687,42.4003795 1255.47687,42.4003795 L1253.72661,41 L1252.20133,41.6148008 C1252.20133,41.6148008 1247.97629,40.3510436 1247.07256,41.9222011 Z" id="Path" fill="#000000" opacity="0.1"></path>
                <path d="M1246.06323,40.8997627 C1246.06323,40.8997627 1249.05596,44.4380701 1248.99878,45.1669918 C1248.94159,45.8959135 1248.82722,47.638492 1248.82722,47.638492 L1246.57409,52.1942526 C1246.57409,52.1942526 1245.33125,57.8661745 1245.33125,59.0468758 C1245.33125,60.2275771 1243.35642,70.4362774 1243.35642,70.4362774 L1240.98892,86.1612444 L1238,106.776061 L1241.04992,112 L1244.66026,108.962826 L1249.45245,72.2320063 L1250.47036,64.9921434 C1250.47036,64.9921434 1251.54165,51.9626681 1251.54165,50.6149222 C1251.54165,49.2671764 1250.92404,45.728869 1250.92404,45.728869 C1250.92404,45.728869 1251.65602,42.3576061 1254.70213,41.5717374 C1257.74823,40.7858687 1254.47719,41.4046929 1254.47719,41.4046929 L1252.7273,40 L1251.20234,40.6188241 C1251.20234,40.6188241 1246.96677,39.3242288 1246.06323,40.8997627 Z" id="Path" fill="#12344D"></path>
                <path d="M1244.30849,35 C1244.30849,35 1243.84445,35.3417819 1243.73137,37.6152074 C1243.61828,39.8886329 1242,45 1242,45 C1242,45 1248.0013,40.9101382 1251,41.3632873 L1244.30849,35 Z" id="Path" fill="#000000" opacity="0.1"></path>
                <path d="M1244.30849,34 C1244.30849,34 1243.84445,34.3380715 1243.73137,36.6123703 C1243.61828,38.8866692 1242,44 1242,44 C1242,44 1248.0013,39.908567 1251,40.3657318 L1244.30849,34 Z" id="Path" fill="#E7EFFD"></path>
                <path d="M1261.40423,34 L1252,42.1511916 C1252,42.1511916 1259.90915,46.7931613 1260.93944,47.9259091 C1261.96972,49.0586568 1263,36.8280425 1263,36.8280425 L1261.40423,34 Z" id="Path" fill="#000000" opacity="0.1"></path>
                <path d="M1261.39317,33 L1252,41.1527899 C1252,41.1527899 1259.9025,45.7934911 1260.94016,46.9259293 C1261.97782,48.0583675 1263,35.8310955 1263,35.8310955 L1261.39317,33 Z" id="Path" fill="#E7EFFD"></path>
                <path d="M1245.82674,35.0841156 C1245.82674,35.0841156 1244.8147,34.5802957 1243.85973,36.0387217 C1243.15642,36.9893927 1242.20135,37.7265142 1241.10134,38.1676447 C1241.10134,38.1676447 1230.85536,39.7927479 1230.44826,41.1375302 L1225.66198,41.4178511 C1225.66198,41.4178511 1223.97271,41.6413501 1223.8053,45.1718773 C1223.63789,48.7024045 1222.73619,49.0395471 1222.73619,49.0395471 C1222.73619,49.0395471 1220.76537,52.5132525 1220.93658,54.3050329 C1221.10779,56.0968133 1219.41471,56.9983857 1219.41471,56.9983857 L1226.44955,75.2116632 C1226.44955,75.2116632 1226.67783,82.7197157 1225.38043,85.4661022 C1224.08304,88.2124886 1221.66707,100.372352 1221.66707,100.372352 C1221.66707,100.372352 1222.67912,100.148853 1222.62205,100.81935 C1222.56498,101.489847 1221.41977,108.83501 1221.41977,108.83501 C1221.41977,108.83501 1221.08116,111.748074 1220.51806,112.759502 C1219.95497,113.770929 1219.8979,119.032627 1219.8979,119.032627 L1219,122.843475 C1219,122.843475 1221.13823,127.608929 1224.40263,126.934644 C1227.66704,126.260359 1233.5757,113.543642 1233.5757,113.543642 L1237.34993,99.8117099 L1240.27572,86.2502428 L1241.12036,77.0602654 L1242.47102,56.7180649 L1244.44184,43.2664533 C1244.44184,43.2664533 1246.61811,36.0273573 1245.82674,35.0841156 Z" id="Path" fill="#000000" opacity="0.1"></path>
                <path d="M1244.83013,35.084375 C1244.83013,35.084375 1243.81559,34.580553 1242.86185,36.035197 C1242.16076,36.9871446 1241.20652,37.724578 1240.10702,38.1641292 C1240.10702,38.1641292 1229.87806,39.7892393 1229.46768,41.1340274 L1224.68758,41.4143495 C1224.68758,41.4143495 1223.00429,41.6416376 1222.8333,45.1721799 C1222.66231,48.7027222 1221.76556,49.0360782 1221.76556,49.0360782 C1221.76556,49.0360782 1219.79729,52.5135866 1219.96828,54.3053747 C1220.13927,56.0971628 1218.44837,56.9949509 1218.44837,56.9949509 L1225.47793,75.2083066 C1225.47793,75.2083066 1225.70212,82.7163912 1224.4102,85.4627895 C1223.11828,88.2091878 1220.69783,100.372891 1220.69783,100.372891 C1220.69783,100.372891 1221.70857,100.145603 1221.65537,100.819891 C1221.60218,101.494179 1220.41665,108.831798 1220.41665,108.831798 C1220.41665,108.831798 1220.07847,111.748662 1219.51611,112.756306 C1218.95374,113.76395 1218.90054,119.033247 1218.90054,119.033247 L1218,122.844111 C1218,122.844111 1220.13547,127.605797 1223.39566,126.935297 C1226.65586,126.264797 1232.56829,113.54045 1232.56829,113.54045 L1236.33386,99.8122469 L1239.25587,86.2507217 L1240.09942,77.0569168 L1241.44834,56.7146289 L1243.41661,43.2667477 C1243.41661,43.2667477 1245.61668,36.035197 1244.83013,35.084375 Z" id="Path" fill="#65617D"></path>
                <path d="M1209,77.8571823 L1205.7403,79.9892437 C1205.7403,79.9892437 1200.75577,80.1405048 1197.19213,79.3085687 L1195.37992,78.5450602 L1195,78.3937991 L1195.37992,78.5054442 C1197.26052,79.0348581 1198.7308,79.0240537 1199.88195,78.6567053 C1204.49417,77.1837102 1203.98507,69.962793 1203.80651,68.3313339 C1203.80651,68.1656669 1203.77612,68.0612247 1203.76852,68.0216087 C1203.7677,68.0144266 1203.7677,68.0071821 1203.76852,68 L1203.79512,68.0432175 C1203.85877,68.1416138 1203.92987,68.2354985 1204.00787,68.3241309 C1204.07246,68.3925586 1204.14084,68.4645877 1204.21303,68.5330153 L1204.21303,68.5330153 L1205.84288,71.6194623 C1205.84288,71.6194623 1205.84288,71.6626797 1205.84288,71.7491146 L1209,77.8571823 Z" id="Path" fill="#000000" opacity="0.1"></path>
                <path d="M1219.76401,56 L1218.19881,56.453457 L1217.97629,59.6929843 C1217.97629,59.6929843 1216.13578,59.408613 1215.63416,61.6144122 C1215.13254,63.8202114 1214.23869,64.8577824 1214.23869,64.8577824 C1214.23869,64.8577824 1211.16864,67.4709243 1211.00269,69.688252 L1209.11692,70.8833801 C1209.11692,70.8833801 1204.70797,69.8573377 1203.70474,68.0396669 C1203.70474,68.0396669 1205.71498,82.7078472 1195,79.1263056 C1195,79.1263056 1206.99731,84.4678751 1207.5555,85.2095462 C1208.11369,85.9512174 1211.79472,88.1070594 1215.14386,86.2893887 C1218.493,84.4717179 1219.21713,81.6779618 1219.21713,81.6779618 C1219.21713,81.6779618 1222.45312,77.066535 1222.5625,76.3901924 C1222.67188,75.7138498 1225.20259,74.9106929 1225.20259,74.9106929 L1230,63.0862259 L1219.76401,56 Z" id="Path" fill="#65617D"></path>
                <path d="M1260.15853,40.4261882 L1261.82636,33 C1261.82636,33 1262.57279,35.4183593 1263.32312,35.9811221 L1265.79569,37.840521 C1265.79569,37.840521 1268.26827,38.9622443 1269.13134,38.9622443 C1269.99441,38.9622443 1274.65187,40.1448067 1275.22724,40.7646064 C1275.80262,41.384406 1278.10414,40.9319142 1278.10414,40.9319142 C1278.10414,40.9319142 1280.00134,41.5517139 1281.66916,41.9433664 C1283.33698,42.3350189 1284.14173,45.0385621 1283.79573,46.1260633 C1283.51039,47.2079383 1283.81445,48.3572858 1284.60048,49.1680246 C1285.29249,49.844861 1285.6385,52.0388757 1285.6385,52.0388757 C1286.48087,52.3109146 1287.17943,52.8971349 1287.58234,53.6701274 C1288.15772,54.9059242 1287.97111,57.6056649 1287.97111,57.6056649 L1279.41818,69.4198824 C1279.41818,69.4198824 1279.53092,73.9828244 1279.18881,74.9904741 C1278.84669,75.9981238 1280.39399,93.2156251 1280.39399,93.2156251 L1282.17845,122.802502 C1282.17845,122.802502 1279.81861,124.772172 1279.30155,124.996516 C1278.78449,125.220861 1278.26742,114.535972 1278.26742,114.140517 C1278.26742,113.745062 1264.98316,94.6757666 1264.98316,94.6757666 C1264.98316,94.6757666 1263.19871,91.8657548 1263.19871,91.25356 C1263.19871,90.6413653 1261.53089,84.9528976 1261.53089,84.9528976 L1259,73.9828244 L1260.15853,40.4261882 Z" id="Path" fill="#000000" opacity="0.1"></path>
                <path d="M1287.99726,56.9653508 C1287.99726,57.3457532 1287.99726,57.6120349 1287.99726,57.6120349 L1279.43546,69.4045091 L1279.43546,69.4045091 C1279.43546,69.4045091 1279.55222,73.9693378 1279.20974,74.9736002 C1279.00737,75.5632239 1279.44714,81.61923 1279.85577,86.5948933 C1280.14376,90.1820879 1280.41618,93.2062869 1280.41618,93.2062869 L1281.17507,105.759566 L1282.19859,122.801593 C1282.19859,122.801593 1279.8402,124.772078 1279.3226,124.996515 C1278.805,125.220952 1278.2874,114.531645 1278.2874,114.136027 C1278.2874,113.740408 1264.98548,94.6670321 1264.98548,94.6670321 C1264.98548,94.6670321 1263.19917,91.8482504 1263.19917,91.2434106 C1263.19917,90.6385708 1261.52962,84.9401429 1261.52962,84.9401429 L1259,73.9655338 L1260.14806,40.4254547 L1261.08986,33 C1261.08986,33 1262.5298,35.4231633 1263.27701,35.9823548 L1265.75215,37.8387185 C1265.75215,37.8387185 1268.22729,38.9799256 1269.09125,38.9799256 C1269.95521,38.9799256 1274.6214,40.1591731 1275.19737,40.779229 C1275.77335,41.3992849 1278.07336,40.946606 1278.07336,40.946606 C1278.07336,40.946606 1279.97252,41.5666619 1281.64207,41.9584764 C1283.31162,42.3502908 1284.1211,45.0549519 1283.77474,46.1429027 C1283.48757,47.2252251 1283.79214,48.3757768 1284.58033,49.1861219 C1285.26916,49.8594341 1285.61553,52.0543559 1285.61553,52.0543559 C1286.45862,52.3288703 1287.15751,52.9163682 1287.56139,53.6900862 C1287.97391,54.5079514 1288.01283,56.0714052 1287.99726,56.9653508 Z" id="Path" fill="#65617D"></path>
                <path d="M1219,208 C1219.25722,208 1230.20497,208.314437 1229.99708,209.654794 C1229.78919,210.99515 1219,208 1219,208 Z" id="Path" fill="#000000" opacity="0.1"></path>
                <path d="M1221,211 C1221,211 1228.67974,211.953847 1226.66225,212.826337 C1224.64475,213.698826 1221,211 1221,211 Z" id="Path" fill="#000000" opacity="0.1"></path>
                <path d="M1251,206 C1251,206 1263.70744,207.053422 1261.80609,208.391267 C1259.90475,209.729113 1255.39732,209.94682 1255.19911,209.999491 C1255.0009,210.052162 1251,206 1251,206 Z" id="Path" fill="#000000" opacity="0.1"></path>
                <path d="M1250,213 C1250,213 1256.78733,213.833971 1256.99557,214.796244 C1257.20381,215.758518 1250,213 1250,213 Z" id="Path" fill="#000000" opacity="0.1"></path>
                <path d="M1253,179 C1253,179 1259.60944,180.182857 1260,181 L1253,179 Z" id="Path" fill="#000000" opacity="0.1"></path>
                <path d="M1227.0544,183 C1227.0544,183 1224.73175,183.861625 1226.98095,185.591352 C1229.23015,187.32108 1227.0544,183 1227.0544,183 Z" id="Path" fill="#000000" opacity="0.1"></path>
                <path d="M1243,129 C1243.36775,129 1249.31061,127.516366 1251.37737,128.163364 C1252.8565,128.584772 1254.42014,128.810228 1256,128.829884 L1243,129 Z" id="Path" fill="#000000" opacity="0.1"></path>
                <path d="M1244,135.113708 L1243.93887,135.676704 L1238.68577,149.510301 C1238.68577,149.510301 1237.83763,153.700211 1237.10411,156.078579 C1236.64024,157.695959 1236.27157,159.339265 1236,161 L1240.66476,132 L1244,135.113708 Z" id="Path" fill="#000000" opacity="0.1"></path>
                <polygon id="Path" fill="#3F3D56" points="1252 110.960474 1250.14563 111 1250.08738 111 1249 105.106719 1250.61812 105"></polygon>
                <path d="M1279,103.207495 L1277.5752,104.305351 L1272.82971,108.012444 C1272.82971,108.012444 1259.97559,114.511749 1256.43482,108.338141 C1253.31493,102.900096 1267.88731,99.0173463 1271.39719,98.1719974 C1271.87212,98.0585523 1272.14241,98 1272.14241,98 L1279,103.207495 Z" id="Path" fill="#FBBEBE"></path>
                <path d="M1225,48 C1225,48 1227.39375,49.1246573 1227.94163,50.6616889 C1228.48951,52.1987205 1225,48 1225,48 Z" id="Path" fill="#000000" opacity="0.1"></path>
                <path d="M1217,64 C1217,64 1214.10427,68.8557459 1215.28152,70.7324033 C1216.45877,72.6090608 1217,64 1217,64 Z" id="Path" fill="#000000" opacity="0.1"></path>
                <path d="M1281,51 C1281,51 1278.09487,51.3111888 1278,54 L1281,51 Z" id="Path" fill="#000000" opacity="0.1"></path>
                <path d="M1250,98 C1250.33846,97.6572992 1258.19231,86.0362759 1260,87.0643784 L1250,98 Z" id="Path" fill="#000000" opacity="0.1"></path>
                <path d="M1264.99999,22.1798213 C1265.00326,24.3354945 1264.45393,26.4581678 1263.40138,28.3570077 L1263.3017,28.3384241 C1262.44681,28.1637383 1262.00212,27.1973915 1261.34657,26.595283 C1260.52202,25.8334903 1259.28833,25.6660403 1258.2797,26.1790105 C1257.26853,26.7678737 1256.68688,27.8597293 1256.77693,29 C1256.34374,27.2382754 1256.48174,25.3687659 1256.06005,23.6033245 C1255.63835,21.8378832 1254.36944,20.0538582 1252.62899,20.0241244 C1251.86227,20.0241244 1251.00738,20.2880115 1250.46301,19.7453705 C1250.13715,19.4182993 1250.07965,18.9016754 1249.82663,18.5002698 C1248.58455,16.5527092 1244.80079,17.5376397 1243.25585,18.537437 C1241.71092,19.5372343 1239.92063,21.13914 1238,21.9939853 C1238.05293,14.7664743 1244.13913,8.94901974 1251.59392,9.00033692 C1259.0487,9.05165409 1265.04908,14.9523102 1264.99615,22.1798213 L1264.99999,22.1798213 Z" id="Path" fill="#000000" opacity="0.1"></path>
                <path d="M1249.26974,18.004326 C1249.5156,18.4209468 1249.5809,18.9621645 1249.90742,19.3048059 C1250.44907,19.8771728 1251.32876,19.5812552 1252.07784,19.5968298 C1253.82186,19.627979 1255.09337,21.4969321 1255.51593,23.3464169 C1255.93849,25.1959018 1255.8002,27.1544088 1256.23428,29 C1256.14299,27.8042487 1256.72789,26.6592914 1257.74397,26.0447179 C1258.75467,25.5073278 1259.99088,25.6827493 1260.81713,26.480807 C1261.47401,27.1115787 1261.91962,28.1239282 1262.77626,28.3069299 C1263.63291,28.4899316 1264.45882,27.65669 1264.76997,26.749469 C1265.08113,25.842248 1265.05808,24.8298984 1265.26168,23.8798473 C1265.64582,22.0848736 1266.79826,20.6091794 1267.44362,18.8998661 C1268.20483,16.8214211 1268.18432,14.5316447 1267.386,12.4675526 C1266.9596,11.3851172 1266.32576,10.4117042 1265.89168,9.33316249 C1265.23863,7.69004124 1265.06961,5.82887547 1264.27059,4.27141457 C1262.93376,1.6509866 1259.78378,0.342719447 1257.1908,1.32781347 C1255.9577,1.79505174 1254.88594,2.70616636 1253.62978,3.11499985 C1251.95107,3.66400482 1250.15328,3.25127768 1248.41694,3.00597759 C1246.68061,2.76067749 1244.75605,2.73731558 1243.35776,3.8937303 C1241.74819,5.22925302 1241.31027,7.73676507 1239.79674,9.20077831 C1239.1629,9.81597537 1238.37541,10.2092342 1237.70699,10.7582392 C1237.03858,11.3072442 1236.45852,12.171635 1236.55456,13.0944306 C1236.65444,14.2858882 1237.80687,15.3683235 1237.38047,16.4741207 C1237.227,16.7948048 1237.01296,17.081864 1236.75047,17.3190433 C1235.48494,18.6636059 1234.54356,20.2867725 1234,22.0615117 C1237.03858,23.0271375 1240.3307,19.627979 1242.7124,18.0199007 C1244.23745,16.9958701 1248.02512,15.9601586 1249.26974,18.004326 Z" id="Path" fill="#7C5C5C"></path>
                <path d="M1278,103.781196 L1276.7257,105 C1275.60335,102.806152 1271,98.4184562 1271,98.4184562 L1271.2003,98.190946 C1271.62506,98.0650029 1271.8668,98 1271.8668,98 L1278,103.781196 Z" id="Path" fill="#000000" opacity="0.1"></path>
                <path d="M1280,102.111508 C1280,102.111508 1279.47798,103.3647 1278.94418,104.443206 C1278.41038,105.521711 1277.82163,106.509075 1277.79416,105.707791 C1277.73528,104.135604 1271,98.8532063 1271,98.8532063 L1271.91452,97.9949591 L1272.97034,97 L1280,102.111508 Z" id="Path" fill="#E7EFFD"></path>
                <path d="M1280.23016,93.5545852 L1281,106 C1279.18397,103.303493 1274.20174,96.3944025 1271,96.6169115 L1278.7576,88.0899166 C1279.08071,87.7464991 1279.37882,87.3823411 1279.64982,87 C1279.94197,90.5563716 1280.23016,93.5545852 1280.23016,93.5545852 Z" id="Path" fill="#000000" opacity="0.1"></path>
                <path d="M1279,101.809378 C1279,101.809378 1278.54806,102.986748 1278.08592,104 C1276.33252,101.477574 1273.9233,98.4984709 1272,97.9347604 L1272.91408,97 L1279,101.809378 Z" id="Path" fill="#000000" opacity="0.1"></path>
                <path d="M1285.99375,56 L1288.02498,57.5904255 C1288.02498,57.5904255 1291.40527,57.6480496 1291.74445,60.4908392 C1292.08362,63.3336288 1295.17429,64.6397754 1295.17429,64.6397754 C1295.17429,64.6397754 1297.48371,66.9677896 1297.48371,68.0472813 C1297.48371,69.126773 1299.23293,71.0591017 1299.23293,71.231974 C1299.23293,71.4048463 1300.92499,74.8699764 1300.69633,75.4923168 C1300.46767,76.1146572 1302.50271,78.8460402 1301.88153,79.8679078 C1301.37218,80.7861237 1300.92033,81.7355763 1300.52865,82.7106974 C1300.52865,82.7106974 1297.88005,87.8277187 1296.52717,88.7919622 C1295.17429,89.7562057 1288.97009,97.8850473 1288.97009,97.8850473 C1288.97009,97.8850473 1282.32001,105.614362 1282.32001,108 C1282.32001,108 1275.84142,97.0898345 1272,97.3741135 L1279.49992,88.6767139 C1279.49992,88.6767139 1280.79563,87.2591608 1280.8528,86.4063239 C1280.90996,85.553487 1284.46175,81.6312057 1286.15381,81.4621749 C1286.15381,81.4621749 1286.43201,79.1303191 1285.70031,79.072695 C1284.96861,79.0150709 1284.34742,77.1979905 1284.34742,77.1979905 C1284.34742,77.1979905 1279.39321,71.2895981 1279.32843,67.5363475 C1279.26364,63.7830969 1285.99375,56 1285.99375,56 Z" id="Path" fill="#65617D"></path>
                <path d="M1289,61 C1289,61 1284.09745,64.6683185 1285.14743,65.8471354 C1286.19741,67.0259523 1289,61 1289,61 Z" id="Path" fill="#000000" opacity="0.1"></path>
                <path d="M1289,75 C1289,75 1298.06876,72.75 1299,75 L1289,75 Z" id="Path" fill="#000000" opacity="0.1"></path>
                <path d="M1234,225.78599 C1234,225.78599 1229.32074,228.922244 1226.983,228.483014 C1224.64525,228.043784 1222.24728,229.284415 1222.24728,229.284415 C1220.63524,231.085891 1218.60303,232.439372 1216.3408,233.218218 C1212.57631,234.528201 1207.26839,234.011913 1204.26057,232.987044 C1202.83759,232.50158 1202.72089,231.877411 1203.40603,231.10298 C1206.67736,231.76953 1213.98423,233.098778 1215.95306,232.131702 C1218.51291,230.87566 1222.19081,228.140107 1222.19081,228.140107 C1222.19081,228.140107 1226.983,227.458145 1227.64931,227.458145 C1228.12364,227.458145 1231.82413,225.893871 1233.91342,225 L1234,225.78599 Z" id="Path" fill="#000000" opacity="0.1"></path>
                <path d="M1263,232 L1262.94933,232.323284 C1262.94933,232.323284 1261.78007,234.889844 1255.39978,235.824213 C1249.01949,236.758583 1249,233.66373 1249,233.66373 C1249,233.66373 1249.02339,233.332561 1249.06236,232.831865 C1251.08909,233.608535 1255.50891,234.475882 1263,232 Z" id="Path" fill="#000000" opacity="0.1"></path>
                <path d="M1226,61 C1226,61 1226,73.6752955 1225.21875,74.9266662 C1224.4375,76.1780369 1226,61 1226,61 Z" id="Path" fill="#000000" opacity="0.1"></path>
                <path d="M1277,65 L1278.90017,69 C1278.90017,69 1279.65757,65.0729685 1277,65 Z" id="Path" fill="#000000" opacity="0.1"></path>
                <g id="Group" opacity="0.1" transform="translate(1234.000000, 12.000000)" fill="#000000">
                    <path d="M3.69844444,3.45666667 C4.10644444,2.40644444 3.03355556,1.37888889 2.89377778,0.253111111 C2.75165482,0.570678896 2.69064279,0.918577278 2.71622222,1.26555556 C2.788,2.11177778 3.41133333,2.90133333 3.57755556,3.68711111 C3.62440332,3.61391537 3.66484956,3.53681474 3.69844444,3.45666667 L3.69844444,3.45666667 Z" id="Path"></path>
                    <path d="M22.2473333,15.4926667 C21.8468889,13.7322222 21.964,11.866 21.556,10.1017778 C21.148,8.33755556 19.89,6.494 18.1786667,6.46377778 C17.4231111,6.46377778 16.5768889,6.73577778 16.0442222,6.18422222 C15.7193333,5.85177778 15.6664444,5.32288889 15.4133333,4.91866667 C14.1893333,2.93533333 10.4644444,3.94022222 8.93822222,4.95644444 C6.67155556,6.46755556 3.51333333,9.65222222 0.581777778,8.93444444 C0.442,9.27066667 0.313555556,9.61444444 0.204,9.96577778 C3.19222222,10.9026667 6.42977778,7.60466667 8.772,6.04444444 C10.2831111,5.032 14.0231111,4.02711111 15.2471111,6.01044444 C15.4888889,6.41466667 15.5531111,6.93977778 15.8742222,7.27222222 C16.4068889,7.82755556 17.272,7.54044444 18.0086667,7.55555556 C19.7237778,7.58577778 20.9742222,9.39911111 21.3897778,11.1935556 C21.8053333,12.988 21.6693333,14.8882222 22.0962222,16.6788889 C22.0686826,16.2774085 22.1200187,15.8744204 22.2473333,15.4926667 Z" id="Path"></path>
                    <path d="M30.6491111,13.3997778 C30.3468889,14.2837778 29.5497778,15.0997778 28.6884444,14.9108889 C27.8271111,14.722 27.4077778,13.7511111 26.7655556,13.1353333 C25.9484928,12.3698737 24.7379338,12.2019087 23.7433333,12.716 C22.7944258,13.281563 22.226258,14.3166984 22.2586667,15.4208889 C22.4850095,14.7384871 22.9542286,14.1630551 23.5771111,13.804 C24.5710612,13.2826025 25.786782,13.4528034 26.5993333,14.2271111 C27.2453333,14.8391111 27.6835556,15.8213333 28.526,15.9988889 C29.3684444,16.1764444 30.1806667,15.368 30.4866667,14.4877778 C30.6458233,13.9650838 30.748411,13.426815 30.7926667,12.8822222 C30.7559237,13.0576311 30.7079735,13.2305042 30.6491111,13.3997778 L30.6491111,13.3997778 Z" id="Path"></path>
                    <path d="M33.2784444,5.78377778 C32.6513333,7.44222222 31.5104444,8.87022222 31.1326667,10.6155556 C31.0571111,10.9668889 31.0117778,11.3257778 30.9702222,11.6884444 C31.348,9.95066667 32.4813333,8.52644444 33.1122222,6.87177778 C33.3907071,6.12741237 33.5648765,5.34809941 33.6297778,4.556 C33.5437731,4.97352788 33.4263274,5.38395661 33.2784444,5.78377778 Z" id="Path"></path>
                </g>
                <ellipse id="Oval" fill="#E6E8EC" cx="1186" cy="58" rx="1" ry="1"></ellipse>
                <ellipse id="Oval" fill="#12344D" opacity="0.1" cx="1235.5" cy="232.5" rx="32.5" ry="3.5"></ellipse>
                <path d="M1113.02748,12.1645918 L1013,76.8747781 L1078.27739,194.273077 C1078.89404,195.382938 1079.94808,196.185052 1081.18439,196.48526 L1140.33031,210.872082 C1142.41872,211.375786 1144.57638,210.357231 1145.50936,208.427238 L1174.84708,147.649399 L1207,104.790247 L1130.69897,14.777257 C1126.30627,9.59765725 1118.73839,8.47877375 1113.02748,12.1645918 Z" id="Path" fill="#DCDFED"></path>
                <path d="M1208,105.788907 L1207.71696,106.17029 L1188.88304,131.276695 L1188.54263,131.73054 L1175.84771,148.652478 L1150.75623,200.638717 L1150.05244,202.091784 L1146.51057,209.425768 C1145.57694,211.358989 1143.4148,212.3781 1141.32397,211.870429 L1082.17922,197.477056 C1080.94253,197.177733 1079.88819,196.375441 1079.27228,195.265038 L1073.58462,185.055431 L1072.56337,183.217167 L1031.51049,109.358647 L1031.1586,108.729366 L1014,77.8755274 L1016.07311,76.5330613 L1031.78971,66.3692196 L1032.15308,66.1327625 L1065.25012,44.7219531 L1067.33853,43.3718593 L1114.02169,13.170185 C1119.73279,9.47742065 1127.30682,10.595033 1131.70047,15.7788408 L1166.50726,56.8537281 L1168.03722,58.6843637 L1193.30083,88.4855865 L1193.43853,88.649581 L1206.14109,103.630283 L1207.73991,105.518126 L1208,105.788907 Z" id="Path" fill="#000000" opacity="0.1"></path>
                <path d="M1194,87.5569895 L1190.91572,109.046135 L1189.98584,115.531253 L1189.45394,129.345704 L1189.41185,130.423998 L1186.64518,202.604505 C1186.59124,203.960152 1185.94046,205.22198 1184.86839,206.049584 C1183.79631,206.877188 1182.4134,207.185308 1181.09271,206.890822 L1151.2678,200.213837 L1150.94636,200.140928 L1074.45544,183.02252 L1073.05106,182.707858 L1031,173.291007 L1031.96432,108.393786 L1031.99493,106.225685 L1032.28575,86.5823032 L1032.60719,64.9012899 L1065.7192,43.358421 L1067.80855,42 C1098.52125,45.158137 1139.36691,51.2326581 1167.03742,55.5650234 L1168.56808,57.4069502 L1193.82397,87.3919835 L1194,87.5569895 Z" id="Path" fill="#000000" opacity="0.1"></path>
                <path d="M1197,62.5151592 L1193.36582,87.6733783 L1190.03417,110.712208 L1189.1036,117.13899 L1188.5713,130.861655 L1185.76046,203.633709 C1185.70649,204.98035 1185.05522,206.233793 1183.98235,207.055899 C1182.90949,207.878004 1181.52555,208.184077 1180.20388,207.891547 L1150.0352,201.186501 L1073.48763,184.181832 L1030,174.514977 L1030.99567,107.89525 L1031.28671,88.3823827 L1031.62753,65.5570166 L1031.97601,42.0798239 C1039.16779,41.7405692 1051.00089,42.5067513 1065.12786,43.9209482 C1096.75941,47.0809729 1139.87941,53.4734477 1168.07207,57.8761361 C1185.33539,60.571115 1197,62.5151592 1197,62.5151592 Z" id="Path" fill="#12344D"></path>
                <g id="Group-6" transform="translate(0.000000, 221.000000)">
                    <path d="M5.32873563,5.50488889 C5.32873563,5.50488889 14.5563218,5.20177778 17.337931,3.09466667 C20.1195402,0.987555556 31.5402299,-1.52533333 32.2298851,1.85288889 C32.9195402,5.23111111 46.1011494,18.656 35.6781609,18.744 C25.2551724,18.832 11.4666667,17.0182222 8.68965517,15.2191111 C5.91264368,13.42 5.32873563,5.50488889 5.32873563,5.50488889 Z" id="Path" fill="#5F5D7E"></path>
                    <path d="M35.8666667,17.5657778 C25.4436782,17.6586667 11.6505747,15.84 8.87356322,14.0408889 C6.75862069,12.672 5.91724138,7.75866667 5.65517241,5.49022222 L5.34712644,5.49022222 C5.34712644,5.49022222 5.93103448,13.4053333 8.70804598,15.2044444 C11.4850575,17.0035556 25.2597701,18.8173333 35.6965517,18.7293333 C38.708046,18.7293333 39.7471264,17.5657778 39.6873563,15.8791111 C39.2505747,16.9106667 38.1057471,17.5266667 35.8666667,17.5657778 Z" id="Path" fill="#000000" opacity="0.2"></path>
                    <ellipse id="Oval" fill="#12344D" opacity="0.1" cx="16.1931034" cy="19.0177778" rx="16.183908" ry="2.90888889"></ellipse>
                </g>
                <g id="Group-5" transform="translate(54.000000, 222.000000)" fill="#12344D">
                    <ellipse id="Oval" cx="17.5545455" cy="14.605" rx="17.4272727" ry="3.24"></ellipse>
                    <path d="M23.526707,7.43654289 C24.2602065,6.87273112 24.7956771,6.11438933 25.0632392,5.26048204 C25.2605534,4.39715355 24.8701231,3.36431307 23.9885063,3.04499979 C23.0061333,2.6941494 21.9523912,3.33277596 21.1547379,3.98322893 C20.3570846,4.6336819 19.4418824,5.36691979 18.3965367,5.22894492 C19.4878573,4.29922808 19.9801994,2.90031241 19.6937729,1.54304475 C19.6491045,1.2669395 19.5241727,1.00776048 19.3327298,0.794038298 C18.786967,0.246080946 17.7961977,0.47866716 17.1412823,0.912302474 C15.0421946,2.28810906 14.4796391,4.94116876 14.4670446,7.33404727 C14.2571359,6.47071878 14.4334592,5.57191103 14.429261,4.68887185 C14.4250629,3.80583266 14.164776,2.82424 13.3713209,2.34724115 C12.8762853,2.09852521 12.3203954,1.97618435 11.7592215,1.99244862 C10.8230284,1.96091151 9.78188094,2.04763857 9.13956012,2.69020726 C8.34610498,3.47863511 8.55181557,4.83078886 9.2445145,5.70988591 C9.93721343,6.58898295 10.9867573,7.1369403 11.9523376,7.74402974 C12.7275786,8.17890623 13.3889601,8.77166118 13.8876964,9.478571 C13.9470571,9.57726184 13.994913,9.68167491 14.0304344,9.79 L19.9078799,9.79 C21.2222715,9.16330705 22.439719,8.3715559 23.526707,7.43654289 Z" id="Path"></path>
                </g>
                <path d="M1205.4151,102.205881 L1189.31081,110.143642 L1107.12065,150.655706 L1031.37678,87.7394744 L1016.06495,75 L1014,76.3478494 L1031.09104,107.325411 L1030.10048,174.2469 L1073.36527,183.957542 L1079.01911,194.20809 C1079.63259,195.322946 1080.68278,196.128455 1081.9146,196.428978 L1140.8265,210.87241 C1142.90542,211.376088 1145.05229,210.353843 1145.98125,208.417946 L1149.50918,201.054553 L1179.52327,207.78997 C1180.83817,208.083825 1182.21502,207.776366 1183.28239,206.950537 C1184.34976,206.124707 1184.99769,204.865586 1185.05138,203.512846 L1187.84782,130.411161 L1206.94666,104.756073 L1207,104.108952 L1205.4151,102.205881 Z" id="Path" fill="#000000" opacity="0.1"></path>
                <path d="M1013.79979,77 L1007.00781,193.911125 C1006.87799,196.146164 1008.38015,198.145881 1010.55427,198.632293 L1190.93236,238.89432 C1192.21191,239.17597 1193.55013,238.888474 1194.60334,238.105666 C1195.65655,237.322859 1196.32215,236.121008 1196.42919,234.808767 L1207,105.024515 L1106.91058,154.368951 L1013.79979,77 Z" id="Path" fill="#DCDFED"></path>
                <path d="M1008.37469,196.181513 L1102.08097,138.003711 C1104.94567,136.255494 1108.64527,136.838223 1110.84213,139.383694 L1194.71306,237.81868 C1195.0178,238.171342 1195.16635,237.918345 1194.71306,237.81868 L1008.37469,196.181513 C1007.84141,196.062681 1007.90997,196.461343 1008.37469,196.181513 Z" id="Path" fill="#000000" opacity="0.1"></path>
                <path d="M1008.48664,196.215834 L1101.30988,140.050252 C1104.33931,138.217492 1108.24581,138.833123 1110.56704,141.509099 L1193.75566,237.338496 C1194.0381,237.665573 1194.07981,238.137009 1193.85921,238.508744 C1193.63862,238.88048 1193.20524,239.06905 1192.78343,238.976834 L1008.78784,198.052759 C1008.38691,197.965922 1008.07973,197.642398 1008.01325,197.236952 C1007.94677,196.831505 1008.1345,196.426562 1008.48664,196.215834 L1008.48664,196.215834 Z" id="Path" fill="#E3E5F1"></path>
            </g>
        </g>
    </g>
</svg>