<?xml version="1.0" encoding="utf-8"?>
<!-- Generator: Adobe Illustrator 19.1.0, SVG Export Plug-In . SVG Version: 6.00 Build 0)  -->
<svg version="1.1" id="Layer_1" xmlns="http://www.w3.org/2000/svg" xmlns:xlink="http://www.w3.org/1999/xlink" x="0px" y="0px"
	 width="512px" height="512px" viewBox="0 0 512 512" style="enable-background:new 0 0 512 512;" xml:space="preserve">
<g>
	<path d="M492.4,225.2l-0.6-0.6l-71-55.1l78-52.7l-17.9-26.5l-451.3,305l17.9,26.5l176.7-119.4h64.6v84.6l4.5,4.4
		c7.2,7.1,16.8,10.7,26.3,10.7c9.2,0,18.4-3.3,25.5-10l146.7-113.8l0.6-0.6c7.1-7,11-16.3,11-26.2S499.5,232.2,492.4,225.2z
		 M471.8,255.7L325.4,369.3l-0.6,0.6c-1.6,1.6-3.8,2.3-5.9,2.1v-99.7h-50.2l126-85.2l77.2,59.9c1.4,1.6,1.6,3.4,1.6,4.3
		S473.2,254.1,471.8,255.7z"/>
	<path d="M129.9,302.3l44.4-30h-130c-3.2,0-5.8-2.4-5.8-5.4v-38.4c0-3,2.6-5.4,5.8-5.4h202.9l71.6-48.4v-44c2.1-0.2,4.3,0.5,5.9,2.1
		l0.6,0.6l25.4,19.7l26.2-17.7l-31.8-24.7c-14.5-13.6-37.6-13.3-51.8,0.7l-4.5,4.4v77.2H44.3c-19.7,0-35.8,15.9-35.8,35.4v38.4
		c0,19.5,16,35.4,35.8,35.4H129.9z"/>
</g>
</svg>
