<?xml version="1.0" encoding="utf-8"?>
<!-- Generator: Adobe Illustrator 17.0.0, SVG Export Plug-In . SVG Version: 6.00 Build 0)  -->
<!DOCTYPE svg PUBLIC "-//W3C//DTD SVG 1.1//EN" "http://www.w3.org/Graphics/SVG/1.1/DTD/svg11.dtd">
<svg version="1.1" id="Layer_1" xmlns="http://www.w3.org/2000/svg" xmlns:xlink="http://www.w3.org/1999/xlink" x="0px" y="0px"
	 width="512px" height="512px" viewBox="0 0 512 512" enable-background="new 0 0 512 512" xml:space="preserve">
<path fill-rule="evenodd" clip-rule="evenodd" d="M198.791,229.445l31.018-31.101l-93.051-93.302l-7.755-38.874L59.216,19.516
	L28.199,50.619l38.771,69.972l38.77,15.553L198.791,229.445z M276.334,330.52l147.328,155.501c0,0,25.848,11.663,54.279-15.549
	c28.434-27.213,7.755-54.426,7.755-54.426s-84.002-89.416-116.313-116.627C337.075,272.206,276.334,330.52,276.334,330.52z
	 M51.463,435.484c0-15.031,12.151-27.216,27.139-27.216s27.139,12.186,27.139,27.216c0,15.029-12.151,27.213-27.139,27.213
	S51.463,450.513,51.463,435.484z M408.156,136.144c0,0-14.217-19.441-23.265-38.876c-9.045-19.438,15.511-31.101,15.511-31.101
	l54.278-31.102C359.045-1.216,315.104,50.619,315.104,50.619s-12.922,31.099-23.262,93.299
	c-10.337,62.2-85.296,116.626-85.296,116.626c-122.774,93.3-170.59,147.725-170.59,147.725s-31.017,36.287-7.756,62.204
	c23.264,25.915,52.342,28.183,67.85,15.549c15.958-13.001,203.546-209.927,203.546-209.927
	c42.65-24.619,147.331-38.873,147.331-38.873l-23.264-46.652c28.433-14.255,69.79-85.527,69.79-85.527L408.156,136.144z"/>
</svg>
