<?xml version="1.0" encoding="utf-8"?>
<!-- Generator: Adobe Illustrator 19.2.1, SVG Export Plug-In . SVG Version: 6.00 Build 0)  -->
<svg version="1.1" id="Layer_1" xmlns="http://www.w3.org/2000/svg" xmlns:xlink="http://www.w3.org/1999/xlink" x="0px" y="0px"
	 width="512px" height="512px" viewBox="0 0 512 512" style="enable-background:new 0 0 512 512;" xml:space="preserve">
<g>
	<path d="M255.1,309.1c-2.4-4.1-7.6-5.5-11.7-3.2l-2.6,1.5c-7.1,4.2-27.5,16.2-29.5,17.3c-0.5,0.3-1,0.5-1.6,0.6
		c-13.8,3.1-48.1-34.3-67.2-80.9c-11.4-28-10.7-44.6-5.4-48l32.2-19c2-1.2,3.5-3.1,4-5.4c0.6-2.3,0.3-4.7-0.9-6.7L109.7,56.7
		c-1.2-2-3.1-3.5-5.3-4.1c-2.2-0.6-4.6-0.2-6.6,0.9l-5,3C83.6,61.9,65.5,72.6,65,72.9l-1.1,0.7C23.3,98.8-11,148.8,84.3,313.8
		c63.8,110.5,119.4,158.7,170,147.1l0,0c11-2.5,19.7-7.4,26-10.9l2-1.1c1.4-0.7,32.4-19,33.2-19.6c3.9-2.6,5.2-7.8,2.8-11.9
		L255.1,309.1z"/>
	<path d="M491,196.5H381v-109h-40v109H231v41h110v110h40v-110h110V196.5z"/>
</g>
</svg>
