<?xml version="1.0" encoding="utf-8"?>
<!-- Generator: Adobe Illustrator 21.0.0, SVG Export Plug-In . SVG Version: 6.00 Build 0)  -->
<svg version="1.1" id="Layer_1" xmlns="http://www.w3.org/2000/svg" xmlns:xlink="http://www.w3.org/1999/xlink" x="0px" y="0px"
	 width="512px" height="512px" viewBox="0 0 512 512" style="enable-background:new 0 0 512 512;" xml:space="preserve">
<g>
	<path d="M304.5,170.8L275.7,142L131.4,286.3c-23.9,23.9-23.9,62.7,0,86.5c20.9,20.9,53.2,23.5,77,7.8c-1.7-9.1-2.5-18.4-2.5-28
		c0-9.5,0.9-18.9,2.5-27.9l-19.2,19.2c-8,8-20.9,8-28.9,0c-7.9-7.9-7.9-20.9,0-28.8L304.5,170.8z"/>
	<path d="M93.5,409.9C54,370.4,54,306,93.5,266.5c0.1-0.1,0.3-0.3,0.4-0.4l0,0L275.7,84.3c23.9-23.9,62.7-23.9,86.6,0
		c23.9,23.9,23.9,62.7,0,86.5L332.1,201c9-1.7,18.4-2.5,27.9-2.5c10.1,0,20,1,29.5,2.8l1.7-1.7c39.9-39.8,39.9-104.4,0-144.2
		c-39.8-39.8-104.4-39.8-144.3,0L65.1,237.2l0,0c-0.1,0.1-0.3,0.3-0.4,0.4c-55.6,55.6-55.6,145.6,0,201.2
		c49.1,49.1,125.3,54.8,180.7,17c-9.1-10.1-16.9-21.4-23.1-33.7C182.9,448.9,128.5,444.9,93.5,409.9z"/>
	<path d="M360,222.6c-71.7,0-130,58.3-130,130c0,71.7,58.3,130,130,130s130-58.3,130-130C490,281,431.6,222.6,360,222.6z
		 M440.3,429.2c23-54.5-1.6-115.2-88.2-113v-48.3l-77.2,74.6l77.2,74.6v-49.3c72.5-1.6,84,37.8,73.7,74.1
		c-18.4,13.6-41.2,21.7-65.8,21.7c-61.2,0-111-49.8-111-111c0-61.2,49.8-111,111-111s111,49.8,111,111
		C471,382.3,459.3,409.2,440.3,429.2z"/>
</g>
</svg>
