<?xml version="1.0" encoding="utf-8"?>
<!-- Generator: Adobe Illustrator 21.0.0, SVG Export Plug-In . SVG Version: 6.00 Build 0)  -->
<svg version="1.1" id="Layer_1" xmlns="http://www.w3.org/2000/svg" xmlns:xlink="http://www.w3.org/1999/xlink" x="0px" y="0px"
	 width="512px" height="512px" viewBox="0 0 512 512" style="enable-background:new 0 0 512 512;" xml:space="preserve">
<path d="M377.8,274.4c-57.3,0-104,46.6-104,103.8c0,57.2,46.6,103.9,104,103.9c57.3,0,104-46.6,104-103.9
	C481.8,320.9,435.1,274.4,377.8,274.4 M377.8,463.2c-46.9,0-85-38.1-85-85c0-46.8,38.1-84.9,85-84.9s85.1,38.1,85.1,84.9
	C462.9,425.1,424.7,463.2,377.8,463.2 M431,369.8h-42.6v-42.5c0-5.2-4.2-9.5-9.5-9.5c-5.2,0-9.5,4.2-9.5,9.5v42.5h-42.6
	c-5.2,0-9.5,4.2-9.5,9.5c0,5.2,4.2,9.5,9.5,9.5h42.6v42.6c0,5.2,4.2,9.4,9.5,9.4c5.2,0,9.5-4.2,9.5-9.4v-42.6H431
	c5.2,0,9.5-4.2,9.5-9.5C440.4,374,436.2,369.8,431,369.8 M285,184.4c-1.8,1.2-3.1,3.1-3.7,5.2c-5.2,18.4-13.8,34-24.8,45.2
	c-1.7,1.8-2.7,4.2-2.7,6.6v18.1c0,1,0.2,1.9,0.4,2.8c3.6,11.5,7.8,14.1,27,24.1c4.6,2.4,10.3,0.7,12.8-4c2.4-4.6,0.7-10.3-4-12.8
	c-14.5-7.6-16.1-8.5-17.3-11.7v-12.8c11.4-12.5,20.3-28.8,26-47.4c7.2-6.1,12-14.7,13.3-24.2c1.3-9.6-0.9-19.1-6.4-27.1V109
	c0-50.7-31.5-79.9-86.6-79.9c-54.2,0-86.6,29.9-86.6,79.9v37.4c-5.4,8-7.7,17.4-6.4,27c1.3,9.4,6.1,18.1,13.3,24.2
	c5.7,18.6,14.6,34.9,26,47.4v12.4c-3,5.1-20.7,21.4-122,60.3C34.8,321,29,329.4,29,338.6V384c0,12.3,10,22.3,22.2,22.3h194.1
	c5.2,0,9.5-4.2,9.5-9.5c0-5.2-4.2-9.4-9.5-9.4h-194c-1.8,0-3.3-1.5-3.3-3.4v-45.2c0-1.4,0.9-2.7,2.2-3.2
	C161.1,293,180,274.7,183.8,262.3c0.3-0.9,0.4-1.9,0.4-2.8v-18.1c0-2.5-1-4.9-2.7-6.6c-11.1-11.2-19.7-26.9-24.8-45.2
	c-0.6-2.1-1.9-3.9-3.7-5.2c-4.4-3.1-7.4-8-8.2-13.4c-0.8-5.5,0.8-10.9,4.4-15.3c1.4-1.7,2.1-3.8,2.1-6v-40.5
	c0-39.3,24-60.9,67.7-60.9c44.9,0,67.6,20.5,67.6,60.9v40.5c0,2.2,0.8,4.3,2.2,6c3.6,4.4,5.2,9.8,4.4,15.3
	C292.5,176.4,289.5,181.3,285,184.4"/>
</svg>
