<?xml version="1.0" encoding="utf-8"?>
<!-- Generator: Adobe Illustrator 21.0.2, SVG Export Plug-In . SVG Version: 6.00 Build 0)  -->
<svg version="1.1" id="Layer_1" xmlns="http://www.w3.org/2000/svg" xmlns:xlink="http://www.w3.org/1999/xlink" x="0px" y="0px"
	 width="512px" height="512px" viewBox="0 0 512 512" style="enable-background:new 0 0 512 512;" xml:space="preserve">
<g>
	<path d="M257.5,29.4c-125.4,0-227.6,102-227.6,227.1s102,227.4,227.6,227.4c125.4,0,227.6-102,227.6-227.4S382.9,29.4,257.5,29.4z
		 M257.5,451.7c-107.7,0-195.2-87.5-195.2-195.2c0-107.5,87.5-195,195.2-195c107.7,0,195.4,87.5,195.4,195
		C452.9,364.2,365.2,451.7,257.5,451.7z"/>
	<path d="M356.2,241.4h-78.7v-78.6c0-9.6-7.8-17.6-17.6-17.6c-9.6,0-17.6,7.8-17.6,17.6v78.6h-78.7c-9.6,0-17.6,7.8-17.6,17.6
		c0,9.6,7.8,17.6,17.6,17.6h78.7v78.7c0,9.6,7.8,17.4,17.6,17.4c9.6,0,17.6-7.8,17.6-17.4v-78.7h78.7c9.6,0,17.6-7.8,17.6-17.6
		C373.6,249.2,365.8,241.4,356.2,241.4"/>
</g>
</svg>
