<?xml version="1.0" encoding="utf-8"?>
<!-- Generator: Adobe Illustrator 19.1.0, SVG Export Plug-In . SVG Version: 6.00 Build 0)  -->
<svg version="1.1" id="Layer_1" xmlns="http://www.w3.org/2000/svg" xmlns:xlink="http://www.w3.org/1999/xlink" x="0px" y="0px"
	 width="512px" height="512px" viewBox="0 0 512 512" style="enable-background:new 0 0 512 512;" xml:space="preserve">
<path d="M506.9,441.3c-1.2-8.8-5.6-16.2-9.8-23.7c-70-125.4-139.9-250.8-209.8-376.2c-1.2-2.1-2.9-4-4.6-5.9
	c-4.9-5.3-11.5-7.5-18.1-9.8c-3.9,0-7.8,0-11.7,0c-1,0.4-2,0.9-3,1.2c-9.3,2.9-16.2,8.4-21.1,17c-70.1,123.5-140.3,247-210.3,370.5
	c-5,8.9-8.8,18.5-13.1,27.7c0,4.5,0,8.9,0,13.4c1.2,3.5,2,7.3,3.8,10.5c7.2,13.7,19.1,19.6,34.3,19.6c141.9,0,283.7-0.1,425.6,0.1
	C492.2,486,510.3,466.3,506.9,441.3z M277.4,440.9h-42.2v-42.2h42.2V440.9z M276.1,332.9h-39.6l-5.8-173.6h51.2L276.1,332.9z"/>
</svg>
