<?xml version="1.0" encoding="utf-8"?>
<!-- Generator: Adobe Illustrator 19.2.1, SVG Export Plug-In . SVG Version: 6.00 Build 0)  -->
<svg version="1.1" id="Layer_1" xmlns="http://www.w3.org/2000/svg" xmlns:xlink="http://www.w3.org/1999/xlink" x="0px" y="0px"
	 width="512px" height="512px" viewBox="0 0 512 512" style="enable-background:new 0 0 512 512;" xml:space="preserve">
<g>
	<path d="M40.2,132.5v-31.7c0-8.7,7.1-15.7,15.7-15.7h281.5c8.7,0,15.7,7.1,15.7,15.7v31.7c0,8.7-7.1,15.7-15.7,15.7H55.9
		C47.3,148.2,40.3,141.2,40.2,132.5z"/>
	<path d="M40.2,225.9v-31.7c0-8.7,7.1-15.7,15.7-15.7H428c8.7,0,15.7,7.1,15.7,15.7v31.7c0,8.7-7.1,15.7-15.7,15.7H55.9
		C47.3,241.6,40.3,234.5,40.2,225.9z"/>
	<path d="M40.2,319.2v-31.7c0-8.7,7.1-15.7,15.7-15.7h311.4c8.7,0,15.7,7.1,15.7,15.7v31.7c0,8.7-7.1,15.7-15.7,15.7H55.9
		C47.3,334.9,40.3,327.9,40.2,319.2z"/>
	<path d="M40.2,412.5v-31.7c0-8.7,7.1-15.7,15.7-15.7h401.7c8.7,0,15.7,7.1,15.7,15.7v31.7c0,8.7-7.1,15.7-15.7,15.7H55.9
		C47.3,428.2,40.3,421.2,40.2,412.5z"/>
	<title>Redactor</title>
</g>
</svg>
