<?xml version="1.0" encoding="utf-8"?>
<!-- Generator: Adobe Illustrator 19.2.1, SVG Export Plug-In . SVG Version: 6.00 Build 0)  -->
<svg version="1.1" id="Layer_1" xmlns="http://www.w3.org/2000/svg" xmlns:xlink="http://www.w3.org/1999/xlink" x="0px" y="0px"
	 width="512px" height="512px" viewBox="0 0 512 512" style="enable-background:new 0 0 512 512;" xml:space="preserve">
<path d="M427.8,241.6H82.7c-7.4,0-13.5-7-13.5-15.7v-31.7c0-8.6,6-15.7,13.5-15.7h345.1c7.4,0,13.5,7,13.5,15.7v31.7
	C441.2,234.5,435.2,241.6,427.8,241.6z"/>
<path d="M337.8,147.6H173.7c-7.4,0-13.5-7-13.5-15.7v-31.7c0-8.6,6-15.7,13.5-15.7h164.1c7.4,0,13.5,7,13.5,15.7v31.7
	C351.2,140.5,345.2,147.6,337.8,147.6z"/>
<path d="M367.8,334.6H143.7c-7.4,0-13.5-7-13.5-15.7v-31.7c0-8.6,6-15.7,13.5-15.7h224.1c7.4,0,13.5,7,13.5,15.7v31.7
	C381.2,327.5,375.2,334.6,367.8,334.6z"/>
<path d="M457.6,428.2H55.9c-8.6,0-15.7-7-15.7-15.7v-31.7c0-8.6,7-15.7,15.7-15.7h401.7c8.6,0,15.7,7,15.7,15.7v31.7
	C473.2,421.2,466.2,428.2,457.6,428.2z"/>
<title>Redactor</title>
</svg>
