<?xml version="1.0" encoding="utf-8"?>
<!-- Generator: Adobe Illustrator 19.2.1, SVG Export Plug-In . SVG Version: 6.00 Build 0)  -->
<svg version="1.1" id="Layer_1" xmlns="http://www.w3.org/2000/svg" xmlns:xlink="http://www.w3.org/1999/xlink" x="0px" y="0px"
	 width="512px" height="512px" viewBox="0 0 512 512" style="enable-background:new 0 0 512 512;" xml:space="preserve">
<g>
	<path d="M457.6,148.2H55.9c-8.6,0-15.7-7-15.7-15.7v-31.7c0-8.6,7-15.7,15.7-15.7h401.7c8.6,0,15.7,7,15.7,15.7v31.7
		C473.2,141.2,466.2,148.2,457.6,148.2z"/>
	<path d="M457.6,241.6H55.9c-8.6,0-15.7-7-15.7-15.7v-31.7c0-8.6,7-15.7,15.7-15.7h401.7c8.6,0,15.7,7,15.7,15.7v31.7
		C473.2,234.5,466.2,241.6,457.6,241.6z"/>
	<path d="M457.6,334.9H55.9c-8.6,0-15.7-7-15.7-15.7v-31.7c0-8.6,7-15.7,15.7-15.7h401.7c8.6,0,15.7,7,15.7,15.7v31.7
		C473.2,327.9,466.2,334.9,457.6,334.9z"/>
	<path d="M457.6,428.2H55.9c-8.6,0-15.7-7-15.7-15.7v-31.7c0-8.6,7-15.7,15.7-15.7h401.7c8.6,0,15.7,7,15.7,15.7v31.7
		C473.2,421.2,466.2,428.2,457.6,428.2z"/>
</g>
<title>Redactor</title>
</svg>
