<?xml version="1.0" encoding="utf-8"?>
<!-- Generator: Adobe Illustrator 17.0.0, SVG Export Plug-In . SVG Version: 6.00 Build 0)  -->
<!DOCTYPE svg PUBLIC "-//W3C//DTD SVG 1.1//EN" "http://www.w3.org/Graphics/SVG/1.1/DTD/svg11.dtd">
<svg version="1.1" id="Layer_1" xmlns="http://www.w3.org/2000/svg" xmlns:xlink="http://www.w3.org/1999/xlink" x="0px" y="0px"
	 width="512px" height="512px" viewBox="0 0 512 512" enable-background="new 0 0 512 512" xml:space="preserve">
<g>
	<path id="share-3-icon_1_" d="M341.006,327.923l-0.086-35.982c-118.231-8.338-175.349-69.773-221.927-169.605l44.996,5.347
		l19.506-36.606c36.867,78.463,77.493,121.724,157.255,128.913l-0.085-35.614l86.675,71.267L341.006,327.923z"/>
	<path id="share-3-icon_2_" d="M427.339,256.357l-86.675,71.267l0.085-35.614c-79.762,7.19-120.388,50.45-157.255,128.913
		l-19.506-36.606l-44.996,5.347c46.578-99.832,103.696-161.267,221.927-169.605l0.086-35.982L427.339,256.357z"/>
	<polygon points="228.822,220.367 228.822,293.334 84.66,293.334 109.736,256.85 84.66,220.367 	"/>
</g>
</svg>
