<?xml version="1.0" encoding="UTF-8" standalone="no"?>
<svg width="60px" height="60px" viewBox="0 0 60 60" version="1.1" xmlns="http://www.w3.org/2000/svg" xmlns:xlink="http://www.w3.org/1999/xlink">
    <!-- Generator: Sketch 46.2 (44496) - http://www.bohemiancoding.com/sketch -->
    <title>announcement</title>
    <desc>Created with Sketch.</desc>
    <defs></defs>
    <g id="Page-1" stroke="none" stroke-width="1" fill="none" fill-rule="evenodd">
        <g id="announcement" fill="#183247">
            <path d="M30,58 C14.536027,58 2,45.463973 2,30 C2,14.536027 14.536027,2 30,2 C45.463973,2 58,14.536027 58,30 C58,45.463973 45.463973,58 30,58 Z M18.8965234,31.9310156 L18.8965234,31.9310156 L27.5862031,31.9310156 L27.5862031,32.4875703 C27.5862031,32.7236016 27.4156328,32.9249609 27.1827734,32.9637344 L26.8386981,33.0210799 L28.7636797,42.6464297 C28.8088516,42.8720703 29.0070391,43.0344922 29.2371094,43.0344922 C29.5037656,43.0344922 29.7198906,43.2506172 29.7198906,43.5172187 C29.7198906,43.7838203 29.5037109,44 29.2371094,44 L24.9114375,44 C24.2210625,44 23.6266641,43.5127344 23.4912578,42.8357578 L21.6996322,33.8775848 L19.4586563,34.2510781 C19.1644375,34.3001328 18.8965234,34.0732344 18.8965234,33.7749141 L18.8965781,31.9310156 L28.5517656,31.9310156 L28.5517656,21.310375 L18.8965781,21.310375 C17.8301172,21.310375 16.9655625,22.1749297 16.9655625,23.2413906 L16.9655078,23.2413906 C16.43225,23.2413906 16,23.6736406 16,24.2068984 L16,29.0344922 C16,29.56775 16.43225,30 16.9655078,30 L16.9655625,30 C16.9655625,31.0664427 17.8300876,31.9309861 18.8965234,31.9310156 Z M42.5517656,28.8413474 L42.5517656,28.8413474 L43.2238203,28.7069141 C43.6751562,28.6167344 44,28.2204141 44,27.7601641 L44,25.4811719 C44,25.0209219 43.6751562,24.6247109 43.2238203,24.5344766 L42.5517656,24.4000432 L42.5517656,16.4827812 C42.5517656,16.2161797 42.3355859,16 42.0689844,16 L41.5862031,16 C41.3196016,16 41.1034219,16.2161797 41.1034219,16.4827812 L41.1034219,36.7586094 C41.1034219,37.0252109 41.3196016,37.2413906 41.5862031,37.2413906 L42.0689844,37.2413906 C42.3355859,37.2413906 42.5517109,37.0252109 42.5517656,36.7586641 L42.5517656,28.8413474 Z M28.5517109,21.3103203 L28.5517109,31.9310156 C31.9310156,31.9310156 37.2413906,33.3793047 41.1034219,36.7586094 L41.1034219,16.4827812 C37.2413906,19.8620859 31.9310156,21.3103203 28.5517109,21.3103203 Z" id="Combined-Shape"></path>
        </g>
    </g>
</svg>