<?xml version="1.0" encoding="UTF-8" standalone="no"?>
<svg width="60px" height="60px" viewBox="0 0 60 60" version="1.1" xmlns="http://www.w3.org/2000/svg" xmlns:xlink="http://www.w3.org/1999/xlink">
    <!-- Generator: Sketch 46.2 (44496) - http://www.bohemiancoding.com/sketch -->
    <title>announcement</title>
    <desc>Created with Sketch.</desc>
    <defs></defs>
    <g id="Page-1" stroke="none" stroke-width="1" fill="none" fill-rule="evenodd">
        <g id="announcement" fill="#183247">
            <path d="M30,58 C14.536027,58 2,45.463973 2,30 C2,14.536027 14.536027,2 30,2 C45.463973,2 58,14.536027 58,30 C58,45.463973 45.463973,58 30,58 Z M40.9000015,17.6578738 C37.0567024,20.9121733 31.8720646,22.3103203 28.5517109,22.3103203 L28.5517109,22.310375 L19.8965781,22.310375 C18.8301172,22.310375 17.9655625,23.1749297 17.9655078,24.2413906 C17.43225,24.2413906 17,24.6736406 17,25.2068984 L17,30.0344922 C17,30.56775 17.43225,31 17.9655625,31 C17.9655625,32.0664427 18.8300876,32.9309861 19.8965485,32.9310156 L19.8965234,33.7749141 C19.8965234,34.0732344 20.1644375,34.3001328 20.4586563,34.2510781 L22.6996322,33.8775848 L24.4912578,42.8357578 C24.6266641,43.5127344 25.2210625,44 25.9114375,44 L30.2371094,44 C30.5037109,44 30.7198906,43.7838203 30.7198906,43.5172187 C30.7198906,43.2506172 30.5037656,43.0344922 30.2371094,43.0344922 C30.0070391,43.0344922 29.8088516,42.8720703 29.7636797,42.6464297 L27.8386981,33.0210799 L28.1827734,32.9637344 C28.2219085,32.957218 28.2592842,32.9461093 28.2943865,32.9310156 L28.5517109,32.9310156 C31.8720646,32.9310156 37.0567024,34.3292155 40.9000015,37.5835168 L40.9000015,37.7586094 C40.9000015,38.0252109 41.1161812,38.2413906 41.3827828,38.2413906 L41.865564,38.2413906 C42.1321656,38.2413906 42.3482906,38.0252109 42.3483453,37.7586641 L42.3483453,29.8413474 L43.0204,29.7069141 C43.4717359,29.6167344 43.7965797,29.2204141 43.7965797,28.7601641 L43.7965797,26.4811719 C43.7965797,26.0209219 43.4717359,25.6247109 43.0204,25.5344766 L42.3483453,25.4000432 L42.3483453,17.4827813 C42.3483453,17.2161797 42.1321656,17 41.865564,17 L41.3827828,17 C41.1161812,17 40.9000015,17.2161797 40.9000015,17.4827813 L40.9000015,17.6578738 Z" id="Combined-Shape"></path>
        </g>
    </g>
</svg>