<?xml version="1.0" encoding="utf-8"?>
<!-- Generator: Adobe Illustrator 17.1.0, SVG Export Plug-In . SVG Version: 6.00 Build 0)  -->
<!DOCTYPE svg PUBLIC "-//W3C//DTD SVG 1.1//EN" "http://www.w3.org/Graphics/SVG/1.1/DTD/svg11.dtd">
<svg version="1.1" id="Layer_1" xmlns="http://www.w3.org/2000/svg" xmlns:xlink="http://www.w3.org/1999/xlink" x="0px" y="0px"
	 viewBox="0 0 512 512" enable-background="new 0 0 512 512" xml:space="preserve">
<path display="none" fill="#010101" d="M259.9,58.8c-109.8,0-199.1,89.3-199.1,199.1c0,109.8,89.3,199.1,199.1,199.1
	c109.8,0,199.1-89.3,199.1-199.1C459,148.1,369.7,58.8,259.9,58.8z M377.9,197.9L235.8,340c-3.3,3.3-7.2,5-11.5,5c-2,0-8,0-11.9-5.3
	l-70.9-70.9c-3.3-3.3-5-7.2-5-11.5c0-5.1,1.5-9,5-12.4s7.3-5,12.4-5c2,0,8,0,11.9,5.3l59.3,59.3l128.8-130.5
	c3.9-5.3,9.9-5.3,11.9-5.3c5.1,0,9,1.5,12.4,5c3.5,3.5,5,7.3,5,12.4C383.2,188.1,383.2,194,377.9,197.9z"/>
<path fill="#020202" d="M65.6,464.6c-5.3,0-10.1-4.8-10.1-10.1V131.7c0-5.3,4.8-10.1,10.1-10.1h322.9c5.3,0,10.1,4.8,10.1,10.1v39.8
	l-31.2,34v-52.6l0,0H86.7l0,0v280.5l0,0h280.5l0,0v-47.6l31.2,32v36.8c0,5.3-4.8,10.1-10.1,10.1L65.6,464.6L65.6,464.6z"/>
<path fill="#020202" d="M433.1,412.4c-5.4,0-10.6-2.1-14.6-5.8l-0.2-0.2l-71.5-81.5l-71.5,81.5l-0.2,0.2c-3.9,3.8-9.1,5.8-14.5,5.8
	c-5.6,0-10.9-2.2-14.9-6.2s-6.2-9.2-6.2-14.8c0-5.6,2.2-10.9,6.2-14.9l0.2-0.2l73-83.2l-73-83.2l-0.2-0.2c-4-4-6.2-9.2-6.2-14.9
	c0-5.6,2.2-10.9,6.2-14.9s9.3-6.2,14.9-6.2c5.4,0,10.6,2.1,14.6,5.8l0.2,0.2l71.5,81.5l71.5-81.5l0.2-0.2c3.9-3.7,9.1-5.8,14.5-5.8
	c5.6,0,10.9,2.2,14.9,6.2s6.2,9.2,6.2,14.9c0,5.6-2.2,10.9-6.2,14.9l-0.2,0.2l-73,83.2l73,83.2l0.2,0.2c4,4,6.1,9.2,6.1,14.9
	c0,5.6-2.2,10.9-6.2,14.9C444,410.2,438.7,412.4,433.1,412.4z"/>
</svg>
