<?xml version="1.0" encoding="utf-8"?>
<!-- Generator: Adobe Illustrator 17.1.0, SVG Export Plug-In . SVG Version: 6.00 Build 0)  -->
<!DOCTYPE svg PUBLIC "-//W3C//DTD SVG 1.1//EN" "http://www.w3.org/Graphics/SVG/1.1/DTD/svg11.dtd">
<svg version="1.1" id="Layer_1" xmlns="http://www.w3.org/2000/svg" xmlns:xlink="http://www.w3.org/1999/xlink" x="0px" y="0px"
	 viewBox="0 0 512 512" enable-background="new 0 0 512 512" xml:space="preserve">
<path display="none" fill="#010101" d="M259.9,58.8c-109.8,0-199.1,89.3-199.1,199.1c0,109.8,89.3,199.1,199.1,199.1
	c109.8,0,199.1-89.3,199.1-199.1C459,148.1,369.7,58.8,259.9,58.8z M377.9,197.9L235.8,340c-3.3,3.3-7.2,5-11.5,5c-2,0-8,0-11.9-5.3
	l-70.9-70.9c-3.3-3.3-5-7.2-5-11.5c0-5.1,1.5-9,5-12.4s7.3-5,12.4-5c2,0,8,0,11.9,5.3l59.3,59.3l128.8-130.5
	c3.9-5.3,9.9-5.3,11.9-5.3c5.1,0,9,1.5,12.4,5c3.5,3.5,5,7.3,5,12.4C383.2,188.1,383.2,194,377.9,197.9z"/>
<path fill="#010101" d="M65.6,464.6c-5.3,0-10.1-4.8-10.1-10.1V131.7c0-5.3,4.8-10.1,10.1-10.1h322.9c5.3,0,10.1,4.8,10.1,10.1v81.8
	l-31.2,30v-90.6c0,0,0,0,0,0H86.7c0,0,0,0,0,0v280.5c0,0,0,0,0,0h280.5c0,0,0,0,0,0v-74.6l31.2-31v126.8c0,5.3-4.8,10.1-10.1,10.1
	H65.6z"/>
<path fill="#010101" d="M491,159.6c4.8,0,9.6,1.6,12.8,4.8c3.2,3.2,4.8,8,4.8,12.8s-1.6,9.6-4.8,12.8L286.2,407.6
	c-3.2,3.2-8,4.8-12.8,4.8s-9.6-1.6-12.8-4.8L151.8,298.8c-3.2-3.2-4.8-6.4-4.8-12.8c0-4.8,1.6-9.6,4.8-12.8c3.2-3.2,8-4.8,12.8-4.8
	s9.6,1.6,12.8,4.8l91.2,92.8c1.6,1.6,4.8,1.6,6.4,0l203.2-200C481.4,161.2,484.6,159.6,491,159.6z"/>
</svg>
