<?xml version="1.0" encoding="utf-8"?>
<!-- Generator: Adobe Illustrator 19.2.1, SVG Export Plug-In . SVG Version: 6.00 Build 0)  -->
<svg version="1.1" id="Layer_1" xmlns="http://www.w3.org/2000/svg" xmlns:xlink="http://www.w3.org/1999/xlink" x="0px" y="0px"
	 width="512px" height="512px" viewBox="0 0 512 512" style="enable-background:new 0 0 512 512;" xml:space="preserve">
<g>
	<path d="M381,475.1V365.4c0-3.3-2.2-6.3-5.1-7.8l-93.3-46.7c-5.8-2.9-12.6,1.3-12.6,7.8v109.7c0,3.3,1.7,6.3,4.6,7.8l93.5,46.7
		C374,485.9,381,481.6,381,475.1z"/>
	<path d="M495.9,436c2.6-1.3,4.1-4,4.1-6.9v-112c0-5.8-5.8-9.5-11-6.9l-95.5,47.7c-2.6,1.3-4.5,4-4.5,6.9v112
		c0,5.8,6.3,9.5,11.4,6.9L495.9,436z"/>
	<path d="M287.1,304.1l94.6,47.3c2,1,4.4,1,6.5,0l94.6-47.3c5.3-2.7,5.3-10.3,0-12.9l-94.6-47.3c-2-1-4.4-1-6.5,0l-94.6,47.3
		C281.8,293.9,281.8,301.5,287.1,304.1z"/>
</g>
<g>
	<path d="M252,260.1V150.4c0-3.3-2.2-6.3-5.1-7.8l-93.3-46.7c-5.8-2.9-12.6,1.3-12.6,7.8v109.7c0,3.3,1.7,6.3,4.6,7.8l93.5,46.7
		C245,270.9,252,266.6,252,260.1z"/>
	<path d="M366.9,221c2.6-1.3,4.1-4,4.1-6.9v-112c0-5.8-5.8-9.5-11-6.9l-95.5,47.7c-2.6,1.3-4.5,4-4.5,6.9v112
		c0,5.8,6.3,9.5,11.4,6.9L366.9,221z"/>
	<path d="M158.1,89.1l94.6,47.3c2,1,4.4,1,6.5,0l94.6-47.3c5.3-2.7,5.3-10.3,0-12.9l-94.6-47.3c-2-1-4.4-1-6.5,0l-94.6,47.3
		C152.8,78.9,152.8,86.5,158.1,89.1z"/>
</g>
<g>
	<path d="M123,475.1V365.4c0-3.3-2.2-6.3-5.1-7.8l-93.3-46.7c-5.8-2.9-12.6,1.3-12.6,7.8v109.7c0,3.3,1.7,6.3,4.6,7.8l93.5,46.7
		C116,485.9,123,481.6,123,475.1z"/>
	<path d="M237.9,436c2.6-1.3,4.1-4,4.1-6.9v-112c0-5.8-5.8-9.5-11-6.9l-95.5,47.7c-2.6,1.3-4.5,4-4.5,6.9v112
		c0,5.8,6.3,9.5,11.4,6.9L237.9,436z"/>
	<path d="M29.1,304.1l94.6,47.3c2,1,4.4,1,6.5,0l94.6-47.3c5.3-2.7,5.3-10.3,0-12.9l-94.6-47.3c-2-1-4.4-1-6.5,0l-94.6,47.3
		C23.8,293.9,23.8,301.5,29.1,304.1z"/>
</g>
<rect x="99" y="198" width="17" height="18"/>
<rect x="395" y="198" width="17" height="18"/>
<rect x="247" y="456" width="18" height="19"/>
</svg>
