<?xml version="1.0" encoding="utf-8"?>
<!-- Generator: Adobe Illustrator 18.0.0, SVG Export Plug-In . SVG Version: 6.00 Build 0)  -->
<!DOCTYPE svg PUBLIC "-//W3C//DTD SVG 1.1//EN" "http://www.w3.org/Graphics/SVG/1.1/DTD/svg11.dtd">
<svg version="1.1" id="Layer_1" xmlns="http://www.w3.org/2000/svg" xmlns:xlink="http://www.w3.org/1999/xlink" x="0px" y="0px"
	 viewBox="0 0 512 512" enable-background="new 0 0 512 512" xml:space="preserve">
<path d="M95.8,155.5c1.8,0,3.4-0.4,5.2-0.5c-0.2,0.7,0,1.1,0.6,0.9c1.1-0.3,2.2-0.4,3.4-0.4c7.8,0,14.2,6.3,14.2,14
	c0,3.5-1.5,6.6-3.7,9c-27.9,23.9-58.1,45.1-90.1,63.6c0,0,0.1,0.1,0,0.1c-3.5,2.4-5.9,6.4-5.9,11c0,1.5,0.3,2.9,0.7,4.2
	c22.1,41.6,49.1,80.1,80.2,115c2.5,2.2,5.7,3.8,9.3,3.8c7.8,0,14.2-6.3,14.2-14c0-1.2-0.1-2.3-0.4-3.3c-0.1-0.4,0-0.6,0.3-0.6
	c-1.5-5.2-2.6-10.5-2.6-16.1c0-32.1,26.3-58.2,58.7-58.2c32.4,0,58.7,26.1,58.7,58.2c0,32.1-26.3,58.2-58.7,58.2
	c-6.7,0-13-1.3-19-3.4c0,0.2-0.1,0.4-0.7,0.3c-0.8-0.1-1.7-0.2-2.6-0.2c-7.8,0-14.2,6.3-14.2,14.1c0,2.3,0.7,4.5,1.7,6.4
	c36.8,33.3,77.6,62.2,122,85.5c1.2,0.3,2.4,0.5,3.7,0.5c2.1,0,3.9-0.5,5.7-1.3c35.1-19.6,68-42.6,98.2-68.6c1.9-2.4,3.3-5.2,3.2-8.4
	c0-7.8-6.3-14-14.2-14c-1.5,0-2.9,0.2-4.3,0.7c-0.5,0.2-0.6-0.1-0.3-0.6c-4,0.8-8,1.3-12.2,1.3c-32.4,0-58.7-26.1-58.7-58.2
	c0-32.1,26.3-58.2,58.7-58.2s58.7,26.1,58.7,58.2c0,5.2-0.9,10.2-2.2,15c0,0,0,0,0,0c-0.3,1.2-0.5,2.4-0.5,3.7c0,7.7,6.3,14,14.2,14
	c3.3,0,6.2-1.4,8.6-3.3c27.8-30.5,52.3-63.8,73.2-99.6c1.1-2,1.8-4.2,1.8-6.6c0-2-0.5-3.8-1.3-5.4c-23.5-45.9-53.1-88.2-87.4-126.1
	c-1.9-1-4.1-1.5-6.5-1.5c-7.8,0-14.2,6.3-14.2,14c0,2.3,0.6,4.5,1.6,6.4c0.1,0.1,0,0.1,0,0.2c3.1,7.1,4.9,14.9,4.9,23.1
	c0,32.1-26.3,58.2-58.7,58.2c-32.4,0-58.7-26.1-58.7-58.2c0-32.1,26.3-58.2,58.7-58.2c8.8,0,17.1,2.1,24.7,5.5
	c0.1-0.3,0.3-0.4,0.6-0.2c2,1.1,4.3,1.7,6.7,1.7c7.8,0,14.2-6.3,14.2-14c0-2.4-0.8-4.5-1.8-6.5C345.6,80.2,303,48.7,256.6,23.3
	c-1.4-0.5-2.8-0.8-4.4-0.8c-4.1,0-7.8,1.8-10.2,4.7c-0.1,0.1-0.3,0-0.5-0.1c-19.3,33.1-41.6,64.3-66.7,92.9
	c-2.1,1.2-4.4,2.1-7.1,2.1c-7.8,0-14.2-6.3-14.2-14c0-1,0.1-1.9,0.3-2.8c0-0.2-0.1-0.3-0.1-0.4c0.3-2.5,0.8-5,0.8-7.7
	c0-32.1-26.3-58.2-58.7-58.2S37.1,65.2,37.1,97.3S63.4,155.5,95.8,155.5z"/>
</svg>
