<?xml version="1.0" encoding="utf-8"?>
<!-- Generator: Adobe Illustrator 19.2.1, SVG Export Plug-In . SVG Version: 6.00 Build 0)  -->
<svg version="1.1" id="Layer_1" xmlns="http://www.w3.org/2000/svg" xmlns:xlink="http://www.w3.org/1999/xlink" x="0px" y="0px"
	 width="512px" height="512px" viewBox="0 0 512 512" style="enable-background:new 0 0 512 512;" xml:space="preserve">
<g id="SD8gEM.tif">
	<g>
		<path d="M285.7,255.7c0,39.6,0.1,79.3-0.1,118.9c0,4.8,1.2,6.6,6.3,6.5c8.9-0.1,17.9-0.9,26.9,0.5c13.1,2,18.6,15.7,10.5,26.2
			c-1.1,1.4-2.4,2.7-3.6,4c-19,19-38,38.1-57.1,57.1c-10.5,10.5-18.5,10.5-28.9,0.1c-19.7-19.7-39.5-39.4-59.2-59.2
			c-4.8-4.9-7.2-10.6-4.7-17.3c2.4-6.5,7.2-10.4,14.2-11c2.3-0.2,4.5-0.5,6.8-0.5c6.5-0.1,13.1-0.2,19.6,0c4.1,0.1,5.3-1.5,5.3-5.5
			c-0.1-79.9-0.1-159.9,0-239.8c0-3.8-1.2-5.2-5.1-5.1c-8.2,0.2-16.3,0-24.5,0.1c-7.7,0-13.2-3.6-16.2-10.5
			c-2.9-6.8-0.7-12.7,4.3-17.8c20.5-20.5,41-41.1,61.6-61.6c7.6-7.6,16.5-7.4,24.2,0.2c20.5,20.4,40.8,40.8,61.3,61.2
			c5.2,5.2,7.4,11.3,4.4,18.2c-3,6.9-8.7,10.3-16.3,10.3c-7.3,0-14.7,0-22,0c-7.8,0-7.8,0-7.8,7.6
			C285.7,177.4,285.7,216.6,285.7,255.7z"/>
	</g>
</g>
</svg>
