<?xml version="1.0" encoding="utf-8"?>
<!-- Generator: Adobe Illustrator 19.2.1, SVG Export Plug-In . SVG Version: 6.00 Build 0)  -->
<svg version="1.1" id="Layer_1" xmlns="http://www.w3.org/2000/svg" xmlns:xlink="http://www.w3.org/1999/xlink" x="0px" y="0px"
	 width="512px" height="512px" viewBox="0 0 512 512" style="enable-background:new 0 0 512 512;" xml:space="preserve">
<path d="M65.7,137.4c0.5-79.2-9.1-71.6,72.2-71.8c16.3,0,32.6,0,48.9,0.2c9.5,0.1,17.9,2.8,21.7,12.6c3.4,8.8-1.3,15.6-6.5,22.2
	c-25.9,33.2-25.9,33.2,3.9,63c11.5,11.5,23.6,22.6,34.5,34.7c10.1,11.3,18.3,13.7,29.8,1.1c17-18.6,35.2-36.3,53.6-53.7
	c11.3-10.6,12-19.1,0.6-30.5c-10.2-10.3-28.2-19.5-19.8-37.9c8.2-18.1,27-11,41.7-11.5c24.4-0.8,48.9,0,73.4-0.2
	c16.5-0.1,27.3,7.1,27.7,24c0.8,32.6,0.5,65.2,0,97.8c-0.2,9-2.9,18.1-12.8,21.9c-9.8,3.7-17.4-1-24.1-7.6
	c-5.2-5.1-10.8-10-15.6-15.5c-9-10.4-16.9-9.8-26.4,0.1c-19.2,20-38.9,39.6-58.8,58.8c-8.4,8-8.4,14.3-0.1,22.3
	c20.5,19.9,40.8,39.9,60.5,60.6c9.9,10.5,16.6,8.3,26.2-0.6c11.2-10.4,20-30.7,39.4-21.6c17.8,8.4,12.3,28.4,12.7,44.1
	c0.7,23.6,0,47.3-0.6,70.9c-0.5,18.7-10.4,28.3-29.4,28.2c-30.2-0.1-60.3,0.1-90.5-0.2c-10.2-0.1-19.9-2.6-24.3-13.1
	c-4.7-11.1,2.9-18.4,9.5-25.7c25.4-28.2,25.4-28.2-1.4-54.9c-13.8-13.8-28.1-27.3-41.4-41.6c-9.8-10.5-17.9-11.6-28.4-0.6
	c-19.1,20.1-38.9,39.6-58.8,58.8c-8,7.7-10.2,14.3-0.7,22.1c2.5,2.1,4.9,4.4,6.9,6.9c8.7,10.8,26.5,18.5,17.9,36.2
	c-7.9,16.3-25.2,11.9-39.5,12.2c-23.6,0.4-47.3-0.1-70.9,0.1c-21,0.2-31.8-8.5-31.2-30.8c0.8-30.2,0.2-60.3,0.2-90.5
	c0-9.3,0.9-18.3,10.6-22.9c11.1-5.4,18.4,1.9,25.8,8.5c28.4,25.5,28.5,25.5,55.2-1.3c13.8-13.8,27.1-28.4,41.7-41.3
	c12.4-11,10.9-19-0.6-29.6c-18.6-17.1-36.5-35-53.6-53.6c-11.1-12.1-19.1-10.8-30.1,0.3c-10.3,10.3-19.1,28.8-37.6,20.6
	c-18.3-8-9.8-27.2-11.2-41.7C65,157,65.7,147.1,65.7,137.4z"/>
</svg>
