<?xml version="1.0" encoding="UTF-8"?>
<svg width="60px" height="60px" viewBox="0 0 60 60" version="1.1" xmlns="http://www.w3.org/2000/svg" xmlns:xlink="http://www.w3.org/1999/xlink">
    <!-- Generator: Sketch 44.1 (41455) - http://www.bohemiancoding.com/sketch -->
    <title>assignto</title>
    <desc>Created with Sketch.</desc>
    <defs></defs>
    <g id="Page-1" stroke="none" stroke-width="1" fill="none" fill-rule="evenodd">
        <g id="assignto" fill="#183247" fill-rule="nonzero">
            <path d="M44.854701,43.2841302 L49.8013397,43.2841302 C51.0475208,43.2841302 52.0577501,44.2943595 52.0577501,45.5405405 L52.0577501,45.5405405 L52.0577501,45.5405405 C52.0577501,46.7867216 51.0475208,47.7969509 49.8013397,47.7969509 L44.854701,47.7969509 L44.854701,52.7435897 C44.854701,53.9897707 43.8444716,55 42.5982906,55 C41.3521096,55 40.3418803,53.9897707 40.3418803,52.7435897 L40.3418803,47.7969509 L35.3952415,47.7969509 C34.1490605,47.7969509 33.1388312,46.7867216 33.1388312,45.5405405 C33.1388312,44.2943595 34.1490605,43.2841302 35.3952415,43.2841302 L40.3418803,43.2841302 L40.3418803,38.3374914 C40.3418803,37.0913104 41.3521096,36.0810811 42.5982906,36.0810811 C43.8444716,36.0810811 44.854701,37.0913104 44.854701,38.3374914 L44.854701,43.2841302 Z M29.4627594,32.1081081 C22.2972188,32.1081081 16.4884005,26.263609 16.4884005,19.0540541 C16.4884005,11.8444991 22.2972188,6 29.4627594,6 C36.6283,6 42.4371184,11.8444991 42.4371184,19.0540541 C42.4371184,26.263609 36.6283,32.1081081 29.4627594,32.1081081 Z M29.4627594,27.5675676 C34.1359381,27.5675676 37.9242979,23.7559377 37.9242979,19.0540541 C37.9242979,14.3521704 34.1359381,10.5405405 29.4627594,10.5405405 C24.7895808,10.5405405 21.001221,14.3521704 21.001221,19.0540541 C21.001221,23.7559377 24.7895808,27.5675676 29.4627594,27.5675676 Z M12.5128205,51.2162162 C12.5128205,52.4700519 11.5025912,53.4864865 10.2564103,53.4864865 C9.01022928,53.4864865 8,52.4700519 8,51.2162162 C8,42.6119986 15.3576228,35.7027027 24.3589743,35.7027027 L33.7606837,35.7027027 C35.0068647,35.7027027 36.017094,36.7191373 36.017094,37.972973 C36.017094,39.2268086 35.0068647,40.2432432 33.7606837,40.2432432 L24.3589743,40.2432432 C17.7830637,40.2432432 12.5128205,45.1923513 12.5128205,51.2162162 Z"></path>
        </g>
    </g>
</svg>