<?xml version="1.0" encoding="utf-8"?>
<!-- Generator: Adobe Illustrator 19.2.1, SVG Export Plug-In . SVG Version: 6.00 Build 0)  -->
<svg version="1.1" id="Layer_1" xmlns="http://www.w3.org/2000/svg" xmlns:xlink="http://www.w3.org/1999/xlink" x="0px" y="0px"
	 width="512px" height="512px" viewBox="0 0 512 512" style="enable-background:new 0 0 512 512;" xml:space="preserve">
<path d="M339.2,173.1l-28.4-28.4l-142,142c-23.5,23.5-23.5,61.7,0,85.2c23.5,23.5,61.7,23.5,85.2,0l170.4-170.4
	c39.2-39.2,39.2-102.8,0-142c-39.2-39.2-102.8-39.2-142,0L103.5,238.4l0,0c-0.1,0.1-0.3,0.3-0.4,0.4c-54.7,54.7-54.7,143.3,0,198
	c54.7,54.7,143.3,54.7,198,0c0.1-0.1,0.2-0.2,0.4-0.4l0,0l122.1-122.1L395.3,286L273.2,408.1h0c-0.1,0.1-0.2,0.2-0.4,0.4
	c-38.9,38.9-102.3,38.9-141.2,0c-38.9-38.9-38.9-102.3,0-141.2c0.1-0.1,0.3-0.3,0.4-0.4l0,0L310.8,88c23.5-23.5,61.7-23.5,85.2,0
	c23.5,23.5,23.5,61.7,0,85.2L225.6,343.5c-7.8,7.8-20.6,7.8-28.4,0c-7.8-7.8-7.8-20.6,0-28.4L339.2,173.1z"/>
</svg>
