<?xml version="1.0" encoding="UTF-8" standalone="no"?>
<svg width="88px" height="101px" viewBox="0 0 88 101" version="1.1" xmlns="http://www.w3.org/2000/svg" xmlns:xlink="http://www.w3.org/1999/xlink">
    <!-- Generator: Sketch 3.8.3 (29802) - http://www.bohemiancoding.com/sketch -->
    <title>Place Holder</title>
    <desc>Created with Sketch.</desc>
    <defs></defs>
    <g id="Week2" stroke="none" stroke-width="1" fill="none" fill-rule="evenodd">
        <g id="No-preview-Available" transform="translate(-558.000000, -352.000000)" fill="#EBEBEB">
            <g id="Place-Holder" transform="translate(558.000000, 351.000000)">
                <path d="M52.5714,26.1424 L52.5714,0.9994 L6.2854,0.9994 C2.8144,0.9994 0.0004,3.8144 0.0004,7.2854 L0.0004,38.7134 L0.0004,92.1424 L0.0004,95.2854 C0.0004,98.7564 2.8144,101.5714 6.2854,101.5714 L81.7144,101.5714 C85.1854,101.5714 88.0004,98.7564 88.0004,95.2854 L88.0004,36.4284 L62.8574,36.4284 C57.1854,36.4284 52.5714,31.8144 52.5714,26.1424" id="Fill-1"></path>
                <path d="M56.5714,26.1424 C56.5714,29.6134 59.3854,32.4284 62.8574,32.4284 L88.0004,32.4284 L56.5714,0.9994 L56.5714,26.1424 Z" id="Fill-4"></path>
            </g>
        </g>
    </g>
</svg>