<?xml version="1.0" encoding="utf-8"?>
<!-- Generator: Adobe Illustrator 19.2.1, SVG Export Plug-In . SVG Version: 6.00 Build 0)  -->
<svg version="1.1" id="Layer_1" xmlns="http://www.w3.org/2000/svg" xmlns:xlink="http://www.w3.org/1999/xlink" x="0px" y="0px"
	 width="512px" height="512px" viewBox="0 0 512 512" style="enable-background:new 0 0 512 512;" xml:space="preserve">
<g>
	<path d="M255.3,219.9c65.3,0,130.6,0,195.8,0c14.7,0,21.6,7,21.7,21.7c0,10.5,0,21,0,31.5c-0.1,11.9-7.5,19.7-19.4,20.3
		c-1.7,0.1-3.4,0.1-5.1,0.1c-128.7,0-257.4,0-386,0c-4.3,0-8.7,0.2-12.7-1.7c-7.5-3.4-11.7-9.1-11.8-17.6c0-11.4-0.1-22.9,0-34.3
		c0.1-12.5,7.5-20,20-20c42.6-0.1,85.2,0,127.7,0C208.8,219.9,232,219.9,255.3,219.9z"/>
	<path d="M255.3,148.4c-65.1,0-130.2,0-195.3,0c-15.6,0-22.3-6.7-22.3-22.3c0-10.3,0-20.6,0-30.9c0.1-12,7.5-19.7,19.4-20.4
		c1.1-0.1,2.3,0,3.4,0c129.8,0,259.6,0,389.4,0c3.4,0,6.8,0.1,10,1.3c7.7,2.6,12.7,9.2,12.8,17.4c0.1,11.4,0.1,22.9,0,34.3
		c0,13.2-7.3,20.6-20.5,20.6c-35.8,0-71.7,0-107.5,0C315,148.4,285.1,148.4,255.3,148.4z"/>
	<path d="M254.6,437.7c-64.9,0-129.8,0-194.7,0c-15.5,0-22.2-6.7-22.2-22.2c0-10.5-0.1-21,0-31.5c0.1-10.4,6.4-17.7,16.7-19.3
		c2.4-0.4,4.9-0.4,7.3-0.4c129,0,258.1,0,387.1,0c7.3,0,14.3,0.9,19.4,6.9c3,3.6,4.6,7.6,4.6,12.4c-0.1,11.4,0,22.9,0,34.3
		c-0.1,12.4-7.5,19.9-20,19.9C386.7,437.7,320.7,437.7,254.6,437.7z"/>
</g>
</svg>
