<?xml version="1.0" encoding="utf-8"?>
<!-- Generator: Adobe Illustrator 18.0.0, SVG Export Plug-In . SVG Version: 6.00 Build 0)  -->
<!DOCTYPE svg PUBLIC "-//W3C//DTD SVG 1.1//EN" "http://www.w3.org/Graphics/SVG/1.1/DTD/svg11.dtd">
<svg version="1.1" id="Layer_1" xmlns="http://www.w3.org/2000/svg" xmlns:xlink="http://www.w3.org/1999/xlink" x="0px" y="0px"
	 viewBox="0 0 512 512" enable-background="new 0 0 512 512" xml:space="preserve">
<g>
	<path d="M367.7,66.3c-2.2-7-9.6-10.8-16.4-8.5L97.5,143.8h74.6L314,95.7c9.1,17.1,27.5,26.8,46.3,24.3l7.7,23.8h24.6L367.7,66.3z
		 M7.5,188.4L64.4,366v-76.7l-20-62.2c9.4-5.5,16.2-14.2,20-24.2v-30.6c0-7.8,3.1-14.8,8-19.9l-56.7,19.2
		C8.9,173.9,5.2,181.5,7.5,188.4z"/>
	<path d="M384.8,260.8c-12,0-21.6,10-21.6,22.3c0,12.3,9.7,22.3,21.6,22.3c12,0,21.6-10,21.6-22.3
		C406.5,270.8,396.8,260.8,384.8,260.8z M152.7,260.8c-12,0-21.6,10-21.6,22.3c0,12.3,9.7,22.3,21.6,22.3c12,0,21.6-10,21.6-22.3
		C174.4,270.8,164.7,260.8,152.7,260.8z M268.8,200.5c-39.3,0-71.2,37-71.2,82.6c0,45.6,31.9,82.6,71.2,82.6
		c39.3,0,71.2-37,71.2-82.6C340,237.4,308.1,200.5,268.8,200.5z M275.3,320.2v12.4h-15v-11.3c-9.2-0.5-18.3-2.8-23.2-5.2l4.2-16.7
		c5.9,2.7,14.1,5.3,23.1,5.3c6.7,0,11.4-1.7,11.4-5.6c0-3.8-3.9-6.1-13.7-8.9c-14.3-4.2-24.4-10.4-24.4-22.7
		c0-11,8.3-19.8,23.3-22.6v-11.3h14.9V244c9.1,0.2,15.2,1.9,20,3.9l-4.2,16.1c-3.6-1.3-10-4.1-19.8-4.1c-7.8,0-10.1,2.5-10.1,5.2
		c0,3,4.5,5.3,15.5,8.9c16.6,5.1,22.6,12,22.6,23C299.8,308.3,291.1,317.5,275.3,320.2z"/>
	<path d="M354,399.9c0-5.2,1.5-10.1,4.1-14.2H138.5c-3.7-18.6-17.9-33.3-36-37.1V220.9c18.3-3.9,32.6-18.9,36.1-37.9h259.9
		c3.4,19.2,18,34.3,36.6,38v85.5h23.4V172.3c0-7.3-5.9-13.4-13-13.4H92.1c-7.2,0-13,6-13,13.4v224.1c0,7.3,5.8,13.4,13,13.4h263.8
		C354.7,406.7,354,403.4,354,399.9z"/>
	<path d="M381.5,344.5c-6.3,0-11.4-5.3-11.4-11.7l0,0c0-6.5,5.1-11.7,11.4-11.7l0,0h113.2c6.3,0,11.4,5.2,11.4,11.7l0,0
		c0,6.5-5.1,11.7-11.4,11.7l0,0H381.5L381.5,344.5z"/>
	<path d="M376.6,378c-6.3,0-11.4-5.3-11.4-11.7l0,0c0-6.5,5.1-11.7,11.4-11.7l0,0h113.2c6.3,0,11.4,5.3,11.4,11.7l0,0
		c0,6.5-5.1,11.7-11.4,11.7l0,0H376.6L376.6,378z"/>
	<path d="M379.6,411.6c-6.3,0-11.4-5.2-11.4-11.7l0,0c0-6.5,5.1-11.7,11.4-11.7l0,0h113.2c6.3,0,11.4,5.2,11.4,11.7l0,0
		c0,6.5-5.1,11.7-11.4,11.7l0,0H379.6L379.6,411.6z"/>
</g>
</svg>
