<?xml version="1.0" encoding="UTF-8" standalone="no"?>
<svg width="67px" height="64px" viewBox="0 0 67 64" version="1.1" xmlns="http://www.w3.org/2000/svg" xmlns:xlink="http://www.w3.org/1999/xlink">
    <!-- Generator: Sketch 3.8.3 (29802) - http://www.bohemiancoding.com/sketch -->
    <title>blind-transfer</title>
    <desc>Created with Sketch.</desc>
    <defs></defs>
    <g id="Page-1" stroke="none" stroke-width="1" fill="none" fill-rule="evenodd">
        <g id="Transfer" transform="translate(-903.000000, -38.000000)" fill="#000000">
            <path d="M946.084116,39.5627695 C944.376792,37.4829179 941.595862,37.4797912 939.87824,39.5491537 L938.862425,40.772991 C937.142339,42.8453227 937.161128,46.2379675 938.856143,48.2922021 L951.672446,63.8246227 L956.38039,69.7062169 L951.302757,76.041688 L938.486155,91.6185369 C936.769498,93.7049015 936.774814,97.0936427 938.492524,99.1808131 L939.508391,100.415182 C941.228566,102.505347 943.986111,102.539307 945.701222,100.450005 L967.805486,73.5231844 C969.505518,71.4522514 969.50055,68.0885255 967.792283,66.0075242 L946.084116,39.5627695 L946.084116,39.5627695 Z M911.882668,39.5627695 C910.175344,37.4829179 907.394414,37.4797912 905.676792,39.5491537 L904.660977,40.772991 C902.940891,42.8453227 902.95968,46.2379675 904.654695,48.2922021 L917.470999,63.8246227 L922.178942,69.7062169 L917.101309,76.041688 L904.284707,91.6185369 C902.56805,93.7049015 902.573366,97.0936427 904.291076,99.1808131 L905.306943,100.415182 C907.027118,102.505347 909.784663,102.539307 911.499775,100.450005 L933.604039,73.5231844 C935.30407,71.4522514 935.299103,68.0885255 933.590835,66.0075242 L911.882668,39.5627695 L911.882668,39.5627695 Z" id="blind-transfer"></path>
        </g>
    </g>
</svg>