<?xml version="1.0" encoding="utf-8"?>
<!-- Generator: Adobe Illustrator 19.1.0, SVG Export Plug-In . SVG Version: 6.00 Build 0)  -->
<svg version="1.1" id="Layer_1" xmlns="http://www.w3.org/2000/svg" xmlns:xlink="http://www.w3.org/1999/xlink" x="0px" y="0px"
	 width="512px" height="512px" viewBox="0 0 512 512" style="enable-background:new 0 0 512 512;" xml:space="preserve">
<g>
	<g>
		<path d="M318.8,401c-9.5,0-18.9-3.5-26.2-10.6l-4.5-4.4v-83.5H44.7C25,302.5,9,286.7,9,267.4v-38c0-19.4,16-35.2,35.7-35.2h243.4
			V118l4.5-4.4c14.2-13.8,37.1-14.1,51.6-0.7l146.2,112.4l0.6,0.6c7.1,6.9,11,16.2,11,26c0,9.9-3.9,19.1-11,26l-0.6,0.6l-0.7,0.5
			L344.2,391.1C337.1,397.7,327.9,401,318.8,401z M318.1,371c2.1,0.2,4.3-0.5,5.9-2l0.6-0.6l0.7-0.5l145.2-111.7
			c1.3-1.6,1.5-3.2,1.5-4.1s-0.2-2.6-1.5-4.1L324.6,135.7l-0.6-0.6c-1.6-1.5-3.8-2.2-5.9-2v91.2H44.7c-3.1,0-5.7,2.3-5.7,5.2v38
			c0,2.8,2.5,5.2,5.7,5.2h273.4V371z"/>
	</g>
</g>
</svg>
