<?xml version="1.0" encoding="utf-8"?>
<!-- Generator: Adobe Illustrator 19.1.0, SVG Export Plug-In . SVG Version: 6.00 Build 0)  -->
<svg version="1.1" id="Layer_1" xmlns="http://www.w3.org/2000/svg" xmlns:xlink="http://www.w3.org/1999/xlink" x="0px" y="0px"
	 width="512px" height="512px" viewBox="0 0 512 512" style="enable-background:new 0 0 512 512;" xml:space="preserve">
<style type="text/css">
	.st0{fill-rule:evenodd;clip-rule:evenodd;}
</style>
<path class="st0" d="M256.5,16.1c-132.8,0-240.4,107.6-240.4,240.4s107.6,240.4,240.4,240.4s240.4-107.6,240.4-240.4
	S389.3,16.1,256.5,16.1z M66.5,256.5c0-104.9,85.1-190,190-190c44.6,0,85.6,15.4,118,41.1L107.6,374.5
	C81.9,342.1,66.5,301.1,66.5,256.5z M256.5,446.5c-44.6,0-85.6-15.4-118-41.1l266.9-266.9c25.7,32.4,41.1,73.4,41.1,118
	C446.5,361.4,361.4,446.5,256.5,446.5z"/>
</svg>
