<svg id="Layer_1" data-name="Layer 1" xmlns="http://www.w3.org/2000/svg" viewBox="0 0 512 512"><title>Redactor</title><path d="M344.77,233.09c17.65,4.53,32.81,10.89,46.76,20.2,34.35,22.92,47.43,55,41.26,95.31-5.26,34.46-23.88,59.32-54.48,75.6-23,12.24-47.61,18.38-73.46,20.54-29.65,2.48-59.25-.4-88.88-0.3-27.47.09-54.88,1.3-82.29,2.89-16.71,1-33.44,1.52-50.15,2.43-4.36.24-6.14-1.23-5.83-5.69A110.35,110.35,0,0,0,77.82,431c-0.21-4.38,1.73-6.23,5.95-7,10.72-1.85,21.32-4.35,32.06-6,9.31-1.45,13.87-6.64,15.37-15.7s2.92-18.15,2.89-27.41c-0.09-38.7.44-77.42-.27-116.11-0.51-27.63,0-55.28-1-82.89-0.78-22.91-.74-45.86-2.82-68.72-0.86-9.44-2.16-11.16-11.56-13.59-11.41-3-23.15-3.51-34.79-4.7-3.7-.38-4.91-2-4.87-5.45a66.87,66.87,0,0,0-.38-11.54c-0.73-4.48,1.17-5.72,5.11-5.76,9.88-.12,19.74-0.33,29.62-0.77,24.42-1.08,48.87-1.4,73.28-2.49q52-2.32,104-1.62c29.39,0.42,57.5,5.58,83.07,21.33,37.88,23.33,47.43,68.36,34.57,99.7a63.57,63.57,0,0,1-22.69,28.15,203.37,203.37,0,0,1-33.06,19C350.2,230.44,348.13,231.48,344.77,233.09ZM215.09,330.28c0.47,18.39-1.66,43.4,1,68.27,1.77,16.24.28,14.33,14.57,18.7,22.12,6.77,44.17,4.18,65.79-2.2,27.39-8.08,43.9-26.56,49.3-54.7a139.68,139.68,0,0,0,1.64-37c-2.21-29.67-23.56-57.06-52.07-65.7a118.06,118.06,0,0,0-27.17-4.62c-15.7-1-31.43-1.38-47.15.23-4.67.48-6.1,2.48-6.05,7.11C215.21,281.51,215.09,302.62,215.09,330.28Zm0-157.4c0,18.46,0,32.87,0,47.28,0,2.9.53,4.65,4,4.93,21.45,1.73,42.85,2.23,63.88-3.29,11.78-3.09,23-7.75,31.36-17.05C331.08,186,333,163.36,329.35,140.06c-3.59-22.75-18.71-36.23-39.53-44.15C268.08,87.63,245.66,87.11,223,90c-10.14,1.31-10.11,1.52-9.28,12,0,0.5.06,1,.06,1.51C213.82,128,215.88,152.45,215.08,172.88Z"/></svg>