<?xml version="1.0" encoding="utf-8"?>
<!-- Generator: Adobe Illustrator 19.0.1, SVG Export Plug-In . SVG Version: 6.00 Build 0)  -->
<svg version="1.1" id="Layer_1" xmlns="http://www.w3.org/2000/svg" xmlns:xlink="http://www.w3.org/1999/xlink" x="0px" y="0px"
	 width="512px" height="512px" viewBox="0 0 512 512" style="enable-background:new 0 0 512 512;" xml:space="preserve">
<style type="text/css">
	.st0{fill-rule:evenodd;clip-rule:evenodd;}
</style>
<g>
	<g>
		<path class="st0" d="M97.8,66.7l147,84.8c4.8,2.8,10.2,3.2,14.4,1.6c1.5-0.4,3.1-1,4.6-1.9L413,66.9c7.7-4.4,11.1-12.9,7.5-19
			c-3.6-6.1-12.8-7.6-20.6-3.2l-146,82.5L110.6,44.4c-7.6-4.4-16.7-3-20.2,3.2C86.9,53.8,90.1,62.3,97.8,66.7z M264.1,188.2
			L264.1,188.2c-2.5,1.5-5.4,2.4-8.6,2.4s-6.1-0.9-8.5-2.4h-0.1L23.5,85.2v327.6L244.2,471c0.5,0.2,1.1,0.3,1.7,0.4l1,0.3h0.2
			c2.6,0.5,5.4,0.8,8.4,0.8s5.8-0.3,8.4-0.8h0.2l0.9-0.2c0.8-0.2,1.6-0.4,2.4-0.6l220.1-59.2V85.2L264.1,188.2z M264.2,428.8
			c0,5.2-4.6,9.3-9.9,8.5c-4.3-0.6-7.3-4.5-7.3-8.8V222.9c0-4.3,3.1-8.2,7.3-8.8c5.3-0.8,9.9,3.3,9.9,8.5V428.8z"/>
	</g>
</g>
</svg>
