<?xml version="1.0" encoding="utf-8"?>
<!-- Generator: Adobe Illustrator 19.0.1, SVG Export Plug-In . SVG Version: 6.00 Build 0)  -->
<svg version="1.1" id="Layer_1" xmlns="http://www.w3.org/2000/svg" xmlns:xlink="http://www.w3.org/1999/xlink" x="0px" y="0px"
	 width="512px" height="512px" viewBox="0 0 512 512" style="enable-background:new 0 0 512 512;" xml:space="preserve">
<g>
	<path d="M264.8,189L264.8,189c-2.5,1.5-5.5,2.5-8.7,2.5s-6.2-0.9-8.7-2.5h-0.1L39.4,84v333.8l205.1,59.3c0.6,0.2,1.1,0.3,1.7,0.5
		l1,0.3h0.2c2.6,0.5,5.5,0.8,8.6,0.8c3,0,5.9-0.3,8.6-0.8h0.2l0.9-0.2c0.9-0.2,1.7-0.4,2.5-0.7l204.5-60.4V84L264.8,189z
		 M67.5,130.6L243,217.8v230.3L67.5,394.4V130.6z M445.5,392.5L269,448.1V217.7l176.5-88.2V392.5z"/>
	<path d="M62.4,57.2l188.2,96c1.7,0.8,3.6,1.1,5.4,1.1c1.8,0,3.6-0.3,5.4-1.1l188.2-96c6.1-2.8,8.8-10.1,6-16.2l0,0
		c-2.8-6.1-10.1-8.8-16.2-6L256,128.9L72.6,35.1c-6.1-2.8-13.4-0.1-16.2,6l0,0C53.6,47.2,56.3,54.4,62.4,57.2z"/>
</g>
</svg>
