<!-- Generated by IcoMoon.io -->
<svg version="1.1" xmlns="http://www.w3.org/2000/svg" width="38" height="32" viewBox="0 0 38 32">
<title>Bot-icon</title>
<path d="M32.269 11.77c3.393 0.377 5.968 3.361 5.968 6.905 0 3.793-2.951 6.945-6.696 6.945-0.156 0-0.311-0.006-0.465-0.017-2.671 3.841-7.156 6.236-12.078 6.236-4.912 0-9.392-2.386-12.066-6.22-3.818 0-6.769-3.151-6.769-6.945 0-3.392 2.359-6.27 5.536-6.842 0.243-0.525 0.518-1.034 0.824-1.526l-3.253-3.199c-1.618-1.591-1.618-4.17 0-5.761s4.241-1.591 5.859 0l3.568 3.509c1.944-0.908 4.088-1.39 6.301-1.39 2.318 0 4.559 0.529 6.572 1.52l3.7-3.639c1.618-1.591 4.241-1.591 5.859 0s1.618 4.17 0 5.761l-3.505 3.447c0.235 0.394 0.45 0.8 0.644 1.215zM28.463 10.271l4.942-4.859c0.665-0.654 0.665-1.713 0-2.367s-1.743-0.654-2.407 0l-5.036 4.952c-1.971-1.343-4.372-2.13-6.963-2.13-2.486 0-4.798 0.726-6.722 1.971l-4.873-4.792c-0.665-0.654-1.743-0.654-2.407 0s-0.665 1.713 0 2.367l4.722 4.643c-1.036 1.192-1.833 2.585-2.319 4.111-0.177-0.024-0.357-0.036-0.54-0.036-2.35 0-4.256 2.035-4.256 4.545s1.905 4.545 4.256 4.545c0.46 0 0.902-0.078 1.317-0.222 2.007 3.823 6.1 6.442 10.822 6.442 4.777 0 8.91-2.679 10.891-6.575 0.508 0.229 1.066 0.355 1.652 0.355 2.35 0 4.256-2.035 4.256-4.545s-1.905-4.545-4.256-4.545c-0.316 0-0.624 0.037-0.921 0.107-0.455-1.462-1.195-2.804-2.157-3.966zM19.2 25.76c-4.583 0-8.298-3.653-8.298-8.16s3.715-8.16 8.298-8.16c4.583 0 8.298 3.653 8.298 8.16s-3.715 8.16-8.298 8.16zM19.2 23.36c3.235 0 5.858-2.579 5.858-5.76s-2.623-5.76-5.858-5.76c-3.235 0-5.858 2.579-5.858 5.76s2.623 5.76 5.858 5.76z"></path>
</svg>
