<?xml version="1.0" encoding="utf-8"?>
<!-- Generator: Adobe Illustrator 20.1.0, SVG Export Plug-In . SVG Version: 6.00 Build 0)  -->
<svg version="1.1" id="Layer_1" xmlns="http://www.w3.org/2000/svg" xmlns:xlink="http://www.w3.org/1999/xlink" x="0px" y="0px"
	 width="512px" height="512px" viewBox="0 0 512 512" style="enable-background:new 0 0 512 512;" xml:space="preserve">
<g>
	<path d="M314.6,122.8C299.5,106,282,92.5,260.3,85.1c-32.5-11-60.7,1.5-72.8,33.4c-3.7,9.8-4.9,20.7-6.5,31.3
		c-0.6,4.3-1.2,8.2-4.3,11.4c-12.9,13.5-25.1,27.9-39,40.4c-29.9,26.7-63.9,47.5-99.4,65.8c-12.2,6.3-17.3,16.1-17,28.8
		c0.5,21.7,8,41,22.5,57.2c9.6,10.7,21.8,16.3,36.4,13.2c6.6-1.4,12.8-4.7,19.4-7.3c3.6,13.1,6.7,26.1,10.7,38.8
		c6.2,19.5,13.7,38.4,27.3,54.3c13.3,15.5,30.6,18.1,47.3,6.4c6.4-4.5,12.5-9.6,18.3-14.8c3.4-3.1,6.4-6.9,8.8-10.9
		c3.4-5.5,2.1-8.9-3.5-11.8c-15.5-8.2-27.6-19.9-36.5-35c-8.7-14.9-12.9-31-13.5-48.5c30.8-9.1,61.4-17.4,93.4-19.3
		c7.4-0.4,13.8,0.8,20.2,5.1c5.6,3.7,12.1,6.4,18.6,8.6c33.9,11.5,63-3.1,74.3-37.1c5.6-16.7,6.5-33.9,4.6-51.1
		C364.6,197.7,345.8,157.3,314.6,122.8z M308.2,266.6c-15.4,7.8-40.5-11.6-56.2-43.3c-15.7-31.7-17.3-63.3-1.9-71.2
		c15.4-7.8,41.8,11.1,57.6,42.9C323.2,226.7,323.5,258.7,308.2,266.6z"/>
	<path d="M356.4,129.1L356.4,129.1c1.4,3.4,4.2,6,7.8,6.8c15.6,3.7,27.3,14.7,33.5,29.9c6.3,15.2,5.8,31.3-2.7,44.9
		c-1.9,3.1-2.1,6.9-0.7,10.3v0c3.6,8.6,15.5,9.5,20.2,1.4c11.2-19.2,13.6-43.2,4.5-65.3s-27.8-37.4-49.2-43.2
		C360.7,111.5,352.8,120.5,356.4,129.1z"/>
	<path d="M372.8,78.7L372.8,78.7c1.5,3.7,4.8,6.2,8.8,6.9c31.2,5.1,59.4,25.7,72.4,57.1c12.9,31.4,7.4,66-11.1,91.5
		c-2.3,3.2-2.9,7.4-1.4,11v0c3.4,8.2,14.6,9.6,19.7,2.3c22.3-31.6,30.1-74.7,14-113.6c-16-38.9-51.9-64.1-90-70.8
		C376.5,61.6,369.5,70.4,372.8,78.7z"/>
</g>
</svg>
