<?xml version="1.0" encoding="utf-8"?>
<!-- Generator: Adobe Illustrator 19.2.1, SVG Export Plug-In . SVG Version: 6.00 Build 0)  -->
<svg version="1.1" id="Layer_1" xmlns="http://www.w3.org/2000/svg" xmlns:xlink="http://www.w3.org/1999/xlink" x="0px" y="0px"
	 width="512px" height="512px" viewBox="0 0 512 512" style="enable-background:new 0 0 512 512;" xml:space="preserve">
<g>
	<path d="M299.9,477.9H74.2c-6.8,0-12.3-5.5-12.3-12.3v-380c0-6.7,5.3-12.1,11.9-12.3l225.7-36h0.3c6.8,0,12.3,5.5,12.3,12.3v416
		C312.2,472.4,306.7,477.9,299.9,477.9z M74.2,82c-2,0-3.7,1.6-3.7,3.7v380c0,2,1.6,3.7,3.7,3.7h225.7c2,0,3.7-1.6,3.7-3.7v-416
		c0-1.9-1.5-3.5-3.4-3.6L74.6,82H74.2z"/>
	<path d="M442.8,477.9H312.9c-4.9,0-8.9-4.2-8.9-9.4V206.4c0-5.2,4-9.4,8.9-9.4l0.7,0.1l129.6,22.7c4.7,0.2,8.5,4.3,8.5,9.3v239.5
		C451.7,473.7,447.7,477.9,442.8,477.9z M312.9,469.3h129.9c0,0,0.3-0.3,0.3-0.7V229.1c0-0.4-0.2-0.7-0.3-0.7l-0.7-0.1l-129.2-22.6
		c-0.1,0.1-0.2,0.3-0.2,0.6v262.2C312.6,469,312.8,469.2,312.9,469.3z"/>
	<path d="M211.1,167.8h-46c-5.9,0-10.8-4.8-10.8-10.8v-38.9c0-5.9,4.8-10.8,10.8-10.8h46c5.9,0,10.8,4.8,10.8,10.8v38.9
		C221.8,163,217,167.8,211.1,167.8z M165.1,116.1c-1.2,0-2.1,1-2.1,2.1v38.9c0,1.2,1,2.1,2.1,2.1h46c1.2,0,2.1-1,2.1-2.1v-38.9
		c0-1.2-1-2.1-2.1-2.1H165.1z"/>
	<path d="M211.1,253.1h-46c-5.9,0-10.8-4.8-10.8-10.8v-38.9c0-5.9,4.8-10.8,10.8-10.8h46c5.9,0,10.8,4.8,10.8,10.8v38.9
		C221.8,248.3,217,253.1,211.1,253.1z M165.1,201.3c-1.2,0-2.1,1-2.1,2.1v38.9c0,1.2,1,2.1,2.1,2.1h46c1.2,0,2.1-1,2.1-2.1v-38.9
		c0-1.2-1-2.1-2.1-2.1H165.1z"/>
	<path d="M211.1,338.4h-46c-5.9,0-10.8-4.8-10.8-10.8v-38.9c0-5.9,4.8-10.8,10.8-10.8h46c5.9,0,10.8,4.8,10.8,10.8v38.9
		C221.8,333.6,217,338.4,211.1,338.4z M165.1,286.6c-1.2,0-2.1,1-2.1,2.1v38.9c0,1.2,1,2.1,2.1,2.1h46c1.2,0,2.1-1,2.1-2.1v-38.9
		c0-1.2-1-2.1-2.1-2.1H165.1z"/>
	<path d="M221.8,477.6h-67.5v-93.9c0-5.9,4.8-10.8,10.8-10.8h46c5.9,0,10.8,4.8,10.8,10.8V477.6z M163,469h50.2v-85.2
		c0-1.2-1-2.1-2.1-2.1h-46c-1.2,0-2.1,1-2.1,2.1V469z"/>
	<rect x="372.3" y="274.8" width="8.6" height="30.5"/>
	<rect x="372.3" y="339.6" width="8.6" height="30.5"/>
	<rect x="372.3" y="414.6" width="8.6" height="59.3"/>
</g>
</svg>
