<?xml version="1.0" encoding="utf-8"?>
<!-- Generator: Adobe Illustrator 17.1.0, SVG Export Plug-In . SVG Version: 6.00 Build 0)  -->
<!DOCTYPE svg PUBLIC "-//W3C//DTD SVG 1.1//EN" "http://www.w3.org/Graphics/SVG/1.1/DTD/svg11.dtd">
<svg version="1.1" id="Layer_1" xmlns="http://www.w3.org/2000/svg" xmlns:xlink="http://www.w3.org/1999/xlink" x="0px" y="0px"
	 viewBox="0 0 512 512" enable-background="new 0 0 512 512" xml:space="preserve">
<path fill="#010101" d="M248.1,48.4c-78.4,0-141.9,63.5-141.9,141.9c0,52,47.5,107.1,64.9,155.5c25.8,72.2,23,115.5,77.1,115.5
	c54.8,0,51.2-43.1,77.1-115.1c17.4-48.5,64.9-104.3,64.9-155.9C390.1,111.9,326.6,48.4,248.1,48.4z M281.6,399.1l-64,8
	c-2.2-6.6-4.7-14.3-7.7-24.4c0-0.1-0.1-0.3-0.1-0.4l79.9-10c-1.2,3.8-2.3,7.8-3.4,11.4C284.6,389.4,283.1,394.6,281.6,399.1z
	 M206,369.8c-2.3-7.8-5-16-7.9-24.6h100.2c-1.6,4.6-3.2,9.3-4.6,13.6C293.7,358.8,206,369.8,206,369.8z M248.1,435.6
	c-13.1,0-19.1-1.5-25.8-16.1l54.7-6.8C269.1,433.9,263.3,435.6,248.1,435.6z M308.4,319.4H188c-6.4-14-14.2-27.8-21.7-41.5
	c-16.8-30.2-34.2-61.3-34.2-87.5c0-64.1,52.1-116.1,116.1-116.1s116.1,52.1,116.1,116.1c0,26-17.4,57.4-34.2,87.6
	C322.5,291.7,314.8,305.5,308.4,319.4z M248.1,112.9c3.5,0,6.5,2.9,6.5,6.5c0,3.5-2.9,6.5-6.5,6.5c-35.6,0-64.5,29-64.5,64.5
	c0,3.5-2.9,6.5-6.5,6.5c-3.6,0-6.5-2.9-6.5-6.5C170.7,147.7,205.4,112.9,248.1,112.9z"/>
</svg>
