<?xml version="1.0" encoding="utf-8"?>
<!-- Generator: Adobe Illustrator 17.1.0, SVG Export Plug-In . SVG Version: 6.00 Build 0)  -->
<!DOCTYPE svg PUBLIC "-//W3C//DTD SVG 1.1//EN" "http://www.w3.org/Graphics/SVG/1.1/DTD/svg11.dtd">
<svg version="1.1" id="Layer_1" xmlns="http://www.w3.org/2000/svg" xmlns:xlink="http://www.w3.org/1999/xlink" x="0px" y="0px"
	 viewBox="0 0 512 512" enable-background="new 0 0 512 512" xml:space="preserve">
<path d="M356.6,77.6c-22.9,0-40.8,15.7-53.7,39.9l-0.2-0.1c-18.7,36.7-46.6,60.4-77.2,60.4H122.8c-25,0-44.5,24.5-44.5,55.7
	c0,31.2,19.6,55.7,44.5,55.7c12.3,0,22.2,10,22.2,22.3v100.2c0,12.3,10,22.3,22.3,22.3h44.5c12.3,0,22.3-10,22.3-22.3v-11.1
	c0-11.1-11.1-16.1-11.1-22.3v-78c0-0.3,0.2-0.4,0.2-0.7c0.1-1.6,0.5-3.1,1.2-4.4c0.2-0.4,0.4-0.7,0.7-1c0.9-1.3,2-2.4,3.4-3.3
	c0.1,0,0.1-0.1,0.2-0.2c0,0,0.1,0,0.1,0c0.9-0.5,2-0.6,3-0.9c28.1,3,53.6,25.7,71,59.8l0.3-0.1c12.9,24.2,30.8,39.8,53.7,39.8
	c51.2,0,78-78.4,78-155.9S407.8,77.6,356.6,77.6z M301,233.5c0-11.5,0.7-22.7,1.8-33.4h31.6c12.3,0,22.3,15,22.3,33.4
	c0,18.5-10,33.4-22.3,33.4h-31.6C301.6,256.3,301,245.1,301,233.5z M100.5,233.5c0-18.4,10-33.4,22.3-33.4h78.1
	c-6.9,8.1-11.3,19.9-11.3,33.4c0,13.5,4.4,25.3,11.3,33.4h-78.1C110.5,267,100.5,252,100.5,233.5z M211.8,411.7h-44.5V311.5
	c0-8.1-2.2-15.7-6-22.3h7.8v0.1h33.5c-1.2,3.5-1.9,7.1-1.9,11v78c0,10.7,6,17.9,9.6,22.1c0.5,0.6,1.1,1.2,1.6,1.8V411.7z
	 M225.5,267.1H223V267c-12.3,0-22.3-14.9-22.3-33.4c0-18.4,10-33.4,22.3-33.4h2.5c21,0,40.7-8.3,58-22.5
	c-3.2,17.9-4.8,36.9-4.8,55.9c0,19,1.6,38.1,4.8,56C266.2,275.4,246.5,267.1,225.5,267.1z M356.6,367.2c-22.5,0-41.8-32-50.6-78
	h28.3c25,0,44.5-24.4,44.5-55.7c0-31.2-19.6-55.7-44.5-55.7h-28.3c8.8-46,28.1-78,50.6-78c30.8,0,55.7,59.8,55.7,133.6
	S387.4,367.2,356.6,367.2z"/>
</svg>
