<?xml version="1.0" encoding="utf-8"?>
<!-- Generator: Adobe Illustrator 17.0.0, SVG Export Plug-In . SVG Version: 6.00 Build 0)  -->
<!DOCTYPE svg PUBLIC "-//W3C//DTD SVG 1.1//EN" "http://www.w3.org/Graphics/SVG/1.1/DTD/svg11.dtd">
<svg version="1.1" id="Layer_1" xmlns="http://www.w3.org/2000/svg" xmlns:xlink="http://www.w3.org/1999/xlink" x="0px" y="0px"
	 width="512px" height="512px" viewBox="0 0 512 512" enable-background="new 0 0 512 512" xml:space="preserve">
<g>
	<path enable-background="new    " d="M255,95.454V255H100.87C100.87,255,100.258,115.5,255,95.454z"/>
	<path d="M254.403,226.926c-16.495,0-29.866,13.372-29.866,29.866c0,1.299,0.092,2.576,0.253,3.832l-75.02,79.974
		c-6.914,7.081-7.973,16.037-0.891,22.951c7.081,6.914,16.037,4.389,22.951-2.693l76.996-74.726c1.807,0.342,3.67,0.528,5.577,0.528
		c16.495,0,29.866-13.372,29.866-29.866S270.897,226.926,254.403,226.926z"/>
	<path d="M255,9.5C119.414,9.5,9.5,119.414,9.5,255S119.414,500.5,255,500.5S500.5,390.586,500.5,255S390.586,9.5,255,9.5z
		 M268.738,445.049v-26.57h-26.105v26.656c-94.754-6.072-170.665-81.387-177.65-175.889h29.22v-26.105H64.832
		c5.873-95.616,82.252-172.156,177.801-178.279v26.602H268.5V64.939l0.239,0.012c94.909,6.763,170.585,83.031,176.43,178.191
		h-29.194v26.105h29.043C438.065,363.293,362.853,438.343,268.738,445.049z"/>
</g>
</svg>
