<?xml version="1.0" encoding="UTF-8" standalone="no"?>
<svg width="60px" height="60px" viewBox="0 0 60 60" version="1.1" xmlns="http://www.w3.org/2000/svg" xmlns:xlink="http://www.w3.org/1999/xlink">
    <!-- Generator: Sketch 46.2 (44496) - http://www.bohemiancoding.com/sketch -->
    <title>calender</title>
    <desc>Created with Sketch.</desc>
    <defs></defs>
    <g id="Page-1" stroke="none" stroke-width="1" fill="none" fill-rule="evenodd">
        <g id="calender" fill-rule="nonzero" fill="#183247">
            <path d="M35,11.5428571 L24.5,11.5428571 L24.5,7 L35,7 L35,11.5428571 Z M45.5,11.5428571 L45.5,7 L48.7,7 C51.6271092,7 54,9.37289083 54,12.3 L54,50.7 C54,53.6271092 51.6271092,56 48.7,56 L10.3,56 C7.37289083,56 5,53.6271092 5,50.7 L5,12.3 C5,9.37289083 7.37289083,7 10.3,7 L14,7 L14,11.5428571 L10.3,11.5428571 C9.88184155,11.5428571 9.54285714,11.8818415 9.54285714,12.3 L9.54285714,23 L49.4571429,23 L49.4571429,12.3 C49.4571429,11.8818415 49.1181585,11.5428571 48.7,11.5428571 L45.5,11.5428571 Z M35.0021162,27.5 L23.5021162,27.5 L23.5021162,37 L35.0021162,37 L35.0021162,27.5 Z M39.5021162,27.5 L39.5021162,37 L49.4571429,37 L49.4571429,27.5 L39.5021162,27.5 Z M35.0021162,51.4571429 L35.0021162,41.5 L23.5021162,41.5 L23.5021162,51.4571429 L35.0021162,51.4571429 Z M39.5021162,51.4571429 L48.7,51.4571429 C49.1181585,51.4571429 49.4571429,51.1181585 49.4571429,50.7 L49.4571429,41.5 L39.5021162,41.5 L39.5021162,51.4571429 Z M19.0021162,27.5 L9.54285714,27.5 L9.54285714,37 L19.0021162,37 L19.0021162,27.5 Z M19.0021162,51.4571429 L19.0021162,41.5 L9.54285714,41.5 L9.54285714,50.7 C9.54285714,51.1181585 9.88184155,51.4571429 10.3,51.4571429 L19.0021162,51.4571429 Z M17,4.8157672 C17,3.57312651 18.0073593,2.5657672 19.25,2.5657672 C20.4926407,2.5657672 21.5,3.57312651 21.5,4.8157672 L21.5,12.3157672 C21.5,13.5584079 20.4926407,14.5657672 19.25,14.5657672 C18.0073593,14.5657672 17,13.5584079 17,12.3157672 L17,4.8157672 Z M38,4.8157672 C38,3.57312651 39.0073593,2.5657672 40.25,2.5657672 C41.4926407,2.5657672 42.5,3.57312651 42.5,4.8157672 L42.5,12.3157672 C42.5,13.5584079 41.4926407,14.5657672 40.25,14.5657672 C39.0073593,14.5657672 38,13.5584079 38,12.3157672 L38,4.8157672 Z" id="Combined-Shape"></path>
        </g>
    </g>
</svg>