<?xml version="1.0" encoding="utf-8"?>
<!-- Generator: Adobe Illustrator 19.0.0, SVG Export Plug-In . SVG Version: 6.00 Build 0)  -->
<svg version="1.1" id="Layer_1" xmlns="http://www.w3.org/2000/svg" xmlns:xlink="http://www.w3.org/1999/xlink" x="0px" y="0px"
	 width="512px" height="512px" viewBox="0 0 512 512" enable-background="new 0 0 512 512" xml:space="preserve">
<path d="M397.4,118.1c0,10-8.1,18.2-18.2,18.2s-18.2-8.1-18.2-18.2V72.4c0-10,8.1-18.2,18.2-18.2s18.2,8.1,18.2,18.2V118.1z"/>
<path d="M151.9,72.3c0-10-8.1-18.2-18.2-18.2c-10,0-18.2,8.1-18.2,18.2V118c0,10,8.1,18.2,18.2,18.2c10,0,18.2-8.1,18.2-18.2V72.3z"
	/>
<path d="M419.4,98.9v18.6c0,22.1-18,40.1-40.1,40.1c-22.1,0-40.1-18-40.1-40.1V98.9H173.9v18.5c0,22.1-18,40.1-40.1,40.1
	c-22.1,0-40.1-18-40.1-40.1V98.9H50v359h412v-359H419.4z M422,417.9H90V195.4h332V417.9z"/>
<rect id="XMLID_10_" x="133.3" y="234.1" fill="#010101" width="60.5" height="60.5"/>
<rect id="XMLID_9_" x="224.8" y="234.1" fill="#010101" width="60.5" height="60.5"/>
<rect id="XMLID_8_" x="316.4" y="234.1" fill="#010101" width="60.5" height="60.5"/>
<rect id="XMLID_7_" x="133.3" y="322.5" fill="#010101" width="60.5" height="60.5"/>
<rect id="XMLID_6_" x="224.8" y="322.5" fill="#010101" width="60.5" height="60.5"/>
<rect id="XMLID_5_" x="316.4" y="322.5" fill="#010101" width="60.5" height="60.5"/>
</svg>
