<?xml version="1.0" encoding="UTF-8" standalone="no"?>
<svg width="60px" height="60px" viewBox="0 0 60 60" version="1.1" xmlns="http://www.w3.org/2000/svg" xmlns:xlink="http://www.w3.org/1999/xlink">
    <!-- Generator: Sketch 46.2 (44496) - http://www.bohemiancoding.com/sketch -->
    <title>call_phone</title>
    <desc>Created with Sketch.</desc>
    <defs></defs>
    <g id="Page-1" stroke="none" stroke-width="1" fill="none" fill-rule="evenodd">
        <g id="call_phone" fill="#183247">
            <path d="M9.2,4 L50.8,4 C53.6718807,4 56,6.3281193 56,9.2 L56,50.8 L56,50.8 C56,53.6718807 53.6718807,56 50.8,56 L9.2,56 L9.2,56 C6.3281193,56 4,53.6718807 4,50.8 L4,9.2 L4,9.2 C4,6.3281193 6.3281193,4 9.2,4 Z M18.6792145,21.2708992 C17.7424477,22.5312274 17.4773576,24.5477565 18.0526607,25.9986345 C18.2673455,26.6529297 18.7299264,27.728033 19.5050371,29.1052324 C20.8100522,31.423954 22.5812595,33.801139 24.8873364,36.1065154 C27.1934034,38.4118819 29.571287,40.1825333 31.890679,41.4871327 C33.2616111,42.2582474 34.3332568,42.7199366 34.9885814,42.9358851 C36.4345547,43.5316946 38.4598623,43.2535502 39.7264052,42.3127361 L42.0468612,40.5890537 C43.6381763,39.4069921 43.6533553,37.3019082 42.0780938,36.1101253 L38.7403349,33.5849041 C37.8520135,32.912834 36.4844201,32.9294119 35.6084625,33.6412807 L33.2990034,35.51812 C33.2761802,35.5366679 33.1073192,35.549553 33.0904508,35.5393921 C33.0016962,35.4893254 32.8978967,35.4293171 32.7470943,35.337833 C32.4887759,35.1811245 32.1991228,34.9958709 31.8861428,34.783677 C30.9899183,34.1760555 30.0934255,33.4787262 29.261054,32.7065892 C29.0913767,32.5491906 28.9258782,32.3899791 28.764903,32.2290528 C28.629087,32.0932781 28.4945918,31.954448 28.36147,31.8127601 C27.5710113,30.9714368 26.8601723,30.0654917 26.2431365,29.1599089 C26.0277161,28.8437506 25.8399972,28.551194 25.6814969,28.2903333 C25.5890365,28.1381613 25.5285462,28.0335248 25.5014639,27.9844878 C25.4437797,27.8880979 25.4541687,27.7228205 25.4748441,27.6973947 L27.3522538,25.3886372 C28.0634439,24.5140463 28.0917299,23.1589886 27.4086533,22.2566677 L24.8826648,18.9199227 C23.6901182,17.3446093 21.5822025,17.3652122 20.4034207,18.9511481 L18.6792145,21.2708992 Z" id="Combined-Shape"></path>
        </g>
    </g>
</svg>