<?xml version="1.0" encoding="utf-8"?>
<!-- Generator: Adobe Illustrator 19.2.1, SVG Export Plug-In . SVG Version: 6.00 Build 0)  -->
<svg version="1.1" id="Layer_1" xmlns="http://www.w3.org/2000/svg" xmlns:xlink="http://www.w3.org/1999/xlink" x="0px" y="0px"
	 width="512px" height="512px" viewBox="0 0 512 512" style="enable-background:new 0 0 512 512;" xml:space="preserve">
<g>
	<path d="M478.6,199.7c0-0.1,0-1-0.1-1.1c-1.3-17.6-13.7-51-51.9-51H341c-5.1-33.8-22.8-67-59.4-67l-109,0l-1.6,0.1
		c-4.3,0.4-40.2,5.9-46.8,67l-37.5,0.4c-22,1-54.7,16.7-54.7,56.1l0,172.7c-0.3,5.2-0.4,23.4,12.5,37.8
		c9.5,10.6,22.8,15.9,39.6,15.9h342.7c0.3,0,1.1-0.1,1.4-0.1c17.4-1.7,50.2-14.9,50.2-52.6L478.6,199.7z M460.5,378.1
		c0,30.7-32.5,34.3-33.9,34.4l-342.4,0c-11.5,0-20.3-3.3-26.3-10c-8.4-9.3-8-21.9-7.9-24.9V204.4c0-35.9,35.9-37.8,37.2-37.9
		l45.5-0.5c4.7-0.1,8.6-3.8,8.9-8.6c3.2-54.9,30.1-58.3,30.9-58.4l0.6-0.1h108.4c34.5,0,41.2,44.9,42.4,58.7c0.4,4.7,4.3,8.3,9,8.3
		h93.6c31.1,0,33.8,32.7,33.9,34.2V378.1z"/>
	<path d="M227.7,184.6c-55,0-99.7,45.1-99.7,100.6c0,55.5,44.7,100.6,99.7,100.6c55,0,99.7-45.1,99.7-100.6
		C327.4,229.7,282.6,184.6,227.7,184.6z M227.7,367.6c-45,0-81.7-37-81.7-82.4c0-45.4,36.6-82.4,81.7-82.4s81.7,37,81.7,82.4
		C309.3,330.6,272.7,367.6,227.7,367.6z"/>
	<path d="M376.2,200.9c-15.2,0-27.5,12.5-27.5,27.8c0,15.3,12.3,27.8,27.5,27.8s27.5-12.5,27.5-27.8
		C403.7,213.3,391.4,200.9,376.2,200.9z M376.2,238.2c-5.2,0-9.5-4.3-9.5-9.5c0-5.3,4.2-9.5,9.5-9.5c5.2,0,9.4,4.3,9.4,9.5
		C385.6,233.9,381.4,238.2,376.2,238.2z"/>
	<path d="M227.9,219.8c-17.3-0.5-34.5,6.2-46.7,18.6c-12.4,12.6-19,29.3-18.4,47.1c0.2,4.9,4.2,8.8,9,8.8c0.1,0,0.2,0,0.3,0
		c5-0.2,8.9-4.4,8.7-9.4c-0.4-12.7,4.2-24.7,13.1-33.7c8.5-8.6,19.8-13.3,31.8-13.3c0.6,0,1.2,0,1.8,0c4.9,0,8.9-3.9,9-8.8
		C236.8,224.2,232.9,220,227.9,219.8z"/>
</g>
</svg>
