<?xml version="1.0" encoding="utf-8"?>
<!-- Generator: Adobe Illustrator 17.0.0, SVG Export Plug-In . SVG Version: 6.00 Build 0)  -->
<!DOCTYPE svg PUBLIC "-//W3C//DTD SVG 1.1//EN" "http://www.w3.org/Graphics/SVG/1.1/DTD/svg11.dtd">
<svg version="1.1" id="Layer_1" xmlns="http://www.w3.org/2000/svg" xmlns:xlink="http://www.w3.org/1999/xlink" x="0px" y="0px"
	 width="512px" height="512px" viewBox="0 0 512 512" enable-background="new 0 0 512 512" xml:space="preserve">
<path d="M450.873,17.785H63.127c-24.901,0-45.087,20.186-45.087,45.087v279.538c0,24.901,20.186,45.087,45.087,45.087h76.648
	v112.717L269.19,387.497h181.683c24.901,0,45.087-20.186,45.087-45.087V62.872C495.96,37.972,475.774,17.785,450.873,17.785z
	 M394.287,177.032l-77.398,60.048l42.082,88.532c1.019,2.692,0.445,4.257-1.419,4.249c-0.717-0.027-1.636-0.296-2.749-0.749
	l-97.001-53.744l-91.983,52.298c-1.131,0.478-2.075,0.732-2.679,0.743c-1.974-0.018-2.611-1.619-1.543-4.276l37.923-87.909
	l-81.846-61.281c-2.846-2.815-1.736-5.157,2.386-5.114l100.192,0.735l36.16-90.423c0.701-1.837,1.869-2.761,2.862-2.746
	c1.098,0.019,2.224,0.911,2.958,2.798l34.843,90.949l94.873,0.744C396.281,171.897,397.199,174.251,394.287,177.032z"/>
</svg>
