<?xml version="1.0" encoding="utf-8"?>
<!-- Generator: Adobe Illustrator 19.1.0, SVG Export Plug-In . SVG Version: 6.00 Build 0)  -->
<svg version="1.1" id="Layer_1" xmlns="http://www.w3.org/2000/svg" xmlns:xlink="http://www.w3.org/1999/xlink" x="0px" y="0px"
	 width="512px" height="512px" viewBox="0 0 512 512" style="enable-background:new 0 0 512 512;" xml:space="preserve">
<g>
	<path d="M206.5,33.3h-147c-14.3,0-26,11.7-26,26v147c0,14.3,11.7,26,26,26h147c14.3,0,26-11.7,26-26v-147
		C232.5,45,220.8,33.3,206.5,33.3z M204.5,204.3h-143v-143h143V204.3z"/>
	<path d="M452.5,33.3h-147c-14.3,0-26,11.7-26,26v147c0,14.3,11.7,26,26,26h147c14.3,0,26-11.7,26-26v-147
		C478.5,45,466.9,33.3,452.5,33.3z M450.5,204.3h-143v-143h143V204.3z"/>
	<path d="M206.5,279.1h-147c-14.3,0-26,11.7-26,26v147c0,14.3,11.7,26,26,26h147c14.3,0,26-11.7,26-26v-147
		C232.5,290.7,220.8,279.1,206.5,279.1z M204.5,450.1h-143v-143h143V450.1z"/>
	<path d="M452.5,279.1h-147c-14.3,0-26,11.7-26,26v147c0,14.3,11.7,26,26,26h147c14.3,0,26-11.7,26-26v-147
		C478.5,290.7,466.9,279.1,452.5,279.1z M450.5,450.1h-143v-143h143V450.1z"/>
</g>
</svg>
