<?xml version="1.0" encoding="utf-8"?>
<!-- Generator: Adobe Illustrator 18.1.1, SVG Export Plug-In . SVG Version: 6.00 Build 0)  -->
<svg version="1.1" id="Layer_1" xmlns="http://www.w3.org/2000/svg" xmlns:xlink="http://www.w3.org/1999/xlink" x="0px" y="0px"
	 width="512px" height="512px" viewBox="0 0 512 512" enable-background="new 0 0 512 512" xml:space="preserve">
<path d="M474.7,138.7h-50.4V88.6c0-13.9-11.1-25.2-24.8-25.2H128.8C112.1,28,102,28,98.6,28H37.3c-13.7,0-24.8,11.3-24.8,25.2v330.9
	c0,13.9,11.1,25.2,24.8,25.2h50.4v50.1c0,13.9,11.1,25.2,24.8,25.2h362.1c13.7,0,24.8-11.3,24.8-25.2V163.9
	C499.5,150,488.4,138.7,474.7,138.7z M29.7,53.2c0-4.3,3.4-7.8,7.6-7.8h60.1c3.8,2.9,12,16.6,18.1,30.3c1.4,3.1,4.5,5.1,7.8,5.1
	h276.2c4.2,0,7.6,3.5,7.6,7.8v43.8H29.7V53.2z M29.7,384.1V149.7h377.4v234.4c0,4.3-3.4,7.8-7.6,7.8H37.3
	C33.1,391.9,29.7,388.4,29.7,384.1z M482.3,459.3c0,4.3-3.4,7.8-7.6,7.8H112.6c-4.2,0-7.6-3.5-7.6-7.8v-50.1h294.5
	c13.7,0,24.8-11.3,24.8-25.2V225h58.1V459.3z M482.3,207.6h-58.1V156h50.4c4.2,0,7.6,3.5,7.6,7.8V207.6z"/>
</svg>
