<?xml version="1.0" encoding="utf-8"?>
<!-- Generator: Adobe Illustrator 18.1.1, SVG Export Plug-In . SVG Version: 6.00 Build 0)  -->
<svg version="1.1" id="Layer_1" xmlns="http://www.w3.org/2000/svg" xmlns:xlink="http://www.w3.org/1999/xlink" x="0px" y="0px"
	 width="512px" height="512px" viewBox="0 0 512 512" enable-background="new 0 0 512 512" xml:space="preserve">
<g>
	<g>
		<path d="M248.8,259.1l6.3-143.5h-55.4l6.3,143.5H248.8z M227.4,294.3c-16.4,0-29.7,13.3-29.7,29.7c0,16.4,13.3,29.7,29.7,29.7
			c16.4,0,29.7-13.3,29.7-29.7C257.1,307.6,243.8,294.3,227.4,294.3z M474.9,138.9h-50.4v-50c0-13.9-11.1-25.2-24.8-25.2H129.3
			c-16.6-35.4-26.7-35.4-30.2-35.4H37.9c-13.7,0-24.8,11.3-24.8,25.2v330.7c0,13.9,11.1,25.1,24.8,25.1h50.4v50.1
			c0,13.9,11.1,25.1,24.8,25.1h361.8c13.7,0,24.8-11.3,24.8-25.1V164C499.7,150.2,488.6,138.9,474.9,138.9z M37.9,391.9
			c-4.2,0-7.6-3.5-7.6-7.8V149.9h127.4v-17.3H30.2V53.4c0-4.3,3.4-7.8,7.6-7.8h60c3.8,2.9,12,16.6,18.1,30.3
			c1.4,3.1,4.4,5.1,7.8,5.1h275.9c4.2,0,7.6,3.5,7.6,7.8v43.7H294.2v17.3h113.1v234.2c0,4.3-3.4,7.8-7.6,7.8H37.9z M482.5,459.3
			c0,4.3-3.4,7.8-7.6,7.8H113.1c-4.2,0-7.6-3.5-7.6-7.8v-50.1h294.3c13.7,0,24.8-11.3,24.8-25.1v-159h58V459.3z M482.5,207.8h-58
			v-51.5h50.4c4.2,0,7.6,3.5,7.6,7.8V207.8z"/>
	</g>
</g>
</svg>
