<?xml version="1.0" encoding="utf-8"?>
<!-- Generator: Adobe Illustrator 17.0.0, SVG Export Plug-In . SVG Version: 6.00 Build 0)  -->
<!DOCTYPE svg PUBLIC "-//W3C//DTD SVG 1.1//EN" "http://www.w3.org/Graphics/SVG/1.1/DTD/svg11.dtd">
<svg version="1.1" id="Layer_1" xmlns="http://www.w3.org/2000/svg" xmlns:xlink="http://www.w3.org/1999/xlink" x="0px" y="0px"
	 width="512px" height="512px" viewBox="0 0 512 512" enable-background="new 0 0 512 512" xml:space="preserve">
<g>
	<path fill="#010101" d="M273.193,34.026v61.543c25.733,9.087,44.178,33.612,44.178,62.457s-18.445,53.369-44.178,62.457v39.485
		c25.733,9.088,44.178,33.612,44.178,62.457s-18.445,53.369-44.178,62.457v54.748C411.336,433.405,504,338.121,504,237.315
		C504,129.284,402.057,40.907,273.193,34.026z"/>
	<path fill="#010101" d="M247.59,388.559v-19.717v-9.928c1.168,0.112,2.351,0.174,3.548,0.174c20.249,0,36.664-16.415,36.664-36.664
		s-16.415-36.664-36.664-36.664c-1.197,0-2.38,0.062-3.548,0.174v-15.152v-14.493v-32.127v-27.208v-2.438
		c1.168,0.112,2.351,0.174,3.548,0.174c20.249,0,36.664-16.415,36.664-36.664s-16.415-36.664-36.664-36.664
		c-1.197,0-2.38,0.062-3.548,0.174v-15.549V91.89V33.74C115.538,37.822,10,127.395,10,237.315
		c0,47.681,19.184,91.571,49.959,122.945L25.187,472.421l140.488-45.08c28.518,7.562,55.915,11.531,81.916,12.415V388.559z"/>
</g>
</svg>
