<?xml version="1.0" encoding="utf-8"?>
<!-- Generator: Adobe Illustrator 19.0.0, SVG Export Plug-In . SVG Version: 6.00 Build 0)  -->
<svg version="1.1" id="Layer_1" xmlns="http://www.w3.org/2000/svg" xmlns:xlink="http://www.w3.org/1999/xlink" x="0px" y="0px"
	 width="512px" height="512px" viewBox="0 0 512 512" enable-background="new 0 0 512 512" xml:space="preserve">
<path d="M392.9,74.1H117.1c-41.5,0-75.2,32.9-75.2,73.5v146.8v143.2l61-71.1c4.6,0.9,9.3,1.3,14.2,1.3h275.8
	c41.5,0,75.2-32.9,75.2-73.5V147.5C468.2,106.9,434.5,74.1,392.9,74.1z M169.7,254c-13.9,0-25.1-11-25.1-24.5s11.3-24.4,25.1-24.4
	c13.8,0,25.1,11,25.1,24.4C194.9,243.1,183.6,254,169.7,254z M255,254c-13.9,0-25.1-11-25.1-24.5S241.2,205,255,205
	s25.1,11,25.1,24.4C280.1,243.1,268.9,254,255,254z M340.3,254c-13.9,0-25.1-11-25.1-24.5s11.3-24.4,25.1-24.4
	c13.9,0,25.1,11,25.1,24.4C365.3,243.1,354.1,254,340.3,254z"/>
</svg>
