<?xml version="1.0" encoding="utf-8"?>
<!-- Generator: Adobe Illustrator 17.0.0, SVG Export Plug-In . SVG Version: 6.00 Build 0)  -->
<!DOCTYPE svg PUBLIC "-//W3C//DTD SVG 1.1//EN" "http://www.w3.org/Graphics/SVG/1.1/DTD/svg11.dtd">
<svg version="1.1" id="Layer_1" xmlns="http://www.w3.org/2000/svg" xmlns:xlink="http://www.w3.org/1999/xlink" x="0px" y="0px"
	 width="512px" height="512px" viewBox="0 0 512 512" enable-background="new 0 0 512 512" xml:space="preserve">
<path fill="#010101" d="M256.062,31.545c-139.201,0-252.045,92.194-252.045,205.919c0,47.188,19.636,90.532,52.313,125.258
	L15.549,476.33l163.426-42.757l-0.201-0.148c24.369,6.412,50.31,9.958,77.289,9.958c139.201,0,252.045-92.194,252.045-205.919
	S395.264,31.545,256.062,31.545z M147.151,269.076c-16.697,0-30.232-13.535-30.232-30.232s13.535-30.232,30.232-30.232
	s30.232,13.535,30.232,30.232S163.847,269.076,147.151,269.076z M256.062,269.076c-16.697,0-30.232-13.535-30.232-30.232
	s13.535-30.232,30.232-30.232s30.232,13.535,30.232,30.232S272.759,269.076,256.062,269.076z M364.974,269.076
	c-16.697,0-30.232-13.535-30.232-30.232s13.535-30.232,30.232-30.232s30.232,13.535,30.232,30.232S381.671,269.076,364.974,269.076z
	"/>
</svg>
