<?xml version="1.0" encoding="UTF-8"?>
<svg width="60px" height="60px" viewBox="0 0 60 60" version="1.1" xmlns="http://www.w3.org/2000/svg" xmlns:xlink="http://www.w3.org/1999/xlink">
    <!-- Generator: Sketch 44.1 (41455) - http://www.bohemiancoding.com/sketch -->
    <title>chat</title>
    <desc>Created with Sketch.</desc>
    <defs></defs>
    <g id="Page-1" stroke="none" stroke-width="1" fill="none" fill-rule="evenodd">
        <g id="chat" fill-rule="nonzero" fill="#183247">
            <path d="M3.39072443,24.1478644 C5.23321603,13.5460741 14.102226,5.05803755 25.1008257,3.34096535 C43.0879616,0.550538127 58.474064,15.2924664 55.6678081,32.7438531 C53.980353,43.2869733 45.2793838,51.8839293 34.4237062,53.7989623 C29.2151858,54.7369512 24.0796979,54.177518 19.3690924,52.2905436 C18.5927576,51.9913543 17.8680631,51.9913543 17.2572435,52.2854376 L9.89031934,55.7192786 C7.43492506,56.7945934 4.70215736,54.6141958 5.40812956,52.0072365 L7.48789925,43.9920741 C7.61899483,43.4868487 7.48745249,42.8398241 7.12483689,42.2752342 C3.6223431,36.9577787 2.25541371,30.6157585 3.39072443,24.1478644 Z M9.37744656,51.782212 L15.6359466,48.8646811 C17.221136,48.1010418 19.0252523,48.1010418 20.7535891,48.7672952 C24.836453,50.4026564 29.252604,50.8837288 33.7593804,50.0721275 C43.0533378,48.4325846 50.500662,41.0742872 51.9299447,32.1442165 C54.3208134,17.2760137 41.1728393,4.67850937 25.6829758,7.08152234 C16.2693214,8.55115783 8.68166519,15.8128819 7.11992799,24.7991838 C6.15292963,30.3082137 7.30926963,35.6731811 10.2980379,40.2109247 C11.2153899,41.6386645 11.564283,43.3547845 11.1522123,44.9428516 L9.37744656,51.782212 Z" id="Combined-Shape"></path>
        </g>
    </g>
</svg>