<?xml version="1.0" encoding="utf-8"?>
<!-- Generator: Adobe Illustrator 18.1.1, SVG Export Plug-In . SVG Version: 6.00 Build 0)  -->
<svg version="1.1" id="Layer_1" xmlns="http://www.w3.org/2000/svg" xmlns:xlink="http://www.w3.org/1999/xlink" x="0px" y="0px"
	 width="512px" height="512px" viewBox="0 0 512 512" enable-background="new 0 0 512 512" xml:space="preserve">
<path d="M501.6,221.7c-2-101.6-107.9-183.3-241.8-186.3c-1.5-0.1-3.1-0.1-4.6-0.1l-3,0c-133,0-239.7,79.2-242.8,180.2
	c-0.1,1-0.1,2.3-0.1,3.3c0.1,58.3,36.5,113.8,97.6,149.2c-4.1,7.5-11.4,19.2-21.1,33.8c-5.8,8.8-11.8,18.1-16.5,26.5l-1.7,3.2
	c-3.8,7.1-7,13.2-7.5,22c-1.3,7,5.1,19.6,15,21.7l1.3,0.3c1.9,0.4,3.6,0.6,5.5,0.6h0.1l0.2,0c10.9-0.7,19.1-5,29.5-10.5l5.7-3
	c12.8-7.1,28-16.4,42.7-25.3c7.3-4.4,14.5-8.8,21.4-13c11.4-6.9,20.6-12.2,27.2-15.6c3.6-1.8,6.7-3.2,8.9-4.1c0.4-0.1,0.7-0.3,1-0.4
	c10.5,1.3,21.3,2.1,32.8,2.4l7.4,0.1c133,0,239.7-79.3,242.8-180.4l0-0.3c0-0.3,0-0.6,0-0.9l0.1-3.8H501.6z M121,414.6
	c5.7-8.8,11.7-18.1,16.5-26.6l1.4-2.7c4-7.4,7.3-13.7,7.8-23.1c0.6-5.6-2.8-16-11.7-20.1c-56-28.8-89.4-74.9-89.3-123.2
	c0-0.8,0-1.4,0-2.1c0.9-80,93.5-145.1,206.5-145.1c2.2,0,4.3,0,6.3,0.1c115,2.5,207.7,70.5,206.7,151.7l0,2.5
	c-0.9,79.8-93.5,144.8-206.5,144.8c-2.2,0-4.4,0-6.7-0.1c-10.4-0.2-20.8-1-30.6-2.3c-0.6-0.1-2.1-0.3-3.8-0.3
	c-10.7,0.7-18.5,4.9-28.4,10.2l-6.3,3.4c-11.9,6.6-26,15.3-39.7,23.7c-8.1,5-16.3,10-24,14.6c-1,0.6-2,1.2-2.9,1.7
	C118,419.2,119.5,416.8,121,414.6z"/>
</svg>
