<?xml version="1.0" encoding="utf-8"?>
<!-- Generator: Adobe Illustrator 17.1.0, SVG Export Plug-In . SVG Version: 6.00 Build 0)  -->
<!DOCTYPE svg PUBLIC "-//W3C//DTD SVG 1.1//EN" "http://www.w3.org/Graphics/SVG/1.1/DTD/svg11.dtd">
<svg version="1.1" id="Layer_1" xmlns="http://www.w3.org/2000/svg" xmlns:xlink="http://www.w3.org/1999/xlink" x="0px" y="0px"
	 viewBox="0 0 512 512" enable-background="new 0 0 512 512" xml:space="preserve">
<g>
	<path d="M259.9,58.8c-109.8,0-199.1,89.3-199.1,199.1c0,109.8,89.3,199.1,199.1,199.1c109.8,0,199.1-89.3,199.1-199.1
		C459,148.1,369.7,58.8,259.9,58.8z M259.9,432.1c-96,0-174.1-78.1-174.1-174.1S163.9,83.8,259.9,83.8S434,161.9,434,257.9
		S355.9,432.1,259.9,432.1z"/>
	<path d="M378.2,173.6c-3.5-3.5-7.3-5-12.4-5c-2,0-8,0-11.9,5.3L225.1,304.4l-59.3-59.3c-3.9-5.3-9.9-5.3-11.9-5.3
		c-5.1,0-9,1.5-12.4,5s-5,7.3-5,12.4c0,4.3,1.7,8.2,5,11.5l70.9,70.9c3.9,5.3,9.9,5.3,11.9,5.3c4.3,0,8.2-1.7,11.5-5l142.1-142.1
		c5.3-3.9,5.3-9.9,5.3-11.9C383.2,180.9,381.7,177.1,378.2,173.6z"/>
</g>
</svg>
