<?xml version="1.0" encoding="utf-8"?>
<!-- Generator: Adobe Illustrator 17.0.0, SVG Export Plug-In . SVG Version: 6.00 Build 0)  -->
<!DOCTYPE svg PUBLIC "-//W3C//DTD SVG 1.1//EN" "http://www.w3.org/Graphics/SVG/1.1/DTD/svg11.dtd">
<svg version="1.1" id="Layer_1" xmlns="http://www.w3.org/2000/svg" xmlns:xlink="http://www.w3.org/1999/xlink" x="0px" y="0px"
	 width="512px" height="512px" viewBox="0 0 512 512" enable-background="new 0 0 512 512" xml:space="preserve">
<path d="M447.839,224.33c0,27.96,0.005,43.199-0.001,69.476c-0.011,46.173,0.018,92.347-0.061,138.52
	c-0.056,32.85-22.686,55.546-55.45,55.559c-110.558,0.043-221.117,0.041-331.675-0.001c-30.544-0.012-53.829-23.074-53.882-53.751
	c-0.146-84.252-0.067-168.505-0.078-252.757c-0.003-20.603,0.044-41.207-0.022-61.81c-0.101-31.723,22.671-55.06,54.254-55.085
	c102.464-0.083,193.89-0.034,296.354-0.03c0.731,0,1.463,0.073,3.282,0.17c-1.472,1.814-2.442,3.171-3.572,4.378
	c-19.358,20.681-27.739,30.265-47.017,51.021c-2.46,2.649-4.968,3.687-8.576,3.682c-69.72-0.1-150.478-0.072-220.198-0.082
	c-13.637-0.002-15.347,1.667-15.346,15.027c0.005,85.172,0.005,192.422,0.003,277.594c0,9.702,2.745,12.521,12.37,12.522
	c91.427,0.007,204.931,0.009,296.358-0.004c11.981-0.002,14.061-2.103,14.069-14.154c0.021-30.537-0.034-72.113,0.091-102.649
	c0.01-2.405,0.531-5.282,1.902-7.136c21.967-29.725,33.073-48.28,55.178-77.902C446.145,226.483,446.487,226.062,447.839,224.33z"/>
<path d="M248.043,253.558c12.358-13.156,24.392-25.945,36.402-38.757c53.812-57.409,107.619-114.824,161.422-172.242
	c4.232-4.517,8.184-9.325,12.683-13.555c7.474-7.028,13.738-8,22.231-2.574c7,4.472,13.658,9.685,19.718,15.368
	c6.723,6.305,7.255,11.791,2.662,19.867c-3.713,6.528-7.795,12.905-12.281,18.925C415.678,181.518,340.394,282.384,265.109,383.25
	c-9.372,12.556-22.93,12.263-31.77-0.55c-33.731-48.895-67.502-97.763-101.191-146.686c-3.314-4.813-6.359-9.837-9.193-14.949
	c-3.76-6.781-3.065-13.557,2.409-18.911c5.342-5.225,11.25-9.983,17.4-14.238c6.872-4.754,14.349-4.457,21.103,0.483
	c9.72,7.108,19.23,14.509,28.723,21.922c17.279,13.495,34.477,27.094,51.719,40.637
	C245.346,251.772,246.474,252.471,248.043,253.558z"/>
</svg>
