<?xml version="1.0" encoding="UTF-8"?>
<svg width="512px" height="512px" viewBox="0 0 512 512" version="1.1" xmlns="http://www.w3.org/2000/svg" xmlns:xlink="http://www.w3.org/1999/xlink">
    <!-- Generator: Sketch 44.1 (41455) - http://www.bohemiancoding.com/sketch -->
    <title>clear</title>
    <desc>Created with Sketch.</desc>
    <defs></defs>
    <g id="Page-1" stroke="none" stroke-width="1" fill="none" fill-rule="evenodd">
        <g id="clear" fill-rule="nonzero" fill="#183247">
            <path d="M107.879079,233.467115 L247.017009,94.1731481 L247.017009,94.1731481 C256.199889,84.9799693 256.199889,70.0858013 247.017009,60.8926225 L247.017009,60.8926225 L247.017009,60.8926225 C237.847423,51.712754 222.972252,51.7044177 213.792383,60.874003 C213.786173,60.880206 213.779967,60.8864125 213.773764,60.8926225 L31.7141456,243.156413 L31.7141456,243.156413 C24.0746022,250.804523 24.0746022,263.195477 31.7141456,270.843587 L213.773764,453.107377 L213.773764,453.107377 C222.943349,462.287246 237.81852,462.295582 246.998389,453.125997 C247.004599,453.119794 247.010805,453.113587 247.017009,453.107377 C256.199889,443.914199 256.199889,429.020031 247.017009,419.826852 L107.879079,280.532885 L462.493476,280.532885 C475.475771,280.532885 486,269.996854 486,257 C486,244.003146 475.475771,233.467115 462.493476,233.467115 L107.879079,233.467115 Z" id="back"></path>
        </g>
    </g>
</svg>