<?xml version="1.0" encoding="UTF-8"?>
<svg width="512px" height="512px" viewBox="0 0 512 512" version="1.1" xmlns="http://www.w3.org/2000/svg" xmlns:xlink="http://www.w3.org/1999/xlink">
    <!-- Generator: Sketch 44.1 (41455) - http://www.bohemiancoding.com/sketch -->
    <title>close</title>
    <desc>Created with Sketch.</desc>
    <defs></defs>
    <g id="Page-1" stroke="none" stroke-width="1" fill="none" fill-rule="evenodd">
        <g id="close" fill="#183247">
            <path d="M281.582103,229.524678 L281.582103,-0.395602526 C281.582103,-14.7708634 269.928651,-26.4243148 255.553391,-26.4243148 C241.17813,-26.4243148 229.524678,-14.7708634 229.524678,-0.395602526 L229.524678,-0.395602526 L229.524678,229.524678 L-0.395602526,229.524678 C-14.7708634,229.524678 -26.4243148,241.17813 -26.4243148,255.553391 C-26.4243148,269.928651 -14.7708634,281.582103 -0.395602526,281.582103 L-0.395602526,281.582103 L229.524678,281.582103 L229.524678,511.502384 C229.524678,525.877645 241.17813,537.531096 255.553391,537.531096 C269.928651,537.531096 281.582103,525.877645 281.582103,511.502384 L281.582103,511.502384 L281.582103,281.582103 L511.502384,281.582103 C525.877645,281.582103 537.531096,269.928651 537.531096,255.553391 L537.531096,255.553391 L537.531096,255.553391 C537.531096,241.17813 525.877645,229.524678 511.502384,229.524678 L281.582103,229.524678 Z" transform="translate(255.553391, 255.553391) rotate(45.000000) translate(-255.553391, -255.553391) "></path>
        </g>
    </g>
</svg>