<?xml version="1.0" encoding="UTF-8"?>
<svg width="60px" height="60px" viewBox="0 0 60 60" version="1.1" xmlns="http://www.w3.org/2000/svg" xmlns:xlink="http://www.w3.org/1999/xlink">
    <!-- Generator: Sketch 44.1 (41455) - http://www.bohemiancoding.com/sketch -->
    <title>close ticket</title>
    <desc>Created with Sketch.</desc>
    <defs></defs>
    <g id="Page-1" stroke="none" stroke-width="1" fill="none" fill-rule="evenodd">
        <g id="close-ticket" fill-rule="nonzero" fill="#183247">
            <path d="M45.7549691,5.62973441 C46.7991599,6.30339708 47.0995324,7.69599249 46.4258697,8.74018332 C45.752207,9.78437415 44.3596116,10.0847466 43.3154208,9.4110839 C33.6960625,3.20512769 20.8369422,4.48599967 12.661471,12.661471 C3.12891499,22.1940269 3.12891499,37.8059731 12.661471,47.338529 C22.1940269,56.871085 37.8059731,56.871085 47.338529,47.338529 C52.5490079,42.1280502 55.0600513,34.9269644 54.3790383,27.6746727 C54.2628616,26.4374747 55.1716288,25.3403477 56.4088268,25.2241709 C57.6460248,25.1079942 58.7431518,26.0167614 58.8593285,27.2539594 C59.6640754,35.823927 56.6909965,44.3500227 50.5205096,50.5205096 C39.2305943,61.8104248 20.7694057,61.8104248 9.47949043,50.5205096 C-1.81042484,39.2305943 -1.81042484,20.7694057 9.47949043,9.47949043 C19.1630606,-0.204079687 34.3652968,-1.71834489 45.7549691,5.62973441 Z M19.6312487,27.4503137 L27.5887647,35.8266463 L51.4579294,13.36155 C52.3628204,12.509888 53.7867879,12.5530385 54.63845,13.4579294 C55.490112,14.3628204 55.4469615,15.7867879 54.5420706,16.63845 L29.0420706,40.63845 C28.1401589,41.4873081 26.7218015,41.4476339 25.8687513,40.5496863 L16.3687513,30.5496863 C15.5128832,29.6487725 15.5493999,28.2246194 16.4503137,27.3687513 C17.3512275,26.5128832 18.7753806,26.5493999 19.6312487,27.4503137 Z" id="Combined-Shape"></path>
        </g>
    </g>
</svg>