<svg id="Layer_1" data-name="Layer 1" xmlns="http://www.w3.org/2000/svg" viewBox="0 0 512 512"><title>Redactor</title><path d="M149,461.78c-32,0-55.9-8.4-71.94-25C59.87,419.07,58.94,399,59,393.81v-74c0-15.42-5.29-25-17.17-31.13a55.14,55.14,0,0,0-19.94-5.54l0.64-50c13.17,0,22.79-3,28.58-9,7.65-7.9,7.9-19.94,7.89-20.05V140.34C59,119,63.92,89.58,87.36,70.14c28.38-23.54,65.33-17.41,69.45-16.63l-9.26,49.14,0.23,0c-5-.84-19.86-1.38-28.67,6.08-6.71,5.68-10.12,16.3-10.12,31.57V203c0.08,5.32-.55,33.77-22,55.88l-0.91.92C101,275,109,295.55,109,319.79V394c0.25,3.27,3,17.78,40,17.78v50Zm-40-67.73v0.6C109,394.52,109,394.32,109,394.05Z"/><path d="M363,461.78v-50c16,0,29.23-3.42,34.41-9.38a11.25,11.25,0,0,0,2.73-6.54l-0.37-1.72L400,394V319.79c0-24.24,8-44.83,22.87-60l-0.91-.92c-21.41-22.11-22-50.56-22-55.88V140.34c0-11.1-1.74-25.79-10-32.73-8.72-7.31-23.19-5-23.33-5l0.29-.06-10-49c3.76-.77,37.54-6.85,64.47,15.15,19,15.48,28.56,39.57,28.56,71.61v63.6c0.06,1.8.7,13,8.13,20.42,5.81,5.82,15.34,8.77,28.33,8.77l0.64,50h0.22a54.69,54.69,0,0,0-21.22,6.11C455,295.37,450,304.8,450,319.79v73.39c0.63,11.42-2.94,29-15.86,43.15C418.74,453.22,394,461.78,363,461.78Z"/></svg>