<svg id="Layer_1" data-name="Layer 1" xmlns="http://www.w3.org/2000/svg" viewBox="0 0 512 512"><title>Redactor</title><g id="kYYZpS.tif"><path d="M322.08,92.37c-0.32,1.31-.71,3.15-1.23,5Q281.05,235.16,241.23,373q-7.66,26.52-15.41,53c-2.69,9.16-6,10.95-15.25,8.47-3.16-.84-6.29-1.78-9.44-2.65-8.75-2.44-10.88-6.09-8.36-14.83q17-59,34.06-118Q256.76,195.38,286.7,91.77c0.33-1.16.66-2.32,1-3.47,2.89-9.24,5.92-10.94,15.29-8.45,4.15,1.1,8.31,2.23,12.39,3.59C319.32,84.76,321.69,87.52,322.08,92.37Z"/><path d="M149.54,387.06c-4.41-.16-6.88-2.57-9.34-5L63.49,305.3Q43.76,285.58,24,265.84c-6.8-6.82-6.88-10.73-.18-17.44q58-58.13,116.18-116.17c6.75-6.74,10.82-6.67,17.55,0,2.82,2.78,5.64,5.57,8.4,8.41,6.45,6.63,6.51,10.66.09,17.15-8.84,8.94-17.77,17.79-26.66,26.68L71.83,252c-5.19,5.19-5.18,5.2-.16,10.22q46.4,46.4,92.78,92.81a43.69,43.69,0,0,1,4.74,5.42c2,2.74,2.37,5.9.36,8.71a75.77,75.77,0,0,1-16.28,16.43A13,13,0,0,1,149.54,387.06Z"/><path d="M364.7,387.05a10,10,0,0,1-6.61-3.18c-4-4-8.14-7.94-12-12.06-4.12-4.35-4.16-8.72-.32-13.37,1.2-1.46,2.6-2.75,3.94-4.09Q396,308,442.52,261.64c3.61-3.58,4-5.51.12-9.32q-47.56-47-94.71-94.52c-6.92-6.93-7-10.47-.18-17.34,3.14-3.19,6.25-6.42,9.54-9.46,5.39-5,9.41-4.94,15-.07,1,0.91,2,1.91,3,2.88q56.44,56.44,112.86,112.89a41.71,41.71,0,0,1,5,5.85c2.3,3.38,2,6.84-.6,10-1,1.19-2.1,2.28-3.19,3.38L373.51,381.75C371.07,384.2,368.73,386.78,364.7,387.05Z"/></g></svg>