<?xml version="1.0" encoding="utf-8"?>
<!-- Generator: Adobe Illustrator 17.1.0, SVG Export Plug-In . SVG Version: 6.00 Build 0)  -->
<!DOCTYPE svg PUBLIC "-//W3C//DTD SVG 1.1//EN" "http://www.w3.org/Graphics/SVG/1.1/DTD/svg11.dtd">
<svg version="1.1" id="Layer_1" xmlns="http://www.w3.org/2000/svg" xmlns:xlink="http://www.w3.org/1999/xlink" x="0px" y="0px"
	 viewBox="0 0 512 512" enable-background="new 0 0 512 512" xml:space="preserve">
<g>
	<path d="M113.8,346.2c-29-3.8-56.1-17.4-76.6-38.7C13.9,283.2,1,251.3,1,217.6v-56.9C1,89.2,59.2,31.1,130.7,31.1h185.2
		c71.5,0,129.7,58.2,129.7,129.7v56.9c0,71.5-58.2,129.7-129.7,129.7h-75.8l-126.3,119V346.2z M130.7,55.1
		C72.4,55.1,25,102.5,25,160.7v56.9c0,27.4,10.5,53.4,29.5,73.2c19,19.8,44.5,31.2,71.8,32.3l11.5,0.5v87.2l92.8-87.5H316
		c58.3,0,105.7-47.4,105.7-105.7v-56.9c0-58.3-47.4-105.7-105.7-105.7H134.7v0.2H130.7z"/>
</g>
<rect x="105.6" y="136.5" width="235.3" height="22.2"/>
<rect x="105.6" y="214.8" width="185.9" height="24"/>
<path d="M491.3,271.2c-8.3-9.7-19.1-16.8-31-20.7c-0.9,7.6-2.5,15-4.7,22.1c17.8,6.8,30,23.9,30,43.7v28.1
	c0,25.2-19.7,45.7-44.9,46.8l-10.8,0.4v35.8l-38.3-36.2h-44.2c-18.2,0-34.6-10.7-42.2-26.7h-24c3.8,12.5,11.1,23.8,21.2,32.5
	c12.5,10.8,28.5,16.7,45.1,16.7h35.3l69.7,65.7v-67.1c15-3,28.7-10.9,38.8-22.6C502,377.1,508,361,508,344.3v-28.1
	C508,299.7,502.1,283.7,491.3,271.2z"/>
</svg>
