<?xml version="1.0" encoding="utf-8"?>
<!-- Generator: Adobe Illustrator 18.1.1, SVG Export Plug-In . SVG Version: 6.00 Build 0)  -->
<svg version="1.1" id="Layer_1" xmlns="http://www.w3.org/2000/svg" xmlns:xlink="http://www.w3.org/1999/xlink" x="0px" y="0px"
	 width="512px" height="512px" viewBox="0 0 512 512" enable-background="new 0 0 512 512" xml:space="preserve">
<path display="none" fill="#010101" d="M259.9,58.8c-109.8,0-199.1,89.3-199.1,199.1S150.1,457,259.9,457S459,367.7,459,257.9
	S369.7,58.8,259.9,58.8z M377.9,197.9L235.8,340c-3.3,3.3-7.2,5-11.5,5c-2,0-8,0-11.9-5.3l-70.9-70.9c-3.3-3.3-5-7.2-5-11.5
	c0-5.1,1.5-9,5-12.4s7.3-5,12.4-5c2,0,8,0,11.9,5.3l59.3,59.3L353.9,174c3.9-5.3,9.9-5.3,11.9-5.3c5.1,0,9,1.5,12.4,5
	c3.5,3.5,5,7.3,5,12.4C383.2,188.1,383.2,194,377.9,197.9z"/>
<g>
	<path fill="#010101" d="M319.2,65.9H196.1C124,65.9,63,132,63,210.2c0,71.9,48.3,127.1,97,141.8v86c0,3.1,1.8,5.9,4.7,7.2
		c1.1,0.5,2.3,0.8,3.5,0.8c1.9,0,3.8-0.6,5.3-1.9l109.9-90.5h35.8c70.4,0,129.8-65.9,129.8-143.9C449,131.8,389.5,65.9,319.2,65.9z
		 M319.2,321.8h-38.8c-1.9,0-3.8,0.7-5.3,1.9l-82.7,65.5v-59.1c0-3.7-2.6-6.9-6.3-7.8c-44.6-10.2-90.7-45-90.7-112.1
		c0-68.3,38.4-112.4,100.6-112.4h123.1c61.5,0,97.4,42.7,97.4,112S380.7,321.8,319.2,321.8z"/>
	<path fill="#010101" d="M294.3,232.1H190.7c-9.4,0-17,7.7-17,17.2c0,9.5,7.6,17.2,17,17.2h103.6c9.4,0,17-7.7,17-17.2
		C311.3,239.8,303.7,232.1,294.3,232.1z"/>
	<path fill="#010101" d="M341.5,160.9H190.7c-9.4,0-17,7.7-17,17.2c0,9.5,7.6,17.2,17,17.2h150.8c9.4,0,17-7.7,17-17.2
		C358.6,168.6,350.9,160.9,341.5,160.9z"/>
</g>
</svg>
