<?xml version="1.0" encoding="utf-8"?>
<!-- Generator: Adobe Illustrator 18.1.1, SVG Export Plug-In . SVG Version: 6.00 Build 0)  -->
<svg version="1.1" id="Layer_1" xmlns="http://www.w3.org/2000/svg" xmlns:xlink="http://www.w3.org/1999/xlink" x="0px" y="0px"
	 viewBox="0 0 512 512" enable-background="new 0 0 512 512" xml:space="preserve">
<g>
	<path d="M22,509h253V3H22V509z M165,58h71v63h-71V58z M165,145h71v71h-71V145z M165,240h71v71h-71V240z M70,58h71v63H70V58z
		 M70,145h71v71H70V145z M70,240h71v71H70V240z"/>
	<rect x="307" y="216" width="182" height="40"/>
	<polygon points="307,509 354,509 354,367 441,367 441,509 489,509 489,280 307,280 	"/>
</g>
</svg>
