<?xml version="1.0" encoding="utf-8"?>
<!-- Generator: Adobe Illustrator 19.0.0, SVG Export Plug-In . SVG Version: 6.00 Build 0)  -->
<svg version="1.1" id="Layer_1" xmlns="http://www.w3.org/2000/svg" xmlns:xlink="http://www.w3.org/1999/xlink" x="0px" y="0px"
	 width="512px" height="512px" viewBox="0 0 512 512" enable-background="new 0 0 512 512" xml:space="preserve">
<path d="M486.3,373.5l0.2-236.5c0-9-4.2-17.3-10.6-23.2c-0.9-0.9-1.8-1.7-2.8-2.4c-5.3-3.9-11.6-6.2-18.3-6.2l-397.1,0.3
	c-7.2,0-13.8,2.5-19.2,6.6c-0.1,0.1-0.2,0.2-0.3,0.2c-7.5,5.8-12.4,14.8-12.4,25l-0.2,236.5c0,8.5,3.3,16.5,9.3,22.5
	c6,6,14,9.3,22.5,9.3l397.1-0.3c8.5,0,16.5-3.3,22.5-9.3C483,390,486.3,382,486.3,373.5z M425.3,132.7L256.5,239.7L87.1,132.9
	L425.3,132.7z M454.5,377.8l-397.1,0.3c-3.1,0-4.3-1.2-4.3-4.3l0.2-229.7l195.9,123.5c4.5,2.8,10.2,2.8,14.7,0L459,143.9l-0.2,229.6
	c0,1.6-0.8,2.6-1.3,3.1C457,377,456,377.8,454.5,377.8z"/>
</svg>
