<?xml version="1.0" encoding="utf-8"?>
<!-- Generator: Adobe Illustrator 19.2.1, SVG Export Plug-In . SVG Version: 6.00 Build 0)  -->
<svg version="1.1" id="Layer_1" xmlns="http://www.w3.org/2000/svg" xmlns:xlink="http://www.w3.org/1999/xlink" x="0px" y="0px"
	 width="512px" height="512px" viewBox="0 0 512 512" style="enable-background:new 0 0 512 512;" xml:space="preserve">
<g id="Xalq0e.tif">
	<g>
		<path d="M257.5,177.1c0-19.2,0-38.5,0-57.7c0-9.6,3.9-16.3,11.2-19.1c8.4-3.2,15,0,20.9,5.9c10.6,10.7,21.5,21.2,31.9,32.1
			c3.5,3.7,5.6,3.9,9.3,0.1c26.5-26.8,53.3-53.5,80-80.1c1.7-1.6,3.3-3.3,5.1-4.8c4.7-3.7,8.9-3.9,13.1,0.1
			c10.3,10,20.5,20.1,30.5,30.5c4.6,4.8,4,9-1.5,14.5c-27.7,27.7-55.4,55.4-83.1,83.1c-4.9,4.9-4.9,5,0,9.9
			c10.5,10.6,21.1,21.1,31.6,31.6c6,6,9.8,12.7,6.1,21.3c-3.6,8.5-11,11.5-19.7,11.5c-38.1,0.1-76.2,0.1-114.3,0
			c-14.6-0.1-21.2-7.1-21.3-21.8C257.5,215.2,257.5,196.2,257.5,177.1z"/>
		<path d="M257.9,333.8c0,19.4-0.1,38.8,0.1,58.2c0.1,8.5-3.1,14.8-10.8,18.2c-7.9,3.4-14.6,0.9-20.5-5.1
			c-10.9-11-22-21.8-32.7-32.9c-3.6-3.7-5.8-3.8-9.5-0.1c-27.3,27.6-54.8,55-82.3,82.4c-7.4,7.4-11.2,7.4-18.5,0.1
			c-8.3-8.2-16.6-16.5-24.8-24.8c-7.7-7.8-7.8-11.8-0.1-19.5c27.4-27.5,54.8-55,82.5-82.3c3.6-3.6,3.4-5.5-0.1-8.9
			c-11.1-10.7-21.9-21.8-32.9-32.7c-5.9-5.8-8.8-12.3-5.3-20.4c3.5-8,10.1-11.2,18.6-11.2c39,0,78,0,117,0
			c12.4,0,19.4,7.1,19.5,19.5C257.9,294.2,257.9,314,257.9,333.8z"/>
	</g>
</g>
</svg>
