<?xml version="1.0" encoding="utf-8"?>
<!-- Generator: Adobe Illustrator 19.2.1, SVG Export Plug-In . SVG Version: 6.00 Build 0)  -->
<svg version="1.1" id="Layer_1" xmlns="http://www.w3.org/2000/svg" xmlns:xlink="http://www.w3.org/1999/xlink" x="0px" y="0px"
	 width="512px" height="512px" viewBox="0 0 512 512" style="enable-background:new 0 0 512 512;" xml:space="preserve">
<path d="M176.6,497.6V381.4c-36.6-13-68.1-34.7-91.9-63.3c-27.4-33-41.9-72.2-41.9-113.5c0-51.2,22.4-99.3,63-135.3
	c40-35.5,93.1-55,149.4-55s109.4,19.5,149.4,55c40.6,36,63,84.1,63,135.3c0,25.6-5.6,50.4-16.6,73.9l0,0
	c-12.3,26.1-31.3,49.8-55.1,68.6c-22.7,18-49.9,31.6-78.7,39.5L176.6,497.6z M255.2,50.3c-97.3,0-176.4,69.2-176.4,154.3
	c0,66.6,48.6,125.4,120.8,146.4l13,3.8v68.6l88.2-69.7l3.7-0.9c51.1-13,93.6-46.5,113.9-89.5l0,0c8.8-18.6,13.2-38.3,13.2-58.6
	C431.7,119.5,352.5,50.3,255.2,50.3z"/>
</svg>
