<?xml version="1.0" encoding="utf-8"?>
<!-- Generator: Adobe Illustrator 21.0.0, SVG Export Plug-In . SVG Version: 6.00 Build 0)  -->
<svg version="1.1" id="Layer_1" xmlns="http://www.w3.org/2000/svg" xmlns:xlink="http://www.w3.org/1999/xlink" x="0px" y="0px"
	 width="512px" height="512px" viewBox="0 0 512 512" style="enable-background:new 0 0 512 512;" xml:space="preserve">
<g>
	<g>
		<path d="M438.1,347.7h-18.5c-5.1,0-9.1,4.1-9.1,9.2c0,5.1,4.1,9.2,9.1,9.2h9.4v92.1h-9.4c-5.1,0-9.1,4.1-9.1,9.2
			c0,5.1,4.1,9.2,9.1,9.2h18.5c5.1,0,9.1-4.1,9.1-9.2V356.9C447.2,351.8,443.1,347.7,438.1,347.7z M310.1,384.5h-165
			c-5.1,0-9.1,4.1-9.1,9.2c0,5.1,4.1,9.2,9.1,9.2h165c5.1,0,9.1-4.1,9.1-9.2C319.2,388.6,315.1,384.5,310.1,384.5z M438.1,200.4
			h-18.5c-5.1,0-9.1,4.1-9.1,9.2s4.1,9.2,9.1,9.2h9.4v92.1h-9.4c-5.1,0-9.1,4.1-9.1,9.2c0,5.1,4.1,9.2,9.1,9.2h18.5
			c5.1,0,9.1-4.1,9.1-9.2V209.6C447.2,204.5,443.1,200.4,438.1,200.4z M438.4,35.3H73.3c-5.1,0-9.1,4.1-9.1,9.2v422.8
			c0,5.1,4.1,9.2,9.1,9.2H383c5.1,0,9.1-4.1,9.1-9.2V163.6h46.3c5.1,0,9.1-4.1,9.1-9.2V44.5C447.5,39.4,443.4,35.3,438.4,35.3z
			 M429.2,145.2H383c-5.1,0-9.1,4.1-9.1,9.2v303.8H82.4V53.7h346.8V145.2z M151,292.4h154.5c8.3,0,15-6.8,15-15.2v-20.9
			c0-6.2-3.9-11.9-9.7-14.2c-41.3-15.9-51.1-23.2-53.1-24.9v-2.4c4.9-5.8,8.7-13,11.3-21c3.6-3.5,6-8.2,6.7-13.2
			c0.7-5.1-0.3-10.2-2.9-14.6v-15.9c0-26.1-16.7-41.7-44.7-41.7c-27.5,0-44.7,16-44.7,41.7V166c-2.6,4.4-3.6,9.5-2.9,14.6
			c0.7,5.1,3.1,9.7,6.7,13.2c2.6,8.1,6.5,15.3,11.4,21.1v2c-2.7,2.6-13.3,9.9-53.1,25.2c-5.8,2.2-9.7,7.9-9.7,14.2v20.9
			C136,285.6,142.7,292.4,151,292.4z M216.7,222.5c0.3-0.9,0.4-1.8,0.4-2.8v-8.4c0-2.4-0.9-4.7-2.6-6.5c-4.5-4.6-8.1-11.1-10.2-18.8
			c-0.6-2.1-1.8-3.8-3.6-5.1c-1.3-0.9-1.7-2.2-1.8-2.9c-0.1-0.8,0-2.1,1-3.3c1.3-1.7,2.1-3.7,2.1-5.8v-18.7
			c0-15.5,8.9-23.3,26.4-23.3c18,0,26.4,7.4,26.4,23.3v18.7c0,2.1,0.7,4.2,2.1,5.8c1,1.2,1.1,2.5,1,3.3c-0.2,1.2-0.8,2.2-1.8,2.9
			c-1.7,1.2-3,3-3.6,5.1c-2.2,7.7-5.7,14.2-10.2,18.8c-1.7,1.7-2.6,4-2.6,6.5v8.4c0,0.9,0.1,1.9,0.4,2.8c2.2,6.9,8.8,15.3,62.3,36.1
			V274h-148v-15.4h-0.1C207.9,237.8,214.5,229.4,216.7,222.5z M310.1,329.3h-165c-5.1,0-9.1,4.1-9.1,9.2c0,5.1,4.1,9.2,9.1,9.2h165
			c5.1,0,9.1-4.1,9.1-9.2C319.2,333.4,315.1,329.3,310.1,329.3z"/>
	</g>
</g>
</svg>
