<?xml version="1.0" encoding="UTF-8" standalone="no"?>
<svg width="60px" height="60px" viewBox="0 0 60 60" version="1.1" xmlns="http://www.w3.org/2000/svg" xmlns:xlink="http://www.w3.org/1999/xlink">
    <!-- Generator: Sketch 46.2 (44496) - http://www.bohemiancoding.com/sketch -->
    <title>create-ticket</title>
    <desc>Created with Sketch.</desc>
    <defs></defs>
    <g id="Page-1" stroke="none" stroke-width="1" fill="none" fill-rule="evenodd">
        <g id="create-ticket" fill="#183247">
            <path d="M34.593985,27.2631579 L34.593985,18.4857142 C34.593985,17.6651769 33.9288081,17 33.1082708,17 L28.7488721,17 C27.9283348,17 27.2631579,17.6651769 27.2631579,18.4857142 L27.2631579,27.2631579 L18.4857142,27.2631579 C17.6651769,27.2631579 17,27.9283348 17,28.7488721 L17,28.7488721 L17,33.1082708 C17,33.9288081 17.6651769,34.593985 18.4857142,34.593985 L27.2631579,34.593985 L27.2631579,43.3714287 C27.2631579,44.191966 27.9283348,44.8571429 28.7488721,44.8571429 L33.1082708,44.8571429 C33.9288081,44.8571429 34.593985,44.191966 34.593985,43.3714287 L34.593985,34.593985 L43.3714287,34.593985 C44.191966,34.593985 44.8571429,33.9288081 44.8571429,33.1082708 L44.8571429,28.7488721 C44.8571429,27.9283348 44.191966,27.2631579 43.3714287,27.2631579 L34.593985,27.2631579 Z M9.2,4 L50.8,4 C53.6718807,4 56,6.3281193 56,9.2 L56,50.8 L56,50.8 C56,53.6718807 53.6718807,56 50.8,56 L9.2,56 L9.2,56 C6.3281193,56 4,53.6718807 4,50.8 L4,9.2 L4,9.2 C4,6.3281193 6.3281193,4 9.2,4 Z" id="Combined-Shape"></path>
        </g>
    </g>
</svg>