<?xml version="1.0" encoding="utf-8"?>
<!-- Generator: Adobe Illustrator 19.2.1, SVG Export Plug-In . SVG Version: 6.00 Build 0)  -->
<svg version="1.1" id="Layer_1" xmlns="http://www.w3.org/2000/svg" xmlns:xlink="http://www.w3.org/1999/xlink" x="0px" y="0px"
	 width="512px" height="512px" viewBox="0 0 512 512" style="enable-background:new 0 0 512 512;" xml:space="preserve">
<style type="text/css">
	.st0{fill:#010101;}
</style>
<g>
	<path class="st0" d="M256.3,57c-109.9,0-199,89.1-199,199s89.1,199,199,199s199-89.1,199-199S366.2,57,256.3,57z M256.3,436
		c-99.4,0-180-80.6-180-180s80.6-180,180-180s180,80.6,180,180C436.4,355.4,355.8,436,256.3,436z"/>
	<path class="st0" d="M321.5,190.8c-5.8-5.8-15.2-5.8-21,0l-44.3,44.3l-43.2-43.2c-5.7-5.7-14.9-5.7-20.6,0
		c-5.7,5.7-5.7,14.9,0,20.6l43.2,43.2l-44.3,44.3c-5.8,5.8-5.8,15.2,0,21s15.2,5.8,21,0l44.3-44.3l43.2,43.2
		c5.7,5.7,14.9,5.7,20.6,0c5.7-5.7,5.7-14.9,0-20.6l-43.2-43.2l44.3-44.3C327.3,206,327.3,196.6,321.5,190.8z"/>
</g>
</svg>
