<?xml version="1.0" encoding="utf-8"?>
<!-- Generator: Adobe Illustrator 19.2.1, SVG Export Plug-In . SVG Version: 6.00 Build 0)  -->
<svg version="1.1" id="Layer_1" xmlns="http://www.w3.org/2000/svg" xmlns:xlink="http://www.w3.org/1999/xlink" x="0px" y="0px"
	 width="512px" height="512px" viewBox="0 0 512 512" style="enable-background:new 0 0 512 512;" xml:space="preserve">
<style type="text/css">
	.st0{fill-rule:evenodd;clip-rule:evenodd;fill:#010101;}
</style>
<g>
	<path class="st0" d="M256.3,57c-109.9,0-199,89.1-199,199c0,109.9,89.1,199,199,199s199-89.1,199-199
		C455.3,146.1,366.2,57,256.3,57z M256.3,436c-99.4,0-180-80.6-180-180c0-99.4,80.6-180,180-180s180,80.6,180,180
		C436.4,355.4,355.8,436,256.3,436z"/>
	<path class="st0" d="M340,172.3c-7.5-7.5-19.5-7.5-27,0l-56.9,56.9l-55.5-55.5c-7.3-7.3-19.2-7.3-26.5,0c-7.3,7.3-7.3,19.2,0,26.5
		l55.5,55.5l-56.9,56.9c-7.5,7.5-7.5,19.5,0,27c7.5,7.5,19.5,7.5,27,0l56.9-56.9l55.5,55.5c7.3,7.3,19.2,7.3,26.5,0
		c7.3-7.3,7.3-19.2,0-26.5l-55.5-55.5l56.9-56.9C347.5,191.8,347.5,179.7,340,172.3z"/>
</g>
</svg>
