<?xml version="1.0" encoding="utf-8"?>
<!-- Generator: Adobe Illustrator 19.2.1, SVG Export Plug-In . SVG Version: 6.00 Build 0)  -->
<svg version="1.1" id="Layer_1" xmlns="http://www.w3.org/2000/svg" xmlns:xlink="http://www.w3.org/1999/xlink" x="0px" y="0px"
	 width="512px" height="512px" viewBox="0 0 512 512" style="enable-background:new 0 0 512 512;" xml:space="preserve">
<g>
	<path d="M228.4,472L59.1,382.5c-4.4-2.3-7.1-6.9-7.1-11.8l0-207.6c0-9.8,10.1-16.2,19-12.1l169.4,78.7c4.7,2.2,7.7,6.9,7.7,12.1
		v218.4C248,470.2,237.3,476.7,228.4,472z"/>
	<path d="M441.4,133.1L267,212.8c-6.7,3.1-14.4,3.1-21.1,0L69.5,131.2c-6.9-3.2-6.9-13,0-16.2l178.9-74.4c5.1-2.3,10.9-2.3,16,0.1
		l177.1,76.3C448.3,120.1,448.2,129.9,441.4,133.1z"/>
	<path d="M282.8,472l169.4-89.5c4.4-2.3,7.1-6.9,7.1-11.8l0-207.6c0-9.8-10.1-16.2-19-12.1L271,229.6c-4.7,2.2-7.7,6.9-7.7,12.1
		v218.4C263.2,470.2,273.9,476.7,282.8,472z"/>
</g>
</svg>
