<?xml version="1.0" encoding="utf-8"?>
<!-- Generator: Adobe Illustrator 19.0.0, SVG Export Plug-In . SVG Version: 6.00 Build 0)  -->
<svg version="1.1" id="Layer_1" xmlns="http://www.w3.org/2000/svg" xmlns:xlink="http://www.w3.org/1999/xlink" x="0px" y="0px"
	 width="512px" height="512px" viewBox="0 0 512 512" style="enable-background:new 0 0 512 512;" xml:space="preserve">
<path d="M485.7,140.2c-0.3-0.5-0.8-0.8-1.1-1.2c-0.6-0.7-1.2-1.6-2-2.1c-0.2-0.1-0.3-0.1-0.5-0.2c-0.1-0.1-0.2-0.2-0.3-0.3L270.6,34
	c-2.6-1.3-5.6-1.3-8.2-0.2L29.6,136.3c-0.2,0.1-0.3,0.3-0.5,0.4c-0.2,0.1-0.5,0.1-0.8,0.3c-0.8,0.5-1.2,1.3-1.8,1.9
	c-0.4,0.4-0.8,0.7-1.1,1.2c-0.9,1.4-1.4,3-1.4,4.8c0,0,0,0,0,0.1l0,0c0,0,0,0,0,0v220.2c0,3.7,2.2,7.1,5.7,8.7l231.6,102.5
	c1.3,0.6,2.6,0.8,4,0.8c1.5,0,2.9-0.3,4.3-1l212.3-102.5c3.3-1.6,5.4-4.9,5.4-8.5V145C487.1,143.3,486.6,141.6,485.7,140.2z
	 M255.5,453L43.2,359V159.7l212.3,94V453z M265,237L57.1,145l89.6-39.5l31.1-13.7h0L266.1,53l189.5,92l-66.8,32.2l-15.1,7.3h0
	l-1.1,0.5l-1.4,0.7h0l-22.1,10.7l0,0l-5,2.4l-1.9,0.9h0L265,237z M467.8,359.3l-193,93.2v-199l193-93.2V359.3z"/>
</svg>
