<?xml version="1.0" encoding="utf-8"?>
<!-- Generator: Adobe Illustrator 17.0.0, SVG Export Plug-In . SVG Version: 6.00 Build 0)  -->
<!DOCTYPE svg PUBLIC "-//W3C//DTD SVG 1.1//EN" "http://www.w3.org/Graphics/SVG/1.1/DTD/svg11.dtd">
<svg version="1.1" id="Layer_1" xmlns="http://www.w3.org/2000/svg" xmlns:xlink="http://www.w3.org/1999/xlink" x="0px" y="0px"
	 width="512px" height="512px" viewBox="0 0 512 512" enable-background="new 0 0 512 512" xml:space="preserve">
<g>
	<path fill="#010101" d="M102.736,246.769c4.616,28.195,25.797,49.163,25.797,49.163h0.029c6.61,8.951,16.968,14.722,28.622,14.722
		c11.653,0,22.011-5.771,28.622-14.722h0.245c0,0,21.18-20.968,25.797-49.163c12.418,0,20.088-29.975,7.668-40.522
		c0.518-11.102,15.961-87.15-62.223-87.15s-62.741,76.048-62.224,87.15C82.648,216.794,90.317,246.769,102.736,246.769z"/>
	<path fill="#010101" d="M303.343,400.77c0-40.935-82.607-78.345-108.144-83.542c-11.439,7.974-24.435,12.485-38.217,12.485
		c-13.727,0-26.674-4.474-38.079-12.388C92.821,322.89,11.238,360.091,11.238,400.77h146.052H303.343z"/>
	<polygon fill="#010101" points="409.983,400.77 409.983,371.725 439.029,371.725 439.029,347.685 409.983,347.685 409.983,318.639 
		385.943,318.639 385.943,347.685 356.898,347.685 356.898,371.725 385.943,371.725 385.943,400.77 	"/>
	<rect x="274.242" y="215.159" fill="#010101" width="171.633" height="17.764"/>
	<rect x="273.887" y="273.462" fill="#010101" width="171.989" height="17.764"/>
	<rect x="274.242" y="156.855" fill="#010101" width="171.633" height="17.764"/>
	<path fill="#010101" d="M495.836,99.98l-66.095-65.157c-2.872-2.829-6.728-4.418-10.762-4.418H157.33
		c-8.46,0-15.323,6.872-15.323,15.332v52.178h30.656V61.07h237.124v55.118c0,5.078,4.113,9.183,9.192,9.183h50.763v105.714v20.163
		v23.668v26.509V452.23H172.663v-28.339h-30.656v43.653c0,8.461,6.863,15.332,15.323,15.332h327.743
		c8.47,0,15.332-6.871,15.332-15.332v-166.12v-26.509v-23.668v-20.163V110.886C500.406,106.781,498.764,102.854,495.836,99.98z"/>
</g>
</svg>
