<?xml version="1.0" encoding="utf-8"?>
<!-- Generated by IcoMoon.io -->
<!DOCTYPE svg PUBLIC "-//W3C//DTD SVG 1.1//EN" "http://www.w3.org/Graphics/SVG/1.1/DTD/svg11.dtd">
<svg version="1.1" xmlns="http://www.w3.org/2000/svg" xmlns:xlink="http://www.w3.org/1999/xlink" width="1024" height="1024" viewBox="0 0 1024 1024"><g id="icomoon-ignore">
</g>
<path d="M858.4 791.4h-137.8v-24.6h137.8v24.6zM858.4 746h-137.8v-24.6h137.8v24.6zM858.4 700.6h-137.8v-24.6h137.8v24.6zM824.2 561.6v70.4h70.4v202h-209.4v-272.4h139zM844.8 528.8h-192.4v337.8h275v-255.2l-82.6-82.6z"></path>
<path d="M546.4 347c-26.4 0-47.8 21.4-47.8 47.8 0.2 26.4 21.6 47.8 47.8 47.8 26.4 0 47.8-21.4 47.8-47.8 0-26.2-21.4-47.8-47.8-47.8z"></path>
<path d="M289.2 576c31.4 51.4 92.8 83.4 160.4 83.4 57.6 0 110.8-23.4 144.6-62.2v-67.4c-14.4-5.8-31-1.2-39.4 12.6-19.6 31.8-60.8 52.4-105.2 52.4s-85.8-20.6-105.2-52.4c-9.4-15.2-29.2-20-44.4-10.8-15.2 9.4-20 29.2-10.8 44.4z"></path>
<path d="M594.2 689.2c-41.4 28-91.2 44.4-144.8 44.4-142.8 0-258.6-115.8-258.6-258.6s115.8-258.6 258.6-258.6 258.6 115.8 258.6 258.6h72c0-182.6-147.8-330.4-330.4-330.4-182.4 0-330.2 147.8-330.2 330.4s147.8 330.4 330.2 330.4c52 0 101-12.4 144.8-33.8v-82.4z"></path>
<path d="M352.6 442.8c26.4 0 47.8-21.4 47.8-47.8s-21.4-47.8-47.8-47.8c-26.6 0-47.8 21.6-47.8 47.8s21.2 47.8 47.8 47.8z"></path>
</svg>
