<?xml version="1.0" encoding="utf-8"?>
<!-- Generated by IcoMoon.io -->
<!DOCTYPE svg PUBLIC "-//W3C//DTD SVG 1.1//EN" "http://www.w3.org/Graphics/SVG/1.1/DTD/svg11.dtd">
<svg version="1.1" xmlns="http://www.w3.org/2000/svg" xmlns:xlink="http://www.w3.org/1999/xlink" width="1024" height="1024" viewBox="0 0 1024 1024"><g id="icomoon-ignore">
</g>
<path d="M284.6 388.2c0 14.9 11.7 27.3 25.6 27.3 0.2 0 0.4 0 0.7 0 5 71.5 61.9 142.9 130.9 142.9s125.3-71.5 130.9-142.9c0.2 0 0.4 0 0.5 0 14.2 0 25.6-12.2 25.6-27.3 0-11.1-6.3-20.4-15.2-24.7 5-16 8.1-33.2 8.1-51.3 0-87.3-67.1-158.1-149.7-158.1s-149.9 70.6-149.9 158.1c0 18.1 3 35.1 8.1 51.3-9.5 4.1-15.6 13.6-15.6 24.7z"></path>
<path d="M575.2 609c-7.4-2.3-14.5-4.3-21.9-6.3-2.2-1.3-4.1-1.8-6.6-1.8h-7.5c-2.2 0-4.5 0.7-6.5 1.8-24 12.9-57.6 20.3-91.3 20.3s-67.1-7.5-91.3-20.3c-2.2-1.1-4.1-1.8-6.5-1.8h-5c-1.1 0-2.2 0.2-3.2 0.5-82.5 19.4-158.9 61.5-221.6 121.9-2.9 2.7-4.1 6.3-4.1 10v49.7c0 7.5 6.5 13.8 13.8 13.8h452v-187.8h-0.3z"></path>
<path d="M843.6 795.1h-141.1v-25.3h141.1v25.3zM843.6 748.3h-141.1v-25.1h141.1v25.1zM843.6 701.8h-141.1v-25.3h141.1v25.3zM808.7 559.3v72.1h72.1v206.9h-214.4v-279h142.3zM829.7 525.8h-197.1v346.2h281.9v-261.6l-84.8-84.6z"></path>
</svg>
