<?xml version="1.0" encoding="UTF-8"?>
<svg width="60px" height="60px" viewBox="0 0 60 60" version="1.1" xmlns="http://www.w3.org/2000/svg" xmlns:xlink="http://www.w3.org/1999/xlink">
    <!-- Generator: Sketch 44.1 (41455) - http://www.bohemiancoding.com/sketch -->
    <title>customers</title>
    <desc>Created with Sketch.</desc>
    <defs></defs>
    <g id="Page-1" stroke="none" stroke-width="1" fill="none" fill-rule="evenodd">
        <g id="customers" fill="#183247" fill-rule="nonzero">
            <path d="M44.2857143,30.4569509 C39.6570421,30.4569509 35.9047619,26.7255517 35.9047619,22.1226375 C35.9047619,17.5197234 39.6570421,13.7883242 44.2857143,13.7883242 C48.9143865,13.7883242 52.6666667,17.5197234 52.6666667,22.1226375 C52.6666667,26.7255517 48.9143865,30.4569509 44.2857143,30.4569509 Z M44.2857143,25.9109618 C46.3896562,25.9109618 48.0952381,24.2148712 48.0952381,22.1226375 C48.0952381,20.0304038 46.3896562,18.3343133 44.2857143,18.3343133 C42.1817724,18.3343133 40.4761905,20.0304038 40.4761905,22.1226375 C40.4761905,24.2148712 42.1817724,25.9109618 44.2857143,25.9109618 Z M19.8412698,32.351113 C13.6346412,32.351113 8.6031746,27.3476459 8.6031746,21.1755565 C8.6031746,15.0034671 13.6346412,10 19.8412698,10 C26.0478985,10 31.0793651,15.0034671 31.0793651,21.1755565 C31.0793651,27.3476459 26.0478985,32.351113 19.8412698,32.351113 Z M19.8412698,27.8051239 C23.5231682,27.8051239 26.5079365,24.8369655 26.5079365,21.1755565 C26.5079365,17.5141475 23.5231682,14.5459891 19.8412698,14.5459891 C16.1593715,14.5459891 13.1746032,17.5141475 13.1746032,21.1755565 C13.1746032,24.8369655 16.1593715,27.8051239 19.8412698,27.8051239 Z M6.57142857,48.7270055 C6.57142857,49.9823457 5.54807943,51 4.28571429,51 C3.02334914,51 2,49.9823457 2,48.7270055 C2,41.1949641 8.14009486,35.0890382 15.7142857,35.0890382 L23.3333333,35.0890382 C30.9075242,35.0890382 37.047619,41.1949641 37.047619,48.7270055 C37.047619,49.9823457 36.0242699,51 34.7619048,51 C33.4995396,51 32.4761905,49.9823457 32.4761905,48.7270055 C32.4761905,43.7056446 28.3827939,39.6350273 23.3333333,39.6350273 L15.7142857,39.6350273 C10.6648251,39.6350273 6.57142857,43.7056446 6.57142857,48.7270055 Z M36.6666667,37.6547669 C35.4043015,37.6547669 34.3809524,36.6371126 34.3809524,35.3817724 C34.3809524,34.1264321 35.4043015,33.1087778 36.6666667,33.1087778 L48.5714286,33.1087778 C53.8128363,33.1087778 58,37.5502313 58,42.9584208 C58,44.2137611 56.9766509,45.2314154 55.7142857,45.2314154 C54.4519206,45.2314154 53.4285714,44.2137611 53.4285714,42.9584208 C53.4285714,39.9976755 51.219803,37.6547669 48.5714286,37.6547669 L36.6666667,37.6547669 Z"></path>
        </g>
    </g>
</svg>