<?xml version="1.0" encoding="utf-8"?>
<!-- Generated by IcoMoon.io -->
<!DOCTYPE svg PUBLIC "-//W3C//DTD SVG 1.1//EN" "http://www.w3.org/Graphics/SVG/1.1/DTD/svg11.dtd">
<svg version="1.1" xmlns="http://www.w3.org/2000/svg" xmlns:xlink="http://www.w3.org/1999/xlink" width="1024" height="1024" viewBox="0 0 1024 1024"><g id="icomoon-ignore">
</g>
<path d="M916.6 848.8h-166.4v-29.8h166.4v29.8zM916.6 794h-166.4v-29.8h166.4v29.8zM916.6 739.2h-166.4v-29.8h166.4v29.8zM875.4 571.4v85h85v244h-253v-329h168zM900.2 531.6h-232.4v408h332.2v-308.2l-99.8-99.8z"></path>
<path d="M539.8 312c-32 0-57.8 26-57.8 57.8 0.2 31.8 26 57.8 57.8 57.8s57.8-25.8 57.8-57.8c0-31.6-26-57.8-57.8-57.8z"></path>
<path d="M229.2 588.6c38 62 112 100.8 193.8 100.8 69.6 0 133.8-28.2 174.6-75.2v-81.4c-17.4-7-37.4-1.4-47.6 15.2-23.6 38.4-73.4 63.2-127 63.2s-103.6-24.8-127-63.2c-11.4-18.4-35.2-24.2-53.6-13-18.6 11.4-24.4 35.4-13.2 53.6v0z"></path>
<path d="M597.6 725.4c-50 33.8-110.2 53.6-175 53.6-172.4 0-312.4-139.8-312.4-312.4s139.8-312.4 312.4-312.4 312.4 140 312.4 312.4h87c0-220.6-178.6-399-399-399s-399 178.6-399 399 178.6 399 398.8 399c62.8 0 122-15 175-40.8v-99.6h-0.2z"></path>
<path d="M305.6 427.8c31.8 0 57.8-25.8 57.8-57.8s-25.8-57.8-57.8-57.8c-32.2 0-57.8 26-57.8 57.8s25.8 57.8 57.8 57.8z"></path>
</svg>
