<?xml version="1.0" encoding="utf-8"?>
<!-- Generator: Adobe Illustrator 19.0.0, SVG Export Plug-In . SVG Version: 6.00 Build 0)  -->
<svg version="1.1" id="Layer_1" xmlns="http://www.w3.org/2000/svg" xmlns:xlink="http://www.w3.org/1999/xlink" x="0px" y="0px"
	 width="512px" height="512px" viewBox="0 0 512 512" enable-background="new 0 0 512 512" xml:space="preserve">
<g>
	<g>
		<path d="M154.4,199.8c0,9.5,7.4,17.4,16.4,17.4c0.1,0,0.2,0,0.4,0c3.3,45.7,39.5,91.3,83.6,91.3s80.1-45.7,83.6-91.3
			c0.1,0,0.2,0,0.3,0c9.1,0,16.4-7.8,16.4-17.4c0-7.1-4-13.1-9.7-15.8c3.3-10.2,5.1-21.2,5.1-32.7c0-55.8-42.8-101.1-95.7-101.1
			S159,95.4,159,151.3c0,11.5,1.9,22.4,5.1,32.7C158.3,186.7,154.4,192.7,154.4,199.8z M464.1,414c-39.1-37.7-86.7-64.4-138-77.1
			c-1.3-0.8-2.7-1.1-4.3-1.1H317c-1.4,0-2.9,0.4-4.2,1.1c-15.4,8.3-36.7,13-58.3,13c-21.5,0-42.8-4.8-58.3-13
			c-1.3-0.7-2.7-1.1-4.2-1.1h-3.3c-0.7,0-1.4,0.1-2,0.3C134,348.4,85.2,375.4,45.1,414c-1.8,1.7-2.7,4-2.7,6.4v31.7
			c0,4.8,4.1,8.8,8.9,8.8h406.6c4.9,0,8.9-4,8.9-8.8v-31.7C466.8,418,465.8,415.7,464.1,414z"/>
	</g>
</g>
</svg>
