<?xml version="1.0" encoding="utf-8"?>
<!-- Generator: Adobe Illustrator 19.0.0, SVG Export Plug-In . SVG Version: 6.00 Build 0)  -->
<svg version="1.1" id="Layer_1" xmlns="http://www.w3.org/2000/svg" xmlns:xlink="http://www.w3.org/1999/xlink" x="0px" y="0px"
	 width="512px" height="512px" viewBox="0 0 512 512" enable-background="new 0 0 512 512" xml:space="preserve">
<g>
	<g>
		<path d="M255,43.2C138.1,43.2,43.3,138,43.3,255S138.1,466.8,255,466.8c117,0,211.8-94.8,211.8-211.8S372,43.2,255,43.2z
			 M255,420.7c-91.5,0-165.7-74.2-165.7-165.7S163.5,89.3,255,89.3S420.7,163.5,420.7,255S346.5,420.7,255,420.7z M192.9,234.4
			c16.9,0,30.7-13.7,30.7-30.7c0-16.9-13.7-30.7-30.7-30.7s-30.7,13.8-30.7,30.7S175.9,234.4,192.9,234.4z M317.1,234.4
			c16.9,0,30.7-13.7,30.7-30.7c0-16.9-13.7-30.7-30.7-30.7c-16.9,0-30.7,13.7-30.7,30.7C286.5,220.6,300.2,234.4,317.1,234.4z
			 M351,291.3c-9.7-6-22.5-2.9-28.5,6.9c-12.5,20.4-39,33.6-67.4,33.6c-28.5,0-55-13.2-67.4-33.6c-6-9.7-18.7-12.8-28.5-6.9
			c-9.7,6-12.8,18.7-6.9,28.5c20.1,32.9,59.5,53.4,102.8,53.4s82.7-20.5,102.8-53.4C363.8,310,360.7,297.3,351,291.3z"/>
	</g>
</g>
</svg>
