<?xml version="1.0" encoding="utf-8"?>
<!-- Generated by IcoMoon.io -->
<!DOCTYPE svg PUBLIC "-//W3C//DTD SVG 1.1//EN" "http://www.w3.org/Graphics/SVG/1.1/DTD/svg11.dtd">
<svg version="1.1" xmlns="http://www.w3.org/2000/svg" xmlns:xlink="http://www.w3.org/1999/xlink" width="1024" height="1024" viewBox="0 0 1024 1024"><g id="icomoon-ignore">
</g>
<path d="M917.6 730.6c0-13-10.4-23.4-23.4-23.4s-23.4 10.4-23.4 23.4c0 5.8 2 11 5.4 15l-24.2 27-11.8-52.4c9.6-3 16.6-11.8 16.6-22.4 0-13-10.4-23.4-23.4-23.4s-23.4 10.4-23.4 23.4c0 8.4 4.4 15.6 11 19.8l-20.4 52.6-20.4-52.6c6.6-4.2 11-11.4 11-19.8 0-13-10.4-23.4-23.4-23.4s-23.4 10.4-23.4 23.4c0 10.6 7 19.4 16.6 22.4l-11.8 52.4-24.2-27c3.4-4 5.4-9.4 5.4-15 0-13-10.4-23.4-23.4-23.4s-23.4 10.4-23.4 23.4c0 12.6 10 22.8 22.4 23.4l26.8 74.8h135.6l26.8-74.8c12.6-0.6 22.4-10.8 22.4-23.4z"></path>
<path d="M733 842.8h135.6v32.8h-135.6v-32.8z"></path>
<path d="M639.4 775.2c0-41.6 13.6-80 36.2-111.2-28-12.8-57-23-86.6-30.4-2.2-1.4-4.6-1.8-7.2-1.8h-8.2c-2.4 0-5 0.6-7.2 1.8-26.2 14-62.2 22-98.8 22-36.4 0-72.6-8.2-98.8-22-2.2-1.2-4.6-1.8-7.2-1.8h-5.6c-1.2 0-2.4 0.2-3.4 0.6-89.4 20.8-172 66.6-240 132-3 2.8-4.6 6.8-4.6 10.8v53.8c0 8.2 7 15 15 15h529.4c-8.4-21.6-13-44.6-13-68.8z"></path>
<path d="M297.8 401c0 16.2 12.6 29.6 27.8 29.6 0.2 0 0.4 0 0.6 0 5.6 77.4 67 154.8 141.8 154.8s135.8-77.4 141.8-154.8c0.2 0 0.4 0 0.6 0 15.4 0 27.8-13.2 27.8-29.6 0-12-6.8-22.2-16.4-26.8 5.6-17.2 8.6-36 8.6-55.4 0-94.6-72.6-171.4-162.2-171.4s-162.4 76.6-162.4 171.4c0 19.4 3.2 38 8.6 55.4-10 4.6-16.6 14.8-16.6 26.8z"></path>
</svg>
