<?xml version="1.0" encoding="utf-8"?>
<!-- Generator: Adobe Illustrator 17.0.0, SVG Export Plug-In . SVG Version: 6.00 Build 0)  -->
<!DOCTYPE svg PUBLIC "-//W3C//DTD SVG 1.1//EN" "http://www.w3.org/Graphics/SVG/1.1/DTD/svg11.dtd">
<svg version="1.1" id="Layer_1" xmlns="http://www.w3.org/2000/svg" xmlns:xlink="http://www.w3.org/1999/xlink" x="0px" y="0px"
	 width="512px" height="512px" viewBox="0 0 512 512" enable-background="new 0 0 512 512" xml:space="preserve">
<g>
	<g>
		<path d="M139.639,402.966c8.917,5.959,26.848,12.909,48.073,12.909c47.508,0,69.15-30.719,69.15-59.281
			c0-19.779-10.391-36.561-27.063-45.566c13.237-9.547,20.553-23.416,20.553-39.736c0-24.23-17.278-48.665-55.881-48.665
			c-21.147,0-39.526,7.89-48.833,14.654c-2.752,1.999-3.854,5.646-2.658,8.881l6.248,16.955c0.817,2.216,2.609,3.911,4.821,4.598
			c2.225,0.696,4.641,0.285,6.538-1.089c6.304-4.596,17.818-9.977,29.464-9.977c14.305,0,22.18,6.527,22.18,18.348
			c0,15.8-18.077,21.534-30.243,21.534h-12.748c-4.128,0-7.478,3.411-7.478,7.614v17.499c0,4.194,3.35,7.603,7.478,7.603h12.748
			c6.004,0,35.953,1.295,36.242,26.953c0.115,6.568-2.273,12.871-6.525,17.291c-5.355,5.538-13.511,8.35-24.25,8.35
			c-14.256,0-27.841-5.987-33.624-9.515c-1.916-1.168-4.275-1.414-6.365-0.64c-2.11,0.755-3.775,2.452-4.526,4.607l-6.246,17.741
			C135.528,397.351,136.74,401.035,139.639,402.966z M284.043,272.91c0.566,2.265,2.129,4.145,4.236,5.096
			c2.12,0.951,4.524,0.832,6.567-0.276l18.886-10.379v137.995c0,4.196,3.35,7.607,7.48,7.607h22.121c4.13,0,7.478-3.411,7.478-7.607
			v-172.19c0-4.203-3.348-7.616-7.478-7.616h-19.522c-1.223,0-2.437,0.294-3.524,0.893l-36.948,20.132
			c-3.028,1.655-4.56,5.194-3.715,8.586L284.043,272.91z M414.184,35.39H376.61v34.953c0,13.29-10.61,24.103-23.658,24.103
			c-13.044,0-23.664-10.813-23.664-24.103V35.39H183.312v34.953c0,13.29-10.615,24.103-23.66,24.103
			c-13.056,0-23.664-10.813-23.664-24.103V35.39H98.42c-25.349,0-45.97,20.995-45.97,46.793v377.553
			c0,25.796,20.621,46.802,45.97,46.802h315.764c25.343,0,45.966-21.006,45.966-46.802V82.183
			C460.15,56.385,439.527,35.39,414.184,35.39z M430.23,459.736c0,9.009-7.191,16.34-16.046,16.34H98.42
			c-8.858,0-16.049-7.331-16.049-16.34V151.854H430.23V459.736z M159.652,79.214c4.813,0,8.701-3.969,8.701-8.871V14.807
			c0-4.902-3.888-8.867-8.701-8.867s-8.713,3.966-8.713,8.867v55.536C150.939,75.245,154.839,79.214,159.652,79.214z
			 M352.952,79.214c4.811,0,8.711-3.969,8.711-8.871V14.807c0-4.902-3.9-8.867-8.711-8.867c-4.813,0-8.705,3.966-8.705,8.867v55.536
			C344.247,75.245,348.139,79.214,352.952,79.214z"/>
	</g>
</g>
</svg>
