<?xml version="1.0" encoding="utf-8"?>
<!-- Generator: Adobe Illustrator 17.0.0, SVG Export Plug-In . SVG Version: 6.00 Build 0)  -->
<!DOCTYPE svg PUBLIC "-//W3C//DTD SVG 1.1//EN" "http://www.w3.org/Graphics/SVG/1.1/DTD/svg11.dtd">
<svg version="1.1" id="Layer_1" xmlns="http://www.w3.org/2000/svg" xmlns:xlink="http://www.w3.org/1999/xlink" x="0px" y="0px"
	 width="512px" height="512px" viewBox="0 0 512 512" enable-background="new 0 0 512 512" xml:space="preserve">
<path fill-rule="evenodd" clip-rule="evenodd" d="M501.5,282.831v69.745c0,13.85-11.228,25.078-25.077,25.078H37.576
	c-13.849,0-25.076-11.228-25.076-25.078v-68.96c20.774,0,37.613-16.843,37.613-37.615c0-20.776-16.839-37.617-37.613-37.617v-68.96
	c0-13.851,11.227-25.078,25.076-25.078h438.847c13.849,0,25.077,11.227,25.077,25.078V207.6c-20.775,0-37.615,16.842-37.615,37.614
	C463.885,265.989,480.725,282.831,501.5,282.831z M438.808,177.038c0-13.851-11.227-25.078-25.077-25.078H100.268
	c-13.849,0-25.077,11.227-25.077,25.078v137.925c0,13.848,11.228,25.076,25.077,25.076h313.462c13.85,0,25.077-11.228,25.077-25.076
	V177.038z M413.731,327.5H100.268c-6.925,0-12.538-5.613-12.538-12.537V177.038c0-6.925,5.613-12.538,12.538-12.538h313.462
	c6.925,0,12.538,5.613,12.538,12.538v137.925C426.269,321.886,420.656,327.5,413.731,327.5z M168.849,233.939l-11.374-32.346
	l-11.374,32.346l-32.773,1.379l25.745,21.368l-8.882,33.198l27.284-19.14l27.284,19.14l-8.881-33.198l25.743-21.368L168.849,233.939
	z M269.158,233.939l-11.374-32.346l-11.375,32.346l-32.773,1.379l25.745,21.368l-8.884,33.198l27.286-19.14l27.283,19.14
	l-8.881-33.198l25.743-21.368L269.158,233.939z M369.465,233.939l-11.372-32.346l-11.374,32.346l-32.772,1.379l25.742,21.368
	l-8.881,33.198l27.285-19.14l27.283,19.14l-8.882-33.198l25.745-21.368L369.465,233.939z"/>
</svg>
