<?xml version="1.0" encoding="utf-8"?>
<!-- Generator: Adobe Illustrator 19.1.0, SVG Export Plug-In . SVG Version: 6.00 Build 0)  -->
<svg version="1.1" id="Layer_1" xmlns="http://www.w3.org/2000/svg" xmlns:xlink="http://www.w3.org/1999/xlink" x="0px" y="0px"
	 width="512px" height="512px" viewBox="0 0 512 512" style="enable-background:new 0 0 512 512;" xml:space="preserve">
<g>
	<path d="M270.8,330.1c5.6-42.6,16.7-90.7,16.7-98.1c0-9.3-3.7-16.7-9.3-22.2c-5.6-5.6-13-9.3-22.2-9.3s-16.7,3.7-22.2,9.3
		c-5.6,5.6-7.4,13-7.4,22.2s13,55.5,16.7,98.1H270.8z"/>
	<path d="M256,367.1c-7.4,0-14.8,1.9-20.4,7.4c-5.6,5.6-7.4,13-7.4,20.4c0,9.3,1.9,14.8,7.4,20.4c5.6,5.6,13,7.4,20.4,7.4
		s14.8-1.9,20.4-7.4c5.6-5.6,7.4-13,7.4-20.4s-1.9-14.8-7.4-20.4C270.8,368.9,263.4,367.1,256,367.1z"/>
	<path d="M144.9,107.9c11.1,0,18.5-7.4,18.5-18.5V33.8c0-11.1-7.4-18.5-18.5-18.5c-11.1,0-18.5,7.4-18.5,18.5v55.5
		C126.4,100.5,133.8,107.9,144.9,107.9z"/>
	<path d="M441.2,52.3h-37v37c0,20.4-16.7,37-37,37c-20.4,0-37-16.7-37-37v-37H181.9v37c0,20.4-16.7,37-37,37s-37-16.7-37-37v-37h-37
		c-31.5,0-55.5,24.1-55.5,55.5v333.3c0,31.5,24.1,55.5,55.5,55.5h370.3c31.5,0,55.5-24.1,55.5-55.5V107.9
		C496.7,76.4,472.6,52.3,441.2,52.3z M459.7,441.2c0,11.1-7.4,18.5-18.5,18.5H70.8c-11.1,0-18.5-7.4-18.5-18.5V163.4h407.3V441.2z"
		/>
	<path d="M367.1,107.9c11.1,0,18.5-7.4,18.5-18.5V33.8c0-11.1-7.4-18.5-18.5-18.5c-11.1,0-18.5,7.4-18.5,18.5v55.5
		C348.6,100.5,356,107.9,367.1,107.9z"/>
</g>
</svg>
