<?xml version="1.0" encoding="utf-8"?>
<!-- Generator: Adobe Illustrator 19.1.0, SVG Export Plug-In . SVG Version: 6.00 Build 0)  -->
<svg version="1.1" id="Layer_1" xmlns="http://www.w3.org/2000/svg" xmlns:xlink="http://www.w3.org/1999/xlink" x="0px" y="0px"
	 width="512px" height="512px" viewBox="0 0 512 512" style="enable-background:new 0 0 512 512;" xml:space="preserve">
<style type="text/css">
	.st0{fill:#010101;}
</style>
<path class="st0" d="M468.7,78.7H43.3C27,78.7,13.8,92,13.8,108.3v295.4c0,16.3,13.3,29.5,29.5,29.5h425.4
	c16.3,0,29.5-13.3,29.5-29.5V108.3C498.2,92,485,78.7,468.7,78.7z M256,282.1L73.2,114.2h365.5L256,282.1z M177,257.6L49.2,371.6
	V140.3L177,257.6z M203.3,281.7l32.2,29.6c5.5,5.4,12.8,8.3,20.6,8.3c7.7,0,15-3,20.6-8.3l32.2-29.6L439,397.8H73L203.3,281.7z
	 M335,257.6l127.8-117.4v231.3L335,257.6z"/>
</svg>
