<?xml version="1.0" encoding="utf-8"?>
<!-- Generator: Adobe Illustrator 19.1.0, SVG Export Plug-In . SVG Version: 6.00 Build 0)  -->
<svg version="1.1" id="Layer_1" xmlns="http://www.w3.org/2000/svg" xmlns:xlink="http://www.w3.org/1999/xlink" x="0px" y="0px"
	 width="512px" height="512px" viewBox="0 0 512 512" style="enable-background:new 0 0 512 512;" xml:space="preserve">
<style type="text/css">
	.st0{fill:#010101;}
</style>
<g>
	<path class="st0" d="M210,263.6c-51.4,27.7-90,95.4-97.4,177.9c-0.7,4.7-4.1,8.1-8.8,8.1H90.9c-4.7,0-8.8,4.1-8.8,8.8v29.1
		c0,4.7,4.1,8.8,8.8,8.8h341c4.7,0,8.8-4.1,8.8-8.8v-29.8c0-4.7-4.1-8.8-8.8-8.8H419c-4.7,0-8.1-3.4-8.8-8.1
		c-7.4-81.8-46-150.2-97.4-177.9c-6.1-3.4-6.1-12.2,0-14.9c51.4-27.1,90-94.7,97.4-177.2c0.7-4.7,4.1-8.1,8.8-8.1h12.9
		c4.7,0,8.8-4.1,8.8-8.8V24.1c0-4.7-4.1-8.8-8.8-8.8H91.7c-4.7,0-8.8,4.1-8.8,8.8v29.8c0,4.7,4.1,8.8,8.8,8.8h12.9
		c4.7,0,8.1,3.4,8.8,8.1c7.4,81.8,46,150.2,97.4,177.9C215.4,252.1,215.4,260.2,210,263.6z M161.3,77.6c-1.4-4.7,1.4-9.5,6.1-10.1
		c5.4-1.4,10.8-1.4,16.2-1.4c20.3,0,39.9,0,60.2,0h17.6H279c20.3,0,39.9,0,60.2,0c5.4,0,11.5,0,16.2,1.4s7.4,6.1,6.1,10.1
		c-11.5,40.6-34.5,77.1-66.3,104.2c-9.5,8.1-19.6,16.2-27.1,25.7c-3.4,4.7-10.1,4.7-13.5,0c-7.4-9.5-17.6-17.6-27.1-25.7
		C195.8,154.7,172.8,118.2,161.3,77.6z M227.6,315.7c9.5-8.1,19.6-16.2,27.1-25.7c3.4-4.7,10.1-4.7,13.5,0
		c6.8,8.8,15.6,15.6,24.4,23c2,2,1.4,5.4-1.4,6.8c-18.3,6.8-36.5,14.9-53.4,25c-19.6,11.5-38.6,23.7-56.8,36.5
		c-1.4,1.4-3.4-0.7-2.7-2.7C190.4,354.9,207.3,333.3,227.6,315.7z"/>
</g>
</svg>
