<?xml version="1.0" encoding="utf-8"?>
<!-- Generator: Adobe Illustrator 19.1.0, SVG Export Plug-In . SVG Version: 6.00 Build 0)  -->
<svg version="1.1" id="Layer_1" xmlns="http://www.w3.org/2000/svg" xmlns:xlink="http://www.w3.org/1999/xlink" x="0px" y="0px"
	 width="512px" height="512px" viewBox="0 0 512 512" style="enable-background:new 0 0 512 512;" xml:space="preserve">
<style type="text/css">
	.st0{fill:#010101;}
</style>
<path class="st0" d="M257.1,14.5c-69.8,0-127.3,57.5-127.3,127.3c0,20.9,17.7,38.7,39.2,38.7c22,0,39.2-17.7,39.2-38.7
	c0-26.9,22-48.9,48.9-48.9c26.3,0,47.8,22,47.8,48.9c0,24.7-10.7,37.1-30.6,59.6c-24.7,25.2-57.5,60.2-57.5,126.8
	c0,22.6,17.7,39.7,39.7,39.7c21.5,0,38.7-17.2,38.7-39.7c0-36,15-52.1,35.5-73.6c23.1-25.2,51.6-55.9,51.6-113.3
	C383.3,72,326.9,14.5,257.1,14.5L257.1,14.5z M257.1,403.4c-26.3,0-47.8,20.4-47.8,47.3c0,26.3,21.5,47.3,47.8,47.3
	c25.2,0,47.3-20.9,47.3-47.3C304.3,424.4,282.8,403.4,257.1,403.4z"/>
</svg>
