<svg xmlns="http://www.w3.org/2000/svg" width="36" height="36" viewBox="0 0 36 36">
    <g fill="none" fill-rule="evenodd" stroke="#848484" stroke-linecap="round" stroke-linejoin="round">
        <path stroke-width=".956" d="M12.156 4.124c2.459 0 4.453 2.177 4.453 4.861 0 2.685-1.994 4.861-4.453 4.861-2.46 0-4.453-2.176-4.453-4.86 0-2.685 1.993-4.862 4.453-4.862zM25.59 2.92c0-.476-.286-.918-.74-1.103A18.025 18.025 0 0 0 18.035.478C8.892.478 1.395 7.2.513 15.798a.988.988 0 0 0 .994 1.086h32.439c.942 0 1.662-.802 1.54-1.705-.103-.763-.774-1.333-1.57-1.333h-3.583c-.533 0-.966-.418-.966-.934s-.433-.934-.966-.934h-1.912c-.538 0-.976-.422-.976-.943 0-.52.438-.943.976-.943h1.677c.663 0 1.2-.52 1.2-1.16 0-.642-.537-1.162-1.2-1.162h-4.234c-1.042 0-1.885-.816-1.885-1.823 0-1.007.843-1.823 1.885-1.823h.412c.688 0 1.246-.539 1.246-1.204z"/>
        <path stroke-width="1.017" d="M28.11 28.186h-1.895c-1.041 0-1.885-.815-1.885-1.822 0-1.007.844-1.824 1.885-1.824h4.346c.732 0 1.324-.573 1.324-1.28 0-.635.533-1.15 1.19-1.15h.862c.81 0 1.487-.595 1.564-1.375.088-.892-.637-1.663-1.564-1.663H1.515a.995.995 0 0 0-1.001 1.09c.883 8.598 8.379 15.316 17.52 15.316 1.016 0 2.01-.089 2.977-.25a.957.957 0 0 0 .8-.939c0-.552-.462-.999-1.032-.999H19.47c-.762 0-1.382-.598-1.382-1.336 0-.739.62-1.337 1.382-1.337h8.639c.694 0 1.257-.544 1.257-1.215 0-.67-.563-1.216-1.257-1.216zM23.696 34.065h1.513M23.998 5.93h1.514M27.016 5.93h3.93M26.868 34.065h4.53M26.113 26.326h4.53M30.493 12.064h4.53"/>
    </g>
</svg>
