<?xml version="1.0" encoding="utf-8"?>
<!-- Generator: Adobe Illustrator 17.0.0, SVG Export Plug-In . SVG Version: 6.00 Build 0)  -->
<!DOCTYPE svg PUBLIC "-//W3C//DTD SVG 1.1//EN" "http://www.w3.org/Graphics/SVG/1.1/DTD/svg11.dtd">
<svg version="1.1" xmlns="http://www.w3.org/2000/svg" xmlns:xlink="http://www.w3.org/1999/xlink" x="0px" y="0px" width="512px"
	 height="512px" viewBox="0 0 512 512" enable-background="new 0 0 512 512" xml:space="preserve">
<g id="Layer_1">
</g>
<g id="Layer_2">
	<g>
		<path d="M485.039,367.166c-4.967-4.138-12.172-6.21-21.619-6.21h-94.834c3.027-4.914,5.995-9.122,8.902-12.614
			c6.78-8.795,19.287-21.154,37.516-37.068c18.226-15.914,31.216-27.588,38.97-35.025c7.75-7.444,15.352-17.73,22.8-30.865
			c7.449-13.127,11.173-27.713,11.173-43.759c0-10.215-1.788-20.082-5.36-29.6c-3.575-9.501-8.571-17.878-14.988-25.128
			c-6.42-7.243-13.869-12.936-22.346-17.077c-13.08-6.21-28.887-9.315-47.417-9.315c-15.384,0-28.795,2.425-40.241,7.277
			c-11.446,4.852-20.892,11.225-28.341,19.116c-7.449,7.894-13.051,16.69-16.804,26.393c-3.757,9.704-5.632,19.019-5.632,27.946
			c0,7.375,1.999,13.197,5.995,17.466c3.997,4.27,9.022,6.404,15.079,6.404c6.904,0,12.14-2.328,15.715-6.987
			c3.572-4.658,6.78-11.318,9.629-19.989c2.845-8.663,4.872-13.974,6.087-15.914c9.084-14.874,21.557-22.317,37.425-22.317
			c7.507,0,14.443,1.817,20.802,5.434c6.358,3.626,11.384,8.702,15.079,15.23c3.692,6.536,5.541,13.949,5.541,22.224
			c0,7.639-1.726,15.425-5.177,23.389c-3.451,7.949-8.481,15.711-15.079,23.289c-6.603,7.561-14.868,15.107-24.799,22.605
			c-5.574,4.013-14.839,12.39-27.796,25.136c-12.961,12.739-27.495,28.039-43.602,45.893c-3.877,4.401-7.449,10.448-10.719,18.149
			c-3.27,7.693-4.905,13.872-4.905,18.53c0,7.25,2.543,13.553,7.63,18.918c5.087,5.371,12.172,8.057,21.256,8.057h133.713
			c7.993,0,13.956-2.197,17.895-6.598c3.935-4.393,5.904-9.766,5.904-16.107C492.487,376.938,490.003,371.311,485.039,367.166z"/>
	</g>
	<ellipse cx="58.663" cy="369.942" rx="36.192" ry="38.225"/>
	<path d="M213.375,117.538c-6.072,0-10.206,1.163-12.4,3.488c-2.198,2.325-6.913,8.525-14.144,18.6
		c-7.235,10.075-15.534,19.181-24.896,27.319c-9.366,8.137-11.523,10.023-27.842,19.543c-10.463,4.914-17.762,8.912-21.893,12.012
		c-4.135,3.1-6.2,7.944-6.2,14.531c0,5.689,2.096,10.687,6.297,15.012c4.197,4.333,9.009,6.495,14.435,6.495
		c11.365,0,23.804-8.882,56.614-34.07V376.78c0,10.338,2.387,18.15,7.168,23.444c4.778,5.294,11.106,7.944,18.988,7.944
		c17.694,0,26.544-12.981,26.544-38.944V147.375c0-9.3-2.069-16.597-6.2-21.893C225.709,120.188,220.218,117.538,213.375,117.538z"
		/>
</g>
</svg>
