<?xml version="1.0" encoding="UTF-8" standalone="no"?>
<svg width="60px" height="60px" viewBox="0 0 60 60" version="1.1" xmlns="http://www.w3.org/2000/svg" xmlns:xlink="http://www.w3.org/1999/xlink">
    <!-- Generator: Sketch 46.2 (44496) - http://www.bohemiancoding.com/sketch -->
    <title>delete</title>
    <desc>Created with Sketch.</desc>
    <defs></defs>
    <g id="Page-1" stroke="none" stroke-width="1" fill="none" fill-rule="evenodd">
        <g id="delete" fill="#183247">
            <path d="M49.1666663,15.1142857 C49.1666663,15.1142857 49.1666663,52.2142857 49.1666663,52.2142857 C49.1666663,54.3050789 47.4504062,56 45.3333327,56 C45.3333327,56 14.6666673,56 14.6666673,56 C12.5495746,56 10.8333337,54.3050789 10.8333337,52.2142857 C10.8333337,52.2142857 10.8333337,15.1142857 10.8333337,15.1142857 C10.8333337,15.1142857 9.30000019,15.1142857 9.30000019,15.1142857 C8.02974842,15.1142857 7,14.0973293 7,12.8428571 C7,11.588385 8.02974842,10.5714286 9.30000019,10.5714286 C9.30000019,10.5714286 18.500001,10.5714286 18.500001,10.5714286 C18.500001,10.5714286 18.500001,6.78571429 18.500001,6.78571429 C18.500001,4.69494 20.2162419,3 22.3333346,3 C22.3333346,3 37.6666692,3 37.6666692,3 C39.7837772,3 41.499999,4.69494 41.499999,6.78571429 C41.499999,6.78571429 41.499999,10.5714286 41.499999,10.5714286 C41.499999,10.5714286 50.6999998,10.5714286 50.6999998,10.5714286 C51.9702516,10.5714286 53,11.588385 53,12.8428571 C53,14.0973293 51.9702516,15.1142857 50.6999998,15.1142857 C50.6999998,15.1142857 49.1666663,15.1142857 49.1666663,15.1142857 Z M15.433334,15.1142857 C15.433334,15.1142857 15.433334,51.4571429 15.433334,51.4571429 C15.433334,51.4571429 44.566666,51.4571429 44.566666,51.4571429 C44.566666,51.4571429 44.566666,15.1142857 44.566666,15.1142857 C44.566666,15.1142857 15.433334,15.1142857 15.433334,15.1142857 Z M36.1333358,20.0357143 C37.4035914,20.0357143 38.433336,21.0526707 38.433336,22.3071429 C38.433336,22.3071429 38.433336,44.2642857 38.433336,44.2642857 C38.433336,45.5187616 37.4035914,46.5357143 36.1333358,46.5357143 C34.8630802,46.5357143 33.8333356,45.5187616 33.8333356,44.2642857 C33.8333356,44.2642857 33.8333356,22.3071429 33.8333356,22.3071429 C33.8333356,21.0526707 34.8630802,20.0357143 36.1333358,20.0357143 Z M24.6333348,20.0357143 C25.9035904,20.0357143 26.933335,21.0526707 26.933335,22.3071429 C26.933335,22.3071429 26.933335,44.2642857 26.933335,44.2642857 C26.933335,45.5187616 25.9035904,46.5357143 24.6333348,46.5357143 C23.3630792,46.5357143 22.3333346,45.5187616 22.3333346,44.2642857 C22.3333346,44.2642857 22.3333346,22.3071429 22.3333346,22.3071429 C22.3333346,21.0526707 23.3630792,20.0357143 24.6333348,20.0357143 Z M23.1000013,10.5714286 C23.1000013,10.5714286 36.9000025,10.5714286 36.9000025,10.5714286 C36.9000025,10.5714286 36.9000025,7.54285714 36.9000025,7.54285714 C36.9000025,7.54285714 23.1000013,7.54285714 23.1000013,7.54285714 C23.1000013,7.54285714 23.1000013,10.5714286 23.1000013,10.5714286 Z"></path>
        </g>
    </g>
</svg>