<?xml version="1.0" encoding="utf-8"?>
<!-- Generator: Adobe Illustrator 18.1.1, SVG Export Plug-In . SVG Version: 6.00 Build 0)  -->
<svg version="1.1" id="Layer_1" xmlns="http://www.w3.org/2000/svg" xmlns:xlink="http://www.w3.org/1999/xlink" x="0px" y="0px"
	 width="512px" height="512px" viewBox="0 0 512 512" enable-background="new 0 0 512 512" xml:space="preserve">
<g>
	<path d="M370,222.1V136h24.2c2.4,0,4.2-0.8,5.7-2.2s2.1-3.5,2.1-5.8v-16c0-2.4-0.6-4.2-2.1-5.8c-1.5-1.5-3.4-2.2-5.7-2.2h-77.4
		l-17.5-41.9c-2.5-6.2-7-11.4-13.5-15.7c-6.5-4.3-13.1-6.4-19.8-6.4h-80.3c-6.7,0-13.3,2-19.8,6.3c-6.5,4.4-11,9.6-13.5,15.8
		L134.9,104H57.5c-2.4,0-4.5,0.7-6,2.2s-2.5,3.4-2.5,5.7v16c0,2.4,1,4.3,2.5,5.8s3.7,2.3,6,2.3H81v238.6c0,13.9,4.2,25.8,12,35.6
		c7.8,9.8,17.6,14.8,28.6,14.8H249c-1.3-1.6-2.6-3.2-3.9-4.9c22.7,28.9,58,47.4,97.6,47.4c68.6,0,124.2-55.6,124.2-124.2
		C467,284.1,425.5,234.5,370,222.1z M342.7,219C342.7,219,342.7,219,342.7,219c-0.8,0-1.6,0-2.4,0C341.1,219,341.9,219,342.7,219z
		 M182,74.8c1.2-1.5,2.6-2.8,4.3-2.8h79.4c1.7,0,3.1,1.2,4.3,2.8l12,29.2H169.8L182,74.8z M242,270.7v-78.6c0-2.3-0.8-4.3-2.3-5.8
		s-3.5-2.3-5.8-2.3h-16c-2.4,0-4.2,0.8-5.7,2.3s-2.2,3.5-2.2,5.8v144.3c0,2.4,0.7,4.5,2.2,6s3.3,2.5,5.7,2.5h0.8c0-0.2,0-0.3,0-0.4
		c0.2,20.7,5.5,40.2,14.6,57.3c-1.6-3-3.2-5.9-4.5-8.9H121.6c-0.5,0-1.3-1-2.6-2.4c-1.2-1.5-2.2-3.8-3.4-6.9
		c-1.2-3-1.6-6.5-1.6-10.2V136h224v83.2c0.2,0,0.3,0,0.4,0c-11.8,0.4-23.1,2.5-33.9,5.9c0.5-0.2,1-0.3,1.4-0.5v-32.5
		c0-2.3-0.8-4.2-2.2-5.8c-1.5-1.5-3.5-2.3-5.8-2.3h-16c-2.4,0-4.2,0.8-5.8,2.3s-2.3,3.5-2.3,5.8v47.8
		C261.6,248.2,250.7,258.6,242,270.7z M230.8,289.5c-1.3,2.6-2.4,5.3-3.5,8C228.4,294.8,229.6,292.1,230.8,289.5z M342.8,439.9
		c-53.3,0-96.6-43.2-96.6-96.6s43.2-96.6,96.6-96.6s96.6,43.2,96.6,96.6S396.1,439.9,342.8,439.9z"/>
	<path d="M169.7,184h-16c-2.4,0-4.1,0.8-5.6,2.3s-2.1,3.5-2.1,5.8v144.3c0,2.4,0.6,4.5,2.1,6s3.3,2.5,5.6,2.5h16
		c2.4,0,4.4-1,5.9-2.5s2.4-3.8,2.4-6V192.1c0-2.3-0.9-4.3-2.4-5.8S172,184,169.7,184z"/>
	<polygon points="324.9,362.2 295.6,331.8 280.7,347.7 324.2,393.9 324.7,393.4 404.9,309.1 389.5,292.8 	"/>
</g>
</svg>
