<?xml version="1.0" encoding="utf-8"?>
<!-- Generated by IcoMoon.io -->
<!DOCTYPE svg PUBLIC "-//W3C//DTD SVG 1.1//EN" "http://www.w3.org/Graphics/SVG/1.1/DTD/svg11.dtd">
<svg version="1.1" xmlns="http://www.w3.org/2000/svg" xmlns:xlink="http://www.w3.org/1999/xlink" width="31" height="32" viewBox="0 0 31 32">
<g id="icomoon-ignore">
	<line stroke-width="1" x1="" y1="" x2="" y2="" stroke="#449FDB" opacity=""></line>
</g>
	<path d="M16.438 2.125c8.063 0.438 14.438 5.938 14.438 12.688 0 6.313-5.813 12.313-14.438 12.688v-3.438c1.625-0.563 2.75-2.125 2.75-3.938s-1.125-3.313-2.75-3.875v-2.5c1.625-0.563 2.75-2.063 2.75-3.875s-1.125-3.313-2.75-3.875v-3.875zM14.875 24.313v0 3.188c-1.625-0.063-3.313-0.313-5.125-0.813l-8.813 2.813 2.188-7c-1.938-1.938-3.125-4.688-3.125-7.688 0-6.875 6.625-12.438 14.875-12.688v5.5c0.063 0 0.125-0.063 0.188-0.063 1.25 0 2.313 1.063 2.313 2.313s-1.063 2.313-2.313 2.313h-0.188v5.688h0.188c1.25 0 2.313 1 2.313 2.25s-1.063 2.313-2.313 2.313h-0.188v1.875z" fill="#000000"></path>
</svg>
