<?xml version="1.0" encoding="utf-8"?>
<!-- Generator: Adobe Illustrator 17.0.0, SVG Export Plug-In . SVG Version: 6.00 Build 0)  -->
<!DOCTYPE svg PUBLIC "-//W3C//DTD SVG 1.1//EN" "http://www.w3.org/Graphics/SVG/1.1/DTD/svg11.dtd">
<svg version="1.1" id="Layer_1" xmlns="http://www.w3.org/2000/svg" xmlns:xlink="http://www.w3.org/1999/xlink" x="0px" y="0px"
	 width="512px" height="512px" viewBox="0 0 512 512" enable-background="new 0 0 512 512" xml:space="preserve">
<path fill="#010101" d="M138.6,14h36.2c17.3,0,34.6,2,51.4,6.1c17.2,4.1,37.4,10.3,60.1,18.2c29.7,10.2,37.5,11.6,41.2,11.6h80.9
	c7.9,0,14.4,2.7,20,8.3c5.6,5.6,8.3,12.1,8.3,20v179.7c0,7.9-2.7,14.4-8.3,20s-12.1,8.3-20,8.3h-79.3l-1.9,1.3
	c-4.8,3.2-14.2,11.4-40.3,45.2c-10.7,13.8-20.6,25.7-29.6,35.4c-5.6,5.8-9.5,14.9-11.9,27.8c-2.1,11-4.9,22.7-8.4,34.8
	c-3.2,11-8.4,20-15.4,26.9c-5.8,5.5-12.3,8.2-19.9,8.2c-14.4,0-27.6-2.8-39-8.3c-11.1-5.4-19.3-13.6-25.1-25.1
	c-6-11.7-9-28.1-9-48.7c0-16.2,4.3-33.2,12.7-50.6l5.4-11H85c-17.5,0-32.3-6.3-45-19c-12.9-12.8-19.1-27.5-19.1-44.8v-1.1
	c0.2-14.7,4.4-28.3,12.5-40.5l1.9-2.9l-0.9-3.4c-1.5-5.4-2.3-11.3-2.3-17.3c0-13,3.3-25.3,9.7-36.6l1.3-2.3l-0.4-2.6
	c-0.5-3.6-0.8-7.3-0.8-11c0-17.4,5-32.2,15.2-45.3l1.6-2.1v-2.7c-0.2-24,6.8-42.3,21.4-56C94.9,20.7,114,14,138.6,14L138.6,14z
	 M68.2,116.3c-3.8,7.8-5.7,15.9-5.7,23.9c0,6.3,1.2,12.3,3.5,17.9c-8.8,10-13.3,21.7-13.3,34.9c0,5.5,1.1,11.5,3.2,18
	c0.8,2.6,1.8,4.9,2.8,7.1c-4.1,3-7.6,7.6-10.5,13.8c-4.6,9.7-6.8,18.2-6.8,26c0,11.6,4.4,21.9,13.2,30.6c8.8,8.6,19,13,30.4,13h90.1
	c-1.6,8.9-5.6,20.2-12,33.8c-9.6,20.2-14.2,36-14.2,48.3c0,20.1,3.4,34.8,10.3,45c7.5,11,21.7,16.6,42.3,16.6h3.2l2.3-2.3
	c6-6,10.2-15.1,12.8-27.8c2.2-10.8,5-22.5,8.4-34.7c3.1-11.2,8.1-20.4,14.9-27.5c4.3-4.5,11.5-13.1,22.1-26.1c0.8-1,3-3.8,6.6-8.6
	c3.6-4.6,6.5-8.5,8.8-11.4c2.2-2.9,5.4-6.9,9.5-11.8c4-4.7,7.5-8.6,10.7-11.7c3.2-3.2,6.8-6.4,10.5-9.7c3.3-2.9,6.5-5,9.4-6.4
	c2.6-1.2,4.8-1.8,6.7-1.8h16.7v-195h-16.7c-2,0-4.6-0.2-7.6-0.7c-3.3-0.5-6.2-1.1-8.7-1.7s-5.9-1.6-10.1-2.9
	c-4.3-1.4-7.5-2.5-9.6-3.2s-5.4-1.9-9.9-3.5c-5.7-2-7.3-2.6-7.8-2.8l-0.2-0.1l-0.2-0.1c-40.1-13.9-73.2-20.9-98.5-20.9h-34
	c-50.9,0-61.6,29.7-61.6,54.6c0,3.8,0.3,7.8,0.8,12C75.1,104.8,71.1,109.9,68.2,116.3z M390.4,121.8c7,0,13.1-2.5,18.1-7.6
	c5-5,7.6-11.2,7.6-18.1S413.5,83,408.5,78s-11.1-7.6-18.1-7.6c-6.8,0-13.1,2.6-18,7.6c-5.1,5.1-7.6,11.2-7.6,18.1s2.6,13.1,7.6,18.1
	C377.3,119.2,383.5,121.8,390.4,121.8L390.4,121.8z"/>
</svg>
