<?xml version="1.0" encoding="utf-8"?>
<!-- Generator: Adobe Illustrator 18.0.0, SVG Export Plug-In . SVG Version: 6.00 Build 0)  -->
<!DOCTYPE svg PUBLIC "-//W3C//DTD SVG 1.1//EN" "http://www.w3.org/Graphics/SVG/1.1/DTD/svg11.dtd">
<svg version="1.1" id="Layer_1" xmlns="http://www.w3.org/2000/svg" xmlns:xlink="http://www.w3.org/1999/xlink" x="0px" y="0px"
	 viewBox="0 0 512 512" enable-background="new 0 0 512 512" xml:space="preserve">
<g>
	<g display="none">
		<path display="inline" d="M165.1,101.7l12.2-20.5c0.2-0.4,0.6-0.6,0.8-0.6c0.3,0,0.5,0.3,0.6,0.8l5,23.3l22.9,3.8
			c1,0.2,1.2,0.8,0.4,1.3l-21,11.6l6.8,23c0.1,0.7-0.1,1-0.5,1c-0.2,0-0.4-0.1-0.6-0.3l-21.5-16.7l-24.2,9.2
			c-0.3,0.1-0.5,0.1-0.7,0.1c-0.5-0.1-0.6-0.5-0.2-1.1l12.5-19.8l-17.5-17.9c-0.6-0.8-0.2-1.3,0.8-1.1L165.1,101.7z"/>
		<path display="inline" d="M274.5,55.2l8.2-13.8c0.2-0.3,0.4-0.4,0.6-0.4c0.2,0,0.3,0.2,0.4,0.5l3.4,15.7l15.5,2.5
			c0.7,0.1,0.8,0.5,0.2,0.9l-14.1,7.8l4.6,15.5c0.1,0.5-0.1,0.7-0.3,0.7c-0.1,0-0.3-0.1-0.4-0.2l-14.5-11.2l-16.3,6.2
			c-0.2,0-0.4,0.1-0.5,0c-0.3,0-0.4-0.3-0.1-0.7l8.4-13.4l-11.8-12.1c-0.4-0.5-0.2-0.9,0.5-0.8L274.5,55.2z"/>
		<path display="inline" d="M9.6,393.9L27,411.3c4.8,4.8,13.4,4,19.1-1.7l265.5-265.5c5.7-5.7,6.4-14.3,1.6-19.1l-17.4-17.4
			c-2.4-2.4-5.7-3.4-9.2-3.1c-3.4,0.3-7,1.9-9.9,4.7L11.2,374.8C5.5,380.5,4.8,389.1,9.6,393.9z M214.4,194.9l70.5-70.5l11.6,11.6
			L226,206.5L214.4,194.9z"/>
	</g>
	<g>
		<path d="M500,204.8H308.6c-3.4,0-6.1,2.7-6.1,6.1v17.9c0.1,0.3,0.2,0.6,0.2,0.9v115.9h5.9v0.5H500v-0.5h6.1V210.9
			C506.1,207.6,503.4,204.8,500,204.8z"/>
		<path d="M294.4,377.7c-3.5-9-10.9-16.2-20.3-19.1c-3.1-1-6.3-1.5-9.7-1.5c-3.4,0-6.7,0.5-9.7,1.5c-9.3,3-16.8,10.1-20.2,19.1
			c-0.7,2-1.3,4-1.7,6.1c-0.3,1.7-0.5,3.5-0.5,5.3c0,0.3,0,0.5,0,0.7c0.4,17.4,14.6,31.4,32.1,31.4s31.7-14,32.1-31.4
			c0-0.2,0-0.5,0-0.7c0-1.8-0.2-3.6-0.5-5.3C295.7,381.7,295.1,379.6,294.4,377.7z M277.8,389.9c-0.4,7.1-6.2,12.7-13.4,12.7
			c-7.2,0-13-5.6-13.4-12.7c0-0.2-0.1-0.5-0.1-0.7c0-1.9,0.4-3.7,1.1-5.3c1.1-2.6,3-4.7,5.4-6.1c2-1.2,4.4-2,6.9-2
			c2.5,0,4.9,0.8,6.9,2c2.4,1.5,4.3,3.6,5.4,6.1c0.7,1.7,1.1,3.4,1.1,5.3C277.8,389.4,277.8,389.7,277.8,389.9z"/>
		<path d="M408.5,358.6c2.1-1.8,4.4-3.4,6.8-4.7H298.6c-1,0-1.8-0.4-2.5-1c0-0.2,0-0.3,0-0.4h-0.5c-0.7-0.7-1.1-1.7-1.1-2.7v-3.4
			v-97c-1.1-1.3-2.7-2.1-4.5-2.1h-49.1c-1.3,0-2.6,0.4-3.7,1.3c-1,0.8-24.3,19-24.3,54.3v45.6c-1,1.1-1.6,2.5-1.6,4.1v31.4
			c0,3.4,2.7,6.1,6.1,6.1h6.7c0-0.2,0-0.5,0-0.7c0-1.8,0.2-3.6,0.4-5.3c0.3-2.1,0.7-4.1,1.3-6.1c2.2-7.5,6.6-14.1,12.5-19.1
			c2.9-2.5,6.1-4.5,9.7-6.1c2.6-1.2,5.4-2.1,8.2-2.7c2.6-0.6,5.4-0.9,8.2-0.9c2.8,0,5.6,0.3,8.2,0.9c2.9,0.6,5.6,1.5,8.2,2.7
			c3.5,1.6,6.7,3.6,9.6,6.1c-0.2,0-0.3,0.1-0.4,0.1h0.5c5.8,5,10.2,11.6,12.5,19.1c0.6,2,1,4,1.3,6.1c0.2,1.8,0.4,3.5,0.4,5.3
			c0,0.3,0,0.5,0,0.7h89.7c0-0.2,0-0.5,0-0.7c0-1.8,0.2-3.6,0.4-5.3c0.3-2.1,0.7-4.1,1.3-6.1C398.2,370.2,402.6,363.5,408.5,358.6z
			 M283.9,295.2h-58.3c2.4-20,13.5-32,17.6-35.7h40.7L283.9,295.2L283.9,295.2z"/>
		<path d="M464.5,377.7c-3.5-9-10.9-16.2-20.2-19.1c-3.1-1-6.3-1.5-9.7-1.5c-3.4,0-6.6,0.5-9.7,1.5c-9.3,3-16.8,10.1-20.3,19.1
			c-0.7,2-1.3,4-1.7,6.1c-0.3,1.7-0.5,3.5-0.5,5.3c0,0.3,0,0.5,0,0.7c0.4,17.4,14.6,31.4,32.1,31.4c17.5,0,31.7-14,32.1-31.4
			c0-0.2,0-0.5,0-0.7c0-1.8-0.2-3.6-0.5-5.3C465.8,381.7,465.3,379.6,464.5,377.7z M447.9,389.9c-0.4,7.1-6.2,12.7-13.4,12.7
			c-7.2,0-13-5.6-13.4-12.7c0-0.2-0.1-0.5-0.1-0.7c0-1.9,0.4-3.7,1.1-5.3c1.1-2.6,3-4.7,5.4-6.1c2-1.2,4.4-2,6.9-2
			c2.6,0,4.9,0.8,6.9,2c2.4,1.5,4.3,3.6,5.4,6.1c0.7,1.7,1.1,3.4,1.1,5.3C448,389.4,447.9,389.7,447.9,389.9z"/>
		<path d="M450.6,352.3c0.1,0.1,0.3,0.1,0.4,0.2c0.9,0.4,1.9,0.9,2.8,1.4c2.4,1.3,4.7,2.9,6.8,4.7c5.8,5,10.2,11.6,12.5,19.1
			c0.6,2,1,4,1.3,6.1c0.2,1.8,0.4,3.5,0.4,5.3c0,0.3,0,0.5,0,0.7h12.9c3.4,0,6.1-2.7,6.1-6.1v-30v-1.4c0-0.1,0-0.1,0-0.2
			L450.6,352.3L450.6,352.3z"/>
	</g>
</g>
<g>
	<path fill="#231F20" d="M113.1,87.9l12.7-21.4c0.3-0.4,0.6-0.6,0.8-0.6c0.3,0.1,0.5,0.3,0.6,0.8l5.2,24.3l24,3.9
		c1.1,0.2,1.2,0.8,0.3,1.4l-21.9,12.2l7.2,24c0.2,0.7-0.1,1-0.5,1c-0.2,0-0.4-0.2-0.7-0.3l-22.4-17.4l-25.3,9.6
		c-0.3,0.1-0.5,0.1-0.7,0.1c-0.5-0.1-0.6-0.5-0.3-1.1l13-20.7L86.9,85.1c-0.6-0.8-0.3-1.4,0.8-1.2L113.1,87.9z"/>
	<path fill="#231F20" d="M227.2,39.5l8.5-14.4c0.2-0.3,0.4-0.4,0.6-0.4s0.3,0.2,0.4,0.5l3.5,16.4l16.1,2.6c0.7,0.2,0.9,0.5,0.3,1
		l-14.8,8.1l4.8,16.2c0.1,0.5-0.1,0.7-0.3,0.7c-0.1,0-0.3-0.1-0.4-0.2l-15-11.7l-17.1,6.5c-0.3,0-0.3,0.1-0.4,0
		c-0.3,0-0.3-0.3-0.2-0.8l8.7-14l-12.3-12.6c-0.4-0.5-0.2-1,0.5-0.8L227.2,39.5z"/>
	<path fill="#231F20" d="M18,352.8l23.7,23.7c6.6,6.6,18.2,5.5,25.9-2.2l243.7-243.6c7.9-7.9,8.8-19.5,2.2-25.9l-23.7-23.7
		c-3.3-3.3-7.9-4.6-12.6-4.2c-4.7,0.3-9.6,2.5-13.5,6.4L20.2,326.9C12.5,334.6,11.6,346.4,18,352.8z M181.9,197l96-96l15.9,15.9
		l-96.2,96L181.9,197z"/>
</g>
</svg>
