<?xml version="1.0" encoding="utf-8"?>
<!-- Generated by IcoMoon.io -->
<!DOCTYPE svg PUBLIC "-//W3C//DTD SVG 1.1//EN" "http://www.w3.org/Graphics/SVG/1.1/DTD/svg11.dtd">
<svg version="1.1" xmlns="http://www.w3.org/2000/svg" xmlns:xlink="http://www.w3.org/1999/xlink" width="512" height="512" viewBox="0 0 512 512">
<g>
</g>
	<path d="M256 10.214c-135.526 0-245.76 110.285-245.76 245.786 0 135.526 110.234 245.786 245.76 245.786s245.76-110.259 245.76-245.786c0-135.501-110.233-245.786-245.76-245.786zM465.613 256c0 47.949-16.281 92.185-43.418 127.514-7.68-6.016-15.821-22.221-8.141-39.014 7.731-16.896 9.753-56.013 7.987-71.219-1.69-15.207-9.6-51.865-31.104-52.224-21.427-0.333-36.147-7.399-48.896-32.845-26.445-52.915 49.639-63.104 23.194-92.416-7.399-8.218-45.645 33.894-51.251-22.221-0.384-4.019 3.456-10.035 8.576-16.256 83.046 27.904 143.053 106.394 143.053 198.681zM227.2 48.486c-4.992 9.728-18.227 13.721-26.291 21.069-17.485 15.821-25.011 13.645-34.458 28.851-9.472 15.207-40.090 37.094-40.090 48.102 0 10.982 15.462 23.987 23.194 21.453 7.731-2.56 28.109-2.406 40.089 1.792 12.006 4.25 100.224 8.474 72.089 83.047-8.909 23.705-47.923 19.712-58.317 58.983-1.561 5.76-6.938 30.361-7.322 38.4-0.614 12.442 8.806 59.341-3.2 59.341-12.058 0-44.467-41.959-44.467-49.562s-8.423-34.279-8.423-57.088-38.835-22.451-38.835-52.787c0-27.392 21.069-41.011 16.333-54.093-4.659-13.056-41.651-13.517-57.063-15.104 26.931-69.939 90.343-121.856 166.758-132.403zM190.080 454.912c12.595-6.63 13.875-15.232 25.293-15.693 13.056-0.563 23.68-5.094 38.374-8.32 13.082-2.841 36.429-16.103 57.037-17.792 17.331-1.433 51.584 0.896 60.8 17.639-33.178 22.016-72.909 34.867-115.584 34.867-23.040 0-45.184-3.789-65.92-10.701z" fill="#000000" />
</svg>
