<?xml version="1.0" encoding="utf-8"?>
<!-- Generator: Adobe Illustrator 17.0.0, SVG Export Plug-In . SVG Version: 6.00 Build 0)  -->
<!DOCTYPE svg PUBLIC "-//W3C//DTD SVG 1.1//EN" "http://www.w3.org/Graphics/SVG/1.1/DTD/svg11.dtd">
<svg version="1.1" xmlns="http://www.w3.org/2000/svg" xmlns:xlink="http://www.w3.org/1999/xlink" x="0px" y="0px" width="512px"
	 height="512px" viewBox="0 0 512 512" enable-background="new 0 0 512 512" xml:space="preserve">
<g id="Layer_1" display="none">
	<g id="svgGrid" display="inline">
		<line fill="none" stroke="#B35047" x1="32" y1="0" x2="32" y2="512"/>
		<line fill="none" stroke="#B35047" x1="64" y1="0" x2="64" y2="512"/>
		<line fill="none" stroke="#B35047" x1="96" y1="0" x2="96" y2="512"/>
		<line fill="none" stroke="#B35047" x1="128" y1="0" x2="128" y2="512"/>
		<line fill="none" stroke="#B35047" x1="160" y1="0" x2="160" y2="512"/>
		<line fill="none" stroke="#B35047" x1="192" y1="0" x2="192" y2="512"/>
		<line fill="none" stroke="#B35047" x1="224" y1="0" x2="224" y2="512"/>
		<line fill="none" stroke="#B35047" x1="256" y1="0" x2="256" y2="512"/>
		<line fill="none" stroke="#B35047" x1="288" y1="0" x2="288" y2="512"/>
		<line fill="none" stroke="#B35047" x1="320" y1="0" x2="320" y2="512"/>
		<line fill="none" stroke="#B35047" x1="352" y1="0" x2="352" y2="512"/>
		<line fill="none" stroke="#B35047" x1="384" y1="0" x2="384" y2="512"/>
		<line fill="none" stroke="#B35047" x1="416" y1="0" x2="416" y2="512"/>
		<line fill="none" stroke="#B35047" x1="448" y1="0" x2="448" y2="512"/>
		<line fill="none" stroke="#B35047" x1="480" y1="0" x2="480" y2="512"/>
		<line fill="none" stroke="#B35047" x1="0" y1="32" x2="512" y2="32"/>
		<line fill="none" stroke="#B35047" x1="0" y1="64" x2="512" y2="64"/>
		<line fill="none" stroke="#B35047" x1="0" y1="96" x2="512" y2="96"/>
		<line fill="none" stroke="#B35047" x1="0" y1="128" x2="512" y2="128"/>
		<line fill="none" stroke="#B35047" x1="0" y1="160" x2="512" y2="160"/>
		<line fill="none" stroke="#B35047" x1="0" y1="192" x2="512" y2="192"/>
		<line fill="none" stroke="#B35047" x1="0" y1="224" x2="512" y2="224"/>
		<line fill="none" stroke="#B35047" x1="0" y1="256" x2="512" y2="256"/>
		<line fill="none" stroke="#B35047" x1="0" y1="288" x2="512" y2="288"/>
		<line fill="none" stroke="#B35047" x1="0" y1="320" x2="512" y2="320"/>
		<line fill="none" stroke="#B35047" x1="0" y1="352" x2="512" y2="352"/>
		<line fill="none" stroke="#B35047" x1="0" y1="384" x2="512" y2="384"/>
		<line fill="none" stroke="#B35047" x1="0" y1="416" x2="512" y2="416"/>
		<line fill="none" stroke="#B35047" x1="0" y1="448" x2="512" y2="448"/>
		<line fill="none" stroke="#B35047" x1="0" y1="480" x2="512" y2="480"/>
		<rect fill="none" stroke="#B35047" width="512" height="512"/>
	</g>
</g>
<g id="Layer_3">
	<g>
		<path d="M478.198,154.14c-12.135-2.108-24.36-3.716-36.56-5.465c-51.895-7.44-103.801-14.829-155.695-22.273
			c-52.619-7.55-105.231-15.132-157.843-22.726c-5.447-0.787-12.636-0.002-15.819-3.125c-3.385-3.325-2.965-10.433-4.201-15.891
			c-0.161-0.711-0.264-1.433-0.426-2.142c-3.817-16.877-14.201-27.996-30.62-33.555c-4.667-1.58-9.133-2.829-12.775-6.659
			c-1.875-1.972-5.603-3.005-8.531-3.082c-12.504-0.337-25.039-0.564-37.528-0.035c-9.796,0.417-16.404,7.888-16.077,16.71
			c0.337,9.117,7.711,16,17.498,16.088c11.42,0.106,22.868,0.46,34.248-0.198c4.24-0.247,8.774-2.417,12.334-4.892
			c2.483-1.726,4.181-2.263,6.784-1.21c10.932,4.416,16.232,12.726,18.335,23.986c13.872,74.353,27.929,148.67,42.002,222.985
			c2.051,10.822,7.57,19.779,15.311,25.984c0,0-0.015,0.008-0.024,0.012c-13.005,5.64-20.885,19.88-21.011,32.888
			c-0.093,8.167,3.308,16.828,10.605,22.991c7.207,6.134,17.563,9.37,30.101,9.37h31.19c-14.504,4.592-25.107,17.814-25.107,33.716
			c0,19.635,16.094,35.509,35.963,35.509c19.837,0,35.932-15.998,35.932-35.509c0-15.779-10.603-29.001-25.11-33.592h17.187
			c24.017,0,51.31,0.124,77.73,0.124c18.4,0,50.289,0.123,66.509,0.123l15.845,0.122c-13.912,4.807-24.017,17.815-24.017,33.224
			c0,19.635,16.221,35.509,35.931,35.509c19.87,0,35.964-15.874,35.964-35.509c0-15.286-9.885-28.292-23.767-33.224h15.846
			c5.958,0,9.387,0,9.387,0h1.934c5.491,0,9.889-4.344,9.889-9.646c0-5.271-4.397-9.616-9.764-9.616
			c0,0-239.748-0.616-279.578-0.616c-9.388,0-14.628-2.282-17.312-4.687c-2.681-2.402-3.772-5.052-3.772-8.288
			c-0.125-5.301,3.523-11.466,8.763-13.501c4.669-1.929,12.707-6.827,16.302-10.23c1.34,0.053,2.645,0.224,4.018,0.163
			c45.776-2.049,91.548-4.217,137.319-6.338c0,0.01,0,0.018,0,0.028c19.667-0.931,39.334-1.855,59.001-2.789
			c29.777-1.417,59.584-2.406,89.322-4.401c20.44-1.374,36.172-18.193,37.829-38.443c2.726-33.353,5.482-66.703,8.391-100.042
			C511.826,176.611,497.56,157.503,478.198,154.14z M436.302,437.252c0,13.576-11.138,24.583-24.878,24.583
			c-13.741,0-24.878-11.007-24.878-24.583c0-13.578,11.138-24.583,24.878-24.583C425.163,412.669,436.302,423.674,436.302,437.252z
			 M236.209,437.252c0,13.576-11.138,24.583-24.879,24.583c-13.74,0-24.877-11.007-24.877-24.583
			c0-13.578,11.137-24.583,24.877-24.583C225.07,412.669,236.209,423.674,236.209,437.252z M342.028,151.907
			c0.968,10.883,1.912,21.488,2.892,32.516c-20.879,0-41.205,0-62.041,0c-1.985-13.834-3.912-27.292-5.995-41.824
			C298.932,145.75,320.281,148.8,342.028,151.907z M239.189,137.109c5.457,0.785,10.936,1.467,16.331,2.562
			c1.385,0.281,3.389,1.806,3.575,2.995c2.154,13.792,4.014,27.63,6.002,41.818c-21.107,0-41.824,0-62.927,0
			c-3.279-17.746-6.54-35.39-9.992-54.072C208.345,132.714,223.768,134.898,239.189,137.109z M114.603,119.287
			c11.065,1.539,21.539,2.981,32.01,4.455c7.463,1.051,14.904,2.285,22.388,3.156c3.655,0.427,5.182,1.87,5.821,5.631
			c2.919,17.187,6.234,34.31,9.487,51.883c-19.125,0-37.961,0-57.408,0C122.813,162.766,118.776,141.383,114.603,119.287z
			 M140.525,256.501c-3.391-17.884-6.762-35.672-10.22-53.916c19.061,0,37.869,0,57.303,0c3.284,17.73,6.609,35.685,9.985,53.916
			C178.469,256.501,159.741,256.501,140.525,256.501z M203.975,329.38c-9.173,0.5-18.344,1.15-27.524,1.365
			c-12.334,0.289-22.677-7.406-25.396-19.285c-2.551-11.141-4.389-22.443-6.514-33.679c-0.193-1.025-0.191-2.088-0.307-3.428
			c18.803,0,37.323,0,56.571,0c3.316,17.819,6.657,35.759,10.121,54.376C208.501,328.963,206.242,329.257,203.975,329.38z
			 M205.476,202.545c20.732,0,41.205,0,62.263,0c2.541,17.821,5.093,35.699,7.693,53.918c-20.334,0-39.968,0-60.001,0
			C212.132,238.587,208.842,220.777,205.476,202.545z M228.502,328.275c-3.257-18.111-6.429-35.731-9.679-53.785
			c19.719,0,39.236,0,59.243,0c2.439,17.105,4.814,33.774,7.294,51.155C265.973,326.543,247.162,327.413,228.502,328.275z
			 M285.489,202.437c20.676,0,40.638,0,61.073,0c1.629,18.305,3.2,35.978,4.802,53.984c-19.563,0-38.599,0-58.179,0
			C290.627,238.473,288.081,220.616,285.489,202.437z M303.053,324.845c-2.45-16.907-4.831-33.355-7.287-50.306
			c19.131,0,37.905,0,57.203,0c1.393,15.718,2.781,31.377,4.237,47.798C339.052,323.176,321.349,323.997,303.053,324.845z
			 M359.923,154.532c22.199,3.176,43.577,6.234,65.531,9.377c0,7.202,0,13.683,0,20.529c-20.879,0-41.568,0-62.821,0
			C361.752,174.701,360.878,165.057,359.923,154.532z M364.185,202.43c20.987,0,40.974,0,61.527,0c0,18.003,0,35.743,0,53.884
			c-18.445,0-37.273,0-56.692,0C367.424,238.534,365.826,220.713,364.185,202.43z M426.314,319.159
			c-17.172,0.783-34.133,1.557-51.522,2.35c-1.42-16.118-2.769-31.42-4.151-47.101c18.785,0,36.928,0,55.672,0
			C426.314,289.444,426.314,303.946,426.314,319.159z M443.511,166.469c10.807,1.629,21.357,2.938,31.783,4.882
			c7.645,1.424,12.46,6.033,14.973,13.111c-15.565,0-31.014,0-46.756,0C443.511,178.407,443.511,172.689,443.511,166.469z
			 M483.483,299.008c-1.885,10.168-11.802,17.851-23.1,18.61c-5.119,0.346-10.28,0.059-16.101,0.059c0-14.387,0-28.662,0-43.268
			c13.888,0,27.569,0,41.79,0C485.231,282.853,484.959,291.04,483.483,299.008z M487.417,256.471c-14.651,0-28.728,0-43.488,0
			c0-18.076,0-35.916,0-54.037c15.557,0,31.29,0,47.975,0C490.387,220.697,488.908,238.516,487.417,256.471z"/>
		<circle cx="210.277" cy="438.447" r="13.38"/>
		<circle cx="411.246" cy="438.447" r="13.38"/>
	</g>
</g>
</svg>
