<?xml version="1.0" encoding="UTF-8"?>
<svg width="60px" height="60px" viewBox="0 0 60 60" version="1.1" xmlns="http://www.w3.org/2000/svg" xmlns:xlink="http://www.w3.org/1999/xlink">
    <!-- Generator: Sketch 44.1 (41455) - http://www.bohemiancoding.com/sketch -->
    <title>ecommerce</title>
    <desc>Created with Sketch.</desc>
    <defs></defs>
    <g id="Page-1" stroke="none" stroke-width="1" fill="none" fill-rule="evenodd">
        <g id="ecommerce" fill="#183247">
            <path d="M45.4783198,55 C41.8390381,55 38.8888289,52.0401036 38.8888289,48.3888889 C38.8888289,44.7376742 41.8390381,41.7777778 45.4783198,41.7777778 C49.1176015,41.7777778 52.0678107,44.7376742 52.0678107,48.3888889 C52.0678107,52.0401036 49.1176015,55 45.4783198,55 Z M22.8857609,55 C19.2464868,55 16.29627,52.0401036 16.29627,48.3888889 C16.29627,44.7376742 19.2464868,41.7777778 22.8857609,41.7777778 C26.525035,41.7777778 29.4752518,44.7376742 29.4752518,48.3888889 C29.4752518,52.0401036 26.525035,55 22.8857609,55 Z M45.4783198,51.2222222 C47.0379582,51.2222222 48.3023873,49.9536973 48.3023873,48.3888889 C48.3023873,46.8240804 47.0379582,45.5555556 45.4783198,45.5555556 C43.9186438,45.5555556 42.6542523,46.8240804 42.6542523,48.3888889 C42.6542523,49.9536973 43.9186438,51.2222222 45.4783198,51.2222222 Z M22.8857609,51.2222222 C24.445452,51.2222222 25.7098284,49.9536973 25.7098284,48.3888889 C25.7098284,46.8240804 24.445452,45.5555556 22.8857609,45.5555556 C21.3260698,45.5555556 20.0616934,46.8240804 20.0616934,48.3888889 C20.0616934,49.9536973 21.3260698,51.2222222 22.8857609,51.2222222 Z M48.4600832,30.437788 C48.4568826,30.4380713 19.8282221,32.8035042 19.8282221,32.8035042 C18.8962572,32.8805067 18.1789817,33.661838 18.1789817,34.6000227 C18.1789817,35.4345753 18.853305,36.1111111 19.6851285,36.1111111 C19.6851285,36.1111111 52.1172883,36.1111111 52.1172883,36.1111111 C53.1570723,36.1111111 54,36.9567969 54,38 C54,39.0432031 53.1570723,39.8888889 52.1172883,39.8888889 C52.1172883,39.8888889 19.6851285,39.8888889 19.6851285,39.8888889 C16.773722,39.8888889 14.4135584,37.5209816 14.4135584,34.6000227 C14.4135584,31.6956482 16.6340586,29.2768542 19.5191674,29.0384727 C19.5191674,29.0384727 19.5427955,29.0365196 19.5427955,29.0365196 C19.5427955,29.0365196 13.0230365,7.77777778 13.0230365,7.77777778 C13.0230365,7.77777778 6.88271167,7.77777778 6.88271167,7.77777778 C5.84292014,7.77777778 5,6.93208444 5,5.88888889 C5,4.84569333 5.84292014,4 6.88271167,4 C6.88271167,4 14.4135584,4 14.4135584,4 C15.2400763,4 15.9699472,4.54082667 16.2130165,5.33340444 C16.2130165,5.33340444 16.9740462,7.77777778 16.9740462,7.77777778 C16.9740462,7.77777778 52.0678107,7.77777778 52.0678107,7.77777778 C53.255877,7.77777778 54.1469645,8.86827111 53.9139601,10.0371156 C53.9139601,10.0371156 50.1563688,28.886674 50.1563688,28.886674 C50.117359,29.1073076 50.0398666,29.3158333 49.9305564,29.5042727 C49.9297656,29.5056478 49.9283348,29.5080542 49.9283348,29.5080542 C49.9283348,29.5080542 49.9220089,29.5188889 49.9220089,29.5188889 C49.9220089,29.5188889 49.9118422,29.5358436 49.9118422,29.5358436 C49.9102607,29.5384729 49.9079638,29.542194 49.9079638,29.542194 C49.9079638,29.542194 49.8984373,29.5576602 49.8984373,29.5576602 C49.8984373,29.5576602 49.8941824,29.5643318 49.8941824,29.5643318 C49.8941824,29.5643318 49.8901534,29.5708522 49.8901534,29.5708522 C49.8901534,29.5708522 49.8872163,29.5753742 49.8872163,29.5753742 C49.8825472,29.5826616 49.8778404,29.5899149 49.873096,29.597104 C49.873096,29.597104 49.8694059,29.6027744 49.8694059,29.6027744 C49.8694059,29.6027744 49.8637954,29.6110364 49.8637954,29.6110364 C49.8613479,29.614682 49.8560386,29.6224453 49.8560386,29.6224453 C49.8560386,29.6224453 49.8480183,29.634232 49.8480183,29.634232 C49.8480183,29.634232 49.8393955,29.6464191 49.8393955,29.6464191 C49.8393955,29.6464191 49.8355547,29.6519158 49.8355547,29.6519158 C49.8332202,29.6551193 49.8260659,29.6652173 49.8260659,29.6652173 C49.8260659,29.6652173 49.8105523,29.6862142 49.8105523,29.6862142 C49.8087449,29.6886433 49.803511,29.6957267 49.803511,29.6957267 C49.803511,29.6957267 49.7966579,29.7045969 49.7966579,29.7045969 C49.7951894,29.7065576 49.7908592,29.7121411 49.7908592,29.7121411 C49.7908592,29.7121411 49.7803536,29.7257449 49.7803536,29.7257449 C49.7803536,29.7257449 49.7714672,29.7368251 49.7714672,29.7368251 C49.7714672,29.7368251 49.7672123,29.7421556 49.7672123,29.7421556 C49.7672123,29.7421556 49.7640494,29.7460618 49.7640494,29.7460618 C49.7640494,29.7460618 49.7566315,29.7552682 49.7566315,29.7552682 C49.7566315,29.7552682 49.7506068,29.7624724 49.7506068,29.7624724 C49.7506068,29.7624724 49.7384068,29.7770698 49.7384068,29.7770698 C49.7369383,29.7788076 49.7323445,29.7842929 49.7323445,29.7842929 C49.7323445,29.7842929 49.7270352,29.7904016 49.7270352,29.7904016 C49.7270352,29.7904016 49.7237217,29.7942662 49.7237217,29.7942662 C49.7237217,29.7942662 49.7112958,29.8084404 49.7112958,29.8084404 C49.7112958,29.8084404 49.7074927,29.8128038 49.7074927,29.8128038 C49.7074927,29.8128038 49.7028236,29.8179378 49.7028236,29.8179378 C49.7028236,29.8179378 49.6936736,29.8281264 49.6936736,29.8281264 C49.6936736,29.8281264 49.6856156,29.8369173 49.6856156,29.8369173 C49.6856156,29.8369173 49.6820761,29.8407933 49.6820761,29.8407933 C49.6728508,29.8507402 49.665207,29.8588398 49.6574879,29.8668524 C49.3668725,30.1681529 48.9803141,30.3730822 48.5417553,30.4291104 C48.5417553,30.4291104 48.5348646,30.4300058 48.5348646,30.4300058 C48.5330572,30.4302211 48.5293294,30.4306971 48.5293294,30.4306971 C48.5293294,30.4306971 48.5222504,30.4315093 48.5222504,30.4315093 C48.5222504,30.4315093 48.5152844,30.4323367 48.5152844,30.4323367 C48.5152844,30.4323367 48.5102387,30.4328882 48.5102387,30.4328882 C48.5102387,30.4328882 48.5052683,30.4334549 48.5052683,30.4334549 C48.5052683,30.4334549 48.5007875,30.433912 48.5007875,30.433912 C48.5007875,30.433912 48.4956665,30.4344673 48.4956665,30.4344673 C48.4956665,30.4344673 48.4867048,30.4353476 48.4867048,30.4353476 C48.4867048,30.4353476 48.481132,30.4359142 48.481132,30.4359142 C48.4787597,30.4361258 48.476011,30.436394 48.476011,30.436394 C48.476011,30.436394 48.4600832,30.437788 48.4600832,30.437788 Z M23.3035798,28.4533402 C23.3035798,28.4533402 46.737515,26.7739971 46.737515,26.7739971 C46.737515,26.7739971 49.771279,11.5555556 49.771279,11.5555556 C49.771279,11.5555556 18.1789817,11.5555556 18.1789817,11.5555556 C18.1660475,11.5555556 19.8742506,17.1881467 23.3035798,28.4533402 Z"></path>
        </g>
    </g>
</svg>