<?xml version="1.0" encoding="utf-8"?>
<!-- Generator: Adobe Illustrator 17.0.0, SVG Export Plug-In . SVG Version: 6.00 Build 0)  -->
<!DOCTYPE svg PUBLIC "-//W3C//DTD SVG 1.1//EN" "http://www.w3.org/Graphics/SVG/1.1/DTD/svg11.dtd">
<svg version="1.1" id="Layer_1" xmlns="http://www.w3.org/2000/svg" xmlns:xlink="http://www.w3.org/1999/xlink" x="0px" y="0px"
	 width="512px" height="512px" viewBox="0 0 512 512" enable-background="new 0 0 512 512" xml:space="preserve">
<path display="none" fill="#010101" d="M259.9,58.8c-109.8,0-199.1,89.3-199.1,199.1S150.1,457,259.9,457S459,367.7,459,257.9
	S369.7,58.8,259.9,58.8z M377.9,197.9L235.8,340c-3.3,3.3-7.2,5-11.5,5c-2,0-8,0-11.9-5.3l-70.9-70.9c-3.3-3.3-5-7.2-5-11.5
	c0-5.1,1.5-9,5-12.4s7.3-5,12.4-5c2,0,8,0,11.9,5.3l59.3,59.3L353.9,174c3.9-5.3,9.9-5.3,11.9-5.3c5.1,0,9,1.5,12.4,5
	c3.5,3.5,5,7.3,5,12.4C383.2,188.1,383.2,194,377.9,197.9z"/>
<g>
	<path fill="#020202" d="M175.782,239.218c-3.057,5.201-5.515,12.317-7.783,19.442c-2.401,7.649-3.647,17.433-3.647,28.996v57.457
		h57.546c8.361,0,21.969-2.135,30.596-5.603c0.978-0.445,1.957-0.712,2.846-1.156c0.676-0.28,1.34-0.556,1.999-0.83l-19.843-23.918
		l-46.373,4.824l6.425-52.975L175.782,239.218z"/>
	<path fill="#020202" d="M383.687,221.393l78.626-78.626c4.536-4.447,7.027-10.584,7.027-16.988c0-6.315-2.401-12.274-6.849-16.81
		l-61.816-61.816c-4.447-4.536-10.584-7.027-16.988-7.027s-12.452,2.49-16.988,7.027l-78.626,78.626H138.702L77.761,52.324
		l-22.7,18.552l342.252,410.243l22.701-18.552l-36.721-41.975c0.25-1.016,0.395-2.074,0.395-3.168V221.393z M383.865,67.966
		l57.813,57.902l-39.046,39.046l-57.902-57.902L383.865,67.966z M322.672,128.981l57.902,57.902L276.085,291.372l-52.511-63.293
		L322.672,128.981z M261.212,152.551l-54.818,54.818l-45.48-54.818H261.212z M292.406,311.044l64.687-62.435v140.403
		L292.406,311.044z"/>
	<path fill="#020202" d="M105.473,404.083V154.471l-21.512-25.929c-3.18,2.436-5.26,6.258-5.26,10.578v278.392
		c0,7.293,5.959,13.341,13.341,13.341v-0.089h242.657l-22.137-26.683L105.473,404.083L105.473,404.083z"/>
</g>
</svg>
