<?xml version="1.0" encoding="utf-8"?>
<!-- Generator: Adobe Illustrator 17.0.0, SVG Export Plug-In . SVG Version: 6.00 Build 0)  -->
<!DOCTYPE svg PUBLIC "-//W3C//DTD SVG 1.1//EN" "http://www.w3.org/Graphics/SVG/1.1/DTD/svg11.dtd">
<svg version="1.1" id="Layer_1" xmlns="http://www.w3.org/2000/svg" xmlns:xlink="http://www.w3.org/1999/xlink" x="0px" y="0px"
	 width="512px" height="512px" viewBox="0 0 512 512" enable-background="new 0 0 512 512" xml:space="preserve">
<path display="none" fill="#010101" d="M259.9,58.8c-109.8,0-199.1,89.3-199.1,199.1S150.1,457,259.9,457S459,367.7,459,257.9
	S369.7,58.8,259.9,58.8z M377.9,197.9L235.8,340c-3.3,3.3-7.2,5-11.5,5c-2,0-8,0-11.9-5.3l-70.9-70.9c-3.3-3.3-5-7.2-5-11.5
	c0-5.1,1.5-9,5-12.4s7.3-5,12.4-5c2,0,8,0,11.9,5.3l59.3,59.3L353.9,174c3.9-5.3,9.9-5.3,11.9-5.3c5.1,0,9,1.5,12.4,5
	c3.5,3.5,5,7.3,5,12.4C383.2,188.1,383.2,194,377.9,197.9z"/>
<path fill="#010101" d="M92.249,431.389c-7.386,0-13.348-6.051-13.348-13.348V139.506c0-7.386,6.051-13.348,13.348-13.348h196.131
	l78.666-78.666c4.538-4.538,10.59-7.03,16.997-7.03c6.407,0,12.547,2.492,16.997,7.03l61.847,61.847
	c4.449,4.538,6.852,10.501,6.852,16.819c0,6.407-2.492,12.547-7.03,16.997l-78.666,78.666v196.131
	c0,7.386-6.051,13.348-13.348,13.348H92.249V431.389z M105.687,404.603h251.749V249.051l-81.781,78.933
	c-4.538,4.538-11.658,7.386-20.022,10.857c-0.89,0.445-1.869,0.712-2.848,1.157c-8.632,3.471-22.247,5.606-30.612,5.606h-57.576
	v-57.487c0-11.569,1.246-21.357,3.649-29.01c3.115-9.789,6.585-19.578,11.48-24.383l81.781-81.781H105.687V404.603z
	 M191.383,318.907l64.161-6.674l-56.508-56.419L191.383,318.907z M213.185,239.173l57.932,57.932l109.812-109.812l-57.932-57.932
	L213.185,239.173z M345.067,107.381l57.932,57.932l39.066-39.066l-57.843-57.932L345.067,107.381z"/>
</svg>
