<?xml version="1.0" encoding="utf-8"?>
<!-- Generator: Adobe Illustrator 17.1.0, SVG Export Plug-In . SVG Version: 6.00 Build 0)  -->
<!DOCTYPE svg PUBLIC "-//W3C//DTD SVG 1.1//EN" "http://www.w3.org/Graphics/SVG/1.1/DTD/svg11.dtd">
<svg version="1.1" id="Layer_1" xmlns="http://www.w3.org/2000/svg" xmlns:xlink="http://www.w3.org/1999/xlink" x="0px" y="0px"
	 viewBox="0 0 512 512" enable-background="new 0 0 512 512" xml:space="preserve">
<path display="none" fill="#010101" d="M259.9,58.8c-109.8,0-199.1,89.3-199.1,199.1c0,109.8,89.3,199.1,199.1,199.1
	c109.8,0,199.1-89.3,199.1-199.1C459,148.1,369.7,58.8,259.9,58.8z M377.9,197.9L235.8,340c-3.3,3.3-7.2,5-11.5,5c-2,0-8,0-11.9-5.3
	l-70.9-70.9c-3.3-3.3-5-7.2-5-11.5c0-5.1,1.5-9,5-12.4s7.3-5,12.4-5c2,0,8,0,11.9,5.3l59.3,59.3l128.8-130.5
	c3.9-5.3,9.9-5.3,11.9-5.3c5.1,0,9,1.5,12.4,5c3.5,3.5,5,7.3,5,12.4C383.2,188.1,383.2,194,377.9,197.9z"/>
<path fill="#010101" d="M68.7,464.6c-8.3,0-15-6.8-15-15V136.6c0-8.3,6.8-15,15-15h220.4l88.4-88.4c5.1-5.1,11.9-7.9,19.1-7.9
	c7.2,0,14.1,2.8,19.1,7.9l69.5,69.5c5,5.1,7.7,11.8,7.7,18.9c0,7.2-2.8,14.1-7.9,19.1l-88.4,88.4v220.4c0,8.3-6.8,15-15,15H68.7z
	 M83.8,434.5h282.9V259.7l-91.9,88.7c-5.1,5.1-13.1,8.3-22.5,12.2c-1,0.5-2.1,0.8-3.2,1.3c-9.7,3.9-25,6.3-34.4,6.3H150v-64.6
	c0-13,1.4-24,4.1-32.6c3.5-11,7.4-22,12.9-27.4l91.9-91.9H83.8V434.5z M180.1,338.2l72.1-7.5l-63.5-63.4L180.1,338.2z M204.6,248.6
	l65.1,65.1l123.4-123.4L328,125.2L204.6,248.6z M352.8,100.5l65.1,65.1l43.9-43.9l-65-65.1L352.8,100.5z"/>
</svg>
