<?xml version="1.0" encoding="UTF-8"?>
<svg width="60px" height="60px" viewBox="0 0 60 60" version="1.1" xmlns="http://www.w3.org/2000/svg" xmlns:xlink="http://www.w3.org/1999/xlink">
    <!-- Generator: Sketch 44.1 (41455) - http://www.bohemiancoding.com/sketch -->
    <title>edit</title>
    <desc>Created with Sketch.</desc>
    <defs></defs>
    <g id="Page-1" stroke="none" stroke-width="1" fill="none" fill-rule="evenodd">
        <g id="edit" fill="#183247" fill-rule="nonzero">
            <path d="M38.1672383,6.70862135 L34.9466835,9.92917624 L33.0506269,8.04285714 L9.06630804,8.04285714 L9.06630804,51.9571429 L45.5967724,51.9571429 L45.5967724,28.8770383 L50.1630804,24.3107303 L50.1630804,52.7142857 C50.1630804,54.805078 48.459409,56.5 46.3578237,56.5 L8.3052567,56.5 C6.20367146,56.5 4.5,54.805078 4.5,52.7142857 L4.5,7.28571429 C4.5,5.19492202 6.20367146,3.5 8.3052567,3.5 L34.9420536,3.5 L38.1672383,6.70862135 Z M53.4686611,6.20611609 C56.0692402,8.80669515 56.080067,13.01224 53.4928436,15.5994634 L31.9816358,37.1106713 C31.8582141,37.2340929 31.69572,37.3108613 31.5216546,37.3279839 L23.6572327,38.1015957 C22.6147059,38.2041476 21.6820837,37.4417081 21.5741626,36.3986394 C21.5610491,36.2718966 21.5607205,36.1442214 21.5731815,36.0175444 L22.3467933,28.1531226 C22.3639159,27.9790571 22.4406843,27.816563 22.5641059,27.6931414 L44.0753137,6.18193358 C46.6625372,3.59471015 50.868082,3.60553703 53.4686611,6.20611609 Z M26.427054,33.250533 L29.7097646,32.9276175 L50.266786,12.3705961 C51.0799134,11.5574687 51.0765107,10.235726 50.2591858,9.41840118 C49.441861,8.60107634 48.1201183,8.5976736 47.3069909,9.41080097 L26.7499695,29.9678224 L26.427054,33.250533 Z"></path>
        </g>
    </g>
</svg>