<?xml version="1.0" encoding="UTF-8" standalone="no"?>
<svg width="60px" height="60px" viewBox="0 0 60 60" version="1.1" xmlns="http://www.w3.org/2000/svg" xmlns:xlink="http://www.w3.org/1999/xlink">
    <!-- Generator: Sketch 46.2 (44496) - http://www.bohemiancoding.com/sketch -->
    <title>email</title>
    <desc>Created with Sketch.</desc>
    <defs></defs>
    <g id="Page-1" stroke="none" stroke-width="1" fill="none" fill-rule="evenodd">
        <g id="email" fill="#183247" fill-rule="nonzero">
            <path d="M4.8,10 L54.2,10 C56.298682,10 58,11.7094582 58,13.8181818 L58,48.1818182 C58,50.2905418 56.298682,52 54.2,52 L4.8,52 C2.70131795,52 1,50.2905418 1,48.1818182 L1,13.8181818 C1,11.7094582 2.70131795,10 4.8,10 Z M5.56,14.5818182 L5.56,47.4181818 L53.44,47.4181818 L53.44,14.5818182 L5.56,14.5818182 Z M13.6647164,21.4574848 L29.5,32.0648518 L45.3352836,21.4574848 C46.383009,20.7556591 47.7985911,21.0401302 48.4970747,22.0928686 C49.1955583,23.1456071 48.9124419,24.5679623 47.8647164,25.2697879 L30.7647164,36.7243334 C29.9988658,37.2373434 29.0011342,37.2373434 28.2352836,36.7243334 L11.1352836,25.2697879 C10.0875581,24.5679623 9.80444172,23.1456071 10.5029253,22.0928686 C11.2014089,21.0401302 12.616991,20.7556591 13.6647164,21.4574848 Z"></path>
        </g>
    </g>
</svg>