<?xml version="1.0" encoding="UTF-8"?>
<svg width="13px" height="17px" viewBox="0 0 13 17" version="1.1" xmlns="http://www.w3.org/2000/svg" xmlns:xlink="http://www.w3.org/1999/xlink">
    <!-- Generator: sketchtool 51.3 (57544) - http://www.bohemiancoding.com/sketch -->
    <title>7878E445-4A26-49CE-A79D-53D73D26C810</title>
    <desc>Created with sketchtool.</desc>
    <defs></defs>
    <g id="Page-1" stroke="none" stroke-width="1" fill="none" fill-rule="evenodd">
        <g id="Hippa-Ticket-fields-04" transform="translate(-172.000000, -242.000000)" fill="#F5A623">
            <g id="encrypted" transform="translate(172.711111, 242.404738)">
                <path d="M6,0 C8.03424883,-3.73685447e-16 9.68333333,1.6490845 9.68333333,3.68333333 L9.68333333,10.0309524 C9.68333333,12.0652012 8.03424883,13.7142857 6,13.7142857 C3.96575117,13.7142857 2.31666667,12.0652012 2.31666667,10.0309524 L2.31666667,3.68333333 C2.31666667,1.6490845 3.96575117,3.73685447e-16 6,0 Z M6,1.24675325 C4.64383411,1.24675325 3.54444444,2.34614292 3.54444444,3.7023088 L3.54444444,10.0119769 C3.54444444,11.3681428 4.64383411,12.4675325 6,12.4675325 C7.35616589,12.4675325 8.45555556,11.3681428 8.45555556,10.0119769 L8.45555556,3.7023088 C8.45555556,2.34614292 7.35616589,1.24675325 6,1.24675325 Z" id="Combined-Shape-Copy-3"></path>
                <path d="M6,4 C9.3137085,4 12,6.6862915 12,10 C12,13.3137085 9.3137085,16 6,16 C2.6862915,16 4.05812251e-16,13.3137085 0,10 C-4.05812251e-16,6.6862915 2.6862915,4 6,4 Z M6,9 C5.44771525,9 5,9.44771525 5,10 C5,10.5522847 5.44771525,11 6,11 C6.55228475,11 7,10.5522847 7,10 C7,9.44771525 6.55228475,9 6,9 Z" id="Combined-Shape" fill-rule="nonzero"></path>
            </g>
        </g>
    </g>
</svg>