<?xml version="1.0" encoding="utf-8"?>
<!-- Generator: Adobe Illustrator 22.1.0, SVG Export Plug-In . SVG Version: 6.00 Build 0)  -->
<svg version="1.1" id="Layer_1" xmlns="http://www.w3.org/2000/svg" xmlns:xlink="http://www.w3.org/1999/xlink" x="0px" y="0px"
	 viewBox="0 0 512 512" style="enable-background:new 0 0 512 512;" xml:space="preserve">
<style type="text/css">
	.st0{fill:#010101;}
</style>
<path class="st0" d="M188.8,390.4H60.3c-14.8,0-26.8-12-26.8-26.8V148.4c0-14.8,12-26.8,26.8-26.8h174.2c1-8.8,2.8-17.3,5.6-25.5
	H39.9C22.3,96.1,8,110.4,8,128v256c0,17.6,14.3,31.8,31.8,31.8h162.8C197.4,407.8,192.7,399.3,188.8,390.4z"/>
<path d="M445.7,195.3v-60.6c0-50.2-40.7-91-91-91s-91,40.7-91,91v60.6c-36.8,27.7-60.7,71.7-60.7,121.3
	c0,83.7,67.9,151.6,151.6,151.6s151.6-67.9,151.6-151.6C506.4,267,482.6,223,445.7,195.3z M294.1,137.4c0-33.5,27.2-60.7,60.7-60.7
	s60.7,27.2,60.7,60.7v40.2c-18.6-8.1-39.1-12.6-60.7-12.6s-42.1,4.5-60.7,12.6V137.4z M354.7,347c-16.7,0-30.3-13.6-30.3-30.3
	c0-16.7,13.6-30.3,30.3-30.3c16.7,0,30.3,13.6,30.3,30.3C385.1,333.4,371.5,347,354.7,347z"/>
</svg>
