<!-- Generated by IcoMoon.io -->
<svg version="1.1" xmlns="http://www.w3.org/2000/svg" width="60" height="60" viewBox="0 0 60 60">
<title>enter-icon</title>
<path d="M57 40.894v-34.894c0-1.657-1.343-3-3-3v0c-1.657 0-3 1.343-3 3v31.894c0 0.552-0.448 1-1 1h-35.366v6h38.366c2.209 0 4-1.791 4-4z"></path>
<path d="M25.47 27.956l-21.113 13.196c-0.468 0.293-0.611 0.91-0.318 1.378 0.081 0.129 0.189 0.238 0.318 0.318l21.113 13.196c0.468 0.293 1.085 0.15 1.378-0.318 0.099-0.159 0.152-0.343 0.152-0.53v-26.392c0-0.552-0.448-1-1-1-0.187 0-0.371 0.053-0.53 0.152z"></path>
</svg>
