<svg id="Layer_1" data-name="Layer 1" xmlns="http://www.w3.org/2000/svg" viewBox="0 0 512 512"><title>Redactor</title><path d="M34.53,113c0-14.62.22-29.24-.12-43.84-0.12-4.94,1.76-6.63,6.26-6.83,8-.36,15.94-0.85,23.12,4,4.66,3.12,10,3.86,15.58,3.84,30.25-.11,60.51.37,90.74-0.29,16.48-.36,33-0.9,49.41-0.38,36,1.14,72,.14,108,0.58,5.78,0.07,11.13-.87,15-5.87,2.18-2.81,5.56-2.09,8.56-2.11,13.63-.11,11-0.17,11.43,11.06,1.2,28.53.73,57.07,0.64,85.61a99.06,99.06,0,0,1-.7,10.15c-0.31,2.92,1.15,6.78-2.05,8.45a33,33,0,0,1-15.61,4.14c-2.48,0-3.11-2.91-4-4.84-7.31-15.23-13-31-15.6-47.77-0.85-5.36-2.13-10.65-3.07-16-0.87-4.93-3.47-7.89-8.55-8.73a46.36,46.36,0,0,0-8.08-.8c-20.72.18-41.44-.47-62.15,0.91-10.56.71-11.12,0.39-11.9,10.64a339.23,339.23,0,0,0-1,43.22c0.9,17.8.36,35.68,0.36,53.52q0,89-.15,177.93a101.62,101.62,0,0,0,1.74,19.75,9.45,9.45,0,0,0,6.42,7.69c11.72,4.65,24,7.58,36,11,5.87,1.68,11.64,3.74,17.48,5.52,2.79,0.85,4,2.67,4.54,5.46,2.78,15,.53,18.11-14.46,17.8-22.4-.45-44.75-1.89-67.11-3.47-22.7-1.6-45.42-2-68.17.28-13.83,1.41-27.7,2.74-41.67,2.67-3.89,0-4.95-1.56-5.32-4.92-1.29-11.51,1.38-16.34,12.19-21,9.88-4.23,20.31-6.71,30.65-9.46,3-.79,5.85-1.84,8.84-2.44,8-1.6,10.72-6.67,11.35-14.42,1.62-20.17,2.19-40.35,2.17-60.57,0-37.39.41-74.79-.46-112.16s-0.55-74.75-.7-112.12c-0.05-14.43-1.25-15.57-15.52-16-19.69-.59-39.25-1.08-58.68,3.94-11.15,2.88-17.76,8.55-20.44,19.83-2.74,11.55-5.69,23.1-9.93,34.23-4.83,12.69-8.9,13.75-19.49,5.68-4-3-5.86-6.39-5.73-11.61C34.77,141.22,34.53,127.1,34.53,113Z"/><path d="M421.55,314.48l52.18-52.18a20.13,20.13,0,0,0,0-28.38l-2.49-2.49a20.13,20.13,0,0,0-28.38,0l-52.18,52.18L338.5,231.43a20.13,20.13,0,0,0-28.38,0l-2.49,2.49a20.13,20.13,0,0,0,0,28.38l52.18,52.18-52.18,52.18a20.13,20.13,0,0,0,0,28.38l2.49,2.49a20.13,20.13,0,0,0,28.38,0l52.18-52.18,52.18,52.18a20.13,20.13,0,0,0,28.38,0l2.49-2.49a20.13,20.13,0,0,0,0-28.38Z"/></svg>