<?xml version="1.0" encoding="utf-8"?>
<!-- Generator: Adobe Illustrator 19.2.1, SVG Export Plug-In . SVG Version: 6.00 Build 0)  -->
<svg version="1.1" id="Layer_1" xmlns="http://www.w3.org/2000/svg" xmlns:xlink="http://www.w3.org/1999/xlink" x="0px" y="0px"
	 width="512px" height="512px" viewBox="0 0 512 512" style="enable-background:new 0 0 512 512;" xml:space="preserve">
<g>
	<path d="M453,300H133v-41c0-1.4-0.4-2.7-1.4-3.6c-5.9-5.4-15.4-5.2-21,0.5L43,323.5c-5.6,5.6-5.6,14.8,0.1,20.5l68.1,68.1
		c5.6,5.6,14.7,5.6,20.4,0c1-0.9,1.4-2.2,1.4-3.6V368h320c11.1,0,20-9.1,20-20.2v-28.3C473,308.5,464.1,300,453,300z"/>
	<path d="M58.9,212H379v40.6c0,1.4,0.4,2.7,1.4,3.6c5.6,5.6,14.8,5.6,20.4,0l68.1-68.1c5.6-5.6,5.6-14.8,0-20.5l-67.6-67.6
		c-5.7-5.7-15-5.9-20.9-0.5c-1,0.9-1.4,2.2-1.4,3.6V144H58.9c-11.1,0-19.9,8.6-19.9,19.7V192C39,203.1,47.8,212,58.9,212z"/>
</g>
</svg>
