<?xml version="1.0" encoding="utf-8"?>
<!-- Generator: Adobe Illustrator 19.2.1, SVG Export Plug-In . SVG Version: 6.00 Build 0)  -->
<svg version="1.1" id="Layer_1" xmlns="http://www.w3.org/2000/svg" xmlns:xlink="http://www.w3.org/1999/xlink" x="0px" y="0px"
	 width="512px" height="512px" viewBox="0 0 512 512" style="enable-background:new 0 0 512 512;" xml:space="preserve">
<path d="M67.5,376.6c0-18,0.1-36,0-54c-0.1-7.7,3-13.5,10.1-16.7c7.3-3.2,13.5-0.9,18.9,4.5c10.3,10.3,20.7,20.4,30.8,30.9
	c2.9,3.1,4.6,2.8,7.4-0.1c25-25.2,50.2-50.3,75.3-75.4c7.8-7.8,11.1-7.8,19-0.1c7.4,7.3,14.7,14.7,22.1,22.1
	c7.3,7.3,7.3,10.6,0.1,17.7c-25,25-50,50-75,75c-4.7,4.7-4.7,4.7,0.1,9.6c9.7,9.7,19.3,19.4,29.1,29.1c5.2,5.1,8.2,11,5.6,18.3
	c-2.6,7.3-8.2,10.9-15.8,11.5c-2.1,0.2-4.3,0.3-6.4,0.3c-32.7,0-65.4,0-98.2,0c-3.4,0-7-0.3-10.3-0.9c-7.3-1.5-12.7-8.3-12.7-16.2
	C67.4,413.6,67.5,395.1,67.5,376.6z"/>
<path d="M450.9,137.4c0,18.2-0.1,36.4,0,54.5c0.1,7.6-3.1,13.2-9.9,16.3c-6.9,3.1-13.3,1.5-18.6-3.8c-10.5-10.3-20.9-20.7-31.2-31.2
	c-3-3.1-4.8-3.1-7.9,0c-25,25.2-50.2,50.3-75.3,75.4c-7.7,7.7-10.6,7.7-18.4-0.2c-7.6-7.6-15.2-15.2-22.8-22.8
	c-6.5-6.5-6.5-10.2,0-16.7c25.2-25.3,50.4-50.6,75.8-75.7c3.4-3.3,3.6-5.3,0.1-8.6c-9.9-9.5-19.4-19.4-29.2-29c-5.8-5.7-9-12-5.6-20
	c3.3-7.8,9.9-10.4,18.1-10.4c35.4,0.1,70.7,0,106.1,0c12.4,0,18.8,6.6,18.8,19.1C450.9,102,450.9,119.7,450.9,137.4z"/>
</svg>
