<?xml version="1.0" encoding="utf-8"?>
<!-- Generator: Adobe Illustrator 19.2.1, SVG Export Plug-In . SVG Version: 6.00 Build 0)  -->
<svg version="1.1" id="Layer_1" xmlns="http://www.w3.org/2000/svg" xmlns:xlink="http://www.w3.org/1999/xlink" x="0px" y="0px"
	 width="512px" height="512px" viewBox="0 0 512 512" style="enable-background:new 0 0 512 512;" xml:space="preserve">
<g>
	<path d="M255.7,296.3c23.4,0,42.5-19.1,42.5-42.6c0-9.3-3-17.8-8-24.8L241,293.7C245.6,295.4,250.5,296.3,255.7,296.3z"/>
	<path d="M344.7,67L310,112.6c-17.4-5.1-35.8-7.9-54.4-7.9c-38.8,0-76.8,11.7-107,33.1C90.6,178.9,48.6,239.1,46.8,241.6
		c-5.1,7.3-5.1,17,0,24.3c1.5,2.2,33.8,48.3,80.6,87.3l-47.1,62l24.7,18.8L369.3,85.8L344.7,67z M181.2,253.7
		c0-41.2,33.3-74.5,74.4-74.5c1.2,0,2.5,0,3.7,0.1L226.2,223c-3.2,3.1-5.9,6.6-8,10.6L185,277.2
		C182.6,269.8,181.2,261.9,181.2,253.7z"/>
	<path d="M464.5,241.6c-1.8-2.5-43.9-62.7-101.9-103.8c-0.7-0.5-1.4-1-2.1-1.5L310,202.9c12.5,13.3,20.1,31.2,20.1,50.9
		c0,41.1-33.4,74.5-74.4,74.5c-12.4,0-24.1-3.1-34.4-8.5l-48.6,64c25.2,12.3,53.9,18.9,83,18.9c38.8,0,76.8-11.7,106.9-33.1
		c58.1-41.1,100.2-101.2,101.9-103.8C469.6,258.6,469.6,248.9,464.5,241.6z"/>
</g>
</svg>
