<?xml version="1.0" encoding="utf-8"?>
<!-- Generated by IcoMoon.io -->
<!DOCTYPE svg PUBLIC "-//W3C//DTD SVG 1.1//EN" "http://www.w3.org/Graphics/SVG/1.1/DTD/svg11.dtd">
<svg version="1.1" xmlns="http://www.w3.org/2000/svg" xmlns:xlink="http://www.w3.org/1999/xlink" width="512" height="512" viewBox="0 0 512 512">
<g>
</g>
	<path d="M465.514 265.173c-1.771-2.538-43.99-62.805-102.25-104-30.208-21.398-68.31-33.173-107.264-33.173-38.934 0-77.034 11.776-107.306 33.173-58.261 41.195-100.438 101.462-102.208 104-5.078 7.317-5.078 17.024 0 24.341 1.77 2.538 43.947 62.805 102.208 104 30.272 21.376 68.374 33.152 107.306 33.152 38.954 0 77.056-11.776 107.264-33.173 58.262-41.195 100.48-101.462 102.25-104 5.099-7.296 5.099-17.024 0-24.32zM256 352c-41.258 0-74.666-33.493-74.666-74.666 0-41.258 33.408-74.666 74.666-74.666 41.173 0 74.666 33.408 74.666 74.666 0 41.173-33.493 74.666-74.666 74.666z" fill="#000000" />
	<path d="M298.666 277.334c0 23.51-19.157 42.666-42.666 42.666-23.573 0-42.666-19.158-42.666-42.666 0-23.573 19.094-42.666 42.666-42.666 23.51 0 42.666 19.094 42.666 42.666z" fill="#000000" />
</svg>
