<?xml version="1.0" encoding="UTF-8"?>
<svg width="60px" height="60px" viewBox="0 0 60 60" version="1.1" xmlns="http://www.w3.org/2000/svg" xmlns:xlink="http://www.w3.org/1999/xlink">
    <!-- Generator: Sketch 44.1 (41455) - http://www.bohemiancoding.com/sketch -->
    <title>facebook</title>
    <desc>Created with Sketch.</desc>
    <defs></defs>
    <g id="Page-1" stroke="none" stroke-width="1" fill="none" fill-rule="evenodd">
        <g id="facebook" fill-rule="nonzero" fill="#183247">
            <path d="M56.5,51.8911138 C56.5,54.4366267 54.4366267,56.5 51.8911138,56.5 L39.3499233,56.5 C38.3045272,56.5 37.4570662,55.652539 37.4570662,54.6071429 L37.4570662,35.5493595 C37.4570662,34.5039633 38.3045272,33.6565023 39.3499233,33.6565023 L44.0829038,33.6565023 L44.5529221,30.0140246 L39.3499233,30.0140246 C38.3045272,30.0140246 37.4570662,29.1665636 37.4570662,28.1211675 L37.4570662,23.3795116 C37.4570662,19.8712323 39.1416174,17.8710916 43.0298847,17.871092 L45.0715998,17.8697003 L45.0715998,14.8464024 C43.9638331,14.7735573 42.5662303,14.7192687 41.2334479,14.7192687 C36.4131894,14.7192687 33.5732828,17.5260213 33.5732828,22.6435294 L33.5732828,28.1211675 C33.5732828,29.1665636 32.7258218,30.0140246 31.6804257,30.0140246 L27.1599151,30.0140246 L27.1599151,33.6565023 L31.6804257,33.6565023 C32.7258218,33.6565023 33.5732828,34.5039633 33.5732828,35.5493595 L33.5732828,54.6071429 C33.5732828,55.652539 32.7258218,56.5 31.6804257,56.5 L8.1088862,56.5 C5.56337333,56.5 3.5,54.4366267 3.5,51.8911138 L3.5,8.1088862 C3.5,5.56337333 5.56337333,3.5 8.1088862,3.5 L51.8911138,3.5 C54.4366267,3.5 56.5,5.56337333 56.5,8.1088862 L56.5,51.8911138 Z M52.7142857,51.8911138 L52.7142857,8.1088862 C52.7142857,7.6541656 52.3458344,7.28571429 51.8911138,7.28571429 L8.1088862,7.28571429 C7.6541656,7.28571429 7.28571429,7.6541656 7.28571429,8.1088862 L7.28571429,51.8911138 C7.28571429,52.3458344 7.6541656,52.7142857 8.1088862,52.7142857 L29.7875685,52.7142857 L29.7875685,37.4422166 L25.2670579,37.4422166 C24.2216618,37.4422166 23.3742008,36.5947556 23.3742008,35.5493595 L23.3742008,28.1211675 C23.3742008,27.0757713 24.2216618,26.2283103 25.2670579,26.2283103 L29.7875685,26.2283103 L29.7875685,22.6435294 C29.7875685,15.4252131 34.3322838,10.9335544 41.2334479,10.9335544 C43.5541263,10.9335544 46.0499737,11.0862005 47.2160782,11.2426011 C48.1558104,11.3686401 48.8573141,12.1705126 48.8573141,13.1186595 L48.8573141,19.7612675 C48.8573141,20.8061598 48.0106393,21.653412 46.9657472,21.6541242 L43.031175,21.6568059 C41.3901982,21.6568059 41.2427805,21.8318413 41.2427805,23.3795116 L41.2427805,26.2283103 L46.7057237,26.2283103 C47.8472924,26.2283103 48.7291107,27.2312279 48.5830161,28.3634097 L47.6244965,35.7916017 C47.5026947,36.7355225 46.6989509,37.4422166 45.747204,37.4422166 L41.2427805,37.4422166 L41.2427805,52.7142857 L51.8911138,52.7142857 C52.3458344,52.7142857 52.7142857,52.3458344 52.7142857,51.8911138 Z" id="Facebook"></path>
        </g>
    </g>
</svg>