<?xml version="1.0" encoding="utf-8"?>
<!-- Generator: Adobe Illustrator 18.1.1, SVG Export Plug-In . SVG Version: 6.00 Build 0)  -->
<svg version="1.1" id="Layer_1" xmlns="http://www.w3.org/2000/svg" xmlns:xlink="http://www.w3.org/1999/xlink" x="0px" y="0px"
	 width="512px" height="512px" viewBox="0 0 512 512" enable-background="new 0 0 512 512" xml:space="preserve">
<path fill="#010101" d="M439.2,8.8H70.7C36.9,8.8,9.3,36.5,9.3,70.3v368.5c0,33.8,27.7,61.4,61.4,61.4H257V324h-58.8v-76.7H257
	v-38.4c0-59.3,43.8-105.7,99.6-105.7h54.2v86.7h-48.5c-12.7,0-16.4,7.3-16.4,17.3v40.1h64.9V324H346v176.2h93.2
	c33.8,0,61.4-27.6,61.4-61.4V70.3C500.6,36.5,473,8.8,439.2,8.8L439.2,8.8z"/>
</svg>
