<?xml version="1.0" encoding="UTF-8" standalone="no"?>
<svg width="60px" height="60px" viewBox="0 0 60 60" version="1.1" xmlns="http://www.w3.org/2000/svg" xmlns:xlink="http://www.w3.org/1999/xlink">
    <!-- Generator: Sketch 46.2 (44496) - http://www.bohemiancoding.com/sketch -->
    <title>facebook</title>
    <desc>Created with Sketch.</desc>
    <defs></defs>
    <g id="Page-1" stroke="none" stroke-width="1" fill="none" fill-rule="evenodd">
        <g id="facebook" fill="#183247">
            <path d="M56,53.1288952 C56,54.713881 54.7152625,56 53.1302334,56 L39.8791643,56 L39.8791643,35.8626062 L46.6385552,35.8626062 L47.6513307,28.0141643 L39.8791643,28.0141643 L39.8791643,23.0042493 C39.8791643,20.7322946 40.5109095,19.184136 43.7687886,19.184136 L47.9247092,19.1827195 L47.9247092,12.1628895 C47.2051429,12.0679887 44.73907,11.8541076 41.8693035,11.8541076 C35.8776389,11.8541076 31.7755441,15.5113314 31.7755441,22.2280453 L31.7755441,28.0141643 L24.9991556,28.0141643 L24.9991556,35.8626062 L31.7755441,35.8626062 L31.7755441,56 L6.86976655,56 C5.28473754,56 4,54.713881 4,53.1288952 L4,6.87110482 C4,5.28470255 5.28473754,4 6.86976655,4 L53.1302334,4 C54.7152625,4 56,5.28470255 56,6.87110482 L56,53.1288952" id="Facebook"></path>
        </g>
    </g>
</svg>