<?xml version="1.0" encoding="utf-8"?>
<!-- Generator: Adobe Illustrator 17.0.0, SVG Export Plug-In . SVG Version: 6.00 Build 0)  -->
<!DOCTYPE svg PUBLIC "-//W3C//DTD SVG 1.1//EN" "http://www.w3.org/Graphics/SVG/1.1/DTD/svg11.dtd">
<svg version="1.1" id="Layer_1" xmlns="http://www.w3.org/2000/svg" xmlns:xlink="http://www.w3.org/1999/xlink" x="0px" y="0px"
	 width="512px" height="512px" viewBox="0 0 512 512" enable-background="new 0 0 512 512" xml:space="preserve">
<g>
	<g>
		<g>
			<path fill-rule="evenodd" clip-rule="evenodd" d="M343.663,226.489c-70.601,0-127.835,57.547-127.835,128.535
				s57.234,128.537,127.835,128.537c70.602,0,127.837-57.548,127.837-128.537S414.266,226.489,343.663,226.489z M343.663,469.279
				c-62.757,0-113.632-51.153-113.632-114.254c0-63.1,50.875-114.254,113.632-114.254c62.758,0,113.633,51.154,113.633,114.254
				C457.296,418.126,406.421,469.279,343.663,469.279z M390.303,343.465h-93.28c-5.62,0-10.176,4.714-10.176,10.529v61.911
				c0,5.815,4.556,10.529,10.176,10.529h93.28c5.621,0,10.177-4.714,10.177-10.529v-61.911
				C400.48,348.179,395.924,343.465,390.303,343.465z M349.06,391.077v12.481c0,3.161-2.477,5.724-5.532,5.724
				s-5.532-2.563-5.532-5.724v-13.395c-3.246-2.165-5.409-5.919-5.409-10.212c0-6.717,5.262-12.162,11.754-12.162
				s11.754,5.445,11.754,12.162C356.096,384.929,353.199,389.195,349.06,391.077z M320.768,315.456
				c0-14.15,11.087-25.621,24.763-25.621c13.676,0,24.762,11.471,24.762,25.621v21.205H390.2v-21.023
				c0-25.572-20.319-46.304-45.033-46.304s-44.751,20.731-44.751,46.304v21.023h20.352V315.456z"/>
		</g>
	</g>
	<g>
		<g>
			<path d="M169.934,159.232l0.091-32.443c0-16.907,1.093-25.963,23.841-25.963h30.395V36h-48.635
				c-58.414,0-71.862,32.173-71.862,85.049l0.072,38.184l-44.095,0.021v64.813h44.095v188.066h66.099l0.044-188.066l48.179-0.021
				l6.444-64.813H169.934z"/>
		</g>
	</g>
</g>
</svg>
