<?xml version="1.0" encoding="UTF-8" standalone="no"?>
<svg width="60px" height="60px" viewBox="0 0 60 60" version="1.1" xmlns="http://www.w3.org/2000/svg" xmlns:xlink="http://www.w3.org/1999/xlink">
    <!-- Generator: Sketch 46.2 (44496) - http://www.bohemiancoding.com/sketch -->
    <title>feature-request</title>
    <desc>Created with Sketch.</desc>
    <defs></defs>
    <g id="Page-1" stroke="none" stroke-width="1" fill="none" fill-rule="evenodd">
        <g id="feature-request" fill="#183247">
            <path d="M30,58 C14.536027,58 2,45.463973 2,30 C2,14.536027 14.536027,2 30,2 C45.463973,2 58,14.536027 58,30 C58,45.463973 45.463973,58 30,58 Z M37.8624835,40.4956808 L38.8624835,35.5038039 L30.4316676,35.5038039 C28.9525073,35.5038039 27.7183098,34.454993 27.4321752,33.060471 C27.0000721,33.2936509 26.5055399,33.4259995 25.980096,33.4259995 C24.8109284,33.4259995 23.7948074,32.7707296 23.2789502,31.8074074 C22.763093,32.7707296 21.746972,33.4259995 20.5778044,33.4259995 C19.7758443,33.4259995 19.0458913,33.1177004 18.5,32.6131568 L19.5,40.4956808 C19.5,43.7571094 22.1439103,46.4010197 25.4053389,46.4010197 L31.9571445,46.4010197 C35.2185732,46.4010197 37.8624835,43.7571094 37.8624835,40.4956808 Z M27.4254803,31.8566682 C27.522641,31.354534 27.7424844,30.8961471 28.0525708,30.5139471 C28.0561037,30.4644153 28.0579004,30.4144034 28.0579004,30.3639719 L28.0579004,25.6422739 C28.0579004,24.4947342 27.1276357,23.5644694 25.980096,23.5644694 C24.8325563,23.5644694 23.9022915,24.4947342 23.9022915,25.6422739 L23.9022915,30.3639719 C23.9022915,31.5115116 24.8325563,32.4417763 25.980096,32.4417763 C26.5418328,32.4417763 27.0515053,32.2188625 27.4254803,31.8566682 Z M33.4601919,29.3797487 L33.4601919,24.5486926 C33.4601919,23.4011529 32.5299272,22.4708882 31.3823875,22.4708882 C30.2348478,22.4708882 29.3045831,23.4011529 29.3045831,24.5486926 L29.3045831,29.5938469 C29.6534123,29.4556802 30.0336726,29.3797487 30.4316676,29.3797487 L33.4601919,29.3797487 L33.4601919,29.3797487 Z M38.8624835,30.1112991 L38.8624835,14.5778044 C38.8624835,13.4302647 37.9322187,12.5 36.784679,12.5 C35.6371393,12.5 34.7068746,13.4302647 34.7068746,14.5778044 L34.7068746,29.3797487 L36.9169447,29.3797487 C37.662174,29.3797487 38.3429205,29.6558324 38.8624835,30.1112991 L38.8624835,30.1112991 Z M20.5778044,24.6580507 C19.4302647,24.6580507 18.5,25.5883154 18.5,26.7358552 L18.5,30.3639719 C18.5,31.5115116 19.4302647,32.4417763 20.5778044,32.4417763 C21.7253441,32.4417763 22.6556089,31.5115116 22.6556089,30.3639719 L22.6556089,26.7358552 C22.6556089,25.5883154 21.7253441,24.6580507 20.5778044,24.6580507 Z M36.9053131,30.2711875 L30.420036,30.2711875 C29.2724963,30.2711875 28.3422315,31.2014523 28.3422315,32.348992 C28.3422315,33.4965317 29.2724963,34.4267964 30.420036,34.4267964 L38.8737594,34.4267964 L38.8737594,32.2396338 C38.8737594,31.152491 37.992456,30.2711875 36.9053131,30.2711875 Z" id="Combined-Shape"></path>
        </g>
    </g>
</svg>