<?xml version="1.0" encoding="utf-8"?>
<!-- Generator: Adobe Illustrator 19.0.1, SVG Export Plug-In . SVG Version: 6.00 Build 0)  -->
<svg version="1.1" id="Layer_1" xmlns="http://www.w3.org/2000/svg" xmlns:xlink="http://www.w3.org/1999/xlink" x="0px" y="0px"
	 width="512px" height="512px" viewBox="0 0 512 512" style="enable-background:new 0 0 512 512;" xml:space="preserve">
<style type="text/css">
	.st0{fill:#010101;}
</style>
<g>
	<g>
		<path class="st0" d="M128.4,176.9h256.1c5.4,0,9.8-4.4,9.8-9.8c0-5.4-4.4-9.8-9.8-9.8H128.4c-5.4,0-9.8,4.4-9.8,9.8
			C118.5,172.5,122.9,176.9,128.4,176.9z M128.4,255.1h256.1c5.4,0,9.8-4.4,9.8-9.8c0-5.4-4.4-9.8-9.8-9.8H128.4
			c-5.4,0-9.8,4.4-9.8,9.8C118.5,250.7,122.9,255.1,128.4,255.1z M482.2,59.6H29.8c-5.4,0-9.8,4.4-9.8,9.8v293.3
			c0,5.4,4.4,9.8,9.8,9.8h265.5v86.3c0,4,2.4,7.6,6.1,9.1c1.2,0.5,2.4,0.7,3.7,0.7c2.6,0,5.2-1,7.1-3l90.9-93.1h79.1
			c5.4,0,9.8-4.4,9.8-9.8V69.4C492,64,487.6,59.6,482.2,59.6z M472.3,352.9h-73.4c-2.7,0-5.2,1.1-7.1,3L315,434.6v-72
			c0-5.4-4.4-9.8-9.8-9.8H39.7V79.1h432.7V352.9z"/>
	</g>
</g>
</svg>
