<?xml version="1.0" encoding="UTF-8"?>
<svg width="60px" height="60px" viewBox="0 0 60 60" version="1.1" xmlns="http://www.w3.org/2000/svg" xmlns:xlink="http://www.w3.org/1999/xlink">
    <!-- Generator: Sketch 44.1 (41455) - http://www.bohemiancoding.com/sketch -->
    <title>feedbackwidget</title>
    <desc>Created with Sketch.</desc>
    <defs></defs>
    <g id="Page-1" stroke="none" stroke-width="1" fill="none" fill-rule="evenodd">
        <g id="feedbackwidget" fill="#183247" fill-rule="nonzero">
            <path d="M51.9571429,21.9285714 L51.9571429,10.5714286 C51.9571429,8.89879476 50.6012052,7.54285714 48.9285714,7.54285714 L11.0714286,7.54285714 C9.39879476,7.54285714 8.04285714,8.89879476 8.04285714,10.5714286 L8.04285714,21.9285714 L51.9571429,21.9285714 Z M51.9571429,26.4714286 L8.04285714,26.4714286 L8.04285714,48.4285714 C8.04285714,50.1012052 9.39879476,51.4571429 11.0714286,51.4571429 L48.9285714,51.4571429 C50.6012052,51.4571429 51.9571429,50.1012052 51.9571429,48.4285714 L51.9571429,26.4714286 Z M11.0714286,3 L48.9285714,3 C53.110156,3 56.5,6.38984404 56.5,10.5714286 L56.5,48.4285714 C56.5,52.610156 53.110156,56 48.9285714,56 L11.0714286,56 C6.88984404,56 3.5,52.610156 3.5,48.4285714 L3.5,10.5714286 C3.5,6.38984404 6.88984404,3 11.0714286,3 Z M15.2356911,12.0857201 C16.6992457,12.0857201 17.8856911,13.2721655 17.8856911,14.73572 C17.8856911,16.1992746 16.6992457,17.38572 15.2356911,17.38572 L15.2356911,17.38572 C13.7721366,17.38572 12.5856912,16.1992746 12.5856912,14.73572 L12.5856912,14.73572 L12.5856912,14.73572 C12.5856912,13.2721655 13.7721366,12.0857201 15.2356911,12.0857201 Z M25.0785714,12.0857201 C26.5421259,12.0857201 27.7285713,13.2721655 27.7285713,14.73572 C27.7285713,16.1992746 26.5421259,17.38572 25.0785714,17.38572 C23.6150168,17.38572 22.4285714,16.1992746 22.4285714,14.73572 L22.4285714,14.73572 C22.4285714,13.2721655 23.6150168,12.0857201 25.0785714,12.0857201 Z M34.9214516,12.0857201 C36.3850062,12.0857201 37.5714516,13.2721655 37.5714516,14.73572 C37.5714516,16.1992746 36.3850062,17.38572 34.9214516,17.38572 L34.9214516,17.38572 C33.4578971,17.38572 32.2714517,16.1992746 32.2714517,14.73572 L32.2714517,14.73572 L32.2714517,14.73572 C32.2714517,13.2721655 33.4578971,12.0857201 34.9214516,12.0857201 Z M15.2357144,31.0142915 L44.7642856,31.0142915 C46.018761,31.0142915 47.0357143,32.0312447 47.0357143,33.2857202 C47.0357143,34.5401956 46.018761,35.5571488 44.7642856,35.5571488 L15.2357144,35.5571488 C13.981239,35.5571488 12.9642857,34.5401956 12.9642857,33.2857202 C12.9642857,32.0312447 13.981239,31.0142915 15.2357144,31.0142915 Z M15.2357144,42.3714343 L44.7642856,42.3714343 C46.018761,42.3714343 47.0357143,43.3883876 47.0357143,44.642863 C47.0357143,45.8973384 46.018761,46.9142917 44.7642856,46.9142917 L15.2357144,46.9142917 C13.981239,46.9142917 12.9642857,45.8973384 12.9642857,44.642863 C12.9642857,43.3883876 13.981239,42.3714343 15.2357144,42.3714343 Z"></path>
        </g>
    </g>
</svg>