<?xml version="1.0" encoding="utf-8"?>
<!-- Generator: Adobe Illustrator 17.0.0, SVG Export Plug-In . SVG Version: 6.00 Build 0)  -->
<!DOCTYPE svg PUBLIC "-//W3C//DTD SVG 1.1//EN" "http://www.w3.org/Graphics/SVG/1.1/DTD/svg11.dtd">
<svg version="1.1" id="Layer_1" xmlns="http://www.w3.org/2000/svg" xmlns:xlink="http://www.w3.org/1999/xlink" x="0px" y="0px"
	 width="512px" height="512px" viewBox="0 0 512 512" enable-background="new 0 0 512 512" xml:space="preserve">
<path d="M370.581,208.982h-70.876v-70.876c0-8.93-7.239-16.169-16.169-16.169h-57.572c-8.93,0-16.169,7.239-16.169,16.169v70.876
	h-70.876c-8.93,0-16.169,7.239-16.169,16.169v57.572c0,8.93,7.239,16.169,16.169,16.169h70.876v70.876
	c0,8.93,7.239,16.169,16.169,16.169h57.572c8.93,0,16.169-7.239,16.169-16.169v-70.876h70.876c8.93,0,16.169-7.239,16.169-16.169
	v-57.572C386.75,216.221,379.511,208.982,370.581,208.982z"/>
<path d="M403.808,3.75h-19.618c-0.035,0.022-0.073,0.04-0.108,0.062H29.75c-13.807,0-25,11.193-25,25v451c0,13.807,11.193,25,25,25
	h450c13.807,0,25-11.193,25-25v-368.75v-9.145L403.808,3.75z M459.75,459.312h-410v-410h322.5v61.75c0,13.807,11.193,25,25,25h62.5
	V459.312z"/>
</svg>
