<?xml version="1.0" encoding="utf-8"?>
<!-- Generator: Adobe Illustrator 17.0.0, SVG Export Plug-In . SVG Version: 6.00 Build 0)  -->
<!DOCTYPE svg PUBLIC "-//W3C//DTD SVG 1.1//EN" "http://www.w3.org/Graphics/SVG/1.1/DTD/svg11.dtd">
<svg version="1.1" id="Layer_1" xmlns="http://www.w3.org/2000/svg" xmlns:xlink="http://www.w3.org/1999/xlink" x="0px" y="0px"
	 width="512px" height="512px" viewBox="0 0 512 512" enable-background="new 0 0 512 512" xml:space="preserve">
<g>
	<path d="M255.5,6C117.429,6,5.5,117.929,5.5,256s111.929,250,250,250s250-111.929,250-250S393.571,6,255.5,6z M255.5,447
		c-105.486,0-191-85.514-191-191s85.514-191,191-191s191,85.514,191,191S360.986,447,255.5,447z"/>
	<path d="M354,236h-77V119c0-12.703-10.297-23-23-23s-23,10.297-23,23v140c0,12.703,10.297,23,23,23h100c12.703,0,23-10.297,23-23
		C377,246.297,366.703,236,354,236z"/>
</g>
</svg>
