<?xml version="1.0" encoding="utf-8"?>
<!-- Generator: Adobe Illustrator 17.0.0, SVG Export Plug-In . SVG Version: 6.00 Build 0)  -->
<!DOCTYPE svg PUBLIC "-//W3C//DTD SVG 1.1//EN" "http://www.w3.org/Graphics/SVG/1.1/DTD/svg11.dtd">
<svg version="1.1" id="Layer_1" xmlns="http://www.w3.org/2000/svg" xmlns:xlink="http://www.w3.org/1999/xlink" x="0px" y="0px"
	 width="512px" height="512px" viewBox="0 0 512 512" enable-background="new 0 0 512 512" xml:space="preserve">
<g>
	<path d="M141.619,114.399c0,13.807-11.193,25-25,25H35.014c-13.807,0-25-11.193-25-25V35.041c0-13.807,11.193-25,25-25h81.605
		c13.807,0,25,11.193,25,25V114.399z"/>
	<path d="M321.56,114.399c0,13.807-11.193,25-25,25h-81.605c-13.807,0-25-11.193-25-25V35.041c0-13.807,11.193-25,25-25h81.605
		c13.807,0,25,11.193,25,25V114.399z"/>
	<path d="M501.5,114.399c0,13.807-11.193,25-25,25h-81.605c-13.807,0-25-11.193-25-25V35.041c0-13.807,11.193-25,25-25H476.5
		c13.807,0,25,11.193,25,25V114.399z"/>
	<path d="M141.619,295.22c0,13.807-11.193,25-25,25H35.014c-13.807,0-25-11.193-25-25v-79.358c0-13.807,11.193-25,25-25h81.605
		c13.807,0,25,11.193,25,25V295.22z"/>
	<path d="M321.56,295.22c0,13.807-11.193,25-25,25h-81.605c-13.807,0-25-11.193-25-25v-79.358c0-13.807,11.193-25,25-25h81.605
		c13.807,0,25,11.193,25,25V295.22z"/>
	<path d="M501.5,295.22c0,13.807-11.193,25-25,25h-81.605c-13.807,0-25-11.193-25-25v-79.358c0-13.807,11.193-25,25-25H476.5
		c13.807,0,25,11.193,25,25V295.22z"/>
	<path d="M141.619,476.041c0,13.807-11.193,25-25,25H35.014c-13.807,0-25-11.193-25-25v-79.358c0-13.807,11.193-25,25-25h81.605
		c13.807,0,25,11.193,25,25V476.041z"/>
	<path d="M321.56,476.041c0,13.807-11.193,25-25,25h-81.605c-13.807,0-25-11.193-25-25v-79.358c0-13.807,11.193-25,25-25h81.605
		c13.807,0,25,11.193,25,25V476.041z"/>
	<path d="M501.5,476.041c0,13.807-11.193,25-25,25h-81.605c-13.807,0-25-11.193-25-25v-79.358c0-13.807,11.193-25,25-25H476.5
		c13.807,0,25,11.193,25,25V476.041z"/>
</g>
</svg>
