<?xml version="1.0" encoding="utf-8"?>
<!-- Generator: Adobe Illustrator 17.0.0, SVG Export Plug-In . SVG Version: 6.00 Build 0)  -->
<!DOCTYPE svg PUBLIC "-//W3C//DTD SVG 1.1//EN" "http://www.w3.org/Graphics/SVG/1.1/DTD/svg11.dtd">
<svg version="1.1" id="Layer_1" xmlns="http://www.w3.org/2000/svg" xmlns:xlink="http://www.w3.org/1999/xlink" x="0px" y="0px"
	 width="512px" height="512px" viewBox="0 0 512 512" enable-background="new 0 0 512 512" xml:space="preserve">
<g>
	<g>
		<path d="M358.441,345.269c-96.469-38.151-114.04-54.296-117.131-59.346v-11.677c10.906-12.49,19.458-28.615,24.933-47.045
			c8.404-7.449,13.32-18.41,13.32-30.038c0-7.867-2.233-15.356-6.49-21.891v-36.893c0-51.235-30.876-80.612-84.716-80.612
			c-53.064,0-84.743,30.137-84.743,80.612v36.923c-4.201,6.506-6.479,14.128-6.479,21.862c0,11.62,4.911,22.57,13.299,30.014
			c5.484,18.442,14.039,34.579,24.955,47.081v11.645c-3.131,5.102-20.781,21.25-117.143,59.367
			C9.575,348.712,3.746,357.46,3.746,367.04v45.047c0,12.858,10.14,23.315,22.608,23.315h323.991
			c12.468,0,22.608-10.457,22.608-23.315V367.04C372.953,357.439,367.118,348.691,358.441,345.269z M352.444,412.087
			c0,1.29-0.94,2.331-2.099,2.331H26.354c-1.157,0-2.099-1.041-2.099-2.331V367.04c0-0.986,0.563-1.873,1.397-2.201
			c107.294-42.456,125.786-60.454,129.778-73.6c0.311-1.004,0.468-2.059,0.468-3.112v-18.013c0-2.744-1.046-5.379-2.925-7.334
			c-10.586-11.075-18.795-26.497-23.738-44.585c-0.635-2.328-2.036-4.355-3.964-5.749c-4.776-3.439-7.627-9.157-7.627-15.285
			c0-5.431,2.275-9.425,4.181-11.824c1.487-1.865,2.298-4.206,2.298-6.618v-40.342c0-39.01,22.211-59.636,64.234-59.636
			c42.604,0,64.208,20.061,64.208,59.636v40.322c0,2.414,0.813,4.754,2.298,6.62c1.912,2.407,4.191,6.413,4.191,11.843
			c0,6.137-2.855,11.853-7.625,15.285c-1.937,1.394-3.344,3.436-3.981,5.758c-4.94,18.079-13.142,33.502-23.728,44.576
			c-1.872,1.967-2.917,4.589-2.917,7.334v18.013c0,1.053,0.154,2.107,0.465,3.12c4.004,13.145,22.506,31.167,129.793,73.6
			c0.826,0.318,1.382,1.206,1.382,2.192V412.087z M494.662,361.59c-70.983-28.08-85.43-40.274-88.242-43.929v-7.295
			c8.17-9.589,14.605-21.76,18.81-35.611c6.641-6.152,10.509-15.008,10.509-24.401c0-6.159-1.747-12.244-4.976-17.477v-27.568
			c0-40.828-24.539-64.245-67.322-64.245c-42.17,0-67.343,24.014-67.343,64.245v27.577c-3.224,5.232-4.967,11.309-4.967,17.468
			c0,9.374,3.865,18.235,10.498,24.382c4.692,15.471,12.172,28.858,21.746,38.864c3.96,4.142,10.454,4.215,14.498,0.169
			c4.052-4.047,4.121-10.695,0.161-14.838c-7.834-8.194-13.918-19.648-17.595-33.107c-0.64-2.338-2.041-4.378-3.979-5.77
			c-3.02-2.173-4.822-5.798-4.822-9.702c0-3.431,1.448-5.973,2.664-7.501c1.493-1.875,2.304-4.206,2.304-6.629v-30.915
			c0-28.31,16.196-43.264,46.833-43.264c31.061,0,46.816,14.555,46.816,43.264v30.903c0,2.423,0.816,4.755,2.301,6.632
			c1.222,1.528,2.673,4.079,2.673,7.51c0,3.913-1.802,7.541-4.82,9.714c-1.942,1.389-3.35,3.428-3.985,5.758
			c-3.679,13.471-9.764,24.912-17.595,33.107c-1.872,1.97-2.917,4.589-2.917,7.337v13.813c0,1.053,0.154,2.109,0.465,3.12
			c3.03,9.94,13.573,23.423,100.427,57.354l0.792,33.863h-85.647c-5.665,0-10.256,4.693-10.256,10.495
			c0,5.801,4.591,10.488,10.256,10.488h85.647c10.869,0,19.717-9.114,19.717-20.313v-34.534
			C507.313,372.195,502.226,364.573,494.662,361.59z"/>
	</g>
</g>
</svg>
