<?xml version="1.0" encoding="utf-8"?>
<!-- Generator: Adobe Illustrator 18.1.1, SVG Export Plug-In . SVG Version: 6.00 Build 0)  -->
<svg version="1.1" id="Layer_1" xmlns="http://www.w3.org/2000/svg" xmlns:xlink="http://www.w3.org/1999/xlink" x="0px" y="0px"
	 width="512px" height="512px" viewBox="0 0 512 512" enable-background="new 0 0 512 512" xml:space="preserve">
<g>
	<path d="M396.4,342.6c-7.5-1.2-7.7-21.3-7.7-21.3s22.1-21.4,26.9-50.1c12.9,0,20.9-30.5,8-41.3c0.5-11.3,16.6-88.8-64.8-88.8
		c-81.4,0-65.3,77.5-64.8,88.8c-12.9,10.7-4.9,41.3,8,41.3c4.8,28.7,26.9,50.1,26.9,50.1s-0.1,11.2-3.3,17.4
		C367,361.6,407,394,407,428h103.9C510.8,385,420.5,346.3,396.4,342.6z"/>
	<path d="M229.6,325.6c-9-1.4-9.2-25.6-9.2-25.6s26.4-25.6,32.2-60c15.5,0,25.1-36.6,9.6-49.5C262.8,176.9,282.1,84,184.5,84
		c-97.6,0-78.3,92.9-77.7,106.5c-15.5,12.9-5.9,49.5,9.6,49.5c5.8,34.4,32.2,60.1,32.2,60.1s-0.2,24.2-9.2,25.6
		C110.4,330.1,2.1,377,2.1,428h182.3h182.3C366.8,377,258.5,330.1,229.6,325.6z"/>
</g>
</svg>
