<?xml version="1.0" encoding="utf-8"?>
<!-- Generator: Adobe Illustrator 18.1.1, SVG Export Plug-In . SVG Version: 6.00 Build 0)  -->
<svg version="1.1" id="Layer_1" xmlns="http://www.w3.org/2000/svg" xmlns:xlink="http://www.w3.org/1999/xlink" x="0px" y="0px"
	 width="512px" height="512px" viewBox="0 0 512 512" enable-background="new 0 0 512 512" xml:space="preserve">
<g>
	<g>
		<path fill-rule="evenodd" clip-rule="evenodd" d="M169.4,20.8H95.1c-13.7,0-24.8,11.1-24.8,24.8v420.9c0,13.7,11.1,24.8,24.8,24.8
			h74.3c13.7,0,24.8-11.1,24.8-24.8V45.6C194.1,31.9,183,20.8,169.4,20.8z M416.9,20.8h-74.3c-13.7,0-24.8,11.1-24.8,24.8v420.9
			c0,13.7,11.1,24.8,24.8,24.8h74.3c13.7,0,24.8-11.1,24.8-24.8V45.6C441.7,31.9,430.6,20.8,416.9,20.8z"/>
	</g>
</g>
</svg>
