<?xml version="1.0" encoding="utf-8"?>
<!-- Generator: Adobe Illustrator 17.0.0, SVG Export Plug-In . SVG Version: 6.00 Build 0)  -->
<!DOCTYPE svg PUBLIC "-//W3C//DTD SVG 1.1//EN" "http://www.w3.org/Graphics/SVG/1.1/DTD/svg11.dtd">
<svg version="1.1" id="Layer_1" xmlns="http://www.w3.org/2000/svg" xmlns:xlink="http://www.w3.org/1999/xlink" x="0px" y="0px"
	 width="512px" height="512px" viewBox="0 0 512 512" enable-background="new 0 0 512 512" xml:space="preserve">
<path d="M381.123,284.479c-8.472-8.497-23.03-9.058-32.428-0.429l-4.886,4.72c-8.971,8.662-27.936,26.976-30.197,29.055
	c0.34-0.339,0.754-0.624,0.458-0.839c-15.591,0-62.086-30.386-96.636-76.19c-19.404-25.771-22.365-40.456-22.162-44.374
	l33.978-32.855c4.344-4.236,6.854-10.096,6.887-16.033c0.069-6.044-2.35-11.957-6.596-16.197L114.459,15.516
	c-4.265-4.327-10.216-6.831-16.503-6.876c-6.053,0-11.796,2.316-16.206,6.541L66.486,29.974
	c-9.647,9.341-20.299,19.661-20.598,19.975l-1.256,1.265c-70.728,71.291-39.027,166.743,102.78,309.496
	c95.353,95.99,171.021,142.639,231.339,142.651h0.004c16.725,0,32.469-3.63,46.803-10.784c14.854-7.423,25.483-17.274,32.466-23.734
	l2.147-1.969c0.233-0.204,35.226-33.806,36.918-35.595c8.473-8.947,8.302-22.819-0.435-31.619L381.123,284.479z M444.432,450.059
	l-2.225,2.033c-6.433,5.96-15.24,14.112-27.137,20.058c-11.203,5.602-23.085,8.322-36.315,8.322h-0.004
	c-53.015-0.016-125.278-45.695-214.778-135.793c-189.13-190.401-128.614-251.4-102.8-277.423l1.23-1.232
	c0.792-0.783,11.038-10.708,20.33-19.717l15.14-14.793l115.117,115.731l-35.48,34.322c-11.782,12.274-3.813,39.521,21.311,72.902
	c35.534,47.103,87.237,85.413,115.251,85.413c4.156,0,7.9-0.817,11.073-2.402c1.778-0.886,3.385-2.011,4.507-3.12
	c2.022-1.844,21.276-20.438,30.383-29.225l4.599-4.572l115.644,114.95C478.457,417.337,446.301,448.326,444.432,450.059z"/>
</svg>
