<?xml version="1.0" encoding="utf-8"?>
<!-- Generator: Adobe Illustrator 17.0.0, SVG Export Plug-In . SVG Version: 6.00 Build 0)  -->
<!DOCTYPE svg PUBLIC "-//W3C//DTD SVG 1.1//EN" "http://www.w3.org/Graphics/SVG/1.1/DTD/svg11.dtd">
<svg version="1.1" id="Layer_1" xmlns="http://www.w3.org/2000/svg" xmlns:xlink="http://www.w3.org/1999/xlink" x="0px" y="0px"
	 width="512px" height="512px" viewBox="0 0 512 512" enable-background="new 0 0 512 512" xml:space="preserve">
<g>
	<path d="M256,329.145c43.169,0,78.164-34.995,78.164-78.164V81.624c0-43.169-34.995-78.164-78.164-78.164
		c-43.169,0-78.164,34.995-78.164,78.164v169.357C177.836,294.15,212.831,329.145,256,329.145z"/>
	<path d="M392.859,462.628H289.668V402.07c64.696-14.691,113.649-70.806,117.5-138.986H380.59
		c-4.454,64.931-58.528,116.223-124.59,116.223s-120.136-51.292-124.59-116.223h-26.578c3.851,68.18,52.804,124.295,117.5,138.986
		v60.559H119.141c-5.635,0-10.202,4.568-10.202,10.202v25.506c0,5.635,4.568,10.202,10.202,10.202h273.718
		c5.635,0,10.202-4.568,10.202-10.202v-25.506C403.061,467.196,398.494,462.628,392.859,462.628z"/>
</g>
</svg>
