<?xml version="1.0" encoding="utf-8"?>
<!-- Generator: Adobe Illustrator 17.0.0, SVG Export Plug-In . SVG Version: 6.00 Build 0)  -->
<!DOCTYPE svg PUBLIC "-//W3C//DTD SVG 1.1//EN" "http://www.w3.org/Graphics/SVG/1.1/DTD/svg11.dtd">
<svg version="1.1" id="Layer_1" xmlns="http://www.w3.org/2000/svg" xmlns:xlink="http://www.w3.org/1999/xlink" x="0px" y="0px"
	 width="512px" height="512px" viewBox="0 0 512 512" enable-background="new 0 0 512 512" xml:space="preserve">
<g>
	<path d="M442.866,4.5L334.164,112.29V81.624c0-43.169-34.995-78.164-78.164-78.164c-43.169,0-78.164,34.995-78.164,78.164v169.357
		c0,5.099,0.494,10.082,1.428,14.908l-38.057,37.738c-5.404-12.585-8.814-26.228-9.796-40.544h-26.578
		c1.223,21.654,7.001,42.089,16.383,60.368L18.259,425.544l23.94,24.143L466.807,28.643L442.866,4.5z"/>
	<path d="M407.168,263.084H380.59c-4.454,64.931-58.528,116.223-124.59,116.223c-28.765,0-55.254-9.728-76.367-26.069
		l-18.966,18.807c17.693,14.356,38.684,24.806,61.665,30.025v60.559H119.141c-5.635,0-10.203,4.568-10.203,10.202v25.506
		c0,5.635,4.568,10.203,10.203,10.203h273.718c5.635,0,10.203-4.568,10.203-10.203v-25.506c0-5.635-4.568-10.202-10.203-10.202
		H289.668V402.07C354.364,387.379,403.318,331.264,407.168,263.084z"/>
	<path d="M334.164,250.982v-50.977L215.392,317.779c11.835,7.21,25.736,11.366,40.608,11.366
		C299.169,329.145,334.164,294.15,334.164,250.982z"/>
</g>
</svg>
