<?xml version="1.0" encoding="utf-8"?>
<!-- Generator: Adobe Illustrator 17.0.0, SVG Export Plug-In . SVG Version: 6.00 Build 0)  -->
<!DOCTYPE svg PUBLIC "-//W3C//DTD SVG 1.1//EN" "http://www.w3.org/Graphics/SVG/1.1/DTD/svg11.dtd">
<svg version="1.1" id="Layer_1" xmlns="http://www.w3.org/2000/svg" xmlns:xlink="http://www.w3.org/1999/xlink" x="0px" y="0px"
	 width="512px" height="512px" viewBox="0 0 512 512" enable-background="new 0 0 512 512" xml:space="preserve">
<g>
	<path fill="#010101" d="M150.234,231.142c-7.645-7.645-20.039-7.645-27.684,0c-7.645,7.645-7.645,20.039,0,27.684l35.792,35.792
		l-118.844,0c-10.811,0-19.576,8.765-19.576,19.576c0,5.405,2.191,10.299,5.734,13.842c3.542,3.542,8.436,5.734,13.842,5.734
		l118.845,0l-35.792,35.792c-7.645,7.645-7.645,20.039,0,27.684c7.645,7.645,20.039,7.645,27.684,0l83.052-83.052L150.234,231.142z"
		/>
	<path fill="#010101" d="M493.663,469.589c-10.494-16.982-20.997-33.958-31.498-50.936c-17.7-28.618-35.414-57.226-53.084-85.863
		c-2.013-3.264-4.528-5.684-8.389-6.538c-3.9-0.862-7.133,0.487-10.285,2.633c-11.17,7.606-22.963,13.983-36.373,16.584
		c-13.966,2.708-20.319-1.382-25.922-11.168c-21.176-36.986-42.576-73.844-63.828-110.786c-1.02-1.772-1.695-3.843-2.082-5.861
		c-1.702-8.869,0.413-17.148,4.401-25.02c6.623-13.073,16.919-22.925,28.26-31.823c6.137-4.816,7.339-9.623,4.065-16.746
		c-19.902-43.295-39.855-86.567-59.652-129.91c-2.161-4.732-4.963-8.299-10.083-9.719c-1.396,0-2.792,0-4.19,0
		c-7.1,2.787-14.356,5.236-21.272,8.423c-25.095,11.565-46.797,27.544-63.198,50.087c-14.961,20.564-22.842,43.646-24.001,69.04
		c-0.059,1.291-0.281,2.574-0.427,3.86c0,1.745,0,3.49,0,5.235c0.48,5.548,0.838,11.109,1.464,16.64
		c1.744,15.401,5.767,30.189,10.877,44.711c9.586-5.167,21.8-3.707,29.895,4.388l107.373,107.373l-48.786,48.786
		c9.776,16.93,19.538,33.868,29.249,50.835c15.947,27.863,36.866,50.89,63.826,68.314c19.733,12.753,41.213,21.172,64.566,24.173
		c7.662,0.985,15.503,0.557,23.26,0.817c2.078,0.07,4.151,0.293,6.226,0.445c4.712,0,9.424,0,14.136,0
		c0.396-0.147,0.783-0.384,1.19-0.427c23.787-2.5,46.422-9.218,68.307-18.667C496.328,484.739,498.588,477.559,493.663,469.589z"/>
</g>
</svg>
