<?xml version="1.0" encoding="utf-8"?>
<!-- Generator: Adobe Illustrator 18.1.1, SVG Export Plug-In . SVG Version: 6.00 Build 0)  -->
<svg version="1.1" id="Layer_1" xmlns="http://www.w3.org/2000/svg" xmlns:xlink="http://www.w3.org/1999/xlink" x="0px" y="0px"
	 width="512px" height="512px" viewBox="0 0 512 512" enable-background="new 0 0 512 512" xml:space="preserve">
<g>
	<path fill-rule="evenodd" clip-rule="evenodd" fill="#010101" d="M407.1,56.8H283.5c-30.3,0-54.9,24.6-54.9,55v58.4l41.2,30.9
		v-89.3h151.1v233.5H269.7v-75.6l-41.2,30.9v44.6v41.2v68.7h233.5v-68.7v-41.2V111.8C462.1,81.4,437.5,56.8,407.1,56.8z
		 M345.3,427.7c-11.4,0-20.6-9.2-20.6-20.6c0-11.4,9.2-20.6,20.6-20.6c11.4,0,20.6,9.2,20.6,20.6
		C365.9,418.5,356.7,427.7,345.3,427.7z"/>
	<path fill="#010101" d="M182.4,155.3c-7.8-7.6-20.4-7.6-28.1,0c-7.8,7.6-7.8,20,0,27.7l36.4,35.8H69.8c-11,0-19.9,8.8-19.9,19.6
		c0,5.4,2.2,10.3,5.8,13.8c3.6,3.5,8.6,5.7,14.1,5.7h120.8l-36.4,35.8c-7.8,7.6-7.8,20,0,27.7c7.8,7.6,20.4,7.6,28.1,0l84.4-83
		L182.4,155.3z"/>
</g>
</svg>
