<?xml version="1.0" encoding="utf-8"?>
<!-- Generator: Adobe Illustrator 17.0.0, SVG Export Plug-In . SVG Version: 6.00 Build 0)  -->
<!DOCTYPE svg PUBLIC "-//W3C//DTD SVG 1.1//EN" "http://www.w3.org/Graphics/SVG/1.1/DTD/svg11.dtd">
<svg version="1.1" id="Layer_1" xmlns="http://www.w3.org/2000/svg" xmlns:xlink="http://www.w3.org/1999/xlink" x="0px" y="0px"
	 width="512px" height="512px" viewBox="0 0 512 512" enable-background="new 0 0 512 512" xml:space="preserve">
<g>
	<path fill="#010101" d="M134.735,150.146c-7.645-7.645-20.039-7.645-27.684,0s-7.645,20.039,0,27.684l35.792,35.792l-118.844,0
		c-10.811,0-19.576,8.765-19.576,19.576c0,5.405,2.191,10.299,5.734,13.842s8.436,5.734,13.842,5.734l118.845,0l-35.792,35.792
		c-7.645,7.645-7.645,20.039,0,27.684s20.039,7.645,27.684,0l83.052-83.052L134.735,150.146z"/>
	<path fill="#010101" d="M468.969,106.611H205.47c-19.666,0-35.608,15.942-35.608,35.608v19.576l37.032,37.032v-54.472h260.651
		v173.767H206.894v-50.555L169.862,304.6v15.659c0,19.666,15.942,35.608,35.608,35.608h94.005v23.145h-7.122
		c-3.933,0-7.122,3.188-7.122,7.122v15.668c0,3.933,3.188,7.122,7.122,7.122h89.732c3.933,0,7.122-3.188,7.122-7.122v-15.668
		c0-3.933-3.188-7.122-7.122-7.122h-7.122v-23.145h94.005c19.666,0,35.608-15.942,35.608-35.608v-178.04
		C504.577,122.553,488.635,106.611,468.969,106.611z"/>
</g>
</svg>
