<?xml version="1.0" encoding="utf-8"?>
<!-- Generator: Adobe Illustrator 19.0.1, SVG Export Plug-In . SVG Version: 6.00 Build 0)  -->
<svg version="1.1" id="Layer_1" xmlns="http://www.w3.org/2000/svg" xmlns:xlink="http://www.w3.org/1999/xlink" x="0px" y="0px"
	 width="512px" height="512px" viewBox="0 0 512 512" style="enable-background:new 0 0 512 512;" xml:space="preserve">
<path d="M352.2,288c-3.6-3.7-9.4-3.9-13.2-0.4l-2.4,2.3c-6.4,6.2-24.8,24.1-26.6,25.8c-0.4,0.4-0.9,0.8-1.5,1.1
	c-13.7,6.8-59.5-23.9-91.5-68.1c-19.2-26.6-22.6-44.3-17.9-49.2l29.1-28.3c1.8-1.8,2.8-4.2,2.9-6.7c0-2.5-0.9-5-2.7-6.8l-94-98.7
	c-1.7-1.8-4.1-2.9-6.7-2.9c-2.5,0-4.9,0.9-6.7,2.7l-4.5,4.4c-8.2,8-24.6,24-25,24.4l-1,1c-36.4,36.9-59.7,98.4,82.9,248.1
	c95.5,100.3,166.5,136.8,216.9,111.7l0,0c11-5.5,18.9-12.8,24.6-18.2l1.8-1.7c1.2-1.1,29.3-28.3,30-29.1c3.5-3.7,3.4-9.6-0.1-13.3
	L352.2,288z"/>
</svg>
