<?xml version="1.0" encoding="utf-8"?>
<!-- Generator: Adobe Illustrator 17.0.0, SVG Export Plug-In . SVG Version: 6.00 Build 0)  -->
<!DOCTYPE svg PUBLIC "-//W3C//DTD SVG 1.1//EN" "http://www.w3.org/Graphics/SVG/1.1/DTD/svg11.dtd">
<svg version="1.1" id="Layer_1" xmlns="http://www.w3.org/2000/svg" xmlns:xlink="http://www.w3.org/1999/xlink" x="0px" y="0px"
	 width="512px" height="512px" viewBox="0 0 512 512" enable-background="new 0 0 512 512" xml:space="preserve">
<path d="M200.791,4.942c5.12,1.42,7.922,4.987,10.083,9.719c19.797,43.343,39.75,86.615,59.652,129.91
	c3.274,7.123,2.072,11.93-4.065,16.746c-11.341,8.898-21.637,18.75-28.26,31.823c-3.988,7.872-6.103,16.151-4.401,25.02
	c0.387,2.018,1.062,4.089,2.082,5.861c21.252,36.942,42.652,73.8,63.828,110.786c5.603,9.786,11.956,13.876,25.922,11.168
	c13.41-2.601,25.203-8.978,36.373-16.584c3.152-2.146,6.385-3.495,10.285-2.633c3.861,0.854,6.376,3.274,8.389,6.538
	c17.67,28.637,35.384,57.245,53.084,85.863c10.501,16.978,21.004,33.954,31.498,50.936c4.925,7.97,2.665,15.15-5.975,18.881
	c-21.885,9.449-44.52,16.167-68.307,18.667c-0.407,0.043-0.794,0.28-1.19,0.427c-4.712,0-9.424,0-14.136,0
	c-2.075-0.152-4.148-0.375-6.226-0.445c-7.757-0.26-15.598,0.168-23.26-0.817c-23.353-3.001-44.833-11.42-64.566-24.173
	c-26.96-17.424-47.879-40.451-63.826-68.314c-29.781-52.033-59.976-103.829-89.917-155.771c-8.649-15.005-17.99-29.63-24.25-45.937
	c-6.769-17.635-12.308-35.552-14.441-54.386c-0.626-5.531-0.984-11.092-1.464-16.64c0-1.745,0-3.49,0-5.235
	c0.146-1.286,0.368-2.569,0.427-3.86c1.159-25.394,9.04-48.476,24.001-69.04c16.401-22.543,38.103-38.522,63.198-50.087
	c6.916-3.187,14.172-5.636,21.272-8.423C197.999,4.942,199.395,4.942,200.791,4.942z"/>
</svg>
