<?xml version="1.0" encoding="utf-8"?>
<!-- Generator: Adobe Illustrator 19.0.1, SVG Export Plug-In . SVG Version: 6.00 Build 0)  -->
<svg version="1.1" id="Layer_1" xmlns="http://www.w3.org/2000/svg" xmlns:xlink="http://www.w3.org/1999/xlink" x="0px" y="0px"
	 width="512px" height="512px" viewBox="0 0 512 512" style="enable-background:new 0 0 512 512;" xml:space="preserve">
<path d="M166.2,335c5.1,0,9.3-4,9.4-9.1l0-3.2c-0.1-8.8-0.3-34.1-0.2-36.5c0-0.6,0.1-1.2,0.3-1.8c4.5-14.4,58.2-26,112.2-18.7
	c32.4,4.5,47.5,14.1,47.8,20.8l0.3,40c0,2.5,1.1,4.9,2.9,6.6c1.8,1.8,4.2,2.8,6.7,2.8l135.9,0.4c2.5,0,4.9-1,6.7-2.7
	c1.8-1.8,2.7-4.1,2.7-6.6l-0.1-6.2c-0.1-11.3-0.3-33.8-0.3-34.4l0-1.4c-1.5-51-29.7-109.6-236-110.2c-138.1-0.4-213.4,25.1-230,78.1
	l0,0c-3.6,11.5-3.8,22.2-3.9,29.9l0,2.4c0,1.7,0.2,40.2,0.3,41.2c0.3,5,4.5,9,9.6,9L166.2,335z"/>
</svg>
