<?xml version="1.0" encoding="utf-8"?>
<!-- Generator: Adobe Illustrator 18.1.1, SVG Export Plug-In . SVG Version: 6.00 Build 0)  -->
<svg version="1.1" id="Layer_1" xmlns="http://www.w3.org/2000/svg" xmlns:xlink="http://www.w3.org/1999/xlink" x="0px" y="0px"
	 viewBox="0 0 512 512" enable-background="new 0 0 512 512" xml:space="preserve">
<g>
	<path d="M276.3,180.7c-5.4-5.3-14.2-5.3-19.6,0c-5.4,5.3-5.4,14,0,19.4l25.4,25h-84.3c-7.7,0-13.9,6.1-13.9,13.7
		c0,3.8,1.6,7.2,4.1,9.7c2.5,2.5,6,4,9.8,4h84.3l-25.4,25c-5.4,5.3-5.4,14,0,19.4c5.4,5.3,14.2,5.3,19.6,0l58.9-58.1L276.3,180.7z"
		/>
	<path d="M435.6,111.9h-91.1c-19.9,0-36,16.1-36,36v43.3l28.8,25.2v-65.9h105.4v163.3H337.3v-52.9l-28.8,26v26.9V345v45.6h163.1V345
		v-31.2V147.8C471.6,128,455.5,111.9,435.6,111.9z M390,371.3c-7.9,0-14.3-6.4-14.3-14.3s6.4-14.3,14.3-14.3
		c7.9,0,14.3,6.4,14.3,14.3S397.9,371.3,390,371.3z"/>
	<path d="M212.3,296c-1.1-1.6-2.8-2.8-4.8-3.2c-2-0.4-4,0.1-5.6,1.2c-4.9,3.5-21.1,12.7-31.1,10.2c-2.8-0.7-4.8-2.3-6.5-4.9
		c-13.2-20.9-40.5-67.4-40.7-67.7c-0.3-0.7-8-16.4,19.9-36.8c2.7-2,3.6-5.4,2.2-8.4L108,107.3c-1.5-3.1-5.1-4.7-8.5-3.8
		c-1.7,0.5-42.3,11.7-59,47c-11.3,23.8-8.9,52.4,7.1,84.9c0.1,0.2,0.2,0.3,0.3,0.5l65.7,109.3c0.9,1.6,21.7,39.9,67.1,51.6
		c3.9,1,8,1.7,12,2.3l23.9,0.6c14.6-1.2,29.7-5,45.3-11.6c1.9-0.8,3.4-2.4,4-4.3c0.6-1.9,0.3-4-0.8-5.7L212.3,296z"/>
</g>
</svg>
