<?xml version="1.0" encoding="utf-8"?>
<!-- Generator: Adobe Illustrator 18.1.1, SVG Export Plug-In . SVG Version: 6.00 Build 0)  -->
<svg version="1.1" id="Layer_1" xmlns="http://www.w3.org/2000/svg" xmlns:xlink="http://www.w3.org/1999/xlink" x="0px" y="0px"
	 viewBox="0 0 512 512" enable-background="new 0 0 512 512" xml:space="preserve">
<g display="none">
	<path display="inline" d="M246.3,180.7c-5.4-5.3-14.2-5.3-19.6,0c-5.4,5.3-5.4,14,0,19.4l25.4,25h-84.3c-7.7,0-13.9,6.1-13.9,13.7
		c0,3.8,1.6,7.2,4.1,9.7c2.5,2.5,6,4,9.8,4h84.3l-25.4,25c-5.4,5.3-5.4,14,0,19.4c5.4,5.3,14.2,5.3,19.6,0l58.9-58.1L246.3,180.7z"
		/>
	<path display="inline" d="M405.6,111.9h-91.1c-19.9,0-36,16.1-36,36v43.3l28.8,25.2v-65.9h105.4v163.3H307.3v-52.9l-28.8,26v26.9
		V345v45.6h163.1V345v-31.2V147.8C441.6,128,425.5,111.9,405.6,111.9z M360,371.3c-7.9,0-14.3-6.4-14.3-14.3
		c0-7.9,6.4-14.3,14.3-14.3c7.9,0,14.3,6.4,14.3,14.3C374.3,364.9,367.9,371.3,360,371.3z"/>
</g>
<g>
	<path d="M245.9,181.1c-5.4-5.4-14.2-5.4-19.6,0c-5.4,5.4-5.4,14.1,0,19.4l25.3,25.1h-84.1c-7.7,0-13.9,6.2-13.9,13.8
		c0,3.8,1.6,7.2,4.1,9.7c2.5,2.5,6,4,9.8,4h84.1l-25.3,25.1c-5.4,5.4-5.4,14.1,0,19.4s14.2,5.4,19.6,0l58.8-58.3L245.9,181.1z"/>
	<path d="M482.5,150.5H296c-13.9,0-25.2,11.2-25.2,25v13.8l26.2,26V177h184.5v122.1H297v-35.5l-26.2,26v11c0,13.8,11.3,25,25.2,25
		h66.5v16.3h-5c-2.8,0-5,2.2-5,5v11c0,2.8,2.3,5,5,5H421c2.8,0,5-2.2,5-5v-11c0-2.8-2.3-5-5-5h-5v-16.3h66.5
		c13.9,0,25.2-11.2,25.2-25V175.5C507.7,161.7,496.4,150.5,482.5,150.5z"/>
	<path d="M182.3,296c-1.1-1.6-2.8-2.8-4.8-3.2c-2-0.4-4,0.1-5.6,1.2c-4.9,3.5-21.1,12.7-31.1,10.2c-2.8-0.7-4.8-2.3-6.5-4.9
		c-13.2-20.9-40.5-67.4-40.7-67.7c-0.3-0.7-8-16.4,19.9-36.8c2.7-2,3.6-5.4,2.2-8.4L78,107.3c-1.5-3.1-5.1-4.7-8.5-3.8
		c-1.7,0.5-42.3,11.7-59,47c-11.3,23.8-8.9,52.4,7.1,84.9c0.1,0.2,0.2,0.3,0.3,0.5l65.7,109.3c0.9,1.6,21.7,39.9,67.1,51.6
		c3.9,1,8,1.7,12,2.3l23.9,0.6c14.6-1.2,29.7-5,45.3-11.6c1.9-0.8,3.4-2.4,4-4.3c0.6-1.9,0.3-4-0.8-5.7L182.3,296z"/>
</g>
</svg>
