<?xml version="1.0" encoding="utf-8"?>
<!-- Generator: Adobe Illustrator 17.1.0, SVG Export Plug-In . SVG Version: 6.00 Build 0)  -->
<!DOCTYPE svg PUBLIC "-//W3C//DTD SVG 1.1//EN" "http://www.w3.org/Graphics/SVG/1.1/DTD/svg11.dtd">
<svg version="1.1" id="Layer_1" xmlns="http://www.w3.org/2000/svg" xmlns:xlink="http://www.w3.org/1999/xlink" x="0px" y="0px"
	 viewBox="0 0 512 512" enable-background="new 0 0 512 512" xml:space="preserve">
<path d="M90.4,487.4C74.5,487.4,60,472.9,60,457V42.4C60,26.5,74.5,12,90.4,12h195.3c16.8,0,40.2,10.3,53.3,23.4l58.2,58.2
	c11.5,11.5,21.6,36.4,21.6,53.3v28.3h-21.4v-39H294.7V33.4H90.4c-4.6,0-9,4.4-9,9V457c0,4.6,4.4,9,9,9h298.1c4.6,0,9-4.4,9-9v-24.8
	h21.4V457c0,15.9-14.5,30.4-30.4,30.4H90.4z M314.4,116.5h74.1l-3.7-3.7c-0.6-0.6-0.9-1.2-1.3-2c-0.5-0.9-1-2-2.1-3.1l-58.2-58.2
	c-1.1-1.1-2.2-1.6-3.1-2.1c-0.8-0.4-1.4-0.7-2-1.3l-3.7-3.7V116.5z"/>
<path d="M330.2,385.2c-21.3,0-41.5-8.5-56.9-23.8c-15.4-15.4-23.8-35.6-23.8-56.9c0-21.3,8.5-41.5,23.8-56.9
	c15.4-15.4,35.6-23.8,56.9-23.8c22.1,0,42.6,8.2,57.5,23.2c15,15,23.2,35.4,23.2,57.5c0,21.3-8.5,41.5-23.8,56.9
	C371.7,376.8,351.5,385.2,330.2,385.2z M330.2,244.8c-32.9,0-59.7,26.8-59.7,59.7s26.8,59.7,59.7,59.7s59.7-26.8,59.7-59.7
	S363.2,244.8,330.2,244.8z M331.9,414.3c-36,0-71.9-10.3-103.8-29.7c-31.5-19.1-56.5-45.4-72.2-76l-0.6-1.2v-9.4l0.6-1.2
	c15.7-30.6,40.7-56.9,72.2-76c32-19.4,67.9-29.7,103.8-29.7c36,0,71.9,10.3,103.8,29.7c31.5,19.1,56.5,45.4,72.2,76l0.6,1.2v9.4
	l-0.6,1.2c-15.7,30.6-40.7,56.9-72.2,76C403.8,404.1,367.9,414.3,331.9,414.3z M178.8,304.6c30.7,52.2,91.8,87.1,153.1,87.1
	c59.6,0,120.7-34.9,153.1-87.2c-30.7-52.2-91.9-87.1-153.1-87.1C272.3,217.3,211.2,252.3,178.8,304.6z"/>
</svg>
