<?xml version="1.0" encoding="utf-8"?>
<!-- Generator: Adobe Illustrator 17.1.0, SVG Export Plug-In . SVG Version: 6.00 Build 0)  -->
<!DOCTYPE svg PUBLIC "-//W3C//DTD SVG 1.1//EN" "http://www.w3.org/Graphics/SVG/1.1/DTD/svg11.dtd">
<svg version="1.1" id="Layer_1" xmlns="http://www.w3.org/2000/svg" xmlns:xlink="http://www.w3.org/1999/xlink" x="0px" y="0px"
	 viewBox="0 0 32 32" enable-background="new 0 0 32 32" xml:space="preserve">
<path d="M27.4,4.7L27.4,4.7L24,1.3C23.3,0.6,21.8,0,20.8,0H9.4c-1,0-1.9,0.9-1.9,1.9v5.6H9V1.9c0-0.2,0.2-0.4,0.4-0.4h11.4
	c0.1,0,0.2,0,0.4,0v6h6c0,0.1,0,0.3,0,0.4v15.9v0.5v1.7c0,0.2-0.2,0.4-0.4,0.4H9.4c-0.2,0-0.4-0.2-0.4-0.4v-0.5H7.5v0.5
	c0,1,0.9,1.9,1.9,1.9h17.4c1,0,1.9-0.9,1.9-1.9v-1.7v-0.5V8C28.7,6.9,28.1,5.5,27.4,4.7z M22.7,6.1V2.2c0.1,0.1,0.2,0.1,0.3,0.2
	l3.4,3.4h0c0.1,0.1,0.1,0.2,0.2,0.3H22.7z"/>
<path d="M8.5,8.2C3.8,8.2,0,12,0,16.7s3.8,8.5,8.5,8.5s8.5-3.8,8.5-8.5S13.2,8.2,8.5,8.2z M12.8,17.8H9.6V21H7.5v-3.2H4.3v-2.1h3.2
	v-3.2h2.1v3.2h3.2V17.8z"/>
</svg>
