<?xml version="1.0" encoding="utf-8"?>
<!-- Generator: Adobe Illustrator 19.0.0, SVG Export Plug-In . SVG Version: 6.00 Build 0)  -->
<svg version="1.1" id="Layer_1" xmlns="http://www.w3.org/2000/svg" xmlns:xlink="http://www.w3.org/1999/xlink" x="0px" y="0px"
	 width="512px" height="512px" viewBox="0 0 512 512" style="enable-background:new 0 0 512 512;" xml:space="preserve">
<g id="XMLID_5_">
	<path id="XMLID_6_" d="M470.9,70.3H149.6c-19.7-42.4-31.8-42.4-35.8-42.4H41.1c-16.2,0-29.5,13.5-29.5,30.1V454
		c0,16.6,13.2,30.1,29.5,30.1h429.9c16.2,0,29.5-13.5,29.5-30.1V100.4C500.4,83.8,487.2,70.3,470.9,70.3z M41.1,48.7h71.3
		c4.5,3.5,14.2,19.9,21.4,36.2c1.6,3.7,5.3,6.1,9.3,6.1h327.8c5,0,9.1,4.2,9.1,9.4v52.4H32V58C32,52.9,36.1,48.7,41.1,48.7z
		 M470.9,463.3H41.1c-5,0-9.1-4.2-9.1-9.3V173.5h448V454C480,459.1,475.9,463.3,470.9,463.3z"/>
</g>
</svg>
