<?xml version="1.0" encoding="utf-8"?>
<!-- Generator: Adobe Illustrator 18.1.1, SVG Export Plug-In . SVG Version: 6.00 Build 0)  -->
<svg version="1.1" id="Layer_1" xmlns="http://www.w3.org/2000/svg" xmlns:xlink="http://www.w3.org/1999/xlink" x="0px" y="0px"
	 width="512px" height="512px" viewBox="0 0 512 512" enable-background="new 0 0 512 512" xml:space="preserve">
<g>
	<path d="M470.9,72.7h-322C129.1,31,117.1,31,113,31H40.1c-16.3,0-29.5,13.3-29.5,29.7v389.6c0,16.3,13.2,29.6,29.5,29.6h430.8
		c16.3,0,29.5-13.3,29.5-29.6V102.4C500.4,86,487.2,72.7,470.9,72.7z M40.1,51.5h71.4c4.5,3.5,14.3,19.6,21.5,35.7
		c1.6,3.7,5.3,6,9.3,6h328.5c5,0,9.1,4.1,9.1,9.2v51.5H31V60.7C31,55.6,35.1,51.5,40.1,51.5z M470.9,459.5H40.1
		c-5,0-9.1-4.1-9.1-9.2v-276H480v276C480,455.4,475.9,459.5,470.9,459.5z"/>
</g>
</svg>
