<svg id="Layer_1" data-name="Layer 1" xmlns="http://www.w3.org/2000/svg" viewBox="0 0 512 512"><title>Redactor</title><path d="M229.36,319.28c-18,0-36,.1-54-0.07-4.17,0-6.32,1.45-7.88,5.33-10,24.89-19.52,50-27.9,75.45-0.55,1.67-1,3.39-1.44,5.09-3.74,14-.36,20.15,13.49,24.75a137.66,137.66,0,0,0,33.71,6.31c4.29,0.31,5.89,2.19,5.66,6.36s-0.06,8.47-.14,12.7c-0.07,3.64-1.76,5.41-5.64,5.15-13.72-.93-27.45-1.61-41.17-2.6-15.83-1.14-31.65-3.35-47.51-2.43C85,456,73.59,459,62,459.91c-8.29.65-16.58,0.41-24.87,0.61-2.63.06-3.37-1.2-3.31-3.55,0.09-3.18,0-6.35.07-9.53,0.12-9,.13-9,9.2-10.81,10.2-2,20.53-3.37,30.51-6.47,11.77-3.66,19.65-11.1,24.09-22.66q49.4-128.46,99-256.85c12.13-31.44,24.38-62.84,36.41-94.33,1.54-4,3.76-5.51,8.13-5.29,7.51,0.39,15,.3,22.55,0,4.79-.22,7.35,1.66,9.17,6q14.53,34.38,29.36,68.63c33.1,76.63,64.23,154.08,96,231.24,7.94,19.25,15.47,38.65,24.47,57.46,3.7,7.73,9,12.81,17.44,14.74,10,2.29,19.88,4.83,29.85,7.08,3.93,0.89,5.77,2.8,6.44,7,2.8,17.57,2.93,17.67-14.64,17.34-30.68-.58-61.25-3.84-92-3.55-30.36.29-60.63,2.3-90.94,3.48-1.76.07-3.53,0-5.29,0-2.39,0-3.55-1.24-3.52-3.62,0-.35,0-0.71,0-1.06-0.66-16-.45-16.36,14.93-19.8,8.78-2,17.6-3.72,26.39-5.66A50.81,50.81,0,0,0,319,428c7.26-2.86,9.44-7.07,7.07-14.57-7.22-22.92-16.86-44.92-26-67.09-3-7.34-6.36-14.57-9.13-22-1.43-3.84-3.7-4.87-7.56-4.83-18,.17-36,0.07-54,0.07v-0.25Zm-1-148.85a1.24,1.24,0,0,0-2.21-.13l-0.07.15q-21,55.38-41.93,110.76c-1.43,3.78.45,4.07,3.44,4.17,27.31,0.92,54.62,1,81.93.93,4.36,0,5.52-1,3.92-5.41-9.85-27.37-20-54.62-31.77-81.22C237.41,190,232.95,180.44,228.37,170.43Z"/></svg>