<?xml version="1.0" encoding="UTF-8"?>
<svg width="60px" height="60px" viewBox="0 0 60 60" version="1.1" xmlns="http://www.w3.org/2000/svg" xmlns:xlink="http://www.w3.org/1999/xlink">
    <!-- Generator: Sketch 44.1 (41455) - http://www.bohemiancoding.com/sketch -->
    <title>forum</title>
    <desc>Created with Sketch.</desc>
    <defs></defs>
    <g id="Page-1" stroke="none" stroke-width="1" fill="none" fill-rule="evenodd">
        <g id="forum" fill="#183247">
            <path d="M47.6037253,42.6940667 C47.6037253,41.6531247 48.4475755,40.8092744 49.4885176,40.8092744 C50.9408275,40.8092744 52.3931375,40.8092744 53.8454475,40.8092744 C54.5943021,40.8092744 55.2025089,40.2307925 55.2025089,39.5199782 C55.2025089,39.5199782 55.2025089,8.06644277 55.2025089,8.06644277 C55.2025089,7.35184748 54.5943021,6.77714651 53.8454475,6.77714651 C53.8454475,6.77714651 18.5580497,6.77714651 18.5580497,6.77714651 C17.8091951,6.77714651 17.2009883,7.35184748 17.2009883,8.06644277 C17.2009883,10.7840561 17.2009883,13.5016693 17.2009883,16.2192826 L17.2009883,16.2192826 C17.2009883,17.2689805 16.35004,18.1199288 15.3003421,18.1199288 L15.3003421,18.1199288 L15.3003421,18.1199288 C14.2506442,18.1199288 13.3996959,17.2689805 13.3996959,16.2192826 C13.3996959,13.1991951 13.3996959,10.1791077 13.3996959,7.15902019 C13.3996959,4.8602163 15.3155473,3 17.6761499,3 C17.6761499,3 54.7273473,3 54.7273473,3 C57.0879499,3 59,4.8602163 59,7.15902019 C59,7.15902019 59,40.5446095 59,40.5446095 C59,42.8434134 57.5631115,44.5788591 55.2025089,44.5788591 C53.2978451,44.5788591 51.3931813,44.5788591 49.4885176,44.5788591 L49.4885176,44.5788591 C48.4475755,44.5788591 47.6037253,43.7350088 47.6037253,42.6940667 L47.6037253,42.6940667 Z M7.70193866,51.2068249 C4.55284489,51.2068249 2,48.6676566 2,45.5354337 L2,27.5760284 C2,24.4438055 4.55284489,21.9046372 7.70193866,21.9046372 L38.1122782,21.9046372 C41.2613719,21.9046372 43.8142168,24.4438055 43.8142168,27.5760284 L43.8142168,53.2190726 C43.8142168,55.3072211 42.1123202,57 40.0129244,57 C38.996575,57 38.0225518,56.5951784 37.3083617,55.875935 L32.6720564,51.2068249 L7.70193866,51.2068249 Z M7.70193866,25.6855646 C6.65224074,25.6855646 5.80129244,26.5319541 5.80129244,27.5760284 L5.80129244,45.5354337 C5.80129244,46.579508 6.65224074,47.4258974 7.70193866,47.4258974 L34.2604517,47.4258974 L39.3632782,52.5648297 L39.3632782,52.5648297 C39.5111534,52.7137512 39.7517546,52.7145994 39.900676,52.5667242 C39.9725201,52.4953849 40.0129244,52.3983246 40.0129244,52.2970781 L40.0129244,27.5760284 C40.0129244,26.5319541 39.1619761,25.6855646 38.1122782,25.6855646 L7.70193866,25.6855646 Z" id="Combined-Shape"></path>
        </g>
    </g>
</svg>