<?xml version="1.0" encoding="utf-8"?>
<!-- Generator: Adobe Illustrator 18.1.1, SVG Export Plug-In . SVG Version: 6.00 Build 0)  -->
<svg version="1.1" id="Layer_1" xmlns="http://www.w3.org/2000/svg" xmlns:xlink="http://www.w3.org/1999/xlink" x="0px" y="0px"
	 width="512px" height="512px" viewBox="0 0 512 512" enable-background="new 0 0 512 512" xml:space="preserve">
<g>
	<g>
		<path d="M293.2,327.5c-7.8-1.1-7.9-20.3-7.9-20.3s22.8-20.3,27.8-47.6c13.4,0,21.6-29,8.3-39.3c0.5-10.7,17.2-84.3-67-84.3
			c-84.2,0-67.5,73.6-67,84.3c-13.4,10.2-5.1,39.3,8.3,39.3c5,27.3,27.8,47.6,27.8,47.6s-0.2,19.1-8,20.3
			c-25,3.6-93.5,40.6-93.5,81.1c0,0,52.6,35.1,130.6,35.1c79.1,0,134.1-35.1,134.1-35.1C386.8,368.1,318.2,331.1,293.2,327.5z
			 M151.1,330.9c7.6-4.9,43.1-20.3,43.1-20.3s-17.5-18.2-22.5-46.9c-13.4,0-21.7-30.5-8.3-41.3c-0.5-10.4-14.6-85.3,48.3-97.5
			c-0.9-25.1-11.7-58.7-68.6-58.7c-84.2,0-67.5,73.6-67,84.3c-13.4,10.2-5.1,39.3,8.3,39.3c5,27.3,27.8,47.6,27.8,47.6
			s-0.2,19.1-8,20.3c-25,3.6-93.5,40.6-93.5,81.1c0,0,37.3,24.9,95.6,32.8C118.4,353.5,137.3,338.2,151.1,330.9z M405.7,257.7
			c-7.8-1.2-8-20.3-8-20.3s22.8-20.3,27.8-47.6c13.4,0,21.7-29,8.3-39.3c0.5-10.7,17.2-84.3-67-84.3c-56.9,0-67.7,33.6-68.6,58.7
			c62.9,12.2,48.8,87.2,48.3,97.5c13.4,10.8,5.1,41.3-8.3,41.3c-5,28.7-22.5,46.9-22.5,46.9s35.5,15.4,43.1,20.3
			c13.8,7.2,32.7,22.6,44.8,40.7c58.3-7.9,95.6-32.8,95.6-32.8C499.2,298.3,430.7,261.3,405.7,257.7z"/>
	</g>
</g>
</svg>
