<?xml version="1.0" encoding="UTF-8" standalone="no"?>
<svg width="60px" height="60px" viewBox="0 0 60 60" version="1.1" xmlns="http://www.w3.org/2000/svg" xmlns:xlink="http://www.w3.org/1999/xlink">
    <!-- Generator: Sketch 46.2 (44496) - http://www.bohemiancoding.com/sketch -->
    <title>feature-request</title>
    <desc>Created with Sketch.</desc>
    <defs></defs>
    <g id="Page-1" stroke="none" stroke-width="1" fill="none" fill-rule="evenodd">
        <g id="feature-request" fill="#183247">
            <path d="M30.75,38.5687204 L32.7475779,38.5687204 C33.8501873,38.5687204 34.8290909,37.8586068 35.1777666,36.8058195 L35.9879439,34.3595797 C39.0797888,32.3383972 41,28.8721252 41,25.07109 C41,18.9566959 36.0751322,14 30,14 C23.9248678,14 19,18.9566959 19,25.07109 C19,28.8721252 20.9202112,32.3383972 24.0120561,34.3595797 L24.8222334,36.8058195 C25.1709091,37.8586068 26.1498127,38.5687204 27.2524221,38.5687204 L29.25,38.5687204 L29.25,31.6701905 L24.3295677,25.631686 C23.9806972,25.2035414 24.0449615,24.5736462 24.473106,24.2247757 C24.6515275,24.0793902 24.8746374,24 25.1047921,24 L34.8952079,24 C35.4474927,24 35.8952079,24.4477153 35.8952079,25 C35.8952079,25.2301546 35.8158177,25.4532646 35.6704323,25.631686 L30.75,31.6701905 L30.75,38.5687204 Z M30,58 C14.536027,58 2,45.463973 2,30 C2,14.536027 14.536027,2 30,2 C45.463973,2 58,14.536027 58,30 C58,45.463973 45.463973,58 30,58 Z M26.9863014,43.3601896 L32.9199115,43.3601896 C33.6689004,43.3601896 34.2760759,42.7490901 34.2760759,41.9952607 C34.2760759,41.2414312 33.6689004,40.6303318 32.9199115,40.6303318 L26.9863014,40.6303318 C26.2373125,40.6303318 25.630137,41.2414312 25.630137,41.9952607 C25.630137,42.7490901 26.2373125,43.3601896 26.9863014,43.3601896 Z M28.7945205,48 L31.1116923,48 C31.8606812,48 32.4678567,47.3889005 32.4678567,46.6350711 C32.4678567,45.8812417 31.8606812,45.2701422 31.1116923,45.2701422 L28.7945205,45.2701422 C28.0455316,45.2701422 27.4383562,45.8812417 27.4383562,46.6350711 C27.4383562,47.3889005 28.0455316,48 28.7945205,48 Z M33.8428119,25.5 L26.1571881,25.5 L30,30.2160159 L33.8428119,25.5 Z" id="Combined-Shape"></path>
        </g>
    </g>
</svg>