<?xml version="1.0" encoding="utf-8"?>
<!-- Generator: Adobe Illustrator 17.0.0, SVG Export Plug-In . SVG Version: 6.00 Build 0)  -->
<!DOCTYPE svg PUBLIC "-//W3C//DTD SVG 1.1//EN" "http://www.w3.org/Graphics/SVG/1.1/DTD/svg11.dtd">
<svg version="1.1" id="Layer_1" xmlns="http://www.w3.org/2000/svg" xmlns:xlink="http://www.w3.org/1999/xlink" x="0px" y="0px"
	 width="512px" height="512px" viewBox="0 0 512 512" enable-background="new 0 0 512 512" xml:space="preserve">
<g>
	<polygon points="506.159,338.501 389.836,234.232 389.836,305.427 213.242,305.427 213.242,371.575 389.836,371.575 
		389.836,442.77 	"/>
	<path d="M207.974,250.943c4.001,2.485,9.107,2.475,13.11-0.025l174.019-108.527l-0.05,63.789l24.517,24.182l0.072-94.063
		c0.008-7.9-3.757-15.193-9.497-20.371c-0.789-0.797-1.579-1.528-2.536-2.073c-4.692-3.377-10.34-5.46-16.336-5.454L37.111,108.67
		c-6.458,0.003-12.349,2.221-17.129,5.809c-0.083,0.056-0.151,0.134-0.237,0.192C13.084,119.791,8.709,127.67,8.7,136.608
		l-0.16,207.463c-0.008,7.457,2.938,14.47,8.295,19.739c5.359,5.27,12.489,8.164,20.072,8.16l149.537-0.113v-24.13L36.928,347.84
		c-2.781,0.007-3.855-1.053-3.852-3.786l0.155-201.447L207.974,250.943z M365.108,132.549l-150.582,93.908L63.404,132.778
		L365.108,132.549z"/>
</g>
</svg>
