<?xml version="1.0" encoding="utf-8"?>
<!-- Generator: Adobe Illustrator 21.1.0, SVG Export Plug-In . SVG Version: 6.00 Build 0)  -->
<svg version="1.1" id="Layer_1" xmlns="http://www.w3.org/2000/svg" xmlns:xlink="http://www.w3.org/1999/xlink" x="0px" y="0px"
	 width="512px" height="512px" viewBox="0 0 512 512" style="enable-background:new 0 0 512 512;" xml:space="preserve">
<path d="M417.8,38H255C135.2,38,38,135.2,38,255s97.2,217,217,217s217-97.2,217-217V92.2C472,62.3,447.7,38,417.8,38z M354.5,301
	c0,15.2-10.4,28.2-24.7,32.1v2.2c0,22.1-17.8,39.9-39.9,39.9h-29.1c-2.6,0-4.8-2.2-4.8-4.8c0-2.6,2.2-4.8,4.8-4.8h29.9
	c16.4,0,29.9-13.4,29.9-29.9V334h-26v-77.8h38.6v-22.1c0-43-34.7-77.7-77.7-77.7s-77.7,34.7-77.7,77.7v22.1h38.6v77.7h-27.8
	c-18.6,0-33.4-15.2-33.4-33.4v-66.4c0-55.5,44.2-99.8,99.8-99.8c55.1,0,99.8,44.3,99.5,99.9V301z"/>
</svg>
