<?xml version="1.0" encoding="utf-8"?>
<!-- Generator: Adobe Illustrator 21.1.0, SVG Export Plug-In . SVG Version: 6.00 Build 0)  -->
<svg version="1.1" id="Layer_1" xmlns="http://www.w3.org/2000/svg" xmlns:xlink="http://www.w3.org/1999/xlink" x="0px" y="0px"
	 width="512px" height="512px" viewBox="0 0 512 512" style="enable-background:new 0 0 512 512;" xml:space="preserve">
<path d="M417.8,38H255C135.2,38,38,135.2,38,255s97.2,217,217,217s217-97.2,217-217V92.2C472,62.3,447.7,38,417.8,38z M350.3,336.6
	c0,7.9-5.7,13.5-13.5,13.5c-97.2,0-176.2-79-176.2-176.2c0-7.9,5.7-13.5,13.5-13.5h35.6c7.9,0,13.5,5.7,13.5,13.5
	c0,11.7,2.2,23.9,6.1,35.6c1.3,4.3-0.4,9.5-2.6,13l-0.4,0.4l-21.7,20.8c13.5,25.2,35.2,46.9,62.5,62.1l20.4-20.4
	c3.9-3.9,9.6-5.2,13.9-2.6c10.9,3.9,22.6,5.6,35.2,5.6c7.8,0,13.4,5.2,13.7,13.5V336.6z"/>
</svg>
