<?xml version="1.0" encoding="utf-8"?>
<!-- Generator: Adobe Illustrator 17.0.0, SVG Export Plug-In . SVG Version: 6.00 Build 0)  -->
<!DOCTYPE svg PUBLIC "-//W3C//DTD SVG 1.1//EN" "http://www.w3.org/Graphics/SVG/1.1/DTD/svg11.dtd">
<svg version="1.1" id="Layer_1" xmlns="http://www.w3.org/2000/svg" xmlns:xlink="http://www.w3.org/1999/xlink" x="0px" y="0px"
	 width="512px" height="512px" viewBox="0 0 512 512" enable-background="new 0 0 512 512" xml:space="preserve">
<path d="M414.353,49.799H96.647C48.793,49.799,10,88.592,10,136.446V309.74v168.962l70.261-83.883
	c5.308,1.016,10.782,1.568,16.386,1.568h317.706c47.854,0,86.647-38.793,86.647-86.647V136.446
	C501,88.592,462.207,49.799,414.353,49.799z M157.3,262.084c-15.951,0-28.882-12.931-28.882-28.882s12.931-28.882,28.882-28.882
	s28.882,12.931,28.882,28.882S173.251,262.084,157.3,262.084z M255.5,262.084c-15.951,0-28.882-12.931-28.882-28.882
	s12.931-28.882,28.882-28.882s28.882,12.931,28.882,28.882S271.451,262.084,255.5,262.084z M353.7,262.084
	c-15.951,0-28.882-12.931-28.882-28.882s12.931-28.882,28.882-28.882c15.951,0,28.882,12.931,28.882,28.882
	S369.651,262.084,353.7,262.084z"/>
</svg>
