<?xml version="1.0" encoding="utf-8"?>
<!-- Generator: Adobe Illustrator 21.1.0, SVG Export Plug-In . SVG Version: 6.00 Build 0)  -->
<svg version="1.1" id="Layer_1" xmlns="http://www.w3.org/2000/svg" xmlns:xlink="http://www.w3.org/1999/xlink" x="0px" y="0px"
	 width="512px" height="512px" viewBox="0 0 512 512" style="enable-background:new 0 0 512 512;" xml:space="preserve">
<g>
	<path d="M321,212H210.3c-5.2,0-9.5,4.3-9.5,9.5c0,5.2,4.3,9.5,9.5,9.5h111.1c5.2,0,9.5-4.3,9.1-9.5C330.5,216.4,326.2,212,321,212z
		"/>
	<path d="M290.2,259.3h-79.9c-5.2,0-9.5,4.3-9.5,9.5s4.3,9.5,9.5,9.5h79.9c5.2,0,9.5-4.3,9.5-9.5S295.4,259.3,290.2,259.3z"/>
	<path d="M417.8,38H255C135.2,38,38,135.2,38,255s97.2,217,217,217s217-97.2,217-217V92.2C472,62.3,447.7,38,417.8,38z M368.3,296.7
		c0,12.2-10,22.1-22.1,22.1H219.8c-31.2,0-56.4,25.2-56.4,56.4v-56.4V191.2c0-12.2,10-22.1,22.1-22.1h160.6
		c12.2,0,22.1,10,22.1,22.1V296.7z"/>
</g>
</svg>
