<?xml version="1.0" encoding="utf-8"?>
<!-- Generator: Adobe Illustrator 17.0.0, SVG Export Plug-In . SVG Version: 6.00 Build 0)  -->
<!DOCTYPE svg PUBLIC "-//W3C//DTD SVG 1.1//EN" "http://www.w3.org/Graphics/SVG/1.1/DTD/svg11.dtd">
<svg version="1.1" id="Layer_1" xmlns="http://www.w3.org/2000/svg" xmlns:xlink="http://www.w3.org/1999/xlink" x="0px" y="0px"
	 width="512px" height="512px" viewBox="0 0 512 512" enable-background="new 0 0 512 512" xml:space="preserve">
<path d="M56.724,256.951c0-100.488,81.75-182.23,182.224-182.23h210.539c20.455-0.698,37.035-16.596,38.908-36.721H238.949
	C118.218,38,20,136.216,20,256.951c0,120.73,98.218,218.953,218.949,218.953c120.739,0,218.958-98.223,218.958-218.953V118.564
	c0-9.861-7.328-18.328-17.584-18.353c0,0-174.907,0.036-189.934,0.036c-115.179,0-178.503,91.148-168.629,185.213
	c9.054,86.228,68.784,143.714,146.382,153.371C132.676,433.212,56.724,353.793,56.724,256.951z M191.885,294.766
	c0.619,1.628,1.401,3.131,2.104,4.696c7.138,13.63,16.716,25.101,27.786,33.854c-4.304,5.864-10.049,10.499-17.02,13.194
	c-21.911,8.481-47.504-5.229-57.159-30.618c-8.365-21.992-2.014-45.511,14.068-56.928c2.349-43.082,29.164-82.852,71.678-99.305
	c42.413-16.419,88.598-5.041,118.914,25.235c19.89-3.07,40.869,10.217,49.404,32.659c8.83,23.203,1.254,48.087-16.829,58.683
	c-0.009,0.138-0.018,0.279-0.032,0.41c-0.127-0.052-0.281-0.091-0.413-0.143c-1.571,0.891-3.188,1.714-4.909,2.379
	c-4.274,1.655-8.678,2.422-13.077,2.449c-2.349,19.902-9.925,38.849-21.89,54.753c1.415,3.478,0.955,7.605-1.555,10.732
	l-9.519,11.632c-3.66,4.56-10.288,5.256-14.809,1.569c-4.524-3.696-5.217-10.385-1.553-14.945l9.512-11.626
	c2.576-3.213,6.621-4.501,10.369-3.7c10.292-14.399,16.927-31.72,19.337-49.633c-0.045-0.016-0.086-0.02-0.131-0.027
	c0.131-0.567,0.222-1.147,0.338-1.719c1.485-12.471,3.104-25.153,0.252-37.373c0,0-0.939-5.104-1.651-7.118
	c-0.241-0.669-0.442-1.342-0.696-2.014c-17.222-45.268-67.56-67.891-112.434-50.52C197.089,198.717,174.668,249.495,191.885,294.766
	z"/>
</svg>
