<?xml version="1.0" encoding="utf-8"?>
<!-- Generator: Adobe Illustrator 19.0.0, SVG Export Plug-In . SVG Version: 6.00 Build 0)  -->
<svg version="1.1" id="Layer_1" xmlns="http://www.w3.org/2000/svg" xmlns:xlink="http://www.w3.org/1999/xlink" x="0px" y="0px"
	 width="512px" height="512px" viewBox="0 0 512 512" enable-background="new 0 0 512 512" xml:space="preserve">
<path d="M461,378.4l-98.8-98.6c-7.3-7.3-19.7-7.8-27.7-0.4l-4.2,4c-7.7,7.5-23.8,23.1-25.9,24.9c0.3-0.3,0.7-0.5,0.4-0.7
	c-13.4,0-53.2-26-82.6-65.2c-16.6-22.1-19.2-34.7-19-38l29-28.2c3.7-3.6,5.9-8.6,5.9-13.7c0.1-5.1-1.9-10.3-5.6-13.9l-98.6-99.2
	c-3.7-3.7-8.7-5.8-14.1-5.9c-5.2,0-10.1,1.9-13.8,5.5L93.1,62c-8.2,7.9-17.3,16.9-17.6,17.1l-1.1,1.1C13.9,141.2,41,222.9,162.3,345
	c81.7,82.2,146.3,122.1,197.9,122.1l0,0c14.3,0,27.8-3.1,40-9.2c12.8-6.3,21.8-14.8,27.8-20.2l1.8-1.7c0.2-0.2,30.1-29,31.6-30.4
	C468.7,397.7,468.6,385.8,461,378.4z"/>
</svg>
