<?xml version="1.0" encoding="utf-8"?>
<!-- Generator: Adobe Illustrator 21.0.0, SVG Export Plug-In . SVG Version: 6.00 Build 0)  -->
<svg version="1.1" id="Layer_1" xmlns="http://www.w3.org/2000/svg" xmlns:xlink="http://www.w3.org/1999/xlink" x="0px" y="0px"
	 width="512px" height="512px" viewBox="0 0 512 512" style="enable-background:new 0 0 512 512;" xml:space="preserve">
<path d="M255.1,166.2c-49.5,0-89.7,40.3-89.7,89.8c0,49.5,40.2,89.8,89.7,89.8s89.7-40.3,89.7-89.8
	C344.8,206.5,304.6,166.2,255.1,166.2 M255.1,326.5c-38.8,0-70.4-31.6-70.4-70.5c0-38.9,31.6-70.5,70.4-70.5s70.4,31.6,70.4,70.5
	C325.5,294.9,293.9,326.5,255.1,326.5 M478.7,224.8c-0.6-4.3-4-7.7-8.3-8.3l-52.1-6.8c-3.6-12.7-8.6-24.9-15.1-36.4l32-41.7
	c2.6-3.5,2.7-8.3,0-11.7c-12.6-16.7-27.4-31.5-44.1-44.2c-3.5-2.6-8.3-2.6-11.7,0l-41.7,32.1c-11.5-6.5-23.7-11.5-36.4-15.1
	l-6.8-52.2c-0.6-4.3-3.9-7.7-8.2-8.3c-21.3-2.9-41-3-62.3,0c-4.3,0.6-7.7,4-8.2,8.3L209,92.6c-12.7,3.6-24.9,8.7-36.5,15.1l-41.7-32
	c-3.5-2.7-8.2-2.7-11.7,0c-16.4,12.4-31.7,27.7-44.1,44.1c-2.6,3.5-2.6,8.3,0,11.7l32,41.7c-6.5,11.6-11.6,23.8-15.1,36.6l-52.1,6.8
	c-4.3,0.6-7.7,3.9-8.3,8.3c-2.9,20.7-2.9,41.7,0,62.4c0.6,4.3,4,7.7,8.3,8.3l52.1,6.8c3.6,12.7,8.7,25,15.1,36.6l-32,41.7
	c-2.7,3.5-2.7,8.3,0,11.7c12.4,16.4,27.7,31.7,44.1,44.1c3.5,2.6,8.2,2.6,11.7,0l41.7-32.1c11.5,6.5,23.8,11.5,36.5,15.1l6.8,52.1
	c0.6,4.3,3.9,7.7,8.2,8.3c10.6,1.5,20.8,2.2,31.1,2.2c10.3,0,20.6-0.7,31.2-2.2c4.3-0.6,7.7-4,8.2-8.3l6.8-52.2
	c12.7-3.6,24.9-8.7,36.4-15.1l41.7,32.1c3.4,2.6,8.2,2.7,11.7,0c16.6-12.6,31.5-27.5,44.1-44.2c2.6-3.5,2.6-8.3,0-11.7l-32-41.7
	c6.4-11.5,11.5-23.7,15.1-36.4l52.1-6.8c4.3-0.6,7.7-3.9,8.3-8.2C481.6,266,481.6,246.1,478.7,224.8 M460.4,277.3l-51.1,6.7
	c-4,0.5-7.2,3.4-8.1,7.3c-3.7,15.2-9.7,29.7-17.8,43.1c-2.1,3.4-1.8,7.8,0.6,10.9l31.4,41c-9,11-19.1,21.1-30.1,30.1l-40.9-31.5
	c-3.2-2.4-7.5-2.7-10.9-0.6c-13.4,8.2-27.9,14.2-43.1,17.9c-3.9,0.9-6.8,4.2-7.3,8.1l-6.7,51.2c-14.4,1.5-28.1,1.5-42.5,0l-6.7-51.2
	c-0.5-4-3.4-7.2-7.3-8.1c-15.2-3.7-29.7-9.7-43.1-17.9c-3.4-2.1-7.7-1.8-10.9,0.6L125,416.4c-10.9-8.9-21.1-19.1-30.1-30.1
	l31.4-40.9c2.4-3.2,2.7-7.5,0.6-10.9c-8.2-13.4-14.3-28-17.9-43.2c-0.9-3.9-4.2-6.8-8.1-7.3l-51.1-6.7c-1.5-14.1-1.5-28.4,0-42.5
	l51.1-6.7c4-0.5,7.2-3.4,8.1-7.3c3.7-15.3,9.7-29.8,17.9-43.2c2.1-3.4,1.9-7.8-0.6-11l-31.4-40.9c8.9-10.9,19.1-21.2,30.1-30.1
	l40.9,31.5c3.2,2.4,7.5,2.7,10.9,0.6c13.4-8.2,27.9-14.2,43.1-17.9c3.9-0.9,6.8-4.2,7.3-8.1l6.7-51.2c14.4-1.5,28.1-1.5,42.5,0
	l6.7,51.2c0.5,4,3.4,7.2,7.3,8.1c15.2,3.7,29.7,9.7,43.1,17.9c3.4,2.1,7.8,1.9,10.9-0.6l40.9-31.5c11,9,21.1,19.1,30.1,30.1
	l-31.4,41c-2.4,3.2-2.7,7.5-0.6,10.9c8.2,13.4,14.2,27.9,17.8,43.1c0.9,3.9,4.2,6.8,8.1,7.3l51.1,6.7
	C462,249.1,462,262.9,460.4,277.3"/>
</svg>
