<?xml version="1.0" encoding="utf-8"?>
<!-- Generator: Adobe Illustrator 19.1.0, SVG Export Plug-In . SVG Version: 6.00 Build 0)  -->
<svg version="1.1" id="Layer_1" xmlns="http://www.w3.org/2000/svg" xmlns:xlink="http://www.w3.org/1999/xlink" x="0px" y="0px"
	 width="512px" height="512px" viewBox="206 -206 512 512" style="enable-background:new 206 -206 512 512;" xml:space="preserve">
<g>
	<path d="M324.3,10.3c-7.4,27.5-6.4,54.7,2.6,81.7c4.3,12.9,9.5,25.2,16.4,36.9c0.4,0.7,0.7,1.3,1.1,2.1c-6.2,4.3-12.6,7.5-19.6,9
		c-23.7,5.6-44-1.5-60.8-19.4c-18.4-19.7-25.2-43.9-22.9-71.1c0.5-5.3,1.8-10.4,2.8-15.7c0.1-0.8,0.2-1.5,0.3-2.3
		c0.8-2.3,1.5-4.7,2.4-7c0.4-0.6,0.8-1.3,1.2-2c1.6-3.4,3.1-6.9,4.9-10c8.9-15.3,21.2-26.4,37.6-32c1.8-0.6,2.7-1.7,3.5-3.4
		c3.3-7,6.2-14,10-20.6c24.4-42.1,59.1-70.7,104.3-84.8c32.4-10.1,65.1-10.5,97.8-1.6c3.3,0.9,6.5,1.7,9.8,2.6
		c3.4,1.2,6.7,2.5,10,3.7c1,0.6,2.1,1.2,3.1,1.7c8.2,4.3,16.7,7.8,24.5,12.8c30.4,19,53.7,45.1,69.8,78.2c0.5,1.1,1.8,2.1,2.9,2.4
		c8.5,2.1,16.4,5.6,23.3,11.1c27.2,22.1,36.1,51.6,31.5,86.3c-0.5,3.7-1.5,7.4-2.2,11c-0.8,2.3-1.5,4.7-2.4,7
		c-0.5,0.7-0.9,1.4-1.3,2.2c-3,5.4-5.4,11.1-8.9,16.2c-16.3,23.6-44.4,34.8-70,25.8c-1.9-0.7-2.5,0.4-3.2,1.8
		c-3.1,5.7-6,11.5-9.4,17c-13.3,21.5-30.2,39.2-50.5,53.4c-1.2,0.8-1.8,1.7-1.9,3.3c-0.5,6.1-3.1,10.9-8.2,14.1c-7,4.4-14,8.7-21,13
		c-3.3,2-6.9,2.7-10.6,2.2c-0.6-0.1-1.3,0-1.9-0.1c-1.1-0.4-2.3-0.8-3.4-1.2c-0.8-0.6-1.5-1.3-2.4-1.9c-9.5-7.2-9.4-22,0.4-28.7
		c7.3-4.9,14.8-9.4,22.3-13.9c4.9-2.9,10.1-2.8,15.1-0.3c1.4,0.7,2.4,0.5,3.6-0.4c20.9-15.6,37.6-35.1,50.3-58.3
		c4.4-7.8,8.9-15.6,12.5-23.9c3.7-8.7,6.6-18,9.4-27.1c3-9.8,4.5-20.2,5.1-30.4c0.7-11.2-1.3-22.2-3.7-32.9
		c-9.4-40.5-31.6-71.5-65.5-93.3C521.7-84,509.2-89.3,496-92.8c-60.1-15.8-120.9,9.5-153.7,61.4C334.3-18.3,328.3-4.5,324.3,10.3z"
		/>
</g>
</svg>
