<?xml version="1.0" encoding="utf-8"?>
<!-- Generated by IcoMoon.io -->
<!DOCTYPE svg PUBLIC "-//W3C//DTD SVG 1.1//EN" "http://www.w3.org/Graphics/SVG/1.1/DTD/svg11.dtd">
<svg version="1.1" xmlns="http://www.w3.org/2000/svg" xmlns:xlink="http://www.w3.org/1999/xlink" width="512" height="512" viewBox="0 0 512 512">
<g>
</g>
	<path d="M50.944 143.078c0 38.221 12.775 65.843 37.939 82.048 20.608 13.286 44.544 15.283 56.986 15.283 3.021 0 5.427-0.128 7.117-0.231 0 0-3.942 25.677 15.104 51.097l-0.87-0.026c-32.999 0-140.647 6.912-140.647 95.411 0 90.035 98.867 94.592 118.681 94.592 1.561 0 2.458-0.026 2.458-0.026 0.231 0 1.638 0.051 4.045 0.051 12.723 0 45.619-1.587 76.186-16.461 39.629-19.226 59.75-52.711 59.75-99.456 0-45.184-30.618-72.064-52.992-91.725-13.645-11.981-25.446-22.323-25.446-32.384 0-10.24 8.601-17.946 19.507-27.699 17.613-15.769 34.253-38.221 34.253-80.666 0-37.325-4.839-62.362-34.662-78.234 3.123-1.587 14.106-2.739 19.559-3.507 16.154-2.202 39.782-4.711 39.782-17.895v-2.535h-117.709c-1.178 0.026-119.040 4.403-119.040 112.358zM240.973 373.811c2.253 35.993-28.544 62.567-74.778 65.92-46.951 3.456-85.632-17.69-87.885-53.683-1.075-17.28 6.502-34.202 21.376-47.693 15.104-13.645 35.789-22.067 58.342-23.757 2.662-0.154 5.299-0.281 7.936-0.281 43.443 0 72.883 25.549 75.008 59.495zM210.227 118.425c11.546 40.627-5.888 83.097-33.664 90.931-3.2 0.896-6.502 1.357-9.831 1.357-25.472 0-50.688-25.754-60.032-61.235-5.222-19.942-4.813-37.35 1.177-54.118 5.888-16.461 16.461-27.623 29.773-31.36 3.2-0.922 6.528-1.357 9.856-1.357 30.72 0 50.483 12.749 62.72 55.782zM408.601 206.899v-76.8h-48.64v76.8h-76.8v48.64h76.8v76.8h48.64v-76.8h76.8v-48.64h-76.8z" fill="#000000" />
</svg>
