<?xml version="1.0" encoding="UTF-8" standalone="no"?>
<svg width="60px" height="60px" viewBox="0 0 60 60" version="1.1" xmlns="http://www.w3.org/2000/svg" xmlns:xlink="http://www.w3.org/1999/xlink">
    <!-- Generator: Sketch 46.2 (44496) - http://www.bohemiancoding.com/sketch -->
    <title>google</title>
    <desc>Created with Sketch.</desc>
    <defs></defs>
    <g id="Page-1" stroke="none" stroke-width="1" fill="none" fill-rule="evenodd">
        <g id="google" fill="#183247">
            <path d="M20.1515872,26.6336306 L36.6233737,26.6336306 C37.770203,34.7804432 34.3096424,47 20.1515872,47 C10.6798751,47 3,39.3880992 3,29.999338 C3,20.6105767 10.6798751,13 20.1515872,13 C24.5957178,13 28.6450822,14.6749095 31.6921418,17.4249387 C28.103115,20.7840259 28.2208758,20.9839558 26.810423,22.382141 C25.0480262,20.9376144 23.1263847,19.9008918 20.1515872,19.9008918 C14.5244963,19.9008918 10.1325552,24.4224853 10.1325552,29.999338 C10.1325552,35.5775147 14.5244963,40.0991082 20.1515872,40.0991082 C25.7117686,40.0991082 27.9706342,37.722458 29.423909,33.3571011 C26.7408371,33.3571011 20.1515872,33.3663694 20.1515872,33.3663694 L20.1515872,26.6336306 Z M51.0570961,26.9699365 L57,26.9699365 L57,31.1777328 L51.0570961,31.1777328 L51.0570961,37.2378597 L46.812356,37.2378597 L46.812356,31.1777328 L40.6981637,31.1777328 L40.6981637,26.9699365 L46.812356,26.9699365 L46.812356,21.0792866 L51.0570961,21.0792866 L51.0570961,26.9699365 Z" id="Google+"></path>
        </g>
    </g>
</svg>