<?xml version="1.0" encoding="utf-8"?>
<!-- Generator: Adobe Illustrator 17.0.0, SVG Export Plug-In . SVG Version: 6.00 Build 0)  -->
<!DOCTYPE svg PUBLIC "-//W3C//DTD SVG 1.1//EN" "http://www.w3.org/Graphics/SVG/1.1/DTD/svg11.dtd">
<svg version="1.1" id="Layer_1" xmlns="http://www.w3.org/2000/svg" xmlns:xlink="http://www.w3.org/1999/xlink" x="0px" y="0px"
	 width="512px" height="512px" viewBox="0 0 512 512" enable-background="new 0 0 512 512" xml:space="preserve">
<g>
	<g>
		<g>
			<path fill-rule="evenodd" clip-rule="evenodd" d="M131.974,277.398H69.461c-17.262,0-31.257,14.013-31.257,31.301v83.467
				c0,17.288,13.994,31.301,31.257,31.301v41.735c0,17.285,13.994,31.299,31.257,31.299s31.257-14.014,31.257-31.299v-41.735
				c17.261,0,31.257-14.013,31.257-31.301v-83.467C163.231,291.41,149.235,277.398,131.974,277.398z M100.794,257.388
				c29.025,0,52.555-23.562,52.555-52.628s-23.53-52.63-52.555-52.63c-29.025,0-52.555,23.564-52.555,52.63
				S71.769,257.388,100.794,257.388z M288.255,277.398h-62.512c-17.262,0-31.257,14.013-31.257,31.301v83.467
				c0,17.288,13.994,31.301,31.257,31.301v41.735c0,17.285,13.994,31.299,31.257,31.299s31.255-14.014,31.255-31.299v-41.735
				c17.264,0,31.258-14.013,31.258-31.301v-83.467C319.514,291.41,305.519,277.398,288.255,277.398z M204.521,204.76
				c0,29.066,23.53,52.628,52.555,52.628c29.025,0,52.555-23.562,52.555-52.628s-23.53-52.63-52.555-52.63
				C228.051,152.131,204.521,175.694,204.521,204.76z M444.539,277.398h-62.512c-17.264,0-31.257,14.013-31.257,31.301v83.467
				c0,17.288,13.993,31.301,31.257,31.301v41.735c0,17.285,13.993,31.299,31.255,31.299c17.264,0,31.257-14.014,31.257-31.299
				v-41.735c17.262,0,31.257-14.013,31.257-31.301v-83.467C475.796,291.41,461.802,277.398,444.539,277.398z M360.804,204.76
				c0,29.066,23.531,52.628,52.555,52.628c29.026,0,52.555-23.562,52.555-52.628s-23.528-52.63-52.555-52.63
				C384.335,152.131,360.804,175.694,360.804,204.76z M382.564,69.125c0-29.066-23.53-52.63-52.555-52.63
				c-29.026,0-52.555,23.564-52.555,52.63c0,29.065,23.528,52.628,52.555,52.628C359.034,121.753,382.564,98.19,382.564,69.125z
				 M236.699,69.125c0-29.066-23.53-52.63-52.553-52.63c-29.026,0-52.555,23.564-52.555,52.63c0,29.065,23.528,52.628,52.555,52.628
				C213.169,121.753,236.699,98.19,236.699,69.125z"/>
		</g>
	</g>
</g>
</svg>
