<?xml version="1.0" encoding="utf-8"?>
<!-- Generator: Adobe Illustrator 17.0.0, SVG Export Plug-In . SVG Version: 6.00 Build 0)  -->
<!DOCTYPE svg PUBLIC "-//W3C//DTD SVG 1.1//EN" "http://www.w3.org/Graphics/SVG/1.1/DTD/svg11.dtd">
<svg version="1.1" id="Layer_1" xmlns="http://www.w3.org/2000/svg" xmlns:xlink="http://www.w3.org/1999/xlink" x="0px" y="0px"
	 width="512px" height="512px" viewBox="0 0 512 512" enable-background="new 0 0 512 512" xml:space="preserve">
<g>
	<path d="M188.939,227.289l-43.893,4.834c17.215-77.78,67.655-156.889,139.823-156.889v-9.881
		c-106.847,0-196.108,75.099-218.004,175.379l-60.708,6.685c-4.593,7.26-3.026,16.921,3.937,22.222l95.537,76.739
		c7.356,5.6,17.859,4.178,23.459-3.177l60-95.538C193.789,241.492,193.485,233.138,188.939,227.289z"/>
	<path d="M462.65,352.982l-112.571-7.433c-7.663-1.205-14.871,3.03-17.86,9.808l25.82,37.379
		c-76.824,23.445-171.852,20.464-207.747-39.924l-8.494,5.049c54.22,91.218,163.249,129.66,260.143,98.428l34.793,50.367
		c8.57,0.594,16.328-5.373,17.687-14.017l22.165-120.52C478.022,362.985,471.783,354.417,462.65,352.982z"/>
	<path d="M417.248,78.52l14.173-62.913c-5.371-6.704-15.017-8.365-22.294-3.505l-103.64,65.385
		c-7.688,5.135-9.759,15.529-4.625,23.217l70.829,87.811c4.307,6.451,12.307,8.881,19.316,6.485l9.11-40.438
		c59.074,45.91,102.716,117.823,76.433,181.234l9.128,3.783C524.912,244.924,494.14,138.775,417.248,78.52z"/>
</g>
</svg>
