<?xml version="1.0" encoding="utf-8"?>
<!-- Generator: Adobe Illustrator 17.0.0, SVG Export Plug-In . SVG Version: 6.00 Build 0)  -->
<!DOCTYPE svg PUBLIC "-//W3C//DTD SVG 1.1//EN" "http://www.w3.org/Graphics/SVG/1.1/DTD/svg11.dtd">
<svg version="1.1" id="Layer_1" xmlns="http://www.w3.org/2000/svg" xmlns:xlink="http://www.w3.org/1999/xlink" x="0px" y="0px"
	 width="512px" height="512px" viewBox="0 0 512 512" enable-background="new 0 0 512 512" xml:space="preserve">
<g>
	<path d="M128.089,344.202l60-95.538c4.7-6.172,4.395-14.526-0.15-20.375l-43.893,4.834
		c17.216-77.78,67.655-156.889,139.823-156.889v-9.881c-106.847,0-196.107,75.099-218.004,175.379l-60.708,6.685
		c-4.593,7.26-3.026,16.921,3.937,22.222l95.537,76.739C111.986,352.98,122.489,351.557,128.089,344.202z"/>
	<path d="M510.618,87.116L493.25,69.177L103.649,446.374l17.368,17.939l58.729-56.859c58.76,55.283,143.841,74.767,221.196,49.833
		l34.793,50.367c8.57,0.594,16.328-5.373,17.687-14.017l22.165-120.52c1.435-9.133-4.803-17.701-13.936-19.136l-112.571-7.433
		c-7.663-1.205-14.871,3.03-17.86,9.808l25.82,37.379c-54.132,16.52-117.284,19.895-162.435-0.667l226.09-218.891
		c47.423,45.365,77.813,107.234,54.857,162.619l9.128,3.783c29.529-71.241,19.388-148.985-20.214-208.78L510.618,87.116z"/>
	<path d="M346.35,159.337l76.702-74.26c-2.227-1.892-4.493-3.746-6.804-5.557l14.173-62.913c-5.371-6.704-15.017-8.365-22.294-3.505
		l-103.64,65.385c-7.688,5.135-9.759,15.529-4.625,23.217L346.35,159.337z"/>
</g>
</svg>
