<?xml version="1.0" encoding="utf-8"?>
<!-- Generator: Adobe Illustrator 19.0.0, SVG Export Plug-In . SVG Version: 6.00 Build 0)  -->
<svg version="1.1" id="Layer_1" xmlns="http://www.w3.org/2000/svg" xmlns:xlink="http://www.w3.org/1999/xlink" x="0px" y="0px"
	 width="512px" height="512px" viewBox="0 0 512 512" enable-background="new 0 0 512 512" xml:space="preserve">
<g>
	<g>
		<path d="M145.6,273.5H90.8c-15.1,0-27.3,12.3-27.3,27.7v73.8c0,15.2,12.3,27.7,27.3,27.7v36.9c0,15.2,12.3,27.7,27.3,27.7
			s27.3-12.3,27.3-27.7v-36.9c15.1,0,27.3-12.3,27.3-27.7v-73.8C172.9,285.8,160.6,273.5,145.6,273.5z M118.2,255.8
			c25.4,0,46-20.8,46-46.5s-20.6-46.5-46-46.5s-46,20.8-46,46.5C72.2,235,92.8,255.8,118.2,255.8z M282.3,273.5h-54.8
			c-15.1,0-27.3,12.3-27.3,27.7v73.8c0,15.2,12.3,27.7,27.3,27.7v36.9c0,15.2,12.3,27.7,27.3,27.7c15.1,0,27.3-12.3,27.3-27.7v-36.9
			c15.1,0,27.3-12.3,27.3-27.7v-73.8C309.8,285.8,297.5,273.5,282.3,273.5z M209.1,209.3c0,25.7,20.6,46.5,46,46.5
			c25.4,0,46-20.8,46-46.5s-20.6-46.5-46-46.5C229.6,162.8,209.1,183.6,209.1,209.3z M419.2,273.5h-54.8
			c-15.1,0-27.3,12.3-27.3,27.7v73.8c0,15.2,12.3,27.7,27.3,27.7v36.9c0,15.2,12.3,27.7,27.3,27.7s27.3-12.3,27.3-27.7v-36.9
			c15.1,0,27.3-12.3,27.3-27.7v-73.8C446.5,285.8,434.3,273.5,419.2,273.5z M345.9,209.3c0,25.7,20.6,46.5,46,46.5
			c25.4,0,46-20.8,46-46.5s-20.6-46.5-46-46.5C366.5,162.8,345.9,183.6,345.9,209.3z M364.9,89.4c0-25.7-20.6-46.5-46-46.5
			c-25.4,0-46,20.9-46,46.5s20.6,46.5,46,46.5C344.3,135.9,364.9,115.1,364.9,89.4z M237.2,89.4c0-25.7-20.6-46.5-46-46.5
			s-46,20.9-46,46.5s20.6,46.5,46,46.5S237.2,115.1,237.2,89.4z"/>
	</g>
</g>
</svg>
