<?xml version="1.0" encoding="utf-8"?>
<!-- Generator: Adobe Illustrator 19.1.0, SVG Export Plug-In . SVG Version: 6.00 Build 0)  -->
<svg version="1.1" id="Layer_1" xmlns="http://www.w3.org/2000/svg" xmlns:xlink="http://www.w3.org/1999/xlink" x="0px" y="0px"
	 width="512px" height="512px" viewBox="0 0 512 512" style="enable-background:new 0 0 512 512;" xml:space="preserve">
<style type="text/css">
	.st0{fill:#010101;}
</style>
<g>
	<path id="text-file-4-icon" class="st0" d="M438,428.7h-75.4v-13.5H438V428.7z M437.9,403.9h-75.4v-13.5h75.4V403.9z M437.9,379
		h-75.4v-13.5h75.4V379z M419.2,303v38.5h38.5V452H343.2V303H419.2 M430.5,285H325.3v184.8h150.4V330.2L430.5,285z"/>
	<g>
		<path class="st0" d="M92.6,231.4c22.8,0,41.4-18.7,41.4-41.8s-18.5-41.8-41.4-41.8c-22.8,0-41.4,18.7-41.4,41.8
			S69.7,231.4,92.6,231.4z"/>
		<path class="st0" d="M199.6,81.8c0-23.1-18.5-41.8-41.4-41.8c-22.8,0-41.4,18.8-41.4,41.8s18.5,41.8,41.4,41.8
			C181,123.7,199.6,105,199.6,81.8z"/>
		<path class="st0" d="M297.3,189.6c0,23.1,18.5,41.8,41.4,41.8c22.8,0,41.4-18.7,41.4-41.8s-18.5-41.8-41.4-41.8
			S297.3,166.5,297.3,189.6z"/>
		<path class="st0" d="M117.2,247.4H67.9c-13.6,0-24.5,11.1-24.5,24.9v66.3c0,13.7,11.1,24.9,24.5,24.9v33.2
			c0,13.7,11.1,24.9,24.5,24.9s24.5-11.1,24.5-24.9v-33.2c13.6,0,24.5-11.1,24.5-24.9v-66.3C141.7,258.4,130.7,247.4,117.2,247.4z"
			/>
		<path class="st0" d="M314.4,81.8c0-23.1-18.5-41.8-41.4-41.8c-22.8,0-41.4,18.8-41.4,41.8s18.5,41.8,41.4,41.8
			C295.9,123.7,314.4,105,314.4,81.8z"/>
		<path class="st0" d="M174.3,189.6c0,23.1,18.5,41.8,41.4,41.8s41.3-18.6,41.3-41.8c0-23.1-18.5-41.8-41.4-41.8
			S174.3,166.5,174.3,189.6z"/>
		<path class="st0" d="M301.6,266.5h85.3c-2.5-11-12.1-19.1-23.7-19.1h-49.3c-13.6,0-24.5,11.1-24.5,24.9v66.3
			c0,9.1,5,17.1,12.2,21.4L301.6,266.5L301.6,266.5z"/>
		<path class="st0" d="M240.1,247.4h-49.3c-13.6,0-24.5,11.1-24.5,24.9v66.3c0,13.7,11.1,24.9,24.5,24.9v33.2
			c0,13.7,11.1,24.9,24.5,24.9c13.6,0,24.5-11.1,24.5-24.9v-33.2c13.6,0,24.5-11.1,24.5-24.9v-66.3
			C264.8,258.4,253.8,247.4,240.1,247.4z"/>
	</g>
</g>
</svg>
