<?xml version="1.0" encoding="utf-8"?>
<!-- Generator: Adobe Illustrator 19.1.0, SVG Export Plug-In . SVG Version: 6.00 Build 0)  -->
<svg version="1.1" id="Layer_1" xmlns="http://www.w3.org/2000/svg" xmlns:xlink="http://www.w3.org/1999/xlink" x="0px" y="0px"
	 width="512px" height="512px" viewBox="0 0 512 512" style="enable-background:new 0 0 512 512;" xml:space="preserve">
<path d="M161.7,325.7c0-38.2-18.9-57.4,0-76.5s56.6-19.1,94.4-19.1c37.8,0,75.5,0,94.4,19.1s0,38.2,0,76.5
	c0,38.2,113.3,38.2,132.2,19.1c18.9-19.1,0-114.7,0-114.7c-37.8-38.2-153.1-76.5-226.5-76.5S67.3,191.8,29.6,230.1
	c0,0-18.9,95.6,0,114.7C48.5,363.9,161.7,363.9,161.7,325.7z"/>
</svg>
