<?xml version="1.0" encoding="utf-8"?>
<!-- Generator: Adobe Illustrator 19.2.1, SVG Export Plug-In . SVG Version: 6.00 Build 0)  -->
<svg version="1.1" id="Layer_1" xmlns="http://www.w3.org/2000/svg" xmlns:xlink="http://www.w3.org/1999/xlink" x="0px" y="0px"
	 width="512px" height="512px" viewBox="0 0 512 512" style="enable-background:new 0 0 512 512;" xml:space="preserve">
<g>
	<path d="M255.1,228.9c29.2,0,58.4,0,87.7,0c8.2,0,9-0.9,9-9.2c0-27.6,0-55.1,0-82.7c0-7.3-0.7-14.5-1.9-21.6
		c-2-12.1-6.5-16.1-18.8-16.6c-5.1-0.2-10.2-0.7-15.1-2.2c-6.8-2.1-9.5-5.6-9.9-12.5c-0.3-4.9,0.7-9.5,3.2-13.8
		c2.5-4.4,6.6-5.8,11.3-5.6c17.8,0.6,35.6,1.3,53.4,1.8c23.6,0.6,47.2-1.6,70.7-1.8c13.1-0.1,21.4,14.3,15,25.9
		c-2.8,5-7.6,6.6-12.9,7.1c-4.8,0.5-9.5,0.7-14.3,1.1c-8.3,0.7-12.2,3.8-14.6,11.8c-2.3,7.8-3,15.9-3.1,24
		c-0.1,81.2-0.1,162.4,0.1,243.6c0,7.7,0.6,15.5,2.8,23c1.8,6.3,5.6,10.2,12.3,11.4c5.4,0.9,10.8,1.6,16.2,1.8
		c6.8,0.3,12.9,2.4,15.6,9.3c2.9,7.5,0.9,14.7-3.8,21c-2.1,2.9-5.6,3.1-9,3.1c-27.7-0.2-55.4-2-83.2-1.3c-14.7,0.4-29.4,0.7-44,1.1
		c-9.5,0.3-14.1-3.7-15.7-13.9c-1.4-9.1,2.8-16.3,11.1-18.3c4.3-1.1,8.8-1.4,13.2-2.1c15.1-2.3,19.2-7,20.6-22.2
		c0.8-9.1,0.9-18.1,0.9-27.2c0-28.4,0-56.8-0.1-85.2c0-8.1-0.1-8-8-8.9c-4.1-0.5-8.2-0.6-12.3-0.6c-50.4,0-100.7,0-151.1,0
		c-5.6,0-11.2,0.6-16.8,0.7c-3.1,0.1-4.7,1.2-4.4,4.4c0.1,0.8,0,1.6,0,2.5c0,33.8,0,67.7,0,101.5c0,7.5,0.7,14.8,2.8,22
		c2.5,8.8,6.4,12,15.4,12.8c5.1,0.5,10.2,0.7,15.3,1.1c6.7,0.4,13.1,2.1,16.1,8.7c3.2,7,1.4,13.9-2.6,20.2
		c-2.3,3.7-6.2,4.5-10.4,4.5c-28.5-0.2-57.1-2.2-85.6-1.2c-13.9,0.5-27.7,0.7-41.6,1.2c-8.6,0.3-13.8-2.9-15.6-13.4
		c-1.7-10,2.7-17.1,11.3-19.1c5.3-1.2,10.7-2,16-3c7.3-1.4,11.3-5.8,13.1-13c2.6-10.6,2.1-21.3,2.1-32c0-72.1,0-144.3,0-216.4
		c0-11.9,0.1-23.7-2.2-35.5c-2.4-12.2-6-15.7-18.3-16.7c-4.4-0.4-8.9-0.5-13.3-0.8C51.5,97.1,45.7,90,47.3,80
		c0.4-2.5,0.9-4.8,1.8-7.2c2.1-5.7,6.1-8.4,12.1-8.2c18.6,0.6,37.3,1.3,55.9,1.8c23.4,0.6,46.8-1.6,70.2-1.8
		c12.9-0.1,21.3,13.8,15.3,25.4c-2.7,5.3-7.8,6.8-13.2,7.5c-3.9,0.5-7.9,0.7-11.8,1.1c-9.8,0.8-14.2,4.6-16.4,14.2
		c-2.1,9.1-2.3,18.3-2.3,27.6c0,27.2,0.1,54.5,0.1,81.7c0,6.1,0.6,6.8,6.9,6.8C195.6,228.9,225.3,228.9,255.1,228.9
		C255.1,228.9,255.1,228.9,255.1,228.9z"/>
</g>
</svg>
