<?xml version="1.0" encoding="UTF-8" standalone="no"?>
<svg width="60px" height="60px" viewBox="0 0 60 60" version="1.1" xmlns="http://www.w3.org/2000/svg" xmlns:xlink="http://www.w3.org/1999/xlink">
    <!-- Generator: Sketch 46.2 (44496) - http://www.bohemiancoding.com/sketch -->
    <title>headphone</title>
    <desc>Created with Sketch.</desc>
    <defs></defs>
    <g id="Page-1" stroke="none" stroke-width="1" fill="none" fill-rule="evenodd">
        <g id="headphone" fill="#183247">
            <path d="M30.0497463,2 C17.2220614,2 7,12.2918919 7,25.2072072 L7,40.645045 C7,44.8828829 10.4073538,48.4144144 14.7166542,48.4144144 L21.1304967,48.4144144 L21.1304967,30.3531532 L12.211247,30.3531532 L12.211247,25.2072072 C12.211247,15.218018 20.2285501,7.14594595 30.1499626,7.14594595 C40.0713752,7.14594595 48.0886783,15.218018 48.0886783,25.2072072 L48.0886783,30.3531532 L39.1694286,30.3531532 L39.1694286,48.4144144 L45.1824059,48.4144144 L45.1824059,48.818018 C45.1824059,52.6522523 42.075701,55.7801802 38.267482,55.7801802 L31.3525581,55.7801802 C30.7512604,55.7801802 30.2501789,56.2846847 30.2501789,56.8900901 L30.2501789,56.8900901 C30.2501789,57.4954955 30.7512604,58 31.3525581,58 L38.0670494,58 C43.1780801,58 47.286948,53.8630631 47.286948,48.7171171 L47.286948,48.2126126 C50.5940855,47.3045045 52.9992764,44.2774775 52.9992764,40.7459459 L52.9992764,25.2072072 C53.0994927,12.2918919 42.777215,2 30.0497463,2 Z" id="Shape"></path>
        </g>
    </g>
</svg>