<?xml version="1.0" encoding="utf-8"?>
<!-- Generator: Adobe Illustrator 17.1.0, SVG Export Plug-In . SVG Version: 6.00 Build 0)  -->
<!DOCTYPE svg PUBLIC "-//W3C//DTD SVG 1.1//EN" "http://www.w3.org/Graphics/SVG/1.1/DTD/svg11.dtd">
<svg version="1.1" id="Layer_1" xmlns="http://www.w3.org/2000/svg" xmlns:xlink="http://www.w3.org/1999/xlink" x="0px" y="0px"
	 viewBox="0 0 512 512" enable-background="new 0 0 512 512" xml:space="preserve">
<path d="M259.9,457.1c-109.8,0-199.1-89.3-199.1-199.1c0-109.8,89.3-199.1,199.1-199.1c109.8,0,199.1,89.3,199.1,199.1
	C459,367.7,369.7,457.1,259.9,457.1z M259.9,88.6c-93.4,0-169.3,75.9-169.3,169.3c0,93.4,75.9,169.3,169.3,169.3
	c93.4,0,169.3-75.9,169.3-169.3C429.2,164.6,353.2,88.6,259.9,88.6z"/>
<path fill="#010101" d="M246,367c-0.6,0-1-0.4-1-1v-27.7c0-0.6,0.4-1,1-1h27.7c0.6,0,1,0.4,1,1V366c0,0.6-0.4,1-1,1H246z M246,310.5
	c-0.6,0-1-0.4-1-1v-32.7c0-8.2,6.7-14.8,14.9-14.8c11.5,0,22.6-4.8,30.5-13.3c8-8.6,11.9-19.7,11.1-31.4
	c-1.4-20.4-17.9-37-38.4-38.6c-1.1-0.1-2.1-0.1-3.2-0.1c-23,0-41.7,18.7-41.7,41.7v0.1c0,4-1.5,7.7-4.3,10.5
	c-2.7,2.7-6.3,4.2-10.1,4.2h-0.8c-7.9,0-14.3-6.4-14.4-14.2l0-0.6c0-39.3,32-71.4,71.4-71.4c39.4,0,71.4,32,71.4,71.4
	c0,32.3-22,60.6-53.5,68.8c-1.8,0.5-3.1,2.1-3.1,3.9v16.5c0,0.6-0.4,1-1,1H246z"/>
</svg>
