<?xml version="1.0" encoding="utf-8"?>
<!-- Generator: Adobe Illustrator 19.1.0, SVG Export Plug-In . SVG Version: 6.00 Build 0)  -->
<svg version="1.1" id="Layer_1" xmlns="http://www.w3.org/2000/svg" xmlns:xlink="http://www.w3.org/1999/xlink" x="0px" y="0px"
	 width="512px" height="512px" viewBox="0 0 512 512" style="enable-background:new 0 0 512 512;" xml:space="preserve">
<style type="text/css">
	.st0{fill:#010101;}
</style>
<path class="st0" d="M256.1,36.5C135,36.5,36.5,135,36.5,256.1S135,475.7,256.1,475.7s219.6-98.5,219.6-219.6S377.1,36.5,256.1,36.5
	z M256.1,437.1c-99.8,0-181-81.2-181-181s81.2-181,181-181s181,81.2,181,181S355.9,437.1,256.1,437.1z"/>
<path class="st0" d="M253.1,337.4c-14.1,0-25.5,11.4-25.5,25.5c0,14.1,11.4,25.5,25.5,25.5c14.3,0,25.8-11.4,25.8-25.5
	C279,348.8,267.4,337.4,253.1,337.4z"/>
<path class="st0" d="M293,136.9c-11.3-8.5-25.3-13.1-39.5-13.1c-4.4,0-8.9,0.5-12.9,1.3c-18.6,3.3-34.7,14.7-43.8,30.7
	c-6.3,10-3.9,21.9,6,29.6l1.9,1.3c10.2,5.7,24.3,1.5,29.5-7.9c3.3-5.6,8.7-9.3,14.5-10.8c6.4-1.1,12.4-0.1,17.6,4.2
	c4.8,3.5,7.9,9.4,8.6,16.1c0.6,5.6-1.8,11.6-6.3,16.3L250.2,223c-12.6,12.6-18.9,28.1-18.9,46.2v29.1c0,12.3,9.6,21.8,21.8,21.8
	c12.3,0,22.2-9.8,22.2-21.8v-29.1c0-6.1,2-11.1,6.3-15.4l18.3-18.6c13.3-13.8,20.1-32.3,18.7-50.8C317.2,165.4,308.5,149,293,136.9z
	"/>
</svg>
