<?xml version="1.0" encoding="utf-8"?>
<!-- Generated by IcoMoon.io -->
<!DOCTYPE svg PUBLIC "-//W3C//DTD SVG 1.1//EN" "http://www.w3.org/Graphics/SVG/1.1/DTD/svg11.dtd">
<svg version="1.1" xmlns="http://www.w3.org/2000/svg" xmlns:xlink="http://www.w3.org/1999/xlink" width="1024" height="1024" viewBox="0 0 1024 1024"><g id="icomoon-ignore">
</g>
<path d="M537.2 692.6c-0.4-1.8-2.2-3-3.8-2.6-2.2 0.4-3.8 0.4-5.4 0.8-3.4 0.4-5.2 0.8-10.4 0.8-5.6 0-7.2-0.4-10.8-0.8-1.4-0.2-3.2-0.4-5.4-0.8-1.8-0.2-3.4 1-3.8 2.6l-11.6 41.4c-0.2 0.4-0.2 1.2-0.2 1.8l10 55.2c0.4 1.8 1.8 3.2 3.6 3.2h35.6c1.8 0 3.4-1.2 3.6-3.2l9.8-56.2c0.2-0.4 0.2-1.2-0.2-1.8l-11-40.4zM776.2 734.2c-48.2-48.2-107-82-170.6-98-1.4-1-3.4-1.4-5.4-1.4h-5.8c-0.2 0-0.4 0-0.4 0l26 57.6-54.2 101.4h202.4c6 0 11.2-5.2 11.2-11.2v-40.4c0-3-1.2-5.8-3.2-8v0zM441.2 635c-0.2 0-0.4 0-0.4 0h-4.2c-0.8 0-1.8 0.2-2.6 0.2-65 15.8-125.6 50.2-174.6 99.2-2.2 2.2-3.4 5.2-3.4 8v40.2c0 6 4.8 11.2 11.2 11.2h200.8l-53.2-100 26.4-58.8zM581 606.2v-34.8c4.6-4.6 8.8-9.4 12.4-14.6-10 4.2-20.4 7.2-31.4 9.4-2 8-9 13.8-17.8 13.8h-29.6c-10.2 0-18.2-8.2-18.2-18.8 0-10.4 8-18.8 18.2-18.8h29.6c6 0 11.4 3.2 14.6 7.8 18.2-3.6 35-10.4 49.4-19.8 6.8-14.6 11-30.6 12-46.4h0.4c3.6 0 7.2-1.2 10.4-3.2 0.4 0 1 0.2 1.4 0.2h5.8c8 0 14.4-6.6 14.4-14.6v2c13.8-24.8 21-53 21-81.8 0.2-91.4-71.6-165.6-159.8-165.6s-160 74.2-160 165c0 28.4 7.2 56.6 21 81.2v-1.2c0 8 6 14.4 13.8 14.6 2.2-0.2 4.2-0.8 6-1.8 3.4 3 7.8 4.8 12.4 4.8h0.4c2.6 32.4 23.4 64.4 45.4 86.6v35.8c0 1.2 0.2 2.4 0.8 3.4 3 5.8 29.4 57.4 63 58.2h0.8c33.4 0 59.6-52.4 62.6-58.4 0.8-0.6 1-1.8 1-3v0zM395.6 376c-2-1.2-4.4-2-7-2-3.6 0.2-17.6 0.4-19 1.4 5.4-69.8 75.8-146.4 144.8-146.4s139.4 76.6 144.8 146.4c-2-1-18-1.4-20.2-1.4h-5.8c-11.2-58.2-58.8-102-115.6-102-57.6 0-110.4 44.8-122 104v0zM389.6 481c-0.2 0-0.4 0-0.4 0-0.2 0-0.4 0-0.4 0h0.8zM388.6 374.2v0c0.4 0 0.8 0 1 0h-1z"></path>
<path d="M856 568.4c-0.2-1.2-1.4-2-2.4-1.8-1.4 0.2-2.4 0.2-3.4 0.4-2.2 0.2-3.2 0.4-6.6 0.4s-4.6-0.2-6.8-0.4c-1-0.2-2-0.2-3.4-0.4-1.2-0.2-2.2 0.4-2.4 1.8l-7.2 26c0 0.2-0.2 0.8 0 1l6.2 34.6c0.2 1.2 1.2 2 2.2 2h22.4c1 0 2.2-0.8 2.2-2l6-35.2c0-0.2 0-0.8 0-1l-6.8-25.4zM1005.8 594.8c-30.2-30.2-67.4-51.4-107-61.6-1-0.4-2.2-1-3.4-1h-3.8l16.2 36.2-34 63.8h127.2c3.8 0 7-3.2 7-7v-25.4c-0.2-1.8-1-3.6-2.2-5v0zM795.4 532.4c-0.2 0-0.2 0-0.2 0h-2.6c-0.4 0-1 0-1.8 0.2-40.8 10-78.8 31.4-109.8 62.2-1.4 1.4-2.2 3.2-2.2 5.2v25c0 3.8 3.2 7 7 7h126.2l-33.4-62.8 16.8-36.8zM883.2 514.4v-21.8c3-3 5.4-5.8 7.8-9.2-6.4 2.6-12.8 4.6-19.8 6-1.2 5.2-5.6 8.8-11.2 8.8h-18.8c-6.4 0-11.4-5.4-11.4-11.6 0-6.6 5.2-11.6 11.4-11.6h18.8c3.8 0 7.2 2 9.2 4.8 11.4-2.2 21.8-6.6 30.8-12.4 4.2-9.2 6.8-19.2 7.6-29.2h0.2c2.4 0 4.6-0.8 6.6-2 0.2 0 0.8 0 1 0h3.6c5.2 0 9-4.2 9-9.2v1.2c8.8-15.6 13.2-33.4 13.2-51.4 0.2-57.4-45-104.2-100.2-104.2-55.4 0-100.4 46.4-100.4 103.6 0 18 4.6 35.6 13.2 51v-0.8c0 5.2 3.8 9 8.8 9.2 1.4 0 2.6-0.4 3.8-1 2.2 2 4.8 3 7.8 3h0.2c1.4 20.2 14.6 40.4 28.2 54.2v22.6c0 0.8 0.2 1.4 0.4 2.2 1.8 3.6 18.4 36 39.4 36.4h0.4c21 0 37.4-32.8 39.2-36.4 1.2-0.6 1.2-1.4 1.2-2.2v0zM767 370c-1.2-0.8-2.6-1.2-4.4-1.2-2.4 0-11 0.2-12 1 3.4-43.8 47.6-92 91-92s87.6 48.2 91 92c-1.2-0.4-11.2-1-12.6-1h-3.6c-7-36.4-36.8-64.2-72.8-64.2-36.2 0-69.4 28-76.6 65.4zM763 435.6v0zM762.6 368.6v0c0.2 0 0.4 0 0.4 0h-0.4z"></path>
<path d="M197.4 568.4c-0.2-1.2-1.4-2-2.4-1.8-1.4 0.2-2.4 0.2-3.4 0.4-2.2 0.2-3.2 0.4-6.6 0.4s-4.6-0.2-6.8-0.4c-1-0.2-2-0.2-3.4-0.4-1.2-0.2-2.2 0.4-2.4 1.8l-7.2 26c0 0.2-0.2 0.8 0 1l6.4 34.6c0.2 1.2 1.2 2 2.2 2h22.2c1 0 2.2-0.8 2.2-2l6-35.2c0-0.2 0-0.8 0-1l-6.8-25.4zM347.2 594.8c-30.2-30.2-67.4-51.4-107-61.6-1-0.4-2.2-1-3.4-1h-3.8l16.2 36.2-34 63.8h127.2c3.8 0 7-3.2 7-7v-25.4c0-1.8-1-3.6-2.2-5v0zM136.8 532.4c-0.2 0-0.2 0-0.2 0h-2.6c-0.4 0-1 0-1.8 0.2-40.8 10-78.8 31.4-109.8 62.2-1.4 1.4-2.2 3.2-2.2 5.2v25c0 3.8 3.2 7 7 7h126.2l-33.4-62.8 16.8-36.8zM224.6 514.4v-21.8c3-3 5.4-5.8 7.8-9.2-6.4 2.6-12.8 4.6-19.8 6-1.2 5.2-5.6 8.8-11.2 8.8h-18.8c-6.4 0-11.4-5.4-11.4-11.6 0-6.6 5.2-11.6 11.4-11.6h18.8c3.8 0 7.2 2 9.2 4.8 11.4-2.2 21.8-6.6 30.8-12.4 4.2-9.2 6.8-19.2 7.6-29.2h0.2c2.4 0 4.6-0.8 6.6-2 0.2 0 0.8 0 1 0h3.6c5.2 0 9-4.2 9-9.2v1.2c8.8-15.6 13.2-33.4 13.2-51.4 0.2-57.4-45-104.2-100.2-104.2s-100.4 46.4-100.4 103.6c0 18 4.6 35.6 13.2 51v-0.8c0 5.2 3.8 9 8.8 9.2 1.4 0 2.6-0.4 3.8-1 2.2 2 4.8 3 7.8 3h0.2c1.4 20.2 14.6 40.4 28.2 54.2v22.6c0 0.8 0.2 1.4 0.4 2.2 1.8 3.6 18.4 36 39.4 36.4h0.4c21 0 37.4-32.8 39.2-36.4 1.2-0.6 1.2-1.4 1.2-2.2v0zM108.4 370c-1.2-0.8-2.6-1.2-4.4-1.2-2.4 0-11 0.2-12 1 3.4-43.8 47.6-92 91-92s87.6 48.2 91 92c-1.2-0.4-11.2-1-12.6-1h-3.6c-7-36.4-36.8-64.2-72.8-64.2-36.2 0-69.4 28-76.6 65.4v0zM104.6 435.6v0zM104 368.6v0c0.2 0 0.4 0 0.4 0h-0.4z"></path>
</svg>
