<?xml version="1.0" encoding="utf-8"?>
<!-- Generator: Adobe Illustrator 18.1.1, SVG Export Plug-In . SVG Version: 6.00 Build 0)  -->
<svg version="1.1" id="Layer_1" xmlns="http://www.w3.org/2000/svg" xmlns:xlink="http://www.w3.org/1999/xlink" x="0px" y="0px"
	 width="512px" height="512px" viewBox="0 0 512 512" enable-background="new 0 0 512 512" xml:space="preserve">
<g>
	<path d="M104.8,215.7c-8.1,27.7-7,55.1,2.9,82.2c4.7,13,10.5,25.4,18.1,37.1c0.4,0.7,0.8,1.3,1.2,2.1c-6.8,4.3-13.9,7.5-21.6,9.1
		c-26.1,5.6-48.5-1.5-66.9-19.5c-20.3-19.8-27.7-44.2-25.2-71.6c0.5-5.3,2-10.5,3.1-15.8c0.1-0.8,0.2-1.5,0.3-2.3
		c0.9-2.3,1.7-4.7,2.6-7c0.4-0.6,0.9-1.3,1.3-2c1.8-3.4,3.4-6.9,5.4-10.1c9.8-15.4,23.3-26.6,41.4-32.2c2-0.6,3-1.7,3.9-3.4
		c3.6-7,6.8-14.1,11-20.7c26.9-42.4,65.1-71.2,114.8-85.4c35.7-10.2,71.7-10.6,107.7-1.6c3.6,0.9,7.2,1.7,10.8,2.6
		c3.7,1.2,7.4,2.5,11,3.7c1.1,0.6,2.3,1.2,3.4,1.7c9,4.3,18.4,7.9,27,12.9c33.5,19.1,59.1,45.4,76.8,78.7c0.6,1.1,2,2.1,3.2,2.4
		c9.4,2.1,18.1,5.6,25.7,11.2c30,22.2,39.8,51.9,34.7,86.9c-0.5,3.7-1.6,7.4-2.4,11.1c-0.9,2.3-1.7,4.7-2.6,7
		c-0.5,0.7-1,1.4-1.4,2.2c-3.3,5.4-6,11.2-9.8,16.3c-18,23.8-48.9,35-77.1,26c-2.1-0.7-2.7,0.4-3.5,1.8c-3.4,5.7-6.6,11.6-10.3,17.1
		c-14.6,21.6-33.2,39.5-55.6,53.8c-1.3,0.8-2,1.7-2.1,3.3c-0.5,6.1-3.4,11-9,14.2c-7.7,4.4-15.4,8.8-23.1,13.1
		c-3.6,2-7.6,2.7-11.7,2.2c-0.7-0.1-1.4,0-2.1-0.1c-1.2-0.4-2.5-0.8-3.7-1.2c-0.9-0.6-1.7-1.3-2.6-1.9c-10.5-7.2-10.4-22.1,0.4-28.9
		c8-4.9,16.3-9.5,24.5-14c5.4-2.9,11.1-2.8,16.6-0.3c1.5,0.7,2.6,0.5,4-0.4c23-15.7,41.4-35.3,55.4-58.7c4.8-7.9,9.8-15.7,13.8-24.1
		c4.1-8.8,7.3-18.1,10.4-27.3c3.3-9.9,4.9-20.3,5.6-30.6c0.8-11.3-1.4-22.3-4.1-33.1c-10.4-40.8-34.8-72-72.1-93.9
		c-12.7-7.5-26.5-12.9-41-16.4c-66.2-15.9-133.1,9.6-169.2,61.8C115.8,186.9,109.2,200.8,104.8,215.7z"/>
</g>
</svg>
