<?xml version="1.0" encoding="utf-8"?>
<!-- Generator: Adobe Illustrator 19.0.0, SVG Export Plug-In . SVG Version: 6.00 Build 0)  -->
<svg version="1.1" id="Layer_1" xmlns="http://www.w3.org/2000/svg" xmlns:xlink="http://www.w3.org/1999/xlink" x="0px" y="0px"
	 width="512px" height="512px" viewBox="0 0 512 512" style="enable-background:new 0 0 512 512;" xml:space="preserve">
<style type="text/css">
	.st0{fill:#010101;}
</style>
<g>
	<path class="st0" d="M324.9,256.2v-47.3l-40-4.6c-2.9-12.7-7.9-25-14.8-36.3l25.4-35.7l-28.8-29.4l-35,25.8
		c-11.2-7.1-23.2-12.1-35.6-15.1l-4.5-40.8h-46.4l-4.5,40.8c-12.4,3-24.5,8-35.6,15.1l-35-25.8L41,132.2L66.4,168
		c-7,11.4-11.9,23.7-14.8,36.3l-40,4.6v47.3l40,4.6c2.9,12.7,7.9,25,14.8,36.3L41,332.8l28.8,29.4l35-25.8
		c11.2,7.1,23.2,12.1,35.6,15.1l4.5,40.8h46.4l4.5-40.8c12.4-3,24.5-8,35.6-15.1l35,25.8l28.8-29.4l-25.4-35.7
		c7-11.4,11.9-23.7,14.8-36.3L324.9,256.2z M210.6,275.8c-23.4,23.9-61.4,23.9-84.8,0c-23.4-23.9-23.4-62.6,0-86.4
		c23.4-23.9,61.4-23.9,84.8,0C234.1,213.2,234.1,251.9,210.6,275.8z"/>
	<path class="st0" d="M499.9,312.8l-11.2-28.5l-25.2,6.9c-4.8-6.9-10.7-13.2-17.6-18.3l6.8-27.7l-24.3-10.8l-15,24.1
		c-8.4-1.6-16.9-1.7-25.1-0.5L376,234.4l-27.9,11.2l6.9,25.7c-6.8,4.8-12.8,10.8-17.9,17.7l-27.2-7.1l-10.4,24.7l23.7,15.4
		c-1.5,8.5-1.6,17.2-0.3,25.5l-23,12.5l11.2,28.5l25.2-6.9c4.8,6.9,10.7,13.2,17.6,18.3l-6.8,27.7l24.3,10.8l15-24.1
		c8.4,1.6,16.9,1.7,25,0.5l12.4,23.5l27.9-11.2l-6.9-25.7c6.8-4.8,12.8-10.8,17.9-17.7l27.2,7.1l10.4-24.7l-23.7-15.4
		c1.5-8.5,1.6-17.2,0.3-25.5L499.9,312.8z M435.7,352.3c-8.4,20.1-31.3,29.2-51.1,20.5s-28.9-32.1-20.5-52.2
		c8.4-20.1,31.3-29.2,51.1-20.5C435,308.8,444.1,332.2,435.7,352.3z"/>
</g>
</svg>
