<?xml version="1.0" encoding="utf-8"?>
<!-- Generator: Adobe Illustrator 19.2.1, SVG Export Plug-In . SVG Version: 6.00 Build 0)  -->
<svg version="1.1" id="Layer_1" xmlns="http://www.w3.org/2000/svg" xmlns:xlink="http://www.w3.org/1999/xlink" x="0px" y="0px"
	 width="32px" height="32px" viewBox="0 0 32 32" style="enable-background:new 0 0 32 32;" xml:space="preserve">
<path id="SVGID_1_" d="M15.077,18.794l1.819-0.145L28.081,7.463c0.44-0.442,0.426-1.174-0.036-1.637
			c-0.461-0.462-1.195-0.477-1.637-0.036L15.221,16.978L15.077,18.794z M29.779,4.079c1.472,1.468,1.521,3.802,0.111,5.208
			L18.187,20.993c-0.067,0.067-0.157,0.108-0.253,0.115l-4.353,0.347c-0.577,0.046-1.102-0.388-1.173-0.967
			c-0.009-0.069-0.011-0.14-0.004-0.211l0.345-4.353c0.008-0.097,0.05-0.186,0.118-0.253L24.571,3.966
			C25.978,2.558,28.31,2.608,29.779,4.079z M4.307,26.821v-9.523H3.838c-0.678,0-1.227-0.549-1.227-1.226
			c0-0.675,0.548-1.223,1.227-1.223h0.469V5.326H2.141c-0.675,0-1.224-0.549-1.224-1.225c0-0.675,0.548-1.224,1.224-1.224h6.594
			c0.676,0,1.225,0.548,1.225,1.224c0,0.676-0.549,1.225-1.225,1.225H6.852v9.523H7.32c0.679,0,1.227,0.548,1.227,1.223
			c0,0.677-0.548,1.226-1.227,1.226H6.852v9.523h1.883c0.676,0,1.225,0.547,1.225,1.224c0,0.676-0.549,1.224-1.225,1.224H2.141
			c-0.675,0-1.224-0.548-1.224-1.224c0-0.677,0.548-1.224,1.224-1.224H4.307z"/>
</svg>
