<?xml version="1.0" encoding="utf-8"?>
<!-- Generator: Adobe Illustrator 16.0.4, SVG Export Plug-In . SVG Version: 6.00 Build 0)  -->
<!DOCTYPE svg PUBLIC "-//W3C//DTD SVG 1.1//EN" "http://www.w3.org/Graphics/SVG/1.1/DTD/svg11.dtd">
<svg version="1.1" id="Layer_1" xmlns="http://www.w3.org/2000/svg" xmlns:xlink="http://www.w3.org/1999/xlink" x="0px" y="0px"
	 width="360px" height="360px" viewBox="0 0 360 360" enable-background="new 0 0 360 360" xml:space="preserve">
<circle fill="#888888" cx="180.001" cy="180" r="154.091"/>
<g>
	<path fill="#FFFFFF" d="M215.472,220.423c0,5.053,0,23.238,0,23.238H98.608v-30.982c0-7.747,9.093-11.114,14.145-13.136
		c16.839-7.072,22.228-12.797,22.228-25.595c0-7.41-5.389-5.053-7.409-18.86c-1.011-5.726-5.389,0-6.399-13.135
		c0-5.051,2.357-6.398,2.357-6.398s-1.01-7.746-1.684-13.808c-0.673-7.409,3.705-26.269,26.942-26.269
		c23.239,0,27.616,18.86,26.941,26.269c-0.672,6.062-1.683,13.808-1.683,13.808s2.357,1.348,2.357,6.398
		c-1.011,13.135-5.389,7.41-6.399,13.135c-2.021,13.808-7.41,11.45-7.41,18.86c0,12.798,5.389,18.522,22.228,25.595
		C201.327,206.618,215.472,213.352,215.472,220.423z M229.281,243.662v-25.259c0-12.124-3.705-14.818-30.985-28.626
		c5.053-3.703,6.736-7.747,6.736-14.145c0-5.726-3.705-3.705-5.388-14.145c-0.676-4.378-4.042,0-4.716-9.767
		c0-4.042,2.021-5.052,2.021-5.052s-1.011-5.725-1.347-10.103c-0.674-5.725,2.693-19.871,19.87-19.871
		c17.513,0,20.88,14.146,20.206,19.871c-0.336,4.378-1.347,10.103-1.347,10.103s2.021,1.011,2.021,5.052
		c-0.674,9.767-4.041,5.389-4.715,9.767c-1.684,10.44-5.388,8.419-5.388,14.145c0,9.429,3.704,13.808,16.502,19.196
		c12.462,5.051,19.197,8.42,21.892,13.472c2.021,3.368,2.356,35.361,2.356,35.361H229.281z"/>
</g>
</svg>
