<?xml version="1.0" encoding="utf-8"?>
<!-- Generator: Adobe Illustrator 16.0.4, SVG Export Plug-In . SVG Version: 6.00 Build 0)  -->
<!DOCTYPE svg PUBLIC "-//W3C//DTD SVG 1.1//EN" "http://www.w3.org/Graphics/SVG/1.1/DTD/svg11.dtd">
<svg version="1.1" xmlns="http://www.w3.org/2000/svg" xmlns:xlink="http://www.w3.org/1999/xlink" x="0px" y="0px" width="612px"
	 height="792px" viewBox="0 0 612 792" enable-background="new 0 0 612 792" xml:space="preserve">
<g id="Layer_1">
	<g>
		<path d="M305.43,24.102c-148.998,0-269.777,120.788-269.777,269.783c0,148.989,120.779,269.769,269.777,269.769h202.339
			c37.248,0,67.441-30.18,67.441-67.436V293.885C575.21,144.89,454.425,24.102,305.43,24.102z M545.21,473.718
			c0,33.113-26.835,59.937-59.942,59.937H305.43c-132.43,0-239.777-107.349-239.777-239.77
			c0-132.426,107.348-239.783,239.777-239.783c132.427,0,239.78,107.356,239.78,239.783V473.718z"/>
		<path d="M400.113,292.23c-1.442,0.393-2.014-0.072-2.703-1.167c-8.338-13.248-16.7-26.48-25.108-39.684
			c-0.695-1.09-0.705-1.753,0.123-2.791c13.986-17.55,18.584-37.394,14.041-59.293c-7.48-36.063-43.762-59.823-79.877-52.445
			c-39.366,8.041-63.558,48.68-52.017,87.331c2.852,9.548,7.506,18.101,14.028,25.792c-0.181,0.357-0.274,0.595-0.412,0.806
			c-8.772,13.571-17.562,27.132-26.299,40.727c-0.648,1.014-1.244,0.911-2.19,0.657c-8.099-2.181-16.315-2.928-24.675-2.057
			c-16.124,1.68-30.024,8.205-41.346,19.73c-21.733,22.129-26.293,54.715-11.778,81.994c13.189,24.783,40.983,39.346,68.661,35.277
			c25.603-3.764,43.544-18.009,54.047-41.615c0.62-1.396,1.273-1.964,2.878-1.958c21.63,0.062,43.261,0.062,64.892,0
			c1.682-0.006,2.369,0.553,2.992,2.072c15.401,37.573,60.36,53.3,95.76,33.547c25.887-14.447,39.545-43.979,33.985-73.485
			C477.683,306.228,438.74,281.721,400.113,292.23z M221.838,389.539c-15.571,0.06-29.997-12.563-30.093-30.869
			c-0.088-16.95,13.602-30.766,30.043-30.743c16.544,0.023,29.919,13.784,29.919,30.789
			C251.71,375.748,238.396,389.477,221.838,389.539z M319.986,173.745c16.552,0.012,29.923,13.763,29.923,30.769
			c0,17.111-13.394,30.879-30.06,30.82c-15.82-0.056-29.864-12.936-29.896-30.864C289.922,187.392,303.497,173.735,319.986,173.745z
			 M365.716,314.666c-7.252,8.825-12.021,18.854-14.342,30.044c-0.038,0.176-0.141,0.337-0.247,0.585c-20.722,0-41.441,0-62.356,0
			c-0.263-1.021-0.556-2.096-0.818-3.176c-2.465-10.139-6.989-19.255-13.627-27.299c-0.867-1.054-0.924-1.769-0.158-2.941
			c8.611-13.219,17.168-26.477,25.703-39.747c0.639-0.989,1.162-1.322,2.419-0.981c11.818,3.207,23.667,3.175,35.484-0.023
			c1.199-0.324,1.777-0.131,2.437,0.917c8.469,13.46,16.981,26.896,25.502,40.324C366.226,313.18,366.47,313.746,365.716,314.666z
			 M418.06,389.539c-15.697-0.047-29.871-12.863-29.912-30.857c-0.039-17.03,13.58-30.771,30.025-30.755
			c16.54,0.018,29.934,13.787,29.936,30.772C448.111,375.807,434.673,389.589,418.06,389.539z"/>
	</g>
</g>
<g id="Layer_1_copy" display="none">
	<g display="inline">
		<path d="M340.21,272.044c-0.659-1.048-1.237-1.241-2.437-0.917c-11.817,3.198-23.666,3.23-35.484,0.023
			c-1.257-0.341-1.78-0.008-2.419,0.981c-8.535,13.271-17.092,26.528-25.703,39.747c-0.766,1.173-0.709,1.888,0.158,2.941
			c6.638,8.044,11.162,17.16,13.627,27.299c0.263,1.08,0.556,2.155,0.818,3.176c20.915,0,41.635,0,62.356,0
			c0.106-0.248,0.209-0.409,0.247-0.585c2.32-11.189,7.09-21.219,14.342-30.044c0.754-0.92,0.51-1.485-0.004-2.298
			C357.192,298.94,348.679,285.504,340.21,272.044z"/>
		<path d="M319.849,235.334c16.666,0.059,30.06-13.709,30.06-30.82c0-17.006-13.371-30.757-29.923-30.769
			c-16.488-0.01-30.063,13.647-30.032,30.725C289.985,222.398,304.029,235.278,319.849,235.334z"/>
		<path d="M305.998,24.102C157,24.102,36.221,144.89,36.221,293.885c0,148.989,120.779,269.769,269.777,269.769h202.339
			c37.248,0,67.441-30.18,67.441-67.436V293.885C575.779,144.89,454.993,24.102,305.998,24.102z M451.698,419.154
			c-35.399,19.753-80.358,4.026-95.76-33.547c-0.623-1.52-1.311-2.078-2.992-2.072c-21.631,0.062-43.262,0.062-64.892,0
			c-1.604-0.006-2.258,0.562-2.878,1.958c-10.503,23.606-28.444,37.852-54.047,41.615c-27.678,4.068-55.472-10.494-68.661-35.277
			c-14.515-27.279-9.955-59.865,11.778-81.994c11.321-11.525,25.222-18.051,41.346-19.73c8.359-0.871,16.576-0.124,24.675,2.057
			c0.946,0.254,1.542,0.356,2.19-0.657c8.737-13.595,17.526-27.155,26.299-40.727c0.138-0.211,0.231-0.448,0.412-0.806
			c-6.522-7.691-11.177-16.244-14.028-25.792c-11.541-38.651,12.65-79.29,52.017-87.331c36.115-7.378,72.396,16.382,79.877,52.445
			c4.543,21.899-0.055,41.743-14.041,59.293c-0.828,1.038-0.818,1.701-0.123,2.791c8.408,13.203,16.771,26.436,25.108,39.684
			c0.689,1.095,1.261,1.56,2.703,1.167c38.627-10.509,77.57,13.998,85.002,53.438C491.242,375.176,477.584,404.707,451.698,419.154z
			"/>
		<path d="M221.788,327.927c-16.441-0.022-30.131,13.793-30.043,30.743c0.096,18.306,14.521,30.929,30.093,30.869
			c16.558-0.062,29.872-13.791,29.869-30.823C251.707,341.711,238.332,327.95,221.788,327.927z"/>
		<path d="M418.173,327.927c-16.445-0.017-30.064,13.725-30.025,30.755c0.041,17.994,14.215,30.811,29.912,30.857
			c16.613,0.05,30.051-13.731,30.049-30.84C448.107,341.714,434.713,327.944,418.173,327.927z"/>
	</g>
</g>
</svg>
