<?xml version="1.0" encoding="UTF-8"?>
<svg width="360px" height="360px" viewBox="0 0 360 360" version="1.1" xmlns="http://www.w3.org/2000/svg" xmlns:xlink="http://www.w3.org/1999/xlink">
    <!-- Generator: Sketch 44.1 (41455) - http://www.bohemiancoding.com/sketch -->
    <title>huddle-thick</title>
    <desc>Created with Sketch.</desc>
    <defs></defs>
    <g id="Page-1" stroke="none" stroke-width="1" fill="none" fill-rule="evenodd">
        <g id="huddle-thick">
            <path d="M327,328 L327,180.5 C327,99.0379994 260.962001,33 179.5,33 C98.0379994,33 32,99.0379994 32,180.5 C32,261.962001 98.0379994,328 179.5,328 L327,328 Z" id="Mask" stroke="#000000" stroke-width="24"></path>
            <g id="Group-3" transform="translate(140.338997, 145.755071)"></g>
            <g id="Group" transform="translate(95.000000, 92.000000)" stroke="#000000" stroke-width="24">
                <ellipse id="Oval-4-Copy-2" cx="93.2416675" cy="31.8261358" rx="30.9595021" ry="31.4571371"></ellipse>
                <ellipse id="Oval-4-Copy" cx="155.160672" cy="129.057287" rx="30.9595021" ry="31.4571371"></ellipse>
                <ellipse id="Oval-4-Copy-2" cx="31.3226634" cy="129.057287" rx="30.9595021" ry="31.4571371"></ellipse>
                <path d="M51.1744298,97.7483619 L71.8939886,65.7025205" id="Line" stroke-linecap="square"></path>
                <path d="M113.705808,96.0872553 L133.970209,64.0581702" id="Line-Copy" stroke-linecap="square" transform="translate(123.838008, 80.072713) scale(-1, 1) translate(-123.838008, -80.072713) "></path>
                <path d="M74.302805,132.691924 L111.780689,132.691924" id="Line-Copy" stroke-linecap="square" transform="translate(93.041747, 132.691924) scale(-1, 1) translate(-93.041747, -132.691924) "></path>
            </g>
        </g>
    </g>
</svg>