<?xml version="1.0" encoding="utf-8"?>
<!-- Generator: Adobe Illustrator 19.1.0, SVG Export Plug-In . SVG Version: 6.00 Build 0)  -->
<svg version="1.1" id="Layer_1" xmlns="http://www.w3.org/2000/svg" xmlns:xlink="http://www.w3.org/1999/xlink" x="0px" y="0px"
	 width="30px" height="21px" fill="#f8484b" viewBox="0 0 512 512" style="enable-background:new 0 0 512 512;" xml:space="preserve">
<g>
	<g>
		<path d="M257.6,17c-132,0-239,107-239,239s107,239,239,239c132,0,239-107,239-239S389.6,17,257.6,17z M257.6,462.5
			c-114,0-206.5-92.4-206.5-206.5c0-114,92.4-206.5,206.5-206.5C371.6,49.5,464,142,464,256C464,370,371.6,462.5,257.6,462.5z
			 M347.5,170.4c-1,0-2.1,0.4-3,1.1l-19.4,16.6c-2.4,2-3.1,5.3-2.1,8.2c6.6,17.8,10.3,37.1,10.3,57.6c0,18.8-3.1,36.9-8.8,53.8
			c-1.1,3.2-0.1,6.7,2.4,9l19.6,17.7c0.9,0.8,2,1.2,3.1,1.2c1.8,0,3.6-1.1,4.4-3c9.2-23.5,13.6-49.8,13.6-78.7
			c0-28.1-5.6-55.5-15.9-80.6C351,171.5,349.3,170.4,347.5,170.4z M313.1,347.5c-1.1-1.1-2.5-1.7-3.9-1.7c-1.7,0-3.4,0.8-4.5,2.4
			c-2.6,3.9-5.4,7.8-8.4,11.5c-1.2,0.5-2.5,0.7-4,0.7c-5.7,0-12.8-3.1-16.5-6.7l-88-87.3c-6.2-6.1-6.2-16.2-0.1-22.4L278,153
			c3.1-3.1,7.1-4.7,11.2-4.7c2.8,0,5.6,0.7,8,2.2c2.7,3.4,5.2,6.9,7.6,10.5c0.9,1.4,2.4,2.1,3.9,2.1c1.2,0,2.4-0.5,3.4-1.4
			l18.6-18.6c2.1-2.1,2.5-5.4,0.8-7.9c-9.5-14.1-20.6-26.9-33.1-37.9c-2.5-1.2-5.3-1.8-8-1.8c-4.8,0-9.5,1.8-13.1,5.4L138.1,241.1
			c-7.2,7.2-7.1,19,0.1,26.2l138.2,137.1c3.2,3.1,7.2,4.9,11.3,5.2l0,0.1l0.1-0.1c0.6,0,1.1,0.1,1.7,0.1c1.7,0,3.3-0.2,4.9-0.7
			l7.2-4.8c11.1-9.1,20.7-19.2,28.9-30c2.1-2.8,1.9-6.7-0.5-9.2L313.1,347.5z"/>
	</g>
</g>
</svg>
