<svg id="Layer_1" data-name="Layer 1" xmlns="http://www.w3.org/2000/svg" viewBox="0 0 512 512"><title>Redactor</title><path d="M265.52,58.15c67.67,0,114.34,0,182,0,21.26,0,38,13,42.32,32.82a72.51,72.51,0,0,1,1.4,15.18q0.12,149.2.07,298.39c0,15.64-3.73,29.5-16.8,39.68-9.45,7.36-20.38,8.91-31.73,8.92-48.63.08-76.25,0-124.88,0q-125,0-249.94,0c-8.33,0-16.77-.2-24.42-4.06-15.77-8-24.44-20.51-24.43-38.58q0-94.62,0-189.24c0-39.79.57-79.58-.22-119.35C18.46,79.05,36.41,57.92,63,58,130.52,58.36,198,58.15,265.52,58.15Zm0.15,34H66.26c-2,0-4.09-.07-6.11.13-4.12.4-6.47,2.77-6.87,6.88-0.2,2-.12,4.08-0.12,6.11q0,150.19,0,300.39c0,1.53,0,3.06,0,4.59,0.25,5.78,2.54,8.23,8.38,8.82,1.85,0.18,3.74.1,5.61,0.1H442.44c1.87,0,3.75.08,5.61-.1,6-.56,8.53-3.09,9.13-9a55.86,55.86,0,0,0,.11-5.61q0-149.43,0-298.86c0-11.52-2-13.48-13.71-13.48H265.67Z"/><path d="M264.84,387.13H92c-7.43,0-7.45,0-7.46-7.24,0-12.41.1-24.82-.07-37.23a11.49,11.49,0,0,1,3.65-9q37.62-37.39,75-75c2.94-3,4.73-3.17,7.73-.07,10.77,11.1,22,21.74,32.64,33,3.77,4,5.68,3.29,9.14-.19C253,250.73,272.53,210.27,313,169.76c5.29-5.29,5.3-5.29,10.62,0q48.68,48.68,97.42,97.3a13.26,13.26,0,0,1,4.22,10.33c-0.14,34-.07,68-0.08,102,0,7.71,0,7.72-8,7.72H264.84Z"/><path d="M134.07,223c-28.08-.07-49.71-21.86-49.56-49.91,0.15-27.35,22.69-49.68,49.9-49.44A49.84,49.84,0,0,1,184,174C183.82,201.56,161.93,223.08,134.07,223Z"/></svg>