<?xml version="1.0" encoding="utf-8"?>
<!-- Generator: Adobe Illustrator 17.0.0, SVG Export Plug-In . SVG Version: 6.00 Build 0)  -->
<!DOCTYPE svg PUBLIC "-//W3C//DTD SVG 1.1//EN" "http://www.w3.org/Graphics/SVG/1.1/DTD/svg11.dtd">
<svg version="1.1" id="Layer_1" xmlns="http://www.w3.org/2000/svg" xmlns:xlink="http://www.w3.org/1999/xlink" x="0px" y="0px"
	 width="512px" height="512px" viewBox="0 0 512 512" enable-background="new 0 0 512 512" xml:space="preserve">
<g>
	<g>
		<path fill-rule="evenodd" clip-rule="evenodd" d="M369.432,92.65H147.598L14.5,276.419v102.093
			c0,22.556,18.056,40.838,40.333,40.838h403.335c22.271,0,40.332-18.282,40.332-40.838V276.419L369.432,92.65z M386.872,276.886
			l-41.369,61.306l-173.199-0.401l-44.406-61.146l-82.393-0.482l114.19-162.84h197.635l112.932,162.84L386.872,276.886z
			 M284.228,153.906c0-11.276-6.509-20.419-17.647-20.419s-18.908,9.143-18.908,20.419v80.397l-49.154,1.277l68.061,77.847
			l66.802-77.847l-49.155-1.277V153.906z"/>
	</g>
</g>
</svg>
