<svg id="Layer_1" data-name="Layer 1" xmlns="http://www.w3.org/2000/svg" viewBox="0 0 512 512"><title>Redactor</title><path d="M255.49,152.58H55.09c-10.65,0-12.64-2-12.65-12.77q0-19.19,0-38.38c0-8,2.82-10.82,10.83-10.84q33.64-.07,67.28,0H456a36.36,36.36,0,0,1,6.14.23c4.35,0.75,7.35,3.17,7.38,7.87,0.1,15.32.13,30.64,0,46,0,4.45-3,7.28-7.42,7.81a48.49,48.49,0,0,1-5.68.14H255.49Z"/><path d="M255.91,426.58H54.57c-10.25,0-12.13-1.88-12.13-12.15,0-13.11,0-26.21,0-39.32,0-7,2.88-10,10-10.41,1.57-.09,3.16,0,4.74,0H455.08c1.74,0,3.48-.06,5.21.09,6.5,0.56,9.26,3.51,9.28,10.09,0,13.58,0,27.16,0,40.74,0,8.66-2.32,11-10.91,11H255.91Z"/><path d="M332.34,244.3H210.57c-1.89,0-3.8.06-5.68-.11-7.54-.67-10.38-3.58-10.46-11.24q-0.19-19.9,0-39.8c0.07-7.84,3-10.77,10.84-11.36,1.73-.13,3.47-0.08,5.21-0.08H454c1.26,0,2.53,0,3.79,0,9.09,0.27,11.78,3,11.79,12,0,13.42,0,26.85,0,40.27,0,6.46-2.4,9.15-8.85,10a50.42,50.42,0,0,1-6.62.25H332.34Z"/><path d="M331.83,335.43H207.21c-10.28,0-12.8-2.54-12.82-13,0-12.48-.06-25,0-37.43,0.06-8.71,3-11.61,11.78-11.61q126,0,252.08,0c8.76,0,11.3,2.54,11.31,11.26q0,18.72,0,37.43c0,11.26-2,13.31-13.14,13.31H331.83Z"/><path d="M42.44,258.56c0-21.95,0-43.9,0-65.84,0-4.23.59-8.08,5-9.79,4.18-1.64,7.58.08,10.63,3.13q32.43,32.55,64.94,65c5.3,5.32,5.29,9.86,0,15.14q-32.45,32.53-65,65c-2.92,2.92-6,5.23-10.47,3.37s-5.15-5.44-5.13-9.69C42.47,302.78,42.44,280.67,42.44,258.56Z"/></svg>