<?xml version="1.0" encoding="utf-8"?>
<!-- Generator: Adobe Illustrator 20.1.0, SVG Export Plug-In . SVG Version: 6.00 Build 0)  -->
<svg version="1.1" id="Layer_1" xmlns="http://www.w3.org/2000/svg" xmlns:xlink="http://www.w3.org/1999/xlink" x="0px" y="0px"
	 width="512px" height="512px" viewBox="0 0 512 512" style="enable-background:new 0 0 512 512;" xml:space="preserve">
<title>Redactor</title>
<g>
	<path d="M41.7,255.6c0-21.9,0-43.9,0-65.8c0-4.2,0.6-8.1,5-9.8c4.2-1.6,7.6,0.1,10.6,3.1c21.6,21.7,43.3,43.4,64.9,65
		c5.3,5.3,5.3,9.9,0,15.1c-21.6,21.7-43.3,43.4-65,65c-2.9,2.9-6,5.2-10.5,3.4s-5.2-5.4-5.1-9.7C41.7,299.8,41.7,277.7,41.7,255.6z"
		/>
	<rect x="42.6" y="87.4" width="427.1" height="62.5"/>
	<rect x="42.6" y="361.7" width="427.1" height="62.5"/>
	<rect x="193.6" y="224.6" width="276" height="62.5"/>
</g>
</svg>
