<?xml version="1.0" encoding="utf-8"?>
<!-- Generator: Adobe Illustrator 19.2.1, SVG Export Plug-In . SVG Version: 6.00 Build 0)  -->
<svg version="1.1" id="Layer_1" xmlns="http://www.w3.org/2000/svg" xmlns:xlink="http://www.w3.org/1999/xlink" x="0px" y="0px"
	 width="512px" height="512px" viewBox="0 0 512 512" style="enable-background:new 0 0 512 512;" xml:space="preserve">
<g id="LYW188.tif">
	<g>
		<path d="M313.4,302c0,26.5,0.1,53-0.1,79.5c-0.1,5.7,1.9,7.8,7.5,7.4c4.1-0.3,8.3-0.2,12.4,0.4c10.8,1.6,17.6,8.7,18,19.5
			c0.4,12.6,0.4,25.3,0,37.9c-0.4,11.7-8.7,19.5-20.4,19.5c-50.4,0.1-100.8,0.1-151.2,0c-11.8,0-19.7-7.4-20.3-19.5
			c-0.6-12.6-0.5-25.3-0.1-37.9c0.4-11.2,7.8-18.4,19.2-19.7c3.9-0.4,7.9-0.5,11.8-0.2c5.2,0.3,6.9-1.8,6.8-6.9
			c-0.2-26.7-0.1-53.4-0.1-80.1c0-6.7-0.1-13.4,0-20.2c0.1-4.1-1.6-5.7-5.6-5.6c-4.7,0.1-9.5,0.2-14.2-0.5
			c-10.7-1.5-17.6-8.8-18-19.5c-0.4-12.4-0.5-24.9,0-37.4c0.5-12.8,8.6-20.1,21.6-20.1c37,0,73.9,0,110.9,0
			c12.3,0,19.7,6.2,21.1,18.6c0.8,7.2,0.5,14.6,0.5,21.9C313.4,260,313.4,281,313.4,302z"/>
		<path d="M255,142.3c-12.2,0-24.5,0.1-36.7,0c-11.3-0.1-19.6-6.7-20.4-18c-1.5-20.5-1.7-41,0.2-61.5c0.9-9.9,8.9-16.9,19-17
			c25.5-0.2,50.9-0.2,76.4,0c10.1,0.1,17.5,6.9,19.2,16.9c1.7,9.6,0.6,19.3,0.7,29c0.1,10.7,0.4,21.4-0.5,31.9
			c-1.1,12.1-9.1,18.6-21.1,18.7C279.5,142.4,267.3,142.3,255,142.3z"/>
	</g>
</g>
</svg>
