<svg id="Layer_1" data-name="Layer 1" xmlns="http://www.w3.org/2000/svg" viewBox="0 0 512 512"><title>Redactor</title><path d="M291.3,453.66c-7.56.51-15-.46-22.44-1.76-13.68-2.39-27.48-3.07-41.37-3.33a710.58,710.58,0,0,0-99.36,4.87c-3.87.47-5.65-.55-4.56-4.67,0-.16.05-0.34,0.08-0.51,2.83-17.51,2.86-17.41,20.07-21.94,8.43-2.22,16.71-5,25.14-7.28,7.14-1.91,11.15-6.62,13.87-13.2,4.42-10.71,6-22.1,8.44-33.28,15.35-71.07,30.8-142.11,44.93-213.44,3.75-18.95,8.16-37.81,9.82-57.1,0.91-10.56.35-10.81-10.1-13.4-10.2-2.53-20.69-2.55-31-3.66-3.93-.42-5.54-1.51-4.54-5.76,1.41-6,2.4-12.08,3.34-18.16,0.48-3.12,1.84-4.49,5.07-4.31,22.88,1.27,45.76,2.7,68.65,3.59a531,531,0,0,0,53.38-.21c14.68-.91,29.37-1.69,44.06-2.52,1.71-.1,3.43,0,5.13-0.23,8.52-.92,8.88-0.75,7,7.39-4.57,19.81-.65,14.82-19.07,20.32q-16.48,4.92-33.1,9.34c-4.5,1.2-6.73,3.92-8,8.26-4,13.34-5.25,27.19-7.81,40.79-9.41,49.94-21,99.41-31.67,149.09-8.05,37.63-17.4,75-23.77,113-2.11,12.57-1.85,13.06,10.46,15.25,10.78,1.91,21.57,3.77,32.39,5.4,3.25,0.49,4.29,1.76,4,5a183,183,0,0,1-2.89,18.23c-0.59,3.11-2.19,4.37-5.28,4.27C298.49,453.57,294.9,453.66,291.3,453.66Z"/></svg>