<?xml version="1.0" encoding="utf-8"?>
<!-- Generator: Adobe Illustrator 19.2.1, SVG Export Plug-In . SVG Version: 6.00 Build 0)  -->
<svg version="1.1" id="Layer_1" xmlns="http://www.w3.org/2000/svg" xmlns:xlink="http://www.w3.org/1999/xlink" x="0px" y="0px"
	 viewBox="0 0 512 512" style="enable-background:new 0 0 512 512;" xml:space="preserve">
<style type="text/css">
	.st0{fill:#010101;}
</style>
<path class="st0" d="M455.1,229.3h-45.4H240.5c-10.9-46.2-52.4-80.7-101.9-80.7c-57.8,0-104.7,47-104.7,104.7s47,104.7,104.7,104.7
	c49.5,0,91-34.5,101.9-80.7h77.6v48.8c0,13.3,10.8,24.1,24.1,24.1s24.1-10.8,24.1-24.1v-48.8h19.4v48.8c0,13.3,10.8,24.1,24.1,24.1
	s24.1-10.8,24.1-24.1v-48.8h21.3c13.3,0,24.1-10.8,24.1-24.1C479.2,240.1,468.4,229.3,455.1,229.3z M138.5,310
	c-31.2,0-56.6-25.4-56.6-56.6c0-31.2,25.4-56.6,56.6-56.6c31.2,0,56.6,25.4,56.6,56.6C195.1,284.6,169.7,310,138.5,310z"/>
</svg>
