<?xml version="1.0" encoding="utf-8"?>
<!-- Generator: Adobe Illustrator 17.1.0, SVG Export Plug-In . SVG Version: 6.00 Build 0)  -->
<!DOCTYPE svg PUBLIC "-//W3C//DTD SVG 1.1//EN" "http://www.w3.org/Graphics/SVG/1.1/DTD/svg11.dtd">
<svg version="1.1" id="Layer_1" xmlns="http://www.w3.org/2000/svg" xmlns:xlink="http://www.w3.org/1999/xlink" x="0px" y="0px"
	 viewBox="0 0 512 512" enable-background="new 0 0 512 512" xml:space="preserve">
<path fill="#010101" d="M138.6,465.8c-24.6,0-43.7-6.7-58.5-20.5c-14.6-13.7-21.6-32-21.4-56l0-2.7l-1.6-2.1
	c-10.2-13.1-15.2-27.9-15.2-45.3c0-3.7,0.3-7.4,0.8-11l0.4-2.6l-1.3-2.3c-6.4-11.3-9.7-23.6-9.7-36.6c0-6,0.8-11.9,2.3-17.3l0.9-3.4
	l-1.9-2.9c-8.1-12.2-12.3-25.8-12.5-40.5l0-1.1c0-17.3,6.2-32,19.1-44.8C52.7,164,67.5,157.7,85,157.7h61.7l-5.4-11
	c-8.4-17.4-12.7-34.4-12.7-50.6c0-20.6,3-37,9-48.7c5.8-11.5,14-19.7,25.1-25.1c11.4-5.5,24.6-8.3,39-8.3c7.6,0,14.1,2.7,19.9,8.2
	c7,6.9,12.2,15.9,15.4,26.9c3.5,12.1,6.3,23.8,8.4,34.8c2.4,12.9,6.3,22,11.9,27.8c9,9.7,18.9,21.6,29.6,35.4
	c26.1,33.8,35.5,42,40.3,45.2l1.9,1.3h79.3c7.9,0,14.4,2.7,20,8.3c5.6,5.6,8.3,12.1,8.3,20v179.7c0,7.9-2.7,14.4-8.3,20
	c-5.6,5.6-12.1,8.3-20,8.3h-80.9c-3.7,0-11.5,1.4-41.2,11.6c-22.7,7.9-42.9,14.1-60.1,18.2c-16.8,4.1-34.1,6.1-51.4,6.1H138.6z
	 M80,378.7c-0.5,4.2-0.8,8.2-0.8,12c0,24.9,10.7,54.6,61.6,54.6h34c25.3,0,58.4-7,98.5-20.9l0.2-0.1l0.2-0.1
	c0.5-0.2,2.1-0.8,7.8-2.8c4.5-1.6,7.8-2.8,9.9-3.5c2.1-0.7,5.3-1.8,9.6-3.2c4.2-1.3,7.6-2.3,10.1-2.9c2.5-0.6,5.4-1.2,8.7-1.7
	c3-0.5,5.6-0.7,7.6-0.7h16.7v-195h-16.7c-1.9,0-4.1-0.6-6.7-1.8c-2.9-1.4-6.1-3.5-9.4-6.4c-3.7-3.3-7.3-6.5-10.5-9.7
	c-3.2-3.1-6.7-7-10.7-11.7c-4.1-4.9-7.3-8.9-9.5-11.8c-2.3-2.9-5.2-6.8-8.8-11.4c-3.6-4.8-5.8-7.6-6.6-8.6
	c-10.6-13-17.8-21.6-22.1-26.1c-6.8-7.1-11.8-16.3-14.9-27.5c-3.4-12.2-6.2-23.9-8.4-34.7c-2.6-12.7-6.8-21.8-12.8-27.8l-2.3-2.3
	h-3.2c-20.6,0-34.8,5.6-42.3,16.6c-6.9,10.2-10.3,24.9-10.3,45c0,12.3,4.6,28.1,14.2,48.3c6.4,13.6,10.4,24.9,12,33.8H85
	c-11.4,0-21.6,4.4-30.4,13c-8.8,8.7-13.2,19-13.2,30.6c0,7.8,2.2,16.3,6.8,26c2.9,6.2,6.4,10.8,10.5,13.8c-1,2.2-2,4.5-2.8,7.1
	c-2.1,6.5-3.2,12.5-3.2,18c0,13.2,4.5,24.9,13.3,34.9c-2.3,5.6-3.5,11.6-3.5,17.9c0,8,1.9,16.1,5.7,23.9
	C71.1,369.9,75.1,375,80,378.7z M390.4,358c-6.9,0-13.1,2.6-18,7.6c-5,5-7.6,11.2-7.6,18.1c0,6.9,2.5,13,7.6,18.1
	c4.9,5,11.2,7.6,18,7.6c7,0,13.1-2.6,18.1-7.6c5-5,7.6-11.2,7.6-18.1c0-6.9-2.6-13.1-7.6-18.1C403.5,360.5,397.4,358,390.4,358
	L390.4,358z"/>
</svg>
