<?xml version="1.0" encoding="utf-8"?>
<!-- Generated by IcoMoon.io -->
<!DOCTYPE svg PUBLIC "-//W3C//DTD SVG 1.1//EN" "http://www.w3.org/Graphics/SVG/1.1/DTD/svg11.dtd">
<svg version="1.1" xmlns="http://www.w3.org/2000/svg" xmlns:xlink="http://www.w3.org/1999/xlink" width="512" height="512" viewBox="0 0 512 512">
<g>
</g>
	<path d="M129.946 78.080c0 27.213-20.096 49.254-53.145 49.254-31.104 0-51.2-22.041-51.2-49.255 0-27.853 20.761-49.255 52.505-49.255s51.2 21.401 51.84 49.255zM28.211 483.175v-316.928h98.509v316.928h-98.509zM185.677 267.341c0-39.526-1.305-72.576-2.611-101.094h85.555l4.557 44.083h1.945c12.954-20.762 44.723-51.2 97.869-51.2 64.793 0 113.408 43.417 113.408 136.755v187.315h-98.509v-175.642c0-40.832-14.285-68.71-49.92-68.71-27.213 0-43.392 18.79-50.534 36.941-2.611 6.477-3.251 15.539-3.251 24.627v182.784h-98.509v-215.859z" fill="#000000" />
</svg>
