<?xml version="1.0" encoding="utf-8"?>
<!-- Generator: Adobe Illustrator 19.2.1, SVG Export Plug-In . SVG Version: 6.00 Build 0)  -->
<svg version="1.1" id="Layer_1" xmlns="http://www.w3.org/2000/svg" xmlns:xlink="http://www.w3.org/1999/xlink" x="0px" y="0px"
	 width="512px" height="512px" viewBox="0 0 512 512" style="enable-background:new 0 0 512 512;" xml:space="preserve">
<path d="M228.7,334.2c-0.2-16.8,5.1-31.6,16.4-44c3-3.2,2.8-5.3-0.4-8.1c-4.4-3.8-8.4-8-12.3-12.3c-2.4-2.6-3.9-2.6-6.6-0.2
	c-22.1,19.6-52.8,22.8-78.5,8.2c-5.4-3-10-7-14.4-11.3c-15.4-15.4-30.8-30.7-46.1-46.1c-27.3-27.5-27.9-67.5-1-95.4
	c12.1-12.6,24.5-24.8,37.3-36.7c24.1-22.2,63.7-22.5,87.6-0.1c18.5,17.4,36.1,35.7,53.7,54c22.2,22.9,22.6,64.3-0.1,88.8
	c-2.6,2.8-2.6,4.5,0.1,7c4.4,4,8.6,8.2,12.7,12.7c2.5,2.8,4.4,2.8,7.1,0.3c13.4-12.1,29.2-17.4,47.1-16.8
	c15.9,0.5,30.1,5.7,41.6,16.8c18.1,17.5,36.1,35.3,53.5,53.5c23,24.1,22.8,64.4-0.1,88.6c-12.3,13-25.2,25.4-37.9,38
	c-24.5,24.1-68.1,23.8-91.9-0.6c-16.1-16.5-32.6-32.7-48.9-49.1C234.7,368.4,228.4,352.6,228.7,334.2z M180.6,240.9
	c4.8,0.3,9-1,12.8-3.5c2.7-1.8,3.7-3.4,0.4-5.8c-3.2-2.4-5.7-5.5-8.2-8.6c-7.3-9.4-6.9-21.3,1.2-29.7c8-8.3,20-9.4,29.6-2.6
	c3.5,2.5,6.6,5.5,9.4,8.8c2.6,3.1,4.2,2.4,6.2-0.6c6.5-9.5,5.2-20.3-4.2-29.8c-14.1-14.3-28.3-28.4-42.4-42.6
	c-12.6-12.6-24.7-12.6-37.4,0.1c-9.7,9.6-19.3,19.2-28.9,28.9c-10.2,10.2-10.5,22.6-0.4,33c15,15.3,30.2,30.4,45.4,45.5
	C168.7,238.4,174,241.4,180.6,240.9z M328.4,279.7c-4.4-0.2-8.4,1.1-12.1,3.5c-2.9,2-3.7,3.6-0.6,6.2c3.5,2.9,6.7,6.3,9.3,10.1
	c6.1,9.1,5,21.1-2.7,28.5c-7.9,7.7-19.5,8.8-28.6,2.5c-3.7-2.5-6.9-5.5-9.9-8.9c-3.2-3.5-3.9-3.5-6.6,0.5c-5.9,8.8-5,19.8,2.8,27.7
	c15.4,15.7,30.9,31.3,46.6,46.8c9.3,9.2,22.7,9.2,32.1,0c11-10.6,21.8-21.4,32.5-32.4c9.1-9.3,9.2-21.9,0.1-31.2
	c-15.6-15.9-31.5-31.6-47.3-47.4C339.8,281.7,334.6,279.4,328.4,279.7z"/>
</svg>
