<svg id="Layer_1" data-name="Layer 1" xmlns="http://www.w3.org/2000/svg" viewBox="0 0 512 512"><title>Redactor</title><path d="M230.3,335c-0.24-17.74,5.42-33.38,17.37-46.52,3.12-3.43,3-5.59-.47-8.6a168.08,168.08,0,0,1-13-13c-2.53-2.77-4.14-2.73-7-.16-23.32,20.77-55.8,24.07-82.92,8.67a71.87,71.87,0,0,1-15.2-12Q104.63,239,80.29,214.68c-28.89-29.06-29.49-71.35-1.1-100.86,12.77-13.28,25.9-26.25,39.44-38.74,25.51-23.52,67.28-23.82,92.55-.1C230.73,93.35,249.3,112.77,268,132c23.45,24.21,23.85,68-.12,93.9-2.75,3-2.79,4.75.15,7.43,4.65,4.25,9.13,8.71,13.37,13.38,2.66,2.93,4.61,3,7.55.32,14.12-12.78,30.87-18.34,49.83-17.72,16.84,0.55,31.87,6,44,17.72,19.17,18.55,38.17,37.31,56.6,56.59,24.29,25.43,24.13,68-.11,93.6-13,13.72-26.61,26.89-40.11,40.15-25.93,25.47-71.94,25.18-97.08-.63-17-17.49-34.51-34.56-51.67-51.92C236.71,371.07,230,354.39,230.3,335Zm-50.77-98.64a21.48,21.48,0,0,0,13.52-3.71c2.9-1.93,3.87-3.58.45-6.11a46.23,46.23,0,0,1-8.66-9.12c-7.76-10-7.27-22.53,1.23-31.36s21.1-9.9,31.3-2.72a53.66,53.66,0,0,1,9.89,9.26c2.75,3.23,4.44,2.51,6.6-.65,6.86-10.05,5.45-21.5-4.46-31.55-14.87-15.09-29.88-30-44.84-45C171.28,102,158.47,102,145,115.39q-15.32,15.22-30.53,30.54c-10.75,10.82-11.13,23.88-.45,34.84,15.8,16.21,31.93,32.11,48,48.06C166.89,233.65,172.56,236.89,179.53,236.34Zm156.24,41A20.64,20.64,0,0,0,323,281.07c-3.11,2.07-3.93,3.82-.61,6.6a51.38,51.38,0,0,1,9.78,10.7,23.69,23.69,0,0,1-2.85,30.17,23.39,23.39,0,0,1-30.2,2.68,58.6,58.6,0,0,1-10.44-9.37c-3.34-3.75-4.15-3.68-7,.57-6.25,9.26-5.26,20.88,3,29.29q24.45,24.91,49.27,49.46c9.81,9.68,24,9.69,34,.05q17.43-16.84,34.36-34.2c9.64-9.86,9.76-23.15.13-33-16.52-16.85-33.3-33.44-50-50.08C347.81,279.45,342.32,277,335.77,277.32Z"/></svg>