<svg id="Layer_1" data-name="Layer 1" xmlns="http://www.w3.org/2000/svg" viewBox="0 0 512 512"><title>Redactor</title><g id="WNz2Iw.tif"><path d="M321.22,221.56H471.28c9.74,0,12.25,2.51,12.26,12.23q0,20.21,0,40.42c0,10.74-2.67,13.47-13.33,13.47q-69.22,0-138.44,0H172.11c-11.86,0-14.55-2.71-14.56-14.6,0-13.14,0-26.27,0-39.41,0-9.16,3-12.11,12.08-12.11H321.22Z"/><path d="M320.53,157.38h-150c-10,0-12.92-2.89-12.95-12.91q0-20.21,0-40.41c0-9.47,3.33-12.79,12.8-12.79q150.54,0,301.08,0c9,0,12.08,3.15,12.1,12.16q0,21.22,0,42.43c0,8.74-2.75,11.51-11.45,11.51Q396.3,157.4,320.53,157.38Z"/><path d="M320.45,417.25H170.4c-10,0-12.83-2.86-12.85-12.94q0-19.7,0-39.41c0-10.9,2.77-13.67,13.84-13.69q43.7-.06,87.4,0,104.58,0,209.16,0a46.24,46.24,0,0,1,7.55.38c5.36,0.89,8,3.87,8,9.34q0.14,23.49,0,47c0,6.66-3.3,9.32-11,9.32Q396.49,417.27,320.45,417.25Z"/><path d="M79.66,320c-13.47,0-26.94-.16-40.41.09-4.7.09-6.55-1.63-7.11-6.2-2.57-21,5.07-37.58,21.34-50.43,6.73-5.31,14-9.94,20.9-15A87.27,87.27,0,0,0,84,240.32c5.32-5.29,6.27-12.14,2.81-17.42-3.11-4.75-10.2-6.5-16.91-4.09-5.31,1.9-9.09,5.75-12.14,10.27-1.87,2.77-3.56,2.93-6.16,1-4.88-3.59-9.83-7.11-14.93-10.37-3.21-2.05-3.18-4.12-1.35-7.08,8-13,19.74-20.69,34.64-22.9,15.45-2.29,30,.42,41.81,11.54,12.66,11.88,14.9,32.27,5.3,46.76a66.09,66.09,0,0,1-22,20.5c-7.54,4.45-15.06,9-21.51,15-2.53,2.36-6.3,5.06-4.9,8.63,1.18,3,5.47,1.24,8.36,1.36,5.38,0.23,10.78,0,16.16.09,3.43,0.08,4.93-1.32,4.81-4.78-0.41-11.42-.12-10.34,11-10.4,4.21,0,8.42.06,12.63,0,3.07,0,4.73,1.23,4.72,4.47,0,10.94,0,21.89,0,32.83,0,3.77-2.21,4.48-5.29,4.3-0.17,0-.34,0-0.51,0H79.66Z"/><path d="M86.26,377.67c-6.27,0-11.64.21-17-.07-4.32-.23-5.77,1.6-5.36,5.64a35.29,35.29,0,0,1-.06,4.54,2.84,2.84,0,0,1-3.15,3.11c-7.07,0-14.14,0-21.22,0-2.29,0-3.38-1.11-3.38-3.39,0-10.94,0-21.89,0-32.83,0-3.87,3-3.44,5.48-3.45,11.79-.06,23.57,0,35.36,0,12.63,0,25.26.16,37.89-.08,4.84-.09,6.48,1.26,6.92,6.47,1,11.43-1.48,21-10.19,29-4.3,3.95-7.54,9-11.33,13.55-1.48,1.76-2,3,.73,4.07,16.62,6.25,25,18.36,24.46,36-0.51,18.44-9.85,31.5-26.85,37.92-21.44,8.1-42,5.32-60.77-8.25-5.56-4-5.51-4.47-1.9-10.08,2.82-4.39,5.89-8.64,8.41-13.2,2.28-4.13,4.18-3.93,7.68-1.14,8,6.33,17.15,9.18,27.4,7.47,8.82-1.47,13.08-6.66,12.4-14.87-0.52-6.19-4.1-9.75-11.59-11.38a27.78,27.78,0,0,0-4.5-.51c-10.35-.52-12.78-2.59-15.8-12.78-0.78-2.63.59-4.18,1.85-5.9C69.35,397.27,76.74,386.87,86.26,377.67Z"/><path d="M67.45,69.48c-3.46,3.38-6.42,6.11-9.2,9-2.16,2.26-3.88,2.68-6.19,0-4.33-4.93-8.88-9.68-13.43-14.41-1.78-1.86-1.77-3.32.13-5.08,10.38-9.61,20.69-19.29,31.08-28.89A5.27,5.27,0,0,1,73,28.75q11.36-.2,22.73-0.07c3.41,0,3.35,2.72,3.36,5.11q0,15.92,0,31.84c0,19.88.13,39.75-.09,59.63-0.05,4.79,1.34,6.68,6.29,6.35,5.53-.37,11.11,0,16.67-0.11,3.23-.08,4.61,1.26,4.57,4.46-0.08,5.73-.06,11.45,0,17.18,0,3-1.32,4.24-4.3,4.23q-38.91-.06-77.82,0c-3,0-4.25-1.34-4.21-4.29,0.07-5.73.1-11.46,0-17.18-0.06-3.28,1.4-4.47,4.58-4.41,6.23,0.11,12.47,0,18.7,0,2.7,0,4-.91,4-3.79C67.43,108.56,67.45,89.37,67.45,69.48Z"/></g></svg>