<svg id="Layer_1" data-name="Layer 1" xmlns="http://www.w3.org/2000/svg" viewBox="0 0 512 512"><title>Redactor</title><path d="M321.42,158.82H170.62c-10,0-12.89-2.91-12.91-13.07q0-20.06,0-40.11c0-10,3.22-13.27,13-13.27q151.05,0,302.11,0c9.52,0,12.56,3,12.57,12.33q0,21.58,0,43.16c0,8.05-3,11-11.09,11Q397.83,158.84,321.42,158.82Z"/><path d="M322,223.32h150.8c10.17,0,12.59,2.41,12.6,12.53q0,21.07,0,42.14c0,8.43-3.17,11.72-11.58,11.77-16.59.09-33.17,0-49.76,0H173.69c-2,0-4.07.09-6.09-.1-6.1-.57-9.6-3.6-9.72-9.66q-0.43-23.6,0-47.21c0.11-6.45,4.12-9.47,11.27-9.47Q245.54,223.3,322,223.32Z"/><path d="M321.58,420H170.7c-10.08,0-13-2.86-13-12.93q0-19.56,0-39.12c0-11.44,2.91-14.32,14.55-14.33q59.69,0,119.38,0,89.16,0,178.31,0a43.17,43.17,0,0,1,8.07.56c4.52,0.87,7.24,3.73,7.27,8.45,0.08,16.26.13,32.51,0,48.77-0.06,5.65-3.5,8.52-9.75,8.55-15.75.07-31.5,0-47.24,0H321.58Z"/><path d="M27.48,256.16c0-27.95,21.63-49.25,49.81-49.14a49.5,49.5,0,0,1-.46,99C49.33,306,27.44,283.92,27.48,256.16Z"/><path d="M27.48,125.63A49.27,49.27,0,0,1,76.67,76.1c27.39,0,50,22.52,49.8,49.73-0.19,27.63-22.23,49.34-50,49.28S27.47,153.51,27.48,125.63Z"/><path d="M76.68,436.26c-27.84,0-49.18-21.3-49.2-49.11s22.07-50,49.42-49.77,49.55,22.43,49.57,49.48A49.29,49.29,0,0,1,76.68,436.26Z"/></svg>