<?xml version="1.0" encoding="utf-8"?>
<!-- Generated by IcoMoon.io -->
<!DOCTYPE svg PUBLIC "-//W3C//DTD SVG 1.1//EN" "http://www.w3.org/Graphics/SVG/1.1/DTD/svg11.dtd">
<svg version="1.1" xmlns="http://www.w3.org/2000/svg" xmlns:xlink="http://www.w3.org/1999/xlink" width="1024" height="1024" viewBox="0 0 1024 1024"><g id="icomoon-ignore">
</g>
<path d="M926.2 846.8h-156.2v-27.8h156.2v27.8zM926.2 795.2h-156.2v-27.8h156.2v27.8zM926.2 743.6h-156.2v-27.8h156.2v27.8zM887.6 586v79.8h79.8v229h-237.4v-308.4h157.6v-0.4zM910.6 549h-218v383h311.8v-289.4l-93.8-93.6z"></path>
<path d="M627.8 491h261.8v-261.2c0.2-83.2-68.8-150.2-154-150.2h-565.2c-85 0-154 67.4-154 150.6v594.2l125-145.8c9.6 1.8 19 2.8 29 2.8h457.2v-190.4h0.2zM278.2 447.8c-28.6 0-51.4-22.6-51.4-50.2s23-50 51.4-50 51.4 22.6 51.4 50c0.4 28-23 50.2-51.4 50.2zM452.8 447.8c-28.6 0-51.4-22.6-51.4-50.2s23-50.2 51.4-50.2c28.4 0 51.4 22.6 51.4 50 0 28.2-22.8 50.4-51.4 50.4zM627.8 347.8c28.6 0 51.4 22.6 51.4 50-0.2 27.8-23 50.2-51.4 50.2-28.6 0-51.4-22.6-51.4-50.2s23-50 51.4-50z"></path>
</svg>
