<?xml version="1.0" encoding="utf-8"?>
<!-- Generated by IcoMoon.io -->
<!DOCTYPE svg PUBLIC "-//W3C//DTD SVG 1.1//EN" "http://www.w3.org/Graphics/SVG/1.1/DTD/svg11.dtd">
<svg version="1.1" xmlns="http://www.w3.org/2000/svg" xmlns:xlink="http://www.w3.org/1999/xlink" width="1024" height="1024" viewBox="0 0 1024 1024"><g id="icomoon-ignore">
</g>
<path d="M845.6 785h-124.6v-22.2h124.6v22.2zM845.6 744h-124.6v-22.2h124.6v22.2zM845.6 702.8h-124.6v-22.2h124.6v22.2zM814.8 577.2v63.6h63.6v182.6h-189.2v-246h125.6zM833.2 547.6h-173.8v305.4h248.6v-230.8l-74.8-74.6z"></path>
<path d="M607.6 501.4h208.8v-208.2c0.2-66.4-54.8-119.8-122.8-119.8h-450.6c-67.8 0-122.8 53.8-122.8 120v473.8l99.6-116.2c7.6 1.4 15.2 2.2 23.2 2.2h364.6v-151.8zM329 467c-22.8 0-41-18-41-40s18.4-39.8 41-39.8c22.6 0 41 18 41 39.8 0.2 22.2-18.4 40-41 40zM468.2 467c-22.8 0-41-18-41-40s18.4-40 41-40c22.6 0 41 18 41 39.8 0 22.4-18.2 40.2-41 40.2zM607.6 387.2c22.8 0 41 18 41 39.8-0.2 22.2-18.4 40-41 40-22.8 0-41-18-41-40s18.4-39.8 41-39.8z"></path>
</svg>
