<?xml version="1.0" encoding="utf-8"?>
<!-- Generator: Adobe Illustrator 19.2.1, SVG Export Plug-In . SVG Version: 6.00 Build 0)  -->
<svg version="1.1" id="Layer_1" xmlns="http://www.w3.org/2000/svg" xmlns:xlink="http://www.w3.org/1999/xlink" x="0px" y="0px"
	 width="512px" height="512px" viewBox="0 0 512 512" style="enable-background:new 0 0 512 512;" xml:space="preserve">
<path d="M256.2,7.8c-124.7,0-225.8,89.6-225.8,200c0,88.7,65.2,163.9,155.4,190.1V505l132.8-104.9c66.1-16.8,119.9-59.7,146-115.3
	c11.1-23.7,17.3-49.7,17.3-76.9C482,97.4,380.9,7.8,256.2,7.8z M147.1,236.1c-16.7,0-30.2-13.5-30.2-30.2
	c0-16.7,13.5-30.2,30.2-30.2s30.2,13.5,30.2,30.2C177.3,222.5,163.8,236.1,147.1,236.1z M256,236.1c-16.7,0-30.2-13.5-30.2-30.2
	c0-16.7,13.5-30.2,30.2-30.2c16.7,0,30.2,13.5,30.2,30.2C286.2,222.5,272.7,236.1,256,236.1z M364.9,236.1
	c-16.7,0-30.2-13.5-30.2-30.2c0-16.7,13.5-30.2,30.2-30.2c16.7,0,30.2,13.5,30.2,30.2C395.1,222.5,381.6,236.1,364.9,236.1z"/>
</svg>
