<?xml version="1.0" encoding="utf-8"?>
<!-- Generator: Adobe Illustrator 17.0.0, SVG Export Plug-In . SVG Version: 6.00 Build 0)  -->
<!DOCTYPE svg PUBLIC "-//W3C//DTD SVG 1.1//EN" "http://www.w3.org/Graphics/SVG/1.1/DTD/svg11.dtd">
<svg version="1.1" id="Layer_1" xmlns="http://www.w3.org/2000/svg" xmlns:xlink="http://www.w3.org/1999/xlink" x="0px" y="0px"
	 width="512px" height="512px" viewBox="0 0 512 512" enable-background="new 0 0 512 512" xml:space="preserve">
<g>
	<path d="M399.101,194.802h-23.129v-78.409c0-60.71-49.215-109.925-109.925-109.925h-20.512
		c-60.71,0-109.925,49.215-109.925,109.925v78.409h-23.129c-13.253,0-23.998,10.744-23.998,23.998v264.634
		c0,13.253,10.744,23.998,23.998,23.998h286.619c13.254,0,23.998-10.744,23.998-23.998V218.799
		C423.098,205.546,412.354,194.802,399.101,194.802z M177.835,117.901c0-39.38,31.924-71.303,71.303-71.303h13.305
		c39.38,0,71.303,31.924,71.303,71.303v77.562H177.835V117.901z M377.869,445.148c0,9.419-7.635,17.054-17.054,17.054H150.767
		c-9.419,0-17.054-7.635-17.054-17.054V257.085c0-9.419,7.635-17.054,17.054-17.054h210.048c9.419,0,17.054,7.635,17.054,17.054
		V445.148z"/>
	<path d="M255.791,306.188c-21.195,0-38.377,17.182-38.377,38.377c0,14.836,8.425,27.697,20.746,34.084v48.487h35.262v-48.487
		c12.321-6.387,20.746-19.247,20.746-34.084C294.168,323.369,276.986,306.188,255.791,306.188z"/>
</g>
</svg>
