<?xml version="1.0" encoding="utf-8"?>
<!-- Generated by IcoMoon.io -->
<!DOCTYPE svg PUBLIC "-//W3C//DTD SVG 1.1//EN" "http://www.w3.org/Graphics/SVG/1.1/DTD/svg11.dtd">
<svg version="1.1" xmlns="http://www.w3.org/2000/svg" xmlns:xlink="http://www.w3.org/1999/xlink" width="512" height="512" viewBox="0 0 512 512">
<g>
</g>
	<path d="M404.505 204.851h-46.106v-35.84c0-74.163-34.151-117.76-102.4-117.76-68.224 0-102.4 43.597-102.4 117.76v35.84h-51.2c-14.131 0-25.6 16.563-25.6 30.72v199.68c0 14.080 10.983 29.159 24.371 33.459l30.617 9.907c13.389 4.327 35.865 7.859 49.971 7.859h148.48c14.080 0 36.582-3.533 49.971-7.859l30.618-9.907c13.414-4.301 24.371-19.379 24.371-33.459v-199.68c0-14.157-16.563-30.72-30.695-30.72zM204.8 158.771c0-36.992 20.429-56.32 51.2-56.32 30.797 0 51.2 19.328 51.2 56.32v46.080h-102.4v-46.080z" fill="#000000" />
</svg>
