<?xml version="1.0" encoding="utf-8"?>
<!-- Generator: Adobe Illustrator 17.0.0, SVG Export Plug-In . SVG Version: 6.00 Build 0)  -->
<!DOCTYPE svg PUBLIC "-//W3C//DTD SVG 1.1//EN" "http://www.w3.org/Graphics/SVG/1.1/DTD/svg11.dtd">
<svg version="1.1" id="Layer_1" xmlns="http://www.w3.org/2000/svg" xmlns:xlink="http://www.w3.org/1999/xlink" x="0px" y="0px"
	 width="512px" height="512px" viewBox="0 0 512 512" enable-background="new 0 0 512 512" xml:space="preserve">
<g>
	<path d="M177.94,201.55v-84.599c0-39.38,31.924-71.303,71.303-71.303h13.305c39.38,0,71.303,31.924,71.303,71.303v84.599h42.226
		v-86.107c0-60.71-49.215-109.925-109.925-109.925H245.64c-60.71,0-109.925,49.215-109.925,109.925v86.107H177.94z"/>
	<path d="M404.954,224.55H106.838c-10.477,2.576-18.25,12.028-18.25,23.3v234.634c0,13.253,10.744,23.998,23.998,23.998h286.619
		c13.254,0,23.998-10.744,23.998-23.998V247.849C423.203,236.578,415.43,227.126,404.954,224.55z M274.401,378.294v50.892H237.39
		v-50.892c-12.932-6.704-21.775-20.203-21.775-35.775c0-22.246,18.034-40.281,40.281-40.281s40.281,18.033,40.281,40.281
		C296.177,358.092,287.334,371.59,274.401,378.294z"/>
</g>
</svg>
