<?xml version="1.0" encoding="utf-8"?>
<!-- Generated by IcoMoon.io -->
<!DOCTYPE svg PUBLIC "-//W3C//DTD SVG 1.1//EN" "http://www.w3.org/Graphics/SVG/1.1/DTD/svg11.dtd">
<svg version="1.1" xmlns="http://www.w3.org/2000/svg" xmlns:xlink="http://www.w3.org/1999/xlink" width="512" height="512" viewBox="0 0 512 512">
<g>
</g>
	<path d="M404.48 204.8h-46.080v-61.44c0-74.163-34.176-117.76-102.4-117.76-68.25 0-102.4 43.597-102.4 117.76v10.24h51.2v-20.48c0-36.992 20.403-56.32 51.2-56.32 30.771 0 51.2 19.328 51.2 56.32v71.68h-204.8c-14.157 0-25.6 16.563-25.6 30.72v199.68c0 14.080 10.983 29.133 24.371 33.459l30.617 9.907c13.415 4.301 35.891 7.834 49.971 7.834h148.48c14.106 0 36.582-3.533 49.971-7.859l30.618-9.907c13.389-4.301 24.371-19.353 24.371-33.433v-199.68c0-14.157-16.563-30.72-30.72-30.72z" fill="#000000" />
</svg>
