<?xml version="1.0" encoding="utf-8"?>
<!-- Generator: Adobe Illustrator 19.2.1, SVG Export Plug-In . SVG Version: 6.00 Build 0)  -->
<svg version="1.1" id="Layer_1" xmlns="http://www.w3.org/2000/svg" xmlns:xlink="http://www.w3.org/1999/xlink" x="0px" y="0px"
	 width="512px" height="512px" viewBox="0 0 512 512" style="enable-background:new 0 0 512 512;" xml:space="preserve">
<g id="Map9vw.tif">
	<g>
		<path d="M447.6,126.9c0.3,5-1.8,8.7-5.1,12c-14.6,14.4-29,29-43.5,43.5c-87,87-174.2,174-261,261.3c-9.9,10-20.5,8-28,0
			c-13.6-14.3-27.8-28-41.7-41.9c-9.7-9.7-9.7-18-0.1-27.6C169.1,273,270.2,171.9,371.3,70.8c9.4-9.4,17.6-9.4,27.2,0.1
			c14.4,14.4,28.8,28.8,43.2,43.2C445.3,117.7,448.1,121.6,447.6,126.9z M409.2,126.6c-0.5-0.6-1-1.4-1.7-2
			c-6.7-6.8-13.5-13.4-20.2-20.3c-2-2.1-3.2-1.6-5,0.2c-21.3,21.4-42.7,42.8-64.1,64.1c-2.2,2.2-2.4,3.7-0.1,5.9
			c6.5,6.3,12.9,12.7,19.2,19.2c2.1,2.2,3.7,2.3,5.9,0c21.3-21.4,42.7-42.7,64-64.1C408.1,128.7,409,128.1,409.2,126.6z"/>
		<path d="M253.5,135.3c-7.1,2.2-14.1,4.5-21.2,6.6c-6.2,1.9-12.4,4-18.7,5.6c-4.2,1.1-6.4,3.3-7.6,7.4
			c-3.5,12.4-7.5,24.6-11.2,36.9c-0.3,1-0.4,2.2-1.7,3.1c-1.4-0.8-1.5-2.5-1.9-3.9c-3.7-12-7.5-23.9-11-36c-1.2-4.1-3.1-6.4-7.4-7.6
			c-11.6-3.2-23.1-6.9-34.7-10.5c-1.9-0.6-4.1-0.6-5.9-2.9c3.2-1.1,6.1-2.1,9.1-3c10.8-3.3,21.5-6.7,32.4-9.8c3.5-1,5.2-2.9,6.2-6.3
			c3.5-12.2,7.4-24.3,11.1-36.5c0.5-1.5,1-2.9,1.7-4.7c2.3,1.5,2.3,3.7,2.8,5.5c3.7,11.8,7.4,23.7,10.8,35.6
			c1.1,3.6,3.1,5.5,6.7,6.5c12.4,3.6,24.6,7.5,36.9,11.2c1.2,0.4,2.3,0.9,3.5,1.3C253.4,134.4,253.5,134.9,253.5,135.3z"/>
		<path d="M422.4,271.7c-1.7-5.4-3.6-10.7-4.9-16.1c-1.1-4.4-3.3-6.7-7.7-7.9c-5.5-1.4-11-2.8-16.3-6.5c4.9-1.5,9.7-3.4,14.7-4.4
			c5.4-1.2,8.6-3.8,9.7-9.4c1.1-5.1,3-10,4.7-15.3c2.8,1.7,2.9,4.3,3.2,6.4c1.6,12.4,8,19.6,20.8,20.9c2.2,0.2,4.4,1.4,6.5,2.1
			c0,0.4,0,0.9,0,1.3c-5.4,1.7-10.6,3.7-16.1,4.9c-4.7,1-7,3.4-8.1,8c-1.3,5.5-3.3,10.7-5,16.1C423.4,271.7,422.9,271.7,422.4,271.7
			z"/>
		<path d="M86.6,87.9c5.6-1.7,11.1-3.7,16.7-5.2c4-1,6.1-3,7.2-7.1c1.6-5.7,2.8-11.6,6.2-18c2.3,7.3,4.4,13.4,6.1,19.7
			c0.8,2.8,2.4,4.2,5.1,5c6,1.7,12,3.7,19.2,5.9c-5.8,3.5-11.1,4.5-16.2,5.8c-5.3,1.4-8,3.9-9.2,9.3c-1.2,5.2-2.5,10.4-5.3,16
			c-3-6.2-4.3-12.3-6-18.1c-1.1-3.6-2.9-5.6-6.5-6.5c-5.8-1.5-11.5-3.5-17.2-5.2C86.6,88.9,86.6,88.4,86.6,87.9z"/>
		<path d="M239.6,88.5c6-3,12.1-4.2,17.9-6c3.4-1,5.3-2.7,6.2-6.2c1.5-5.9,3.6-11.7,5.4-17.5c0.4,0,0.9,0,1.3-0.1
			c1.8,5.6,3.8,11.2,5.2,16.9c1,4,3.2,6.1,7.2,7.2c5.6,1.4,11.1,3.4,16.7,5.1c0,0.5,0,0.9,0.1,1.4c-5.3,1.7-10.6,3.7-16,5
			c-4.6,1.1-7,3.5-8.1,8.1c-1.3,5.3-3.2,10.5-5.1,16.6c-3.3-4-4-8.2-4.7-12c-1.5-8.1-5.6-12.8-14-14.1
			C247.7,92.2,243.6,91.2,239.6,88.5z"/>
	</g>
</g>
</svg>
