<?xml version="1.0" encoding="utf-8"?>
<!-- Generator: Adobe Illustrator 17.0.0, SVG Export Plug-In . SVG Version: 6.00 Build 0)  -->
<!DOCTYPE svg PUBLIC "-//W3C//DTD SVG 1.1//EN" "http://www.w3.org/Graphics/SVG/1.1/DTD/svg11.dtd">
<svg version="1.1" id="Layer_1" xmlns="http://www.w3.org/2000/svg" xmlns:xlink="http://www.w3.org/1999/xlink" x="0px" y="0px"
	 width="512px" height="512px" viewBox="0 0 512 512" enable-background="new 0 0 512 512" xml:space="preserve">
<g>
	<path d="M459.684,381.272l0.159-246.899c0.006-9.401-3.726-18.081-9.419-24.242c-0.78-0.95-1.566-1.819-2.513-2.467
		c-4.652-4.019-10.255-6.499-16.2-6.491l-351.22,0.318c-6.403,0.004-12.246,2.645-16.986,6.914c-0.083,0.067-0.15,0.16-0.235,0.229
		c-6.607,6.094-10.943,15.47-10.952,26.109l-0.16,246.9c-0.006,8.874,2.915,17.219,8.229,23.49c5.314,6.27,12.384,9.718,19.903,9.71
		l351.216-0.317c7.521-0.006,14.591-3.468,19.913-9.749C456.743,398.495,459.676,390.146,459.684,381.272z M418.524,135.91
		L256.43,266.669L93.802,135.182L418.524,135.91z M427.273,380.81l-341.857,0.317c-2.758,0.006-3.824-1.253-3.821-4.506
		l-0.696-204.74l169.033,133.93c3.967,2.957,9.03,2.947,13.002-0.028l168.318-134.158l-0.157,204.673
		c0.003,1.627-0.703,2.693-1.123,3.19C429.557,379.976,428.649,380.81,427.273,380.81z"/>
</g>
</svg>
