<?xml version="1.0" encoding="utf-8"?>
<!-- Generator: Adobe Illustrator 18.1.1, SVG Export Plug-In . SVG Version: 6.00 Build 0)  -->
<svg version="1.1" id="Layer_1" xmlns="http://www.w3.org/2000/svg" xmlns:xlink="http://www.w3.org/1999/xlink" x="0px" y="0px"
	 width="512px" height="512px" viewBox="0 0 512 512" enable-background="new 0 0 512 512" xml:space="preserve">
<path d="M445.4,65h-380C32.3,65,6,90.9,6,124.2v264.4C6,422,32.3,448,65.4,448h380c32.6,0,59.6-26.6,59.6-59.3V124.2
	C505,91.5,478.1,65,445.4,65z M472,368l-143.6-132l134.2-125.4c5.9,6.7,9.4,15.5,9.4,25.3V368z M254.5,261.9L78.9,98H430
	L254.5,261.9z M47.4,111.7l133.2,124.3L39,366.1V136C39,126.7,42.1,118.3,47.4,111.7z M433.8,415H77.1c-12.1,0-22.7-5.3-29.6-13.7
	l156.3-143.5l39.9,37.3c2.9,2.7,6.5,4.1,10.2,4.2c0.2,0,0.4,0,0.7,0c0.2,0,0.4,0,0.7,0c3.7-0.1,7.3-1.5,10.2-4.2l39.9-37.3
	l157.4,144.5C455.6,410.1,445.4,415,433.8,415z"/>
</svg>
