<?xml version="1.0" encoding="utf-8"?>
<!-- Generator: Adobe Illustrator 18.1.1, SVG Export Plug-In . SVG Version: 6.00 Build 0)  -->
<svg version="1.1" id="Layer_1" xmlns="http://www.w3.org/2000/svg" xmlns:xlink="http://www.w3.org/1999/xlink" x="0px" y="0px"
	 width="512px" height="512px" viewBox="0 0 512 512" enable-background="new 0 0 512 512" xml:space="preserve">
<path d="M445.1,65H65.8C32.7,65,7,90.8,7,124.1V388c0,33.2,25.7,59,58.8,59h379.3c32.6,0,58.9-26.3,58.9-59V124.1
	C504,91.4,477.6,65,445.1,65z M485.8,401.9c-5.9,6.4-16,6.8-22.3,0.8L305.1,257.4l-39.8,37.2c-2.9,2.7-6.5,4.1-10.1,4.2
	c-0.2,0-0.4,0-0.7,0c-0.2,0-0.4,0-0.7,0c-3.6-0.1-7.3-1.5-10.1-4.2l-39.8-37.2L45.5,402.7c-6.4,5.9-16.4,5.6-22.3-0.8
	c-5.9-6.4-5.5-16.5,0.8-22.4l156.6-143.8L45.9,109.8c-6.4-5.9-6.7-16-0.8-22.4s16-6.8,22.3-0.8l187.1,174.7L441.6,86.6
	c6.4-5.9,16.4-5.6,22.3,0.8s5.5,16.5-0.8,22.4L328.3,235.7l156.6,143.8C491.3,385.4,491.7,395.5,485.8,401.9z"/>
</svg>
