<?xml version="1.0" encoding="utf-8"?>
<!-- Generator: Adobe Illustrator 18.1.1, SVG Export Plug-In . SVG Version: 6.00 Build 0)  -->
<svg version="1.1" id="Layer_1" xmlns="http://www.w3.org/2000/svg" xmlns:xlink="http://www.w3.org/1999/xlink" x="0px" y="0px"
	 width="512px" height="512px" viewBox="0 0 512 512" enable-background="new 0 0 512 512" xml:space="preserve">
<g>
	<g>
		<path d="M470.6,96.5H39.8c-16.6,0-30.2,13.6-30.2,30.2v258.6c0,16.7,13.6,30.2,30.2,30.2h430.8c16.6,0,30.2-13.6,30.2-30.2V126.7
			C500.8,110,487.3,96.5,470.6,96.5z M474.5,385.3c0,2.1-1.7,3.9-3.9,3.9H39.8c-2.1,0-3.9-1.7-3.9-3.9V126.7c0-2.1,1.7-3.9,3.9-3.9
			h430.8c2.1,0,3.9,1.8,3.9,3.9V385.3z M424.2,145.7L251.2,280L82.4,145.4c-6.2-5-15.4-4-20.4,2.3c-5,6.3-4,15.4,2.3,20.4
			l177.8,141.7c2.6,2.1,5.8,3.2,9,3.2c3.1,0,6.3-1,8.9-3l181.9-141.3c6.3-4.9,7.5-14,2.6-20.3C439.6,142,430.5,140.8,424.2,145.7z"
			/>
	</g>
</g>
</svg>
