<?xml version="1.0" encoding="UTF-8" standalone="no"?>
<svg width="60px" height="60px" viewBox="0 0 60 60" version="1.1" xmlns="http://www.w3.org/2000/svg" xmlns:xlink="http://www.w3.org/1999/xlink">
    <!-- Generator: Sketch 46.2 (44496) - http://www.bohemiancoding.com/sketch -->
    <title>menu</title>
    <desc>Created with Sketch.</desc>
    <defs></defs>
    <g id="Page-1" stroke="none" stroke-width="1" fill="none" fill-rule="evenodd">
        <g id="menu" fill="#183247" fill-rule="nonzero">
            <path d="M7.77777778,14.6666667 C5.69136872,14.6666667 4,12.9504249 4,10.8333333 C4,8.71624179 5.69136872,7 7.77777778,7 L51.2222222,7 C53.3086313,7 55,8.71624179 55,10.8333333 C55,12.9504249 53.3086313,14.6666667 51.2222222,14.6666667 L7.77777778,14.6666667 Z M7.77777778,33.8333333 C5.69136872,33.8333333 4,32.1170915 4,30 C4,27.8829085 5.69136872,26.1666667 7.77777778,26.1666667 L51.2222222,26.1666667 C53.3086313,26.1666667 55,27.8829085 55,30 C55,32.1170915 53.3086313,33.8333333 51.2222222,33.8333333 L7.77777778,33.8333333 Z M7.77777778,52.8366648 C5.69136872,52.8366648 4,51.120423 4,49.0033315 C4,46.88624 5.69136872,45.1699982 7.77777778,45.1699982 L51.2222222,45.1699982 C53.3086313,45.1699982 55,46.88624 55,49.0033315 C55,51.120423 53.3086313,52.8366648 51.2222222,52.8366648 L7.77777778,52.8366648 Z"></path>
        </g>
    </g>
</svg>