<?xml version="1.0" encoding="utf-8"?>
<!-- Generator: Adobe Illustrator 17.0.0, SVG Export Plug-In . SVG Version: 6.00 Build 0)  -->
<!DOCTYPE svg PUBLIC "-//W3C//DTD SVG 1.1//EN" "http://www.w3.org/Graphics/SVG/1.1/DTD/svg11.dtd">
<svg version="1.1" id="Layer_1" xmlns="http://www.w3.org/2000/svg" xmlns:xlink="http://www.w3.org/1999/xlink" x="0px" y="0px"
	 width="512px" height="512px" viewBox="0 0 512 512" enable-background="new 0 0 512 512" xml:space="preserve">
<path d="M444.169,188.919c-25.125,0-46.956,14.08-58.051,34.776c-17.58-0.016-41.153,0.036-52.34-0.029
	c-25.75-0.148-47.019-20.825-47.356-46.577c-0.328-25.089-6.758-48.033-22.304-67.998c-17.7-22.734-40.076-38.284-68.879-43.278
	c-7.277-1.262-14.765-1.67-22.166-1.771c-15.839-0.216-31.682-0.144-47.523-0.063C114.286,43.858,92.778,30.25,68.081,30.25
	C31.723,30.25,2.25,59.723,2.25,96.081s29.473,65.831,65.831,65.831c24.682,0,46.179-13.592,57.448-33.691
	c16.873,0.024,33.746-0.061,50.616,0.146c4.299,0.053,8.74,0.881,12.845,2.196c19.341,6.196,32.591,24.346,32.842,44.964
	c0.321,26.352,7.859,50.062,25.103,70.325c2.687,3.157,5.589,6.132,8.386,9.186c-0.299,0.364-0.471,0.62-0.687,0.831
	c-20.428,20.001-31.168,44.308-32.503,72.842c-0.266,5.683-0.199,11.488-1.381,17.002c-4.582,21.388-23.969,36.758-46.113,36.883
	c-16.118,0.091-32.236,0.009-48.354,0.063c-11.045-20.856-32.959-35.072-58.203-35.072c-36.357,0-65.831,29.473-65.831,65.831
	s29.473,65.831,65.831,65.831c24.461,0,45.789-13.351,57.139-33.154c16.808,0.084,33.616,0.117,50.423-0.042
	c5.883-0.056,11.813-0.543,17.627-1.442c25.322-3.915,46.252-16.079,63.609-34.651c17.672-18.909,27.613-41.203,29.061-67.16
	c0.312-5.585,0.36-11.221,1.193-16.733c3.153-20.86,23.788-38.679,44.841-38.841c11.929-0.092,36.701-0.051,54.913-0.051
	c11.312,19.942,32.719,33.406,57.284,33.406c36.357,0,65.831-29.473,65.831-65.831S480.526,188.919,444.169,188.919z
	 M68.081,134.855c-21.414,0-38.774-17.36-38.774-38.774s17.36-38.774,38.774-38.774c21.414,0,38.774,17.36,38.774,38.774
	S89.495,134.855,68.081,134.855z M68.081,452.193c-21.414,0-38.774-17.36-38.774-38.774c0-21.414,17.36-38.774,38.774-38.774
	c21.414,0,38.774,17.36,38.774,38.774C106.855,434.833,89.495,452.193,68.081,452.193z M444.169,293.524
	c-21.414,0-38.774-17.36-38.774-38.774c0-21.414,17.36-38.774,38.774-38.774c21.414,0,38.774,17.36,38.774,38.774
	C482.943,276.164,465.583,293.524,444.169,293.524z"/>
</svg>
