<?xml version="1.0" encoding="utf-8"?>
<!-- Generator: Adobe Illustrator 18.1.1, SVG Export Plug-In . SVG Version: 6.00 Build 0)  -->
<svg version="1.1" id="Layer_1" xmlns="http://www.w3.org/2000/svg" xmlns:xlink="http://www.w3.org/1999/xlink" x="0px" y="0px"
	 width="512px" height="512px" viewBox="0 0 512 512" enable-background="new 0 0 512 512" xml:space="preserve">
<path fill="#010101" d="M277.8,13.4L115.6,56.9c-20.3,5.4-32.4,26.5-27,46.7l98.8,368.7c5.4,20.3,26.5,32.4,46.8,27l162.2-43.5
	c20.3-5.4,32.4-26.5,27-46.7L324.6,40.4C319.1,20.1,298.1,8,277.8,13.4z M182.5,70.6l44.2-11.9c4.1-1.1,8.3,1.3,9.4,5.4
	c1.1,4.1-1.3,8.3-5.4,9.4l-44.2,11.9c-4.1,1.1-8.3-1.3-9.3-5.4C176,75.8,178.5,71.7,182.5,70.6z M311.3,462.9
	c-12.2,3.3-24.8-4-28.1-16.2c-3.3-12.2,4-24.8,16.2-28.1c12.2-3.3,24.8,4,28.1,16.2C330.8,447,323.6,459.6,311.3,462.9z
	 M398.8,376.2l-206.5,55.3l-79-295l206.5-55.3L398.8,376.2z"/>
</svg>
