<?xml version="1.0" encoding="UTF-8"?>
<svg width="60px" height="60px" viewBox="0 0 60 60" version="1.1" xmlns="http://www.w3.org/2000/svg" xmlns:xlink="http://www.w3.org/1999/xlink">
    <!-- Generator: Sketch 44.1 (41455) - http://www.bohemiancoding.com/sketch -->
    <title>mobihelp</title>
    <desc>Created with Sketch.</desc>
    <defs></defs>
    <g id="Page-1" stroke="none" stroke-width="1" fill="none" fill-rule="evenodd">
        <g id="mobihelp" fill="#183247" fill-rule="nonzero">
            <path d="M33.5,16.6327746 L30,16.6327746 L30,7.46666667 L5.5,7.46666667 L5.5,52.5333333 L30,52.5333333 L30,42.3727746 L33.5,42.3727746 L33.5,52.5333333 C33.5,54.4479205 31.9329966,56 30,56 L5.5,56 C3.56700338,56 2,54.4479205 2,52.5333333 L2,7.46666667 C2,5.55207953 3.56700338,4 5.5,4 L30,4 C31.9329966,4 33.5,5.55207953 33.5,7.46666667 L33.5,16.6327746 Z M5.5,49.0666667 L30,49.0666667 L30,45.6 L5.5,45.6 L5.5,49.0666667 Z M14.2333333,10.9333333 L21.2666667,10.9333333 L21.2666667,10.9333333 C22.2239602,10.9333333 23,11.7093731 23,12.6666667 C23,13.6239602 22.2239602,14.4 21.2666667,14.4 L14.2333333,14.4 C13.2760398,14.4 12.5,13.6239602 12.5,12.6666667 L12.5,12.6666667 L12.5,12.6666667 C12.5,11.7093731 13.2760398,10.9333333 14.2333333,10.9333333 Z M54.5,18.3661079 C56.4329966,18.3661079 58,19.9181875 58,21.8327746 L58,37.1727746 C58,39.0873617 56.4329966,40.6394413 54.5,40.6394413 L47.5,40.6394413 L39.4505954,46.9820435 C38.6942427,47.5780186 37.593319,47.4538463 36.9916134,46.7046969 C36.7452419,46.3979538 36.6111111,46.0175575 36.6111111,45.6255887 L36.6111111,40.6394413 L23,40.6394413 C21.0670034,40.6394413 19.5,39.0873617 19.5,37.1727746 L19.5,21.8327746 C19.5,19.9181875 21.0670034,18.3661079 23,18.3661079 L54.5,18.3661079 Z M46.2776253,37.1727746 L52.6,37.1727746 L52.6,37.1727746 C53.649341,37.1727746 54.5,36.3221156 54.5,35.2727746 L54.5,23.7327746 L54.5,23.7327746 C54.5,22.6834336 53.649341,21.8327746 52.6,21.8327746 L24.9,21.8327746 L24.9,21.8327746 C23.850659,21.8327746 23,22.6834336 23,23.7327746 L23,35.2727746 L23,35.2727746 C23,36.3221156 23.850659,37.1727746 24.9,37.1727746 L40.1111111,37.1727746 L40.1111111,42.0317361 L46.2776253,37.1727746 Z"></path>
        </g>
    </g>
</svg>