<?xml version="1.0" encoding="utf-8"?>
<!-- Generator: Adobe Illustrator 21.0.2, SVG Export Plug-In . SVG Version: 6.00 Build 0)  -->
<svg version="1.1" id="Layer_1" xmlns="http://www.w3.org/2000/svg" xmlns:xlink="http://www.w3.org/1999/xlink" x="0px" y="0px"
	 width="512px" height="512px" viewBox="0 0 512 512" style="enable-background:new 0 0 512 512;" xml:space="preserve">
<g>
	<path d="M380.1,361.2H199.8l-87.7,89.5c6.1,17.8,22.9,30.6,42.6,30.6h210.3c24.8,0,45.1-20.3,45.1-45.1V146.5l-30,30.7V361.2z
		 M259.9,451.4c-16.6,0-30-13.5-30-30c0-16.6,13.5-30,30-30s30,13.5,30,30C290,437.9,276.5,451.4,259.9,451.4z"/>
	<path d="M461.2,23l-51.6,52.7c-3.3-21.6-22-38.2-44.5-38.2H154.8c-24.8,0-45.1,20.3-45.1,45.1v299.4l-82.9,84.7l23.3,22.9
		L484.5,45.9L461.2,23z M199.9,60H320v15H199.9V60z M139.8,97.6h240.4v8.2L139.8,351.2V97.6z"/>
</g>
</svg>
