<?xml version="1.0" encoding="utf-8"?>
<!-- Generator: Adobe Illustrator 17.0.0, SVG Export Plug-In . SVG Version: 6.00 Build 0)  -->
<!DOCTYPE svg PUBLIC "-//W3C//DTD SVG 1.1//EN" "http://www.w3.org/Graphics/SVG/1.1/DTD/svg11.dtd">
<svg version="1.1" id="Layer_1" xmlns="http://www.w3.org/2000/svg" xmlns:xlink="http://www.w3.org/1999/xlink" x="0px" y="0px"
	 width="512px" height="512px" viewBox="0 0 512 512" enable-background="new 0 0 512 512" xml:space="preserve">
<g>
	<path d="M213.984,478.184c-53.68,0-107.36,0-161.039,0c-7.775-1.35-15.614-2.22-23.312-4.148
		c-17.327-4.339-20.294-14.877-9.613-34.268c12.117-21.996,26.277-41.26,41.796-58.775c11.668-13.169,24.626-20.597,39.76-21.398
		c10.441-0.553,20.856-2.044,31.283-3.116c92.426,0,184.852,0,277.279,0c16.605,3.434,30.738,13.696,43.381,28.717
		c15.001,17.822,29.472,36.287,40.309,59.35c7.385,15.716,4.679,24.67-8.622,27.03c-12.558,2.228-25.275,3.626-37.932,3.777
		c-72.949,0.871-145.902,1.246-218.853,1.856C223.607,477.249,218.796,477.845,213.984,478.184z M448.558,458.921
		c-1.021-2.791-1.194-3.597-1.551-4.196c-16.901-28.329-33.756-56.71-50.847-84.82c-1.395-2.294-4.412-3.85-6.675-3.847
		c-80.097,0.101-160.194,0.387-240.29,0.945c-2.238,0.016-5.361,2.505-6.558,5.143c-12.398,27.305-24.493,54.87-36.635,82.395
		c-0.647,1.468-0.958,3.217-1.293,4.38C219.212,458.921,333.352,458.921,448.558,458.921z M64.514,407.028
		c7.365,5.434,17.438,3.595,22.634-3.958C79.111,400.402,71.984,401.234,64.514,407.028z"/>
	<path d="M298.531,111.154c0-2.744,0-5.489,0-8.233c0.774-4.12,1.172-8.354,2.389-12.338c4.449-14.557,12.858-25.265,28.899-27.738
		c7.822-1.206,15.394,0.79,22.762,3.058c6.709,2.065,13.103,1.939,19.707-0.31c4.332-1.476,8.833-2.609,13.347-3.372
		c12.256-2.072,26.42,4.183,32.539,14.238c-9.651,7.638-16.527,16.795-15.66,30.035c0.773,11.812,9.168,23.195,20.267,27.116
		c0,0.249,0,0.499,0,0.748c-3.958,9.269-8.477,18.202-14.913,26.071c-9.51,11.63-16.584,13.78-30.765,9.177
		c-2.243-0.728-4.5-1.738-6.8-1.897c-4.646-0.322-9.443-0.809-13.961-0.007c-5.172,0.918-10.109,3.161-15.148,4.829
		c-1.746,0-3.493,0-5.239,0c-6.319-2.001-11.638-5.485-15.86-10.626c-7.508-9.142-13.381-19.258-16.928-30.52
		C301.096,124.807,300.043,117.909,298.531,111.154z"/>
	<path d="M388.351,29.568c1.99,5.991,0.113,11.514-2.262,16.875c-5.038,11.372-15.42,18.37-26.338,17.973
		c-1.034-11.325,5.384-25.825,17.948-31.123c3.036-1.28,6.103-2.486,9.155-3.726C387.353,29.568,387.852,29.568,388.351,29.568z"/>
	<path d="M231.751,183.142c-0.214,0.22-0.482,0.408-0.633,0.665c-0.758,1.285-1.251,2.826-2.273,3.836
		c-2.315,2.287-5.104,3.16-8.486,2.483c-1.952-0.391-3.477-1.335-4.807-2.524c-1.267-1.133-2.171-2.707-2.4-4.514
		c-0.126-0.997-0.35-1.996-0.352-2.994c-0.024-12.618-0.059-25.237,0.027-37.855c0.014-2.105,0.601-4.086,1.861-6.024
		c1.004-1.544,2.338-2.545,3.71-3.125c1.621-0.685,3.454-1.376,5.485-0.674c1.99,0.688,4.011,1.219,5.284,3.005
		c0.783,1.098,1.297,2.386,1.96,3.573c0.148,0.265,0.414,0.464,0.625,0.693C231.751,154.172,231.751,168.657,231.751,183.142z"/>
	<path d="M167.004,134.233c13.612,0,27.224,0,40.837,0c1.557,0,1.559,0.002,1.559,1.543c0.001,19.271,0.02,38.542-0.023,57.812
		c-0.006,2.562-0.439,4.997-1.956,7.301c-1.09,1.656-2.46,2.531-4.076,3.425c-1.931,1.068-3.946,0.978-5.991,0.997
		c-1.266,0.012-2.533-0.004-3.799,0.004c-1.305,0.008-1.606,0.301-1.607,1.6c-0.005,6.371-0.023,12.742,0.008,19.112
		c0.013,2.558-0.905,4.804-2.503,6.655c-1.184,1.371-2.859,2.339-4.721,2.593c-3.381,0.462-6.509-0.061-8.928-2.792
		c-1.592-1.797-2.312-3.808-2.264-6.274c0.124-6.448,0.043-12.899,0.041-19.349c0-1.475-0.07-1.546-1.539-1.547
		c-3.403-0.003-6.806-0.002-10.209,0c-1.551,0.001-1.563,0.016-1.564,1.627c-0.002,6.529,0.069,13.059-0.031,19.587
		c-0.053,3.446-1.698,5.982-4.783,7.742c-2.705,1.542-5.463,1.51-8.114,0.508c-2.635-0.995-4.378-3.036-5.174-5.943
		c-0.532-1.944-0.617-3.847-0.619-5.801c-0.005-5.302-0.001-10.605-0.002-15.907c0-1.813-0.002-1.813-1.866-1.814
		c-1.86,0-3.72,0.001-5.579,0c-3.952-0.004-7.345-2.62-8.811-6.048c-0.589-1.378-0.802-3.012-0.806-4.53
		c-0.051-19.627-0.034-39.254-0.034-58.881c0-1.62,0.001-1.622,1.6-1.622C139.7,134.233,153.352,134.233,167.004,134.233z"/>
	<path d="M208.698,124.83c-0.289-1.508-0.499-3.052-0.994-4.493c-0.735-2.136-1.687-4.196-2.553-6.286
		c-1.216-2.935-3.165-5.42-5.198-7.776c-1.592-1.845-3.682-3.25-5.447-4.956c-1.839-1.778-3.925-3.123-6.239-4.174
		c-0.228-0.103-0.455-0.744-0.345-0.969c0.946-1.928,1.968-3.817,2.97-5.717c1.177-2.233,2.357-4.464,3.526-6.679
		c-0.812-1.113-1.599-1.166-2.386-0.156c-0.256,0.329-0.421,0.731-0.611,1.11c-0.761,1.522-1.477,3.069-2.283,4.567
		c-0.871,1.62-1.776,3.225-2.763,4.777c-0.361,0.567-0.628,1.514-1.662,1.205c-2.964-0.886-5.904-1.863-8.892-2.658
		c-1.273-0.338-2.644-0.297-3.967-0.457c-1.175-0.141-2.349-0.294-3.523-0.443c-3.916,0.13-7.841,0.032-11.651,1.189
		c-2.194,0.666-4.395,1.305-6.584,1.988c-0.815,0.254-1.631,0.841-2.311-0.199c-0.596-0.91-1.223-1.805-1.741-2.758
		c-0.702-1.291-1.276-2.651-1.974-3.944c-0.736-1.364-1.718-2.62-2.278-4.047c-0.402-1.024-1.037-1.221-1.769-0.929
		c-0.783,0.313-0.749,1.055-0.313,1.781c0.872,1.448,1.7,2.923,2.542,4.39c0.893,1.556,1.841,3.084,2.649,4.684
		c0.492,0.975,0.764,2.06,1.088,2.966c-6.67,3.259-11.696,7.9-15.513,13.73c-3.865,5.905-6.052,12.447-6.061,19.798
		c0.74,0,1.325,0,1.91,0c26.98,0,53.962,0,80.942,0c0.316,0,0.633,0.009,0.95-0.004c1.13-0.048,1.37-0.401,1.16-1.504
		C209.121,127.525,208.955,126.169,208.698,124.83z M147.357,115.379c-2.136-0.01-3.491-1.421-3.496-3.64
		c-0.005-2.598,1.004-3.683,3.428-3.692c2.408-0.008,3.975,1.374,3.986,3.513C151.284,113.602,149.452,115.388,147.357,115.379z
		 M186.297,115.365c-2.013-0.004-3.922-1.526-3.942-3.489c-0.022-2.188,1.604-3.81,3.801-3.824c2.243-0.29,3.882,1.53,3.839,3.392
		C189.943,113.79,188.592,115.369,186.297,115.365z"/>
	<path d="M102.11,161.356c0.001-6.924-0.008-13.847,0.005-20.771c0.005-2.432,2.605-6.148,4.924-7.049
		c1.283-0.498,2.565-1.046,3.898-1.344c0.706-0.157,1.518,0.191,2.286,0.281c2.831,0.331,4.657,2.186,6.173,4.315
		c0.874,1.227,1.306,2.753,1.307,4.319c0.006,13.531,0.026,27.062-0.014,40.593c-0.009,3.1-2.149,6.254-5.082,7.682
		c-2.428,1.182-4.839,1.243-7.232,0.533c-1.957-0.58-3.66-1.783-4.606-3.786c-0.395-0.836-1.033-1.56-1.399-2.404
		c-0.237-0.546-0.248-1.218-0.25-1.834C102.104,175.045,102.11,168.2,102.11,161.356z"/>
	<path d="M372.311,184.86h-5.379c6.899,19.498,10.815,41.769,10.815,65.426c0,72.626-36.87,134.36-83.861,140.531v5.115
		c49.632-6.19,88.638-69.029,88.638-145.646C382.525,226.764,378.843,204.545,372.311,184.86z"/>
	<path d="M169.921,254.008h-4.78c1.239,74.92,39.78,135.833,88.606,141.923v-5.115C207.562,384.752,171.156,324.939,169.921,254.008
		z"/>
</g>
</svg>
