<?xml version="1.0" encoding="utf-8"?>
<!-- Generator: Adobe Illustrator 21.0.2, SVG Export Plug-In . SVG Version: 6.00 Build 0)  -->
<svg version="1.1" id="Layer_1" xmlns="http://www.w3.org/2000/svg" xmlns:xlink="http://www.w3.org/1999/xlink" x="0px" y="0px"
	 width="512px" height="512px" viewBox="0 0 512 512" style="enable-background:new 0 0 512 512;" xml:space="preserve">
<path d="M365.1,38H155.2c-24.7,0-45,20.2-45,45V436c0,24.7,20.2,45,45,45h209.8c24.7,0,45-20.2,45-45V83C410,58.2,389.8,38,365.1,38
	z M200.2,60.5h119.9v15H200.2V60.5z M260.2,451c-16.6,0-30-13.4-30-30s13.4-30,30-30s30,13.4,30,30S276.7,451,260.2,451z M380,361.1
	H140.3V97.9H380V361.1z"/>
</svg>
