<?xml version="1.0" encoding="utf-8"?>
<!-- Generator: Adobe Illustrator 18.1.1, SVG Export Plug-In . SVG Version: 6.00 Build 0)  -->
<svg version="1.1" id="Layer_1" xmlns="http://www.w3.org/2000/svg" xmlns:xlink="http://www.w3.org/1999/xlink" x="0px" y="0px"
	 width="512px" height="512px" viewBox="0 0 512 512" enable-background="new 0 0 512 512" xml:space="preserve">
<g>
	<g>
		<path fill="#010101" d="M423.1,407.8L324.2,38.9c-5.5-20.3-26.5-32.4-46.9-27L114.9,55.4c-20.3,5.4-32.4,26.5-27,46.7L186.8,471
			c5.4,20.3,26.5,32.4,46.9,27l162.4-43.5C416.4,449.2,428.5,428.1,423.1,407.8z M181.9,69.1l44.3-11.9c4.1-1.1,8.3,1.3,9.4,5.4
			c1.1,4.1-1.3,8.3-5.4,9.4l-44.3,11.9c-4.1,1.1-8.3-1.3-9.3-5.4C175.4,74.3,177.9,70.2,181.9,69.1z M310.9,461.7
			c-12.2,3.3-24.8-4-28.1-16.2c-3.3-12.2,4-24.8,16.2-28.1c12.2-3.3,24.8,4,28.1,16.2C330.4,445.8,323.2,458.4,310.9,461.7z
			 M191.7,430.3l-79.1-295.2l206.7-55.3L398.4,375L191.7,430.3z M178.3,198.6L216.6,342c2.9,10.9,14.1,17.4,25,14.5l76.8-20.4
			c10.9-2.9,17.4-14.1,14.5-25l-38.3-143.4c-2.9-10.9-14.1-17.4-25-14.5l-76.8,20.4C181.9,176.6,175.4,187.8,178.3,198.6z"/>
	</g>
</g>
</svg>
