<?xml version="1.0" encoding="utf-8"?>
<!-- Generator: Adobe Illustrator 17.0.0, SVG Export Plug-In . SVG Version: 6.00 Build 0)  -->
<!DOCTYPE svg PUBLIC "-//W3C//DTD SVG 1.1//EN" "http://www.w3.org/Graphics/SVG/1.1/DTD/svg11.dtd">
<svg version="1.1" id="Layer_1" xmlns="http://www.w3.org/2000/svg" xmlns:xlink="http://www.w3.org/1999/xlink" x="0px" y="0px"
	 width="512px" height="512px" viewBox="0 0 512 512" enable-background="new 0 0 512 512" xml:space="preserve">
<g>
	<polygon points="483.906,170.153 438.075,67.799 422.15,29.785 371.372,89.523 	"/>
	<path d="M70.711,180.779v-20.341h139.174l-14.415-9.88l60.597-71.291H18.793v410.697h314.609V245.096l-93.839-64.317H70.711z
		 M281.484,443.567H70.711v-20.341h210.773V443.567z M281.484,391.01H70.711v-20.341h210.773V391.01z M281.484,338.452H70.711
		v-20.341h210.773V338.452z M281.484,285.894H70.711v-20.341h210.773V285.894z M281.484,233.337H70.711v-20.341h210.773V233.337z"/>
	<polygon points="214.068,146.755 326.601,227.384 280.77,125.031 264.845,87.016 	"/>
	<polygon points="292.403,103.207 367.19,103.207 352.775,93.327 413.372,22.036 176.098,22.036 176.098,63.769 274.51,63.769 	"/>
	<polygon points="396.868,123.548 301.632,123.548 316.248,155.764 438.789,155.764 438.789,176.105 325.477,176.105 
		340.094,208.322 438.789,208.322 438.789,228.663 349.323,228.663 350.45,231.148 350.45,260.879 438.789,260.879 438.789,281.22 
		350.45,281.22 350.45,313.437 438.789,313.437 438.789,333.778 350.45,333.778 350.45,365.994 438.789,365.994 438.789,386.336 
		350.45,386.336 350.45,432.733 490.707,432.733 490.707,187.864 	"/>
</g>
</svg>
