<?xml version="1.0" encoding="utf-8"?>
<!-- Generator: Adobe Illustrator 18.1.1, SVG Export Plug-In . SVG Version: 6.00 Build 0)  -->
<svg version="1.1" id="Layer_1" xmlns="http://www.w3.org/2000/svg" xmlns:xlink="http://www.w3.org/1999/xlink" x="0px" y="0px"
	 width="512px" height="512px" viewBox="0 0 512 512" enable-background="new 0 0 512 512" xml:space="preserve">
<g>
	<g>
		<path fill-rule="evenodd" clip-rule="evenodd" d="M55.4,74.8H40c-17,0-30.8,13.8-30.8,30.8V121c0,17,13.8,30.8,30.8,30.8h15.4
			c17,0,30.8-13.8,30.8-30.8v-15.4C86.2,88.6,72.4,74.8,55.4,74.8z M155.5,136.4h323.2c12.8,0,23.1-10.3,23.1-23.1
			c0-12.8-10.3-23.1-23.1-23.1H155.5c-12.8,0-23.1,10.3-23.1,23.1C132.4,126,142.7,136.4,155.5,136.4z M478.7,228.7H278.6
			c-12.8,0-23.1,10.3-23.1,23.1c0,12.8,10.3,23.1,23.1,23.1h200.1c12.8,0,23.1-10.3,23.1-23.1C501.8,239.1,491.4,228.7,478.7,228.7z
			 M178.5,213.3h-15.4c-17,0-30.8,13.8-30.8,30.8v15.4c0,17,13.8,30.8,30.8,30.8h15.4c17,0,30.8-13.8,30.8-30.8v-15.4
			C209.3,227.1,195.5,213.3,178.5,213.3z M478.7,382.6H278.6c-12.8,0-23.1,10.3-23.1,23.1s10.3,23.1,23.1,23.1h200.1
			c12.8,0,23.1-10.3,23.1-23.1S491.4,382.6,478.7,382.6z M178.5,367.2h-15.4c-17,0-30.8,13.8-30.8,30.8v15.4
			c0,17,13.8,30.8,30.8,30.8h15.4c17,0,30.8-13.8,30.8-30.8V398C209.3,381,195.5,367.2,178.5,367.2z"/>
	</g>
</g>
</svg>
