<?xml version="1.0" encoding="utf-8"?>
<!-- Generator: Adobe Illustrator 19.0.0, SVG Export Plug-In . SVG Version: 6.00 Build 0)  -->
<svg version="1.1" id="Layer_1" xmlns="http://www.w3.org/2000/svg" xmlns:xlink="http://www.w3.org/1999/xlink" x="0px" y="0px"
	 width="512px" height="512px" viewBox="0 0 512 512" enable-background="new 0 0 512 512" xml:space="preserve">
<g>
	<g id="XMLID_56_">
		<path id="XMLID_57_" d="M475.6,133.2l-92-90.8c-6.6-6.5-15.4-10.1-24.7-10.1H60.6c-19.4,0-35.2,15.8-35.2,35.2v377.1
			c0,19.4,15.8,35.2,35.2,35.2h390.3c19.4,0,35.2-15.8,35.2-35.2V158.2C486.1,148.9,482.3,139.8,475.6,133.2z M459.7,444.5
			c0,4.8-3.9,8.8-8.8,8.8H60.6c-4.8,0-8.8-3.9-8.8-8.8V67.5c0-4.8,3.9-8.8,8.8-8.8h298.3c2.3,0,4.5,0.9,6.1,2.5l92,90.8
			c1.7,1.6,2.6,3.9,2.6,6.2V444.5z M313.3,280.8c-3.3-5.4-9.5-8-15.5-6.6c-1.3,0.3-2.6,0.9-4.1,1.7l-1.5,1c-3.2,2-11.1,7.1-15,9.5
			c-5.6-3-20.6-18.5-30.6-41.7c-4.4-10.3-5.1-16-5.1-18.4l16.4-10.4c3.2-2,5.5-5.4,6.4-9.1c0.9-3.8,0.2-7.9-1.7-11.2L224,131.4
			c-2-3.3-5.2-5.8-8.9-6.6c-3.6-0.9-7.5-0.3-10.8,1.8l-2.9,1.9c-5.3,3.4-15.9,10.1-16.9,10.8c-40.1,26.7-36.2,75.1,12.8,156.8
			c42,70,77.5,98.7,111.8,90.3c0,0,0.5-0.1,0.5-0.1c7.8-2,13.7-5.6,17.5-7.9l1.2-0.7c0.1-0.1,18.7-11.8,19.8-12.6
			c6.3-4.4,8.1-13.2,4.1-20L313.3,280.8z M319.1,361.1l-1.2,0.7c-3.4,2-7.5,4.6-12.8,5.9l1.8,9.3l-2.1-9.2
			c-24.8,6.1-55.8-21.4-91.9-81.8c-61.4-102.4-31.3-122.5-17.9-131.4c0.5-0.4,10.2-6.5,15.5-9.9l34.4,57.4l-15.6,9.9
			c-8.3,5.8-8.1,20.1,0.6,40.4c10.7,24.9,34.5,57.1,51.3,53c1.3-0.3,2.5-0.8,3.4-1.4c1-0.6,10.2-6.4,15.3-9.7l34.6,57.1
			C329.3,354.7,319.9,360.6,319.1,361.1z"/>
	</g>
</g>
</svg>
