<?xml version="1.0" encoding="utf-8"?>
<!-- Generator: Adobe Illustrator 19.1.0, SVG Export Plug-In . SVG Version: 6.00 Build 0)  -->
<svg version="1.1" id="Layer_1" xmlns="http://www.w3.org/2000/svg" xmlns:xlink="http://www.w3.org/1999/xlink" x="0px" y="0px"
	 width="512px" height="512px" viewBox="0 0 512 512" style="enable-background:new 0 0 512 512;" xml:space="preserve">
<style type="text/css">
	.st0{fill:#020202;}
</style>
<g>
	<g>
		<path class="st0" d="M475.5,133.5L383.8,43c-6.6-6.5-15.3-10.1-24.6-10.1H62.1c-19.3,0-35.1,15.8-35.1,35.1v376
			c0,19.3,15.7,35.1,35.1,35.1h388.8c19.3,0,35.1-15.8,35.1-35.1V158.4C485.9,149.2,482.2,140.1,475.5,133.5z M450.9,452.6H62.1
			c-4.8,0-8.8-3.9-8.8-8.8V68c0-4.8,3.9-8.8,8.8-8.8h297.1c2.3,0,4.5,0.9,6.1,2.5l91.6,90.5c1.7,1.6,2.6,3.9,2.6,6.2v285.4h0.1
			C459.6,448.7,455.8,452.6,450.9,452.6z M195.7,278.2l31.9,31.9l63.9-63.9l-31.9-31.9L195.7,278.2z M347.4,190.3l-8,8
			c-4.1,4.1-9.7,6.6-16,6.6c-12.5,0-22.6-10.1-22.6-22.6c0-6.2,2.5-11.9,6.6-16l8-8l-18.3-18.3c-7.5-7.5-19.7-7.5-27.2,0
			L121.4,288.5c-7.5,7.5-7.5,19.7,0,27.2l18.3,18.3l8-8c4.1-4.1,9.7-6.6,16-6.6c12.5,0,22.6,10.1,22.6,22.6c0,6.2-2.5,11.9-6.6,16
			l-8,8l18.3,18.3c7.5,7.5,19.7,7.5,27.2,0l148.5-148.5c7.5-7.5,7.5-19.7,0-27.2L347.4,190.3z M227.6,342l-63.9-63.9l95.8-95.8
			l63.9,63.9L227.6,342z"/>
	</g>
</g>
</svg>
