<?xml version="1.0" encoding="utf-8"?>
<!-- Generator: Adobe Illustrator 17.0.0, SVG Export Plug-In . SVG Version: 6.00 Build 0)  -->
<!DOCTYPE svg PUBLIC "-//W3C//DTD SVG 1.1//EN" "http://www.w3.org/Graphics/SVG/1.1/DTD/svg11.dtd">
<svg version="1.1" id="Layer_1" xmlns="http://www.w3.org/2000/svg" xmlns:xlink="http://www.w3.org/1999/xlink" x="0px" y="0px"
	 width="512px" height="512px" viewBox="0 0 512 512" enable-background="new 0 0 512 512" xml:space="preserve">
<g>
	<g>
		<path fill-rule="evenodd" clip-rule="evenodd" d="M243.045,210.583h-33.519v-94.219c-9.371-9.383-24.566-9.383-33.938,0
			L17.461,241.072c-9.371,9.382-9.371,24.593,0,33.973l59.077,46.591L243.045,210.583z M489.299,210.583H379.293l124.715-83.18
			l-28.262-34.714L22.864,394.745l28.259,34.714l87.843-58.588l36.622,28.883c9.371,9.382,24.566-3.619,33.938-12.999v-62.944
			l39.478-26.331h240.294c12.362,0,22.382-10.02,22.382-22.38v-42.136C511.68,220.604,501.66,210.583,489.299,210.583z"/>
	</g>
</g>
</svg>
