<?xml version="1.0" encoding="utf-8"?>
<!-- Generated by IcoMoon.io -->
<!DOCTYPE svg PUBLIC "-//W3C//DTD SVG 1.1//EN" "http://www.w3.org/Graphics/SVG/1.1/DTD/svg11.dtd">
<svg version="1.1" xmlns="http://www.w3.org/2000/svg" xmlns:xlink="http://www.w3.org/1999/xlink" width="1024" height="1024" viewBox="0 0 1024 1024"><g id="icomoon-ignore">
</g>
<path d="M338.4 521.2l430.8-74.8c4.4-0.8 7.4-5 6.6-9.4s-5-7.4-9.4-6.6l-430.8 74.8c-4.4 0.8-7.4 5-6.6 9.4 0.6 4 4.2 6.8 8 6.8 0.4 0 0.8 0 1.4-0.2zM383.8 783.4l430.8-74.8c2.2-0.4 4-1.6 5.4-3.4 1.2-1.8 1.8-4 1.4-6.2l-29.4-168.4c-0.8-4.4-5-7.4-9.4-6.6l-430.8 74.8c-4.4 0.8-7.4 5-6.6 9.4l29.2 168.6c0.4 2.2 1.6 4 3.4 5.4 1.4 1 3 1.4 4.8 1.4 0.4 0 0.8-0.2 1.2-0.2zM777.2 541.6l26.4 152.4-414.6 72-26.4-152.4 414.6-72zM664.8 734.6c4.4-0.8 7.4-5 6.6-9.4l-26-149.8c-0.8-4.4-5-7.4-9.4-6.6s-7.4 5-6.6 9.4l26 149.8c0.6 4 4.2 6.8 8 6.8 0.4 0 0.8 0 1.4-0.2zM606.2 397.6l149.8-26c4.4-0.8 7.4-5 6.6-9.4s-4.8-7.4-9.4-6.6l-149.8 26c-4.4 0.8-7.4 5-6.6 9.4 0.6 4 4.2 6.8 8 6.8 0.6 0 1-0.2 1.4-0.2zM590 304l149.8-26c4.4-0.8 7.4-5 6.6-9.4s-5-7.4-9.4-6.6l-149.8 26c-4.4 0.8-7.4 5-6.6 9.4 0.6 4 4.2 6.8 8 6.8 0.4-0.2 1-0.2 1.4-0.2zM573.8 210.4l149.8-26c4.4-0.8 7.4-5 6.6-9.4s-5-7.4-9.4-6.6l-149.8 26c-4.4 0.8-7.4 5-6.6 9.4 0.6 4 4.2 6.8 8 6.8 0.4-0.2 0.8-0.2 1.4-0.2zM306.4 893.2l599.2-104c4.4-0.8 7.4-5 6.6-9.4l-126.6-730.4c-0.4-2.2-1.6-4-3.4-5.4-1.8-1.2-4-1.8-6.2-1.4l-599.2 104c-4.4 0.8-7.4 5-6.6 9.4l126.8 730.4c0.4 2.2 1.6 4 3.4 5.4 1.4 1 3 1.4 4.8 1.4 0.4 0.2 0.8 0.2 1.2 0zM771 60.4l124 714.2-583 101.2-124-714.2 583-101.2zM244.6 981.2l580.6-100.8c2.2-0.4 4-1.6 5.4-3.4 1.2-1.8 1.8-4 1.4-6.2l-9.8-56.2c-0.8-4.4-5-7.4-9.4-6.6s-7.4 5-6.6 9.4l8.4 48.2-564.4 98-121-695.4 48.2-8.4c4.4-0.8 7.4-5 6.6-9.4s-5-7.4-9.4-6.6l-56.2 9.8c-2.2 0.4-4 1.6-5.4 3.4-1.2 1.8-1.8 4-1.4 6.2l123.4 711.6c0.6 4 4.2 6.8 8 6.8 0.6-0.2 1-0.4 1.6-0.4z"></path>
<path d="M406.6 384.4l12.4-2.2c5.6-1 11 2.8 12 8.4l1.8 9.8c1 5.6-2.8 11-8.4 12l-12.4 2.2c-5.6 1-11-2.8-12-8.4l-1.8-9.8c-1-5.6 2.8-11 8.4-12z"></path>
<path d="M457.8 348l7-1.2c7-1.2 13.8 3.4 15.2 10.6l5.4 31c1.2 7-3.4 13.8-10.6 15.2l-7 1.2c-7 1.2-13.8-3.4-15.2-10.6l-5.4-31c-1.2-7.2 3.4-14 10.6-15.2z"></path>
<path d="M504 305l9-1.6c6.6-1.2 12.8 3.2 14 9.8l11.8 66.6c1.2 6.6-3.2 12.8-9.8 14l-9 1.6c-6.6 1.2-12.8-3.2-14-9.8l-11.8-66.6c-1-6.6 3.4-12.8 9.8-14z"></path>
<path d="M345.395 459.348l-4.53 0.801-34.785-196.743 4.53-0.801 34.785 196.743z"></path>
<path d="M567.539 399.468l-250.114 44.221-0.801-4.53 250.114-44.221 0.801 4.53z"></path>
<path d="M525.2 745.2l-14 2.4c-0.6 0-1-0.2-1.2-0.8l-25.4-152.4c0-0.6 0.2-1 0.8-1.2l14-2.4c0.6 0 1 0.2 1.2 0.8l25.4 152.4c0.2 0.6-0.2 1.2-0.8 1.2z"></path>
</svg>
