<?xml version="1.0" encoding="utf-8"?>
<!-- Generator: Adobe Illustrator 19.1.0, SVG Export Plug-In . SVG Version: 6.00 Build 0)  -->
<svg version="1.1" id="Layer_1" xmlns="http://www.w3.org/2000/svg" xmlns:xlink="http://www.w3.org/1999/xlink" x="0px" y="0px"
	 width="512px" height="512px" viewBox="0 0 512 512" enable-background="new 0 0 512 512" xml:space="preserve">
<g>
	<path fill="#010101" d="M176.6,344.3H206c10.2,0,18.5-8.3,18.5-18.6V118.1c0-10.2-8.3-18.5-18.5-18.5h-29.4
		c-10.2,0-18.6,8.3-18.6,18.5v207.6C158.1,336,166.4,344.3,176.6,344.3z"/>
	<path fill="#010101" d="M271,344.3h29.4c10.2,0,18.5-8.3,18.5-18.6V196.7c0-10.2-8.3-18.5-18.5-18.5H271
		c-10.2,0-18.6,8.3-18.6,18.5v129.1C252.4,336,260.8,344.3,271,344.3z"/>
	<path fill="#010101" d="M365.4,344.3h29.4c10.2,0,18.5-8.3,18.5-18.6v-37.4c0-10.2-8.3-18.6-18.5-18.6h-29.4
		c-10.2,0-18.6,8.3-18.6,18.6v37.4C346.8,336,355.1,344.3,365.4,344.3z"/>
	<path fill="#010101" d="M462.5,399.8H105.8V49.9c0-4.4-3.5-7.9-7.9-7.9c-4.4,0-7.9,3.5-7.9,7.9v349.8h-39c-4.4,0-7.9,3.5-7.9,7.9
		c0,4.4,3.5,7.9,7.9,7.9h39v45.9c0,4.4,3.5,7.9,7.9,7.9c4.4,0,7.9-3.5,7.9-7.9v-45.9h356.7c4.4,0,7.9-3.5,7.9-7.9
		C470.4,403.3,466.9,399.8,462.5,399.8z"/>
</g>
</svg>
