<?xml version="1.0" encoding="utf-8"?>
<!-- Generator: Adobe Illustrator 18.1.1, SVG Export Plug-In . SVG Version: 6.00 Build 0)  -->
<svg version="1.1" id="Layer_1" xmlns="http://www.w3.org/2000/svg" xmlns:xlink="http://www.w3.org/1999/xlink" x="0px" y="0px"
	 width="512px" height="512px" viewBox="0 0 512 512" enable-background="new 0 0 512 512" xml:space="preserve">
<path d="M1332.8,396.8c0,3.5-2.8,6.2-6.2,6.2c-3.5,0-6.2-2.8-6.2-6.2s2.8-6.2,6.2-6.2C1330,390.5,1332.8,393.3,1332.8,396.8z
	 M1312.1,384.7l4.8,4c4.8-5.7,14.4-5.7,19.2,0l4.8-4c-3.6-4.3-8.8-6.7-14.4-6.7S1315.7,380.4,1312.1,384.7z M1303.3,375.8l4.6,4.2
	c4.7-5.2,11.5-8.2,18.5-8.2c7,0,13.8,3,18.5,8.2l4.6-4.2c-5.9-6.5-14.3-10.3-23.2-10.3C1317.7,365.5,1309.3,369.2,1303.3,375.8z
	 M1294.5,366.9l4.6,4.3c7.1-7.6,17.1-11.9,27.4-11.9c10.5,0,20.2,4.2,27.4,11.9l4.6-4.3c-8.2-8.8-19.9-13.9-32-13.9
	C1314.4,353,1302.8,358.1,1294.5,366.9z"/>
<g>
	<path d="M255.5,361.9c-26,0-47,21-47,47s21,47,47,47s47-21,47-47C302.5,382.9,281.5,361.9,255.5,361.9z"/>
	<path d="M436.5,134.5l-33.5,34c21.2,13.1,40.9,29.1,58.5,47.9l34.3-32.1C477.9,165.3,458,148.6,436.5,134.5z"/>
	<path d="M298.4,274.7l-41.2,41.9c26.5,0.4,52.9,11.1,70.5,32.2l36-30.1C346.3,297.8,323.6,282.7,298.4,274.7z"/>
	<path d="M368.8,203.2l-34.6,35.1c22.7,10.5,43.4,25.5,60.5,44.3l34.8-31.6C411.9,231.7,391.3,215.6,368.8,203.2z"/>
	<path d="M440.4,45.2l-59.1,60.1C341.7,88.9,299,80.2,255.5,80.2c-90.8,0-178.3,38-240.3,104.3l34.3,32.1
		c53.1-56.8,128.2-89.4,206-89.4c31.2,0,61.4,5,89.9,14.5L307.7,180c-17-3.9-34.5-5.9-52.2-5.9c-66.2,0-129.6,28.2-174,77.1
		l34.8,31.6c35.5-39.3,86.3-61.7,139.2-61.7c3.8,0,7.6,0.1,11.4,0.4l-51.6,52.5c-26.2,7.8-49.8,23.1-67.8,44.6l13.1,11l-94.9,96.4
		L91.1,451L465.9,70.3L440.4,45.2z"/>
</g>
</svg>
