<?xml version="1.0" encoding="UTF-8"?>
<svg width="512px" height="512px" viewBox="0 0 512 512" version="1.1" xmlns="http://www.w3.org/2000/svg" xmlns:xlink="http://www.w3.org/1999/xlink">
    <!-- Generator: Sketch 44.1 (41455) - http://www.bohemiancoding.com/sketch -->
    <title>no change</title>
    <desc>Created with Sketch.</desc>
    <defs></defs>
    <g id="Page-1" stroke="none" stroke-width="1" fill="none" fill-rule="evenodd">
        <g id="no-change" fill="#000000">
            <path d="M40.8212012,248.287413 L198.257402,138.911182 C202.793089,135.760088 209.024456,136.882522 212.17555,141.418208 C213.339274,143.093274 213.962963,145.084136 213.962963,147.123768 L213.962963,365.876232 C213.962963,371.399079 209.48581,375.876232 203.962963,375.876232 C201.923331,375.876232 199.932468,375.252543 198.257402,374.088818 L40.8212012,264.712587 C36.2855149,261.561493 35.163081,255.330126 38.3141751,250.794439 C38.9938541,249.816109 39.8428709,248.967092 40.8212012,248.287413 Z M471.178799,248.287413 C472.157129,248.967092 473.006146,249.816109 473.685825,250.794439 C476.836919,255.330126 475.714485,261.561493 471.178799,264.712587 L313.742598,374.088818 C312.067532,375.252543 310.076669,375.876232 308.037037,375.876232 C302.51419,375.876232 298.037037,371.399079 298.037037,365.876232 L298.037037,147.123768 C298.037037,145.084136 298.660726,143.093274 299.82445,141.418208 C302.975544,136.882522 309.206911,135.760088 313.742598,138.911182 L471.178799,248.287413 Z" id="Combined-Shape"></path>
        </g>
    </g>
</svg>