<?xml version="1.0" encoding="utf-8"?>
<!-- Generator: Adobe Illustrator 17.1.0, SVG Export Plug-In . SVG Version: 6.00 Build 0)  -->
<!DOCTYPE svg PUBLIC "-//W3C//DTD SVG 1.1//EN" "http://www.w3.org/Graphics/SVG/1.1/DTD/svg11.dtd">
<svg version="1.1" id="Layer_1" xmlns="http://www.w3.org/2000/svg" xmlns:xlink="http://www.w3.org/1999/xlink" x="0px" y="0px"
	 viewBox="0 0 512 512" enable-background="new 0 0 512 512" xml:space="preserve">
<path fill="#010101" d="M259.9,58.8c-109.8,0-199.1,89.3-199.1,199.1c0,109.8,89.3,199.1,199.1,199.1
	c109.8,0,199.1-89.3,199.1-199.1C459,148.1,369.7,58.8,259.9,58.8z M243.7,165.9c0-9,8.2-17.1,17.1-17.1s17.1,8.2,17.1,17.1v109.5
	c0,9-8.2,17.1-17.1,17.1s-17.1-8.2-17.1-17.1V165.9z M260.9,370.3c-10.6,0-20.3-9.7-20.3-20.3c0-10.6,9.7-20.3,20.3-20.3
	s20.3,9.7,20.3,20.3C281.2,360.7,271.5,370.3,260.9,370.3z"/>
</svg>
