<?xml version="1.0" encoding="utf-8"?>
<!-- Generator: Adobe Illustrator 17.0.0, SVG Export Plug-In . SVG Version: 6.00 Build 0)  -->
<!DOCTYPE svg PUBLIC "-//W3C//DTD SVG 1.1//EN" "http://www.w3.org/Graphics/SVG/1.1/DTD/svg11.dtd">
<svg version="1.1" id="Layer_1" xmlns="http://www.w3.org/2000/svg" xmlns:xlink="http://www.w3.org/1999/xlink" x="0px" y="0px"
	 width="512px" height="512px" viewBox="0 0 512 512" enable-background="new 0 0 512 512" xml:space="preserve">
<g>
	<path d="M98.291,214.591c-4.777,0-8.03,0.915-9.756,2.744c-1.729,1.829-5.439,6.707-11.128,14.634
		c-5.692,7.927-12.222,15.091-19.588,21.494c-7.369,6.402-17.201,12.503-29.497,18.296c-8.232,3.866-13.975,7.012-17.225,9.451
		c-3.253,2.439-4.878,6.25-4.878,11.433c0,4.476,1.649,8.408,4.954,11.811c3.302,3.409,7.088,5.11,11.357,5.11
		c8.942,0,26.32-9.908,52.134-29.725v138.718c0,8.134,1.878,14.28,5.64,18.445c3.759,4.165,8.738,6.25,14.939,6.25
		c13.921,0,20.884-10.213,20.884-30.64V238.066c0-7.317-1.628-13.058-4.878-17.225C107.995,216.676,103.675,214.591,98.291,214.591z
		"/>
	<path d="M319.328,241.098c-4.168-3.25-10.213-4.878-18.14-4.878h-79.572c2.54-3.86,5.03-7.165,7.469-9.908
		c5.689-6.908,16.183-16.616,31.478-29.116c15.293-12.5,26.192-21.67,32.698-27.512c6.503-5.847,12.881-13.927,19.131-24.244
		c6.25-10.311,9.375-21.768,9.375-34.372c0-8.024-1.5-15.774-4.497-23.25c-3-7.463-7.192-14.043-12.576-19.738
		c-5.387-5.689-11.637-10.161-18.75-13.414c-10.975-4.878-24.238-7.317-39.786-7.317c-12.908,0-24.161,1.905-33.765,5.716
		c-9.604,3.811-17.53,8.817-23.78,15.015c-6.25,6.201-10.951,13.11-14.1,20.731c-3.152,7.622-4.726,14.939-4.726,21.951
		c0,5.793,1.677,10.366,5.03,13.719c3.354,3.354,7.57,5.03,12.652,5.03c5.793,0,10.186-1.829,13.186-5.488
		c2.997-3.659,5.689-8.89,8.079-15.701c2.387-6.805,4.088-10.976,5.107-12.5c7.622-11.683,18.088-17.53,31.402-17.53
		c6.299,0,12.119,1.427,17.454,4.268c5.335,2.848,9.552,6.835,12.652,11.963c3.098,5.134,4.649,10.957,4.649,17.457
		c0,6-1.448,12.116-4.344,18.372c-2.896,6.244-7.116,12.341-12.652,18.293c-5.54,5.939-12.475,11.866-20.808,17.756
		c-4.677,3.152-12.451,9.732-23.323,19.744c-10.875,10.006-23.07,22.024-36.585,36.048c-3.253,3.457-6.25,8.207-8.994,14.256
		c-2.744,6.043-4.116,10.896-4.116,14.555c0,5.695,2.134,10.646,6.402,14.86c4.268,4.219,10.213,6.329,17.835,6.329h112.194
		c6.707,0,11.71-1.726,15.015-5.183c3.302-3.451,4.954-7.671,4.954-12.652C325.578,248.774,323.493,244.354,319.328,241.098z"/>
	<path d="M501.59,350.178c-2.744-6.652-6.835-12.725-12.271-18.213c-5.439-5.488-12.119-10.366-20.045-14.634
		c8.232-6.908,14.558-14,18.978-21.262c4.421-7.268,6.631-15.982,6.631-26.146c0-7.719-1.524-14.936-4.573-21.643
		c-3.049-6.707-7.573-12.597-13.567-17.683c-5.997-5.079-13.061-8.966-21.189-11.661c-8.131-2.692-17.125-4.04-26.981-4.04
		c-11.28,0-21.494,1.601-30.64,4.802s-16.796,7.445-22.942,12.729c-6.149,5.287-10.823,10.847-14.024,16.695
		c-3.201,5.841-4.802,11.405-4.802,16.686c0,5.488,1.701,9.884,5.107,13.189c3.402,3.299,7.137,4.951,11.204,4.951
		c3.454,0,6.503-0.61,9.146-1.829c2.64-1.22,4.469-2.896,5.488-5.03c1.726-3.963,3.631-8.177,5.716-12.652
		c2.082-4.466,4.293-8.125,6.631-10.972c2.335-2.841,5.512-5.128,9.527-6.86c4.012-1.726,9.119-2.591,15.32-2.591
		c9.146,0,16.411,2.817,21.799,8.463c5.384,5.634,8.079,12.369,8.079,20.192c0,10.268-3.381,18.14-10.137,23.628
		c-6.759,5.488-14.814,8.232-24.161,8.232h-6.25c-7.216,0-12.652,1.5-16.311,4.494c-3.659,3-5.488,6.939-5.488,11.817
		c0,4.982,1.524,8.866,4.573,11.658c3.049,2.799,7.366,4.195,12.957,4.195c1.22,0,3.963-0.201,8.232-0.61
		c4.268-0.402,7.418-0.61,9.451-0.61c11.585,0,20.628,3.378,27.134,10.134c6.503,6.762,9.756,16.085,9.756,27.975
		c0,8.03-1.905,15.091-5.716,21.189c-3.811,6.097-8.64,10.695-14.482,13.799c-5.844,3.097-11.918,4.646-18.216,4.646
		c-10.975,0-19.488-3.427-25.533-10.293c-6.049-6.854-11.713-17.347-16.997-31.475c-0.814-2.335-2.543-4.341-5.183-6.024
		c-2.643-1.671-5.387-2.512-8.232-2.512c-5.692,0-10.442,1.805-14.253,5.415c-3.811,3.604-5.716,8.36-5.716,14.25
		c0,4.573,1.601,10.366,4.802,17.378c3.201,7.012,7.927,13.799,14.177,20.347c6.25,6.561,14.201,12.024,23.856,16.39
		c9.652,4.366,20.579,6.555,32.774,6.555c11.991,0,22.942-1.909,32.85-5.713c9.908-3.817,18.469-9.097,25.686-15.853
		c7.213-6.762,12.677-14.457,16.387-23.097c3.707-8.634,5.564-17.579,5.564-26.829C505.706,364.031,504.334,356.836,501.59,350.178z
		"/>
</g>
</svg>
