<?xml version="1.0" encoding="utf-8"?>
<!-- Generator: Adobe Illustrator 17.0.0, SVG Export Plug-In . SVG Version: 6.00 Build 0)  -->
<!DOCTYPE svg PUBLIC "-//W3C//DTD SVG 1.1//EN" "http://www.w3.org/Graphics/SVG/1.1/DTD/svg11.dtd">
<svg version="1.1" id="Layer_1" xmlns="http://www.w3.org/2000/svg" xmlns:xlink="http://www.w3.org/1999/xlink" x="0px" y="0px"
	 width="512px" height="512px" viewBox="0 0 512 512" enable-background="new 0 0 512 512" xml:space="preserve">
<g>
	<path fill="#231F20" d="M338.17,42.912c0.044,0.035,0.147,0.044,0.284,0.058l11.153-0.789l6.793,9.545
		c0.078,0.095,0.164,0.16,0.222,0.204c0.173,0.074,0.299-0.048,0.335-0.347l0.025-10.351l10.103-2.19
		c0.413-0.138,0.405-0.401,0.022-0.605l-9.013-4.39l0.828-10.256c0.028-0.209-0.037-0.348-0.146-0.398
		c-0.092-0.046-0.245-0.008-0.412,0.133l-7.552,6.97l-9.521-4.649c-0.403-0.192-0.597-0.019-0.453,0.387l5,9.556l-7.617,6.654
		C338.001,42.648,337.983,42.828,338.17,42.912z"/>
	<path fill="#231F20" d="M442.335,186.107l5.432-16.986c0.128-0.341,0.074-0.602-0.091-0.729c-0.138-0.114-0.411-0.11-0.748,0.063
		l-15.489,8.796l-14.241-11.592c-0.605-0.482-0.999-0.267-0.916,0.475l4.679,18.097l-15.474,8.236
		c-0.452,0.257-0.554,0.555-0.271,0.769c0.059,0.076,0.23,0.132,0.456,0.21l19.137,3.056l7.712,18.782
		c0.094,0.191,0.214,0.335,0.294,0.433c0.263,0.192,0.523,0.035,0.701-0.454l4.114-17.463l17.916,0.277
		c0.751-0.069,0.84-0.518,0.275-1.012L442.335,186.107z"/>
	<path fill="#231F20" d="M160.542,78.558c0.198,0.056,0.531,0.065,0.947,0.019l35.146-8.104l26.438,27.021
		c0.32,0.257,0.593,0.434,0.825,0.513c0.608,0.184,0.949-0.272,0.879-1.25l-5.105-33.024l0.688-0.267h13.626
		c139.574,3.241,266.618,127.131,266.618,127.131C392.574,55.217,233.987,44.675,233.985,44.675l-14.351-4.411L217.13,7.158
		c-0.055-0.689-0.335-1.089-0.692-1.203c-0.322-0.101-0.794,0.087-1.202,0.618L194.6,32.578l-32.654-10.02
		c-1.342-0.416-1.933,0.24-1.278,1.438L181.42,52l-20.965,25.011C159.847,77.775,159.899,78.36,160.542,78.558z"/>
	<path fill="#231F20" d="M281.663,124.143l-63.18,47.085c10.871,8.627,19.385,22.497,22.705,39.151
		c2.187,10.97,1.83,21.688-0.592,31.196l74.675-40.909c4.86-9.94,6.562-22.614,3.95-35.714
		C314.719,142.376,298.876,125.888,281.663,124.143z"/>
	<path fill="#231F20" d="M108.332,253.317l-69.108,51.502c3.066,5.881,5.413,12.451,6.823,19.523
		c1.955,9.806,1.879,19.413,0.111,28.135l72.746-45.554c2.506-8.466,3.022-18.199,1.032-28.18
		C117.966,268.857,113.815,260.144,108.332,253.317z"/>
	<path fill="#231F20" d="M300.748,109.919l-9.836,7.33c16.608,6.152,30.74,23.655,35.258,46.316
		c2.21,11.087,1.814,21.914-0.677,31.499l17.386-9.525C339.639,126.124,300.748,109.919,300.748,109.919z"/>
	<path fill="#231F20" d="M146.266,289.789c67.272,14.608,72.38-36.19,72.38-36.19l11.795-6.462
		c4.739-9.886,6.379-22.419,3.796-35.373c-3.141-15.755-11.808-28.543-22.607-35.43l-97.241,72.469
		c5.874,7.848,10.314,17.594,12.499,28.554c1.656,8.308,1.842,16.468,0.789,24.072L146.266,289.789z"/>
	<path fill="#231F20" d="M33.313,309.225L16.63,321.658c-12.964,29.168,18.365,37.81,18.365,37.81l1.428-0.894
		c3.859-9.455,5.041-20.973,2.674-32.846C37.904,319.746,35.913,314.192,33.313,309.225z"/>
	<path fill="#231F20" d="M209.608,309.471c-0.077-0.184-0.166-0.358-0.251-0.536c16.932-9.539,28.374-27.675,28.374-48.494
		c0-2.189-0.14-4.344-0.386-6.467l-13.706,8.121c-0.87,22.199-19.132,39.931-41.544,39.931c-6.651,0-12.933-1.57-18.508-4.346
		l-13.694,8.115c9.09,6.466,20.197,10.281,32.203,10.281c3.174,0,6.281-0.28,9.309-0.79l-56.899,162.016
		c-1.706,4.858-0.077,9.854,3.639,11.159c3.716,1.305,8.111-1.576,9.817-6.434l53.536-152.439l82.001,168.341
		c1.991,4.748,6.755,7.277,10.641,5.647c3.886-1.629,5.422-6.8,3.431-11.548L209.608,309.471z"/>
</g>
</svg>
