<?xml version="1.0" encoding="utf-8"?>
<!-- Generator: Adobe Illustrator 19.1.0, SVG Export Plug-In . SVG Version: 6.00 Build 0)  -->
<svg version="1.1" id="Layer_1" xmlns="http://www.w3.org/2000/svg" xmlns:xlink="http://www.w3.org/1999/xlink" x="0px" y="0px"
	 width="512px" height="512px" viewBox="0 0 512 512" style="enable-background:new 0 0 512 512;" xml:space="preserve">
<style type="text/css">
	.st0{fill:#010101;}
</style>
<path class="st0" d="M390.6,169.3l7.5-7.5c6,2.5,13.1,1.3,17.9-3.5l6.8-6.8c6.4-6.4,6.4-16.8,0-23.2l-16.4-16.4
	c-6.4-6.4-16.8-6.4-23.2,0l-6.8,6.8c-4.8,4.8-6,12-3.5,17.9l-8.6,8.6c-24.4-18.3-53.5-30.6-85.2-34.6V94.6
	c7.7-3.2,13.2-10.8,13.2-19.7V62.5c0-11.7-9.6-21.3-21.3-21.3h-30c-11.7,0-21.3,9.6-21.3,21.3V75c0,8.8,5.5,16.5,13.2,19.7v15.9
	C144.1,121.9,75.1,198.1,75.1,290c0,99.7,81.1,180.9,180.9,180.9S436.9,389.7,436.9,290C436.9,243.6,419.3,201.3,390.6,169.3z
	 M256,428.9c-76.6,0-138.9-62.3-138.9-138.9S179.4,151,256,151S394.9,213.3,394.9,290S332.6,428.9,256,428.9z"/>
<path class="st0" d="M259.7,169.9c-0.2-1.7-1.5-3.2-3.3-3.3c-2-0.2-3.8,1.3-4,3.3l-10.8,119.3c-0.1,0.8-0.1,1.8,0,2.6
	c0.7,8,7.8,13.9,15.8,13.2c8-0.7,13.9-7.8,13.2-15.8L259.7,169.9z"/>
</svg>
