<?xml version="1.0" encoding="utf-8"?>
<!-- Generator: Adobe Illustrator 17.1.0, SVG Export Plug-In . SVG Version: 6.00 Build 0)  -->
<!DOCTYPE svg PUBLIC "-//W3C//DTD SVG 1.1//EN" "http://www.w3.org/Graphics/SVG/1.1/DTD/svg11.dtd">
<svg version="1.1" id="Layer_1" xmlns="http://www.w3.org/2000/svg" xmlns:xlink="http://www.w3.org/1999/xlink" x="0px" y="0px"
	 viewBox="0 0 512 512" enable-background="new 0 0 512 512" xml:space="preserve">
<path d="M92.7,433c-5.3,0-10.1-4.8-10.1-10.1v-118h31.6v96.2c0.1,0.1,0.2,0.2,0.3,0.3h290.6c0.1-0.1,0.2-0.2,0.3-0.3V110.5
	c-0.1-0.1-0.2-0.2-0.3-0.3h-96.2V78.6h118c5.3,0,10.1,4.8,10.1,10.1v334.2c0,5.3-4.8,10.1-10.1,10.1H92.7z"/>
<path d="M223.1,29.7L58.9,29.3l0,0c-0.1,0-0.3,0-0.4,0h-0.1c-0.1,0-0.2,0.1-0.4,0.1c-0.1,0.1-0.1,0-0.2,0.1
	c-0.1,0.1-0.1,0.1-0.2,0.1c-0.1,0.1-0.2,0.1-0.3,0.1c-0.1,0.1-0.1,0.1-0.1,0.1c-0.1,0.1-0.2,0.2-0.3,0.3l0,0L33.1,54.4L33,54.5
	c-0.6,0.6-1,1.4-1,2.3l0.4,164.4c0,1.7,1.5,3,3.1,2.9l35-0.1c1.7,0,3-1.5,2.9-3.1L73.2,98l149.9,149.4c1.2,1.2,3.1,1.2,4.2-0.1
	L251,223c1.2-1.2,1.2-3.1-0.1-4.2L101.3,69.5l121.6,0.2c1.7,0,3-1.3,3-2.9l0.2-34C226.1,31,224.8,29.7,223.1,29.7z"/>
</svg>
