<?xml version="1.0" encoding="UTF-8"?>
<svg width="60px" height="60px" viewBox="0 0 60 60" version="1.1" xmlns="http://www.w3.org/2000/svg" xmlns:xlink="http://www.w3.org/1999/xlink">
    <!-- Generator: Sketch 45 (43475) - http://www.bohemiancoding.com/sketch -->
    <title>open in new tab</title>
    <desc>Created with Sketch.</desc>
    <defs></defs>
    <g id="Page-1" stroke="none" stroke-width="1" fill="none" fill-rule="evenodd">
        <g id="open-in-new-tab" fill="#183247">
            <path d="M48.4087282,8.26056554 L37.7738272,8.2699355 C36.5125733,8.27104674 35.4910258,7.24949927 35.4921371,5.98824536 C35.4932483,4.72699145 36.5165975,3.70364231 37.7778514,3.70253107 L53.9260646,3.68830357 C55.1873185,3.68719234 56.2088659,4.70873981 56.2077547,5.96999371 L56.1935272,22.1182069 C56.192416,23.3794608 55.1690668,24.40281 53.9078129,24.4039212 C52.646559,24.4050324 51.6250115,23.383485 51.6261228,22.1222311 L51.6354927,11.4873956 L24.5658968,38.5569914 C23.6748414,39.4480469 22.230155,39.4480469 21.3390995,38.5569914 C20.4480441,37.665936 20.4480441,36.2212496 21.3390995,35.3301942 L48.4087282,8.26056554 Z M51.75,35.9815385 C51.75,34.7388978 52.7573593,33.7315385 54,33.7315385 C55.2426407,33.7315385 56.25,34.7388978 56.25,35.9815385 L56.25,48.24 C56.25,52.6638008 52.6638008,56.25 48.24,56.25 L11.76,56.25 C7.33619915,56.25 3.75,52.6638008 3.75,48.24 L3.75,11.76 C3.75,7.33619915 7.33619915,3.75 11.76,3.75 L24.0184615,3.75 C25.2611022,3.75 26.2684615,4.75735931 26.2684615,6 C26.2684615,7.24264069 25.2611022,8.25 24.0184615,8.25 L11.76,8.25 C9.82148053,8.25 8.25,9.82148053 8.25,11.76 L8.25,48.24 C8.25,50.1785195 9.82148053,51.75 11.76,51.75 L48.24,51.75 C50.1785195,51.75 51.75,50.1785195 51.75,48.24 L51.75,35.9815385 Z" id="Combined-Shape"></path>
        </g>
    </g>
</svg>