<?xml version="1.0" encoding="utf-8"?>
<!-- Generator: Adobe Illustrator 19.0.1, SVG Export Plug-In . SVG Version: 6.00 Build 0)  -->
<svg version="1.1" id="Layer_1" xmlns="http://www.w3.org/2000/svg" xmlns:xlink="http://www.w3.org/1999/xlink" x="0px" y="0px"
	 width="512px" height="512px" viewBox="0 0 512 512" style="enable-background:new 0 0 512 512;" xml:space="preserve">
<g>
	<g>
		<path d="M236.5,366.6c0,11.5,9.3,20.9,20.8,20.9s20.8-9.3,20.8-20.9V220.4H132.7c-11.5,0-20.8,9.3-20.8,20.9s9.3,20.9,20.8,20.9
			h74.4L35,435.4c-8.1,8.2-8.1,21.4,0,29.5c4.1,4.1,9.4,6.1,14.7,6.1c5.3,0,10.6-2,14.7-6.1l172.1-173.2V366.6z M468.6,41H43.9
			c-8.2,0-15,6.8-15,15.1v347.6l46.3-48.1V138.5h361.9v287.7H142.7L99.6,471h368.9c8.2,0,15-6.8,15-15.1V56.1
			C483.5,47.8,476.8,41,468.6,41z M102.9,114.8c-13.8,0-24.9-11-24.9-24.6s11.2-24.6,24.9-24.6c13.8,0,24.9,11,24.9,24.6
			S116.6,114.8,102.9,114.8z M170.3,114.8c-13.8,0-24.9-11-24.9-24.6s11.2-24.6,24.9-24.6c13.8,0,24.9,11,24.9,24.6
			S184,114.8,170.3,114.8z M237.7,114.8c-13.8,0-24.9-11-24.9-24.6s11.2-24.6,24.9-24.6c13.8,0,24.9,11,24.9,24.6
			S251.4,114.8,237.7,114.8z"/>
	</g>
</g>
</svg>
