<?xml version="1.0" encoding="UTF-8"?>
<svg width="60px" height="60px" viewBox="0 0 60 60" version="1.1" xmlns="http://www.w3.org/2000/svg" xmlns:xlink="http://www.w3.org/1999/xlink">
    <!-- Generator: Sketch 45.1 (43504) - http://www.bohemiancoding.com/sketch -->
    <title>verification_email</title>
    <desc>Created with Sketch.</desc>
    <defs></defs>
    <g id="Page-1" stroke="none" stroke-width="1" fill="none" fill-rule="evenodd">
        <g id="verification_email" fill-rule="nonzero" fill="#183247">
            <path d="M58.4836764,46.6108165 C58.2135271,46.0455132 57.8369888,45.5184649 57.3540612,45.0598035 L53.9836764,41.8586777 L53.9836764,12.3368757 L6.01632356,12.3368757 L6.01632356,46.6631243 L25.4897621,46.6631243 C25.1754651,47.3391185 25,48.0927281 25,48.8873197 C25,49.7021922 25.1845365,50.4739639 25.5140989,51.1631243 L5.76632356,51.1631243 C3.41911337,51.1631243 1.51632356,49.2603345 1.51632356,46.9131243 L1.51632356,12.0868757 C1.51632356,9.73966548 3.41911337,7.83687567 5.76632356,7.83687567 L54.2336764,7.83687567 C56.5808866,7.83687567 58.4836764,9.73966548 58.4836764,12.0868757 L58.4836764,46.6108165 Z M13.6647164,19.4574848 L29.5,30.0648518 L45.3352836,19.4574848 C46.383009,18.7556591 47.7985911,19.0401302 48.4970747,20.0928686 C49.1955583,21.1456071 48.9124419,22.5679623 47.8647164,23.2697879 L30.7647164,34.7243334 C29.9988658,35.2373434 29.0011342,35.2373434 28.2352836,34.7243334 L11.1352836,23.2697879 C10.0875581,22.5679623 9.80444172,21.1456071 10.5029253,20.0928686 C11.2014089,19.0401302 12.616991,18.7556591 13.6647164,19.4574848 Z M30.2816907,46.6056289 L47.9903759,46.6056289 L44.1245237,42.9339322 C43.2095393,42.0648743 43.1741907,40.6206401 44.045628,39.7081159 C44.9171035,38.7955918 46.36533,38.7603777 47.2803144,39.6294356 L55.2880965,47.2350714 C56.2348451,48.1342476 56.2348451,49.6403917 55.2880965,50.539568 L47.2803144,58.1452037 C46.36533,59.0142616 44.9171035,58.9790475 44.045628,58.0665234 C43.1741907,57.1539992 43.2095393,55.709765 44.1245237,54.8407071 L47.9903759,51.1690104 L30.2816907,51.1690104 C29.0215477,51.1690104 28,50.1474626 28,48.8873197 C28,47.6271767 29.0215477,46.6056289 30.2816907,46.6056289 Z" id="Combined-Shape"></path>
        </g>
    </g>
</svg>