<svg id="Layer_1" data-name="Layer 1" xmlns="http://www.w3.org/2000/svg" viewBox="0 0 512 512"><title>Redactor</title><path d="M257,152H61.29c-1.7,0-3.41.05-5.11,0-5.64-.28-8.65-3.14-8.69-8.73q-0.16-21.62,0-43.24c0-5.35,2.87-8.24,8.22-8.76,1.69-.16,3.41-0.09,5.11-0.09H453.18a36.43,36.43,0,0,1,6,.21c4.27,0.72,7.25,3.07,7.28,7.68,0.1,15,.13,30.06,0,45.09,0,4.56-3.08,7.33-7.7,7.76-1.85.17-3.72,0.09-5.58,0.09H257Z"/><path d="M256.87,420.86H59.31c-10,0-11.87-1.86-11.88-12,0-12.86,0-25.72,0-38.58,0-6.89,2.84-9.78,9.8-10.18,1.54-.09,3.1,0,4.65,0H452.38c1.39,0,2.79,0,4.18,0,7.2,0.37,10,3.25,10,10.45q0.05,19.76,0,39.51c0,8.47-2.28,10.76-10.74,10.76h-199Z"/><path d="M331.87,180.58q60,0,119.95,0a47.41,47.41,0,0,1,7.85.61c4.4,0.75,6.85,3.48,6.87,8q0.08,22.08,0,44.17c0,4.53-2.51,7.22-6.9,8a40.17,40.17,0,0,1-6.92.6Q331.84,242,211,242c-1.08,0-2.17,0-3.25,0-8.19-.48-11.07-3.39-11.14-11.62-0.1-11.31,0-22.63,0-33.94,0-2.17-.08-4.35.13-6.5,0.54-5.57,2.84-8.07,8.32-8.9a46.44,46.44,0,0,1,6.94-.39Q271.9,180.56,331.87,180.58Z"/><path d="M331.89,331.42H209.14c-10.11,0-12.58-2.48-12.6-12.69,0-12.24-.06-24.49,0-36.73,0.05-8.57,3-11.41,11.53-11.41q123.68,0,247.36,0c8.61,0,11.11,2.5,11.12,11q0,19.3,0,38.59c0,8.65-2.61,11.21-11.47,11.22Q393.5,331.44,331.89,331.42Z"/><path d="M138.1,256.22q0,31.15,0,62.3a20.69,20.69,0,0,1-.73,6.9c-1.87,5.44-7,7.42-11.89,4.39a22.82,22.82,0,0,1-3.87-3.31q-30.93-30.88-61.82-61.8c-0.77-.77-1.54-1.54-2.23-2.37-3.75-4.5-3.78-8.59.4-12.79q32.63-32.79,65.4-65.46c2.82-2.82,6.11-3.72,9.76-2.2,3.8,1.58,4.9,5,4.93,8.78,0.1,12.24.05,24.49,0.06,36.73Q138.11,241.81,138.1,256.22Z"/></svg>