<?xml version="1.0" encoding="utf-8"?>
<!-- Generator: Adobe Illustrator 20.1.0, SVG Export Plug-In . SVG Version: 6.00 Build 0)  -->
<svg version="1.1" id="Layer_1" xmlns="http://www.w3.org/2000/svg" xmlns:xlink="http://www.w3.org/1999/xlink" x="0px" y="0px"
	 width="512px" height="512px" viewBox="0 0 512 512" style="enable-background:new 0 0 512 512;" xml:space="preserve">
<title>Redactor</title>
<g>
	<path d="M126.2,321.9c0,4.2-0.7,7.8-5.1,9.7s-7.6-0.4-10.5-3.4c-21.7-21.6-43.4-43.3-65-65c-5.3-5.3-5.3-9.8,0-15.1
		c21.7-21.6,43.3-43.3,64.9-65c3.1-3.1,6.5-4.8,10.6-3.1c4.4,1.7,5,5.6,5,9.8c0,21.9,0,43.9,0,65.8
		C126.2,277.7,126.2,299.8,126.2,321.9z"/>
	<rect x="42.6" y="87.4" width="427.1" height="62.5"/>
	<rect x="42.6" y="361.7" width="427.1" height="62.5"/>
	<rect x="193.6" y="224.6" width="276" height="62.5"/>
</g>
</svg>
