<?xml version="1.0" encoding="utf-8"?>
<!-- Generator: Adobe Illustrator 19.2.1, SVG Export Plug-In . SVG Version: 6.00 Build 0)  -->
<svg version="1.1" id="Layer_1" xmlns="http://www.w3.org/2000/svg" xmlns:xlink="http://www.w3.org/1999/xlink" x="0px" y="0px"
	 width="512px" height="512px" viewBox="0 0 512 512" style="enable-background:new 0 0 512 512;" xml:space="preserve">
<g id="_x34_jPyLd.tif">
	<g>
		<path d="M291.1,313.9c-33,0-61.9-26.4-65.1-59.2c-2.1-21.4,4.4-39.3,20.4-53.8c38.1-34.5,76.2-69.1,114.3-103.6
			c7.8-7.1,15.4-14.5,23.7-21.1c17.1-13.5,40.5-11.2,54.5,5.5c7.3,8.6,8.5,18.7,6.4,29.5c-1.6,8.2-4.7,15.9-8.6,23.3
			c-23.1,43.7-46.5,87.3-73.9,128.6c-8.2,12.3-16.8,24.4-28.1,34.2C322.2,308,307.7,313.9,291.1,313.9z"/>
		<path d="M270.5,346.9c0.6,20.2-3.3,39.3-14.2,56.5c-16.4,25.7-40,40.2-70.1,44.1c-16.5,2.2-32.8,1.5-48.9-3.1
			c-24.3-7-42.3-21.8-54.4-43.8c-12.1-22-17.1-45.7-17.5-70.6c0-1.2-0.7-2.8,0.7-3.5c1.3-0.6,2.3,0.8,3.3,1.5
			c9.1,6.6,18,13.5,27.8,19.2c0.6,0.4,1.2,0.7,1.8,1.1c10.6,6.4,18.7,6.5,24.1-8.1c4.8-12.9,12.4-24.3,22.9-33.5
			c10.8-9.4,23.8-13.7,37.5-16.4c9.3-1.9,18.6-2.7,28.1-3.1c3-0.1,4.9,0.8,6.5,3.5c11.2,19.2,27.5,32.1,48.6,38.9c3,1,4,2.6,3.9,5.5
			C270.4,339,270.5,343,270.5,346.9z"/>
	</g>
</g>
</svg>
