<?xml version="1.0" encoding="utf-8"?>
<!-- Generated by IcoMoon.io -->
<!DOCTYPE svg PUBLIC "-//W3C//DTD SVG 1.1//EN" "http://www.w3.org/Graphics/SVG/1.1/DTD/svg11.dtd">
<svg version="1.1" xmlns="http://www.w3.org/2000/svg" xmlns:xlink="http://www.w3.org/1999/xlink" width="512" height="512" viewBox="0 0 512 512">
<g>
</g>
	<path d="M478.567 67.456c-8.781 3.097-443.418 156.237-451.968 159.257-7.27 2.56-8.909 8.832-0.256 12.262 10.266 4.121 97.177 38.938 97.177 38.938h-0.025l57.626 23.091c0 0 277.427-203.75 281.19-206.489 3.763-2.765 8.141 2.432 5.401 5.401-2.739 2.995-201.498 217.958-201.498 217.958-0.026 0-0.026 0-0.026 0l-11.571 12.902 15.335 8.243c0 0 119.040 64.077 127.514 68.659 7.424 3.993 17.101 0.666 19.251-8.576 2.534-10.906 72.832-313.907 74.394-320.615 2.048-8.781-3.738-14.131-12.544-11.034zM180.608 439.347c0 6.323 3.559 8.064 8.474 3.61 6.4-5.837 72.935-65.536 72.935-65.536l-81.408-42.137v104.064z" fill="#000000" />
</svg>
