<svg id="Layer_1" data-name="Layer 1" xmlns="http://www.w3.org/2000/svg" viewBox="0 0 512 512"><title>Redactor</title><path d="M282.21,284.06q0,71.91,0,143.82c0,13.76-5.46,19.45-19.26,19.72a197.94,197.94,0,0,1-22.63-.35c-11.24-1.07-15.81-6.63-15.81-17.89q0-56.64,0-113.29c0-6.65,0-6.47-6.64-7.2-22.21-2.46-43.69-7.55-63.18-19-26-15.18-41.46-38.32-49.26-66.8C97.69,195,97.67,166.66,109,139.56c16.88-40.24,46.81-64.38,91-69.5a620.07,620.07,0,0,1,70.21-3.82q61.32-.13,122.64,0c12.59,0,18.92,6.07,19,18.59,0.1,10,.89,20-4.25,29.33-3.63,6.59-8.59,10.17-16.25,9.54-0.82-.07-1.64,0-2.46,0-11,0-14.09,3-14.17,13.94-0.11,14.61-.11,29.22-0.11,43.84q0,123.88,0,247.75c0,11-5,17.07-15.89,18.06a123,123,0,0,1-29-.37,15,15,0,0,1-12.71-12.61,65.1,65.1,0,0,1-.69-9.8q-0.05-143.08,0-286.17c0-7.59,0-7.59-7.5-7.59-7.06,0-14.13.24-21.18-.09-4.41-.2-5.56,1.39-5.55,5.65Q282.32,210.17,282.21,284.06Z"/></svg>