<?xml version="1.0" encoding="utf-8"?>
<!-- Generated by IcoMoon.io -->
<!DOCTYPE svg PUBLIC "-//W3C//DTD SVG 1.1//EN" "http://www.w3.org/Graphics/SVG/1.1/DTD/svg11.dtd">
<svg version="1.1" xmlns="http://www.w3.org/2000/svg" xmlns:xlink="http://www.w3.org/1999/xlink" width="1024" height="1024" viewBox="0 0 1024 1024"><g id="icomoon-ignore">
</g>
<path d="M484.6 254.4h55.2v57.2h-55.2v-57.2z"></path>
<path d="M484.6 136h55.2v57.2h-55.2v-57.2z"></path>
<path d="M484.6 26h55.2v57.2h-55.2v-57.2z"></path>
<path d="M484.6 704.6h55.2v54.8h-55.2v-54.8z"></path>
<path d="M484.6 814.6h55.2v63.4h-55.2v-63.4z"></path>
<path d="M792 164.6h107v746.2h-107v-746.2z"></path>
<path d="M626 441h107v469.8h-107v-469.8z"></path>
<path d="M484.6 595.4h55.2v54h-55.2v-54z"></path>
<path d="M401.2 385.6v0h-107v525.4h107v-525.4z"></path>
<path d="M484.6 477h55.2v63.4h-55.2v-63.4z"></path>
<path d="M484.6 933.4h55.2v60.2h-55.2v-60.2z"></path>
<path d="M128.4 606.8h107v304h-107v-304z"></path>
<path d="M69.6 938.4h359.4v55.2h-359.4v-55.2z"></path>
<path d="M595 938.4h359.4v55.2h-359.4v-55.2z"></path>
<path d="M484.6 366.8h55.2v55h-55.2v-55z"></path>
</svg>
