<?xml version="1.0" encoding="utf-8"?>
<!-- Generated by IcoMoon.io -->
<!DOCTYPE svg PUBLIC "-//W3C//DTD SVG 1.1//EN" "http://www.w3.org/Graphics/SVG/1.1/DTD/svg11.dtd">
<svg version="1.1" xmlns="http://www.w3.org/2000/svg" xmlns:xlink="http://www.w3.org/1999/xlink" width="1024" height="1024" viewBox="0 0 1024 1024"><g id="icomoon-ignore">
</g>
<path d="M490.2 290.6h47.8v49.6h-47.8v-49.6z"></path>
<path d="M490.2 188h47.8v49.6h-47.8v-49.6z"></path>
<path d="M490.2 92.6h47.8v49.6h-47.8v-49.6z"></path>
<path d="M490.2 681h47.8v47.6h-47.8v-47.6z"></path>
<path d="M490.2 776.4h47.8v55h-47.8v-55z"></path>
<path d="M756.8 212.8h92.8v647h-92.8v-647z"></path>
<path d="M612.8 452.4h92.8v407.4h-92.8v-407.4z"></path>
<path d="M490.2 586.4h47.8v46.8h-47.8v-46.8z"></path>
<path d="M418 404.4v0h-92.8v455.6h92.8z"></path>
<path d="M490.2 483.6h47.8v55h-47.8v-55z"></path>
<path d="M490.2 879.4h47.8v52.2h-47.8v-52.2z"></path>
<path d="M181.4 596.2h92.8v263.6h-92.8v-263.6z"></path>
<path d="M130.4 883.8h311.6v47.8h-311.6v-47.8z"></path>
<path d="M586 883.8h311.6v47.8h-311.6v-47.8z"></path>
<path d="M490.2 388.2h47.8v47.6h-47.8v-47.6z"></path>
</svg>
