<?xml version="1.0" encoding="utf-8"?>
<!-- Generator: Adobe Illustrator 19.1.0, SVG Export Plug-In . SVG Version: 6.00 Build 0)  -->
<svg version="1.1" id="Layer_1" xmlns="http://www.w3.org/2000/svg" xmlns:xlink="http://www.w3.org/1999/xlink" x="0px" y="0px"
	 width="512px" height="512px" viewBox="0 0 512 512" style="enable-background:new 0 0 512 512;" xml:space="preserve">
<g>
	<rect x="244.3" y="137.1" width="25.7" height="26.7"/>
	<rect x="244.3" y="81.9" width="25.7" height="26.7"/>
	<rect x="244.3" y="30.7" width="25.7" height="26.7"/>
	<rect x="244.3" y="346.8" width="25.7" height="25.5"/>
	<rect x="244.3" y="398" width="25.7" height="29.5"/>
	<rect x="387.5" y="95.3" width="49.8" height="347.5"/>
	<rect x="310.1" y="224" width="49.8" height="218.8"/>
	<rect x="244.3" y="296" width="25.7" height="25.1"/>
	<polygon points="205.5,198.2 205.5,198.2 155.7,198.2 155.7,442.9 205.5,442.9 	"/>
	<rect x="244.3" y="240.7" width="25.7" height="29.5"/>
	<rect x="244.3" y="453.2" width="25.7" height="28.1"/>
	<rect x="78.4" y="301.1" width="49.8" height="141.6"/>
	<rect x="51.1" y="455.6" width="167.4" height="25.7"/>
	<rect x="295.7" y="455.6" width="167.4" height="25.7"/>
	<rect x="244.3" y="189.5" width="25.7" height="25.5"/>
</g>
</svg>
