<?xml version="1.0" encoding="utf-8"?>
<!-- Generator: Adobe Illustrator 17.0.0, SVG Export Plug-In . SVG Version: 6.00 Build 0)  -->
<!DOCTYPE svg PUBLIC "-//W3C//DTD SVG 1.1//EN" "http://www.w3.org/Graphics/SVG/1.1/DTD/svg11.dtd">
<svg version="1.1" id="Layer_1" xmlns="http://www.w3.org/2000/svg" xmlns:xlink="http://www.w3.org/1999/xlink" x="0px" y="0px"
	 width="512px" height="512px" viewBox="0 0 512 512" enable-background="new 0 0 512 512" xml:space="preserve">
<path d="M101.471,18.302c0,0-121.434,60.364-80.953,185.531c0,0,4.789,19.949,16.896,31.767l236.809,231.171
	c0,0,9.632,12.796,30.354,17.013c0,0,116.222,38.227,192.822-46.279c0,0,21.162-16.107-9.833-47.102l-66.381-71.399
	c0,0-5.185-10.004-35.185-8.004c0,0-86,10-102-7c0,0-76-58-70.092-91v-76.831c0,0,3.924-22.083-10.511-37.609l-75.578-80.258
	C127.819,18.302,112.942,10.604,101.471,18.302z"/>
</svg>
