<?xml version="1.0" encoding="utf-8"?>
<!-- Generator: Adobe Illustrator 17.0.0, SVG Export Plug-In . SVG Version: 6.00 Build 0)  -->
<!DOCTYPE svg PUBLIC "-//W3C//DTD SVG 1.1//EN" "http://www.w3.org/Graphics/SVG/1.1/DTD/svg11.dtd">
<svg version="1.1" id="Layer_1" xmlns="http://www.w3.org/2000/svg" xmlns:xlink="http://www.w3.org/1999/xlink" x="0px" y="0px"
	 width="512px" height="512px" viewBox="0 0 512 512" enable-background="new 0 0 512 512" xml:space="preserve">
<g>
	<path d="M421.185,319.004c0,0-5.185-10.004-35.185-8.004c0,0-86,10-102-7c0,0-3.207-2.448-8.247-6.62L506.389,66.825
		l-22.011-22.019L44.783,484.248l22.011,22.019l122.472-122.43l84.957,82.934c0,0,9.632,12.796,30.354,17.013
		c0,0,116.222,38.227,192.822-46.279c0,0,21.162-16.107-9.833-47.102L421.185,319.004z"/>
	<path d="M227.856,249.141c-9.503-12.797-15.814-25.716-13.948-36.141v-76.831c0,0,3.924-22.083-10.511-37.609l-75.578-80.258
		c0,0-14.877-7.698-26.348,0c0,0-121.434,60.364-80.953,185.531c0,0,4.789,19.949,16.896,31.767l103.204,100.747L227.856,249.141z"
		/>
</g>
</svg>
