<?xml version="1.0" encoding="utf-8"?>
<!-- Generated by IcoMoon.io -->
<!DOCTYPE svg PUBLIC "-//W3C//DTD SVG 1.1//EN" "http://www.w3.org/Graphics/SVG/1.1/DTD/svg11.dtd">
<svg version="1.1" xmlns="http://www.w3.org/2000/svg" xmlns:xlink="http://www.w3.org/1999/xlink" width="1024" height="1024" viewBox="0 0 1024 1024"><g id="icomoon-ignore">
</g>
<path d="M842.2 799.8h-133.8v-23.8h133.8v23.8zM842.2 755.6h-133.8v-23.8h133.8v23.8zM842.2 711.6h-133.8v-23.8h133.8v23.8zM809 576.6v68.2h68.4v196h-203.2v-264.2h134.8zM829 544.8h-186.6v328h267v-247.8l-80.4-80.2z"></path>
<path d="M582 504.2c-6.2 0.6-12.4 2.8-17.4 7.4l-6.4 6c-11.2 11-34.2 33.2-38.8 37.4 0.2-0.2 0.2-0.4 0-0.4-20.4 0-81-39.6-125.8-99.2-25.2-33.6-29.2-52.8-29-57.8l44.2-43c5.6-5.4 9-13 9-20.8 0.2-7.8-2.8-15.6-8.6-21.2l-150.2-151c-5.6-5.6-13.2-8.8-21.4-9-8 0-15.4 2.8-21 8.4l-19.6 19.8c-12.4 12-26.4 25.8-26.8 26l-1.6 1.6c-92.2 93-50.8 217.4 133.8 403.2 113.2 114 204.8 174.4 279.8 184.4v-291.8z"></path>
</svg>
