<?xml version="1.0" encoding="UTF-8" standalone="no"?>
<svg width="60px" height="60px" viewBox="0 0 60 60" version="1.1" xmlns="http://www.w3.org/2000/svg" xmlns:xlink="http://www.w3.org/1999/xlink">
    <!-- Generator: Sketch 46.2 (44496) - http://www.bohemiancoding.com/sketch -->
    <title>phone</title>
    <desc>Created with Sketch.</desc>
    <defs></defs>
    <g id="Page-1" stroke="none" stroke-width="1" fill="none" fill-rule="evenodd">
        <g id="phone" fill-rule="nonzero" fill="#183247">
            <path d="M12.378794,8.97210047 L8.94284728,13.5948886 C7.57188774,15.4394037 7.17635781,18.5975451 8.03744795,20.6783383 C8.03744795,20.6783383 10.951587,29.7900175 21.0761089,39.9115892 C31.2006309,50.0331609 40.3149659,52.9464508 40.3149659,52.9464508 C42.3979809,53.8508381 45.5686585,53.4020471 47.4004803,52.0413153 L52.0246159,48.6063698 C53.8696686,47.2358097 53.8764533,45.0341932 52.0693219,43.6669695 L45.4179354,38.6347216 C44.5715366,37.9943606 43.1148022,37.9914565 42.2507268,38.6936776 L37.6485057,42.4338335 C36.7974443,43.1254782 35.3195624,43.2448701 34.3766318,42.6768797 C34.3766318,42.6768797 29.6200707,40.04575 25.2809899,35.7079335 C20.9419091,31.3701171 18.3582983,26.6919952 18.3582983,26.6919952 C17.7419212,25.6900997 17.8507037,24.2078452 18.5531295,23.3440216 L22.2943755,18.7431415 C22.9862219,17.8923281 23.0232045,16.4617235 22.3533488,15.5768558 L17.319634,8.9274075 C15.9480957,7.11562952 13.7399224,7.14081244 12.378794,8.97210047 Z M23.7459647,26.6518783 C24.91782,28.3717544 26.2683259,30.0929589 27.763085,31.6839229 C28.0135763,31.9505361 28.2664047,32.2115164 28.5214306,32.466468 C28.8235184,32.7684678 29.1345471,33.0676848 29.4538242,33.3638611 C31.0285509,34.8246509 32.7328677,36.1503556 34.4362007,37.3051941 C34.9057212,37.6235232 35.3219153,37.8939135 35.6865473,38.1221699 L39.3601119,35.1367192 C41.8569479,33.1075782 45.6482888,33.0616191 48.1832844,34.9795239 L54.8346709,40.0117718 C59.0888904,43.2303921 59.0465683,49.0998567 54.7577036,52.2857531 L50.133568,55.7206986 C47.0501789,58.0111318 42.284557,58.6801739 38.7195671,57.2468245 C37.2839715,56.7661874 35.0519457,55.7981656 32.2452605,54.2194565 C27.4621088,51.5290212 22.5705558,47.8865625 17.8356683,43.1530547 C13.1007443,38.4195104 9.4571588,33.5292955 6.76586877,28.7474122 C5.11129678,25.8075692 4.12725819,23.4982984 3.8023952,22.4309644 C2.32081935,18.8507899 2.93822545,13.9902483 5.26430481,10.8606969 L8.70025156,6.23790871 C11.8780077,1.96249505 17.7522266,1.90507926 20.9739777,6.16095556 L26.0076924,12.8104039 C27.9525586,15.3795378 27.8739286,19.1464078 25.85043,21.63485 L22.8649876,25.3062638 C23.0974809,25.678482 23.3922739,26.1327831 23.7459647,26.6518783 Z" id="freshphone"></path>
        </g>
    </g>
</svg>