<?xml version="1.0" encoding="utf-8"?>
<!-- Generated by IcoMoon.io -->
<!DOCTYPE svg PUBLIC "-//W3C//DTD SVG 1.1//EN" "http://www.w3.org/Graphics/SVG/1.1/DTD/svg11.dtd">
<svg version="1.1" xmlns="http://www.w3.org/2000/svg" xmlns:xlink="http://www.w3.org/1999/xlink" width="1024" height="1024" viewBox="0 0 1024 1024"><g id="icomoon-ignore">
</g>
<path d="M910.8 867.8h-163.2v-29h163.2v29zM910.8 813.8h-163.2v-29h163.2v29zM910.8 760.2h-163.2v-29h163.2v29zM870.4 595.4v83.2h83.4v239.2h-248v-322.4h164.6zM894.8 556.6h-227.8v400.2h325.8v-302.4l-98-97.8z"></path>
<path d="M593.4 507c-7.6 0.8-15.2 3.4-21.2 9l-7.8 7.4c-13.6 13.4-41.8 40.6-47.4 45.6 0.2-0.2 0.2-0.4 0-0.4-24.8 0-98.8-48.4-153.6-121-30.6-41.2-35.6-64.6-35.4-70.6l54-52.4c6.8-6.6 11-15.8 11-25.4 0.2-9.6-3.4-19-10.4-25.8l-183.2-184.2c-6.8-6.8-16.2-10.8-26.2-11-9.8 0-18.8 3.4-25.6 10.2l-24 24.2c-15.2 14.6-32.2 31.4-32.8 31.8l-2 2c-112.6 113.4-62 265.2 163.2 492 138.2 139.2 250 212.8 341.4 225v-356z"></path>
</svg>
