<?xml version="1.0" encoding="utf-8"?>
<!-- Generator: Adobe Illustrator 18.1.1, SVG Export Plug-In . SVG Version: 6.00 Build 0)  -->
<svg version="1.1" id="Layer_1" xmlns="http://www.w3.org/2000/svg" xmlns:xlink="http://www.w3.org/1999/xlink" x="0px" y="0px"
	 width="512px" height="512px" viewBox="0 0 512 512" enable-background="new 0 0 512 512" xml:space="preserve">
<g>
	<path d="M208.7,229.3c-12.8-19.3-14.9-30.5-14.7-33.9l34-32.9c4.3-4.2,6.9-10.1,6.9-16c0.1-6-2.3-12-6.6-16.2L113.1,14.5
		c-4.3-4.3-10.2-6.8-16.5-6.9c-6.1,0-11.8,2.3-16.2,6.5L65.2,29c-9.6,9.3-20.3,19.7-20.6,20l-1.3,1.3
		c-66,66.5-42.8,154.1,75.9,281.5L208.7,229.3z"/>
	<path d="M495.3,398.7L379.8,283.5c-8.5-8.5-23-9.1-32.4-0.4l-4.9,4.7c-9,8.7-27.9,27-30.2,29.1c0.3-0.3,0.8-0.6,0.5-0.8
		c-8.3,0-25.4-8.7-44.9-23.7l-87.7,100.4c79.5,73.7,144.3,109.7,197.3,109.7h0c16.7,0,32.5-3.6,46.8-10.8
		c14.9-7.4,25.5-17.3,32.5-23.7l2.1-2c0.2-0.2,35.2-33.8,36.9-35.6C504.2,421.3,504.1,407.5,495.3,398.7z"/>
	<polygon points="385.2,57.5 24.7,472.8 56.9,498.7 417.4,83.4 	"/>
</g>
</svg>
