<?xml version="1.0" encoding="utf-8"?>
<!-- Generator: Adobe Illustrator 18.1.1, SVG Export Plug-In . SVG Version: 6.00 Build 0)  -->
<svg version="1.1" id="Layer_1" xmlns="http://www.w3.org/2000/svg" xmlns:xlink="http://www.w3.org/1999/xlink" x="0px" y="0px"
	 width="512px" height="512px" viewBox="0 0 512 512" enable-background="new 0 0 512 512" xml:space="preserve">
<g>
	<path d="M380.2,237.1c58.5,0,106-47.5,106-106s-47.4-106-106-106c-58.5,0-106,47.5-106,106S321.7,237.1,380.2,237.1z M380.2,46.9
		c46.5,0,84.2,37.7,84.2,84.2s-37.7,84.2-84.2,84.2S296,177.6,296,131.1S333.7,46.9,380.2,46.9z"/>
	<polygon points="344.1,178.7 380.2,145.5 416.3,178.7 430.6,163.2 395.8,131.1 430.6,99.1 416.3,83.6 380.2,116.8 344.1,83.6 
		329.9,99.1 364.7,131.1 329.9,163.2 	"/>
	<path d="M495.3,398.7L379.8,283.5c-8.5-8.5-23-9.1-32.4-0.4l-4.9,4.7c-9,8.7-27.9,27-30.2,29.1c0.3-0.3,0.8-0.6,0.5-0.8
		c-15.6,0-62.1-30.4-96.6-76.2c-19.4-25.8-22.4-40.5-22.2-44.4l34-32.9c4.3-4.2,6.9-10.1,6.9-16c0.1-6-2.3-12-6.6-16.2L113.1,14.5
		c-4.3-4.3-10.2-6.8-16.5-6.9c-6.1,0-11.8,2.3-16.2,6.5L65.2,29c-9.6,9.3-20.3,19.7-20.6,20l-1.3,1.3
		c-70.7,71.3-39,166.7,102.8,309.5c95.4,96,171,142.6,231.3,142.7h0c16.7,0,32.5-3.6,46.8-10.8c14.9-7.4,25.5-17.3,32.5-23.7l2.1-2
		c0.2-0.2,35.2-33.8,36.9-35.6C504.2,421.3,504.1,407.5,495.3,398.7z M443.1,449.1l-2.2,2c-6.4,6-15.2,14.1-27.1,20.1
		c-11.2,5.6-23.1,8.3-36.3,8.3h0c-53,0-125.3-45.7-214.8-135.8C-26.5,153.3,34,92.3,59.9,66.3l1.2-1.2c0.8-0.8,11-10.7,20.3-19.7
		l15.1-14.8l115.1,115.7l-35.5,34.3c-11.8,12.3-3.8,39.5,21.3,72.9c35.5,47.1,87.2,85.4,115.3,85.4c4.2,0,7.9-0.8,11.1-2.4
		c1.8-0.9,3.4-2,4.5-3.1c2-1.8,21.3-20.4,30.4-29.2l4.6-4.6l115.6,115C477.1,416.3,445,447.3,443.1,449.1z"/>
</g>
</svg>
