<?xml version="1.0" encoding="UTF-8" standalone="no"?>
<svg width="60px" height="60px" viewBox="0 0 60 60" version="1.1" xmlns="http://www.w3.org/2000/svg" xmlns:xlink="http://www.w3.org/1999/xlink">
    <!-- Generator: Sketch 46.2 (44496) - http://www.bohemiancoding.com/sketch -->
    <title>pin</title>
    <desc>Created with Sketch.</desc>
    <defs></defs>
    <g id="Page-1" stroke="none" stroke-width="1" fill="none" fill-rule="evenodd">
        <g id="pin" fill-rule="nonzero" fill="#183247">
            <path d="M22.5251263,39.1568542 L11.6425072,50.0394733 C6.22794099,54.0529975 3.3405883,55.87969 2.98044915,55.5195508 C2.62031001,55.1594117 4.44700252,52.272059 8.46052671,46.8574928 L19.3431458,35.9748737 L8.21970816,24.8514361 C6.95050421,23.5822322 6.95050421,21.524446 8.21970816,20.2552421 C8.72290573,19.7520445 9.37735325,19.4279135 10.082572,19.3326137 L21.8640077,17.7405278 L36.4119178,3.19261768 C38.071646,1.53288944 40.7625972,1.53288944 42.4223254,3.19261768 L55.3073823,16.0776746 C56.9671106,17.7374028 56.9671106,20.428354 55.3073823,22.0880822 L40.7594722,36.6359923 L39.1673863,48.417428 C38.9270137,50.1961855 37.2901853,51.4432928 35.5114277,51.2029202 C34.806209,51.1076204 34.1517614,50.7834894 33.6485639,50.2802918 L22.5251263,39.1568542 Z M36.5034226,34.5280809 L51.9486251,19.0828784 L39.4171216,6.55137489 L23.9719191,21.9965774 L13.1863234,23.4540903 L35.0459097,45.3136766 L36.5034226,34.5280809 Z" id="Combined-Shape"></path>
        </g>
    </g>
</svg>