<?xml version="1.0" encoding="utf-8"?>
<!-- Generator: Adobe Illustrator 20.1.0, SVG Export Plug-In . SVG Version: 6.00 Build 0)  -->
<svg version="1.1" id="Layer_1" xmlns="http://www.w3.org/2000/svg" xmlns:xlink="http://www.w3.org/1999/xlink" x="0px" y="0px"
	 width="512px" height="512px" viewBox="0 0 512 512" style="enable-background:new 0 0 512 512;" xml:space="preserve">
<path d="M90.5,110c0-14.6,0.2-29.2-0.1-43.8c-0.1-4.9,1.8-6.6,6.3-6.8c8-0.4,15.9-0.8,23.1,4c4.7,3.1,10,3.9,15.6,3.8
	c30.2-0.1,60.5,0.4,90.7-0.3c16.5-0.4,33-0.9,49.4-0.4c36,1.1,72,0.1,108,0.6c5.8,0.1,11.1-0.9,15-5.9c2.2-2.8,5.6-2.1,8.6-2.1
	c13.6-0.1,11-0.2,11.4,11.1c1.2,28.5,0.7,57.1,0.6,85.6c-0.1,3.4-0.3,6.8-0.7,10.1c-0.3,2.9,1.1,6.8-2,8.4
	c-4.8,2.7-10.1,4.1-15.6,4.1c-2.5,0-3.1-2.9-4-4.8c-7.3-15.2-13-31-15.6-47.8c-0.9-5.4-2.1-10.7-3.1-16c-0.9-4.9-3.5-7.9-8.5-8.7
	c-2.7-0.5-5.4-0.8-8.1-0.8c-20.7,0.2-41.4-0.5-62.1,0.9c-10.6,0.7-11.1,0.4-11.9,10.6c-1.3,14.4-1.6,28.8-1,43.2
	c0.9,17.8,0.4,35.7,0.4,53.5c0,59.3,0,118.6-0.1,177.9c-0.1,6.6,0.5,13.2,1.7,19.8c0.5,3.6,3,6.6,6.4,7.7c11.7,4.6,24,7.6,36,11
	c5.9,1.7,11.6,3.7,17.5,5.5c2.8,0.9,4,2.7,4.5,5.5c2.8,15,0.5,18.1-14.5,17.8c-22.4-0.5-44.8-1.9-67.1-3.5
	c-22.7-1.6-45.4-2-68.2,0.3c-13.8,1.4-27.7,2.7-41.7,2.7c-3.9,0-4.9-1.6-5.3-4.9c-1.3-11.5,1.4-16.3,12.2-21
	c9.9-4.2,20.3-6.7,30.6-9.5c3-0.8,5.9-1.8,8.8-2.4c8-1.6,10.7-6.7,11.4-14.4c1.6-20.2,2.2-40.4,2.2-60.6c0-37.4,0.4-74.8-0.5-112.2
	s-0.6-74.8-0.7-112.1c-0.1-14.4-1.2-15.6-15.5-16c-19.7-0.6-39.2-1.1-58.7,3.9c-11.2,2.9-17.8,8.6-20.4,19.8
	c-2.7,11.5-5.7,23.1-9.9,34.2c-4.8,12.7-8.9,13.8-19.5,5.7c-4-3-5.9-6.4-5.7-11.6C90.8,138.2,90.5,124.1,90.5,110z"/>
</svg>
