<?xml version="1.0" encoding="utf-8"?>
<!-- Generator: Adobe Illustrator 18.1.1, SVG Export Plug-In . SVG Version: 6.00 Build 0)  -->
<svg version="1.1" id="Layer_1" xmlns="http://www.w3.org/2000/svg" xmlns:xlink="http://www.w3.org/1999/xlink" x="0px" y="0px"
	 width="512px" height="512px" viewBox="0 0 512 512" enable-background="new 0 0 512 512" xml:space="preserve">
<g>
	<g>
		<path fill-rule="evenodd" clip-rule="evenodd" d="M475.4,101.6H243.1V75.8c0-14.3-11.6-25.8-25.8-25.8H36.6
			c-14.3,0-25.8,11.6-25.8,25.8v361.4c0,14.3,11.6,25.8,25.8,25.8h438.8c14.3,0,25.8-11.6,25.8-25.8V127.4
			C501.2,113.2,489.7,101.6,475.4,101.6z M475.4,437.2H36.6V201.6h438.8V437.2z M475.4,175.8H36.6V72.6h167.9
			c8.9,0,16.2,7.3,16.2,16.2v38.7h254.8V175.8z M62.4,150H114V98.4H62.4V150z M139.8,150h51.6V98.4h-51.6V150z"/>
	</g>
</g>
</svg>
