<?xml version="1.0" encoding="utf-8"?>
<!-- Generator: Adobe Illustrator 17.1.0, SVG Export Plug-In . SVG Version: 6.00 Build 0)  -->
<!DOCTYPE svg PUBLIC "-//W3C//DTD SVG 1.1//EN" "http://www.w3.org/Graphics/SVG/1.1/DTD/svg11.dtd">
<svg version="1.1" id="Layer_1" xmlns="http://www.w3.org/2000/svg" xmlns:xlink="http://www.w3.org/1999/xlink" x="0px" y="0px"
	 viewBox="0 0 32 32" enable-background="new 0 0 32 32" xml:space="preserve">
<path d="M17.5,0H0.4C0.2,0,0,0.2,0,0.4v26.3c0,0.2,0.2,0.4,0.4,0.4h26.3c0.2,0,0.4-0.2,0.4-0.4l0.3-16.9h-1.7L25.4,25
	c0,0.2-0.2,0.4-0.4,0.4H2.1c-0.2,0-0.4-0.2-0.4-0.4V2.1c0-0.2,0.2-0.4,0.4-0.4h15.4"/>
<path d="M26.7,1.4c0-0.4-0.1-0.7-0.4-1C26,0.1,25.7,0,25.3,0c-0.4,0-0.7,0.1-1,0.4L9.4,16.2l0,0l-1.5,1.6L8,19.7l1.8,0.1l1.7-1.8
	l0,0L26.3,2.4C26.5,2.2,26.7,1.8,26.7,1.4z"/>
</svg>
