<?xml version="1.0" encoding="utf-8"?>
<!-- Generator: Adobe Illustrator 21.0.0, SVG Export Plug-In . SVG Version: 6.00 Build 0)  -->
<svg version="1.1" id="Layer_1" xmlns="http://www.w3.org/2000/svg" xmlns:xlink="http://www.w3.org/1999/xlink" x="0px" y="0px"
	 width="512px" height="512px" viewBox="0 0 512 512" style="enable-background:new 0 0 512 512;" xml:space="preserve">
<g>
	<g>
		<path d="M255.8,226.5c5.5,0,9.9-4.4,9.9-9.9V38.8c0-5.5-4.4-9.9-9.9-9.9c-5.5,0-9.9,4.4-9.9,9.9v177.9
			C245.9,222.1,250.3,226.5,255.8,226.5z M361,109.1c-4.7-2.7-10.8-1.1-13.6,3.7c-2.7,4.7-1.1,10.8,3.7,13.5
			c56.8,32.5,92,92.2,92,155.9c0,99.8-84,181-187.3,181S68.5,382,68.5,282.2c0-63.7,35.3-123.4,92-155.8c4.7-2.7,6.4-8.8,3.7-13.5
			c-2.8-4.8-8.9-6.3-13.6-3.7c-62.9,36-102,102.3-102,173c0,110.7,92.9,200.8,207.2,200.8c114.2,0,207.1-90.1,207.1-200.8
			C462.9,211.3,423.9,145,361,109.1z"/>
	</g>
</g>
</svg>
