<?xml version="1.0" encoding="utf-8"?>
<!-- Generator: Adobe Illustrator 20.1.0, SVG Export Plug-In . SVG Version: 6.00 Build 0)  -->
<svg version="1.1" id="Layer_1" xmlns="http://www.w3.org/2000/svg" xmlns:xlink="http://www.w3.org/1999/xlink" x="0px" y="0px"
	 width="512px" height="512px" viewBox="0 0 512 512" style="enable-background:new 0 0 512 512;" xml:space="preserve">
<g>
	<path d="M134.6,149.3c0-10.7,0.2-21.4-0.1-32.1c-0.1-3.6,1.3-4.8,4.6-5c5.9-0.3,11.7-0.6,16.9,2.9c3.4,2.3,7.3,2.8,11.4,2.8
		c22.1-0.1,44.3,0.3,66.4-0.2c12.1-0.3,24.1-0.7,36.1-0.3c26.3,0.8,52.7,0.1,79,0.4c4.2,0.1,8.1-0.6,11-4.3c1.6-2.1,4.1-1.5,6.3-1.5
		c10-0.1,8-0.1,8.4,8.1c0.9,20.9,0.5,41.7,0.5,62.6c0,2.5-0.2,5-0.5,7.4c-0.2,2.1,0.8,5-1.5,6.2c-3.5,1.9-7.4,3-11.4,3
		c-1.8,0-2.3-2.1-2.9-3.5c-5.3-11.1-9.5-22.7-11.4-34.9c-0.6-3.9-1.6-7.8-2.2-11.7c-0.6-3.6-2.5-5.8-6.3-6.4
		c-1.9-0.4-3.9-0.6-5.9-0.6c-15.2,0.1-30.3-0.3-45.5,0.7c-7.7,0.5-8.1,0.3-8.7,7.8c-0.9,10.5-1.2,21.1-0.7,31.6
		c0.7,13,0.3,26.1,0.3,39.2c0,43.4,0,86.8-0.1,130.2c0,4.8,0.4,9.7,1.3,14.4c0.4,2.6,2.2,4.8,4.7,5.6c8.6,3.4,17.6,5.5,26.3,8
		c4.3,1.2,8.5,2.7,12.8,4c2,0.6,2.9,2,3.3,4c2,11,0.4,13.2-10.6,13c-16.4-0.3-32.7-1.4-49.1-2.5c-16.6-1.2-33.2-1.5-49.9,0.2
		c-10.1,1-20.3,2-30.5,2c-2.8,0-3.6-1.1-3.9-3.6c-0.9-8.4,1-12,8.9-15.4c7.2-3.1,14.9-4.9,22.4-6.9c2.2-0.6,4.3-1.3,6.5-1.8
		c5.9-1.2,7.8-4.9,8.3-10.5c1.2-14.8,1.6-29.5,1.6-44.3c0-27.4,0.3-54.7-0.3-82c-0.6-27.3-0.4-54.7-0.5-82
		c0-10.6-0.9-11.4-11.4-11.7c-14.4-0.4-28.7-0.8-42.9,2.9c-8.2,2.1-13,6.3-15,14.5c-2,8.4-4.2,16.9-7.3,25
		c-3.5,9.3-6.5,10.1-14.3,4.2c-2.9-2.2-4.3-4.7-4.2-8.5C134.8,170,134.6,159.6,134.6,149.3z"/>
	<g>
		<rect x="456.2" y="455.2" width="26" height="26"/>
		<path d="M438.8,481.2h-25.2v-26h25.2V481.2z M396.3,481.2h-25.2v-26h25.2V481.2z M353.7,481.2h-25.2v-26h25.2V481.2z M311.1,481.2
			H286v-26h25.2V481.2z M268.6,481.2h-25.2v-26h25.2V481.2z M226,481.2h-25.2v-26H226V481.2z M183.4,481.2h-25.2v-26h25.2V481.2z
			 M140.9,481.2h-25.2v-26h25.2V481.2z M98.3,481.2H73.2v-26h25.2V481.2z"/>
		<rect x="29.8" y="455.2" width="26" height="26"/>
		<path d="M55.8,437.8h-26v-25.2h26V437.8z M55.8,395.3h-26v-25.2h26V395.3z M55.8,352.7h-26v-25.2h26V352.7z M55.8,310.1h-26V285
			h26V310.1z M55.8,267.6h-26v-25.2h26V267.6z M55.8,225h-26v-25.2h26V225z M55.8,182.4h-26v-25.2h26V182.4z M55.8,139.9h-26v-25.2
			h26V139.9z M55.8,97.3h-26V72.2h26V97.3z"/>
		<rect x="29.8" y="28.8" width="26" height="26"/>
		<path d="M438.8,54.8h-25.2v-26h25.2V54.8z M396.3,54.8h-25.2v-26h25.2V54.8z M353.7,54.8h-25.2v-26h25.2V54.8z M311.1,54.8H286
			v-26h25.2V54.8z M268.6,54.8h-25.2v-26h25.2V54.8z M226,54.8h-25.2v-26H226V54.8z M183.4,54.8h-25.2v-26h25.2V54.8z M140.9,54.8
			h-25.2v-26h25.2V54.8z M98.3,54.8H73.2v-26h25.2V54.8z"/>
		<rect x="456.2" y="28.8" width="26" height="26"/>
		<path d="M482.2,437.8h-26v-25.2h26V437.8z M482.2,395.3h-26v-25.2h26V395.3z M482.2,352.7h-26v-25.2h26V352.7z M482.2,310.1h-26
			V285h26V310.1z M482.2,267.6h-26v-25.2h26V267.6z M482.2,225h-26v-25.2h26V225z M482.2,182.4h-26v-25.2h26V182.4z M482.2,139.9
			h-26v-25.2h26V139.9z M482.2,97.3h-26V72.2h26V97.3z"/>
	</g>
</g>
</svg>
