<?xml version="1.0" encoding="UTF-8" standalone="no"?>
<svg width="60px" height="60px" viewBox="0 0 60 60" version="1.1" xmlns="http://www.w3.org/2000/svg" xmlns:xlink="http://www.w3.org/1999/xlink">
    <!-- Generator: Sketch 46.2 (44496) - http://www.bohemiancoding.com/sketch -->
    <title>print</title>
    <desc>Created with Sketch.</desc>
    <defs></defs>
    <g id="Page-1" stroke="none" stroke-width="1" fill="none" fill-rule="evenodd">
        <g id="print" fill-rule="nonzero" fill="#183247">
            <path d="M13.75,45 L8,45 C5.790861,45 4,43.209139 4,41 L4,19 C4,16.790861 5.790861,15 8,15 L13.75,15 L13.75,8 C13.75,6.20507456 15.2050746,4.75 17,4.75 L45,4.75 C46.7949254,4.75 48.25,6.20507456 48.25,8 L48.25,15 L52,15 C54.209139,15 56,16.790861 56,19 L56,41 C56,43.209139 54.209139,45 52,45 L48.25,45 L48.25,52 C48.25,53.7949254 46.7949254,55.25 45,55.25 L17,55.25 C15.2050746,55.25 13.75,53.7949254 13.75,52 L13.75,45 Z M48.25,40.5 L51.5,40.5 L51.5,19.5 L8.5,19.5 L8.5,40.5 L13.75,40.5 L13.75,32.75 L48.25,32.75 L48.25,40.5 Z M18.25,15 L43.75,15 L43.75,9.25 L18.25,9.25 L18.25,15 Z M18.25,37.25 L18.25,50.75 L43.75,50.75 L43.75,37.25 L18.25,37.25 Z M15.65,24 C17.1135545,24 18.2999999,25.1864454 18.2999999,26.65 C18.2999999,28.1135545 17.1135545,29.2999999 15.65,29.2999999 C14.1864454,29.2999999 13,28.1135545 13,26.65 L13,26.65 C13,25.1864454 14.1864454,24 15.65,24 Z" id="Combined-Shape"></path>
        </g>
    </g>
</svg>