<?xml version="1.0" encoding="utf-8"?>
<!-- Generator: Adobe Illustrator 17.0.0, SVG Export Plug-In . SVG Version: 6.00 Build 0)  -->
<!DOCTYPE svg PUBLIC "-//W3C//DTD SVG 1.1//EN" "http://www.w3.org/Graphics/SVG/1.1/DTD/svg11.dtd">
<svg version="1.1" id="Layer_1" xmlns="http://www.w3.org/2000/svg" xmlns:xlink="http://www.w3.org/1999/xlink" x="0px" y="0px"
	 width="512px" height="512px" viewBox="0 0 512 512" enable-background="new 0 0 512 512" xml:space="preserve">
<path fill="#010101" d="M505.385,198.324L314.447,9.129c-6.179-6.122-16.151-6.077-22.273,0.102l-27.615,26.742
	c-6.122,6.179-6.077,16.151,0.102,22.273l21.181,20.988L171.404,209.872H57.021l100.372,100.372L8,483.889V504h20.111
	l173.644-149.393l100.372,100.372V340.596L433.415,225.46l22.184,21.981c6.179,6.122,16.151,6.077,22.273-0.102l27.615-26.742
	C511.609,214.418,511.564,204.446,505.385,198.324z M236.766,258.894l-32.681-32.681L318.468,111.83l32.681,32.681L236.766,258.894z
	"/>
</svg>
