<?xml version="1.0" encoding="utf-8"?>
<!-- Generator: Adobe Illustrator 17.0.0, SVG Export Plug-In . SVG Version: 6.00 Build 0)  -->
<!DOCTYPE svg PUBLIC "-//W3C//DTD SVG 1.1//EN" "http://www.w3.org/Graphics/SVG/1.1/DTD/svg11.dtd">
<svg version="1.1" id="Layer_1" xmlns="http://www.w3.org/2000/svg" xmlns:xlink="http://www.w3.org/1999/xlink" x="0px" y="0px"
	 width="512px" height="512px" viewBox="0 0 512 512" enable-background="new 0 0 512 512" xml:space="preserve">
<g>
	<polyline fill="none" stroke="#000000" stroke-width="18" stroke-miterlimit="10" points="211.874,182.212 302.016,91.754 
		418.156,207.489 328.152,297.808 	"/>
	<path fill="none" stroke="#000000" stroke-width="18" stroke-miterlimit="10" d="M459.049,219.727
		c-7.874,7.901-21.544,7.043-30.535-1.916L291.659,81.433c-8.99-8.959-9.896-22.627-2.022-30.528l24.475-24.561
		c7.874-7.901,21.544-7.043,30.535,1.916l136.855,136.378c8.99,8.959,9.896,22.627,2.022,30.528L459.049,219.727z"/>
	<polygon fill="none" stroke="#000000" stroke-width="18" stroke-miterlimit="10" points="86.414,449.571 32.898,478.29 
		61.094,424.339 175.589,290.369 219.984,334.61 	"/>
	<path fill="none" stroke="#000000" stroke-width="18" stroke-miterlimit="10" d="M310.529,387.429
		c37.529-37.66,25.85-110.145-26.085-161.9s-124.461-63.18-161.99-25.52c-1.489,1.494-2.892,3.05-4.227,4.65l-0.204-0.204
		l-0.018,0.018c-7.874,7.901-6.968,21.569,2.022,30.528l155.518,154.977c8.99,8.959,22.661,9.817,30.535,1.916l0.018-0.018
		l-0.204-0.204C307.49,390.331,309.04,388.923,310.529,387.429z"/>
	<path fill="none" stroke="#000000" stroke-width="18" stroke-miterlimit="10" d="M269.944,240.08"/>
</g>
</svg>
