<?xml version="1.0" encoding="utf-8"?>
<!-- Generator: Adobe Illustrator 17.0.0, SVG Export Plug-In . SVG Version: 6.00 Build 0)  -->
<!DOCTYPE svg PUBLIC "-//W3C//DTD SVG 1.1//EN" "http://www.w3.org/Graphics/SVG/1.1/DTD/svg11.dtd">
<svg version="1.1" id="Layer_1" xmlns="http://www.w3.org/2000/svg" xmlns:xlink="http://www.w3.org/1999/xlink" x="0px" y="0px"
	 width="512px" height="512px" viewBox="0 0 512 512" enable-background="new 0 0 512 512" xml:space="preserve">
<path fill="#010101" d="M479.549,345.218c-9.885,10.284-23.771,16.694-39.163,16.694c-30.006,0-54.332-24.326-54.332-54.332
	c0-30.006,24.326-54.332,54.332-54.332c15.595,0,29.645,6.58,39.554,17.105H500V116.161H344.55v-14.275
	c10.524-9.909,17.105-23.958,17.105-39.554C361.655,32.326,337.329,8,307.323,8c-30.006,0-54.332,24.326-54.332,54.332
	c0,15.391,6.41,29.277,16.694,39.163v14.666H117.161v154.192h-14.275c-9.909-10.524-23.958-17.105-39.554-17.105
	C33.326,253.248,9,277.574,9,307.58c0,30.006,24.326,54.332,54.332,54.332c15.391,0,29.277-6.41,39.163-16.694h14.666V499h153.782
	v-19.696c-10.284-9.885-16.694-23.771-16.694-39.163c0-30.006,24.326-54.332,54.332-54.332c30.006,0,54.332,24.326,54.332,54.332
	c0,15.595-6.58,29.645-17.104,39.554V499H500V345.218H479.549z"/>
</svg>
