<?xml version="1.0" encoding="UTF-8"?>
<svg width="512px" height="512px" viewBox="0 0 512 512" version="1.1" xmlns="http://www.w3.org/2000/svg" xmlns:xlink="http://www.w3.org/1999/xlink">
    <!-- Generator: Sketch 44.1 (41455) - http://www.bohemiancoding.com/sketch -->
    <title>q&amp;a</title>
    <desc>Created with Sketch.</desc>
    <defs></defs>
    <g id="Page-1" stroke="none" stroke-width="1" fill="none" fill-rule="evenodd">
        <g id="q&amp;a" fill="#183247">
            <path d="M14.6140436,206.666147 C31.6713605,108.517785 113.686829,30.025614 215.392407,14.1476673 C381.586884,-11.6347564 523.889308,124.709373 497.925464,286.17129 C482.301039,383.791435 401.844172,463.286225 301.475209,480.992062 C253.369724,489.655223 205.91041,484.485272 162.452577,467.076549 C156.686887,464.854534 151.593002,464.854534 147.357735,466.892808 L80.5678568,498.022975 C54.493524,509.441923 25.4263628,486.250143 32.9614735,458.42561 L51.7860267,385.878481 C52.5911307,382.775725 51.6956007,378.370848 49.1825395,374.456952 C16.7671391,325.244347 4.10877954,266.514693 14.6140436,206.666147 Z M128.280504,426.642109 C143.980838,419.078754 161.775899,419.078754 178.743464,425.619867 C214.814881,440.067959 253.810012,444.315869 293.658321,437.13986 C375.651071,422.675607 441.356738,357.755627 453.943339,279.115602 C475.019467,148.048995 359.052312,36.9374597 222.242362,58.1613321 C139.18628,71.1277881 72.2480501,135.190423 58.4942717,214.329966 C49.96948,262.895934 60.1499083,310.128992 86.5204804,350.167033 C95.5609308,364.237275 99.013951,381.221777 94.9027109,397.065907 L81.5782646,448.412936 L128.280504,426.642109 Z M141.948276,281.344828 C120.951933,281.344828 103.931034,264.323929 103.931034,243.327586 C103.931034,222.331244 120.951933,205.310345 141.948276,205.310345 C162.944619,205.310345 179.965517,222.331244 179.965517,243.327586 C179.965517,264.323929 162.944619,281.344828 141.948276,281.344828 Z M260.224138,281.344828 C239.227795,281.344828 222.206897,264.323929 222.206897,243.327586 C222.206897,222.331244 239.227795,205.310345 260.224138,205.310345 C281.220481,205.310345 298.241379,222.331244 298.241379,243.327586 C298.241379,264.323929 281.220481,281.344828 260.224138,281.344828 Z M378.5,281.344828 C357.503657,281.344828 340.482759,264.323929 340.482759,243.327586 C340.482759,222.331244 357.503657,205.310345 378.5,205.310345 C399.496343,205.310345 416.517241,222.331244 416.517241,243.327586 C416.517241,264.323929 399.496343,281.344828 378.5,281.344828 Z" id="Combined-Shape"></path>
        </g>
    </g>
</svg>