<?xml version="1.0" encoding="UTF-8" standalone="no"?>
<svg width="60px" height="60px" viewBox="0 0 60 60" version="1.1" xmlns="http://www.w3.org/2000/svg" xmlns:xlink="http://www.w3.org/1999/xlink">
    <!-- Generator: Sketch 46.2 (44496) - http://www.bohemiancoding.com/sketch -->
    <title>questions</title>
    <desc>Created with Sketch.</desc>
    <defs></defs>
    <g id="Page-1" stroke="none" stroke-width="1" fill="none" fill-rule="evenodd">
        <g id="questions" fill="#183247">
            <path d="M30,58 C14.536027,58 2,45.463973 2,30 C2,14.536027 14.536027,2 30,2 C45.463973,2 58,14.536027 58,30 C58,45.463973 45.463973,58 30,58 Z M25.2,42.92 C25.2,43.8266712 25.5133302,44.5866636 26.14,45.2 C26.7666698,45.8133364 27.5266622,46.12 28.42,46.12 C29.3133378,46.12 30.0733302,45.8133364 30.7,45.2 C31.3266698,44.5866636 31.64,43.8266712 31.64,42.92 C31.64,42.0133288 31.3266698,41.2533364 30.7,40.64 C30.0733302,40.0266636 29.3133378,39.72 28.42,39.72 C27.5266622,39.72 26.7666698,40.0266636 26.14,40.64 C25.5133302,41.2533364 25.2,42.0133288 25.2,42.92 Z M24.1,18.2 C22.4599918,19.7733412 21.6666664,21.7999876 21.72,24.28 L27.04,24.28 C27.04,23.1066608 27.3799966,22.1800034 28.06,21.5 C28.7400034,20.8199966 29.6733274,20.48 30.86,20.48 C32.0466726,20.48 32.9799966,20.8266632 33.66,21.52 C34.3400034,22.2133368 34.68,23.1466608 34.68,24.32 C34.68,26.0266752 34.1266722,27.1733304 33.02,27.76 C31.9133278,28.3466696 30.2133448,28.64 27.92,28.64 L25.64,28.64 L25.64,36.72 L30.92,36.72 L30.92,32.36 C33.9600152,32.3066664 36.2533256,31.6666728 37.8,30.44 C39.3466744,29.2133272 40.12,27.233347 40.12,24.5 C40.12,21.766653 39.2666752,19.6400076 37.56,18.12 C35.8533248,16.5999924 33.5933474,15.84 30.78,15.84 C27.9666526,15.84 25.7400082,16.6266588 24.1,18.2 Z" id="Combined-Shape"></path>
        </g>
    </g>
</svg>