<?xml version="1.0" encoding="utf-8"?>
<!-- Generator: Adobe Illustrator 21.0.2, SVG Export Plug-In . SVG Version: 6.00 Build 0)  -->
<svg version="1.1" id="Layer_1" xmlns="http://www.w3.org/2000/svg" xmlns:xlink="http://www.w3.org/1999/xlink" x="0px" y="0px"
	 width="512px" height="512px" viewBox="0 0 512 512" style="enable-background:new 0 0 512 512;" xml:space="preserve">
<g id="Page-1">
	<g id="Desktop-HD-Copy-2" transform="translate(-1220.000000, -66.000000)">
		<g id="Group-3-Copy" transform="translate(926.000000, 44.000000)">
			<path id="Combined-Shape" d="M630.9,204.3L445.2,393.9c-6,6-13.2,9.2-21.2,9.2c-10,2.4-20.8-0.4-28.3-8.4l-79.4-81.4
				c-12-12.4-12-32.3,0-44.7c12-12.4,31.5-12.4,43.5,0l60.3,61.5l167.2-170c12-12.4,31.5-12.4,43.5,0
				C642.8,172,642.8,192,630.9,204.3z M676,219.9c0-12.8,10.4-23.2,23.2-23.2h69.1c12.8,0,23.2,10.4,23.2,23.2
				c0,12.8-10.4,23.2-23.2,23.2h-69.1C686.3,242.7,676,232.7,676,219.9z M606.9,300.5c0-12.8,10.4-23.2,23.2-23.2h138.5
				c12.8,0,23.2,10.4,23.2,23.2s-10.4,23.2-23.2,23.2H630.1C617.3,323.3,606.9,313.3,606.9,300.5z M537.8,381.2
				c0-12.8,10.4-23.2,22.8-23.2h207.6c12.8,0,22.8,10.4,22.8,23.2s-10.4,23.2-22.8,23.2H560.6C548.2,403.9,537.8,393.9,537.8,381.2z
				"/>
		</g>
	</g>
</g>
</svg>
