<?xml version="1.0" encoding="utf-8"?>
<!-- Generated by IcoMoon.io -->
<!DOCTYPE svg PUBLIC "-//W3C//DTD SVG 1.1//EN" "http://www.w3.org/Graphics/SVG/1.1/DTD/svg11.dtd">
<svg version="1.1" xmlns="http://www.w3.org/2000/svg" xmlns:xlink="http://www.w3.org/1999/xlink" width="32" height="32" viewBox="0 0 32 32">
<g id="icomoon-ignore">
	<line stroke-width="1" x1="" y1="" x2="" y2="" stroke="#449FDB" opacity=""></line>
</g>
	<path d="M23.326 8.911l-2.328 2.328c-1.264-1.264-3.010-2.046-4.939-2.046-3.857 0-6.985 3.128-6.985 6.986 0 0.001 0-0.001 0 0h2.713l-4.334 4.332-4.329-4.332h2.657c0-0 0 0 0 0 0-5.676 4.601-10.279 10.277-10.279 2.838 0 5.407 1.15 7.267 3.010zM28.875 15.821l-4.329-4.332-4.334 4.332h2.713c0 0.001 0-0.001 0 0 0 3.857-3.127 6.986-6.985 6.986-1.929 0-3.675-0.782-4.939-2.046l-2.328 2.328c1.86 1.86 4.429 3.010 7.267 3.010 5.676 0 10.277-4.603 10.277-10.279 0-0 0 0.001 0 0h2.657z" fill="#000000"></path>
</svg>
