<?xml version="1.0" encoding="utf-8"?>
<!-- Generator: Adobe Illustrator 18.1.1, SVG Export Plug-In . SVG Version: 6.00 Build 0)  -->
<svg version="1.1" id="Layer_1" xmlns="http://www.w3.org/2000/svg" xmlns:xlink="http://www.w3.org/1999/xlink" x="0px" y="0px"
	 width="512px" height="512px" viewBox="0 0 512 512" enable-background="new 0 0 512 512" xml:space="preserve">
<g>
	<path fill-rule="evenodd" clip-rule="evenodd" d="M426,166.9C398.1,97.7,331,49,252.6,49c-84.8,0-156.4,57.1-179.4,135.3H12
		l80.2,108.2l107-108.2h-69.1c20.6-47.8,67.7-81.2,122.6-81.2c47.9,0,89.9,25.5,113.5,63.8l2.1,0.9
		C386.8,175.5,407.7,175.2,426,166.9L426,166.9z"/>
	<path fill-rule="evenodd" clip-rule="evenodd" d="M85,345.1C112.9,414.3,180,463,258.4,463c84.8,0,156.4-57.1,179.4-135.3H499
		l-80.2-108.2l-107,108.2h69.1c-20.6,47.8-67.7,81.2-122.6,81.2c-47.9,0-89.9-25.5-113.5-63.8l-2.1-0.9
		C124.2,336.5,103.3,336.8,85,345.1L85,345.1z"/>
</g>
</svg>
