<?xml version="1.0" encoding="utf-8"?>
<!-- Generator: Adobe Illustrator 17.1.0, SVG Export Plug-In . SVG Version: 6.00 Build 0)  -->
<!DOCTYPE svg PUBLIC "-//W3C//DTD SVG 1.1//EN" "http://www.w3.org/Graphics/SVG/1.1/DTD/svg11.dtd">
<svg version="1.1" id="Layer_1" xmlns="http://www.w3.org/2000/svg" xmlns:xlink="http://www.w3.org/1999/xlink" x="0px" y="0px"
	 viewBox="0 0 512 512" enable-background="new 0 0 512 512" xml:space="preserve">
<path d="M510.2,168.8L395.8,50.9c0,0,0,0,0,0c-0.1-0.1-0.2-0.2-0.3-0.3c0,0-0.1-0.1-0.1-0.1c-0.1-0.1-0.2-0.1-0.3-0.2
	c-0.1,0-0.1-0.1-0.2-0.1c-0.1,0-0.1,0-0.2-0.1c-0.1,0-0.2-0.1-0.3-0.1c-0.1,0-0.1,0-0.2,0c-0.1,0-0.3,0-0.4,0c0,0,0,0,0,0h-34
	c0,0-0.1,0-0.1,0c-0.8,0-1.7,0.3-2.3,0.9L242.8,168.8c-1.2,1.2-1.1,3.1,0.1,4.2l24.5,23.6c1.2,1.2,3.1,1.1,4.2-0.1l85-87.4V487
	c0,1.7,1.3,3,3,3h34c1.7,0,3-1.3,3-3V109.4l84.8,87.2c1.2,1.2,3,1.2,4.2,0.1l24.5-23.6C511.3,171.9,511.3,170,510.2,168.8z"/>
<path d="M269.2,371.2L154.8,489.1c0,0,0,0,0,0c-0.1,0.1-0.2,0.2-0.3,0.3c0,0-0.1,0.1-0.1,0.1c-0.1,0.1-0.2,0.1-0.3,0.2
	c-0.1,0-0.1,0.1-0.2,0.1c-0.1,0-0.1,0-0.2,0.1c-0.1,0-0.2,0.1-0.3,0.1c-0.1,0-0.1,0-0.2,0c-0.1,0-0.3,0-0.4,0c0,0,0,0,0,0h-34
	c0,0-0.1,0-0.1,0c-0.8,0-1.7-0.3-2.3-0.9L1.8,371.2c-1.2-1.2-1.1-3.1,0.1-4.2l24.5-23.6c1.2-1.2,3.1-1.1,4.2,0.1l85,87.4V53
	c0-1.7,1.3-3,3-3h34c1.7,0,3,1.3,3,3v377.6l84.8-87.2c1.2-1.2,3-1.2,4.2-0.1l24.5,23.6C270.4,368.1,270.4,370,269.2,371.2z"/>
</svg>
