<?xml version="1.0" encoding="UTF-8" standalone="no"?>
<svg width="60px" height="60px" viewBox="0 0 60 60" version="1.1" xmlns="http://www.w3.org/2000/svg" xmlns:xlink="http://www.w3.org/1999/xlink">
    <!-- Generator: Sketch 46.2 (44496) - http://www.bohemiancoding.com/sketch -->
    <title>report-a-problem</title>
    <desc>Created with Sketch.</desc>
    <defs></defs>
    <g id="Page-1" stroke="none" stroke-width="1" fill="none" fill-rule="evenodd">
        <g id="report-a-problem" fill="#183247">
            <path d="M30,58 C14.536027,58 2,45.463973 2,30 C2,14.536027 14.536027,2 30,2 C45.463973,2 58,14.536027 58,30 C58,45.463973 45.463973,58 30,58 Z M32.84,21.88 C33.50667,21.21333 33.84,20.4000048 33.84,19.44 C33.84,18.4799952 33.50667,17.66667 32.84,17 C32.17333,16.33333 31.3666714,16 30.42,16 C29.4733286,16 28.66667,16.33333 28,17 C27.33333,17.66667 27,18.4799952 27,19.44 C27,20.4000048 27.33333,21.21333 28,21.88 C28.66667,22.54667 29.4733286,22.88 30.42,22.88 C31.3666714,22.88 32.17333,22.54667 32.84,21.88 Z M28,29.8000003 L28,39.16 L26,39.16 L26,43.9600002 L35.5999999,43.9600002 L35.5999999,39.16 L33.64,39.16 L33.64,25 L26.5,25.0000002 L26.5,29.8000003 L28,29.8000003 Z" id="Combined-Shape"></path>
        </g>
    </g>
</svg>