<?xml version="1.0" encoding="utf-8"?>
<!-- Generator: Adobe Illustrator 19.2.1, SVG Export Plug-In . SVG Version: 6.00 Build 0)  -->
<svg version="1.1" id="Layer_1" xmlns="http://www.w3.org/2000/svg" xmlns:xlink="http://www.w3.org/1999/xlink" x="0px" y="0px"
	 width="512px" height="512px" viewBox="0 0 512 512" style="enable-background:new 0 0 512 512;" xml:space="preserve">
<g>
	<path d="M153,112.8c45.7-38,140.5-53.1,214.6,2.6c71,53.3,91.9,148.8,49.8,226.8c-40.9,75.8-134.7,112.9-216.1,86.4
		C121.9,402.5,54.5,318.6,80.8,209l-40.5-2.6c-0.5,2.2-1,4.6-1.6,7.5C18.1,316.7,71.4,416.6,169.5,458.6
		c112.3,48.1,243.7-3.4,292-114.5c38.1-87.8,14.9-189.9-57-250.5C328.7,29.6,223.6,21,139.6,72c-3.4,2-6.9,3.9-11.5,6.4
		c-11-15.1-22.4-30.2-34.4-47L59,153.1c42.3,2.5,82.7,4.7,127.4,7.2C174.1,142.7,163.6,127.7,153,112.8z"/>
</g>
</svg>
