<?xml version="1.0" encoding="utf-8"?>
<!-- Generator: Adobe Illustrator 17.0.0, SVG Export Plug-In . SVG Version: 6.00 Build 0)  -->
<!DOCTYPE svg PUBLIC "-//W3C//DTD SVG 1.1//EN" "http://www.w3.org/Graphics/SVG/1.1/DTD/svg11.dtd">
<svg version="1.1" id="Layer_1" xmlns="http://www.w3.org/2000/svg" xmlns:xlink="http://www.w3.org/1999/xlink" x="0px" y="0px"
	 width="512px" height="512px" viewBox="0 0 512 512" enable-background="new 0 0 512 512" xml:space="preserve">
<g>
	<path d="M249.174,382.705c-0.397-1.414-1.726-2.334-3.239-2.137c-1.792,0.236-3.131,0.449-4.252,0.619
		c-2.745,0.427-4.123,0.652-8.49,0.652c-4.427,0-5.832-0.236-8.616-0.663c-1.137-0.175-2.468-0.394-4.276-0.646
		c-1.449-0.198-2.827,0.723-3.233,2.126l-9.348,32.536c-0.134,0.433-0.153,0.904-0.068,1.365l7.953,43.401
		c0.26,1.414,1.482,2.433,2.912,2.433h28.712c1.43,0,2.671-1.019,2.915-2.433l7.882-44.245c0.08-0.449,0.058-0.893-0.057-1.315
		L249.174,382.705z"/>
	<path d="M171.488,337.429c-0.183,0-0.334-0.038-0.504-0.038h-3.367c-0.682,0-1.361,0.066-2.036,0.224
		c-52.395,12.405-101.104,39.364-140.861,77.982c-1.726,1.682-2.693,3.967-2.693,6.378v31.692c0,4.909,3.975,8.866,8.871,8.866
		h162.134l-42.919-78.672L171.488,337.429z"/>
	<path d="M284.304,314.904v-27.386c3.616-3.517,6.92-7.43,10.027-11.534c-7.948,3.26-16.38,5.797-25.194,7.485
		c-1.685,6.263-7.373,10.915-14.172,10.915h-23.958c-8.126,0-14.747-6.613-14.747-14.728c0-8.132,6.621-14.728,14.747-14.728h23.958
		c4.899,0,9.241,2.422,11.912,6.142c14.701-2.839,28.163-8.268,39.801-15.583c5.34-11.594,8.758-24.12,9.688-36.651
		c0.093,0,0.192,0,0.285,0c3.084,0,5.958-0.923,8.418-2.498c0.4,0.042,0.806,0.065,1.217,0.065h1.611h3.23
		c6.386,0,11.578-5.178,11.578-11.583v1.578c11.104-19.55,17.016-41.73,17.016-64.316c0-71.592-57.894-129.826-129.048-129.826
		c-71.143,0-129.031,58.234-129.031,129.826c0,22.432,5.83,44.454,16.788,63.9v-1.161c0,6.273,4.978,11.355,11.191,11.563
		c1.784-0.06,3.466-0.517,4.958-1.297c2.785,2.342,6.301,3.75,10.132,3.75c0.099,0,0.186,0,0.285,0
		c1.868,25.232,18.75,50.431,36.383,67.949v28.12c0,0.931,0.211,1.852,0.638,2.696c2.351,4.624,23.767,45.127,50.714,45.686
		c0.036,0,0.48,0,0.515,0c0,0,0,0,0.014,0c26.887,0,48.089-41.056,50.426-45.735C284.093,316.723,284.304,315.836,284.304,314.904z
		 M134.867,133.901c-1.626-0.911-3.491-1.439-5.479-1.466c-3.103,0.059-14.103,0.453-15.462,1.093
		c4.339-54.831,61.231-114.991,116.747-114.991c55.571,0,112.487,60.223,116.769,115.106c-1.54-0.756-14.487-1.216-16.314-1.216
		h-4.712c-9-45.849-47.31-80.321-93.222-80.321C186.792,52.107,144.248,87.32,134.867,133.901z"/>
	<path d="M129.229,132.427c0.053,0,0.105,0.007,0.158,0.008c0.27-0.005,0.487-0.008,0.625-0.008H129.229z"/>
	<path d="M130.013,216.403c-0.132,0-0.261-0.015-0.392-0.02c-0.131,0.004-0.259,0.02-0.392,0.02H130.013z"/>
	<path d="M387.721,289.995c-58.847,0-106.552,47.705-106.552,106.551c0,58.847,47.705,106.552,106.552,106.552
		s106.551-47.705,106.551-106.552C494.273,337.699,446.568,289.995,387.721,289.995z M387.721,482.594
		c-47.523,0-86.048-38.525-86.048-86.048s38.525-86.048,86.048-86.048c47.523,0,86.048,38.525,86.048,86.048
		S435.244,482.594,387.721,482.594z"/>
	<polygon points="373.613,401.896 348.478,376.76 330.524,394.715 373.613,437.804 445.43,365.988 427.476,348.034 	"/>
</g>
</svg>
