<?xml version="1.0" encoding="utf-8"?>
<!-- Generator: Adobe Illustrator 18.0.0, SVG Export Plug-In . SVG Version: 6.00 Build 0)  -->
<!DOCTYPE svg PUBLIC "-//W3C//DTD SVG 1.1//EN" "http://www.w3.org/Graphics/SVG/1.1/DTD/svg11.dtd">
<svg version="1.1" xmlns="http://www.w3.org/2000/svg" xmlns:xlink="http://www.w3.org/1999/xlink" x="0px" y="0px"
	 viewBox="0 0 512 512" enable-background="new 0 0 512 512" xml:space="preserve">
<g id="Layer_1" display="none">
	<circle fill="#0B76F7" stroke="#000000" stroke-miterlimit="10" cx="206.3" cy="306.2" r="253.2"/>
	<path display="inline" fill="#231F20" d="M90.9,108.6l35.4-57.3c0.7-1.2,1.6-1.7,2.3-1.5c0.7,0.1,1.4,0.9,1.7,2.3l12.9,66.1
		l64.5,11.8c3,0.5,3.3,2.2,1,3.8l-59.8,31.7l18.2,65.3c0.4,2-0.2,3-1.5,2.7c-0.5-0.1-1.1-0.4-1.8-0.8L104,184.5l-68.9,24.7
		c-0.8,0.2-1.5,0.3-1.9,0.2c-1.3-0.2-1.6-1.4-0.5-3.1L69,150.9L20.5,99.4c-1.6-2.3-0.6-3.7,2.2-3.2L90.9,108.6z"/>
	<path display="inline" fill="#231F20" d="M294.4,73.5L306,54.6c0.3-0.4,0.6-0.6,0.8-0.5c0.3,0,0.5,0.3,0.5,0.7l4.3,21.8l21.3,3.9
		c0.9,0.2,1.1,0.7,0.3,1.3l-19.7,10.5l6,21.5c0.1,0.6-0.1,1-0.5,0.9c-0.1-0.1-0.4-0.1-0.6-0.3l-19.7-15.9l-22.7,8.2
		c-0.3,0.1-0.5,0.1-0.6,0c-0.4-0.1-0.5-0.4-0.2-1l11.9-18.3l-16-16.9c-0.5-0.8-0.2-1.2,0.7-1.1L294.4,73.5z"/>
	<path display="inline" fill="#231F20" d="M368.5,309.7l8.4-13.6c0.2-0.3,0.4-0.4,0.6-0.4c0.2,0,0.3,0.2,0.4,0.5l3.1,15.7l15.3,2.8
		c0.7,0.1,0.8,0.5,0.2,0.9l-14.2,7.5l4.3,15.5c0.1,0.5-0.1,0.7-0.4,0.7c-0.1,0-0.3-0.1-0.4-0.2l-14.2-11.4l-16.3,5.9
		c-0.2,0-0.4,0.1-0.4,0c-0.3,0-0.4-0.3-0.1-0.7l8.6-13.2l-11.5-12.2c-0.4-0.5-0.2-0.9,0.5-0.8L368.5,309.7z"/>
	<path display="inline" fill="#231F20" d="M60,524l340.3-339.3c9.3-9.3,10.3-23.1,2.4-30.7l-28.8-27.8c-4-3.8-9.5-5.3-15.1-4.8
		c-5.6,0.5-11.5,3.1-16.1,7.8L-9,478c0,0,23.2,20.6,29.5,24.7C28.6,507.9,60,524,60,524z M241.9,268l114.3-114.7l19.3,18.5
		L261.2,286.6L241.9,268z"/>
</g>
<g id="Layer_2">
	<g>
		<path fill="#231F20" d="M157.7,97.1l28.1-47.5c0.6-1,1.4-1.4,1.7-1.4c0.6,0.2,1.2,0.8,1.4,1.7l11.6,53.9l53.1,8.7
			c2.5,0.4,2.7,1.7,0.8,3.1l-48.5,26.9l15.9,53.3c0.4,1.6-0.2,2.3-1.2,2.3c-0.4,0-1-0.4-1.6-0.6l-49.6-38.6l-56,21.3
			c-0.6,0.2-1.2,0.2-1.6,0.2c-1.2-0.2-1.4-1.2-0.6-2.5l28.9-45.9L99.7,90.7c-1.4-1.7-0.6-3.1,1.7-2.7L157.7,97.1z"/>
		<path fill="#231F20" d="M322.7,45.8l10.9-18.6c0.2-0.3,0.6-0.6,0.8-0.6c0.2,0,0.4,0.2,0.6,0.7l4.5,21.1l20.7,3.4
			c0.9,0.2,1.1,0.7,0.3,1.2l-19,10.5l6.2,20.8c0.1,0.7-0.1,0.9-0.4,0.9c-0.1,0-0.3-0.1-0.6-0.2l-19.3-15.1l-21.9,8.3
			c-0.3,0-0.4,0.1-0.6,0c-0.4,0-0.4-0.4-0.2-1l11.2-18L300,43.1c-0.6-0.7-0.2-1.2,0.7-1L322.7,45.8z"/>
		<path fill="#231F20" d="M422.7,275.8l10.9-18.6c0.2-0.3,0.6-0.6,0.8-0.6c0.2,0,0.4,0.2,0.6,0.7l4.5,21.1l20.7,3.4
			c0.9,0.2,1.1,0.7,0.3,1.2l-19,10.5l6.2,20.8c0.1,0.7-0.1,0.9-0.4,0.9c-0.1,0-0.3-0.1-0.6-0.2l-19.3-15.1l-21.9,8.3
			c-0.3,0-0.4,0.1-0.6,0c-0.4,0-0.4-0.4-0.2-1l11.2-18L400,273.1c-0.6-0.7-0.2-1.2,0.7-1L422.7,275.8z"/>
		<path fill="#231F20" d="M87.7,413.8l30.5,30.5c8.5,8.5,23.5,7.1,33.4-2.8l279.5-278.3c10.1-10.1,11.3-25.1,2.8-33.4l-30.5-30.5
			c-4.2-4.2-10.1-5.9-16.2-5.5c-6.1,0.4-12.3,3.2-17.4,8.3L90.5,380.4C80.6,390.3,79.4,405.5,87.7,413.8z M264.5,248.3L388,124.8
			l20.4,20.4L284.7,268.7L264.5,248.3z"/>
	</g>
</g>
</svg>
