<?xml version="1.0" encoding="utf-8"?>
<!-- Generated by IcoMoon.io -->
<!DOCTYPE svg PUBLIC "-//W3C//DTD SVG 1.1//EN" "http://www.w3.org/Graphics/SVG/1.1/DTD/svg11.dtd">
<svg version="1.1" xmlns="http://www.w3.org/2000/svg" xmlns:xlink="http://www.w3.org/1999/xlink" width="512" height="512" viewBox="0 0 512 512">
<g>
</g>
	<path d="M449.152 395.981l-96.743-96.743c14.592-23.987 22.989-52.096 22.989-82.227 0-87.45-75.801-163.251-163.277-163.251-87.45 0-158.362 70.912-158.362 158.362 0 87.475 75.776 163.277 163.251 163.277 29.082 0 56.32-7.885 79.744-21.581l97.255 97.28c9.549 9.523 24.96 9.523 34.457 0l24.141-24.115c9.498-9.523 6.041-21.504-3.456-31.002zM102.502 212.121c0-60.544 49.075-109.645 109.619-109.645 60.569 0 114.535 53.965 114.535 114.534s-49.075 109.645-109.645 109.645-114.509-53.965-114.509-114.534z" fill="#000000" />
</svg>
