<?xml version="1.0" encoding="utf-8"?>
<!-- Generator: Adobe Illustrator 18.1.1, SVG Export Plug-In . SVG Version: 6.00 Build 0)  -->
<svg version="1.1" id="Layer_1" xmlns="http://www.w3.org/2000/svg" xmlns:xlink="http://www.w3.org/1999/xlink" x="0px" y="0px"
	 width="512px" height="512px" viewBox="0 0 512 512" enable-background="new 0 0 512 512" xml:space="preserve">
<g display="none" opacity="0.46">
	<path display="inline" d="M321,255.8c0-17.6-6.3-32.6-18.9-45c-12.6-12.4-27.9-18.7-45.7-18.7c-17.8,0-33.1,6.2-45.7,18.7
		c-12.6,12.4-18.9,27.4-18.9,45s6.3,32.6,18.9,45c12.6,12.4,27.9,18.7,45.7,18.7c17.8,0,33.1-6.2,45.7-18.7
		C314.7,288.4,321,273.4,321,255.8L321,255.8z M450.3,228.7v55.2c0,2-0.7,3.9-2,5.7c-1.3,1.8-3,2.9-5.1,3.2l-46.7,7
		c-3.2,9-6.5,16.5-9.8,22.6c5.9,8.3,14.9,19.7,27,34.3c1.7,2,2.5,4.1,2.5,6.2c0,2.2-0.8,4.1-2.3,5.7c-4.5,6.1-12.9,15.1-25,26.9
		c-12.1,11.8-20,17.7-23.7,17.7c-2,0-4.2-0.7-6.6-2.2l-34.9-26.9c-7.4,3.8-15.1,7-23,9.5c-2.7,22.6-5.1,38-7.3,46.3
		c-1.2,4.6-4.2,7-9.1,7h-56.1c-2.4,0-4.4-0.7-6.2-2.1c-1.8-1.4-2.7-3.2-2.9-5.3l-7.1-45.8c-8.3-2.7-15.8-5.7-22.7-9.2L153.8,411
		c-1.7,1.5-3.8,2.2-6.3,2.2c-2.4,0-4.5-0.9-6.3-2.7c-21.2-18.9-35.1-32.8-41.7-41.8c-1.2-1.7-1.8-3.6-1.8-5.7c0-2,0.7-3.9,2-5.7
		c2.5-3.5,6.8-9,12.9-16.5c6.1-7.5,10.6-13.4,13.6-17.5c-4.5-8.3-8-16.5-10.4-24.6l-46.2-6.7c-2.2-0.3-4-1.4-5.3-3.1
		c-1.3-1.7-2-3.7-2-5.8v-55.2c0-2,0.7-3.9,2-5.7c1.3-1.8,2.9-2.9,4.8-3.2l47-7c2.4-7.6,5.6-15.3,9.8-22.9
		c-6.7-9.5-15.7-20.9-27-34.3c-1.7-2-2.5-4-2.5-6c0-1.7,0.8-3.6,2.3-5.7c4.4-6,12.7-14.9,24.9-26.7s20.2-17.8,23.9-17.8
		c2.2,0,4.4,0.8,6.6,2.5l34.8,26.6c7.4-3.8,15.1-7,23-9.5c2.7-22.6,5.1-38,7.3-46.3c1.2-4.6,4.2-7,9.1-7h56.1c2.4,0,4.4,0.7,6.2,2.1
		c1.8,1.4,2.7,3.2,2.9,5.3l7.1,45.8c8.2,2.7,15.8,5.7,22.7,9.2l35.9-26.6c1.5-1.5,3.5-2.2,6.1-2.2c2.2,0,4.3,0.8,6.3,2.5
		c21.7,19.7,35.6,33.8,41.7,42.3c1.2,1.3,1.8,3.1,1.8,5.5c0,2-0.7,3.9-2,5.7c-2.5,3.5-6.8,9-12.9,16.5c-6.1,7.5-10.6,13.4-13.6,17.5
		c4.4,8.3,7.8,16.4,10.4,24.4l46.2,7c2.2,0.3,4,1.4,5.3,3.1C449.6,224.6,450.3,226.5,450.3,228.7L450.3,228.7z"/>
</g>
<g>
	<path d="M440.2,218.5c-8.3-2.2-23.7-4.6-46.2-7.3c-2.4-7.7-5.4-15.1-9.1-22.3l26.9-36.7c1.4-1.6,1.9-3.5,1.6-5.8
		c-0.3-2.2-1.3-4.1-3-5.8l-39.6-39.6c-3.5-3.5-7.2-4-11.3-1.6c-7.4,4.3-20,13.5-37.9,27.5c-7.1-3.7-14.5-6.9-22.2-9.4l-7-45
		c-0.2-2.2-1.1-3.9-2.9-5.4c-1.8-1.4-3.8-2.1-6.2-2.1h-56.1c-4.9,0-7.9,2.3-9.1,7c-2.2,8.2-4.6,23.4-7.2,45.6
		c-7.9,2.5-15.6,5.7-22.9,9.5l-36.3-26.5c-1.6-1.4-3.5-1.9-5.8-1.6c-2.2,0.3-4.1,1.3-5.8,3l-39.6,39.6c-3.5,3.5-4,7.2-1.6,11.3
		c4.2,7.2,13,19.4,26.5,36.6c-3.9,7.5-7.2,15.4-9.8,23.7l-43.6,6.7c-2.2,0.2-3.8,1.1-5.2,2.9c-1.4,1.8-2,3.8-2,6.2v56.1
		c0,4.9,2.2,7.9,6.8,9.1c8,2.1,22.8,4.5,44.2,7.1c2.7,8.3,6,16.3,10.1,23.9l-25.9,35.4c-1.4,1.6-1.9,3.5-1.6,5.8
		c0.3,2.2,1.3,4.1,3,5.8l39.6,39.6c3.5,3.5,7.2,4,11.3,1.6c7.2-4.2,19.4-13,36.5-26.4c7.6,3.8,15.5,7,23.7,9.5l6.8,43.8
		c0.2,2.2,1.1,3.7,2.9,5.1c1.8,1.4,3.8,1.9,6.2,1.9h56.1c4.9,0,7.9-2.1,9.1-6.7c2.2-8.2,4.6-23.2,7.2-45.3
		c7.9-2.6,15.5-5.9,22.7-9.7l36.5,26.7c1.6,1.4,3.5,1.9,5.8,1.7c2.2-0.3,4.1-1.3,5.8-3l39.6-39.6c3.5-3.5,4-7.2,1.6-11.3
		c-4.3-7.4-13.5-20-27.5-37.9c3.7-7.1,6.9-14.5,9.4-22.2l45-7c2.2-0.2,3.8-1.1,5.2-2.9c1.4-1.8,2-3.8,2-6.2v-56.1
		C447,222.7,444.8,219.7,440.2,218.5z M384.5,189.3l0,0.5c0-0.1-0.1-0.2-0.1-0.3L384.5,189.3z M418,265.4c0,1.4-1.2,2.6-2.6,2.6
		l-48.2,5c-0.3,0-0.5-0.1-0.8-0.1c-2.6,17.8-9.3,34.3-19.2,48.4c0.2,0.1,0.4,0.2,0.6,0.4l30.5,37.6c1,1,1,2.6,0,3.6l-14.5,14.5
		c-1,1-2.6,1-3.6,0l-37.6-30.5c0,0-0.1-0.1-0.1-0.1c-13.9,10.4-30.2,17.7-48,20.8c0.1,0.3,0.2,0.5,0.2,0.8l-5,48.1
		c0,1.4-1.2,2.5-2.6,2.5h-20.4c-1.4,0-2.6-1.1-2.6-2.5l-5-48.1c0-0.1,0.2-0.2,0.2-0.3c-17.9-2.5-34.3-9.2-48.3-19.1c0,0,0,0,0,0
		l-37.8,30.5c-1,1-2.7,1-3.8,0l-14.5-14.5c-1-1-1-2.6,0-3.6l30.1-37.1c-10.6-14-17.9-30.6-21-48.6l-47.4-4.9c-1.4,0-2.6-1.2-2.6-2.6
		v-20.4c0-1.4,1.2-2.6,2.6-2.6l46.9-4.9c2.6-18.3,9.7-35.1,20-49.5l-29.8-36.8c-1-1-1-2.6,0-3.6l14.5-14.5c1-1,2.6-1,3.6,0
		l36.6,29.7c14.2-10.4,30.9-17.6,49-20.4l4.9-47.7c0-1.4,1.2-2.7,2.6-2.7h20.4c1.4,0,2.6,1.3,2.6,2.7l4.9,47.7
		c17.6,2.8,33.9,9.8,47.8,19.8l37.3-30.3c1-1,2.6-1,3.6,0l14.5,14.5c1,1,1,2.6,0,3.6l-30.2,37.2C356,204,363,220.2,366,237.7
		c0.4-0.2,0.8-0.3,1.2-0.3l48.2,5c1.4,0,2.6,1.2,2.6,2.6V265.4z"/>
	<path d="M256.5,181.8c-41.1,0-74.5,33.4-74.5,74.5s33.4,74.5,74.5,74.5s74.5-33.4,74.5-74.5S297.6,181.8,256.5,181.8z M256.5,295.5
		c-21.7,0-39.3-17.6-39.3-39.3c0-21.7,17.6-39.3,39.3-39.3s39.3,17.6,39.3,39.3C295.8,277.9,278.2,295.5,256.5,295.5z"/>
</g>
</svg>
