<?xml version="1.0" encoding="utf-8"?>
<!-- Generator: Adobe Illustrator 19.2.1, SVG Export Plug-In . SVG Version: 6.00 Build 0)  -->
<svg version="1.1" id="Layer_1" xmlns="http://www.w3.org/2000/svg" xmlns:xlink="http://www.w3.org/1999/xlink" x="0px" y="0px"
	 width="512px" height="512px" viewBox="0 0 512 512" style="enable-background:new 0 0 512 512;" xml:space="preserve">
<g>
	<g>
		<path d="M301.6,509h-91.2l-7.3-64c-15.4-4.3-30.3-10.5-44.3-18.5L103,466.8l-57.8-57.6l40.4-55.8c-8-14.1-14.2-28.9-18.5-44.3
			l-64-7.3v-91.1l64-7.3c4.3-15.4,10.5-30.3,18.5-44.3l-40.5-55.8l57.8-57.6l55.9,40.3c14.1-8,28.9-14.2,44.3-18.5l7.3-64h91.2
			l7.3,64c15.4,4.3,30.3,10.5,44.3,18.5l55.9-40.4l57.8,57.6l-40.5,55.8c8,14,14.2,28.9,18.5,44.3l64,7.3v91.2l-64,7.4
			c-4.3,15.4-10.5,30.3-18.5,44.3l40.4,55.7L409,466.8l-55.8-40.3c-14.1,8-28.9,14.2-44.3,18.5L301.6,509z M230,487h52l6.8-59.7
			l7.5-1.8c18.2-4.3,35.6-11.5,51.7-21.5l6.3-3.9l52.5,37.9l31.2-31.2l-37.9-52.4l3.9-6.3c10-16.1,17.3-33.5,21.5-51.7l1.8-7.5
			l59.7-6.9v-52l-59.7-6.8l-1.8-7.5c-4.3-18.2-11.5-35.6-21.5-51.7l-3.9-6.3l38-52.5l-31.2-31.2l-52.6,38l-6.3-3.9
			c-16.1-10-33.5-17.3-51.7-21.5l-7.5-1.8L282,25.3h-52L223.3,85l-7.5,1.8c-18.2,4.3-35.6,11.5-51.7,21.5l-6.3,3.9l-52.6-37.9
			l-31.2,31.2l38,52.5l-3.9,6.3c-10,16.1-17.3,33.5-21.5,51.7l-1.8,7.5L25,230.2v51.9l59.7,6.8l1.8,7.5C90.8,314.6,98,332,108,348.1
			l3.9,6.3L74,406.8l31.2,31.2l52.5-37.9l6.3,3.9c16.1,10,33.5,17.3,51.7,21.5l7.5,1.8L230,487z M256,359.6
			c-26.5,0-53.1-10.1-73.3-30.2c-19.6-19.5-30.4-45.5-30.4-73.1c0-27.7,10.8-53.7,30.4-73.3c40.4-40.3,106.1-40.3,146.5,0
			c40.3,40.4,40.3,106.1,0,146.5l0,0C309.1,349.5,282.5,359.6,256,359.6z M256,174.7c-20.9,0-41.8,7.9-57.7,23.8
			c-15.4,15.4-23.9,35.9-23.9,57.8c0,21.8,8.5,42.2,23.9,57.6c31.8,31.7,83.6,31.7,115.5,0l0,0c31.8-31.8,31.8-83.5,0-115.4
			C297.8,182.6,276.9,174.7,256,174.7z"/>
	</g>
</g>
</svg>
