<?xml version="1.0" encoding="utf-8"?>
<!-- Generator: Adobe Illustrator 18.1.1, SVG Export Plug-In . SVG Version: 6.00 Build 0)  -->
<svg version="1.1" id="Layer_1" xmlns="http://www.w3.org/2000/svg" xmlns:xlink="http://www.w3.org/1999/xlink" x="0px" y="0px"
	 viewBox="0 0 512 512" enable-background="new 0 0 512 512" xml:space="preserve">
<g>
	<g>
		<path d="M323.7,154.1c23.6,25.6,22.4,60.7,20.7,78.6c2.8,5.2,4.7,11,5.4,17.3c1,8.8-0.2,18.3-3.4,26.8
			c-3.2,8.5-8.1,15.4-14.2,20.2c-4.4,13.9-11.3,25.6-17.5,34.2c17.3,5.8,38.5,15.5,55.9,25.9c2,1.2,3.8,2.4,5.7,3.5h130.1
			c0-42-90-80.2-114.1-83.9c-7.5-1.1-7.6-21-7.6-21s22-21,26.8-49.2c12.9,0,20.8-30,8-40.6c0.5-11.1,16.6-87.2-64.6-87.2
			c-50.2,0-63.2,29.2-65.7,54.1C302.9,137,314.5,144.2,323.7,154.1z M291.2,350.4c-7.5-1.1-7.6-21-7.6-21s22-21,26.8-49.2
			c12.9,0,20.8-30,8-40.6c0.5-11.1,16.6-87.2-64.6-87.2s-65.1,76.1-64.6,87.2c-12.9,10.6-4.9,40.6,8,40.6
			c4.8,28.2,26.8,49.2,26.8,49.2s-0.2,19.8-7.7,21c-24.1,3.7-114.1,42-114.1,83.9h303.1C405.3,392.4,315.3,354.1,291.2,350.4z
			 M136.5,350.1c16.8-10.2,37.3-19.6,54-25.2c-6-8.4-12.7-19.8-16.9-33.3c-5.9-4.7-10.7-11.4-13.7-19.7c-3.1-8.3-4.2-17.5-3.3-26.1
			c0.7-6.1,2.5-11.9,5.2-16.9c-1.7-17.4-2.8-51.7,20-76.6c8.9-9.7,20.1-16.6,33.5-20.8c-2.4-24.2-15-52.7-63.6-52.7
			c-78.5,0-63,74.2-62.5,85c-12.5,10.3-4.8,39.5,7.7,39.5c4.6,27.5,25.9,48,25.9,48s-0.2,19.3-7.4,20.5
			C92.2,275.3,5.2,312.6,5.2,353.5H131C132.8,352.4,134.7,351.2,136.5,350.1z"/>
	</g>
</g>
</svg>
