<?xml version="1.0" encoding="utf-8"?>
<!-- Generator: Adobe Illustrator 17.1.0, SVG Export Plug-In . SVG Version: 6.00 Build 0)  -->
<!DOCTYPE svg PUBLIC "-//W3C//DTD SVG 1.1//EN" "http://www.w3.org/Graphics/SVG/1.1/DTD/svg11.dtd">
<svg version="1.1" id="Layer_1" xmlns="http://www.w3.org/2000/svg" xmlns:xlink="http://www.w3.org/1999/xlink" x="0px" y="0px"
	 viewBox="0 0 512 512" enable-background="new 0 0 512 512" xml:space="preserve">
<path d="M511,95.7c0,11-9,20-20,20H21c-11,0-20-9-20-20v-35c0-11,9-20,20-20h470c11,0,20,9,20,20V95.7z"/>
<path d="M511,245.7c0,11-9,20-20,20H131c-11,0-20-9-20-20v-35c0-11,9-20,20-20h360c11,0,20,9,20,20V245.7z"/>
<path d="M71,231c0,19.1-15.5,34.6-34.7,34.6h-0.7C16.5,265.7,1,250.2,1,231v-5.7c0-19.1,15.5-34.6,34.7-34.6h0.7
	c19.1,0,34.7,15.5,34.7,34.6V231z"/>
<path d="M511,396.7c0,11-9,20-20,20H131c-11,0-20-9-20-20v-35c0-11,9-20,20-20h360c11,0,20,9,20,20V396.7z"/>
<path d="M71,382c0,19.1-15.5,34.6-34.7,34.6h-0.7C16.5,416.7,1,401.2,1,382v-5.7c0-19.1,15.5-34.7,34.7-34.7h0.7
	c19.1,0,34.7,15.5,34.7,34.7V382z"/>
</svg>
