<?xml version="1.0" encoding="utf-8"?>
<!-- Generator: Adobe Illustrator 20.1.0, SVG Export Plug-In . SVG Version: 6.00 Build 0)  -->
<svg version="1.1" id="Layer_1" xmlns="http://www.w3.org/2000/svg" xmlns:xlink="http://www.w3.org/1999/xlink" x="0px" y="0px"
	 width="512px" height="512px" viewBox="0 0 512 512" style="enable-background:new 0 0 512 512;" xml:space="preserve">
<g>
	<g>
		<path d="M268.2,430.2c-0.2-1-1.1-1.6-2.3-1.5c-1.3,0.2-2.2,0.3-3,0.5c-1.8,0.3-2.7,0.5-5.8,0.5c-3.1,0-4-0.2-5.9-0.5
			c-0.8-0.1-1.7-0.2-3-0.5c-1-0.1-1.9,0.5-2.3,1.4l-6.4,22.3c-0.1,0.3-0.1,0.6-0.1,0.9l5.5,29.7c0.2,1,1,1.7,1.9,1.7h19.7
			c1,0,1.8-0.7,1.9-1.7l5.4-30.3c0.1-0.3,0.1-0.6-0.1-0.9L268.2,430.2z"/>
		<path d="M305.9,399.9c-0.9-0.5-1.8-0.8-3-0.8h-3.2c-0.1,0-0.2,0-0.2,0l14.4,31.1l-30,54.6h111.9c3.3,0,6.1-2.7,6.1-6.1V457
			c0-1.5-0.6-3.1-1.8-4.2C373.4,426.9,340.9,408.6,305.9,399.9z"/>
		<path d="M215,399.2c-0.1,0-0.2,0-0.3,0h-2.3c-0.5,0-0.9,0.1-1.4,0.1c-35.9,8.5-69.2,27-96.4,53.4c-1.1,1.1-1.8,2.7-1.8,4.3v21.7
			c0,3.3,2.7,6.1,6.1,6.1h111.1L200.3,431L215,399.2z"/>
		<path d="M293.2,383.8V365c2.5-2.4,4.7-5.1,6.9-7.9c-5.5,2.3-11.2,4-17.3,5.1c-1.1,4.2-5,7.4-9.7,7.4h-16.4
			c-5.6,0-10.2-4.6-10.2-10.1c0-5.6,4.6-10.1,10.2-10.1h16.4c3.3,0,6.3,1.7,8.1,4.2c10.1-1.9,19.2-5.6,27.3-10.6
			c3.7-8,6.1-16.6,6.6-25.2c0.1,0,0.1,0,0.2,0c2.1,0,4.1-0.6,5.8-1.7c0.2,0,0.6,0.1,0.8,0.1h1.1h2.3c4.3,0,8-3.5,8-8v1
			c7.5-13.4,11.7-28.6,11.7-44c0-49.1-39.7-89-88.4-89s-88.4,39.9-88.4,89c0,15.3,4,30.4,11.6,43.8v-0.8c0,4.2,3.4,7.8,7.7,7.9
			c1.3-0.1,2.4-0.3,3.4-0.9c1.9,1.6,4.2,2.5,7,2.5c0.1,0,0.1,0,0.2,0c1.3,17.3,12.8,34.5,24.9,46.6v19.2c0,0.6,0.1,1.3,0.5,1.8
			c1.6,3.2,16.2,30.9,34.8,31.3h0.3c18.4,0,32.9-28.1,34.5-31.3C293.1,385,293.2,384.3,293.2,383.8z M190.8,259.8
			c-1.1-0.6-2.4-1-3.8-1c-2.1,0.1-9.6,0.3-10.5,0.8c3-37.5,42-78.8,80-78.8c38,0,77.1,41.3,80,78.9c-1-0.5-10-0.8-11.2-0.8h-3.1
			c-6.2-31.3-32.4-55-63.8-55C226.5,203.7,197.3,227.8,190.8,259.8z"/>
	</g>
	<g>
		<circle cx="257" cy="78.7" r="23.9"/>
		<path d="M257.3,131.2c29,0,52.5-23.5,52.5-52.5s-23.5-52.5-52.5-52.5c-29,0-52.5,23.5-52.5,52.5S228.3,131.2,257.3,131.2z
			 M257.3,42.4c20.1,0,36.3,16.3,36.3,36.3S277.3,115,257.3,115c-20.1,0-36.3-16.3-36.3-36.3S237.3,42.4,257.3,42.4z"/>
	</g>
	<g>
		<rect x="444.2" y="216.9" width="39" height="39"/>
		<path d="M416.5,190v93.2h91.8V190H416.5z M492.3,267.2h-59.9V206h59.9V267.2z"/>
	</g>
	<g>
		<polygon points="67.2,231 45.8,267.3 88.4,267.3 		"/>
		<path d="M67.2,179.4L1.3,291.5H133L67.2,179.4z M67.2,210.6l38.5,65.6H28.7L67.2,210.6z"/>
	</g>
	<g>
		<path d="M109.3,435.7C75,400.8,53,353.9,50.1,301.9h-12c2.8,54.1,25.1,104.7,63.6,143.4C104,442,106.5,438.8,109.3,435.7z"/>
		<path d="M464.8,292c-0.4,56.3-23.4,107.4-60.3,144.6c2.7,3.1,5.2,6.3,7.5,9.6c0.2-0.2,0.4-0.3,0.5-0.5
			c41.1-41.1,63.9-95.6,64.3-153.7H464.8z"/>
		<path d="M81.4,180.6c25.9-41.3,66-72.9,113.3-87.9c-0.9-3.9-1.5-8-1.6-12.2c-34,10.4-65.1,28.9-91,54.8
			c-10.4,10.4-19.5,21.6-27.5,33.5L81.4,180.6z"/>
		<path d="M319.3,92.5c47.4,14.9,87.5,46.3,113.5,87.5H447c-9.4-16.1-21-31.2-34.5-44.7c-26-26-57.3-44.7-91.6-55
			C320.8,84.5,320.2,88.5,319.3,92.5z"/>
	</g>
</g>
</svg>
