<?xml version="1.0" encoding="utf-8"?>
<!-- Generator: Adobe Illustrator 19.2.1, SVG Export Plug-In . SVG Version: 6.00 Build 0)  -->
<svg version="1.1" id="Layer_1" xmlns="http://www.w3.org/2000/svg" xmlns:xlink="http://www.w3.org/1999/xlink" x="0px" y="0px"
	 width="512px" height="512px" viewBox="0 0 512 512" style="enable-background:new 0 0 512 512;" xml:space="preserve">
<path d="M256,47.5C141,47.5,47.5,141,47.5,256c0,115,93.5,208.5,208.5,208.5c115,0,208.5-93.5,208.5-208.5
	C464.5,141,371,47.5,256,47.5z M256,421.7c-91.4,0-165.7-74.4-165.7-165.7S164.6,90.3,256,90.3c91.4,0,165.7,74.4,165.7,165.7
	S347.4,421.7,256,421.7z"/>
<g>
	<path d="M354.1,285.1c-4.3-2.6-9.3-3.4-14.2-2.3c-4.9,1.2-9,4.2-11.7,8.4c-14.9,24.3-42.4,39.4-71.7,39.4
		c-30.1,0-57.9-15.7-72.6-40.9c-2.5-4.3-6.6-7.4-11.4-8.7c-4.9-1.3-9.9-0.6-14.2,1.9c-8.9,5.2-12,16.7-6.8,25.7
		c21.4,36.7,61.6,59.5,105,59.5c42.3,0,82-21.9,103.7-57.3C365.6,302.1,362.9,290.5,354.1,285.1z"/>
	<path d="M191.1,242.9c20.6,0,37.4-16.8,37.4-37.4s-16.8-37.4-37.4-37.4c-20.6,0-37.4,16.8-37.4,37.4S170.5,242.9,191.1,242.9z"/>
	<path d="M317.3,242.9c20.6,0,37.4-16.8,37.4-37.4s-16.8-37.4-37.4-37.4c-20.6,0-37.4,16.8-37.4,37.4S296.6,242.9,317.3,242.9z"/>
</g>
</svg>
