<?xml version="1.0" encoding="UTF-8"?>
<svg width="60px" height="60px" viewBox="0 0 60 60" version="1.1" xmlns="http://www.w3.org/2000/svg" xmlns:xlink="http://www.w3.org/1999/xlink">
    <!-- Generator: Sketch 45 (43475) - http://www.bohemiancoding.com/sketch -->
    <title>suggestedsolution</title>
    <desc>Created with Sketch.</desc>
    <defs></defs>
    <g id="Page-1" stroke="none" stroke-width="1" fill="none" fill-rule="evenodd">
        <g id="suggestedsolution" fill="#183247">
            <path d="M21.6904192,48.7933672 C24.7121451,48.7933672 27.6355492,49.8008484 30.0146979,51.6381965 C32.3934055,49.8011896 35.3166993,48.7933672 38.338969,48.7933672 C38.338969,48.7933672 54.7183099,48.7933672 54.7183099,48.7933672 C55.9784493,48.7933672 57,49.8233593 57,51.0939202 C57,52.3644811 55.9784493,53.3944732 54.7183099,53.3944732 C54.7183099,53.3944732 38.338969,53.3944732 38.338969,53.3944732 C36.0084279,53.3944732 33.7661654,54.2933989 32.071923,55.9069455 C32.071923,55.9069455 31.5837363,56.3718796 31.5837363,56.3718796 C30.7072099,57.2066582 29.3378155,57.2097333 28.4576117,56.3789001 C28.4576117,56.3789001 27.9278603,55.8788672 27.9278603,55.8788672 C26.236759,54.2826209 24.0069279,53.3944732 21.6904192,53.3944732 C21.6904192,53.3944732 5.28169014,53.3944732 5.28169014,53.3944732 C4.0215469,53.3944732 3,52.3644811 3,51.0939202 C3,49.8233593 4.0215469,48.7933672 5.28169014,48.7933672 C5.28169014,48.7933672 21.6904192,48.7933672 21.6904192,48.7933672 Z M55.9085915,4.68560253 C56.4105634,5.21089547 56.6653521,5.89339285 56.6121127,6.57205599 C56.6121127,6.57205599 56.6121127,44.5251129 56.6121127,44.5251129 C56.5626761,45.0465716 56.3116901,45.5718645 55.9085915,45.8862734 C55.4560563,46.2543619 54.9008451,46.4115664 54.3494366,46.3042072 C54.3494366,46.3042072 38.9023944,46.3042072 38.9023944,46.3042072 C35.5026761,46.3042072 32.5351023,47.1784174 29.9996692,48.9268376 C27.4646772,47.1784174 24.7305621,46.3042072 21.7973239,46.3042072 C21.7973239,46.3042072 5.59352113,46.3042072 5.59352113,46.3042072 C5.0915493,46.3578868 4.48690141,46.2006823 4.08380282,45.8862734 C3.63126761,45.518185 3.38028169,45.0465716 3.38028169,44.5251129 C3.38028169,44.5251129 3.38028169,6.67941513 3.38028169,6.67941513 C3.38028169,5.99691774 3.63126761,5.36809992 4.13323944,4.84280699 C4.84056338,4.32134831 5.7456338,4.0069394 6.70014085,4.0069394 C6.70014085,4.0069394 21.1432394,4.0069394 21.1432394,4.0069394 C24.4630986,4.05678472 27.6308451,5.36809992 29.9961972,7.56896228 C32.5630986,5.36809992 35.8829577,4.05678472 39.4043662,4.0069394 C39.4043662,4.0069394 53.946338,4.0069394 53.946338,4.0069394 C54.7030986,3.95325983 55.4066197,4.21398917 55.9085915,4.68560253 Z M32.2816901,11.6491464 C32.2816901,11.6491464 32.2816901,42.7192785 32.2816901,42.7192785 C34.3481637,42.0413976 36.5617415,41.7031012 38.9023944,41.7031012 C38.9023944,41.7031012 52.0498732,41.7031012 52.0498732,41.7031012 C52.0498732,41.7031012 52.0619662,8.6079687 52.0619662,8.6079687 C52.0619662,8.6079687 39.4684437,8.60758527 39.4684437,8.60758527 C37.0683718,8.64155677 34.7575939,9.52631111 32.952412,11.0740848 C32.952412,11.0740848 32.2816901,11.6491464 32.2816901,11.6491464 Z M27.7183099,42.6697706 C27.7183099,42.6697706 27.7183099,11.7103794 27.7183099,11.7103794 C27.7183099,11.7103794 26.9013963,10.9502767 26.9013963,10.9502767 C25.3333124,9.49126602 23.2334425,8.63994638 21.1432394,8.60804538 C21.1432394,8.60804538 7.94366197,8.60804538 7.94366197,8.60804538 C7.94366197,8.60804538 7.94366197,41.7031012 7.94366197,41.7031012 C7.94366197,41.7031012 21.7973239,41.7031012 21.7973239,41.7031012 C23.8421214,41.7031012 25.8212328,42.0280582 27.7183099,42.6697706 Z"></path>
        </g>
    </g>
</svg>