<?xml version="1.0" encoding="UTF-8"?>
<svg width="512px" height="512px" viewBox="0 0 512 512" version="1.1" xmlns="http://www.w3.org/2000/svg" xmlns:xlink="http://www.w3.org/1999/xlink">
    <!-- Generator: Sketch 44.1 (41455) - http://www.bohemiancoding.com/sketch -->
    <title>solution article</title>
    <desc>Created with Sketch.</desc>
    <defs></defs>
    <g id="Page-1" stroke="none" stroke-width="1" fill="none" fill-rule="evenodd">
        <g id="solution-article" fill-rule="nonzero" fill="#000000">
            <path d="M256,501 C121.162764,501 11,390.837236 11,256 C11,121.162764 121.162764,11 256,11 C390.837236,11 501,121.162764 501,256 C501,390.837236 390.837236,501 256,501 Z M256,462.818182 C369.75,462.818182 462.818182,369.75 462.818182,256 C462.818182,142.25 369.75,49.1818182 256,49.1818182 C142.25,49.1818182 49.1818182,142.25 49.1818182,256 C49.1818182,369.75 142.25,462.818182 256,462.818182 Z M278.804486,125.333333 C286.342851,125.333333 305,130.203473 305,150.941234 C305,171.66679 284.966704,183.7628 270.072649,183.7628 C255.166415,183.7628 244.303375,174.70605 244.303375,158.94828 C244.303375,143.178305 257.309795,125.333333 278.804486,125.333333 Z M301.309976,337.430955 C303.453356,340.372568 303.112364,344.595797 300.396604,347.024763 C278.305176,366.761644 252.41412,380.957063 237.373925,384.765292 C221.26204,388.84205 208.340869,387.548229 207.074326,368.970905 C205.795605,350.381376 227.424258,270.860177 228.812584,262.438132 C229.9817,255.358731 214.466552,262.706661 201.61845,269.541944 C197.891891,271.519294 193.203248,269.859297 191.388682,266.038862 C189.878573,262.853131 190.791945,259.02049 193.61731,256.908876 C215.818342,240.211255 243.511786,224.416868 266.99154,218.155261 C280.485091,214.554531 288.254844,218.960848 288.717619,235.487586 C289.180394,252.014325 266.906292,327.580823 265.176974,337.760513 C262.643888,352.712695 279.535184,343.387416 291.774371,335.636693 C294.940728,333.634931 299.105705,334.403901 301.309976,337.430955 Z" id="Combined-Shape"></path>
        </g>
    </g>
</svg>