<?xml version="1.0" encoding="UTF-8"?>
<svg width="18px" height="17px" viewBox="0 0 18 17" version="1.1" xmlns="http://www.w3.org/2000/svg" xmlns:xlink="http://www.w3.org/1999/xlink">
    <!-- Generator: Sketch 44.1 (41455) - http://www.bohemiancoding.com/sketch -->
    <title>Group 8</title>
    <desc>Created with Sketch.</desc>
    <defs></defs>
    <g id="Page-1" stroke="none" stroke-width="1" fill="none" fill-rule="evenodd">
        <g id="1-copy" transform="translate(-1057.000000, -604.000000)" fill-rule="nonzero" fill="#000000">
            <g id="Group-8" transform="translate(1057.000000, 604.000000)">
                <path d="M10,16.2000122 L11.1,16.2000122 C11.3209139,16.2000122 11.5,16.3790983 11.5,16.6000122 C11.5,16.8209261 11.3209139,17.0000122 11.1,17.0000122 L6.90000001,17.0000122 C6.6790861,17.0000122 6.5,16.8209261 6.5,16.6000122 C6.5,16.3790983 6.6790861,16.2000122 6.90000001,16.2000122 L8,16.2000122 L8,11 L2.70710678,11 C2.57449854,11 2.44732158,10.9473216 2.35355339,10.8535534 L0.853553391,9.35355339 C0.658291245,9.15829124 0.658291245,8.84170876 0.853553391,8.64644661 L2.35355339,7.14644661 C2.44732158,7.05267842 2.57449854,7 2.70710678,7 L8,7 L8,6.5 L4.5,6.5 C4.22385763,6.5 4,6.27614237 4,6 L4,3 C4,2.72385763 4.22385763,2.5 4.5,2.5 L8,2.5 L8,1 C8,0.44771525 8.44771525,1.01453063e-16 9,0 C9.55228475,-1.01453063e-16 10,0.44771525 10,1 L10,2.5 L15.2928932,2.5 C15.4255015,2.5 15.5526784,2.55267842 15.6464466,2.64644661 L17.1464466,4.14644661 C17.3417088,4.34170876 17.3417088,4.65829124 17.1464466,4.85355339 L15.6464466,6.35355339 C15.5526784,6.44732158 15.4255015,6.5 15.2928932,6.5 L10,6.5 L10,7 L13.5,7 C13.7761424,7 14,7.22385763 14,7.5 L14,10.5 C14,10.7761424 13.7761424,11 13.5,11 L10,11 L10,16.2000122 Z M8.6,16.2000122 L9.4,16.2000122 L9.4,11 L8.6,11 L8.6,16.2000122 Z M8.6,7 L9.4,7 L9.4,6.5 L8.6,6.5 L8.6,7 Z M8.6,2.5 L9.4,2.5 L9.4,1 C9.4,0.7790861 9.2209139,0.6 9,0.6 C8.7790861,0.6 8.6,0.7790861 8.6,1 L8.6,2.5 Z M4.6,3.1 L4.6,5.9 L15.2514719,5.9 L16.6514719,4.5 L15.2514719,3.1 L4.6,3.1 Z M13.4,7.6 L2.74852814,7.6 L1.34852814,9 L2.74852814,10.4 L13.4,10.4 L13.4,7.6 Z" id="Combined-Shape"></path>
            </g>
        </g>
    </g>
</svg>