<?xml version="1.0" encoding="utf-8"?>
<!-- Generator: Adobe Illustrator 17.0.0, SVG Export Plug-In . SVG Version: 6.00 Build 0)  -->
<!DOCTYPE svg PUBLIC "-//W3C//DTD SVG 1.1//EN" "http://www.w3.org/Graphics/SVG/1.1/DTD/svg11.dtd">
<svg version="1.1" id="Layer_1" xmlns="http://www.w3.org/2000/svg" xmlns:xlink="http://www.w3.org/1999/xlink" x="0px" y="0px"
	 width="512px" height="512px" viewBox="0 0 512 512" enable-background="new 0 0 512 512" xml:space="preserve">
<path d="M2.249,254.75c0,36.358,29.474,65.831,65.831,65.831c24.565,0,45.972-13.464,57.284-33.406
	c18.212,0,42.984-0.041,54.913,0.051c21.053,0.162,41.688,17.981,44.841,38.841c0.833,5.512,0.881,11.148,1.193,16.733
	c1.448,25.957,11.389,48.251,29.061,67.16c17.357,18.572,38.287,30.736,63.609,34.651c5.814,0.899,11.744,1.386,17.627,1.442
	c16.807,0.159,33.615,0.126,50.423,0.042c11.35,19.803,32.678,33.154,57.139,33.154c36.358,0,65.831-29.473,65.831-65.831
	s-29.474-65.831-65.831-65.831c-25.244,0-47.158,14.216-58.203,35.072c-16.118-0.054-32.236,0.028-48.354-0.063
	c-22.144-0.125-41.531-15.495-46.113-36.883c-1.182-5.514-1.115-11.319-1.381-17.002c-1.335-28.534-12.075-52.841-32.503-72.842
	c-0.216-0.211-0.388-0.467-0.687-0.831c2.797-3.054,5.699-6.029,8.386-9.186c17.244-20.263,24.782-43.973,25.103-70.325
	c0.251-20.618,13.501-38.768,32.842-44.964c4.105-1.315,8.546-2.143,12.845-2.196c16.87-0.207,33.743-0.122,50.616-0.146
	c11.269,20.099,32.766,33.691,57.448,33.691c36.358,0,65.831-29.473,65.831-65.831S480.527,30.25,444.169,30.25
	c-24.697,0-46.205,13.608-57.469,33.729c-15.841-0.081-31.684-0.153-47.523,0.063c-7.401,0.101-14.889,0.509-22.166,1.771
	c-28.803,4.994-51.179,20.544-68.879,43.278c-15.546,19.965-21.976,42.909-22.304,67.998c-0.337,25.752-21.606,46.429-47.356,46.577
	c-11.187,0.065-34.76,0.013-52.34,0.029c-11.095-20.696-32.926-34.776-58.051-34.776C31.724,188.919,2.249,218.392,2.249,254.75z
	 M405.395,96.081c0-21.414,17.36-38.774,38.774-38.774c21.414,0,38.774,17.36,38.774,38.774s-17.36,38.774-38.774,38.774
	S405.395,117.495,405.395,96.081z M405.395,413.419c0-21.414,17.36-38.774,38.774-38.774s38.774,17.36,38.774,38.774
	s-17.36,38.774-38.774,38.774S405.395,434.833,405.395,413.419z M29.307,254.75c0-21.414,17.36-38.774,38.774-38.774
	s38.774,17.36,38.774,38.774s-17.36,38.774-38.774,38.774S29.307,276.164,29.307,254.75z"/>
</svg>
