<?xml version="1.0" encoding="utf-8"?>
<!-- Generator: Adobe Illustrator 19.2.1, SVG Export Plug-In . SVG Version: 6.00 Build 0)  -->
<svg version="1.1" id="Layer_1" xmlns="http://www.w3.org/2000/svg" xmlns:xlink="http://www.w3.org/1999/xlink" x="0px" y="0px"
	 width="512px" height="512px" viewBox="0 0 512 512" style="enable-background:new 0 0 512 512;" xml:space="preserve">
<g>
	<path d="M255.9,455c-38.8,0-77.7-0.8-116.5,0.2c-44.6,1.1-83.6-37.9-83.1-83.3c0.8-77.5,0.2-155,0.2-232.5
		c0-47.4,35.9-83.5,83.2-83.5c77.5-0.1,155-0.1,232.5,0c47.4,0,83.4,36,83.4,83.4c0.1,77.5,0.1,155,0,232.5
		c0,42.4-28.1,75.4-69.8,82.6c-4.5,0.8-9,0.6-13.5,0.6C333.5,455,294.7,455,255.9,455z M255.9,417.5c39.2,0,78.4-0.5,117.6,0.2
		c24.9,0.4,44.8-22.2,44.7-44.6c-0.5-78.2-0.2-156.5-0.2-234.7c0-3.5,0-7.1-1-10.6c-6.1-21.9-22.5-34.2-46.3-34.2
		c-76.4-0.1-152.7,0.4-229.1-0.2c-26.7-0.2-48.2,20.3-48,48.1c0.7,76.2,0.2,152.3,0.3,228.5c0,4.7-0.2,9.4,1.1,14
		c5.7,20.8,22.1,33.6,43.7,33.6C177.9,417.6,216.9,417.5,255.9,417.5z"/>
</g>
</svg>
