<svg id="Layer_1" data-name="Layer 1" xmlns="http://www.w3.org/2000/svg" viewBox="0 0 512 512"><title>Redactor</title><path d="M364.12,158.81c-22.05,4.62-31.48-.36-38.2-18.15-17.77-47.07-54-66.39-96.94-54.74-21.66,5.88-36.81,19.06-41.08,41.66-4.05,21.44,5.45,39.08,22.78,49.82s37,17.79,55.9,25.74c21.38,9,43.13,17.07,64.64,25.73,2.59,1,4.72,3.22,11.38,7.92-64.29,0-123.41.21-182.53-.44-4.25,0-9.56-5.59-12.49-9.87-41-59.91-12.94-140.3,57.51-163.11,47.37-15.34,94.46-9.14,140.66,6.47,3.93,1.33,8.78,6.4,9.31,10.27C358.65,106,361.18,132.16,364.12,158.81Z"/><rect x="31.44" y="253.92" width="449.42" height="32.41" rx="15.77" ry="15.77"/><path d="M136.76,344.35c23.1-9.13,29.15,3.76,35.5,19.76,20.87,52.64,75,75.27,127.19,54.08,24-9.75,40.46-26.73,42.21-53.08,1.7-25.67-14.66-41.46-35.81-52.9-3.21-1.73-6.38-3.52-13.27-7.33H390c15.32,82.7-35.22,133.28-112.52,145.52-43.75,6.93-86.32-1.48-127.4-16.67-5.61-2.08-12.36-10.21-12.69-15.87C136,393.47,136.76,369,136.76,344.35Z"/></svg>