<?xml version="1.0" encoding="utf-8"?>
<!-- Generated by IcoMoon.io -->
<!DOCTYPE svg PUBLIC "-//W3C//DTD SVG 1.1//EN" "http://www.w3.org/Graphics/SVG/1.1/DTD/svg11.dtd">
<svg version="1.1" xmlns="http://www.w3.org/2000/svg" xmlns:xlink="http://www.w3.org/1999/xlink" width="1024" height="1024" viewBox="0 0 1024 1024"><g id="icomoon-ignore">
</g>
<path d="M829.8 817.2h-156.2v-27.8h156.2v27.8zM829.8 765.6h-156.2v-27.8h156.2v27.8zM829.8 714.2h-156.2v-27.8h156.2v27.8zM791 556.4v79.8h79.8v229h-237.4v-308.8h157.6zM814.2 519.2h-218v383.2h311.8v-289.4l-93.8-93.8z"></path>
<path d="M439 620.8c-0.6-2-2.4-3.2-4.2-2.8-2.4 0.4-4.2 0.6-5.6 0.8-3.8 0.6-5.4 0.8-11.2 0.8-6 0-7.6-0.4-11.4-0.8-1.6-0.2-3.2-0.6-5.6-0.8-2-0.2-3.8 1-4.2 2.8l-12.4 44c-0.2 0.6-0.2 1.2-0.2 1.8l10.6 58.8c0.4 2 2 3.2 3.8 3.2h38c1.8 0 3.6-1.4 3.8-3.2l10.4-59.8c0.2-0.6 0.2-1.2-0.2-1.8l-11.6-43z"></path>
<path d="M336.4 559.4c-0.2 0-0.6 0-0.6 0h-4.6c-0.8 0-1.8 0.2-2.8 0.2-69.2 16.8-133.6 53.2-186.2 105.6-2.4 2.4-3.6 5.4-3.6 8.6v42.8c0 6.6 5.2 12 11.8 12h214.2l-56.8-106.6 28.6-62.6z"></path>
<path d="M485.4 529v-37c4.8-4.8 9.2-10 13.2-15.6-10.6 4.4-21.8 7.8-33.4 10.2-2.2 8.6-9.6 14.8-18.8 14.8h-31.6c-10.8 0-19.6-9-19.6-20s8.6-20 19.6-20h31.6c6.4 0 12.2 3.2 15.6 8.4 19.4-3.8 37.2-11.2 52.6-21 7.2-15.6 11.6-32.6 12.8-49.6h0.4c4 0 7.8-1.4 11.2-3.4 0.6 0 1 0.2 1.6 0.2h6.4c8.6 0 15.4-7 15.4-15.6v2c14.6-26.6 22.4-56.4 22.4-87 0.2-97.6-76.2-176.6-170.2-176.6s-170.4 79-170.4 175.8c0 30.4 7.6 60.4 22.2 86.6v-1.6c0 8.6 6.6 15.4 14.8 15.6 2.4-0.2 4.6-0.6 6.6-1.8 3.8 3.2 8.4 5 13.4 5h0.4c2.4 34.2 24.8 68.4 48 92v38.2c0 1.2 0.2 2.4 0.8 3.8 3 6.4 31.4 61.2 67 62h0.6c35.6 0 63.4-55.6 66.6-62 0.6-1 0.8-2.2 0.8-3.4zM288.2 283.8c-2.2-1.2-4.6-2-7.4-2-4 0.2-18.6 0.6-20.4 1.6 5.6-74.4 80.8-155.8 154.2-155.8s148.4 81.6 154.2 156c-2-1-19-1.6-21.6-1.6h-6.4c-12-62-62.4-108.8-123.2-108.8-61-0.4-117.2 47.4-129.4 110.6z"></path>
<path d="M546.4 571.8c-11.4-4.2-23-8-34.8-11-1.6-1-3.8-1.6-5.6-1.6h-6c-0.2 0-0.4 0-0.6 0l27.8 61.6-57.6 108h77v-157z"></path>
</svg>
