<?xml version="1.0" encoding="utf-8"?>
<!-- Generated by IcoMoon.io -->
<!DOCTYPE svg PUBLIC "-//W3C//DTD SVG 1.1//EN" "http://www.w3.org/Graphics/SVG/1.1/DTD/svg11.dtd">
<svg version="1.1" xmlns="http://www.w3.org/2000/svg" xmlns:xlink="http://www.w3.org/1999/xlink" width="1024" height="1024" viewBox="0 0 1024 1024"><g id="icomoon-ignore">
</g>
<path d="M910.6 904.8h-169.2v-30.2h169.2v30.2zM910.6 848.8h-169.2v-30.2h169.2v30.2zM910.6 793.2h-169.2v-30.2h169.2v30.2zM868.8 622.4v86.4h86.4v247.8h-257.2v-334.2h170.8zM894 582h-236.2v414.8h337.8v-313.2l-101.6-101.6z"></path>
<path d="M135.4 461.6c51.2 0 92.8-42 92.8-93.8s-41.6-93.8-92.8-93.8-92.8 42-92.8 93.8 41.4 93.8 92.8 93.8v0z"></path>
<path d="M375.6 126c0-52-41.6-93.8-92.8-93.8s-92.8 42.2-92.8 93.8 41.6 93.8 92.8 93.8c51 0 92.8-42.2 92.8-93.8v0z"></path>
<path d="M595 367.8c0 52 41.6 93.8 92.8 93.8s92.8-42 92.8-93.8-41.6-93.8-92.8-93.8-92.8 42-92.8 93.8z"></path>
<path d="M190.6 497.4h-110.6c-30.4 0-55.2 24.8-55.2 56v149c0 30.8 24.8 56 55.2 56v74.4c0 30.8 24.8 56 55.2 56s55.2-24.8 55.2-56v-74.4c30.4 0 55.2-24.8 55.2-56v-149c0.2-31-24.6-56-55-56z"></path>
<path d="M633.4 126c0-52-41.6-93.8-92.8-93.8s-92.8 42.2-92.8 93.8 41.6 93.8 92.8 93.8c51 0 92.8-42.2 92.8-93.8v0z"></path>
<path d="M318.8 367.8c0 52 41.6 93.8 92.8 93.8s92.8-42 92.8-93.8-41.6-93.8-92.8-93.8c-51.6 0-92.8 42-92.8 93.8v0z"></path>
<path d="M604.6 540.4h191.4c-5.4-24.8-27.2-43-53.2-43h-110.6c-30.4 0-55.2 24.8-55.2 56v149c0 20.4 11.2 38.2 27.4 48l0.2-210z"></path>
<path d="M466.6 497.4h-110.6c-30.4 0-55.2 24.8-55.2 56v149c0 30.8 24.8 56 55.2 56v74.4c0 30.8 24.8 56 55.2 56s55.2-24.8 55.2-56v-74.4c30.4 0 55.2-24.8 55.2-56v-149c0.4-31-24.2-56-55-56z"></path>
</svg>
