<?xml version="1.0" encoding="utf-8"?>
<!-- Generated by IcoMoon.io -->
<!DOCTYPE svg PUBLIC "-//W3C//DTD SVG 1.1//EN" "http://www.w3.org/Graphics/SVG/1.1/DTD/svg11.dtd">
<svg version="1.1" xmlns="http://www.w3.org/2000/svg" xmlns:xlink="http://www.w3.org/1999/xlink" width="1024" height="1024" viewBox="0 0 1024 1024"><g id="icomoon-ignore">
</g>
<path d="M844.6 823.4h-135.6v-24.2h135.6v24.2zM844.6 778.6h-135.6v-24.2h135.6v24.2zM844.6 734h-135.6v-24.2h135.6v24.2zM811 597.2v69.2h69.2v198.6h-206v-267.8h136.8zM831.2 564.8h-189.2v332.4h270.6v-251l-81.4-81.4z"></path>
<path d="M223.4 468.4c41 0 74.4-33.6 74.4-75.2s-33.4-75.2-74.4-75.2-74.4 33.6-74.4 75.2c0 41.6 33.2 75.2 74.4 75.2z"></path>
<path d="M415.8 199.4c0-41.6-33.4-75.2-74.4-75.2s-74.4 33.8-74.4 75.2c0 41.4 33.4 75.2 74.4 75.2s74.4-33.8 74.4-75.2z"></path>
<path d="M591.6 393.2c0 41.6 33.4 75.2 74.4 75.2s74.4-33.6 74.4-75.2c0-41.6-33.4-75.2-74.4-75.2s-74.4 33.6-74.4 75.2z"></path>
<path d="M267.6 497h-88.6c-24.4 0-44.2 19.8-44.2 44.8v119.4c0 24.6 19.8 44.8 44.2 44.8v59.6c0 24.6 19.8 44.8 44.2 44.8s44.2-19.8 44.2-44.8v-59.6c24.4 0 44.2-19.8 44.2-44.8v-119.4c0.2-24.8-19.6-44.8-44-44.8z"></path>
<path d="M622.4 199.4c0-41.6-33.4-75.2-74.4-75.2s-74.4 33.8-74.4 75.2c0 41.4 33.4 75.2 74.4 75.2s74.4-33.8 74.4-75.2z"></path>
<path d="M370.4 393.2c0 41.6 33.4 75.2 74.4 75.2s74.4-33.6 74.4-75.2c0-41.6-33.4-75.2-74.4-75.2-41.4 0-74.4 33.6-74.4 75.2z"></path>
<path d="M599.4 531.4h153.4c-4.4-19.8-21.8-34.4-42.6-34.4h-88.6c-24.4 0-44.2 19.8-44.2 44.8v119.4c0 16.4 9 30.6 22 38.4v-168.2z"></path>
<path d="M488.8 497h-88.6c-24.4 0-44.2 19.8-44.2 44.8v119.4c0 24.6 19.8 44.8 44.2 44.8v59.6c0 24.6 19.8 44.8 44.2 44.8s44.2-19.8 44.2-44.8v-59.6c24.4 0 44.2-19.8 44.2-44.8v-119.4c0.4-24.8-19.4-44.8-44-44.8z"></path>
</svg>
