<?xml version="1.0" encoding="utf-8"?>
<!-- Generated by IcoMoon.io -->
<!DOCTYPE svg PUBLIC "-//W3C//DTD SVG 1.1//EN" "http://www.w3.org/Graphics/SVG/1.1/DTD/svg11.dtd">
<svg version="1.1" xmlns="http://www.w3.org/2000/svg" xmlns:xlink="http://www.w3.org/1999/xlink" width="1024" height="1024" viewBox="0 0 1024 1024"><g id="icomoon-ignore">
</g>
<path d="M895.2 895.8h-194.8v-34.6h194.8v34.6zM895.2 831.4h-194.8v-34.6h194.8v34.6zM895.2 767.4h-194.8v-34.6h194.8v34.6zM846.8 570.6v99.4h99.6v285.6h-296v-385h196.4zM875.6 524.2h-271.8v477.8h388.8v-360.8l-117-117z"></path>
<path d="M407.8 650.8c-0.8-2.4-3-4-5.2-3.4-3 0.4-5.2 0.8-7 1-4.8 0.8-6.8 1-14 1-7.4 0-9.4-0.4-14.2-1-2-0.2-4-0.8-7-1-2.4-0.2-4.8 1.2-5.2 3.4l-15.4 54.8c-0.2 0.8-0.2 1.4-0.2 2.2l13.2 73.4c0.4 2.4 2.4 4 4.8 4h47.4c2.2 0 4.4-1.8 4.8-4l13-74.6c0.2-0.8 0.2-1.4-0.2-2.2l-14.8-53.6z"></path>
<path d="M279.8 574.2c-0.2 0-0.8 0-0.8 0h-5.8c-1 0-2.2 0.2-3.4 0.2-86.2 21-166.6 66.4-232.2 131.6-3 3-4.4 6.8-4.4 10.8v53.4c0 8.2 6.4 15 14.8 15h267.2l-70.8-133 35.4-78z"></path>
<path d="M465.6 536.4v-46.2c6-6 11.4-12.4 16.4-19.4-13.2 5.4-27.2 9.8-41.6 12.8-2.8 10.8-12 18.4-23.4 18.4h-39.4c-13.4 0-24.4-11.2-24.4-25s10.8-25 24.4-25h39.4c8 0 15.2 4 19.4 10.4 24.2-4.8 46.4-14 65.6-26.2 9-19.4 14.4-40.6 16-61.8h0.4c5 0 9.8-1.8 14-4.2 0.8 0 1.2 0.2 2 0.2h8c10.8 0 19.2-8.8 19.2-19.4v2.4c18.2-33.2 28-70.4 28-108.4 0.2-121.8-95-220.2-212.2-220.2s-212.6 98.6-212.6 219.2c0 38 9.4 75.4 27.6 108v-2c0 10.8 8.2 19.2 18.4 19.4 3-0.2 5.8-0.8 8.2-2.2 4.8 4 10.4 6.2 16.8 6.2h0.4c3 42.6 31 85.2 59.8 114.8v47.6c0 1.4 0.2 3 1 4.8 3.8 8 39.2 76.4 83.6 77.4h0.8c44.4 0 79-69.4 83-77.4 1-1.2 1.2-2.8 1.2-4.2v0zM219.8 230.6c-2.8-1.4-5.8-2.4-9.2-2.4-5 0.2-23.2 0.8-25.4 2 7-92.8 100.8-194.2 192.2-194.2s185 101.8 192.2 194.6c-2.4-1.2-23.6-2-27-2h-8c-15-77.4-77.8-135.6-153.6-135.6-76-0.8-146 58.8-161.2 137.6v0z"></path>
<path d="M541.8 589.8c-14.2-5.2-28.6-10-43.4-13.8-2-1.2-4.8-2-7-2h-7.4c-0.2 0-0.4 0-0.8 0l34.6 76.8-71.8 134.8h96v-195.8h-0.2z"></path>
</svg>
