<?xml version="1.0" encoding="utf-8"?>
<!-- Generator: Adobe Illustrator 18.0.0, SVG Export Plug-In . SVG Version: 6.00 Build 0)  -->
<!DOCTYPE svg PUBLIC "-//W3C//DTD SVG 1.1//EN" "http://www.w3.org/Graphics/SVG/1.1/DTD/svg11.dtd">
<svg version="1.1" id="Layer_1" xmlns="http://www.w3.org/2000/svg" xmlns:xlink="http://www.w3.org/1999/xlink" x="0px" y="0px"
	 viewBox="0 0 500 500" enable-background="new 0 0 500 500" xml:space="preserve">
<circle display="none" fill="#BBD4F2" cx="251.5" cy="249.5" r="242.5"/>
<g>
	<path fill="#231F20" d="M117.1,83.9l12.7-21.4c0.3-0.4,0.6-0.6,0.8-0.6c0.3,0.1,0.5,0.3,0.6,0.8l5.2,24.3l24,3.9
		c1.1,0.2,1.2,0.8,0.3,1.4l-21.9,12.2l7.2,24c0.2,0.7-0.1,1-0.5,1c-0.2,0-0.4-0.2-0.7-0.3l-22.4-17.4l-25.3,9.6
		c-0.3,0.1-0.5,0.1-0.7,0.1c-0.5-0.1-0.6-0.5-0.3-1.1l13-20.7L90.9,81.1c-0.6-0.8-0.3-1.4,0.8-1.2L117.1,83.9z"/>
	<path fill="#231F20" d="M231.2,35.5l8.5-14.4c0.2-0.3,0.4-0.4,0.6-0.4s0.3,0.2,0.4,0.5l3.5,16.4l16.1,2.6c0.7,0.2,0.9,0.5,0.3,1
		l-14.8,8.1l4.8,16.2c0.1,0.5-0.1,0.7-0.3,0.7c-0.1,0-0.3-0.1-0.4-0.2l-15-11.7l-17.1,6.5c-0.3,0-0.3,0.1-0.4,0
		c-0.3,0-0.3-0.3-0.2-0.8l8.7-14l-12.3-12.6c-0.4-0.5-0.2-1,0.5-0.8L231.2,35.5z"/>
	<path fill="#231F20" d="M22,348.8l23.7,23.7c6.6,6.6,18.2,5.5,25.9-2.2l243.7-243.6c7.9-7.9,8.8-19.5,2.2-25.9l-23.7-23.7
		c-3.3-3.3-7.9-4.6-12.6-4.2c-4.7,0.3-9.6,2.5-13.5,6.4L24.2,322.9C16.5,330.6,15.6,342.4,22,348.8z M185.9,193l96-96l15.9,15.9
		l-96.2,96L185.9,193z"/>
</g>
<g>
	<path fill="#231F20" d="M274.2,268.5c0,5.1,4,9.3,8.7,9.3c0.1,0,0.1,0,0.2,0c1.8,24.4,21,48.9,44.6,48.9
		c23.5,0,42.7-24.4,44.6-48.9c0.1,0,0.1,0,0.2,0c4.8,0,8.7-4.1,8.7-9.3c0-3.8-2.1-7-5.1-8.5c1.7-5.5,2.7-11.4,2.7-17.5
		c0-29.9-22.8-54.1-51-54.1c-28.1,0-51,24.2-51,54.1c0,6.1,1,12,2.7,17.5C276.4,261.6,274.2,264.7,274.2,268.5z"/>
	<path fill="#231F20" d="M439.4,383.1c-20.8-20.2-46.3-34.5-73.6-41.3c-0.7-0.4-1.4-0.6-2.3-0.6h-2.4c-0.8,0-1.5,0.2-2.3,0.5
		c-8.2,4.4-19.6,6.9-31,6.9c-11.5,0-22.8-2.5-31-6.9c-0.7-0.4-1.4-0.5-2.3-0.5h-1.8c-0.4,0-0.7,0.1-1.1,0.2
		c-28,6.7-54.1,21.1-75.5,41.8c-0.9,0.9-1.4,2.2-1.4,3.4v17c0,2.6,2.2,4.8,4.8,4.8h216.7c2.6,0,4.8-2.2,4.8-4.8v-17
		C440.8,385.3,440.3,384,439.4,383.1z"/>
</g>
</svg>
