<?xml version="1.0" encoding="utf-8"?>
<!-- Generator: Adobe Illustrator 21.0.0, SVG Export Plug-In . SVG Version: 6.00 Build 0)  -->
<svg version="1.1" id="Layer_1" xmlns="http://www.w3.org/2000/svg" xmlns:xlink="http://www.w3.org/1999/xlink" x="0px" y="0px"
	 width="512px" height="512px" viewBox="0 0 512 512" style="enable-background:new 0 0 512 512;" xml:space="preserve">
<path d="M415.8,133.5L266.9,267c-7.7,6.9-20.1,6.9-27.8,0L90.3,133.5c-3.9-3.5-9.8-3.2-13.3,0.7c-3.5,3.8-3.2,9.8,0.7,13.2
	L226.6,281c7.4,6.6,16.9,10,26.5,10c9.5,0,19-3.3,26.5-10l148.9-133.7c3.9-3.5,4.2-9.4,0.7-13.2C425.6,130.3,419.6,130,415.8,133.5z
	 M328.3,280.6c-4-3.3-9.9-2.7-13.2,1.2c-3.3,4-2.8,9.9,1.2,13.2l99.7,82.8c1.8,1.4,3.9,2.2,6,2.2c2.7,0,5.4-1.2,7.2-3.4
	c3.3-4,2.8-9.9-1.2-13.2L328.3,280.6z M177.7,280.6L78,363.4c-4,3.3-4.5,9.2-1.2,13.2c1.9,2.2,4.5,3.4,7.2,3.4c2.1,0,4.2-0.7,6-2.2
	l99.7-82.8c4-3.3,4.5-9.2,1.2-13.2C187.6,277.8,181.7,277.3,177.7,280.6z M426.9,86.8H83.1c-29.9,0-53.4,23-53.4,52.3v232.9
	c0,29.3,23.4,52.3,53.4,52.3h343.8c29.5,0,53.5-23.5,53.5-52.3V139.1C480.4,110.3,456.4,86.8,426.9,86.8z M461.6,371.9
	c0,18.8-15.3,33.5-34.7,33.5H83.1c-19.4,0-34.6-14.7-34.6-33.5V139.1c0-18.8,15.2-33.6,34.6-33.6h343.8c19.5,0,34.7,14.8,34.7,33.6
	V371.9z"/>
</svg>
