<?xml version="1.0" encoding="utf-8"?>
<!-- Generator: Adobe Illustrator 18.1.1, SVG Export Plug-In . SVG Version: 6.00 Build 0)  -->
<svg version="1.1" id="Layer_1" xmlns="http://www.w3.org/2000/svg" xmlns:xlink="http://www.w3.org/1999/xlink" x="0px" y="0px"
	 viewBox="0 0 512 512" enable-background="new 0 0 512 512" xml:space="preserve">
<g id="Your_Icon">
	<path d="M255.5,4C116.6,4,4,116.6,4,255.5C4,394.4,116.6,507,255.5,507C394.4,507,507,394.4,507,255.5C507,116.6,394.4,4,255.5,4z
		 M255.5,452.3c-108.7,0-196.8-88.1-196.8-196.8c0-108.7,88.1-196.8,196.8-196.8c108.7,0,196.8,88.1,196.8,196.8
		C452.3,364.2,364.2,452.3,255.5,452.3z"/>
	<circle cx="181.7" cy="194.6" r="36.5"/>
	<circle cx="329.3" cy="194.6" r="36.5"/>
	<path d="M349.4,311.4H161.6c-13.6,0-24.6,11-24.6,24.6s11,24.6,24.6,24.6h187.7c13.6,0,24.6-11,24.6-24.6S363,311.4,349.4,311.4z"
		/>
</g>
</svg>
