<?xml version="1.0" encoding="utf-8"?>
<!-- Generator: Adobe Illustrator 18.0.0, SVG Export Plug-In . SVG Version: 6.00 Build 0)  -->
<!DOCTYPE svg PUBLIC "-//W3C//DTD SVG 1.1//EN" "http://www.w3.org/Graphics/SVG/1.1/DTD/svg11.dtd">
<svg version="1.1" id="Layer_1" xmlns="http://www.w3.org/2000/svg" xmlns:xlink="http://www.w3.org/1999/xlink" x="0px" y="0px"
	 viewBox="0 0 500 500" enable-background="new 0 0 500 500" xml:space="preserve">
<path fill="#010101" d="M250,19.6C122.2,19.6,18.6,123.2,18.6,251S122.2,482.4,250,482.4c127.8,0,231.4-103.6,231.4-231.4
	S377.8,19.6,250,19.6z M335.4,173.9c18.3,0,33.1,14.9,33.1,33.1s-14.9,33.1-33.1,33.1s-33.1-14.9-33.1-33.1S317.1,173.9,335.4,173.9
	z M164.6,173.9c18.3,0,33.1,14.9,33.1,33.1s-14.8,33.1-33.1,33.1c-18.3,0-33.1-14.9-33.1-33.1S146.3,173.9,164.6,173.9z
	 M374.9,331.5c-28.3,41.2-75,65.7-124.9,65.7c-49.8,0-96.6-24.6-124.9-65.7c-6.4-9.2-4-21.8,5.2-28.2c9.2-6.4,21.8-4,28.2,5.2
	c20.8,30.2,55,48.2,91.5,48.2s70.7-18,91.5-48.2c6.3-9.2,18.9-11.5,28.2-5.2C378.9,309.6,381.2,322.2,374.9,331.5z"/>
</svg>
