<?xml version="1.0" encoding="utf-8"?>
<!-- Generator: Adobe Illustrator 17.0.0, SVG Export Plug-In . SVG Version: 6.00 Build 0)  -->
<!DOCTYPE svg PUBLIC "-//W3C//DTD SVG 1.1//EN" "http://www.w3.org/Graphics/SVG/1.1/DTD/svg11.dtd">
<svg version="1.1" id="Layer_1" xmlns="http://www.w3.org/2000/svg" xmlns:xlink="http://www.w3.org/1999/xlink" x="0px" y="0px"
	 width="512px" height="512px" viewBox="0 0 512 512" enable-background="new 0 0 512 512" xml:space="preserve">
<g>
	<path d="M237.163,30.319l-111.475-2.275L95.732,56.826l29.84,29.84c4.926-2.1,10.347-3.264,16.041-3.264
		c22.616,0,40.95,18.334,40.95,40.95s-18.334,40.95-40.95,40.95s-40.95-18.334-40.95-40.95c0-5.193,0.976-10.154,2.739-14.725
		L72.715,78.94l-24.377,23.421l-0.299,117.082l249.44,249.44l189.123-189.123L237.163,30.319z"/>
	<path d="M122.784,90.357c3.499,3.499,2.734,9.936-1.708,14.378l0,0c-4.442,4.442-10.88,5.207-14.378,1.708L28.986,28.732
		c-3.499-3.499-2.734-9.936,1.708-14.378l0,0c4.442-4.442,10.88-5.207,14.378-1.708L122.784,90.357z"/>
	<polygon points="75.885,268.435 152.23,506.55 269.013,461.051 	"/>
</g>
</svg>
