<svg id="Layer_1" data-name="Layer 1" xmlns="http://www.w3.org/2000/svg" viewBox="0 0 512 512"><title>Redactor</title><path d="M26.53,109.52c0-14.62.22-29.24-.12-43.84-0.12-4.94,1.76-6.63,6.26-6.83,8-.36,15.94-0.85,23.12,4,4.66,3.12,10,3.86,15.58,3.84,30.25-.11,60.51.37,90.74-0.29,16.48-.36,33-0.9,49.41-0.38,36,1.14,72,.14,108,0.58,5.78,0.07,11.13-.87,15-5.87,2.18-2.81,5.56-2.09,8.56-2.11,13.63-.11,11-0.17,11.43,11.06,1.2,28.53.73,57.07,0.64,85.61a99.06,99.06,0,0,1-.7,10.15c-0.31,2.92,1.15,6.78-2.05,8.45A33,33,0,0,1,336.86,178c-2.48,0-3.11-2.91-4-4.84-7.31-15.23-13-31-15.6-47.77-0.85-5.36-2.13-10.65-3.07-16-0.87-4.93-3.47-7.89-8.55-8.73a46.36,46.36,0,0,0-8.08-.8c-20.72.18-41.44-.47-62.15,0.91-10.56.71-11.12,0.39-11.9,10.64a339.23,339.23,0,0,0-1,43.22c0.9,17.8.36,35.68,0.36,53.52q0,89-.15,177.93a101.62,101.62,0,0,0,1.74,19.75,9.45,9.45,0,0,0,6.42,7.69c11.72,4.65,24,7.58,36,11,5.87,1.68,11.64,3.74,17.48,5.52,2.79,0.85,4,2.67,4.54,5.46,2.78,15,.53,18.11-14.46,17.8-22.4-.45-44.75-1.89-67.11-3.47-22.7-1.6-45.42-2-68.17.28-13.83,1.41-27.7,2.74-41.67,2.67-3.89,0-4.95-1.56-5.32-4.92-1.29-11.51,1.38-16.34,12.19-21,9.88-4.23,20.31-6.71,30.65-9.46,3-.79,5.85-1.84,8.84-2.44,8-1.6,10.72-6.67,11.35-14.42,1.62-20.17,2.19-40.35,2.17-60.57,0-37.39.41-74.79-.46-112.16s-0.55-74.75-.7-112.12c-0.05-14.43-1.25-15.57-15.52-16C121,99.16,101.43,98.68,82,103.7c-11.15,2.88-17.76,8.55-20.44,19.83-2.74,11.55-5.69,23.1-9.93,34.23-4.83,12.69-8.9,13.75-19.49,5.68-4-3-5.86-6.39-5.73-11.61C26.76,137.74,26.53,123.63,26.53,109.52Z"/><path d="M453.4,255.53q0,61.68,0,123.36c0,7.13,0,7.12,7,7.16a115.27,115.27,0,0,1,15.25.63c9.44,1.32,12.61,7.68,6.94,15.46-7.8,10.71-16.12,21-24.24,31.5-3,3.89-6,7.83-9.16,11.6-7.1,8.46-17.73,8.92-24.61.44q-17.34-21.36-33.78-43.45c-6-8.07-2.94-14.15,7-15.6,5.6-.81,11.19-0.54,16.79-0.54,3.42,0,5.12-1.28,4.88-4.8-0.07-1,0-2,0-3.06q0-122.59,0-245.19c0-7.76,0-7.75-7.87-7.78-4.76,0-9.55.24-14.26-.24-9-.91-12.39-7.38-7.15-14.68C401.38,94.76,413,79.48,425.58,65c6.72-7.78,17.06-6.63,24.21,2.2,8.44,10.43,16.53,21.14,24.76,31.75,2.81,3.62,5.79,7.14,8.28,11,5.18,8,1.93,14.52-7.56,15.21-4.9.36-9.85,0.14-14.78,0.16-7.08,0-7.1,0-7.1,6.91Q453.39,193.85,453.4,255.53Z"/></svg>