<?xml version="1.0" encoding="UTF-8" standalone="no"?>
<svg width="60px" height="60px" viewBox="0 0 60 60" version="1.1" xmlns="http://www.w3.org/2000/svg" xmlns:xlink="http://www.w3.org/1999/xlink">
    <!-- Generator: Sketch 46.2 (44496) - http://www.bohemiancoding.com/sketch -->
    <title>thumbs-up</title>
    <desc>Created with Sketch.</desc>
    <defs></defs>
    <g id="Page-1" stroke="none" stroke-width="1" fill="none" fill-rule="evenodd">
        <g id="thumbs-up" fill-rule="nonzero" fill="#183247">
            <path d="M15.9750273,26.8115715 C16.1434552,26.771316 16.3192383,26.75 16.5,26.75 C16.5792668,26.75 16.6575763,26.754099 16.734728,26.7620965 C17.3115958,26.1493203 17.9224128,25.4440696 18.5733699,24.6425313 C20.2412071,22.5888856 21.8996022,20.2544886 23.2127106,18.0288318 C23.478075,17.5790516 23.7419253,17.1158102 24.0042774,16.6397481 C25.8779842,13.2397332 29.1814405,5.5827767 29.3452472,5.39674872 C30.2797193,4.33450123 31.6080552,3.74493289 33.0274905,3.74493289 C35.5700868,3.74493289 38.226146,4.63356758 40.0905548,7.14689539 C42.2362936,10.0399515 42.3441435,14.0571816 40.6838273,18.9940635 C40.349269,19.9859305 40.0860796,20.8397466 39.8866404,21.5514474 C40.449883,21.4292492 40.8737193,21.3420583 41.2840525,21.2648817 C42.2719169,21.0790813 43.1140458,20.964932 43.8672314,20.9313566 C48.2549731,20.724998 51.5965702,21.5071085 53.7620143,23.436847 C56.119187,25.5385795 56.7332834,28.3276324 56.0570587,30.9740271 C56.7016887,32.0738638 57.1106302,33.3180521 57.1661531,34.6929045 C57.2363653,36.2709559 56.813993,37.7962331 55.9478764,39.2027894 C56.0561856,39.6856833 56.1271574,40.1907159 56.1535002,40.7119947 C56.2658746,42.9082272 55.5802878,45.0683438 53.8812562,46.9348954 C53.8929504,48.3032249 53.5764454,49.7016274 52.8167942,51.0396475 C51.347958,53.6259628 48.7203091,55.2922211 45.0434673,56.0554283 C43.8810941,56.3000758 33.4677266,56.3000758 11.2192112,56.1036674 C7.62065705,56.1036674 4.67364101,53.2286381 4.67364101,49.6560639 L4.67364101,33.2591751 C4.67364101,29.6914379 7.61583239,26.8115715 11.2192112,26.8115715 L15.9750273,26.8115715 Z M18.75,51.6654485 C25.7960237,51.7184402 31.4025526,51.7449329 35.5686629,51.7449329 C40.6696601,51.7449329 43.9164874,51.6940346 44.122764,51.6506279 C46.6249205,51.1312458 48.1327012,50.1751241 48.903656,48.8176329 C49.3432004,48.0434364 49.4538764,47.2036692 49.3356236,46.3858898 L49.1616798,45.1829773 L50.0723542,44.378038 C51.296854,43.2957103 51.7216125,42.1582248 51.6593072,40.9405293 C51.6348293,40.4561558 51.5324929,39.9985172 51.3806847,39.6003254 L50.9215634,38.3960534 L51.728092,37.3907798 C52.4117269,36.5386833 52.7071557,35.7145166 52.6702104,34.8837294 C52.6385088,34.0989391 52.3145916,33.3587709 51.8062042,32.7111658 L50.9966783,31.6799581 L51.4946322,30.4672077 C52.0526065,29.1082797 51.8958755,27.8019441 50.7676828,26.7960103 C49.6439627,25.7946057 47.402783,25.2700511 44.0731544,25.4266392 C43.5620056,25.4494297 42.9131058,25.537387 42.1158412,25.6873389 C41.7517711,25.7558142 41.3662983,25.8351131 40.904508,25.935253 C40.6508541,25.9902582 39.7881221,26.1814851 39.6294916,26.2160467 C39.1400054,26.3226938 38.7888201,26.3939205 38.4762661,26.4471231 C38.0125871,26.5260501 37.6495901,26.5639852 37.2929891,26.5486476 C36.9027739,26.5318643 36.5390708,26.4590697 36.1438371,26.2488587 C35.4041577,25.8554492 34.904178,25.095143 34.8905668,24.2133357 C34.8397563,22.9605141 35.3154304,20.8301156 36.4192152,17.557721 C37.6560717,13.8799772 37.5875054,11.3259995 36.4762883,9.82776796 C36.0035907,9.19054505 35.3695306,8.7655257 34.6007904,8.50832914 C34.0377792,8.31996314 33.4777537,8.24493289 33.0274905,8.24493289 C32.9601403,8.24493289 32.9032311,8.25497594 32.8540798,8.2750514 C32.79567,8.4089793 32.7201627,8.5866782 32.6178138,8.83057767 C32.5710043,8.94212574 32.2637837,9.67743421 32.1603327,9.92381539 C31.9506652,10.4231642 31.7604863,10.8710434 31.5630885,11.3285843 C30.4019239,14.0200039 29.2385747,16.4651555 27.9454372,18.8116734 C27.6622573,19.3255294 27.3766561,19.8269587 27.0884445,20.315464 C25.6529982,22.7484778 23.8672833,25.2620933 22.0665072,27.4794297 C20.4461059,29.4746664 19.5553109,30.5113362 18.75,30.981704 L18.75,51.6654485 Z M14.25,51.6296413 L14.25,31.3115715 L11.2192112,31.3115715 C10.0798043,31.3115715 9.17364101,32.1985394 9.17364101,33.2591751 L9.17364101,49.6560639 C9.17364101,50.7181093 10.0813723,51.6036674 11.2390644,51.603755 C12.2664223,51.6128204 13.2700681,51.6214492 14.25,51.6296413 Z" id="Combined-Shape"></path>
        </g>
    </g>
</svg>