<?xml version="1.0" encoding="utf-8"?>
<!-- Generated by IcoMoon.io -->
<!DOCTYPE svg PUBLIC "-//W3C//DTD SVG 1.1//EN" "http://www.w3.org/Graphics/SVG/1.1/DTD/svg11.dtd">
<svg version="1.1" xmlns="http://www.w3.org/2000/svg" xmlns:xlink="http://www.w3.org/1999/xlink" width="1024" height="1024" viewBox="0 0 1024 1024"><g id="icomoon-ignore">
</g>
<path d="M655.2 675l63.4-285.4-137.4-30.6-63.4 285.4 137.4 30.6zM909.2 175.2l-119.2-26.6c0 6.2-0.6 12.4-1.8 18.6-10 45.4-55.2 73.8-100.4 63.8-45.4-10-74-55-64-100.4 1.4-6.2 3.4-12.2 6-17.6l-119.4-26.6c-17.8-4-35.6 7.2-39.4 25l-157.6 707.8c-4 17.8 7.2 35.6 25 39.4l120 26.8c-0.4-7.2 0.2-14.6 1.8-22.2 10-45.4 55.2-73.8 100.4-63.8 45.4 10 74 55 64 100.4-1.6 7.4-4.4 14.4-7.6 20.8l120 26.8c17.8 4 35.6-7.2 39.4-25l157.6-708c4.2-17.6-6.8-35.2-24.8-39.2zM711.6 752.6l-266.6-59.4 91.8-411.8 266.6 59.4-91.8 411.8zM371.2 301.4l-92 41.4 55.4 123 36.6-164.4zM215.2 315.4l169.8-76.4 35.6-160.2c-7-4.4-15.8-5.4-24-1.6l-86 38.6c2.8 3.8 5.4 8 7.4 12.6 14.6 32.8 0.2 71.2-32.8 86-32.8 14.4-71.2 0-86-33-2-4.6-3.4-9.2-4.4-13.8l-86 38.8c-13 5.8-18.6 21-13 33.8l193.2 428.6 28.2-126.8-102-226.6z"></path>
</svg>
