<?xml version="1.0" encoding="utf-8"?>
<!-- Generated by IcoMoon.io -->
<!DOCTYPE svg PUBLIC "-//W3C//DTD SVG 1.1//EN" "http://www.w3.org/Graphics/SVG/1.1/DTD/svg11.dtd">
<svg version="1.1" xmlns="http://www.w3.org/2000/svg" xmlns:xlink="http://www.w3.org/1999/xlink" width="512" height="512" viewBox="0 0 512 512">
<g>
</g>
	<path d="M125.594 295.475l90.931 90.931 166.835-166.835-90.957-90.931-166.81 166.835zM489.088 170.599l-38.707-38.681c-7.399 3.994-15.795 6.298-24.806 6.298-28.595 0-51.789-23.194-51.789-51.815 0-8.986 2.253-17.433 6.298-24.806l-38.707-38.681c-10.112-10.086-26.547-10.086-36.659 0l-281.805 281.83c-10.086 10.087-10.086 26.573 0 36.659l38.707 38.707c7.373-4.019 15.821-6.298 24.781-6.298 28.621 0 51.815 23.168 51.815 51.789 0 8.986-2.279 17.433-6.323 24.807l38.681 38.707c10.087 10.087 26.573 10.087 36.659 0l281.856-281.856c10.061-10.087 10.061-26.573 0-36.659zM216.525 428.007l-132.506-132.531 208.435-208.41 132.506 132.506-208.435 208.435z" fill="#000000" />
</svg>
