<?xml version="1.0" encoding="utf-8"?>
<!-- Generator: Adobe Illustrator 19.0.0, SVG Export Plug-In . SVG Version: 6.00 Build 0)  -->
<svg version="1.1" id="Layer_1" xmlns="http://www.w3.org/2000/svg" xmlns:xlink="http://www.w3.org/1999/xlink" x="0px" y="0px"
	 width="512px" height="512px" viewBox="0 0 512 512" enable-background="new 0 0 512 512" xml:space="preserve">
<g>
	<g>
		<path d="M323.4,334.4l30.8-138.7l-66.8-14.9l-30.8,138.7L323.4,334.4z M446.9,91.4l-58-12.9c0,3-0.3,6-0.9,9
			c-4.9,22.1-26.8,35.9-48.8,31c-22.1-4.9-36-26.7-31.1-48.8c0.7-3,1.7-5.9,2.9-8.6l-58-12.9c-8.7-1.9-17.3,3.5-19.2,12.2
			l-76.6,344.1c-1.9,8.7,3.5,17.3,12.2,19.2l58.3,13c-0.2-3.5,0.1-7.1,0.9-10.8c4.9-22.1,26.8-35.9,48.8-31
			c22.1,4.9,36,26.7,31.1,48.8c-0.8,3.6-2.1,7-3.7,10.1l58.3,13c8.7,1.9,17.3-3.5,19.2-12.2l76.6-344.1
			C461,101.9,455.6,93.4,446.9,91.4z M350.8,372.1l-129.6-28.9l44.6-200.2l129.6,28.9L350.8,372.1z M185.3,152.8l-44.7,20.1
			l26.9,59.8L185.3,152.8z M109.5,159.6l82.5-37.1l17.3-77.9c-3.4-2.1-7.7-2.6-11.7-0.8l-41.8,18.8c1.4,1.8,2.6,3.9,3.6,6.1
			c7.1,15.9,0.1,34.6-15.9,41.8c-15.9,7-34.6,0-41.8-16c-1-2.2-1.7-4.5-2.1-6.7l-41.8,18.9c-6.3,2.8-9,10.2-6.3,16.4l93.9,208.3
			l13.7-61.6L109.5,159.6z"/>
	</g>
</g>
</svg>
