<?xml version="1.0" encoding="UTF-8" standalone="no"?>
<svg width="60px" height="60px" viewBox="0 0 60 60" version="1.1" xmlns="http://www.w3.org/2000/svg" xmlns:xlink="http://www.w3.org/1999/xlink">
    <!-- Generator: Sketch 46.2 (44496) - http://www.bohemiancoding.com/sketch -->
    <title>ticket</title>
    <desc>Created with Sketch.</desc>
    <defs></defs>
    <g id="Page-1" stroke="none" stroke-width="1" fill="none" fill-rule="evenodd">
        <g id="ticket" fill="#183247">
            <g id="Group-10" transform="translate(2.000000, 12.000000)">
                <path d="M0.677767839,10.9153005 L0.677767839,7.76 C0.677767839,3.75041272 3.92818056,0.5 7.93776784,0.5 L49.08301,0.5 C53.0925973,0.5 56.34301,3.75041272 56.34301,7.76 L56.34301,10.9153005 C56.34301,12.5216265 55.4867629,14.0061496 54.0963283,14.8104971 C52.6082469,15.671332 51.6764858,17.2520794 51.6764858,19 C51.6764858,20.7479206 52.6082469,22.328668 54.0963283,23.1895029 C55.4867629,23.9938504 56.34301,25.4783735 56.34301,27.0846995 L56.34301,30.24 C56.34301,34.2495873 53.0925973,37.5 49.08301,37.5 L7.93776784,37.5 C3.92818056,37.5 0.677767839,34.2495873 0.677767839,30.24 L0.677767839,27.0846995 C0.677767839,25.4783735 1.53401496,23.9938504 2.9244495,23.1895029 C4.41253094,22.328668 5.34429206,20.7479206 5.34429206,19 C5.34429206,17.2520794 4.41253094,15.671332 2.9244495,14.8104971 C1.53401496,14.0061496 0.677767839,12.5216265 0.677767839,10.9153005 Z M9.84429206,19 C9.84429206,22.454651 7.96742241,25.4709222 5.17776784,27.0846995 L5.17776784,30.24 C5.17776784,31.7643059 6.41346193,33 7.93776784,33 L49.08301,33 C50.6073159,33 51.84301,31.7643059 51.84301,30.24 L51.84301,27.0846995 C49.0533554,25.4709222 47.1764858,22.454651 47.1764858,19 C47.1764858,15.545349 49.0533554,12.5290778 51.84301,10.9153005 L51.84301,7.76 C51.84301,6.23569409 50.6073159,5 49.08301,5 L7.93776784,5 C6.41346193,5 5.17776784,6.23569409 5.17776784,7.76 L5.17776784,10.9153005 C7.96742241,12.5290778 9.84429206,15.545349 9.84429206,19 Z M19.6238093,11.5192761 L37.4364304,11.5192761 C40.1039657,11.5192761 42.2664304,13.6817407 42.2664304,16.3492761 L42.2664304,22.4959427 C42.2664304,25.1634781 40.1039657,27.3259427 37.4364304,27.3259427 L19.6238093,27.3259427 C16.9562739,27.3259427 14.7938093,25.1634781 14.7938093,22.4959427 L14.7938093,16.3492761 C14.7938093,13.6817407 16.9562739,11.5192761 19.6238093,11.5192761 Z M19.6238093,15.6592761 C19.2427328,15.6592761 18.9338093,15.9681996 18.9338093,16.3492761 L18.9338093,22.4959427 C18.9338093,22.8770192 19.2427328,23.1859427 19.6238093,23.1859427 L37.4364304,23.1859427 C37.8175068,23.1859427 38.1264304,22.8770192 38.1264304,22.4959427 L38.1264304,16.3492761 C38.1264304,15.9681996 37.8175068,15.6592761 37.4364304,15.6592761 L19.6238093,15.6592761 Z" id="Combined-Shape"></path>
            </g>
        </g>
    </g>
</svg>