<?xml version="1.0" encoding="UTF-8" standalone="no"?>
<svg width="60px" height="60px" viewBox="0 0 60 60" version="1.1" xmlns="http://www.w3.org/2000/svg" xmlns:xlink="http://www.w3.org/1999/xlink">
    <!-- Generator: Sketch 46.2 (44496) - http://www.bohemiancoding.com/sketch -->
    <title>ticket-status</title>
    <desc>Created with Sketch.</desc>
    <defs></defs>
    <g id="Page-1" stroke="none" stroke-width="1" fill="none" fill-rule="evenodd">
        <g id="ticket-status" fill="#183247">
            <path d="M9.2,4 L50.8,4 C53.6718807,4 56,6.3281193 56,9.2 L56,50.8 L56,50.8 C56,53.6718807 53.6718807,56 50.8,56 L9.2,56 L9.2,56 C6.3281193,56 4,53.6718807 4,50.8 L4,9.2 L4,9.2 C4,6.3281193 6.3281193,4 9.2,4 Z M36.637603,41.4240155 L40.2297457,32.5536314 L44.4034091,32.5536314 C45.7961135,32.5536314 46.9,31.3971801 46.9,30.0000613 C46.9,28.6029425 45.7961135,27.4464912 44.4034091,27.4464912 L38.5614669,27.4464912 C37.5446348,27.4464912 36.6387658,28.0747581 36.2549589,29.0225249 L34.3875489,33.6338798 L28.5956161,18.6162411 C27.7946336,16.53941 24.9524705,16.4389281 24.0167588,18.4607316 L19.8580559,27.4464912 L15.5965909,27.4464912 C14.2038865,27.4464912 13.1,28.6029425 13.1,30.0000613 C13.1,31.3971801 14.2038865,32.5536314 15.5965909,32.5536314 L21.4385331,32.5536314 C22.4098792,32.5536314 23.2847579,31.9794271 23.695018,31.0929732 L26.0648845,25.972374 L32.0087227,41.3838815 C32.8320507,43.5186512 35.778583,43.5452669 36.637603,41.4240155 Z" id="Combined-Shape"></path>
        </g>
    </g>
</svg>