<?xml version="1.0" encoding="utf-8"?>
<!-- Generator: Adobe Illustrator 19.2.1, SVG Export Plug-In . SVG Version: 6.00 Build 0)  -->
<svg version="1.1" id="Layer_1" xmlns="http://www.w3.org/2000/svg" xmlns:xlink="http://www.w3.org/1999/xlink" x="0px" y="0px"
	 width="512px" height="512px" viewBox="0 0 512 512" style="enable-background:new 0 0 512 512;" xml:space="preserve">
<path d="M204.9,492.9c-12.8,0-23.7-4.5-32.6-13.4l-42.1-42.1l8.5-8.5c7.7-7.7,11.4-16.8,11.4-27.8s-3.7-20.1-11.4-27.8
	s-16.8-11.4-27.8-11.4s-20.1,3.7-27.8,11.4l-8.5,8.5l-41.8-42.2c-8.8-8.8-13.4-19.8-13.4-32.6s4.5-23.7,13.4-32.6L274.7,32.8
	c8.9-8.9,19.9-13.4,32.6-13.4s23.7,4.5,32.6,13.4l41.8,41.8l-8.5,8.5c-7.7,7.7-11.4,16.8-11.4,27.8s3.7,20.1,11.4,27.8
	s16.8,11.4,27.8,11.4s20.1-3.7,27.8-11.4l8.5-8.5l42.1,41.8c8.9,8.9,13.4,19.9,13.4,32.7c0,12.8-4.5,23.7-13.4,32.6l0,0L237.6,479.5
	C228.7,488.4,217.7,492.9,204.9,492.9z M163.4,436.6l25.9,25.9c4.3,4.3,9.3,6.4,15.7,6.4c6.3,0,11.3-2,15.7-6.4l241.9-242.2
	c4.3-4.3,6.4-9.3,6.4-15.7c0-6.3-2-11.3-6.4-15.7l-25.8-25.6c-10.3,7.1-22.2,10.7-35.6,10.7c-17.5,0-32.5-6.2-44.8-18.5
	c-12.2-12.2-18.5-27.3-18.5-44.8c0-13.3,3.6-25.2,10.7-35.5L323,49.8c-4.3-4.3-9.3-6.4-15.7-6.4s-11.3,2-15.7,6.4L49.8,291.4
	c-4.3,4.3-6.3,9.3-6.3,15.6s2,11.3,6.4,15.7l25.6,25.9c10.3-7.1,22.2-10.7,35.5-10.7c17.5,0,32.5,6.2,44.8,18.5
	c12.2,12.2,18.5,27.3,18.5,44.8C174.1,414.4,170.5,426.3,163.4,436.6z M221.9,391.4L120.6,290.1l169.5-169.5l101.3,101.3
	L221.9,391.4z M154.6,290.1l67.3,67.3l135.6-135.6l-67.3-67.3L154.6,290.1z"/>
</svg>
