<?xml version="1.0" encoding="UTF-8" standalone="no"?>
<svg width="60px" height="60px" viewBox="0 0 60 60" version="1.1" xmlns="http://www.w3.org/2000/svg" xmlns:xlink="http://www.w3.org/1999/xlink">
    <!-- Generator: Sketch 46.2 (44496) - http://www.bohemiancoding.com/sketch -->
    <title>reply</title>
    <desc>Created with Sketch.</desc>
    <defs></defs>
    <g id="Page-1" stroke="none" stroke-width="1" fill="none" fill-rule="evenodd">
        <g id="reply" fill="#183247" fill-rule="nonzero">
            <path d="M11.8365326,24.2413398 L29.5410746,6.90537329 C30.4371871,6.02791622 30.4553482,4.58703825 29.5816385,3.68708228 C28.7079289,2.7871263 27.2732046,2.76888734 26.3770921,3.64634442 L4.68590799,24.8859585 C4.2628079,25.2994225 4,25.8774873 4,26.5171975 C4,27.1569076 4.26280788,27.7349724 4.68590799,28.1484365 L26.3770921,49.3880505 C27.2732046,50.2655076 28.7079289,50.2472686 29.5816385,49.3473127 C30.4553482,48.4473567 30.4371871,47.0064787 29.5410746,46.1290217 L11.8365326,28.7930552 L41.4031718,28.7930552 C46.4093857,28.7930552 50.4677239,32.8688 50.4677239,37.896486 L50.4677239,55.7241423 C50.4677239,56.9810638 51.4823085,58 52.733862,58 C53.9854154,58 55,56.9810638 55,55.7241423 L55,37.896486 C55,30.354957 48.9124926,24.2413398 41.4031718,24.2413398 L11.8365326,24.2413398 Z"></path>
        </g>
    </g>
</svg>