<?xml version="1.0" encoding="utf-8"?>
<!-- Generated by IcoMoon.io -->
<!DOCTYPE svg PUBLIC "-//W3C//DTD SVG 1.1//EN" "http://www.w3.org/Graphics/SVG/1.1/DTD/svg11.dtd">
<svg version="1.1" xmlns="http://www.w3.org/2000/svg" xmlns:xlink="http://www.w3.org/1999/xlink" width="1024" height="1024" viewBox="0 0 1024 1024"><g id="icomoon-ignore">
</g>
<path d="M666.4 698.2l70.2-315.8-152-33.8-70.2 315.8 152 33.8zM947.6 145l-132-29.4c0 6.8-0.6 13.8-2 20.6-11 50.2-61 81.6-111.2 70.6s-82-60.8-70.8-111.2c1.6-6.8 3.8-13.6 6.6-19.4l-132.2-29.4c-19.8-4.4-39.4 8-43.6 27.6l-174.4 783.4c-4.4 19.8 8 39.4 27.6 43.6l132.8 29.6c-0.4-8 0.2-16.2 2-24.6 11-50.2 61-81.6 111.2-70.6s82 60.8 70.8 111.2c-1.8 8.2-4.8 16-8.4 23l132.8 29.6c19.8 4.4 39.4-8 43.6-27.6l174.4-783.6c4.8-19.4-7.4-38.8-27.2-43.4v0zM728.8 784.2l-295-65.8 101.6-455.8 295 65.8-101.6 455.8zM352.2 284.8l-101.8 45.8 61.4 136.2 40.4-182zM179.4 300.2l188-84.6 39.4-177.4c-7.8-4.8-17.4-6-26.6-1.8l-95.2 42.8c3 4.2 6 8.8 8.2 14 16.2 36.4 0.2 78.8-36.4 95.2-36.4 16-78.8 0-95.2-36.6-2.2-5-3.8-10.2-4.8-15.2l-95.2 43c-14.4 6.4-20.6 23.2-14.4 37.4l213.8 474.4 31.2-140.4-112.8-250.8z"></path>
</svg>
