<?xml version="1.0" encoding="utf-8"?>
<!-- Generated by IcoMoon.io -->
<!DOCTYPE svg PUBLIC "-//W3C//DTD SVG 1.1//EN" "http://www.w3.org/Graphics/SVG/1.1/DTD/svg11.dtd">
<svg version="1.1" xmlns="http://www.w3.org/2000/svg" xmlns:xlink="http://www.w3.org/1999/xlink" width="1024" height="1024" viewBox="0 0 1024 1024"><g id="icomoon-ignore">
</g>
<path d="M441.8 333.8c-0.2-2.8-2.6-5.2-5.6-5.6-3.4-0.4-6.4 2.2-6.6 5.6l-17.8 197.4c-0.2 1.4-0.2 3 0 4.4 1.2 13.2 12.8 23 26.2 21.8 13.2-1.2 23-12.8 21.8-26.2l-18-197.4z"></path>
<path d="M835.4 834h-131.6v-23.4h131.6v23.4zM835.4 790.6h-131.6v-23.4h131.6v23.4zM835.4 747.2h-131.6v-23.4h131.6v23.4zM802.8 614.4v67.2h67.2v192.8h-200v-260h132.8zM822.4 583.2h-183.6v322.6h262.6v-243.8l-79-78.8z"></path>
<path d="M585.4 706.6c-40.2 34.6-92.4 55.6-149.6 55.6-126.8 0-230-103.2-230-230s103.2-230 230-230c126.8 0 230 103.2 230 230h69.4c0-76.6-29-146.6-76.6-199.6l12.4-12.4c9.8 4 21.6 2.2 29.6-5.8l11.4-11.4c10.6-10.6 10.6-27.8 0-38.4l-27-27c-10.6-10.6-27.8-10.6-38.4 0l-11.4 11.4c-8 8-10 19.8-5.8 29.6l-14.2 14.2c-40.4-30.2-88.6-50.6-141-57.2v-26.4c12.8-5.2 21.8-17.8 21.8-32.6v-20.6c0-19.4-15.8-35.2-35.2-35.2h-49.6c-19.4 0-35.2 15.8-35.2 35.2v20.6c0 14.6 9 27.2 21.8 32.6v26.4c-147 18.8-261 144.8-261 296.8 0 165 134.2 299.2 299.2 299.2 54.6 0 105.6-14.8 149.6-40.4v-84.6z"></path>
</svg>
