<?xml version="1.0" encoding="utf-8"?>
<!-- Generator: Adobe Illustrator 17.0.0, SVG Export Plug-In . SVG Version: 6.00 Build 0)  -->
<!DOCTYPE svg PUBLIC "-//W3C//DTD SVG 1.1//EN" "http://www.w3.org/Graphics/SVG/1.1/DTD/svg11.dtd">
<svg version="1.1" id="Layer_1" xmlns="http://www.w3.org/2000/svg" xmlns:xlink="http://www.w3.org/1999/xlink" x="0px" y="0px"
	 width="512px" height="512px" viewBox="0 0 512 512" enable-background="new 0 0 512 512" xml:space="preserve">
<path d="M243.433,494.1l250.025-245.984c12.458-12.263,12.594-32.452,0.31-45.032l-22.657-23.199
	c21.462-37.641,14.104-80.285-20.626-115.84c-34.312-35.145-77.132-43.651-114.992-22.994l-22.657-23.198
	c-12.051-12.343-32.669-12.676-44.872-0.613L17.955,263.206c-6.044,5.931-9.402,13.883-9.458,22.387
	c-0.064,8.516,3.182,16.55,9.141,22.653l22.54,23.072c-21.889,37.792-14.652,80.639,20.29,116.419
	c34.494,35.318,77.57,43.719,115.559,22.67l22.551,23.086c10.173,10.417,26.015,12.638,38.51,5.425
	C239.395,497.586,241.527,495.966,243.433,494.1z M215.886,476.461l-29.371-30.069c-3.933-4.016-10.011-4.825-14.761-2.083
	c-0.288,0.167-0.559,0.339-0.823,0.517c-30.194,20.879-63.902,15.836-93.152-14.118c-29.077-29.768-33.534-63.933-12.225-93.752
	c3.441-4.8,2.919-11.416-1.232-15.666l-29.376-30.073c-1.397-1.425-2.152-3.303-2.14-5.296c0.017-1.983,0.793-3.838,2.212-5.216
	L285.038,34.729c2.889-2.938,7.664-2.748,10.483,0.145l29.443,30.142c4.127,4.237,10.803,4.809,15.518,1.601
	c30.461-20.415,63.611-15.347,92.69,14.453c28.911,29.594,33.489,63.595,12.55,93.276c-3.38,4.809-2.842,11.38,1.28,15.611
	l29.453,30.153c2.869,2.933,2.831,7.656-0.074,10.516L226.353,476.608C223.45,479.513,218.686,479.344,215.886,476.461z"/>
</svg>
