<?xml version="1.0" encoding="utf-8"?>
<!-- Generated by IcoMoon.io -->
<!DOCTYPE svg PUBLIC "-//W3C//DTD SVG 1.1//EN" "http://www.w3.org/Graphics/SVG/1.1/DTD/svg11.dtd">
<svg version="1.1" xmlns="http://www.w3.org/2000/svg" xmlns:xlink="http://www.w3.org/1999/xlink" width="1024" height="1024" viewBox="0 0 1024 1024"><g id="icomoon-ignore">
</g>
<path d="M417.4 289.6c-0.2-3.4-3.2-6.4-7-7-4.2-0.4-8 2.8-8.2 7l-22 244.6c-0.2 1.8-0.2 3.8 0 5.4 1.4 16.4 15.8 28.6 32.4 27 16.4-1.4 28.6-15.8 27-32.4l-22.2-244.6z"></path>
<path d="M905.2 909.6h-163v-29h163v29zM905.2 855.8h-163v-29h163v29zM905.2 801.8h-163v-29h163v29zM864.8 637.4v83.2h83.2v239h-247.8v-322.2h164.6zM889 598.6h-227.4v399.8h325.4v-302.2l-98-97.6z"></path>
<path d="M595.4 751.8c-49.8 42.8-114.6 69-185.4 69-157.2-0.2-285-128-285-285.2s127.8-285.2 285-285.2 285 127.8 285 285.2h86c0-95-36-181.6-95-247.4l15.4-15.4c12.2 5 26.8 2.8 36.6-7.2l14.2-14.2c13.2-13.2 13.2-34.4 0-47.6l-33.4-33.4c-13.2-13.2-34.4-13.2-47.6 0l-14.2 14.2c-10 10-12.4 24.6-7.2 36.6l-17.6 17.6c-50-37.4-109.8-62.8-174.8-70.8v-32.8c15.8-6.4 27-22 27-40.4v-25.6c0-24-19.6-43.6-43.6-43.6h-61.4c-24 0-43.6 19.6-43.6 43.6v25.6c0 18 11.2 33.8 27 40.4v32.8c-182.2 23.2-323.4 179.4-323.4 367.8 0 204.4 166.4 370.8 370.8 370.8 67.6 0 130.8-18.4 185.4-50v-104.8h-0.2z"></path>
</svg>
