<?xml version="1.0" encoding="UTF-8"?>
<svg width="512px" height="512px" viewBox="0 0 512 512" version="1.1" xmlns="http://www.w3.org/2000/svg" xmlns:xlink="http://www.w3.org/1999/xlink">
    <!-- Generator: Sketch 42 (36781) - http://www.bohemiancoding.com/sketch -->
    <title>Time spent</title>
    <desc>Created with Sketch.</desc>
    <defs></defs>
    <g id="Page-1" stroke="none" stroke-width="1" fill="none" fill-rule="evenodd">
        <g id="Time-spent" fill-rule="nonzero" fill="#000000">
            <g id="Group-2" transform="translate(79.000000, 56.000000)">
                <path d="M184.000001,205.7456 C188.701716,207.771373 192.536349,211.426588 194.792656,216 L306,216 C310.970563,216 315,220.029437 315,225 C315,229.970563 310.970563,234 306,234 L195.254401,234 C191.95973,241.64676 184.355023,247 175.5,247 C163.625878,247 154,237.374122 154,225.5 C154,217.036268 158.890588,209.714795 166,206.207344 L166,92 C166,87.0294373 170.029437,83 175,83 C179.970563,83 184,87.0294373 184,92 L184,205.745596 Z M61.0795641,123.138878 C39.5967568,148.053985 26.0100203,179.969759 24.2055541,215 L40.0012616,215 C44.4188428,215 48,218.590712 48,223 C48,227.418278 44.4191036,231 40.0012616,231 L24.2055541,231 C26.0068861,265.969299 39.5495128,297.834938 60.9674899,322.730995 L74.0425226,309.655962 C77.1662243,306.532261 82.2375018,306.539017 85.3553391,309.656854 C88.4795334,312.781049 88.4801172,317.845785 85.3562311,320.969671 L72.0215711,334.304331 C97.6104236,358.447634 131.522828,373.863934 169,375.794446 L169,355.998738 C169,351.581157 172.590712,348 177,348 C181.418278,348 185,351.580896 185,355.998738 L185,375.794446 C222.229042,373.87671 255.940343,358.651187 281.469047,334.782756 L267.655962,320.969671 C264.532076,317.845785 264.53266,312.781049 267.656854,309.656854 C270.774691,306.539017 275.845969,306.532261 278.969671,309.655962 L292.574568,323.260859 C315.888542,296.409108 330,261.352508 330,223 C330,138.500433 261.499567,70 177,70 C136.431877,70 99.5514692,85.7889838 72.1685781,111.557149 L85.3310792,122.601799 C88.7151428,125.441365 89.150403,130.493934 86.3161675,133.871644 C83.4761531,137.256242 78.4307408,137.698244 75.0464775,134.85851 L61.0795641,123.138878 Z M328.177501,109.511823 L319.584065,118.105259 C341.216261,147.460848 354,183.737523 354,223 C354,320.754401 274.754401,400 177,400 C79.2455993,400 0,320.754401 0,223 C0,131.447226 69.5097196,56.1293164 158.634109,46.9413223 L158.634109,35.4252303 L150.421178,35.4252303 C149.317185,35.4252303 148.422222,34.5364751 148.422222,33.4295508 L148.422222,10.1886476 C148.422222,4.66338046 152.899924,0.184266478 158.431087,0.184266478 L194.578732,0.184266478 C200.106475,0.184266478 204.587597,4.66544257 204.587597,10.1886476 L204.587597,33.4295508 C204.587597,34.5317342 203.682624,35.4252303 202.588641,35.4252303 L193.099225,35.4252303 L193.099225,46.7223145 C232.805892,50.3023523 268.731008,66.9953635 296.510757,92.4375327 L303.806984,85.1413058 L299.928316,81.2626378 C299.149989,80.4843109 299.14985,79.2225325 299.935518,78.4368653 L305.44101,72.9313733 C309.263913,69.1084699 315.455608,69.1020138 319.289703,72.9361084 L340.285311,93.9317162 C344.110829,97.7572347 344.11379,103.956665 340.290046,107.780409 L334.784554,113.285901 C334.002249,114.068205 332.733448,114.067769 331.958781,113.293103 L328.177501,109.511823 Z M306,201 C258.262774,201 197,201 197,201 C197,201 197,146.5 197,92 C263,99 298,146.5 306,201 Z" id="Combined-Shape"></path>
            </g>
        </g>
    </g>
</svg>