<svg id="Layer_1" data-name="Layer 1" xmlns="http://www.w3.org/2000/svg" viewBox="0 0 512 512"><title>Redactor</title><path d="M257.41,460.37c-73,1.54-130.08-54.93-140.84-114.6-7-39,.44-75.16,22.44-108.07,19-28.34,39.28-55.77,56-85.58,14.88-26.58,28.35-53.78,37.59-82.94,3.56-11.23,13.52-18.6,24.18-18.6,10.86,0,20.54,7.25,24.21,18.44,15.24,46.49,39.15,88.49,66.26,128.89,11.7,17.44,24.89,33.92,35,52.39C397.39,278,403,307.79,397.85,339c-9.42,57.24-42.93,94.78-96.68,114.73C286.95,459,271.85,460.79,257.41,460.37Zm-35.22-72.31a30.41,30.41,0,0,0,13.72-2.94c19.74-9.32,26.17-33.28,13.76-52-8.44-12.75-17.45-25.16-22.57-39.78-1-2.84-1.94-5.63-5.79-5.65-4.09,0-5.1,2.94-6.19,6a115,115,0,0,1-10.7,21.79c-4.78,7.65-10.4,14.86-14.39,22.9C178.5,361.49,195,387.73,222.19,388.06Z"/></svg>