<?xml version="1.0" encoding="utf-8"?>
<!-- Generator: Adobe Illustrator 19.2.1, SVG Export Plug-In . SVG Version: 6.00 Build 0)  -->
<svg version="1.1" id="Layer_1" xmlns="http://www.w3.org/2000/svg" xmlns:xlink="http://www.w3.org/1999/xlink" x="0px" y="0px"
	 width="512px" height="512px" viewBox="0 0 512 512" style="enable-background:new 0 0 512 512;" xml:space="preserve">
<style type="text/css">
	.st0{fill:#010101;}
</style>
<path class="st0" d="M256,57C146.1,57,57,146.1,57,256s89.1,199,199,199s199-89.1,199-199S365.9,57,256,57z M256,436
	c-99.4,0-180-80.6-180-180S156.6,76,256,76s180,80.6,180,180C436.1,355.4,355.5,436,256,436z"/>
<polygon points="335,233.4 335,233.4 270,168.4 247.4,191 296.4,240 154.3,240 154.3,272 296.4,272 247.4,321 270,343.6 357.6,256 
	"/>
</svg>
