<?xml version="1.0" encoding="utf-8"?>
<!-- Generator: Adobe Illustrator 17.0.0, SVG Export Plug-In . SVG Version: 6.00 Build 0)  -->
<!DOCTYPE svg PUBLIC "-//W3C//DTD SVG 1.1//EN" "http://www.w3.org/Graphics/SVG/1.1/DTD/svg11.dtd">
<svg version="1.1" id="Layer_1" xmlns="http://www.w3.org/2000/svg" xmlns:xlink="http://www.w3.org/1999/xlink" x="0px" y="0px"
	 width="512px" height="512px" viewBox="0 0 512 512" enable-background="new 0 0 512 512" xml:space="preserve">
<g>
	<path fill="#020202" d="M88,130.1c-1.5,1.6-2.3,3.5-2.3,5.9v16c0,2.3,0.8,4.3,2.3,5.8s3.4,2.3,5.8,2.3h24.1v237.5
		c0,13.9,3.9,25.8,11.8,36c7.9,10.1,17.3,15.2,28.3,15.2h204.271l-26.537-32.3H157.9c-0.5,0-1.4-0.7-2.6-2.1
		c-1.3-1.4-2.5-3.7-3.6-6.8c-1.2-3-1.8-6.4-1.8-10.1V190.309L98.544,127.8H93.8C91.5,127.8,89.5,128.6,88,130.1z"/>
	<path fill="#020202" d="M278.3,360.4v-13.806l-32.2-39.193V360.4c0,2.3,0.8,4.3,2.3,5.8s3.4,2.3,5.8,2.3h16c2.3,0,4.3-0.8,5.8-2.3
		S278.3,362.8,278.3,360.4z"/>
	<path fill="#020202" d="M214.1,360.4v-91.949l-32.2-39.193V360.4c0,2.3,0.8,4.3,2.3,5.8s3.4,2.3,5.8,2.3h16c2.3,0,4.3-0.8,5.8-2.3
		S214.1,362.8,214.1,360.4z"/>
	<path fill="#020202" d="M76.629,74.303l337.297,410.546l25.445-20.905l-36.423-44.333c2.368-6.383,3.552-13.378,3.552-21.011V160
		h24c2.3,0,4.3-0.8,5.8-2.3s2.3-3.4,2.3-5.8v-16c0-2.3-0.8-4.3-2.3-5.8s-3.4-2.3-5.8-2.3h-77.4L335.6,86c-2.5-6.2-7-11.4-13.5-15.8
		c-6.5-4.3-13.1-6.5-19.8-6.5H222c-6.7,0-13.3,2.2-19.8,6.5s-11,9.6-13.5,15.8l-17.5,41.8h-7.998l-61.128-74.403L76.629,74.303z
		 M318.2,127.9H206l12-29.3c1.2-1.5,2.6-2.4,4.3-2.8h79.4c1.7,0.3,3.1,1.3,4.3,2.8L318.2,127.9z M374.4,384.863l-32-38.949V216.1
		c0-2.3-0.8-4.3-2.3-5.8s-3.4-2.3-5.8-2.3h-16c-2.3,0-4.3,0.8-5.8,2.3s-2.3,3.5-2.3,5.8v90.622l-31.9-38.828V216.1
		c0-2.3-0.8-4.3-2.3-5.8s-3.4-2.3-5.8-2.3h-16c-2.3,0-4.3,0.8-5.8,2.3s-2.3,3.5-2.3,5.8v12.601L189.657,160H374.4V384.863z"/>
</g>
</svg>
