<?xml version="1.0" encoding="utf-8"?>
<!-- Generator: Adobe Illustrator 17.1.0, SVG Export Plug-In . SVG Version: 6.00 Build 0)  -->
<!DOCTYPE svg PUBLIC "-//W3C//DTD SVG 1.1//EN" "http://www.w3.org/Graphics/SVG/1.1/DTD/svg11.dtd">
<svg version="1.1" id="Layer_1" xmlns="http://www.w3.org/2000/svg" xmlns:xlink="http://www.w3.org/1999/xlink" x="0px" y="0px"
	 viewBox="0 0 512 512" enable-background="new 0 0 512 512" xml:space="preserve">
<path display="none" fill="#010101" d="M259.9,58.8c-109.8,0-199.1,89.3-199.1,199.1c0,109.8,89.3,199.1,199.1,199.1
	c109.8,0,199.1-89.3,199.1-199.1C459,148.1,369.7,58.8,259.9,58.8z M377.9,197.9L235.8,340c-3.3,3.3-7.2,5-11.5,5c-2,0-8,0-11.9-5.3
	l-70.9-70.9c-3.3-3.3-5-7.2-5-11.5c0-5.1,1.5-9,5-12.4s7.3-5,12.4-5c2,0,8,0,11.9,5.3l59.3,59.3l128.8-130.5
	c3.9-5.3,9.9-5.3,11.9-5.3c5.1,0,9,1.5,12.4,5c3.5,3.5,5,7.3,5,12.4C383.2,188.1,383.2,194,377.9,197.9z"/>
<g id="Layer_2">
	<path fill="#010101" d="M434,131.2c-1.5-1.5-3.4-2.3-5.8-2.3h-77.4l-17.5-41.8c-2.5-6.2-7-11.4-13.5-15.8
		c-6.5-4.3-13.1-6.5-19.8-6.5h-80.2c-6.7,0-13.3,2.2-19.8,6.5c-6.5,4.3-11,9.6-13.5,15.8l-17.5,41.8H91.5c-2.3,0-4.3,0.8-5.8,2.3
		c-1.5,1.5-2.3,3.4-2.3,5.8v16c0,2.3,0.8,4.3,2.3,5.8c1.5,1.5,3.4,2.3,5.8,2.3h24.1v238.5c0,13.9,3.9,25.7,11.8,35.5
		c7.9,9.8,17.3,14.7,28.3,14.7h208.5c11,0,20.5-5.1,28.3-15.2c7.9-10.1,11.8-22.1,11.8-36V161h24.1c2.3,0,4.3-0.8,5.8-2.3
		c1.5-1.5,2.3-3.4,2.3-5.8v-16l0,0C436.3,134.6,435.5,132.7,434,131.2z M216,99.6c1.2-1.5,2.6-2.4,4.3-2.8h79.4
		c1.7,0.3,3.1,1.3,4.3,2.8l12,29.3H203.8L216,99.6z M211.8,217.1v144.3c0,2.3-0.8,4.3-2.3,5.8s-3.4,2.3-5.8,2.3h-16
		c-2.3,0-4.3-0.8-5.8-2.3c-1.5-1.5-2.3-3.4-2.3-5.8V217.1c0-2.3,0.8-4.3,2.3-5.8c1.5-1.5,3.4-2.3,5.8-2.3h16c2.3,0,4.3,0.8,5.8,2.3
		C211,212.9,211.8,214.8,211.8,217.1L211.8,217.1z M275.9,361.5c0,2.3-0.8,4.3-2.3,5.8s-3.4,2.3-5.8,2.3h-16c-2.3,0-4.3-0.8-5.8-2.3
		s-2.3-3.4-2.3-5.8V217.1c0-2.3,0.8-4.3,2.3-5.8s3.4-2.3,5.8-2.3h16c2.3,0,4.3,0.8,5.8,2.3c1.5,1.5,2.3,3.4,2.3,5.8V361.5z
		 M340.1,361.5c0,2.3-0.8,4.3-2.3,5.8s-3.4,2.3-5.8,2.3h-16c-2.3,0-4.3-0.8-5.8-2.3s-2.3-3.4-2.3-5.8V217.1c0-2.3,0.8-4.3,2.3-5.8
		s3.4-2.3,5.8-2.3h16c2.3,0,4.3,0.8,5.8,2.3s2.3,3.4,2.3,5.8V361.5z"/>
</g>
</svg>
