<?xml version="1.0" encoding="utf-8"?>
<!-- Generator: Adobe Illustrator 17.1.0, SVG Export Plug-In . SVG Version: 6.00 Build 0)  -->
<!DOCTYPE svg PUBLIC "-//W3C//DTD SVG 1.1//EN" "http://www.w3.org/Graphics/SVG/1.1/DTD/svg11.dtd">
<svg version="1.1" id="Layer_1" xmlns="http://www.w3.org/2000/svg" xmlns:xlink="http://www.w3.org/1999/xlink" x="0px" y="0px"
	 viewBox="0 0 512 512" enable-background="new 0 0 512 512" xml:space="preserve">
<path display="none" fill="#010101" d="M259.9,58.8c-109.8,0-199.1,89.3-199.1,199.1c0,109.8,89.3,199.1,199.1,199.1
	c109.8,0,199.1-89.3,199.1-199.1C459,148.1,369.7,58.8,259.9,58.8z M377.9,197.9L235.8,340c-3.3,3.3-7.2,5-11.5,5c-2,0-8,0-11.9-5.3
	l-70.9-70.9c-3.3-3.3-5-7.2-5-11.5c0-5.1,1.5-9,5-12.4s7.3-5,12.4-5c2,0,8,0,11.9,5.3l59.3,59.3l128.8-130.5
	c3.9-5.3,9.9-5.3,11.9-5.3c5.1,0,9,1.5,12.4,5c3.5,3.5,5,7.3,5,12.4C383.2,188.1,383.2,194,377.9,197.9z"/>
<path fill="#010101" d="M211.8,217.1v144.3c0,2.3-0.8,4.3-2.3,5.8c-1.5,1.5-3.4,2.3-5.8,2.3h-16c-2.3,0-4.3-0.8-5.8-2.3
	c-1.5-1.5-2.3-3.4-2.3-5.8V217.1c0-2.3,0.8-4.3,2.3-5.8s3.4-2.3,5.8-2.3h16c2.3,0,4.3,0.8,5.8,2.3S211.8,214.8,211.8,217.1
	L211.8,217.1z M275.9,217.1v144.3c0,2.3-0.8,4.3-2.3,5.8c-1.5,1.5-3.4,2.3-5.8,2.3h-16c-2.3,0-4.3-0.8-5.8-2.3
	c-1.5-1.5-2.3-3.4-2.3-5.8V217.1c0-2.3,0.8-4.3,2.3-5.8c1.5-1.5,3.4-2.3,5.8-2.3h16c2.3,0,4.3,0.8,5.8,2.3S275.9,214.8,275.9,217.1
	L275.9,217.1z M340.1,217.1v144.3c0,2.3-0.8,4.3-2.3,5.8c-1.5,1.5-3.4,2.3-5.8,2.3h-16c-2.3,0-4.3-0.8-5.8-2.3
	c-1.5-1.5-2.3-3.4-2.3-5.8V217.1c0-2.3,0.8-4.3,2.3-5.8c1.5-1.5,3.4-2.3,5.8-2.3h16c2.3,0,4.3,0.8,5.8,2.3
	C339.3,212.9,340.1,214.8,340.1,217.1L340.1,217.1z M372.1,398.5V161H147.6v237.5c0,3.7,0.6,7.1,1.8,10.1c1.2,3.1,2.4,5.3,3.6,6.8
	c1.3,1.4,2.1,2.1,2.6,2.1h208.5c0.5,0,1.4-0.7,2.6-2.1c1.3-1.4,2.5-3.7,3.6-6.8C371.5,405.6,372.1,402.2,372.1,398.5L372.1,398.5z
	 M203.8,128.9H316l-12-29.3c-1.2-1.5-2.6-2.4-4.3-2.8h-79.4c-1.7,0.3-3.1,1.3-4.3,2.8L203.8,128.9z M436.3,137v16
	c0,2.3-0.8,4.3-2.3,5.8c-1.5,1.5-3.4,2.3-5.8,2.3h-24.1v237.5c0,13.9-3.9,25.8-11.8,36c-7.9,10.1-17.3,15.2-28.3,15.2H155.6
	c-11,0-20.5-4.9-28.3-14.7c-7.9-9.8-11.8-21.6-11.8-35.5V161H91.5c-2.3,0-4.3-0.8-5.8-2.3c-1.5-1.5-2.3-3.4-2.3-5.8v-16
	c0-2.3,0.8-4.3,2.3-5.8s3.4-2.3,5.8-2.3h77.4l17.5-41.8c2.5-6.2,7-11.4,13.5-15.8c6.5-4.3,13.1-6.5,19.8-6.5H300
	c6.7,0,13.3,2.2,19.8,6.5c6.5,4.3,11,9.6,13.5,15.8l17.5,41.8h77.4c2.3,0,4.3,0.8,5.8,2.3C435.5,132.7,436.3,134.6,436.3,137
	L436.3,137z"/>
</svg>
