<?xml version="1.0" encoding="UTF-8" standalone="no"?>
<svg width="60px" height="60px" viewBox="0 0 60 60" version="1.1" xmlns="http://www.w3.org/2000/svg" xmlns:xlink="http://www.w3.org/1999/xlink">
    <!-- Generator: Sketch 46.2 (44496) - http://www.bohemiancoding.com/sketch -->
    <title>twitter</title>
    <desc>Created with Sketch.</desc>
    <defs></defs>
    <g id="Page-1" stroke="none" stroke-width="1" fill="none" fill-rule="evenodd">
        <g id="twitter" fill="#183247">
            <path d="M54.5657758,10.7394829 C52.5026033,11.8954856 50.2228393,12.7362148 47.7861854,13.1873378 C45.8451926,11.2252091 43.0711558,10 40,10 C34.1131552,10 29.3356473,14.5214828 29.3356473,20.097722 C29.3356473,20.8897504 29.4272822,21.6574285 29.6105519,22.3969113 C20.744186,21.9752651 12.8844151,17.9600141 7.61957654,11.84294 C6.70045123,13.3398481 6.17563346,15.0764154 6.17563346,16.9257634 C6.17563346,20.427093 8.05831309,23.5183109 10.9225963,25.3292109 C9.17598056,25.2805101 7.52794169,24.8216975 6.08677543,24.0706802 L6.08677543,24.1937138 C6.08677543,29.088142 9.76466505,33.1713178 14.6490802,34.095351 C13.7549462,34.3324469 12.8108296,34.4516356 11.8375564,34.4516356 C11.150295,34.4516356 10.4796946,34.3901189 9.82992017,34.2722117 C11.187782,38.2823364 15.1253037,41.2031015 19.7945158,41.281279 C16.1443943,43.9905802 11.5418258,45.6053955 6.54494967,45.6053955 C5.68413745,45.6053955 4.83304408,45.559258 4,45.4669828 C8.72058313,48.3275127 14.331135,50 20.3540437,50 C39.9791739,50 50.7073933,34.6156804 50.7073933,21.2703854 C50.7073933,20.8307968 50.6990628,20.3924898 50.6810135,19.9618724 C52.7650121,18.5380154 54.5754946,16.760437 56,14.7355099 C54.0895522,15.5377912 52.0319334,16.0811893 49.8743492,16.3246932 C52.0777508,15.0764154 53.7688303,13.0976258 54.5657758,10.7394829" id="Twitter"></path>
        </g>
    </g>
</svg>