<?xml version="1.0" encoding="UTF-8" standalone="no"?>
<svg width="60px" height="60px" viewBox="0 0 60 60" version="1.1" xmlns="http://www.w3.org/2000/svg" xmlns:xlink="http://www.w3.org/1999/xlink">
    <!-- Generator: Sketch 46.2 (44496) - http://www.bohemiancoding.com/sketch -->
    <title>twitter</title>
    <desc>Created with Sketch.</desc>
    <defs></defs>
    <g id="Page-1" stroke="none" stroke-width="1" fill="none" fill-rule="evenodd">
        <g id="twitter" fill="#183247">
            <path d="M21.4629448,53.9999036 C20.9793248,53.9976016 20.4961048,53.9883735 20.0129648,53.9653539 C18.9621648,53.9152788 17.9138948,53.8105955 16.8737048,53.6514461 C13.8353748,53.1865725 10.8707448,52.2535396 8.10364485,50.8993601 C7.19777485,50.4560356 6.31316485,49.9680917 5.45366485,49.4382765 C5.22004485,49.2942672 4.98830485,49.1471347 4.75844485,48.997041 C4.61303485,48.9020827 4.44817485,48.7946209 4.31014485,48.6903128 C4.15655485,48.5742516 4.01043485,48.4483741 3.87267485,48.3134307 C3.45930485,47.9085195 3.12397485,47.4233034 2.88973485,46.891095 C2.49832485,46.0017892 2.39783485,44.9929945 2.60594485,44.0422862 C2.70971485,43.5682656 2.88851485,43.1116465 3.13368485,42.6945765 C3.37885485,42.2775065 3.68990485,41.9008273 4.05172485,41.5828124 C4.41355485,41.2647975 4.82542485,41.0060859 5.26736485,40.8192421 C5.79783485,40.5949686 6.37005485,40.475206 6.94474485,40.4681784 C7.17782485,40.4653288 7.40800485,40.4853467 7.63917485,40.5125646 C7.81459485,40.5318321 7.99010485,40.5483311 8.16602485,40.5621936 C8.94354485,40.617471 9.72080485,40.611853 10.4977248,40.5471447 C10.4977248,40.5471447 10.5870048,40.5387075 10.5870048,40.5387075 C10.4991148,40.4345313 10.4141248,40.3279111 10.3291948,40.2212605 C10.2458448,40.114539 10.1635748,40.007138 10.0822348,39.8988446 C9.81376485,39.5343444 9.55934485,39.1600989 9.32421485,38.7725284 C8.84976485,37.9904917 8.44922485,37.162497 8.12963485,36.3034107 C8.06504485,36.1297803 8.00374485,35.9548924 7.94579485,35.7788788 C7.85945485,35.5166281 7.78058485,35.2524912 7.73100485,34.9800795 C7.65351485,34.5543492 7.63906485,34.1226055 7.68133485,33.6923018 C7.59270485,33.584556 7.50552485,33.4757961 7.41913485,33.3662047 C6.99201485,32.8125992 6.60027485,32.2333376 6.25400485,31.6241607 C5.52464485,30.3410477 4.99220485,28.9445508 4.67936485,27.4979482 C4.45699485,26.4696731 4.35063485,25.4217553 4.34500485,24.3695682 C4.34500485,24.3695682 4.34500485,24.2376265 4.34500485,24.2376265 C4.34798485,24.141928 4.34798485,24.0460774 4.35392485,23.9505208 C4.36581485,23.7593062 4.38956485,23.5690348 4.42503485,23.3808523 C4.49596485,23.0045482 4.61382485,22.6375129 4.77497485,22.2910024 C4.88247485,22.0598737 4.91995485,22.0075879 5.04827485,21.7880907 C5.04827485,21.7880907 5.09631485,21.716588 5.09631485,21.716588 C5.03305485,21.5094119 5.03324485,21.5098175 4.97302485,21.3014245 C4.97302485,21.3014245 4.91480485,21.0879002 4.91480485,21.0879002 C4.84109485,20.8005612 4.77184485,20.5125631 4.71342485,20.2215633 C4.61007485,19.7068173 4.53424485,19.1864026 4.48616485,18.6633715 C4.27799485,16.398621 4.59210485,14.0912791 5.40914485,11.9723733 C5.57471485,11.5430025 5.76050485,11.1216531 5.96565485,10.7102315 C6.06216485,10.5166845 6.16107485,10.3232187 6.26861485,10.135665 C6.38066485,9.94024204 6.44359485,9.83294245 6.57581485,9.65064164 C6.80052485,9.34080025 7.06394485,9.06004261 7.35793485,8.81705938 C7.87282485,8.3914914 8.48010485,8.08435759 9.12508485,7.923322 C9.77006485,7.76227627 10.4485348,7.74837326 11.0994048,7.88286029 C11.4710348,7.95964627 11.8328948,8.08427646 12.1737748,8.25289735 C12.5999348,8.46369375 12.9925948,8.74308238 13.3330448,9.07775855 C13.6133548,9.35329369 13.8462148,9.6731846 14.0952548,9.97692124 C14.2211248,10.1284549 14.3483448,10.2786804 14.4770448,10.42776 C15.0585548,11.0927011 15.6726148,11.7268345 16.3238048,12.3218854 C17.7271948,13.6043189 19.2890448,14.7082239 20.9650848,15.5925608 C22.3054548,16.2997889 23.7149048,16.8594079 25.1686448,17.2755449 C25.1686448,17.2755449 25.2336148,17.2936564 25.2336148,17.2936564 C25.2669548,17.1390805 25.2671148,17.1394658 25.3022848,16.9854679 C25.3437248,16.8135716 25.3436348,16.8139062 25.3872048,16.6423039 C25.5228348,16.1338046 25.6793148,15.6323025 25.8658248,15.1404949 C26.2732848,14.0660691 26.8077348,13.0415258 27.4546048,12.0955736 C28.3187348,10.8319208 29.3830248,9.71017816 30.5973548,8.78891871 C31.8272948,7.85581483 33.2090648,7.13078961 34.6725948,6.65715433 C35.8476448,6.27686494 37.0728148,6.05928436 38.3052848,6.01054777 C39.6543148,5.95719712 41.0102948,6.10453252 42.3168748,6.44954214 C43.4159948,6.73976113 44.4787548,7.16916232 45.4741348,7.72374131 C45.9394448,7.98299035 46.3866548,8.27128259 46.8214548,8.57991723 C46.8214548,8.57991723 46.8662448,8.61258068 46.8662448,8.61258068 C47.4594948,8.39474659 48.0378548,8.13482825 48.5968048,7.83811916 C48.8747648,7.69057081 49.1464448,7.5323138 49.4154448,7.36867203 C49.4154448,7.36867203 49.6656348,7.22725885 49.6656348,7.22725885 C49.7518248,7.18560053 49.8367448,7.14113321 49.9242048,7.10227374 C50.0991948,7.02451423 50.2788848,6.95813269 50.4621948,6.90354487 C51.1041648,6.71234046 51.7865548,6.66879595 52.4470948,6.77687638 C52.9186048,6.85402744 53.3774348,7.00777181 53.8014448,7.23069658 C54.6518548,7.67778329 55.3489948,8.40076007 55.7707048,9.27293815 C55.9809748,9.70780522 56.1222648,10.176431 56.1877648,10.6561811 C56.2459848,11.0826516 56.2438148,11.515237 56.1808548,11.9408151 C56.1808548,11.9408151 56.3307848,12.0980682 56.3307848,12.0980682 C56.4935648,12.2917774 56.5391248,12.3367518 56.6834248,12.5454389 C56.8456748,12.7800661 56.9860348,13.0301986 57.1020848,13.2914859 C57.3730848,13.901677 57.5092248,14.5711104 57.4984148,15.2402397 C57.4891448,15.8135689 57.3723048,16.3840487 57.1556748,16.9137016 C57.0834848,17.0902222 57.0004248,17.2619664 56.9069948,17.4279203 C56.8258548,17.5720411 56.7178148,17.7379037 56.6262948,17.8772988 C56.4289848,18.1778107 56.2252048,18.4739418 56.0149248,18.7652661 C55.3858748,19.6367546 54.6993748,20.465591 53.9615048,21.2443826 C53.5929648,21.6333728 53.2102248,22.0070504 52.8189348,22.3723416 C52.8189348,22.3723416 52.8050348,22.3850277 52.8050348,22.3850277 C52.7987248,22.6320165 52.7878848,22.8788229 52.7760348,23.1255987 C52.7632148,23.3647285 52.7484048,23.6036351 52.7315948,23.8425113 C52.6357448,25.1059106 52.4734448,26.362556 52.2383948,27.607205 C50.9220148,34.577744 47.4459148,41.1577413 42.2815348,45.9718029 C41.2739748,46.9110216 40.2040048,47.7814454 39.0797448,48.572913 C37.4235748,49.738839 35.6499948,50.732098 33.7942648,51.5313538 C31.4423848,52.5443061 28.9631048,53.2423974 26.4370648,53.6284367 C25.0212648,53.8448003 23.5940748,53.9590058 22.1630448,53.9928456 C21.9296548,53.9967904 21.6963648,53.9991126 21.4629448,53.9999036 Z M51.7312625,11.2819224 C49.906155,12.4053713 47.8894288,13.2224038 45.7339263,13.6608328 C44.01689,11.7539668 41.5629337,10.5632871 38.846145,10.5632871 C33.6385597,10.5632871 29.412304,14.9574025 29.412304,20.3765404 C29.412304,21.1462547 29.4933646,21.8923246 29.6554887,22.6109599 C21.8121639,22.2011899 14.8592897,18.2990608 10.2019335,12.3542921 C9.38886079,13.8090555 8.92459889,15.496707 8.92459889,17.2939511 C8.92459889,20.6966303 10.590047,23.7007933 13.1238363,25.4606669 C11.5787509,25.4133371 10.1208729,24.9674503 8.84599351,24.2375904 C8.84599351,24.2375904 8.84599351,24.3571569 8.84599351,24.3571569 C8.84599351,29.1137095 12.0995111,33.0818624 16.42034,33.9798635 C15.6293757,34.2102822 14.794194,34.3261111 13.9332235,34.3261111 C13.3252616,34.3261111 12.732037,34.2663293 12.1572382,34.1517424 C13.3584219,38.0489035 16.8416138,40.8873889 20.9720716,40.9633632 C17.7431189,43.5963455 13.6716157,45.1656695 9.25130153,45.1656695 C8.48981379,45.1656695 7.73692374,45.1208325 7,45.0311554 C11.1759001,47.8111068 16.1390816,49.4364779 21.4670374,49.4364779 C38.827745,49.4364779 48.3180913,34.485535 48.3180913,21.5161701 C48.3180913,21.0889657 48.3107025,20.6630149 48.2947463,20.2445277 C50.1382825,18.8607853 51.7398588,17.1332793 53,15.1653925 C51.3099888,15.9450777 49.4897975,16.4731576 47.5811425,16.7098067 C49.5303063,15.496707 51.0262838,13.5736601 51.7312625,11.2819224 Z" transform="translate(29.999506, 29.999904) scale(-1, 1) translate(-29.999506, -29.999904) "></path>
        </g>
    </g>
</svg>