<?xml version="1.0" encoding="utf-8"?>
<!-- Generator: Adobe Illustrator 18.1.1, SVG Export Plug-In . SVG Version: 6.00 Build 0)  -->
<svg version="1.1" id="Layer_1" xmlns="http://www.w3.org/2000/svg" xmlns:xlink="http://www.w3.org/1999/xlink" x="0px" y="0px"
	 width="512px" height="512px" viewBox="0 0 512 512" enable-background="new 0 0 512 512" xml:space="preserve">
<path fill-rule="evenodd" clip-rule="evenodd" fill="#010101" d="M341.8,55.7c42.3-0.7,59.7,14.1,82.4,31.6
	c24.1-0.7,46.9-14.8,64.1-24.2c-3.4,19.7-26.9,48.8-43.4,55.2c0,0.2,0,0.3,0,0.5c21.9-1.1,39.2-10.1,56.7-15.3c0,0.2,0,0.3,0,0.5
	c-8.6,13.6-20.2,28.1-32.6,38c-5.8,4.6-11.5,9.2-17.3,13.8c2.3,152.8-89.1,255.1-204.7,290c-64.9,19.6-144.2,9.7-196.8-12.8
	c-13.3-5.7-31.5-11.7-40.9-21.7c48.8,1.6,81.2-4.2,114.4-19.7c12.4-5.8,22.5-16.3,34.5-21.7c0-0.2,0-0.3,0-0.5
	c-45.8,0.2-84.9-34.3-94.2-70.5c0.2,0,0.3,0,0.5,0c13.4,4,32.1,1.5,44.4-1.5c0-0.2,0-0.3,0-0.5c-34.1-2.4-64.1-36.3-74-64.1
	c-2.7-7.5-10.2-25.2-5.9-36c12.2,6.4,26.1,12.1,44.4,12.3c-0.2-0.3-0.3-0.7-0.5-1c-30.1-13.2-53.9-70-38.5-113.9
	c2.5-7,4.1-15,8.9-19.7c0.2,0,0.3,0,0.5,0c6.5,13.5,28.6,31.1,40.4,40.5c43.6,34.2,93.9,60.4,167.2,65.1c0-0.5,0-1,0-1.5
	C234.8,129.1,277.3,78,306.7,65c8.1-2.6,16.1-5.3,24.2-7.9C334.5,56.6,338.1,56.2,341.8,55.7z"/>
</svg>
