<?xml version="1.0" encoding="utf-8"?>
<!-- Generated by IcoMoon.io -->
<!DOCTYPE svg PUBLIC "-//W3C//DTD SVG 1.1//EN" "http://www.w3.org/Graphics/SVG/1.1/DTD/svg11.dtd">
<svg version="1.1" xmlns="http://www.w3.org/2000/svg" xmlns:xlink="http://www.w3.org/1999/xlink" width="512" height="512" viewBox="0 0 512 512">
<g>
</g>
	<path d="M491.52 109.901c-17.357 7.706-35.968 12.877-55.526 15.232 19.968-11.955 35.303-30.899 42.496-53.453-18.663 11.059-39.347 19.123-61.337 23.45-17.639-18.79-42.752-30.515-70.553-30.515-53.376 0-96.64 43.264-96.64 96.614 0 7.577 0.845 14.951 2.509 22.016-80.307-4.019-151.526-42.496-199.168-100.966-8.346 14.259-13.133 30.874-13.133 48.589 0 33.536 17.075 63.104 43.008 80.435-15.847-0.512-30.745-4.839-43.776-12.083 0 0.41 0 0.793 0 1.203 0 46.822 33.331 85.862 77.517 94.771-8.090 2.202-16.64 3.379-25.472 3.379-6.221 0-12.263-0.589-18.176-1.715 12.288 38.4 48 66.329 90.265 67.098-33.075 25.933-74.727 41.37-120.013 41.37-7.808 0-15.488-0.461-23.040-1.357 42.752 27.418 93.542 43.418 148.147 43.418 177.741 0 274.944-147.251 274.944-274.969 0-4.173-0.077-8.345-0.281-12.493 18.893-13.619 35.251-30.643 48.231-50.023z" fill="#000000" />
</svg>
