<?xml version="1.0" encoding="utf-8"?>
<!-- Generator: Adobe Illustrator 18.0.0, SVG Export Plug-In . SVG Version: 6.00 Build 0)  -->
<!DOCTYPE svg PUBLIC "-//W3C//DTD SVG 1.1//EN" "http://www.w3.org/Graphics/SVG/1.1/DTD/svg11.dtd">
<svg version="1.1" id="Layer_1" xmlns="http://www.w3.org/2000/svg" xmlns:xlink="http://www.w3.org/1999/xlink" x="0px" y="0px"
	 viewBox="0 0 500 500" enable-background="new 0 0 500 500" xml:space="preserve">
<path d="M500,135c-17.8,7.9-36.7,13.2-56.7,15.5c20.4-12.2,36.1-31.5,43.5-54.6c-19,11.3-40.2,19.5-62.7,23.9
	C406,100.6,380.4,88.7,352,88.7c-54.6,0-98.8,44.2-98.8,98.7c0,7.7,0.9,15.2,2.5,22.5c-82.1-4-154.9-43.4-203.6-103.1
	c-8.5,14.6-13.4,31.5-13.4,49.7c0,34.3,17.5,64.6,43.9,82.2c-16.2-0.5-31.4-5-44.7-12.3c0,0.4,0,0.8,0,1.3
	c0,47.9,34.1,87.8,79.2,96.9c-8.3,2.2-17,3.4-26.1,3.4c-6.3,0-12.5-0.6-18.6-1.8c12.6,39.3,49,67.8,92.3,68.6
	C131,421.2,88.4,437,42.1,437c-8,0-15.8-0.5-23.5-1.4c43.7,28,95.6,44.3,151.5,44.3c181.6,0,281.1-150.5,281.1-281.1
	c0-4.3-0.1-8.5-0.3-12.8C470,172.2,486.7,154.8,500,135L500,135z"/>
</svg>
