<?xml version="1.0" encoding="utf-8"?>
<!-- Generator: Adobe Illustrator 17.0.0, SVG Export Plug-In . SVG Version: 6.00 Build 0)  -->
<!DOCTYPE svg PUBLIC "-//W3C//DTD SVG 1.1//EN" "http://www.w3.org/Graphics/SVG/1.1/DTD/svg11.dtd">
<svg version="1.1" id="Layer_1" xmlns="http://www.w3.org/2000/svg" xmlns:xlink="http://www.w3.org/1999/xlink" x="0px" y="0px"
	 width="512px" height="512px" viewBox="0 0 512 512" enable-background="new 0 0 512 512" xml:space="preserve">
<g>
	<g>
		<g>
			<path fill-rule="evenodd" clip-rule="evenodd" d="M298.076,102.51c3.714-2.964,7.428-5.929,11.142-8.891
				c7.943-6.372,15.493-15.715,21.013-24.452v-0.317c-11.338,3.373-22.461,9.153-36.612,9.844v-0.317
				c10.638-4.164,25.853-22.914,28.016-35.567c-11.102,6.062-25.826,15.083-41.388,15.56c-14.666-11.26-25.874-20.782-53.167-20.323
				c-2.334,0.317-4.669,0.636-7.003,0.953c-5.2,1.692-10.4,3.387-15.6,5.081c-18.998,8.343-46.428,41.25-35.658,73.039v0.953
				c-47.341-3.01-79.798-19.93-107.926-41.918c-7.659-5.987-21.923-17.339-26.107-26.04h-0.318
				c-3.063,3.035-4.148,8.204-5.73,12.702c-9.951,28.288,5.422,64.839,24.832,73.356c0.106,0.211,0.212,0.423,0.318,0.636
				c-11.824-0.119-20.769-3.82-28.653-7.94c-2.778,6.988,2.094,18.333,3.82,23.182c6.387,17.939,25.715,39.729,47.756,41.282v0.318
				c-7.923,1.896-19.979,3.517-28.653,0.952h-0.318c6.018,23.361,31.226,45.516,60.808,45.411v0.317
				c-7.737,3.49-14.268,10.224-22.285,13.972c-21.448,10.029-42.384,13.753-73.862,12.702c6.117,6.414,17.809,10.288,26.424,13.973
				c33.978,14.534,85.128,20.896,127.029,8.256C240.577,266.725,299.591,200.867,298.076,102.51z M373.663,216.489
				c-70.601,0-127.835,57.547-127.835,128.535s57.234,128.537,127.835,128.537c70.602,0,127.837-57.548,127.837-128.537
				S444.266,216.489,373.663,216.489z M373.663,459.279c-62.757,0-113.632-51.153-113.632-114.254
				c0-63.1,50.875-114.254,113.632-114.254c62.758,0,113.633,51.154,113.633,114.254
				C487.296,408.126,436.421,459.279,373.663,459.279z M420.303,333.465h-93.28c-5.62,0-10.176,4.714-10.176,10.529v61.911
				c0,5.815,4.556,10.529,10.176,10.529h93.28c5.621,0,10.177-4.714,10.177-10.529v-61.911
				C430.48,338.179,425.924,333.465,420.303,333.465z M379.06,381.077v12.481c0,3.161-2.477,5.724-5.532,5.724
				s-5.532-2.563-5.532-5.724v-13.395c-3.246-2.165-5.409-5.919-5.409-10.212c0-6.717,5.262-12.162,11.754-12.162
				s11.754,5.445,11.754,12.162C386.096,374.929,383.199,379.195,379.06,381.077z M350.768,305.456
				c0-14.15,11.087-25.621,24.763-25.621c13.676,0,24.762,11.471,24.762,25.621v21.205H420.2v-21.023
				c0-25.572-20.319-46.304-45.033-46.304s-44.751,20.731-44.751,46.304v21.023h20.352V305.456z"/>
		</g>
	</g>
</g>
</svg>
