<?xml version="1.0" encoding="utf-8"?>
<!-- Generator: Adobe Illustrator 19.1.0, SVG Export Plug-In . SVG Version: 6.00 Build 0)  -->
<svg version="1.1" id="Layer_1" xmlns="http://www.w3.org/2000/svg" xmlns:xlink="http://www.w3.org/1999/xlink" x="0px" y="0px"
   width="512px" height="512px" viewBox="0 0 512 512" style="enable-background:new 0 0 512 512;" xml:space="preserve">
<path d="M256,476.6L66,284.4c-27.1-26.4-42.1-61.7-42.1-99.5c0-76.5,62.2-138.7,138.7-138.7c35.3,0,68.4,13.1,93.8,36.5
  c25.4-23.4,58.5-36.5,93.8-36.5c76.5,0,138.7,62.2,138.7,138.7c0,31.4-10.8,62.1-30.3,86.6l-0.4,0.5l-5.5,6.4
  c-2.4,2.7-5.1,5.3-7.8,7.9L256,476.6z M162.6,86.1c-54.4,0-98.7,44.3-98.7,98.7c0,27,10.7,52.2,30.1,70.9l0.3,0.3l161.8,163.7
  l161.1-162.3l0.3-0.3c2-1.8,3.8-3.7,5.6-5.6l4.6-5.4c14-17.6,21.4-38.8,21.4-61.4c0-54.4-44.3-98.7-98.7-98.7
  c-30.7,0-59.2,13.9-78,38.2l-15.8,20.3l-15.8-20.3C221.8,100,193.3,86.1,162.6,86.1z"/>
</svg>
