<svg id="Layer_1" data-name="Layer 1" xmlns="http://www.w3.org/2000/svg" viewBox="0 0 512 512"><title>Redactor</title><g id="EhBSR0.tif"><path d="M109,186.19c0-19.88.05-39.76,0-59.64a264.49,264.49,0,0,0-2.07-30c-0.72-6.11-3.84-10.14-9.53-12.41-6.84-2.74-14-3.59-21.26-4.19-5.5-.46-11-0.87-16.54-1-3.81-.1-5.22-2-5.27-5.5-0.07-4.67-.07-9.34-0.31-14-0.2-3.91,1.64-5,5.3-5.06,16.09-.37,32.16.35,48.17,1.43,22.12,1.48,44.23.94,66.34,0.65,20.72-.27,41.44-1.09,62.14-2,4.95-.21,6.45,1.63,6.19,6.24a89.41,89.41,0,0,0,.19,11.92c0.33,4.2-1.36,6-5.52,6.19-10.51.56-21,1.41-31.52,2a36.55,36.55,0,0,0-9.15,1.63c-5.32,1.7-8.09,5.29-8.84,10.93-1.48,11.2-1.06,22.43-1.07,33.65,0,21.61-.58,43.25.3,64.82,1.25,30.7,1.72,61.49,5.21,92,2.58,22.59,10.3,43.31,30.19,56.77A89.6,89.6,0,0,0,269,356.5c18.63,0.78,36.95-1.17,54.72-7,33.22-10.81,51.46-34.64,58-68.09,4.34-22,3.4-44.39,3.26-66.67-0.13-20.75-2.93-41.32-4.76-61.95-1.34-15.13-2.4-30.29-3.5-45.44a60.69,60.69,0,0,0-2.19-13.25,22.28,22.28,0,0,0-21-16.31c-8.81-.27-17.63-0.08-26.44.08-4.55.09-6.8-1.53-6.32-6.4,0.46-4.63.66-9.3,0.77-14,0.07-3,1.58-4,4.24-3.93,8.3,0.07,16.6-.08,24.89.24,19.67,0.77,39.32,2.24,59,2.48,11.52,0.14,23.09-1.3,34.59-2.43,8.06-.79,9.2-0.21,10.39,7.85,0.05,0.34.1,0.68,0.14,1,1.4,12.38-.16,14.47-12.39,16.08-8.56,1.12-17.17,1.83-25.61,3.75-6.29,1.43-8.43,3.9-8.68,10.38-0.32,8.13.5,16.21,1.29,24.29,1.78,18.23,2.31,36.52,3.14,54.81,1.18,25.89,2.56,51.78,1.82,77.7a267.87,267.87,0,0,1-5.31,48.33c-6.41,30-25.26,50.52-50.55,65.88-22.28,13.52-46.92,20.11-72.64,22.65-30.28,3-60.41,2.33-90-5.84a140.84,140.84,0,0,1-41.77-19.12c-21.36-14.47-32.82-35.4-38.91-59.85-4.76-19.09-5.73-38.58-6.06-58.1-0.32-19.18-.07-38.38-0.07-57.57H109Z"/><path d="M254.74,420.7H442.5c10.37,0,12.55,2.16,12.57,12.38,0,4,.07,8,0,11.93-0.14,6-2.49,8.74-8.52,9.78a40,40,0,0,1-6.7.48q-185.17,0-370.33,0a46,46,0,0,1-8.23-.74c-4.5-.82-7-3.76-7.11-8.29-0.18-5.7-.21-11.41,0-17.11,0.19-5,3.21-7.93,8.16-8.33,1.89-.15,3.8-0.08,5.7-0.08H254.74Z"/></g></svg>