<?xml version="1.0" encoding="UTF-8" standalone="no"?>
<svg width="18px" height="13px" viewBox="0 0 18 13" version="1.1" xmlns="http://www.w3.org/2000/svg" xmlns:xlink="http://www.w3.org/1999/xlink">
    <!-- Generator: Sketch 39 (31667) - http://www.bohemiancoding.com/sketch -->
    <title>Group</title>
    <desc>Created with Sketch.</desc>
    <defs></defs>
    <g id="Page-1" stroke="none" stroke-width="1" fill="none" fill-rule="evenodd">
        <g id="Group-5-Copy" transform="translate(-5.000000, -7.000000)" fill="#FFFFFF">
            <g id="Group" transform="translate(5.000000, 7.000000)">
                <rect id="Rectangle-2" x="5" y="0" width="7" height="6"></rect>
                <polygon id="Line" points="8 9.5 8 10 9 10 9 9.5 9 6.5 9 6 8 6 8 6.5"></polygon>
                <polygon id="Line" points="16.5312195 10 17.0312195 10 17.0312195 9 16.5312195 9 0.5 9 0 9 0 10 0.5 10"></polygon>
                <polygon id="Line" points="2.625 13 3 13 3 11 2.625 11 0.375 11 0 11 0 13 0.375 13"></polygon>
                <polygon id="Line-Copy" points="9.625 13 10 13 10 11 9.625 11 7.375 11 7 11 7 13 7.375 13"></polygon>
                <polygon id="Line-Copy-2" points="16.625 13 17 13 17 11 16.625 11 14.375 11 14 11 14 13 14.375 13"></polygon>
            </g>
        </g>
    </g>
</svg>