<?xml version="1.0" encoding="utf-8"?>
<!-- Generator: Adobe Illustrator 21.0.0, SVG Export Plug-In . SVG Version: 6.00 Build 0)  -->
<svg version="1.1" id="Layer_1" xmlns="http://www.w3.org/2000/svg" xmlns:xlink="http://www.w3.org/1999/xlink" x="0px" y="0px"
	 width="512px" height="512px" viewBox="0 0 512 512" style="enable-background:new 0 0 512 512;" xml:space="preserve">
<g>
	<polygon points="484.2,258.8 269.3,258.8 269.3,187.5 269.3,173.2 354.9,173.2 354.9,2.1 155.2,2.1 155.2,173.2 240.8,173.2 
		240.8,187.5 240.8,258.8 26.9,258.8 12.6,258.8 12.6,287.3 26.9,287.3 240.8,287.3 269.3,287.3 484.2,287.3 498.4,287.3 
		498.4,258.8 	"/>
	<polygon points="23.3,315.9 12.6,315.9 12.6,372.9 23.3,372.9 87.5,372.9 98.2,372.9 98.2,315.9 87.5,315.9 	"/>
	<polygon points="223,315.9 212.3,315.9 212.3,372.9 223,372.9 287.2,372.9 297.9,372.9 297.9,315.9 287.2,315.9 	"/>
	<polygon points="422.7,315.9 412,315.9 412,372.9 422.7,372.9 486.8,372.9 497.5,372.9 497.5,315.9 486.8,315.9 	"/>
</g>
</svg>
