<?xml version="1.0" encoding="UTF-8"?>
<svg width="60px" height="60px" viewBox="0 0 60 60" version="1.1" xmlns="http://www.w3.org/2000/svg" xmlns:xlink="http://www.w3.org/1999/xlink">
    <!-- Generator: Sketch 44.1 (41455) - http://www.bohemiancoding.com/sketch -->
    <title>refresh</title>
    <desc>Created with Sketch.</desc>
    <defs>
        <path d="M12.9037555,43.5536472 C6.69622779,34.8349579 7.52561429,22.6859496 15.3906531,14.8761914 C24.1795941,6.14898429 38.4254274,6.14576643 47.209618,14.8682414 C55.9938086,23.5906975 55.990568,37.7364467 47.2016117,46.4636387 C44.7006117,48.9470862 41.7093624,50.7734208 38.431718,51.8600419 C37.2334035,52.2573186 36.586304,53.5439844 36.9863916,54.7338912 C37.386483,55.923798 38.6822374,56.5663518 39.8805824,56.169074 C43.827473,54.8605726 47.4310861,52.6603457 50.4366324,49.6759233 C61.0118974,39.1749651 61.0157861,22.1528378 50.4446386,11.6559493 C39.873453,1.15903429 22.7308975,1.16293357 12.1556401,11.6638993 C2.82011013,20.9338264 1.72266332,35.2856056 8.86586817,45.7442356 C8.86586817,45.7442356 3.77069829,44.3146818 3.77069829,44.3146818 C2.55494656,43.9735776 1.29090914,44.6756951 0.947391831,45.8829064 C0.603874906,47.0901176 1.3109606,48.345275 2.52671271,48.6863754 C2.52671271,48.6863754 12.9442595,51.6092308 12.9442595,51.6092308 C14.153352,51.9484649 15.4116829,51.2558646 15.7626807,50.0579321 C15.7626807,50.0579321 18.7868815,39.7365418 18.7868815,39.7365418 C19.1398122,38.5320146 18.4425441,37.2714512 17.2294943,36.9210001 C16.0164407,36.5705489 14.746962,37.2629144 14.3940275,38.4674454 C14.3940275,38.4674454 12.9037555,43.5536472 12.9037555,43.5536472 Z" id="path-1"></path>
    </defs>
    <g id="Page-1" stroke="none" stroke-width="1" fill="none" fill-rule="evenodd">
        <g id="refresh">
            <mask id="mask-2" fill="white">
                <use xlink:href="#path-1"></use>
            </mask>
            <use fill="#183247" xlink:href="#path-1"></use>
        </g>
    </g>
</svg>