<?xml version="1.0" encoding="UTF-8" standalone="no"?>
<svg width="485px" height="475px" viewBox="0 0 485 475" version="1.1" xmlns="http://www.w3.org/2000/svg" xmlns:xlink="http://www.w3.org/1999/xlink">
    <!-- Generator: Sketch 3.8.1 (29687) - http://www.bohemiancoding.com/sketch -->
    <title>unlink-symbol</title>
    <desc>Created with Sketch.</desc>
    <defs></defs>
    <g id="Page-1" stroke="none" stroke-width="1" fill="none" fill-rule="evenodd">
        <g id="unlink-symbol" transform="translate(250.000000, 227.000000) scale(1, -1) translate(-250.000000, -227.000000) translate(0.000000, -23.000000)" fill="#000000">
            <path d="M109.11696,318.483935 C110.862582,316.791444 111.73316,314.627133 111.73316,311.991002 C111.73316,309.354872 110.862582,307.190561 109.11696,305.49807 C107.375803,303.805579 105.143551,302.961497 102.420203,302.961497 L9.31295688,302.961497 C6.59407349,302.961497 4.36182113,303.805579 2.61619977,305.49807 C0.870578423,307.190561 0,309.354872 0,311.991002 C0,314.627133 0.870578423,316.791444 2.61619977,318.483935 C4.36182113,320.176426 6.59407349,321.020508 9.31295688,321.020508 L102.420203,321.020508 C105.143551,321.020508 107.375803,320.176426 109.11696,318.483935 L109.11696,318.483935 Z" id="Fill-1"></path>
            <path d="M316.595889,111.673708 C319.314772,111.673708 321.547024,110.822103 323.292646,109.114528 C325.038267,107.411319 325.908846,105.227718 325.908846,102.563725 L325.908846,11.4857398 C325.908846,8.82611408 325.038267,6.64251337 323.292646,4.93493761 C321.547024,3.22736185 319.314772,2.37575758 316.595889,2.37575758 C313.877005,2.37575758 311.644753,3.22736185 309.899132,4.93493761 C308.15351,6.64251337 307.282932,8.82611408 307.282932,11.4857398 L307.282932,102.563725 C307.282932,105.227718 308.15351,107.411319 309.899132,109.114528 C311.662611,110.822103 313.894863,111.673708 316.595889,111.673708 L316.595889,111.673708 Z" id="Fill-2"></path>
            <path d="M121.046117,348.511408 C118.519207,348.511408 116.304813,349.363012 114.34936,351.070588 L39.8680273,423.92861 C38.1224059,425.841444 37.2518275,428.025045 37.2518275,430.479412 C37.2518275,432.955615 38.1224059,435.139216 39.8680273,437.030214 C41.9931315,438.73779 44.2253839,439.589394 46.5647844,439.589394 C49.073836,439.589394 51.3060884,438.73779 53.2615415,437.030214 L127.742874,364.172193 C129.488495,362.259358 130.359074,360.075758 130.359074,357.62139 C130.359074,355.145187 129.488495,352.961586 127.742874,351.070588 C125.809743,349.363012 123.577491,348.511408 121.046117,348.511408 L121.046117,348.511408 Z" id="Fill-3"></path>
            <path d="M363.160673,129.893672 C365.477751,129.893672 367.710003,129.042068 369.85743,127.334492 L444.338763,54.4764706 C446.084384,52.5636364 446.954962,50.3800357 446.954962,47.9256684 C446.954962,45.4494652 446.084384,43.2658645 444.338763,41.3748663 C442.405632,39.6672906 440.17338,38.8156863 437.642006,38.8156863 C435.132954,38.8156863 432.900702,39.6672906 430.963107,41.3748663 L356.463916,114.232888 C354.736153,116.145722 353.847716,118.329323 353.847716,120.78369 C353.847716,123.259893 354.736153,125.443494 356.463916,127.334492 C358.606878,129.042068 360.839131,129.893672 363.160673,129.893672 L363.160673,129.893672 Z" id="Fill-4"></path>
            <path d="M357.334494,194.803387 C353.271795,190.811765 347.829564,186.820143 341.047981,182.845989 L335.815582,250.878253 L415.529314,329.147237 C420.971545,334.453387 423.67257,340.921212 423.67257,348.511408 C423.67257,355.913815 420.971545,362.259358 415.529314,367.582977 L372.750429,409.141266 C367.51803,414.272727 360.928421,416.783868 352.972673,416.679055 C345.003532,416.57861 338.431781,413.984492 333.181524,408.848663 L253.744591,330.872282 L184.196536,335.990642 C188.277094,342.624421 192.339793,347.948039 196.42035,351.922193 L293.612618,447.284403 C309.707158,463.421212 329.502772,471.474332 352.972673,471.474332 C376.255065,471.474332 395.930138,463.609002 412.042535,447.847772 L454.82142,406.289483 C471.299907,390.545722 479.550312,371.286364 479.550312,348.511408 C479.550312,326.129501 471.407055,306.76533 455.116077,290.440731 L357.334494,194.803387 Z" id="Fill-5"></path>
            <path d="M481.59059,159.760191 C479.844969,158.0677 477.612716,157.223619 474.893833,157.223619 L381.786587,157.223619 C379.063239,157.223619 376.830987,158.0677 375.08983,159.760191 C373.344208,161.452682 372.47363,163.616993 372.47363,166.253124 C372.47363,168.889254 373.344208,171.053565 375.08983,172.746056 C376.830987,174.438548 379.063239,175.282629 381.786587,175.282629 L474.893833,175.282629 C477.612716,175.282629 479.844969,174.438548 481.59059,172.746056 C483.336212,171.053565 484.20679,168.889254 484.20679,166.253124 C484.20679,163.616993 483.336212,161.452682 481.59059,159.760191 L481.59059,159.760191 Z" id="Fill-6"></path>
            <path d="M111.456361,69.2638146 C117.072708,64.1498217 123.662317,61.5906417 131.234117,61.5906417 C138.993426,61.5906417 145.583035,64.2502674 151.025266,69.5564171 L230.462199,147.550267 L300.010254,142.414439 C295.929696,135.78066 291.866997,130.47451 287.78644,126.482888 L190.594172,31.1381462 C174.499632,15.0013369 154.704018,6.93074866 131.234117,6.93074866 C107.951724,6.93074866 88.2632586,14.8135472 72.1642545,30.5573084 L29.3853702,72.1155971 C12.9068832,87.8768271 4.65647844,107.136185 4.65647844,129.893672 C4.65647844,152.293048 12.7997351,171.657219 29.1085709,187.964349 L126.872296,283.614795 C130.952853,287.593316 136.377226,291.584938 143.158809,295.57656 L148.409066,227.251693 L68.6774763,149.257843 C63.2352451,143.951693 60.5342197,137.483868 60.5342197,129.893672 C60.5342197,122.508734 63.2352451,116.145722 68.6774763,110.839572 L111.456361,69.2638146 Z" id="Fill-7"></path>
            <path d="M167.610901,366.731373 C164.892018,366.731373 162.659765,367.582977 160.914144,369.290553 C159.168523,370.993761 158.297944,373.177362 158.297944,375.841355 L158.297944,466.91934 C158.297944,469.578966 159.168523,471.749465 160.914144,473.470143 C162.659765,475.177718 164.892018,476.029323 167.610901,476.029323 C170.329785,476.029323 172.562037,475.177718 174.307658,473.470143 C176.05328,471.749465 176.923858,469.578966 176.923858,466.91934 L176.923858,375.841355 C176.923858,373.177362 176.05328,370.993761 174.307658,369.290553 C172.562037,367.582977 170.329785,366.731373 167.610901,366.731373 L167.610901,366.731373 Z" id="Fill-8"></path>
        </g>
    </g>
</svg>