<?xml version="1.0" encoding="utf-8"?>
<!-- Generator: Adobe Illustrator 19.2.1, SVG Export Plug-In . SVG Version: 6.00 Build 0)  -->
<svg version="1.1" id="Layer_1" xmlns="http://www.w3.org/2000/svg" xmlns:xlink="http://www.w3.org/1999/xlink" x="0px" y="0px"
	 width="512px" height="512px" viewBox="0 0 512 512" style="enable-background:new 0 0 512 512;" xml:space="preserve">
<g id="ep36JW.tif">
	<g>
		<path d="M67.6,168.8c-0.3-16.6,5.6-31.8,17.7-44.2c12.7-13,25.4-26.2,38.9-38.4c23.8-21.5,62.9-22.2,86.2-0.1
			c28.4,26.9,55.8,54.9,82.9,83.2c2,2.1,3.4,4.6,5.2,6.9c2,2.6,1,3.7-1.9,4c-9.4,0.8-18.7,1.6-28.1,2.3c-6.2,0.5-12.4,0.5-18.6,1.2
			c-3.3,0.4-5.4-0.6-7.6-2.8c-18.8-19-37.7-37.9-56.6-56.8c-12.4-12.4-24.3-12.4-36.8,0c-9.5,9.4-18.9,18.9-28.3,28.3
			c-10.9,10.9-11,23.1-0.2,34c18.5,18.7,37,37.3,55.8,55.6c3.8,3.7,5.5,7.5,5,12.8c-1.4,14.6-2.5,29.3-3.5,44
			c-0.3,3.7-1.5,3.7-4.2,2c-4.1-2.7-7.8-5.7-11.3-9.2c-24.7-24.7-49.4-49.3-74.1-74.1C74.8,204.4,67.4,188.6,67.6,168.8z"/>
		<path d="M342,444.2c-18.5,0.4-33.8-6-46.6-18.8c-25.5-25.6-51-51.1-76.6-76.7c-3.1-3.1-5.8-6.6-8.2-10.3c-1.6-2.4-1.6-3.8,1.8-4.1
			c15.6-1.1,31.1-2.3,46.7-3.6c3.5-0.3,6,0.9,8.4,3.4c18.8,19,38,37.5,56.4,56.9c9.9,10.5,25.9,11,36-0.2
			c9.2-10.1,19.3-19.3,28.9-29c10.7-10.7,10.7-22.9,0-33.6c-19.2-19.3-38.3-38.5-57.6-57.7c-2.3-2.3-3.5-4.6-3.2-8
			c1.3-15.6,2.5-31.1,3.5-46.7c0.3-4.5,2.1-3.9,4.6-1.9c2.6,2,5.5,3.9,7.8,6.2c26.7,26.6,53.6,52.9,79.8,79.9
			c22.8,23.5,24.1,60.2,3.6,85.8c-6,7.4-13.2,13.8-19.9,20.6c-7.9,7.8-15.5,15.9-23.9,23.1C371.7,439.9,357.6,444.7,342,444.2z"/>
		<path d="M349.9,169.8c-5.6,0.1-9.4-5.8-7-10.9c0.9-2,2.5-3.4,4-4.9c17.8-17.8,35.6-35.6,53.4-53.4c1.1-1.1,2.1-2.2,3.4-3.1
			c3.4-2.5,6.9-2.3,10,0.6c3,2.9,3.3,6.4,1,9.9c-0.9,1.4-2.1,2.6-3.3,3.8c-17.8,17.8-35.6,35.6-53.4,53.4
			C355.6,167.4,353.3,169.7,349.9,169.8z"/>
		<path d="M167.2,352.6c-0.3,2.7-1.6,4.9-3.4,6.7c-18.5,18.5-37.1,37.1-55.6,55.6c-1,1-2,1.9-3.2,2.5c-3.5,1.9-6.8,1.5-9.6-1.3
			c-2.6-2.7-2.8-6-0.9-9.2c0.8-1.3,1.8-2.4,2.9-3.5c18.2-18.2,36.4-36.5,54.7-54.7c1.2-1.2,2.4-2.4,3.9-3.1
			C161.1,343,167.3,346.9,167.2,352.6z"/>
		<path d="M321.2,111.2c0,10.2,0,20.3,0,30.5c0,1.2,0,2.4,0,3.6c-0.3,6.4-3.4,10.1-8.2,9.9c-4.9-0.2-7.4-3.6-7.5-10
			c0-22.9,0-45.8,0-68.7c0-1.2,0-2.5,0.2-3.6c0.9-3.9,3.4-6.1,7.3-6.2c3.8-0.1,6.4,1.9,7.4,5.5c0.6,2.2,0.7,4.5,0.7,6.7
			C321.2,89.6,321.2,100.4,321.2,111.2z"/>
		<path d="M108.4,323.7c-11.7,0-23.3,0.1-35,0c-5.7,0-8.8-2.4-9.3-6.7c-0.6-4.2,1.5-7.5,5.7-8.5c1.7-0.4,3.6-0.5,5.4-0.5
			c22.1,0,44.3,0,66.4,0c0.6,0,1.2,0,1.8,0c5.7,0.3,9.2,3.4,9.1,8.1c-0.1,4.5-3.5,7.6-9,7.6C131.8,323.8,120.1,323.7,108.4,323.7z"
			/>
		<path d="M203.8,403.8c0,11.2,0,22.5,0,33.7c0,1.8-0.1,3.7-0.7,5.4c-1.1,3.2-3.4,4.9-6.9,4.9c-3.6,0-6.1-1.6-7.4-4.9
			c-0.8-2.2-0.7-4.5-0.7-6.8c0-21.6,0-43.1,0-64.7c0-1.5,0-3,0.2-4.5c0.7-5,3.7-7.6,8.2-7.3c4.2,0.2,6.9,3.2,7.3,7.8
			c0.1,1.5,0.1,3,0.1,4.6C203.9,382.6,203.8,393.2,203.8,403.8z"/>
		<path d="M400.8,206.4c-11.8,0-23.6,0.1-35.5,0c-6.2-0.1-9.8-4.4-8.3-9.6c1.1-3.7,3.7-5.5,7.4-5.5c24.4,0,48.8-0.1,73.2,0
			c4.6,0,7.5,3,7.6,7.3c0.1,4.4-2.8,7.7-7.7,7.7C425.3,206.4,413,206.3,400.8,206.4C400.8,206.3,400.8,206.4,400.8,206.4z"/>
	</g>
</g>
</svg>
