<?xml version="1.0" encoding="utf-8"?>
<!-- Generator: Adobe Illustrator 18.1.1, SVG Export Plug-In . SVG Version: 6.00 Build 0)  -->
<svg version="1.1" id="Layer_1" xmlns="http://www.w3.org/2000/svg" xmlns:xlink="http://www.w3.org/1999/xlink" x="0px" y="0px"
	 width="512px" height="512px" viewBox="0 0 512 512" enable-background="new 0 0 512 512" xml:space="preserve">
<g>
	<path d="M255.5,9.9C118.8,9.9,8,119.5,8,254.8c0,135.3,110.8,244.9,247.5,244.9S503,390.1,503,254.8C503,119.5,392.2,9.9,255.5,9.9
		z M255.5,469.2C137,469.2,41,373.2,41,254.7c0-118.5,96-214.5,214.5-214.5S470,136.2,470,254.7C470,373.2,374,469.2,255.5,469.2z"
		/>
	<path d="M287.4,132.2c-3.7-11.1-16.6-19.3-31.9-19.3c-15.4,0-28.2,8.2-31.9,19.3c-0.7,0.9-1.1,1.9-1.1,2.9l0.1,1.8
		c-0.1,0.6-0.1,1.2-0.1,1.8c0,1.5,0.2,3,0.5,4.5L237.8,292c0,7.6,7.9,13.8,17.7,13.8c9.8,0,17.7-6.2,17.7-13.8L288,143.2
		c0.3-1.5,0.5-2.9,0.5-4.5c0-0.6-0.1-1.2-0.1-1.8l0.1-1.8C288.5,134.1,288.1,133.2,287.4,132.2z"/>
	<ellipse cx="255.5" cy="365.5" rx="24.4" ry="27.9"/>
</g>
</svg>
