<?xml version="1.0" encoding="utf-8"?>
<!-- Generator: Adobe Illustrator 19.2.1, SVG Export Plug-In . SVG Version: 6.00 Build 0)  -->
<svg version="1.1" id="Layer_1" xmlns="http://www.w3.org/2000/svg" xmlns:xlink="http://www.w3.org/1999/xlink" x="0px" y="0px"
	 width="512px" height="512px" viewBox="0 0 512 512" style="enable-background:new 0 0 512 512;" xml:space="preserve">
<g id="gZ4iky.tif">
	<g>
		<path d="M254.7,447c-54.7,0-109.4,0-164.2,0c-4.6,0-9.1-0.2-13.7-0.7c-11-1.2-20-10.4-20.1-21.5c-0.2-26.3-0.2-52.7,0-79
			c0.1-12.7,10.8-21.9,25.3-22c24.9-0.1,49.8,0,74.7,0c6.6,0,13.3,0.1,19.9-0.1c3.5-0.1,5.4,1.2,6.9,4.3c6.5,13.4,17.1,22,31.7,25.3
			c2,0.5,4.1,0.7,6.1,0.7c21.8,0.1,43.5,0.4,65.3,0c17.9-0.3,30.6-9.7,38.8-25.2c2-3.8,4.1-5.2,8.3-5.2c30.9,0.2,61.8,0,92.7,0.1
			c17,0,26.4,9.4,26.4,26.3c0,23-0.5,46.1,0.2,69.1c0.4,14.9-7.4,28-27.6,27.8c-9.3-0.1-18.6,0-27.9,0C350,447,302.4,447,254.7,447z
			 M360.6,400.5c0-7.9-6.5-14.6-14.3-14.7c-8-0.2-14.7,6.6-14.7,14.7c0,8.1,6.8,15,14.7,14.8C354.1,415.1,360.6,408.4,360.6,400.5z
			 M421.3,400.4c-0.1-8.1-6.8-14.8-14.8-14.6c-7.8,0.2-14.3,7-14.2,14.8c0.1,7.8,6.7,14.6,14.4,14.7
			C414.7,415.4,421.4,408.5,421.3,400.4z"/>
		<path d="M208.4,257.8c0-15.8,0-31.6,0-47.3c0-7.4,0-7.4-7.1-7.4c-17.2,0-34.4,0-51.6,0c-8.6,0-13.2-3-16.1-10.5
			c-2.7-6.8-0.2-12.1,4.7-17c34.9-34.8,69.6-69.6,104.5-104.4c7.8-7.8,16.3-7.9,24-0.1c34.9,34.9,69.8,69.8,104.8,104.7
			c4.9,4.9,7.2,10.3,4.4,17.1c-2.9,7-8.1,10.4-15.9,10.3c-17.7-0.2-35.3,0.1-53-0.1c-4.6-0.1-5.9,1.4-5.9,5.9
			c0.2,31.2,0.1,62.5,0.1,93.7c0,2.8-0.2,5.7-0.6,8.5c-1.2,8.2-7.2,13.8-15.5,13.9c-20.2,0.2-40.4,0.2-60.6,0
			c-8.3-0.1-14.3-5.6-15.6-13.7c-1.2-7.2-0.4-14.5-0.5-21.7C208.3,278.9,208.4,268.3,208.4,257.8z"/>
	</g>
</g>
</svg>
