<?xml version="1.0" encoding="utf-8"?>
<!-- Generator: Adobe Illustrator 18.1.1, SVG Export Plug-In . SVG Version: 6.00 Build 0)  -->
<svg version="1.1" id="Layer_1" xmlns="http://www.w3.org/2000/svg" xmlns:xlink="http://www.w3.org/1999/xlink" x="0px" y="0px"
	 viewBox="0 0 512 512" enable-background="new 0 0 512 512" xml:space="preserve">
<path fill="#010101" d="M298.5,322.9c-8.5-1.3-8.7-24.6-8.7-24.6s24.9-24.6,30.3-57.8c14.6,0,23.6-35.2,9-47.6
	c0.6-13,18.8-102.4-73.1-102.4s-73.7,89.4-73.1,102.4c-14.6,12.4-5.6,47.6,9,47.6c5.4,33.1,30.3,57.8,30.3,57.8s-0.2,23.3-8.7,24.6
	c-27.3,4.3-129.2,49.3-129.2,98.6H256h171.6C427.6,372.2,325.7,327.3,298.5,322.9z"/>
</svg>
