<?xml version="1.0" encoding="utf-8"?>
<!-- Generated by IcoMoon.io -->
<!DOCTYPE svg PUBLIC "-//W3C//DTD SVG 1.1//EN" "http://www.w3.org/Graphics/SVG/1.1/DTD/svg11.dtd">
<svg version="1.1" xmlns="http://www.w3.org/2000/svg" xmlns:xlink="http://www.w3.org/1999/xlink" width="512" height="512" viewBox="0 0 512 512">
<g>
</g>
	<path d="M379.392 369.869c-63.104-22.989-83.277-42.394-83.277-83.942 0-24.935 19.277-16.793 27.725-62.464 3.507-18.944 20.531-0.307 23.808-43.546 0-17.229-9.293-21.529-9.293-21.529s4.736-25.523 6.579-45.133c2.253-24.474-14.131-87.654-101.734-87.654-87.578 0-104.013 63.181-101.709 87.654 1.843 19.609 6.579 45.133 6.579 45.133s-9.319 4.275-9.319 21.529c3.251 43.238 20.275 24.601 23.782 43.546 8.474 45.671 27.75 37.529 27.75 62.464 0 41.549-20.173 60.954-83.277 83.942-63.334 23.040-104.448 46.567-104.448 62.618 0 16.026 0 53.888 0 53.888h481.28c0 0 0-37.863 0-53.888s-41.139-39.552-104.448-62.618z" fill="#000000" />
</svg>
