<svg id="Layer_1" data-name="Layer 1" xmlns="http://www.w3.org/2000/svg" viewBox="0 0 512 512"><title>Redactor</title><g id="_29vJmK.tif" data-name="29vJmK.tif"><path d="M359.28,204.68c2.61-2.49,4-3.78,5.37-5.13q49-49,98.05-98c8.1-8.08,15.85-9.38,24.06-4.21a15.35,15.35,0,0,1,7.57,12.57c0.07,1.05.08,2.11,0.08,3.16q0,142.6,0,285.2c0,7.7-2.37,13.8-9.73,17.14-6.46,2.93-12.66,2.47-18.31-2a68.46,68.46,0,0,1-5.82-5.34q-47.74-47.69-95.41-95.45a45,45,0,0,1-3.79-5c-2.89,2.4-2,4.46-2.05,6.22-0.44,15.09.54,30.19-.92,45.29-3,30.83-30.83,60.54-61.59,65.35a98,98,0,0,1-15.21,1.13q-92.52,0-185,0c-39.68,0-71-27.12-76.87-66.37a68.28,68.28,0,0,1-.42-10q0-93.31,0-186.62c0-34.18,21.57-63.36,54.2-73.58,8.27-2.59,16.88-3.38,25.5-3.39q90.15-.12,180.29,0c37.6,0.07,68.45,23.08,77.29,57.35a94.24,94.24,0,0,1,2.72,24C359.24,179,359.28,191.11,359.28,204.68Z"/></g></svg>