<?xml version="1.0" encoding="utf-8"?>
<!-- Generator: Adobe Illustrator 17.0.0, SVG Export Plug-In . SVG Version: 6.00 Build 0)  -->
<!DOCTYPE svg PUBLIC "-//W3C//DTD SVG 1.1//EN" "http://www.w3.org/Graphics/SVG/1.1/DTD/svg11.dtd">
<svg version="1.1" id="Layer_1" xmlns="http://www.w3.org/2000/svg" xmlns:xlink="http://www.w3.org/1999/xlink" x="0px" y="0px"
	 width="512px" height="512px" viewBox="0 0 512 512" enable-background="new 0 0 512 512" xml:space="preserve">
<g>
	<g id="view_2_">
		<circle fill="#010101" cx="373.161" cy="331.616" r="47.812"/>
		<path fill="#010101" d="M373.161,251.929c-79.687,0-127.5,79.193-127.5,79.193s47.812,80.182,127.5,80.182
			s127.5-79.687,127.5-79.687S452.848,251.929,373.161,251.929z M373.161,395.366c-69.727,0-107.578-63.75-107.578-63.75
			s37.852-63.75,107.578-63.75s107.578,63.75,107.578,63.75S442.887,395.366,373.161,395.366z"/>
	</g>
	<g>
		<path fill="#010101" d="M340.636,162.937v59.254c9.092-1.721,18.523-2.654,28.209-2.654c12.695,0,24.956,1.589,36.573,4.497
			V145.43c0-24.173-19.595-43.769-43.769-43.769H165.128l56.042,61.276H340.636z"/>
		<path fill="#010101" d="M237.03,333.953c0-10.274,1.585-20.224,4.511-29.697l-1.152-1.26H120.921V188.761h44.206l-76.595-87.1
			l-76.595,87.1h44.206v131.744c0,24.174,19.591,43.769,43.769,43.769h141.832C238.692,354.613,237.03,344.455,237.03,333.953z"/>
	</g>
</g>
</svg>
