<?xml version="1.0" encoding="UTF-8" standalone="no"?>
<svg width="70px" height="64px" viewBox="0 0 70 64" version="1.1" xmlns="http://www.w3.org/2000/svg" xmlns:xlink="http://www.w3.org/1999/xlink">
    <!-- Generator: Sketch 3.8.3 (29802) - http://www.bohemiancoding.com/sketch -->
    <title>warm-transfer</title>
    <desc>Created with Sketch.</desc>
    <defs></defs>
    <g id="Page-1" stroke="none" stroke-width="1" fill="none" fill-rule="evenodd">
        <g id="Transfer" transform="translate(-828.000000, -38.000000)" fill="#000000">
            <path d="M891.638418,64.0338983 C888.394305,64.0338983 885.853107,66.575096 885.853107,69.819209 C885.853107,73.063322 888.394305,75.6045198 891.638418,75.6045198 C894.882531,75.6045198 897.423729,73.063322 897.423729,69.819209 C897.423729,66.575096 894.882531,64.0338983 891.638418,64.0338983 Z M880.067797,61.5028249 C883.31191,61.5028249 885.853107,58.9616271 885.853107,55.7175141 C885.853107,52.4734011 883.31191,49.9322034 880.067797,49.9322034 C876.823684,49.9322034 874.282486,52.4734011 874.282486,55.7175141 C874.282486,58.9616271 876.823684,61.5028249 880.067797,61.5028249 Z M868.497175,49.5706215 C871.741288,49.5706215 874.282486,47.0294237 874.282486,43.7853107 C874.282486,40.5411977 871.741288,38 868.497175,38 C865.253062,38 862.711864,40.5411977 862.711864,43.7853107 C862.711864,47.0294237 865.253062,49.5706215 868.497175,49.5706215 Z M880.067797,78.8587571 C876.823684,78.8587571 874.282486,81.3999548 874.282486,84.6440678 C874.282486,87.8881808 876.823684,90.4293785 880.067797,90.4293785 C883.31191,90.4293785 885.853107,87.8881808 885.853107,84.6440678 C885.853107,81.3999548 883.31191,78.8587571 880.067797,78.8587571 Z M868.497175,90.4293785 C865.253062,90.4293785 862.711864,92.9705763 862.711864,96.2146893 C862.711864,99.4588023 865.253062,102 868.497175,102 C871.741288,102 874.282486,99.4588023 874.282486,96.2146893 C874.282486,92.9705763 871.741288,90.4293785 868.497175,90.4293785 Z M833.785311,64.0338983 C830.541198,64.0338983 828,66.575096 828,69.819209 C828,73.063322 830.541198,75.6045198 833.785311,75.6045198 C837.029424,75.6045198 839.570621,73.063322 839.570621,69.819209 C839.570621,66.575096 837.029424,64.0338983 833.785311,64.0338983 Z M848.248588,64.0338983 C845.004475,64.0338983 842.463277,66.575096 842.463277,69.819209 C842.463277,73.063322 845.004475,75.6045198 848.248588,75.6045198 C851.492701,75.6045198 854.033898,73.063322 854.033898,69.819209 C854.033898,66.575096 851.492701,64.0338983 848.248588,64.0338983 Z M868.497175,69.819209 C868.497175,66.575096 865.955977,64.0338983 862.711864,64.0338983 C859.467751,64.0338983 856.926554,66.575096 856.926554,69.819209 C856.926554,73.063322 859.467751,75.6045198 862.711864,75.6045198 C865.955977,75.6045198 868.497175,73.063322 868.497175,69.819209 Z M871.389831,69.819209 C871.389831,73.063322 873.931028,75.6045198 877.175141,75.6045198 C880.419254,75.6045198 882.960452,73.063322 882.960452,69.819209 C882.960452,66.575096 880.419254,64.0338983 877.175141,64.0338983 C873.931028,64.0338983 871.389831,66.575096 871.389831,69.819209 Z" id="warm-transfer"></path>
        </g>
    </g>
</svg>