<?xml version="1.0" encoding="utf-8"?>
<!-- Generator: Adobe Illustrator 18.1.1, SVG Export Plug-In . SVG Version: 6.00 Build 0)  -->
<svg version="1.1" id="Layer_1" xmlns="http://www.w3.org/2000/svg" xmlns:xlink="http://www.w3.org/1999/xlink" x="0px" y="0px"
	 width="512px" height="512px" viewBox="0 0 512 512" enable-background="new 0 0 512 512" xml:space="preserve">
<path fill="#010101" d="M255.3,9.5c-135.7,0-246,110.3-246,246c0,135.7,110.4,246,246,246c135.7,0,246-110.4,246-246
	C501.3,119.8,391,9.5,255.3,9.5z M255.3,466.5c-61.8,0-117.4-26.7-156-69.1c1.6-4.6,12.1-35.1,19.2-49.1c7.6-15.2,10.1-16.9,27-32.1
	c16.9-15.2-33.8-21.9-45.6-33.7c-11.8-11.8-17.7-11.8-31.2-22.5c-10.1-8-16,27.5-18.3,45.8c-4-16.1-6.1-32.9-6.1-50.3
	c0-44.8,14.1-86.3,37.9-120.5c-6.7,20.8-12.7,51.2,13.4,42c28.7-10.1,31.2-21.9,31.2-21.9l16.9-29.5c0,0,2.5,41.3,5.9,47.2
	c3.4,5.9,16.9,22.8,21.9-0.8c9.3-43.4,10.9-55.7,26.9-55.7c16,0,49-12.7,52.4,26.2c3.4,38.8-3.4,16-24.5,26.2
	c-21.1,10.1-26.2,45.6-6.8,49.8c19.4,4.2,63.3,21.9,63.3,21.9l21.9,24.5l6.8,26.2c0,0,4.2,29.5,4.2,32.1c0,2.5,0,27,0,27
	s0.9,53.2,20.2,40.5c19.4-12.7,72.6-95.4,61.6-126.6c-11-31.2-11.8-34.6,8.4-45.6c20.3-11,34.6-24.5,33.8-39.7
	c-0.6-10.6,0.5-17.1,0.6-24.1c16.4,30,25.8,64.4,25.8,101C466.3,371.9,371.7,466.5,255.3,466.5z"/>
</svg>
