<?xml version="1.0" encoding="UTF-8" standalone="no"?>
<svg width="60px" height="60px" viewBox="0 0 60 60" version="1.1" xmlns="http://www.w3.org/2000/svg" xmlns:xlink="http://www.w3.org/1999/xlink">
    <!-- Generator: Sketch 46.2 (44496) - http://www.bohemiancoding.com/sketch -->
    <title>web</title>
    <desc>Created with Sketch.</desc>
    <defs></defs>
    <g id="Page-1" stroke="none" stroke-width="1" fill="none" fill-rule="evenodd">
        <g id="web" fill="#183247">
            <path d="M40.731,51.9975 C41.6025,49.0785 42.3375,46.0965 42.8625,43.041 C45.9565,42.509 48.97,41.767 51.9275,40.878 C49.523,45.7115 45.582,49.6245 40.731,51.9975 M26.108,54.1605 C24.9845,53.982 23.889,53.737 22.818,53.4115 C22.8775,53.394 22.9405,53.387 23,53.373 C21.929,50.188 21.11,46.9015 20.4695,43.545 C23.539,43.923 26.647,44.1785 29.818,44.1785 C32.9925,44.1785 36.1005,43.923 39.17,43.5485 C38.5295,46.9015 37.707,50.4149756 36.6395,53.5999756 C36.769,53.6384756 32.4465,54.5 30,54.5 C28.6735,54.5 27.3785,54.367 26.108,54.1605 M8.1355,41.0005 C10.9565,41.83 13.83,42.537 16.7735,43.041 C17.288,46.0265 18.0055,48.942 18.849,51.798 C14.229,49.432 10.4735,45.6415 8.1355,41.0005 M6.5325,23.154 C9.686,22.1005 12.9445,21.285 16.2695,20.648 C15.895,23.721 15.6395,26.829 15.6395,30 C15.6395,33.171 15.895,36.279 16.2695,39.3485 C12.9445,38.715 9.686,37.903 6.5325,36.846 C5.8955,34.669 5.5,32.3835 5.5,30 C5.5,27.6165 5.8955,25.3345 6.5325,23.154 M18.849,8.1985 C18.0055,11.058 17.288,13.97 16.7735,16.9555 C13.83,17.463 10.9565,18.1665 8.1355,18.996 C10.477,14.3585 14.229,10.568 18.849,8.1985 M26.108,5.836 C27.3785,5.633 28.6735,5.5 30,5.5 C32.4465,5.5 34.8055,5.8675 37.035,6.536 C36.9055,6.5745 36.769,6.585 36.6395,6.627 C37.707,9.8085 38.5295,13.0985 39.17,16.4515 C36.097,16.0735 32.9925,15.818 29.818,15.818 C26.647,15.818 23.539,16.0735 20.4695,16.4515 C21.11,13.0985 21.929,9.8085 23,6.627 C22.9405,6.6095 22.8775,6.6025 22.818,6.585 C23.889,6.263 24.9845,6.0145 26.108,5.836 M51.9275,19.1185 C48.97,18.2295 45.9565,17.4875 42.8625,16.9555 C42.3375,13.9 41.6025,10.9215 40.731,8.0025 C45.582,10.372 49.523,14.285 51.9275,19.1185 M19.1395,30 C19.1395,26.619 19.4335,23.3185 19.885,20.0635 C23.1365,19.612 26.4405,19.318 29.818,19.318 C33.199,19.318 36.4995,19.612 39.7545,20.0635 C40.206,23.3185 40.5,26.619 40.5,30 C40.5,33.3775 40.206,36.6815 39.7545,39.933 C36.4995,40.388 33.199,40.6785 29.818,40.6785 C26.4405,40.6785 23.1365,40.388 19.8815,39.933 C19.4335,36.6815 19.1395,33.3775 19.1395,30 M43.3665,39.3485 C43.7445,36.279 44,33.171 44,30 C44,26.829 43.7445,23.721 43.3665,20.648 C46.7195,21.2885 53.2225,22.9615 53.2785,22.755 C54.0275,25.1035 54.5,27.3995 54.5,30 C54.5,32.6005 54.1955,34.7425 53.443,37.0945 C53.387,36.888 46.7195,38.708 43.3665,39.3485 M24.9145,2.483 C23.7315,2.7 22.566,2.9835 21.439,3.344 C10.1655,6.963 2,17.5225 2,30 C2,42.474 10.1655,53.037 21.439,56.656 C22.566,57.0165 23.7315,57.3 24.9145,57.517 C26.5665,57.818 28.2605,58 30,58 C45.463,58 58,45.463 58,30 C58,14.5335 45.463,2 30,2 C28.2605,2 26.5665,2.182 24.9145,2.483 Z"></path>
        </g>
    </g>
</svg>