<?xml version="1.0" encoding="utf-8"?>
<!-- Generator: Adobe Illustrator 21.0.2, SVG Export Plug-In . SVG Version: 6.00 Build 0)  -->
<svg version="1.1" id="Layer_1" xmlns="http://www.w3.org/2000/svg" xmlns:xlink="http://www.w3.org/1999/xlink" x="0px" y="0px"
	 width="512px" height="512px" viewBox="0 0 512 512" style="enable-background:new 0 0 512 512;" xml:space="preserve">
<g>
	<path d="M203.7,379.6c11.8,32.7,28.6,64.9,49.8,95.1c21.2-30.2,38-62.1,49.8-95.1H203.7z"/>
	<path d="M309,139c-12.3-35.1-30.6-68.2-55.5-96.8c-24.9,29-42.9,61.7-55.5,96.8H309z"/>
	<path d="M173.9,157.4h-118c-13.9,27.8-21.6,59.2-22.5,92.7H162C162,218.7,165.3,187.6,173.9,157.4z"/>
	<path d="M232.3,39c-71.5,6.5-131.1,44.5-166.2,100h112.7C191,102.7,208.6,68.8,232.3,39z"/>
	<path d="M328.6,361.2h120.5c14.7-27.8,22.9-59.6,24.5-92.7h-129C342.9,299.1,338,330.6,328.6,361.2z"/>
	<path d="M271.5,481.2c70.2-5.7,131.1-44.9,167.4-102.1h-116C310.7,415.1,293.5,449,271.5,481.2z"/>
	<path d="M461.7,23l-66.2,67.6C362.4,62.3,320.8,43.6,274.7,39c23.7,30.2,41.2,63.7,53.5,100h19.9l-30.3,30.9c-1-4.2-2-8.4-3.1-12.5
		H192.2c-8.2,29.4-12.3,61.3-12.3,92.7h59.3l-18,18.4h-40.5c0.7,12.3,2.1,24.8,4,37.3l-16,16.3c-3.4-17.8-5.4-35.7-6.4-53.6h-129
		c2,33.1,11,64.9,24.9,92.7h72.3l-18,18.4H69.3c5.6,8.9,11.9,17.2,18.6,25.1l-60.6,61.9l23.3,22.9L485.1,45.9L461.7,23z"/>
	<path d="M438.5,139c-2.7-4.1-5.6-8.1-8.5-12l-11.8,12H438.5z"/>
	<path d="M400.2,157.4l-56.6,57.8c1,11.6,1.4,23.2,1.4,34.9h128.6c-1.6-33.1-9.8-64.9-24.5-92.7H400.2z"/>
	<path d="M326.3,232.8l-16.9,17.3h17.2C326.7,244.3,326.5,238.6,326.3,232.8z"/>
	<path d="M200.6,361.2h108.8c9.4-30.6,15.1-61.7,16.7-92.7h-34.8L200.6,361.2z"/>
	<path d="M182.6,379.6l-58.3,59.5c31.8,23.9,69.9,39.2,111.2,42.6c-22.5-32.7-39.2-67-51.5-102.1H182.6z"/>
</g>
</svg>
