<?xml version="1.0" encoding="utf-8"?>
<!-- Generator: Adobe Illustrator 17.0.0, SVG Export Plug-In . SVG Version: 6.00 Build 0)  -->
<!DOCTYPE svg PUBLIC "-//W3C//DTD SVG 1.1//EN" "http://www.w3.org/Graphics/SVG/1.1/DTD/svg11.dtd">
<svg version="1.1" id="Layer_1" xmlns="http://www.w3.org/2000/svg" xmlns:xlink="http://www.w3.org/1999/xlink" x="0px" y="0px"
	 width="512px" height="512px" viewBox="0 0 512 512" enable-background="new 0 0 512 512" xml:space="preserve">
<g>
	<path d="M483.821,40.414H28.727c-13.205,0-23.909,10.704-23.909,23.909v375.329c0,13.205,10.704,23.909,23.909,23.909h455.094
		c13.205,0,23.909-10.704,23.909-23.909V64.323C507.73,51.118,497.025,40.414,483.821,40.414z M349.687,61.437
		c14.188,0,25.69,11.502,25.69,25.69c0,14.188-11.502,25.69-25.69,25.69c-14.188,0-25.69-11.502-25.69-25.69
		C323.997,72.939,335.498,61.437,349.687,61.437z M258.06,61.437c14.188,0,25.69,11.502,25.69,25.69
		c0,14.188-11.502,25.69-25.69,25.69c-14.188,0-25.69-11.502-25.69-25.69C232.37,72.939,243.872,61.437,258.06,61.437z
		 M467.003,425.842H45.545V134.359h421.458V425.842z M441.313,112.817c-14.188,0-25.69-11.502-25.69-25.69
		c0-14.188,11.502-25.69,25.69-25.69c14.188,0,25.69,11.502,25.69,25.69C467.003,101.315,455.501,112.817,441.313,112.817z"/>
	<rect x="70.259" y="201.016" width="200.959" height="20.9"/>
	<rect x="70.259" y="268.733" width="200.959" height="20.9"/>
	<rect x="70.259" y="336.451" width="200.959" height="20.9"/>
</g>
</svg>
