<?xml version="1.0" encoding="utf-8"?>
<!-- Generator: Adobe Illustrator 21.0.2, SVG Export Plug-In . SVG Version: 6.00 Build 0)  -->
<svg version="1.1" id="Layer_1" xmlns="http://www.w3.org/2000/svg" xmlns:xlink="http://www.w3.org/1999/xlink" x="0px" y="0px"
	 width="512px" height="512px" viewBox="0 0 512 512" style="enable-background:new 0 0 512 512;" xml:space="preserve">
<g>
	<path d="M309.5,361.4c9.4-30.7,15.1-61.7,16.8-92.8H180.8c1.6,30.7,7.4,62.1,16.8,92.8H309.5z"/>
	<path d="M314.8,157.5H192.2c-8.2,29.4-12.3,61.3-12.3,92.8h146.7C327.1,218.4,323,187.3,314.8,157.5z"/>
	<path d="M203.6,379.8c11.9,32.7,28.6,65,49.9,95.2c21.3-30.2,38-62.1,49.9-95.2H203.6z"/>
	<path d="M309.1,139.1c-12.3-35.1-30.7-68.2-55.6-96.9c-24.9,29-42.9,61.7-55.6,96.9H309.1z"/>
	<path d="M438.6,139.1c-36-54.8-94.8-93.2-163.9-100.1c23.7,30.2,41.3,63.8,53.5,100.1H438.6z"/>
	<path d="M173.8,157.5H55.7c-13.9,27.8-21.7,59.3-22.5,92.8H162C162,218.8,165.2,187.8,173.8,157.5z"/>
	<path d="M232.2,39c-71.5,6.5-131.2,44.5-166.3,100.1h112.8C191,102.8,208.5,68.8,232.2,39z"/>
	<path d="M344.6,268.7c-1.6,30.7-6.5,62.1-15.9,92.8h120.6c14.7-27.8,22.9-59.7,24.5-92.8H344.6z"/>
	<path d="M345,250.3h128.7c-1.6-33.1-9.8-65-24.5-92.8H334C341.8,187.8,345,218.8,345,250.3z"/>
	<path d="M162.4,268.7H33.2c2,33.1,11,65,24.9,92.8h120.1C168.9,330.8,164,299.7,162.4,268.7z"/>
	<path d="M69.2,379.8C105.6,437,166,476.3,235.5,482c-22.5-32.7-39.2-67-51.5-102.2H69.2z"/>
	<path d="M271.5,481.6c70.3-5.7,131.2-45,167.6-102.2H323C310.7,415.4,293.5,449.3,271.5,481.6z"/>
</g>
</svg>
