<?xml version="1.0" encoding="utf-8"?>
<!-- Generated by IcoMoon.io -->
<!DOCTYPE svg PUBLIC "-//W3C//DTD SVG 1.1//EN" "http://www.w3.org/Graphics/SVG/1.1/DTD/svg11.dtd">
<svg version="1.1" xmlns="http://www.w3.org/2000/svg" xmlns:xlink="http://www.w3.org/1999/xlink" width="1024" height="1024" viewBox="0 0 1024 1024"><g id="icomoon-ignore">
</g>
<path d="M352.2 808.6l466.2-80.8c3.4-0.6 5.8-4 5.2-7.4l-98.8-568.2c-0.2-1.6-1.2-3.2-2.6-4.2s-3-1.4-4.8-1l-466.2 80.8c-3.4 0.6-5.8 4-5.2 7.4l98.6 568.2c0.2 1.6 1.2 3.2 2.6 4.2 1 0.8 2.4 1.2 3.6 1.2 0.6 0 1-0.2 1.4-0.2zM713.4 160.6l96.4 555.6-453.6 78.8-96.4-555.6 453.6-78.8zM304 877l451.6-78.4c1.6-0.2 3.2-1.2 4.2-2.6s1.4-3.2 1-4.8l-7.6-43.8c-0.6-3.4-3.8-5.8-7.4-5.2-3.4 0.6-5.8 4-5.2 7.4l6.4 37.4-439 76.4-93.8-541 37.4-6.4c3.4-0.6 5.8-4 5.2-7.4s-3.8-5.8-7.4-5.2l-43.8 7.6c-1.6 0.2-3.2 1.2-4.2 2.6s-1.4 3-1 4.8l96 553.6c0.6 3.2 3.2 5.2 6.2 5.2 0.6 0 1-0.2 1.4-0.2z"></path>
<path d="M552.4 449.8c0 7.069-5.731 12.8-12.8 12.8s-12.8-5.731-12.8-12.8c0-7.069 5.731-12.8 12.8-12.8s12.8 5.731 12.8 12.8z"></path>
<path d="M556.4 510.8c0 3.535-2.865 6.4-6.4 6.4s-6.4-2.865-6.4-6.4c0-3.535 2.865-6.4 6.4-6.4s6.4 2.865 6.4 6.4z"></path>
<path d="M556.4 509.6l-12.8 2.2-16.4-59.8 25-4.2z"></path>
<path d="M564 532.6c0 5.633-4.567 10.2-10.2 10.2s-10.2-4.567-10.2-10.2c0-5.633 4.567-10.2 10.2-10.2s10.2 4.567 10.2 10.2z"></path>
<path d="M453.4 591.2c-1.4 0.2-2.8 0.2-4.2-0.4-4.4-1.6-6.6-6.4-5-10.8l76-208c1.6-4.4 6.4-6.6 10.8-5s6.6 6.4 5 10.8l-76 208c-1.2 3-3.8 5-6.6 5.4z"></path>
<path d="M667.8 554.8l-214.6 36.4c-4.6 0.8-9-2.4-9.8-7s2.4-9 7-9.8l214.6-36.4c4.6-0.8 9 2.4 9.8 7 0.8 4.8-2.4 9-7 9.8z"></path>
<path d="M667.8 554.8c-3 0.4-6-0.6-8-3l-138.6-171.6c-3-3.6-2.4-9 1.2-11.8 3.6-3 9-2.4 11.8 1.2l138.6 171.6c3 3.6 2.4 9-1.2 11.8-1 1-2.4 1.6-3.8 1.8z"></path>
</svg>
