<?xml version="1.0" encoding="UTF-8" standalone="no"?>
<svg width="97px" height="97px" viewBox="0 0 97 97" version="1.1" xmlns="http://www.w3.org/2000/svg" xmlns:xlink="http://www.w3.org/1999/xlink">
    <!-- Generator: Sketch 40.1 (33804) - http://www.bohemiancoding.com/sketch -->
    <title>Group</title>
    <desc>Created with Sketch.</desc>
    <defs></defs>
    <g id="Page-1" stroke="none" stroke-width="1" fill="none" fill-rule="evenodd">
        <g id="Group">
            <path d="M0,28.9985186 C0,23.4764892 4.48535582,19 9.99996174,19 L60.8440595,19 C66.3668859,19 70.841872,23.4802474 70.8392194,29.0097542 L70.8225596,63.7381084 C70.8199076,69.2663429 66.3424353,73.7478625 60.8141123,73.7478625 L10.9500795,73.7478625 L0,96.697435 L0,28.9985186 Z" id="Rectangle" fill="#CDCCCC"></path>
            <path d="M96.8398546,10.3222722 C96.8398546,4.80017928 92.3613855,0.29768896 86.8309528,0.265644054 L49.0089017,0.0464922897 C43.4811379,0.0144628479 39,4.4573625 39,9.99334536 L39,40.0926337 C39,45.6181584 43.4774042,50.0974813 48.9957595,50.0974813 L86.8211424,50.0974813 L96.8398546,63.4252233 L96.8398546,10.3222722 Z" id="Rectangle" fill="#BDBCBF"></path>
            <path d="M39,19 L61.0066283,19 C66.5258151,19 71,23.4817758 71,28.9953282 L71,50.0499992 L48.9933717,50.0151087 C43.4741849,50.0063583 39,45.5248119 39,39.9988903 L39,19 Z" id="Rectangle" fill="#7E7E7E"></path>
            <polygon id="★" fill="#FFFFFF" points="55 26 52.8958333 32.2916667 46.5 32.2916667 51.625 36.25 49.5416667 42.5625 55 38.5625 60.4791667 42.5625 58.375 36.25 63.5 32.2916667 57.0833333 32.2916667"></polygon>
        </g>
    </g>
</svg>