<?xml version="1.0" encoding="UTF-8"?>
<svg width="360px" height="360px" viewBox="0 0 360 360" version="1.1" xmlns="http://www.w3.org/2000/svg" xmlns:xlink="http://www.w3.org/1999/xlink">
    <!-- Generator: Sketch 44 (41411) - http://www.bohemiancoding.com/sketch -->
    <title>huddle-logo-green</title>
    <desc>Created with Sketch.</desc>
    <defs>
        <path d="M158.932384,317.864769 C186.075586,317.864769 233.9816,299.064449 233.9816,299.064449 L317.864769,317.864769 L302.905269,226.33644 C302.905269,226.33644 317.864769,183.029015 317.864769,158.932384 C317.864769,71.1564522 246.708316,0 158.932384,0 C71.1564522,0 0,71.1564522 0,158.932384 C0,246.708316 71.1564522,317.864769 158.932384,317.864769 Z" id="path-1"></path>
    </defs>
    <g id="Page-1" stroke="none" stroke-width="1" fill="none" fill-rule="evenodd">
        <g id="huddle-logo-green">
            <g id="Group" transform="translate(31.000000, 21.000000)">
                <circle id="Oval-4-Copy-2" stroke="#FFFFFF" stroke-width="12" cx="162.136666" cy="108.780794" r="31.2188612"></circle>
                <circle id="Oval-4-Copy" stroke="#FFFFFF" stroke-width="12" cx="224.574389" cy="205.275456" r="31.2188612"></circle>
                <circle id="Oval-4-Copy-2" stroke="#FFFFFF" stroke-width="12" cx="99.6989439" cy="205.275456" r="31.2188612"></circle>
                <g id="Group-3" transform="translate(119.199288, 140.768683)" stroke="#FFFFFF" stroke-width="12" stroke-linecap="square">
                    <path d="M0.517727563,33.4350013 L21.4108617,1.63189502" id="Line"></path>
                    <path d="M63.5729537,31.7864769 L84.0071174,0" id="Line-Copy" transform="translate(73.790036, 15.893238) scale(-1, 1) translate(-73.790036, -15.893238) "></path>
                    <path d="M23.8398577,64.7081851 L61.6317082,64.7081851" id="Line-Copy" transform="translate(42.735783, 64.708185) scale(-1, 1) translate(-42.735783, -64.708185) "></path>
                </g>
                <g id="Group-2" transform="translate(0.567616, 0.567616)">
                    <mask id="mask-2" fill="white">
                        <use xlink:href="#path-1"></use>
                    </mask>
                    <g id="Mask">
                        <use fill="#FFFFFF" fill-rule="evenodd" xlink:href="#path-1"></use>
                        <path stroke="#7EC7B7" stroke-width="12" d="M310.510797,310.06771 L296.739496,225.809266 L297.234078,224.377464 C297.259662,224.303398 297.312626,224.148692 297.39114,223.91718 C297.524156,223.524959 297.679075,223.063566 297.854065,222.536839 C298.35642,221.024735 298.917191,219.297088 299.521724,217.384683 C301.250737,211.915049 302.980235,206.072429 304.592799,200.105342 C306.146166,194.357303 307.508495,188.792317 308.626089,183.527771 C310.72063,173.661219 311.864769,165.272825 311.864769,158.932384 C311.864769,74.4701607 243.394608,6 158.932384,6 C74.4701607,6 6,74.4701607 6,158.932384 C6,243.394608 74.4701607,311.864769 158.932384,311.864769 C165.969074,311.864769 175.17893,310.469594 185.96451,307.909976 C191.968689,306.485073 198.320662,304.733123 204.88106,302.726904 C211.507675,300.700435 217.987343,298.526981 224.046957,296.354124 C226.165676,295.594393 228.078854,294.889655 229.752673,294.258329 C230.335736,294.038411 230.846384,293.843717 231.2804,293.676548 C231.536587,293.577873 231.707756,293.511308 231.789696,293.479151 L233.50048,292.807768 L310.510797,310.06771 Z"></path>
                    </g>
                    <g id="Group-4" mask="url(#mask-2)" stroke="#7EC7B7" stroke-width="12">
                        <g transform="translate(82.029618, 82.029618)">
                            <path d="M82.0296177,27.6061213 L27.3432059,115.94571" id="Line" fill="#252525" stroke-linecap="square"></path>
                            <path d="M136.71603,27.6061213 L82.0296177,115.94571" id="Line-Copy-2" fill="#252525" stroke-linecap="square" transform="translate(109.372824, 71.775916) scale(-1, 1) translate(-109.372824, -71.775916) "></path>
                            <path d="M38.2804883,111.252669 L136.71603,111.252669" id="Line-Copy-3" fill="#252525" stroke-linecap="square"></path>
                            <ellipse id="Oval-4" fill="#D8F4EE" cx="82.0296177" cy="27.6061213" rx="27.3432059" ry="27.6061213"></ellipse>
                            <ellipse id="Oval-4-Copy" fill="#D8F4EE" cx="136.71603" cy="115.94571" rx="27.3432059" ry="27.6061213"></ellipse>
                            <ellipse id="Oval-4-Copy-2" fill="#D8F4EE" cx="27.3432059" cy="115.94571" rx="27.3432059" ry="27.6061213"></ellipse>
                        </g>
                    </g>
                </g>
            </g>
        </g>
    </g>
</svg>