<?xml version="1.0" encoding="utf-8"?>
<!-- Generator: Adobe Illustrator 16.0.4, SVG Export Plug-In . SVG Version: 6.00 Build 0)  -->
<!DOCTYPE svg PUBLIC "-//W3C//DTD SVG 1.1//EN" "http://www.w3.org/Graphics/SVG/1.1/DTD/svg11.dtd">
<svg version="1.1" id="Layer_1" xmlns="http://www.w3.org/2000/svg" xmlns:xlink="http://www.w3.org/1999/xlink" x="0px" y="0px"
	 width="841.89px" height="595.28px" viewBox="0 0 841.89 595.28" enable-background="new 0 0 841.89 595.28" xml:space="preserve">
<g>
	<path fill="#7FC7B7" d="M421.43,29.103c-148.998,0-269.777,120.788-269.777,269.783c0,148.989,120.779,269.769,269.777,269.769
		h202.339c37.248,0,67.441-30.18,67.441-67.436V298.885C691.21,149.891,570.425,29.103,421.43,29.103z M661.21,478.718
		c0,33.113-26.835,59.937-59.942,59.937H421.43c-132.43,0-239.777-107.349-239.777-239.77C181.653,166.458,289,59.102,421.43,59.102
		c132.427,0,239.78,107.356,239.78,239.783V478.718z"/>
	<path fill="#7FC7B7" d="M516.112,297.23c-1.442,0.393-2.014-0.072-2.703-1.167c-8.338-13.248-16.7-26.48-25.108-39.684
		c-0.695-1.09-0.705-1.753,0.123-2.791c13.986-17.55,18.584-37.394,14.041-59.293c-7.48-36.063-43.762-59.823-79.877-52.445
		c-39.366,8.041-63.558,48.68-52.017,87.331c2.852,9.548,7.506,18.101,14.028,25.792c-0.181,0.357-0.274,0.595-0.412,0.806
		c-8.772,13.571-17.562,27.132-26.299,40.727c-0.648,1.014-1.244,0.911-2.19,0.657c-8.099-2.181-16.315-2.928-24.675-2.057
		c-16.124,1.68-30.024,8.205-41.346,19.73c-21.733,22.129-26.293,54.715-11.778,81.994c13.189,24.783,40.983,39.346,68.661,35.277
		c25.603-3.764,43.544-18.009,54.047-41.615c0.62-1.396,1.273-1.964,2.878-1.958c21.63,0.062,43.261,0.062,64.892,0
		c1.682-0.006,2.369,0.553,2.992,2.072c15.401,37.573,60.36,53.3,95.76,33.547c25.887-14.447,39.545-43.979,33.985-73.485
		C593.683,311.229,554.739,286.722,516.112,297.23z"/>
	<path fill="#DAEFEC" d="M337.838,394.539c-15.571,0.06-29.997-12.563-30.093-30.869c-0.088-16.95,13.602-30.766,30.043-30.743
		c16.544,0.023,29.919,13.784,29.919,30.789C367.71,380.748,354.396,394.478,337.838,394.539z"/>
	<path fill="#DAEFEC" d="M435.985,178.745c16.552,0.012,29.923,13.763,29.923,30.769c0,17.111-13.394,30.879-30.06,30.82
		c-15.82-0.056-29.864-12.936-29.896-30.864C405.922,192.393,419.497,178.735,435.985,178.745z"/>
	<path fill="#FFFFFF" d="M481.734,319.666c-7.252,8.825-12.021,18.854-14.342,30.044c-0.038,0.176-0.141,0.337-0.247,0.585
		c-20.722,0-41.441,0-62.356,0c-0.263-1.021-0.556-2.096-0.818-3.176c-2.465-10.139-6.989-19.255-13.627-27.299
		c-0.867-1.054-0.924-1.769-0.158-2.941c8.611-13.219,17.168-26.477,25.703-39.747c0.639-0.989,1.162-1.322,2.419-0.981
		c11.818,3.207,23.667,3.175,35.484-0.023c1.199-0.324,1.777-0.131,2.437,0.917c8.469,13.46,16.981,26.896,25.502,40.324
		C482.244,318.181,482.488,318.746,481.734,319.666z"/>
	<path fill="#DAEFEC" d="M534.06,394.539c-15.697-0.047-29.871-12.863-29.912-30.857c-0.039-17.03,13.58-30.771,30.025-30.755
		c16.54,0.018,29.934,13.787,29.936,30.772C564.11,380.808,550.673,394.589,534.06,394.539z"/>
</g>
</svg>
