<?xml version="1.0" encoding="UTF-8"?>
<svg width="360px" height="360px" viewBox="0 0 360 360" version="1.1" xmlns="http://www.w3.org/2000/svg" xmlns:xlink="http://www.w3.org/1999/xlink">
    <!-- Generator: Sketch 44.1 (41455) - http://www.bohemiancoding.com/sketch -->
    <title>huddle-logo-green copy</title>
    <desc>Created with Sketch.</desc>
    <defs>
        <path d="M158.932384,317.864769 L317.864769,317.864769 L317.864769,158.932384 C317.864769,71.1564522 246.708316,0 158.932384,0 C71.1564522,0 0,71.1564522 0,158.932384 C0,246.708316 71.1564522,317.864769 158.932384,317.864769 Z" id="path-1"></path>
    </defs>
    <g id="Page-1" stroke="none" stroke-width="1" fill="none" fill-rule="evenodd">
        <g id="huddle-logo-green-copy">
            <g id="Group" transform="translate(23.000000, 21.000000)">
                <g id="Group-2" transform="translate(0.567616, 0.567616)">
                    <mask id="mask-2" fill="white">
                        <use xlink:href="#path-1"></use>
                    </mask>
                    <path stroke="#7EC7B7" stroke-width="12" d="M311.864769,311.864769 L311.864769,158.932384 C311.864769,74.4701607 243.394608,6 158.932384,6 C74.4701607,6 6,74.4701607 6,158.932384 C6,243.394608 74.4701607,311.864769 158.932384,311.864769 L311.864769,311.864769 Z"></path>
                    <g id="Group-4" mask="url(#mask-2)" stroke="#7EC7B7" stroke-width="12">
                        <g transform="translate(82.029618, 82.029618)">
                            <path d="M82.0296177,27.6061213 L27.3432059,115.94571" id="Line" fill="#252525" stroke-linecap="square"></path>
                            <path d="M136.71603,27.6061213 L82.0296177,115.94571" id="Line-Copy-2" fill="#252525" stroke-linecap="square" transform="translate(109.372824, 71.775916) scale(-1, 1) translate(-109.372824, -71.775916) "></path>
                            <path d="M38.2804883,111.252669 L136.71603,111.252669" id="Line-Copy-3" fill="#252525" stroke-linecap="square"></path>
                            <ellipse id="Oval-4" fill="#D8F4EE" cx="82.0296177" cy="27.6061213" rx="27.3432059" ry="27.6061213"></ellipse>
                            <ellipse id="Oval-4-Copy" fill="#D8F4EE" cx="136.71603" cy="115.94571" rx="27.3432059" ry="27.6061213"></ellipse>
                            <ellipse id="Oval-4-Copy-2" fill="#D8F4EE" cx="27.3432059" cy="115.94571" rx="27.3432059" ry="27.6061213"></ellipse>
                        </g>
                    </g>
                </g>
            </g>
        </g>
    </g>
</svg>