<?xml version="1.0" encoding="UTF-8"?>
<svg width="64px" height="64px" viewBox="0 0 64 64" version="1.1" xmlns="http://www.w3.org/2000/svg" xmlns:xlink="http://www.w3.org/1999/xlink">
    <!-- Generator: Sketch 49.2 (51160) - http://www.bohemiancoding.com/sketch -->
    <title>Shopify</title>
    <desc>Created with Sketch.</desc>
    <defs></defs>
    <g id="Shopify" stroke="none" stroke-width="1" fill="none" fill-rule="evenodd">
        <g id="shopify-logo-default-cmyk" transform="translate(8.000000, 5.000000)">
            <path d="M21.9737143,2.10451015 C22.2707143,2.10451015 22.5698571,2.2054756 22.8561429,2.40311008 C20.6511429,3.44326897 18.2875714,6.06321482 17.2894286,11.2949434 C15.8305714,11.7477841 14.4047143,12.1903135 13.0864286,12.5997606 C14.2555714,8.60926256 17.0318571,2.10451015 21.9737143,2.10451015 L21.9737143,2.10451015 Z M24.018,4.04433559 C24.441,5.10726541 24.7161429,6.63248807 24.7161429,8.69089419 C24.7161429,8.79615604 24.7152857,8.89239544 24.7144286,8.98992376 C23.0395714,9.50978839 21.2207143,10.0743356 19.3971429,10.6406014 C20.421,6.67931885 22.3401429,4.7661311 24.018,4.04433559 L24.018,4.04433559 Z M29.0935714,7.6314015 C28.3294286,7.86856288 27.4607143,8.13794727 26.5191429,8.4301026 C26.52,8.2483648 26.5204286,8.06920485 26.5204286,7.87371856 C26.5204286,6.16804703 26.2847143,4.79491699 25.9054286,3.70620876 C27.4277143,3.89782829 28.4412857,5.63357463 29.0935714,7.6314015 L29.0935714,7.6314015 Z M41.4501429,10.6676687 C41.4132857,10.3987139 41.1784286,10.2500584 40.9842857,10.2337321 C40.7905714,10.2174058 36.69,9.91279088 36.69,9.91279088 C36.69,9.91279088 33.8421429,7.07845458 33.5297143,6.76481724 C33.2168571,6.45160955 32.6061429,6.54656003 32.3691429,6.61659138 C32.334,6.62690274 31.7468571,6.80864054 30.7752857,7.10981831 C29.8238571,4.36570645 28.1451429,1.84371856 25.1914286,1.84371856 C25.11,1.84371856 25.026,1.84715568 24.9415714,1.85188172 C24.102,0.738254364 23.0614286,0.254479515 22.1627143,0.254479515 C15.2824286,0.254479515 11.9952857,8.87692839 10.9645714,13.2588286 C8.29114286,14.0893231 6.39171429,14.6796487 6.14914286,14.7561247 C4.65642857,15.2252918 4.60971429,15.2725522 4.41385714,16.6822016 C4.266,17.7494279 0.361285714,48.0218753 0.361285714,48.0218753 L30.7877143,53.7369491 L47.274,50.1614834 C47.274,50.1614834 41.4865714,10.9366234 41.4501429,10.6676687 L41.4501429,10.6676687 Z" id="Fill-3" fill="#8DB849"></path>
            <path d="M40.9842857,10.2337321 C40.7905714,10.2174058 36.69,9.91279088 36.69,9.91279088 C36.69,9.91279088 33.8421429,7.07845458 33.5297143,6.76524688 C33.4127143,6.64795511 33.255,6.58823513 33.09,6.56245672 L30.7894286,53.7365194 L47.274,50.1614834 C47.274,50.1614834 41.4865714,10.9370531 41.4501429,10.6676687 C41.4132857,10.3987139 41.1784286,10.2500584 40.9842857,10.2337321" id="Fill-4" fill="#5A863E"></path>
            <path d="M25.1914286,19.3657342 L23.1587143,25.4275276 C23.1587143,25.4275276 21.3775714,24.4745857 19.1944286,24.4745857 C15.9938571,24.4745857 15.8327143,26.4883092 15.8327143,26.9957143 C15.8327143,29.7643156 23.0314286,30.8250973 23.0314286,37.3100862 C23.0314286,42.4120634 19.8038571,45.6975219 15.4512857,45.6975219 C10.2278571,45.6975219 7.55742857,42.4387011 7.55742857,42.4387011 L8.95585714,37.8067503 C8.95585714,37.8067503 11.7012857,40.1697713 14.0181429,40.1697713 C15.5314286,40.1697713 16.1477143,38.9749419 16.1477143,38.1019131 C16.1477143,34.4903577 10.2415714,34.3292426 10.2415714,28.3950524 C10.2415714,23.4004852 13.8171429,18.5670331 21.036,18.5670331 C23.8174286,18.5670331 25.1914286,19.3657342 25.1914286,19.3657342" id="Fill-5" fill="#FFFFFE"></path>
        </g>
    </g>
</svg>