<?xml version="1.0" encoding="UTF-8"?>
<svg width="240px" height="240px" viewBox="0 0 240 240" version="1.1" xmlns="http://www.w3.org/2000/svg" xmlns:xlink="http://www.w3.org/1999/xlink">
  <!-- Generator: Sketch 64 (93537) - https://sketch.com -->
  <title>get-started-chat</title>
  <desc>Created with Sketch.</desc>
  <defs>
    <polygon id="path-1" points="0 0.000393055369 223.108 0.000393055369 223.108 210.725951 0 210.725951"></polygon>
    <polygon id="path-3" points="0.0004 -0.0004 217.517 -0.0004 217.517 0.9996 0.0004 0.9996"></polygon>
    <polygon id="path-5" points="0 221 217.517 221 217.517 0.531 0 0.531"></polygon>
  </defs>
  <g id="Illustrations" stroke="none" stroke-width="1" fill="none" fill-rule="evenodd">
    <g id="get-started-chat">
      <g>
        <rect id="Rectangle" fill-opacity="0.01" fill="#FFFFFF" x="0" y="0" width="240" height="240"></rect>
        <g id="Group-3" transform="translate(120.000000, 120.500000) rotate(-90.000000) translate(-120.000000, -120.500000) translate(8.000000, 15.000000)">
          <mask id="mask-2" fill="white">
              <use xlink:href="#path-1"></use>
          </mask>
          <g id="Clip-2"></g>
          <path d="M8.2772,192.3202 C10.4252,196.0372 13.9982,198.6922 19.5632,199.5752 C26.8222,200.7262 34.0062,198.0332 41.1122,196.2412 C52.6572,193.3302 64.7312,192.8282 76.5242,194.6422 C87.6782,196.3582 97.8562,202.8462 108.7832,204.2262 C118.0552,205.3902 125.0512,192.8102 130.6202,186.8992 C139.3252,177.6572 139.8472,185.0922 146.0802,193.1062 C149.9552,198.0882 154.8312,202.1512 160.1662,205.1172 C170.0792,210.6292 181.8642,212.3972 192.5192,208.9852 C212.0242,202.7392 225.5382,179.9332 222.7422,157.9802 C220.7062,141.9972 211.2552,127.6822 210.1642,111.6062 C209.1032,95.9782 216.0492,81.3282 219.4952,66.1812 C222.9402,51.0352 221.3342,31.8282 208.7442,23.9342 C195.0982,15.3792 176.9932,25.2542 162.5932,18.3332 C154.2642,14.3292 148.7692,5.4452 140.1802,1.9342 C130.6032,-1.9818 119.6142,0.6732 110.4442,4.3752 C101.2062,8.1052 92.5242,13.3412 83.1312,16.6062 C64.2872,23.1562 48.3872,12.7852 29.5712,12.8502 C21.7122,12.8772 9.0372,9.0002 2.9732,16.1442 C-5.9538,26.6622 7.3502,41.0982 14.9262,47.3602 C21.3892,52.7002 29.6502,56.2162 33.6562,63.8682 C36.2832,68.8872 36.5932,74.9912 35.5932,80.6042 C31.5252,103.4532 19.9482,126.7162 12.3672,148.4232 C8.5752,159.2802 1.6512,180.8542 8.2772,192.3202" id="Fill-1" fill="#EBEFF3" mask="url(#mask-2)"></path>
        </g>
        <g id="Group-63" transform="translate(11.000000, 9.000000)">
          <g id="Group-3" transform="translate(0.000000, 220.469000)">
            <mask id="mask-4" fill="white">
                <use xlink:href="#path-3"></use>
            </mask>
            <g id="Clip-2"></g>
            <line x1="0.0004" y1="0.4996" x2="217.5174" y2="0.4996" id="Stroke-1" stroke="#CFD7DF" mask="url(#mask-4)"></line>
          </g>
          <polygon id="Fill-4" fill="#FFFFFF" points="60.455 218.396 181.859 218.396 181.859 82.226 60.455 82.226"></polygon>
          <g id="Group-62" transform="translate(0.000000, 0.469000)">
            <path d="M164.2113,158.3013 C164.2113,162.0923 167.2843,165.1653 171.0753,165.1653 C174.8663,165.1653 177.9403,162.0923 177.9403,158.3013 C177.9403,154.5103 174.8663,151.4373 171.0753,151.4373 C167.2843,151.4373 164.2113,154.5103 164.2113,158.3013 Z" id="Stroke-5" stroke="#CFD7DF"></path>
            <path d="M142.4067,158.3013 C142.4067,162.0923 145.4797,165.1653 149.2707,165.1653 C153.0617,165.1653 156.1357,162.0923 156.1357,158.3013 C156.1357,154.5103 153.0617,151.4373 149.2707,151.4373 C145.4797,151.4373 142.4067,154.5103 142.4067,158.3013 Z" id="Stroke-7" stroke="#CFD7DF"></path>
            <path d="M120.602,158.3013 C120.602,162.0923 123.675,165.1653 127.466,165.1653 C131.257,165.1653 134.331,162.0923 134.331,158.3013 C134.331,154.5103 131.257,151.4373 127.466,151.4373 C123.675,151.4373 120.602,154.5103 120.602,158.3013 Z" id="Stroke-9" stroke="#CFD7DF"></path>
            <mask id="mask-6" fill="white">
              <use xlink:href="#path-5"></use>
            </mask>
            <g id="Clip-12"></g>
            <polygon id="Fill-11" fill="#FFFFFF" mask="url(#mask-6)" points="142.514 214.759 174.828 214.759 174.828 190.072 142.514 190.072"></polygon>
            <polygon id="Stroke-13" stroke="#CFD7DF" mask="url(#mask-6)" points="142.514 214.759 174.828 214.759 174.828 190.072 142.514 190.072"></polygon>
            <polygon id="Stroke-14" stroke="#CFD7DF" mask="url(#mask-6)" points="64.531 212.079 92.843 212.079 92.843 94.354 64.531 94.354"></polygon>
            <polyline id="Stroke-15" stroke="#CFD7DF" mask="url(#mask-6)" points="82.9536 220.4996 184.9906 220.4996 184.9906 76.3226 50.0516 76.3226 50.0516 104.0076"></polyline>
            <polygon id="Fill-16" fill="#EBEFF3" mask="url(#mask-6)" points="102.603 202.804 112.467 202.804 112.467 122.939 102.603 122.939"></polygon>
            <polygon id="Fill-17" fill="#CFD7DF" mask="url(#mask-6)" points="119.866 61.155 156.544 61.155 156.544 42.368 119.866 42.368"></polygon>
            <g id="Group-20" mask="url(#mask-6)">
              <g transform="translate(81.000000, 60.000000)">
                <polyline id="Fill-18" stroke="none" fill="#FFFFFF" fill-rule="evenodd" points="49.3637 69.0611 115.2777 69.0611 115.2777 0.5251 0.8317 0.5251 0.8317 54.3871 18.0437 69.0611 40.7997 69.0611"></polyline>
                <polyline id="Stroke-19" stroke="#CFD7DF" stroke-width="1" fill="none" points="49.3637 69.0611 115.2777 69.0611 115.2777 0.5251 0.8317 0.5251 0.8317 54.3871 18.0437 69.0611 40.7997 69.0611"></polyline>
              </g>
            </g>
            <path d="M116.8041,82.1026 C111.1411,82.1026 106.5511,86.6926 106.5511,92.3546 C106.5511,98.0176 111.1411,102.6076 116.8041,102.6076 C122.4661,102.6076 127.0561,98.0176 127.0561,92.3546 C127.0561,86.6926 122.4661,82.1026 116.8041,82.1026 L116.8041,82.1026 Z M128.1631,76.5776 C129.8631,77.8026 131.3561,79.2956 132.5811,80.9956 L139.7741,79.7386 C140.6901,81.4016 141.4291,83.1746 141.9691,85.0326 L135.9941,89.2296 C136.1581,90.2476 136.2441,91.2906 136.2441,92.3546 C136.2441,93.4186 136.1581,94.4626 135.9941,95.4796 L141.9691,99.6776 C141.4291,101.5356 140.6901,103.3086 139.7741,104.9716 L132.5811,103.7146 C131.3561,105.4146 129.8631,106.9076 128.1631,108.1326 L129.4201,115.3256 C127.7571,116.2406 125.9851,116.9806 124.1261,117.5196 L119.9291,111.5456 C118.9111,111.7096 117.8671,111.7956 116.8041,111.7956 C115.7401,111.7956 114.6961,111.7096 113.6791,111.5456 L109.4811,117.5196 C107.6231,116.9806 105.8501,116.2406 104.1881,115.3256 L105.4441,108.1326 C103.7441,106.9076 102.2511,105.4146 101.0261,103.7146 L93.8331,104.9716 C92.9181,103.3086 92.1781,101.5356 91.6381,99.6776 L97.6141,95.4796 C97.4491,94.4626 97.3641,93.4186 97.3641,92.3546 C97.3641,91.2906 97.4491,90.2476 97.6141,89.2296 L91.6381,85.0326 C92.1781,83.1746 92.9181,81.4016 93.8331,79.7386 L101.0261,80.9956 C102.2511,79.2956 103.7441,77.8026 105.4441,76.5776 L104.1881,69.3846 C105.8501,68.4696 107.6231,67.7286 109.4811,67.1896 L113.6791,73.1646 C114.6961,72.9996 115.7401,72.9146 116.8041,72.9146 C117.8671,72.9146 118.9111,72.9996 119.9291,73.1646 L124.1261,67.1896 C125.9851,67.7286 127.7571,68.4696 129.4201,69.3846 L128.1631,76.5776 Z" id="Fill-21" fill="#EBEFF3" mask="url(#mask-6)"></path>
            <path d="M168.2446,95.9073 C163.7706,95.4113 159.7416,98.6363 159.2456,103.1103 C158.7496,107.5833 161.9736,111.6123 166.4486,112.1093 C170.9226,112.6053 174.9516,109.3803 175.4476,104.9063 C175.9436,100.4323 172.7196,96.4033 168.2446,95.9073 L168.2446,95.9073 Z M177.7046,92.5373 C178.9396,93.6543 179.9886,94.9653 180.8076,96.4153 L186.6006,96.0523 C187.1796,97.4463 187.6076,98.9113 187.8716,100.4273 L182.7826,103.2203 C182.8236,104.0383 182.8006,104.8703 182.7066,105.7113 C182.6136,106.5523 182.4546,107.3693 182.2356,108.1583 L186.5886,111.9983 C185.9996,113.4193 185.2596,114.7553 184.3906,115.9893 L178.8176,114.3653 C177.7006,115.6013 176.3906,116.6503 174.9396,117.4693 L175.3026,123.2623 C173.9086,123.8403 172.4426,124.2693 170.9276,124.5323 L168.1346,119.4453 C167.3156,119.4853 166.4836,119.4613 165.6426,119.3673 C164.8036,119.2753 163.9856,119.1153 163.1956,118.8973 L159.3556,123.2493 C157.9346,122.6603 156.5986,121.9203 155.3656,121.0523 L156.9886,115.4793 C155.7536,114.3623 154.7046,113.0513 153.8856,111.6013 L148.0926,111.9633 C147.5146,110.5703 147.0856,109.1043 146.8216,107.5893 L151.9106,104.7963 C151.8696,103.9773 151.8926,103.1453 151.9866,102.3043 C152.0796,101.4643 152.2386,100.6473 152.4576,99.8573 L148.1046,96.0173 C148.6936,94.5963 149.4336,93.2613 150.3036,92.0273 L155.8756,93.6503 C156.9926,92.4153 158.3036,91.3653 159.7536,90.5463 L159.3906,84.7533 C160.7846,84.1763 162.2506,83.7463 163.7656,83.4833 L166.5586,88.5713 C167.3776,88.5313 168.2096,88.5543 169.0506,88.6483 C169.8906,88.7413 170.7076,88.9003 171.4976,89.1193 L175.3376,84.7663 C176.7586,85.3553 178.0946,86.0953 179.3276,86.9643 L177.7046,92.5373 Z" id="Fill-22" fill="#EBEFF3" mask="url(#mask-6)"></path>
            <path d="M139.891,29.8853 C141.537,29.8853 143.055,30.7813 143.849,32.2223 L144.143,32.7223901 L146.411,32.7223901 C147.947,32.7223901 149.196122,31.4733 149.196122,29.9363 L149.196122,3.8423 C149.203,3.0983 148.908,2.3823 148.389,1.8563 C147.864,1.3313 147.153,1.03021023 146.411,1.03021023 L144.143,1.03021023 L143.849,1.5303 C143.055,2.9703 141.537,3.8673 139.891,3.8673 C138.245,3.8673 136.728,2.9703 135.927,1.5303 L135.659,1.03021023 L133.392,1.03021023 C132.649,1.0243 131.931,1.3193 131.4,1.8503 C130.874,2.3753 130.58,3.0923 130.58591,3.8423 L130.58591,29.9363 C130.58591,30.6793 130.881,31.3903 131.412,31.9153 C131.938,32.4343 132.649,32.7283 133.392,32.7223901 L135.659,32.7223901 L135.927,32.2223 C136.728,30.7813 138.245,29.8853 139.891,29.8853" id="Fill-23" fill="#CFD7DF" mask="url(#mask-6)"></path>
            <path d="M144.0405,23.2852 L144.0405,10.4672 C144.0405,9.2412 143.0465,8.2462 141.8185,8.2462 L137.9635,8.2462 C136.7365,8.2462 135.7425,9.2412 135.7425,10.4672 L135.7425,23.2852 C135.7425,24.5122 136.7365,25.5062 137.9635,25.5062 L141.8185,25.5062 C143.0465,25.5062 144.0405,24.5122 144.0405,23.2852 Z" id="Stroke-24" stroke="#FFFFFF" mask="url(#mask-6)"></path>
            <line x1="135.6586" y1="1.0303" x2="133.3916" y2="1.0303" id="Stroke-25" stroke="#B1BDC7" mask="url(#mask-6)"></line>
            <line x1="149.1957" y1="29.9366" x2="149.1957" y2="3.8416" id="Stroke-26" stroke="#B1BDC7" mask="url(#mask-6)"></line>
            <line x1="156.5434" y1="42.3682" x2="134.8554" y2="42.3682" id="Stroke-27" stroke="#CFD7DF" mask="url(#mask-6)"></line>
            <polygon id="Fill-28" fill="#CFD7DF" mask="url(#mask-6)" points="18.629 220.5 151.161 220.5 151.161 93.671 18.629 93.671"></polygon>
            <polygon id="Stroke-29" stroke="#CFD7DF" stroke-width="0.5" mask="url(#mask-6)" points="18.629 220.5 151.161 220.5 151.161 93.671 18.629 93.671"></polygon>
            <path d="M29.4916,99.8878 C29.4916,101.4808 28.2006,102.7718 26.6076,102.7718 C25.0146,102.7718 23.7226,101.4808 23.7226,99.8878 C23.7226,98.2948 25.0146,97.0038 26.6076,97.0038 C28.2006,97.0038 29.4916,98.2948 29.4916,99.8878 Z" id="Stroke-30" stroke="#FFFFFF" stroke-width="0.5" mask="url(#mask-6)"></path>
            <line x1="29.4916" y1="99.8878" x2="23.7226" y2="99.8878" id="Stroke-31" stroke="#FFFFFF" stroke-width="0.5" mask="url(#mask-6)"></line>
            <path d="M28.6469,212.2437 C29.7739,213.3697 29.7739,215.1957 28.6469,216.3227 C27.5209,217.4487 25.6949,217.4487 24.5679,216.3227 C23.4419,215.1957 23.4419,213.3697 24.5679,212.2437 C25.6949,211.1167 27.5209,211.1167 28.6469,212.2437 Z" id="Stroke-32" stroke="#FFFFFF" stroke-width="0.5" mask="url(#mask-6)"></path>
            <line x1="28.6469" y1="212.2437" x2="24.5679" y2="216.3227" id="Stroke-33" stroke="#FFFFFF" stroke-width="0.5" mask="url(#mask-6)"></line>
            <path d="M145.2211,97.8482 C146.3481,98.9742 146.3481,100.8012 145.2211,101.9272 C144.0951,103.0542 142.2691,103.0542 141.1421,101.9272 C140.0161,100.8012 140.0161,98.9742 141.1421,97.8482 C142.2691,96.7222 144.0951,96.7222 145.2211,97.8482 Z" id="Stroke-34" stroke="#FFFFFF" stroke-width="0.5" mask="url(#mask-6)"></path>
            <line x1="145.2211" y1="97.8482" x2="141.1421" y2="101.9272" id="Stroke-35" stroke="#FFFFFF" stroke-width="0.5" mask="url(#mask-6)"></line>
            <path d="M141.142,210.2037 C142.269,209.0777 144.095,209.0777 145.221,210.2037 C146.348,211.3307 146.348,213.1567 145.221,214.2827 C144.095,215.4097 142.269,215.4097 141.142,214.2827 C140.016,213.1567 140.016,211.3307 141.142,210.2037 Z" id="Stroke-36" stroke="#FFFFFF" stroke-width="0.5" mask="url(#mask-6)"></path>
            <line x1="141.142" y1="210.2037" x2="145.221" y2="214.2827" id="Stroke-37" stroke="#FFFFFF" stroke-width="0.5" mask="url(#mask-6)"></line>
            <path d="M121.9106,116.9361 L121.9106,189.1871 C121.9106,192.6341 119.1136,195.4431 115.6546,195.4431 L51.8066,195.4431 C48.3596,195.4431 45.5626,192.6341 45.5626,189.1871 L45.5626,116.9361 L121.9106,116.9361 Z" id="Fill-38" fill="#FFFFFF" mask="url(#mask-6)"></path>
            <path d="M121.9106,111.9117 L121.9106,116.9357 L45.0476,116.9357 L45.0476,111.9117 C45.0476,108.4407 47.8626,105.6247 51.3336,105.6247 L115.6126,105.6247 C119.0956,105.6247 121.9106,108.4407 121.9106,111.9117 Z" id="Stroke-39" stroke="#647A8E" mask="url(#mask-6)"></path>
            <line x1="121.9106" y1="116.9361" x2="121.9106" y2="125.5731" id="Stroke-40" stroke="#647A8E" stroke-linecap="round" stroke-linejoin="round" mask="url(#mask-6)"></line>
            <line x1="45.0473" y1="172.4742" x2="45.0473" y2="122.5962" id="Stroke-41" stroke="#647A8E" stroke-linecap="round" stroke-linejoin="round" mask="url(#mask-6)"></line>
            <path d="M121.9106,165.8258 L121.9106,189.6758 C121.9106,193.1458 119.0956,195.9728 115.6126,195.9728 L88.3766,195.9728" id="Stroke-42" stroke="#647A8E" stroke-linecap="round" stroke-linejoin="round" mask="url(#mask-6)"></path>
            <path d="M116.85,128.5015 L77.041,128.5015 C68.468,128.5015 61.517,135.4525 61.517,144.0255 C61.517,152.6005 68.468,159.5505 77.041,159.5505 L101.969,159.5505 L114.519,165.8255 L114.519,159.5505 L116.85,159.5505 C125.424,159.5505 132.374,152.6005 132.374,144.0255 C132.374,135.4525 125.424,128.5015 116.85,128.5015" id="Fill-43" fill="#EBEFF3" mask="url(#mask-6)"></path>
            <path d="M116.85,128.5015 L77.041,128.5015 C68.468,128.5015 61.517,135.4525 61.517,144.0255 C61.517,152.6005 68.468,159.5505 77.041,159.5505 L101.969,159.5505 L114.519,165.8255 L114.519,159.5505 L116.85,159.5505 C125.424,159.5505 132.374,152.6005 132.374,144.0255 C132.374,135.4525 125.424,128.5015 116.85,128.5015 Z" id="Stroke-44" stroke="#647A8E" stroke-linecap="round" stroke-linejoin="round" mask="url(#mask-6)"></path>
            <path d="M70.0952,175.2242 L52.9402,175.2242 C44.3652,175.2242 37.4152,182.1752 37.4152,190.7482 C37.4152,199.3232 44.3652,206.2732 52.9402,206.2732 L55.2142,206.2732 L55.2142,212.5482 L67.7642,206.2732 L70.0952,206.2732 C78.6692,206.2732 85.6192,199.3232 85.6192,190.7482 C85.6192,182.1752 78.6692,175.2242 70.0952,175.2242" id="Fill-45" fill="#EBEFF3" mask="url(#mask-6)"></path>
            <path d="M70.0952,175.2242 L52.9402,175.2242 C44.3652,175.2242 37.4152,182.1752 37.4152,190.7482 C37.4152,199.3232 44.3652,206.2732 52.9402,206.2732 L55.2142,206.2732 L55.2142,212.5482 L67.7642,206.2732 L70.0952,206.2732 C78.6692,206.2732 85.6192,199.3232 85.6192,190.7482 C85.6192,182.1752 78.6692,175.2242 70.0952,175.2242 Z" id="Stroke-46" stroke="#647A8E" stroke-width="1.169" mask="url(#mask-6)"></path>
            <path d="M54.3334,111.901 C54.3334,113.232 53.2544,114.311 51.9234,114.311 C50.5934,114.311 49.5144,113.232 49.5144,111.901 C49.5144,110.57 50.5934,109.492 51.9234,109.492 C53.2544,109.492 54.3334,110.57 54.3334,111.901" id="Fill-47" fill="#FFFFFF" mask="url(#mask-6)"></path>
            <g id="Group-50" mask="url(#mask-6)">
              <g transform="translate(72.000000, 139.000000)">
                <line x1="0.4545" y1="1.2887" x2="45.5635" y2="1.2887" id="Fill-48" stroke="none" fill="#EBEFF3" fill-rule="evenodd"></line>
                <line x1="0.4545" y1="1.2887" x2="45.5635" y2="1.2887" id="Stroke-49" stroke="#647A8E" stroke-width="1" fill="none" stroke-linecap="round" stroke-linejoin="round"></line>
              </g>
            </g>
            <g id="Group-53" mask="url(#mask-6)">
              <g transform="translate(72.000000, 148.000000)">
                <line x1="0.4545" y1="0.5357" x2="39.4355" y2="0.5357" id="Fill-51" stroke="none" fill="#EBEFF3" fill-rule="evenodd"></line>
                <line x1="0.4545" y1="0.5357" x2="39.4355" y2="0.5357" id="Stroke-52" stroke="#647A8E" stroke-width="1" fill="none" stroke-linecap="round" stroke-linejoin="round"></line>
              </g>
            </g>
            <g id="Group-56" mask="url(#mask-6)">
              <g transform="translate(49.000000, 185.000000)">
                <line x1="0.5141" y1="1.3209" x2="21.0051" y2="1.3209" id="Fill-54" stroke="none" fill="#EBEFF3" fill-rule="evenodd"></line>
                <line x1="0.5141" y1="1.3209" x2="21.0051" y2="1.3209" id="Stroke-55" stroke="#647A8E" stroke-width="1" fill="none" stroke-linecap="round" stroke-linejoin="round"></line>
              </g>
            </g>
            <g id="Group-59" mask="url(#mask-6)">
              <g transform="translate(49.000000, 194.000000)">
                <line x1="0.5141" y1="0.9" x2="11.4541" y2="0.9" id="Fill-57" stroke="none" fill="#EBEFF3" fill-rule="evenodd"></line>
                <line x1="0.5141" y1="0.9" x2="11.4541" y2="0.9" id="Stroke-58" stroke="#647A8E" stroke-width="1" fill="none" stroke-linecap="round" stroke-linejoin="round"></line>
              </g>
            </g>
            <line x1="25.8324" y1="90.3536" x2="25.8324" y2="6.4046" id="Stroke-60" stroke="#CFD7DF" mask="url(#mask-6)"></line>
            <line x1="41.2787" y1="90.3536" x2="41.2787" y2="6.4046" id="Stroke-61" stroke="#CFD7DF" mask="url(#mask-6)"></line>
          </g>
        </g>
      </g>
    </g>
  </g>
</svg>